<svg width="24" height="24" viewBox="0 0 24 24" fill="none" xmlns="http://www.w3.org/2000/svg">
<path opacity="0.5" d="M4.99995 17.75C4.84658 17.7501 4.69687 17.7032 4.57099 17.6156C4.44511 17.528 4.3491 17.4039 4.29592 17.2601C4.24274 17.1162 4.23494 16.9595 4.27357 16.8111C4.31219 16.6627 4.39539 16.5297 4.51195 16.43L11.5119 10.43C11.6479 10.3135 11.821 10.2495 11.9999 10.2495C12.1789 10.2495 12.352 10.3135 12.4879 10.43L19.4879 16.43C19.6045 16.5297 19.6877 16.6627 19.7263 16.8111C19.765 16.9595 19.7572 17.1162 19.704 17.2601C19.6508 17.4039 19.5548 17.528 19.4289 17.6156C19.303 17.7032 19.1533 17.7501 18.9999 17.75H4.99995Z" fill="#22C55E"/>
<path fill-rule="evenodd" clip-rule="evenodd" d="M4.43005 13.488C4.49418 13.5628 4.57242 13.6242 4.66031 13.6688C4.7482 13.7134 4.84401 13.7402 4.94227 13.7477C5.04052 13.7552 5.1393 13.7433 5.23295 13.7126C5.3266 13.682 5.41328 13.6332 5.48805 13.569L12.0001 7.98797L18.5121 13.569C18.5862 13.6369 18.6733 13.6892 18.768 13.7228C18.8628 13.7563 18.9633 13.7705 19.0637 13.7645C19.1641 13.7584 19.2622 13.7323 19.3522 13.6875C19.4423 13.6428 19.5224 13.5804 19.5879 13.5041C19.6533 13.4278 19.7028 13.3391 19.7333 13.2433C19.7637 13.1475 19.7747 13.0465 19.7653 12.9464C19.756 12.8463 19.7267 12.7491 19.679 12.6605C19.6314 12.572 19.5665 12.4939 19.4881 12.431L12.4881 6.43097C12.3521 6.3145 12.179 6.25049 12.0001 6.25049C11.8211 6.25049 11.648 6.3145 11.5121 6.43097L4.51205 12.431C4.36124 12.5605 4.26799 12.7445 4.2528 12.9427C4.23762 13.1409 4.30173 13.337 4.43105 13.488H4.43005Z" fill="#22C55E"/>
</svg>
