<svg width="241" height="241" viewBox="0 0 241 241" fill="none" xmlns="http://www.w3.org/2000/svg">
<path d="M120.5 120.5V0.5C142.631 0.5 164.33 6.61993 183.2 18.1832C202.069 29.7464 217.374 46.3026 227.421 66.0211C237.468 85.7397 241.866 107.853 240.13 129.915C238.394 151.978 230.59 173.13 217.582 191.034L120.5 120.5Z" fill="#00B8D9" stroke="white"/>
<path d="M120.5 120.5L217.582 191.034C202.687 211.536 181.683 226.796 157.582 234.627L120.5 120.5Z" fill="#FF5630" stroke="white"/>
<path d="M120.5 120.5L49.9658 217.582C29.4641 202.687 14.2042 181.683 6.37322 157.582C-1.45774 133.481 -1.45774 107.519 6.37322 83.418C14.2042 59.3167 29.4641 38.3133 49.9658 23.418C70.4675 8.5226 95.1585 0.5 120.5 0.5V120.5Z" fill="#00A76F" stroke="white"/>
<path d="M120.499 120.5L157.581 234.627C139.571 240.479 120.431 241.985 101.727 239.023C83.0228 236.06 65.2854 228.713 49.9648 217.582L120.499 120.5Z" fill="#FFAB00" stroke="white"/>
</svg>
