<svg width="22" height="22" viewBox="0 0 22 22" fill="none" xmlns="http://www.w3.org/2000/svg">
<path d="M2.40625 18.5625C2.13275 18.5625 1.87044 18.6712 1.67705 18.8645C1.48365 19.0579 1.375 19.3202 1.375 19.5938C1.375 19.8673 1.48365 20.1296 1.67705 20.323C1.87044 20.5163 2.13275 20.625 2.40625 20.625H19.5938C19.8673 20.625 20.1296 20.5163 20.323 20.323C20.5164 20.1296 20.625 19.8673 20.625 19.5938C20.625 19.3202 20.5164 19.0579 20.323 18.8645C20.1296 18.6712 19.8673 18.5625 19.5938 18.5625H2.40625Z" fill="#212B36"/>
<path opacity="0.32" d="M11.4153 5.7063C11.5321 5.52755 11.6655 5.33917 11.814 5.1453L11.836 5.11505C12.2008 4.63119 12.6207 4.19144 13.0873 3.80467C13.6276 3.36467 14.2821 2.98792 15.0329 2.82842C15.2831 2.77617 15.5458 2.74867 15.8166 2.75005C17.6743 2.76242 19.0781 4.0288 19.9389 5.09305C20.0475 5.22642 20.1451 5.35567 20.2359 5.47942L20.2744 5.53305C20.3665 5.65955 20.4394 5.79155 20.4944 5.92492L20.5054 5.95105C20.8684 6.87505 20.3748 7.8733 19.525 8.29542C19.4593 8.32846 19.3918 8.35784 19.3229 8.38342L16.2539 9.50817L11.9831 15.6682C10.6934 17.5285 7.78388 16.2567 8.27475 14.0457L8.70375 12.111L4.43438 13.3142C4.07673 13.415 3.70058 13.4317 3.33542 13.3628C2.97026 13.294 2.62601 13.1415 2.32965 12.9173C2.03328 12.6932 1.79287 12.4034 1.62724 12.0708C1.46161 11.7381 1.37528 11.3716 1.375 11V7.09505C1.375 5.4313 3.62725 4.91292 4.35325 6.41167L5.18513 8.12905L9.90413 6.88605C10.4981 6.73067 11.0261 6.29755 11.4166 5.7063H11.4153ZM5.973 6.28792L6.1105 6.46392L9.55488 5.55642C9.73637 5.50967 10.01 5.33917 10.2685 4.94867C10.4056 4.73957 10.5496 4.53504 10.7003 4.33542L8.9485 3.13505C8.58301 2.88427 8.15014 2.75004 7.70688 2.75005C5.885 2.75005 4.85513 4.84692 5.973 6.28792Z" fill="#212B36"/>
</svg>
