<svg width="18" height="18" viewBox="0 0 18 18" fill="none" xmlns="http://www.w3.org/2000/svg">
<path fill-rule="evenodd" clip-rule="evenodd" d="M6.75796 2.99222C6.96936 3.21986 6.9562 3.57577 6.72856 3.78718L2.81657 7.42017C2.81657 7.42017 2.81658 7.42016 2.81657 7.42017C2.5724 7.64694 2.37901 7.92285 2.24914 8.22972C2.11926 8.53661 2.05584 8.86752 2.06305 9.20067C2.07026 9.53383 2.14794 9.86168 2.29096 10.1627C2.43399 10.4636 2.63913 10.7309 2.89289 10.9469L6.7097 14.1967C6.94623 14.3981 6.97472 14.7531 6.77332 14.9897C6.57192 15.2262 6.21691 15.2547 5.98037 15.0533L2.16369 11.8036C1.78898 11.4846 1.48606 11.09 1.27486 10.6455C1.06366 10.2011 0.948961 9.71696 0.938316 9.22501C0.927671 8.73306 1.02132 8.24442 1.2131 7.79127C1.40488 7.33811 1.69044 6.9307 2.051 6.59584L5.96301 2.96283C6.19065 2.75143 6.54656 2.76459 6.75796 2.99222ZM8.82378 3.11569C9.01628 2.98858 9.36625 2.80378 9.75853 2.97931L9.75998 2.97996C10.1517 3.15658 10.2462 3.54077 10.2791 3.76931C10.3126 4.00201 10.3126 4.30586 10.3125 4.63149C10.3125 4.64438 10.3125 4.6573 10.3125 4.67025V5.88691C11.4358 5.9741 12.6966 6.33178 13.8271 7.13989C14.0799 7.32055 14.1383 7.67188 13.9576 7.92461C13.777 8.17734 13.4257 8.23577 13.1729 8.05511C12.0771 7.27182 10.8165 6.99 9.75004 6.99C9.43938 6.99 9.18754 6.73816 9.18754 6.4275V4.67025C9.18754 4.50475 9.18726 4.36954 9.18524 4.25787C9.1003 4.33062 8.99888 4.42036 8.87495 4.53046M8.87495 4.53046L5.89617 7.17776C5.29562 7.71205 4.89002 8.07439 4.62727 8.38311C4.37487 8.67967 4.32004 8.85268 4.32004 9C4.32004 9.14784 4.37501 9.32106 4.62727 9.61746C4.88997 9.92612 5.29531 10.2881 5.8959 10.822C5.89586 10.822 5.89594 10.822 5.8959 10.822L8.87565 13.4695C8.99915 13.5794 9.10054 13.6692 9.18525 13.7419C9.18726 13.6303 9.18754 13.4952 9.18754 13.3298V11.5718C9.18754 11.2611 9.43938 11.0093 9.75004 11.0093C11.1844 11.0093 12.6751 11.3496 13.962 11.9767C14.6511 12.3124 15.2926 12.7358 15.837 13.2426C15.7202 12.2786 15.5075 11.4597 15.2283 10.7664C15.1122 10.4782 15.2517 10.1505 15.5399 10.0345C15.8281 9.91842 16.1558 10.058 16.2718 10.3461C16.7709 11.5855 17.0625 13.1193 17.0625 15C17.0625 15.2588 16.886 15.4842 16.6347 15.5461C16.3834 15.6081 16.1223 15.4906 16.002 15.2615C15.5102 14.3248 14.604 13.5409 13.4693 12.988C12.5043 12.5179 11.4012 12.2288 10.3125 12.1538V13.3298C10.3125 13.3427 10.3125 13.3557 10.3125 13.3686C10.3126 13.6945 10.3126 13.9984 10.2791 14.231C10.2462 14.4599 10.1515 14.8435 9.75998 15.02C9.36691 15.1973 9.01593 15.0116 8.82356 14.8844C8.62782 14.755 8.40121 14.5533 8.15849 14.3373C8.1484 14.3283 8.13829 14.3193 8.12815 14.3103L5.14867 11.663L5.11452 11.6326C4.55439 11.1347 4.08977 10.7217 3.77055 10.3466C3.43444 9.95169 3.19504 9.52642 3.19504 9C3.19504 8.47382 3.43458 8.04871 3.77055 7.65396C4.08939 7.27933 4.55338 6.86658 5.11276 6.36895L8.12762 3.68955C8.13725 3.68099 8.14693 3.67239 8.15652 3.66387C8.40028 3.44724 8.62755 3.24526 8.82378 3.11569" fill="#637381"/>
</svg>
