<svg width="54" height="51" viewBox="0 0 54 51" fill="none" xmlns="http://www.w3.org/2000/svg">
<path d="M48.5144 35.6089C49.9572 40.5385 50.859 44.0854 50.859 44.0854C50.859 44.0854 49.1156 44.2056 46.4103 44.6264L45.6889 35.7291C43.0438 31.04 36.1904 18.716 34.3869 13.8465C34.3869 13.8465 37.2124 10.5401 34.1464 7.47412C34.1464 7.47412 30.299 1.16184 29.0966 0.019618C30.3591 -0.160733 31.7418 0.921374 33.1846 2.48442V2.36418C39.2564 10.6603 47.4323 25.1485 53.2035 33.5048L48.5144 35.6089ZM25.3093 1.34219C21.2213 -1.36307 15.2697 2.66477 16.2917 7.47412L0 35.0678L5.2903 37.232L19.5981 18.4154C20.1392 25.6896 13.7668 37.8933 9.85919 40.5986C7.0938 43.2437 11.0615 47.993 13.1656 48.8346V48.8947C13.1656 48.8947 17.7946 51.0589 23.3855 50.9988C23.626 47.8126 24.5277 38.254 24.2873 35.2482C31.3811 23.8861 35.1684 9.75857 25.3093 1.34219Z" fill="#00A76F"/>
</svg>
