<svg width="20" height="20" viewBox="0 0 20 20" fill="none" xmlns="http://www.w3.org/2000/svg">
<path d="M6.45964 2.0835C6.45964 1.91774 6.39379 1.75876 6.27658 1.64155C6.15937 1.52434 6.0004 1.4585 5.83464 1.4585C5.66888 1.4585 5.5099 1.52434 5.39269 1.64155C5.27548 1.75876 5.20964 1.91774 5.20964 2.0835V3.40016C4.00964 3.496 3.22297 3.731 2.64464 4.31016C2.06547 4.8885 1.83047 5.676 1.7338 6.87516H18.2688C18.1721 5.67516 17.9371 4.8885 17.358 4.31016C16.7796 3.731 15.9921 3.496 14.793 3.39933V2.0835C14.793 1.91774 14.7271 1.75876 14.6099 1.64155C14.4927 1.52434 14.3337 1.4585 14.168 1.4585C14.0022 1.4585 13.8432 1.52434 13.726 1.64155C13.6088 1.75876 13.543 1.91774 13.543 2.0835V3.34433C12.9888 3.3335 12.3671 3.3335 11.668 3.3335H8.33464C7.63547 3.3335 7.0138 3.3335 6.45964 3.34433V2.0835Z" fill="#212B36"/>
<path fill-rule="evenodd" clip-rule="evenodd" d="M18.3346 10.0002C18.3346 9.301 18.3346 8.67933 18.3238 8.12516H1.6788C1.66797 8.67933 1.66797 9.301 1.66797 10.0002V11.6668C1.66797 14.8093 1.66797 16.381 2.64464 17.3568C3.62047 18.3335 5.19214 18.3335 8.33464 18.3335H11.668C14.8105 18.3335 16.3821 18.3335 17.358 17.3568C18.3346 16.381 18.3346 14.8093 18.3346 11.6668V10.0002ZM11.668 10.2085C11.2812 10.2085 10.9103 10.3621 10.6368 10.6356C10.3633 10.9091 10.2096 11.2801 10.2096 11.6668V13.3335C10.2096 13.7203 10.3633 14.0912 10.6368 14.3647C10.9103 14.6382 11.2812 14.7918 11.668 14.7918C12.0547 14.7918 12.4257 14.6382 12.6992 14.3647C12.9727 14.0912 13.1263 13.7203 13.1263 13.3335V11.6668C13.1263 11.2801 12.9727 10.9091 12.6992 10.6356C12.4257 10.3621 12.0547 10.2085 11.668 10.2085ZM11.668 11.4585C11.6127 11.4585 11.5597 11.4804 11.5207 11.5195C11.4816 11.5586 11.4596 11.6116 11.4596 11.6668V13.3335C11.4596 13.3887 11.4816 13.4417 11.5207 13.4808C11.5597 13.5199 11.6127 13.5418 11.668 13.5418C11.7232 13.5418 11.7762 13.5199 11.8153 13.4808C11.8544 13.4417 11.8763 13.3887 11.8763 13.3335V11.6668C11.8763 11.6116 11.8544 11.5586 11.8153 11.5195C11.7762 11.4804 11.7232 11.4585 11.668 11.4585ZM8.99047 10.256C9.10469 10.3033 9.20231 10.3834 9.27099 10.4862C9.33967 10.589 9.37632 10.7099 9.3763 10.8335V14.1668C9.3763 14.3326 9.31045 14.4916 9.19324 14.6088C9.07603 14.726 8.91706 14.7918 8.7513 14.7918C8.58554 14.7918 8.42657 14.726 8.30936 14.6088C8.19215 14.4916 8.1263 14.3326 8.1263 14.1668V12.3418L7.94297 12.5252C7.82449 12.6356 7.66778 12.6957 7.50587 12.6928C7.34395 12.69 7.18946 12.6244 7.07495 12.5098C6.96044 12.3953 6.89485 12.2408 6.89199 12.0789C6.88913 11.917 6.94924 11.7603 7.05964 11.6418L8.30964 10.3918C8.39698 10.3044 8.50828 10.2449 8.62946 10.2207C8.75064 10.1965 8.87627 10.2088 8.99047 10.256Z" fill="#212B36"/>
</svg>
