<svg width="12" height="13" viewBox="0 0 12 13" fill="none" xmlns="http://www.w3.org/2000/svg">
<path d="M11.9981 0.749789V9.49829C11.9981 9.75865 11.9096 9.99038 11.7325 10.1935C11.5554 10.3966 11.3315 10.5541 11.0607 10.666C10.79 10.778 10.5205 10.8613 10.2523 10.916C9.98407 10.9707 9.73281 10.998 9.49849 10.998C9.26417 10.998 9.01291 10.9706 8.7447 10.916C8.4765 10.8613 8.20701 10.778 7.93623 10.666C7.66546 10.554 7.44154 10.3965 7.26447 10.1935C7.08741 9.99042 6.99888 9.75869 6.99888 9.49829C6.99888 9.23788 7.08741 9.00615 7.26447 8.8031C7.44154 8.60006 7.66546 8.44254 7.93623 8.33055C8.20701 8.21855 8.4765 8.13523 8.7447 8.08058C9.01291 8.02593 9.26417 7.99859 9.49849 7.99857C10.0453 7.99857 10.5452 8.10011 10.9982 8.3032V4.10862L4.99926 5.95988V11.498C4.99926 11.7584 4.91073 11.9901 4.73366 12.1932C4.5566 12.3963 4.33267 12.5538 4.06189 12.6657C3.7911 12.7777 3.52161 12.861 3.25341 12.9157C2.98522 12.9704 2.73396 12.9977 2.49963 12.9977C2.2653 12.9977 2.01404 12.9704 1.74584 12.9157C1.47765 12.8611 1.20816 12.7777 0.937372 12.6657C0.666586 12.5538 0.442661 12.3962 0.265597 12.1932C0.0885322 11.9901 0 11.7584 0 11.498C0 11.2376 0.0885322 11.0059 0.265597 10.8028C0.442661 10.5998 0.666586 10.4422 0.937372 10.3303C1.20816 10.2183 1.47765 10.1349 1.74584 10.0803C2.01404 10.0256 2.2653 9.9983 2.49963 9.99828C3.04641 9.99828 3.54632 10.0998 3.99936 10.3029V2.74953C3.99936 2.5881 4.04883 2.44099 4.14777 2.3082C4.24671 2.17541 4.37429 2.08298 4.53051 2.03091L11.0294 0.0312457C11.0919 0.0104152 11.1648 0 11.2481 0C11.4564 0 11.6335 0.0729067 11.7793 0.21872C11.9251 0.364534 11.9981 0.541505 11.9981 0.749789Z" fill="white"/>
</svg>
