<svg width="26" height="21" viewBox="0 0 26 21" fill="none" xmlns="http://www.w3.org/2000/svg">
<path d="M12.5033 12.1175C13.4326 12.1907 14.4015 11.5257 14.6675 10.6324C14.9335 9.73901 14.3958 8.95551 13.4665 8.88238C12.5373 8.80924 11.5684 9.47417 11.3024 10.3675C11.0364 11.2609 11.5741 12.0444 12.5033 12.1175Z" fill="#637381"/>
<path d="M14.1889 6.456C15.1182 6.52913 16.0871 5.8642 16.3531 4.97083C16.6191 4.07746 16.0814 3.29396 15.1522 3.22082C14.2229 3.14769 13.254 3.81262 12.988 4.70599C12.722 5.59936 13.2597 6.38286 14.1889 6.456Z" fill="#637381"/>
<path d="M10.8177 17.7791C11.7469 17.8522 12.7159 17.1873 12.9819 16.2939C13.2478 15.4006 12.7102 14.6171 11.7809 14.5439C10.8517 14.4708 9.88272 15.1357 9.61674 16.0291C9.35075 16.9225 9.88844 17.706 10.8177 17.7791Z" fill="#637381"/>
</svg>
