<svg width="16" height="16" viewBox="0 0 16 16" fill="none" xmlns="http://www.w3.org/2000/svg">
<path fill-rule="evenodd" clip-rule="evenodd" d="M8.29205 14.1413C8.19572 14.172 8.09129 14.1649 8.00005 14.1213C7.95484 14.1004 7.91472 14.0699 7.88249 14.0319C7.85025 13.9939 7.82667 13.9493 7.81339 13.9013L7.49605 12.6786C7.3852 12.2513 7.22407 11.8387 7.01605 11.4493C6.69272 10.8446 6.20405 10.38 5.75072 9.98931L4.79205 9.16265C4.71872 9.09939 4.66144 9.01963 4.62493 8.92993C4.58843 8.84022 4.57373 8.74314 4.58205 8.64665L5.12339 2.38531C5.13639 2.2331 5.20598 2.0913 5.31841 1.98787C5.43084 1.88445 5.57795 1.82693 5.73072 1.82665H8.83005C10.9207 1.82665 12.6827 3.28131 13.0207 5.23531L13.4907 7.95531C13.506 8.04297 13.5019 8.1329 13.4787 8.21881C13.4556 8.30472 13.414 8.38454 13.3567 8.45267C13.2995 8.52081 13.2281 8.57562 13.1475 8.61327C13.0669 8.65093 12.979 8.67051 12.8901 8.67065H9.43605C8.78472 8.67065 8.28938 9.25465 8.39472 9.89731L8.83672 12.5933C8.89672 12.9626 8.88005 13.34 8.78605 13.7026C8.75954 13.7985 8.70921 13.8862 8.63974 13.9574C8.57027 14.0286 8.48392 14.0811 8.38872 14.11L8.29205 14.1413ZM7.56538 15.022C7.88785 15.1768 8.25736 15.2023 8.59805 15.0933L8.69472 15.062C8.95036 14.9815 9.18152 14.8378 9.36673 14.6441C9.55193 14.4504 9.68517 14.213 9.75405 13.954C9.88292 13.4568 9.90654 12.9382 9.82338 12.4313L9.38138 9.73531C9.38002 9.72736 9.38042 9.71921 9.38254 9.71142C9.38466 9.70364 9.38846 9.69642 9.39367 9.69026C9.39888 9.6841 9.40537 9.67915 9.41269 9.67576C9.42001 9.67237 9.42798 9.67063 9.43605 9.67065H12.8894C13.8894 9.67065 14.6467 8.76931 14.4761 7.78465L14.0061 5.06465C13.5801 2.60665 11.3801 0.826647 8.83005 0.826647H5.73072C4.89539 0.826647 4.19939 1.46665 4.12739 2.29865L3.58539 8.56065C3.56335 8.81496 3.60202 9.07086 3.69822 9.3073C3.79442 9.54374 3.9454 9.75396 4.13872 9.92065L5.09872 10.7473C5.53539 11.1233 5.90272 11.488 6.13339 11.9206C6.30472 12.2406 6.43739 12.5793 6.52805 12.93L6.84539 14.152C6.89497 14.3406 6.98507 14.5162 7.10942 14.6664C7.23376 14.8167 7.38936 14.938 7.56538 15.022ZM1.97872 9.66998C2.10756 9.67561 2.23359 9.63125 2.33049 9.54615C2.42739 9.46105 2.48766 9.3418 2.49872 9.21331L3.14539 1.72265C3.15634 1.6111 3.14444 1.49849 3.11041 1.3917C3.07639 1.2849 3.02095 1.18616 2.94748 1.10151C2.87401 1.01687 2.78406 0.948081 2.68312 0.899362C2.58218 0.850642 2.47237 0.823012 2.36039 0.818157C2.24841 0.813302 2.13661 0.831325 2.03183 0.871125C1.92706 0.910925 1.83149 0.971667 1.75097 1.04964C1.67045 1.12761 1.60668 1.22118 1.56354 1.32463C1.52039 1.42808 1.49879 1.53924 1.50005 1.65131V9.17065C1.49993 9.29964 1.54967 9.42369 1.63888 9.51687C1.72808 9.61004 1.84984 9.66448 1.97872 9.66998Z" fill="#212B36"/>
</svg>
