<svg width="16" height="16" viewBox="0 0 16 16" fill="none" xmlns="http://www.w3.org/2000/svg">
<path d="M6.00065 6.66659C7.47341 6.66659 8.66732 5.47268 8.66732 3.99992C8.66732 2.52716 7.47341 1.33325 6.00065 1.33325C4.52789 1.33325 3.33398 2.52716 3.33398 3.99992C3.33398 5.47268 4.52789 6.66659 6.00065 6.66659Z" fill="#637381"/>
<path d="M6.00065 14.0006C8.57798 14.0006 10.6673 12.8067 10.6673 11.3339C10.6673 9.86116 8.57798 8.66725 6.00065 8.66725C3.42332 8.66725 1.33398 9.86116 1.33398 11.3339C1.33398 12.8067 3.42332 14.0006 6.00065 14.0006Z" fill="#637381"/>
<path d="M14 11.3333C14 12.4379 12.6427 13.3333 10.986 13.3333C11.474 12.7999 11.81 12.1299 11.81 11.3346C11.81 10.5379 11.4733 9.86792 10.984 9.33392C12.6413 9.33325 14 10.2293 14 11.3333ZM12 3.99992C12.0002 4.32173 11.9228 4.63884 11.7742 4.92432C11.6257 5.20981 11.4105 5.45524 11.1468 5.63977C10.8832 5.8243 10.5789 5.94249 10.2598 5.9843C9.94073 6.02611 9.61627 5.9903 9.31398 5.87992C9.63967 5.30695 9.81039 4.65898 9.80932 3.99992C9.80932 3.31659 9.62932 2.67525 9.31465 2.12059C9.6169 2.01034 9.94129 1.97464 10.2603 2.01651C10.5793 2.05838 10.8835 2.17659 11.147 2.36111C11.4106 2.54563 11.6257 2.79101 11.7742 3.07642C11.9227 3.36183 12.0002 3.67819 12 3.99992Z" fill="#637381"/>
</svg>
