<svg width="16" height="16" viewBox="0 0 16 16" fill="none" xmlns="http://www.w3.org/2000/svg">
<path d="M6.4987 7.99996C6.4987 7.60213 6.65673 7.2206 6.93804 6.9393C7.21934 6.65799 7.60087 6.49996 7.9987 6.49996C8.39652 6.49996 8.77805 6.65799 9.05936 6.9393C9.34066 7.2206 9.4987 7.60213 9.4987 7.99996C9.4987 8.39778 9.34066 8.77931 9.05936 9.06062C8.77805 9.34192 8.39652 9.49996 7.9987 9.49996C7.60087 9.49996 7.21934 9.34192 6.93804 9.06062C6.65673 8.77931 6.4987 8.39778 6.4987 7.99996Z" fill="white"/>
<path fill-rule="evenodd" clip-rule="evenodd" d="M1.33203 7.99996C1.33203 9.09329 1.61536 9.46063 2.18203 10.1973C3.31336 11.6666 5.2107 13.3333 7.9987 13.3333C10.7867 13.3333 12.684 11.6666 13.8154 10.1973C14.382 9.46129 14.6654 9.09263 14.6654 7.99996C14.6654 6.90663 14.382 6.53929 13.8154 5.80263C12.684 4.33329 10.7867 2.66663 7.9987 2.66663C5.2107 2.66663 3.31336 4.33329 2.18203 5.80263C1.61536 6.53996 1.33203 6.90729 1.33203 7.99996ZM7.9987 5.49996C7.33566 5.49996 6.69977 5.76335 6.23093 6.23219C5.76209 6.70103 5.4987 7.33692 5.4987 7.99996C5.4987 8.663 5.76209 9.29889 6.23093 9.76773C6.69977 10.2366 7.33566 10.5 7.9987 10.5C8.66174 10.5 9.29762 10.2366 9.76646 9.76773C10.2353 9.29889 10.4987 8.663 10.4987 7.99996C10.4987 7.33692 10.2353 6.70103 9.76646 6.23219C9.29762 5.76335 8.66174 5.49996 7.9987 5.49996Z" fill="white"/>
</svg>
