<svg width="16" height="16" viewBox="0 0 16 16" fill="none" xmlns="http://www.w3.org/2000/svg">
<path d="M6.4987 8.00008C6.4987 7.60226 6.65673 7.22073 6.93804 6.93942C7.21934 6.65812 7.60087 6.50008 7.9987 6.50008C8.39652 6.50008 8.77805 6.65812 9.05936 6.93942C9.34066 7.22073 9.4987 7.60226 9.4987 8.00008C9.4987 8.39791 9.34066 8.77944 9.05936 9.06074C8.77805 9.34205 8.39652 9.50008 7.9987 9.50008C7.60087 9.50008 7.21934 9.34205 6.93804 9.06074C6.65673 8.77944 6.4987 8.39791 6.4987 8.00008Z" fill="#919EAB"/>
<path fill-rule="evenodd" clip-rule="evenodd" d="M1.33203 8.00008C1.33203 9.09341 1.61536 9.46075 2.18203 10.1974C3.31336 11.6667 5.2107 13.3334 7.9987 13.3334C10.7867 13.3334 12.684 11.6667 13.8154 10.1974C14.382 9.46141 14.6654 9.09275 14.6654 8.00008C14.6654 6.90675 14.382 6.53942 13.8154 5.80275C12.684 4.33342 10.7867 2.66675 7.9987 2.66675C5.2107 2.66675 3.31336 4.33342 2.18203 5.80275C1.61536 6.54008 1.33203 6.90741 1.33203 8.00008ZM7.9987 5.50008C7.33566 5.50008 6.69977 5.76347 6.23093 6.23231C5.76209 6.70116 5.4987 7.33704 5.4987 8.00008C5.4987 8.66312 5.76209 9.29901 6.23093 9.76785C6.69977 10.2367 7.33566 10.5001 7.9987 10.5001C8.66174 10.5001 9.29762 10.2367 9.76646 9.76785C10.2353 9.29901 10.4987 8.66312 10.4987 8.00008C10.4987 7.33704 10.2353 6.70116 9.76646 6.23231C9.29762 5.76347 8.66174 5.50008 7.9987 5.50008Z" fill="#919EAB"/>
</svg>
