<svg width="20" height="20" viewBox="0 0 20 20" fill="none" xmlns="http://www.w3.org/2000/svg">
<path fill-rule="evenodd" clip-rule="evenodd" d="M18.3333 9.99178C18.3333 14.5943 14.6025 18.3251 9.99997 18.3251C8.66664 18.3251 7.40664 18.0118 6.28997 17.4551C5.99499 17.3027 5.65447 17.2632 5.33247 17.3443L3.47747 17.8409C3.29386 17.8899 3.1006 17.8898 2.91708 17.8405C2.73355 17.7912 2.56623 17.6944 2.4319 17.56C2.29757 17.4256 2.20096 17.2582 2.15177 17.0747C2.10257 16.8911 2.10253 16.6979 2.15164 16.5143L2.64747 14.6593C2.72812 14.3374 2.6884 13.9972 2.5358 13.7026C1.96216 12.5498 1.6646 11.2794 1.66664 9.99178C1.66664 5.38928 5.39747 1.65845 9.99997 1.65845C14.6025 1.65845 18.3333 5.38928 18.3333 9.99178ZM6.66664 10.8251C6.44562 10.8251 6.23366 10.7373 6.07738 10.581C5.9211 10.4248 5.8333 10.2128 5.8333 9.99178C5.8333 9.77077 5.9211 9.55881 6.07738 9.40252C6.23366 9.24624 6.44562 9.15845 6.66664 9.15845C6.88765 9.15845 7.09961 9.24624 7.25589 9.40252C7.41217 9.55881 7.49997 9.77077 7.49997 9.99178C7.49997 10.2128 7.41217 10.4248 7.25589 10.581C7.09961 10.7373 6.88765 10.8251 6.66664 10.8251ZM9.16664 9.99178C9.16664 10.2128 9.25443 10.4248 9.41071 10.581C9.56699 10.7373 9.77896 10.8251 9.99997 10.8251C10.221 10.8251 10.4329 10.7373 10.5892 10.581C10.7455 10.4248 10.8333 10.2128 10.8333 9.99178C10.8333 9.77077 10.7455 9.55881 10.5892 9.40252C10.4329 9.24624 10.221 9.15845 9.99997 9.15845C9.77896 9.15845 9.56699 9.24624 9.41071 9.40252C9.25443 9.55881 9.16664 9.77077 9.16664 9.99178ZM12.5 9.99178C12.5 10.2128 12.5878 10.4248 12.744 10.581C12.9003 10.7373 13.1123 10.8251 13.3333 10.8251C13.5543 10.8251 13.7663 10.7373 13.9226 10.581C14.0788 10.4248 14.1666 10.2128 14.1666 9.99178C14.1666 9.77077 14.0788 9.55881 13.9226 9.40252C13.7663 9.24624 13.5543 9.15845 13.3333 9.15845C13.1123 9.15845 12.9003 9.24624 12.744 9.40252C12.5878 9.55881 12.5 9.77077 12.5 9.99178Z" fill="#637381"/>
</svg>
