<svg width="22" height="22" viewBox="0 0 22 22" fill="none" xmlns="http://www.w3.org/2000/svg">
<path opacity="0.32" fill-rule="evenodd" clip-rule="evenodd" d="M19.1688 7.54141C17.849 7.87338 16.2908 7.89543 14.9449 7.48426C14.3759 7.31041 13.9322 6.86716 13.7402 6.30405C13.2618 4.90125 13.1436 3.18419 13.4952 1.86252C12.7672 1.84424 11.9394 1.83337 11 1.83337C7.8061 1.83337 5.90283 1.9588 4.82428 2.07518C4.02523 2.1614 3.4091 2.70262 3.25949 3.49224C3.0266 4.72138 2.75 7.01919 2.75 11C2.75 14.9809 3.0266 17.2787 3.25949 18.5079C3.4091 19.2975 4.02523 19.8387 4.82428 19.9249C5.90283 20.0413 7.8061 20.1667 11 20.1667C14.1939 20.1667 16.0972 20.0413 17.1757 19.9249C17.9748 19.8387 18.5909 19.2975 18.7405 18.5079C18.9734 17.2787 19.25 14.9809 19.25 11C19.25 9.66583 19.2189 8.52064 19.1688 7.54141ZM7.33333 11.9167C6.82706 11.9167 6.41667 11.5063 6.41667 11C6.41667 10.4938 6.82706 10.0834 7.33333 10.0834H11C11.5063 10.0834 11.9167 10.4938 11.9167 11C11.9167 11.5063 11.5063 11.9167 11 11.9167H7.33333ZM7.33333 16.0417C6.82706 16.0417 6.41667 15.6313 6.41667 15.125C6.41667 14.6188 6.82706 14.2084 7.33333 14.2084H13.75C14.2563 14.2084 14.6667 14.6188 14.6667 15.125C14.6667 15.6313 14.2563 16.0417 13.75 16.0417H7.33333Z" fill="#212B36"/>
<path d="M6.41797 15.125C6.41797 15.6313 6.82836 16.0417 7.33464 16.0417H13.7513C14.2576 16.0417 14.668 15.6313 14.668 15.125C14.668 14.6187 14.2576 14.2083 13.7513 14.2083H7.33464C6.82836 14.2083 6.41797 14.6187 6.41797 15.125Z" fill="#212B36"/>
<path d="M6.41797 11C6.41797 11.5063 6.82836 11.9167 7.33464 11.9167H11.0013C11.5076 11.9167 11.918 11.5063 11.918 11C11.918 10.4937 11.5076 10.0833 11.0013 10.0833H7.33464C6.82836 10.0833 6.41797 10.4937 6.41797 11Z" fill="#212B36"/>
<path d="M19.1701 7.54137C17.8504 7.87334 16.2921 7.89539 14.9462 7.48421C14.3772 7.31037 13.9335 6.86711 13.7415 6.30401C13.2631 4.90119 13.1449 3.1841 13.4965 1.86243C13.4965 1.86243 14.6186 2.29161 16.6811 4.35411C18.7436 6.41662 19.1701 7.54137 19.1701 7.54137Z" fill="#212B36"/>
</svg>
