<svg width="14" height="9" viewBox="0 0 14 9" fill="none" xmlns="http://www.w3.org/2000/svg">
<path d="M0 8.0884V0.0994476H3.16022C3.74954 0.0994476 4.27993 0.20442 4.75138 0.414365C5.22652 0.62431 5.60221 0.931861 5.87846 1.33702C6.1547 1.73849 6.29282 2.22836 6.29282 2.80663C6.29282 3.33333 6.1768 3.78637 5.94475 4.16575C5.71271 4.54144 5.38306 4.83057 4.9558 5.03315C4.52855 5.23573 4.0221 5.33702 3.43647 5.33702H2.14917V8.0884H0ZM2.12707 3.73481H3.37017C3.64273 3.73481 3.86925 3.62615 4.04973 3.40884C4.2302 3.19153 4.32044 2.95396 4.32044 2.69613C4.32044 2.41989 4.221 2.18416 4.0221 1.98895C3.82689 1.79006 3.60958 1.69061 3.37017 1.69061H2.12707V3.73481Z" fill="#31A8FF"/>
<path d="M10.5705 8.1989C10.158 8.1989 9.74917 8.14733 9.34401 8.0442C8.94254 7.94107 8.57237 7.78453 8.23351 7.57459C7.89834 7.36464 7.6221 7.10129 7.40478 6.78453C7.18747 6.46409 7.06224 6.0884 7.02909 5.65746H9.21694C9.25746 5.84531 9.33665 6.00553 9.45451 6.13812C9.57237 6.27072 9.72523 6.37385 9.91307 6.44752C10.1009 6.5175 10.3164 6.55249 10.5595 6.55249C10.7805 6.55249 10.9886 6.53039 11.1838 6.48619C11.3827 6.44199 11.5429 6.36833 11.6645 6.2652C11.7897 6.15838 11.8523 6.01105 11.8523 5.82321C11.8523 5.66114 11.7878 5.53591 11.6589 5.44752C11.5337 5.35912 11.3698 5.29098 11.1672 5.2431C10.9683 5.19521 10.7584 5.15286 10.5374 5.11602L9.31639 4.90608C8.70497 4.80663 8.21141 4.55985 7.83572 4.16575C7.46372 3.76796 7.27035 3.2302 7.25561 2.55249C7.24825 2.01473 7.39189 1.55617 7.68655 1.1768C7.9849 0.793739 8.38269 0.502763 8.87992 0.303868C9.38085 0.101289 9.93333 0 10.5374 0C11.2667 0 11.8836 0.106814 12.3882 0.320443C12.8928 0.534071 13.2759 0.830572 13.5374 1.20995C13.8026 1.58932 13.9407 2.02578 13.9517 2.51934H11.8192C11.7971 2.31308 11.7344 2.14733 11.6313 2.0221C11.5282 1.89319 11.3882 1.80111 11.2114 1.74586C11.0383 1.68693 10.8284 1.65746 10.5816 1.65746C10.3753 1.65746 10.2022 1.67772 10.0622 1.71823C9.92596 1.75507 9.81731 1.80479 9.73628 1.8674C9.65525 1.92634 9.59631 1.99263 9.55948 2.0663C9.52633 2.13996 9.50976 2.21363 9.50976 2.28729C9.50976 2.46777 9.56685 2.61326 9.68103 2.72376C9.79521 2.83426 10.0236 2.92081 10.3661 2.98343L11.5926 3.19337C12.1635 3.29282 12.611 3.44752 12.9352 3.65746C13.2593 3.86372 13.4969 4.09761 13.6479 4.35912C13.8026 4.62063 13.9002 4.8803 13.9407 5.13812C13.9812 5.39595 14.0015 5.62431 14.0015 5.82321C14.0015 6.27625 13.8505 6.68324 13.5484 7.0442C13.2501 7.40148 12.8431 7.68324 12.3274 7.88951C11.8118 8.09577 11.2261 8.1989 10.5705 8.1989Z" fill="#31A8FF"/>
</svg>
