<svg width="20" height="20" viewBox="0 0 20 20" fill="none" xmlns="http://www.w3.org/2000/svg">
<path fill-rule="evenodd" clip-rule="evenodd" d="M9.9955 11.1737L14.7074 15.8859C14.8645 16.0377 15.0749 16.1216 15.2933 16.1197C15.5117 16.1178 15.7206 16.0302 15.875 15.8758C16.0294 15.7213 16.117 15.5124 16.1189 15.294C16.1208 15.0756 16.0369 14.8652 15.8852 14.7081L11.1733 9.99585L15.8852 5.28363C16.0369 5.12652 16.1208 4.91611 16.1189 4.6977C16.117 4.47929 16.0294 4.27037 15.875 4.11593C15.7206 3.96148 15.5117 3.87388 15.2933 3.87198C15.0749 3.87008 14.8645 3.95404 14.7074 4.10578L9.9955 8.818L5.28361 4.10578C5.12581 3.95779 4.91663 3.87701 4.70033 3.88052C4.48404 3.88404 4.27759 3.97157 4.12468 4.1246C3.97177 4.27763 3.88439 4.48415 3.88103 4.70047C3.87767 4.91678 3.95859 5.12592 4.10668 5.28363L8.81774 9.99585L4.10585 14.7081C4.02629 14.7849 3.96284 14.8768 3.91919 14.9785C3.87553 15.0801 3.85255 15.1894 3.85159 15.3C3.85063 15.4106 3.87171 15.5203 3.91359 15.6227C3.95547 15.725 4.01732 15.818 4.09552 15.8962C4.17373 15.9745 4.26673 16.0363 4.36909 16.0782C4.47146 16.1201 4.58113 16.1412 4.69173 16.1402C4.80233 16.1392 4.91162 16.1163 5.01324 16.0726C5.11487 16.0289 5.20678 15.9655 5.28361 15.8859L9.9955 11.1737Z" fill="#637381"/>
</svg>
