<svg width="20" height="20" viewBox="0 0 20 20" fill="none" xmlns="http://www.w3.org/2000/svg">
<path d="M10.0026 1.66675C8.73177 1.66675 7.513 2.17158 6.61438 3.07019C5.71577 3.96881 5.21094 5.18759 5.21094 6.45841V8.95841C5.21074 10.1752 5.67344 11.3464 6.50515 12.2345C7.33686 13.1226 8.47529 13.6611 9.68944 13.7406C10.9036 13.8201 12.1025 13.4348 13.043 12.6627C13.9834 11.8907 14.5949 10.7898 14.7534 9.58341H10.8359C10.6702 9.58341 10.5112 9.51757 10.394 9.40036C10.2768 9.28314 10.2109 9.12417 10.2109 8.95841C10.2109 8.79265 10.2768 8.63368 10.394 8.51647C10.5112 8.39926 10.6702 8.33341 10.8359 8.33341H14.7943V7.08341H10.8359C10.6702 7.08341 10.5112 7.01757 10.394 6.90036C10.2768 6.78315 10.2109 6.62417 10.2109 6.45841C10.2109 6.29265 10.2768 6.13368 10.394 6.01647C10.5112 5.89926 10.6702 5.83341 10.8359 5.83341H14.7534C14.6016 4.68083 14.036 3.62272 13.162 2.85617C12.288 2.08962 11.1651 1.6669 10.0026 1.66675Z" fill="#637381"/>
<path fill-rule="evenodd" clip-rule="evenodd" d="M3.33594 7.50008C3.5017 7.50008 3.66067 7.56593 3.77788 7.68314C3.89509 7.80035 3.96094 7.95932 3.96094 8.12508V8.95841C3.96094 9.75182 4.11721 10.5375 4.42083 11.2705C4.72445 12.0035 5.16948 12.6695 5.7305 13.2305C6.29152 13.7915 6.95755 14.2366 7.69056 14.5402C8.42357 14.8438 9.2092 15.0001 10.0026 15.0001C10.796 15.0001 11.5816 14.8438 12.3146 14.5402C13.0477 14.2366 13.7137 13.7915 14.2747 13.2305C14.8357 12.6695 15.2808 12.0035 15.5844 11.2705C15.888 10.5375 16.0443 9.75182 16.0443 8.95841V8.12508C16.0443 7.95932 16.1101 7.80035 16.2273 7.68314C16.3445 7.56593 16.5035 7.50008 16.6693 7.50008C16.835 7.50008 16.994 7.56593 17.1112 7.68314C17.2284 7.80035 17.2943 7.95932 17.2943 8.12508V8.95841C17.2943 10.7841 16.6095 12.5434 15.3751 13.8886C14.1407 15.2338 12.4466 16.0669 10.6276 16.2234V18.1251C10.6276 18.2908 10.5618 18.4498 10.4445 18.567C10.3273 18.6842 10.1684 18.7501 10.0026 18.7501C9.83684 18.7501 9.67787 18.6842 9.56066 18.567C9.44345 18.4498 9.3776 18.2908 9.3776 18.1251V16.2234C7.55862 16.0669 5.86452 15.2338 4.63013 13.8886C3.39575 12.5434 2.7109 10.7841 2.71094 8.95841V8.12508C2.71094 7.95932 2.77679 7.80035 2.894 7.68314C3.01121 7.56593 3.17018 7.50008 3.33594 7.50008Z" fill="#637381"/>
</svg>
