<svg width="24" height="24" viewBox="0 0 24 24" fill="none" xmlns="http://www.w3.org/2000/svg">
<path fill-rule="evenodd" clip-rule="evenodd" d="M21.4549 4.17543C21.2763 3.21769 20.7093 2.74594 20.1961 2.56069C19.6433 2.3597 18.5213 2.15195 17.1116 1.9847C15.9777 1.8512 14.645 1.8617 13.8397 1.88645C13.7433 1.22196 13.2794 0.615215 12.7595 0.405215C11.376 -0.15428 9.23723 -0.01928 8.68891 0.13522C8.25265 0.257465 7.76932 0.508715 7.50039 0.89496C7.32036 1.15296 7.20382 1.48445 7.20307 1.94645C7.20307 2.16311 7.20819 2.62229 7.21334 3.08455L7.21652 3.37144C7.2221 3.82736 7.2282 4.24346 7.23011 4.37359L7.23011 4.37369L7.23071 4.41543C7.23071 4.90368 6.83554 5.30192 6.34623 5.30267H4.10291C3.62407 5.30267 3.25802 5.38367 2.97938 5.51042C2.69925 5.63867 2.50129 5.81042 2.35039 6.01367C2.05083 6.41791 1.99854 6.9159 2.00003 7.4244C2.00003 7.4244 2.00451 7.84065 2.10461 8.64464C2.18753 9.26713 2.85986 13.6163 3.49857 14.9386C3.74583 15.4531 3.91093 15.6676 4.39724 15.8941C5.48118 16.3606 7.95757 16.8788 9.1177 17.0273C9.30985 17.0519 9.49013 17.0811 9.65916 17.1084C10.5094 17.2459 11.0751 17.3373 11.4365 16.5766C11.438 16.5743 11.5231 16.3493 11.6404 16.0201C12.0169 14.8756 12.0692 13.8601 12.0692 13.1258C12.0692 13.0508 12.1783 13.0478 12.1783 13.1258C12.1783 13.1546 12.178 13.1875 12.1776 13.224V13.2241C12.1719 13.8441 12.1565 15.5075 13.4609 15.9728C14.0062 16.1671 15.1372 16.3396 16.2862 16.4753C17.3253 16.5953 18.0798 17.0056 18.0798 19.6823C18.0798 21.3105 17.7391 21.534 15.9582 21.534L15.8258 21.5341C14.4804 21.5352 13.9637 21.5356 13.9637 20.4203C13.9637 19.5688 14.7315 19.5779 15.3822 19.5856H15.3823C15.4428 19.5863 15.5023 19.587 15.5601 19.587C15.7515 19.587 15.735 19.4973 15.6966 19.2874C15.674 19.1639 15.6437 18.9988 15.6437 18.7861C15.6437 18.5437 15.7077 18.3448 15.7557 18.1954C15.8209 17.9925 15.8568 17.8811 15.6632 17.8763C13.313 17.8111 11.9303 17.8733 11.9303 20.8238C11.9303 23.5028 12.9514 24 16.2862 24C18.9015 24 19.8233 23.9137 20.9028 20.5508C21.1164 19.8863 21.6334 17.8606 21.9457 14.4578C22.1436 12.3069 21.7596 5.81417 21.4549 4.17543ZM16.8969 11.3521C16.5742 11.3409 16.2634 11.3611 15.9736 11.4076C16.055 10.7469 16.3269 9.93541 17.2899 9.96916C18.3559 10.0067 18.5053 11.0176 18.509 11.7031C18.0593 11.5014 17.5028 11.3739 16.8969 11.3521ZM3.99907 4.64867H3.99758C3.44628 4.64867 2.98611 4.74243 2.60662 4.91493C2.58944 4.92243 2.46618 4.98317 2.37579 5.02817C2.37803 5.01918 2.384 5.00943 2.39222 5.00268L6.75112 0.662465C6.76009 0.654215 6.7683 0.649715 6.77727 0.648965L6.70032 0.79296C6.53971 1.11546 6.44783 1.49945 6.44783 1.94045V1.9472C6.44783 2.46485 6.47282 4.27739 6.47462 4.40799L6.47472 4.41543C6.47472 4.54293 6.37088 4.64867 6.2424 4.64867H3.99907Z" fill="#20C05C"/>
</svg>
