<svg width="218" height="123" viewBox="0 0 218 123" fill="none" xmlns="http://www.w3.org/2000/svg">
<path opacity="0.24" fill-rule="evenodd" clip-rule="evenodd" d="M51.5235 12.632L52.0152 13.7104L52.0035 13.7155L51.9661 13.7319C51.9328 13.7465 51.8826 13.7686 51.8163 13.798C51.6837 13.857 51.4864 13.9454 51.2297 14.0626L50.7157 12.9941C50.9764 12.8751 51.1774 12.7849 51.3138 12.7243C51.382 12.6941 51.434 12.6712 51.4691 12.6557L51.5092 12.6382L51.5235 12.632ZM47.4234 14.5665C48.0272 14.2673 48.5746 14.0015 49.0586 13.77L49.5923 14.8293C49.1132 15.0584 48.5709 15.3218 47.9723 15.6183L47.4234 14.5665ZM44.1799 16.2237C44.7434 15.9272 45.2823 15.6482 45.7936 15.3868L46.3562 16.4318C45.849 16.6911 45.3144 16.9679 44.7553 17.2621L44.1799 16.2237ZM40.9865 17.9508C41.5321 17.6476 42.0635 17.3565 42.579 17.0777L43.1667 18.1095C42.6552 18.3862 42.1279 18.675 41.5864 18.9759L40.9865 17.9508ZM37.8181 19.7588C38.3548 19.4443 38.8825 19.1394 39.3998 18.8442L40.0118 19.8625C39.4985 20.1554 38.9749 20.458 38.4423 20.7701L37.8181 19.7588ZM34.7191 21.6237C35.2408 21.3013 35.7569 20.9868 36.2664 20.6802L36.9027 21.6843C36.3972 21.9884 35.8852 22.3004 35.3677 22.6202L34.7191 21.6237ZM31.6519 23.5714C32.1632 23.2377 32.6712 22.9108 33.1751 22.5908L33.8364 23.5795C33.3367 23.8968 32.8329 24.2209 32.326 24.5518L31.6519 23.5714ZM28.6375 25.5955C29.1407 25.2478 29.6424 24.9062 30.1418 24.571L30.8289 25.5427C30.3339 25.875 29.8367 26.2135 29.3381 26.5581L28.6375 25.5955ZM25.687 27.696C26.1771 27.3363 26.6672 26.9823 27.1566 26.634L27.871 27.5869C27.3862 27.9319 26.9009 28.2825 26.4156 28.6386L25.687 27.696ZM22.7977 29.8849C23.2742 29.512 23.7521 29.1442 24.2306 28.7817L24.974 29.7133C24.5004 30.0721 24.0275 30.436 23.5562 30.8049L22.7977 29.8849ZM19.981 32.1668C20.4444 31.7779 20.9104 31.3939 21.3783 31.0149L22.1525 31.9224C21.6899 32.2971 21.2293 32.6766 20.7715 33.0609L19.981 32.1668ZM17.2496 34.5474C17.6975 34.1416 18.1492 33.7404 18.6041 33.3441L19.4114 34.2238C18.9622 34.6151 18.5163 35.0111 18.0744 35.4116L17.2496 34.5474ZM14.6175 37.0343C15.047 36.6105 15.4815 36.1914 15.9204 35.7768L16.7633 36.6242C16.3306 37.0329 15.9024 37.446 15.4793 37.8634L14.6175 37.0343ZM12.1007 39.6372C12.5088 39.1939 12.9234 38.7549 13.3436 38.3205L14.2249 39.13C13.8113 39.5575 13.4036 39.9893 13.0023 40.4252L12.1007 39.6372ZM9.72135 42.3648C10.1046 41.8999 10.4955 41.4394 10.8936 40.9834L11.8162 41.7479C11.4252 42.1958 11.0415 42.6477 10.6656 43.1037L9.72135 42.3648ZM7.507 45.2251C7.85976 44.738 8.22181 44.2552 8.59246 43.7768L9.55907 44.4878C9.196 44.9564 8.84162 45.429 8.49658 45.9054L7.507 45.2251ZM5.4912 48.2252C5.80709 47.7155 6.13388 47.21 6.47086 46.7089L7.48389 47.3556C7.15481 47.845 6.83595 48.3382 6.52797 48.8352L5.4912 48.2252ZM3.71098 51.3761C3.98392 50.8412 4.26959 50.3106 4.56723 49.7843L5.62796 50.3539C5.33829 50.866 5.06056 51.3819 4.79544 51.9015L3.71098 51.3761ZM2.21824 54.6707C2.43973 54.1111 2.6759 53.5558 2.92594 53.0047L4.03363 53.4819C3.79123 54.0161 3.56252 54.554 3.34822 55.0953L2.21824 54.6707ZM1.06611 58.0975C1.22667 57.5167 1.40379 56.94 1.59665 56.3674L2.74738 56.7354C2.56116 57.2883 2.3903 57.8447 2.23554 58.4044L1.06611 58.0975ZM0.307371 61.6337C0.398447 61.0365 0.507773 60.4431 0.634529 59.8536L1.81991 60.0956C1.69795 60.6628 1.59284 61.2333 1.50533 61.8071L0.307371 61.6337ZM0.0241621 64.3342C0.0414504 64.0315 0.0635652 63.7296 0.0904064 63.4286L1.29698 63.5308C1.27122 63.8197 1.25 64.1093 1.23341 64.3998C1.21669 64.6925 1.20944 64.9813 1.21144 65.2663L0.00035195 65.2744C-0.00182182 64.9644 0.00606894 64.651 0.0241621 64.3342ZM0.522191 68.9063C0.350832 68.3171 0.220544 67.7127 0.132967 67.0926L1.33278 66.9317C1.4127 67.4976 1.53146 68.0483 1.68743 68.5846L0.522191 68.9063ZM2.03507 72.2689C1.70568 71.7397 1.41345 71.195 1.16044 70.6342L2.26917 70.1593C2.50013 70.6712 2.76769 71.1703 3.07062 71.6569L2.03507 72.2689ZM4.32197 75.1423C3.88463 74.6978 3.47659 74.2403 3.09963 73.7693L4.05473 73.0436C4.4049 73.4812 4.78573 73.9084 5.19621 74.3256L4.32197 75.1423ZM7.10886 77.5305C6.61231 77.1665 6.13775 76.7927 5.68648 76.4086L6.48328 75.5199C6.91097 75.8839 7.36247 76.2397 7.83692 76.5874L7.10886 77.5305ZM10.1909 79.5137C9.65251 79.2074 9.1315 78.8933 8.62882 78.5711L9.29437 77.5852C9.77802 77.8952 10.2807 78.1983 10.8016 78.4947L10.1909 79.5137ZM13.4438 81.1795C12.8815 80.9193 12.333 80.6529 11.799 80.3801L12.3613 79.335C12.8804 79.6002 13.4147 79.8596 13.9634 80.1135L13.4438 81.1795ZM16.7995 82.6004C16.2243 82.3769 15.66 82.1485 15.1074 81.915L15.5894 80.8324C16.1304 81.061 16.6834 81.2849 17.248 81.5042L16.7995 82.6004ZM195.353 81.0698C195.501 81.1296 195.715 81.219 195.987 81.3396L195.486 82.414C195.226 82.2989 195.024 82.2146 194.888 82.1595C194.82 82.1319 194.769 82.1117 194.735 82.0986L194.698 82.0843L194.689 82.0811L194.688 82.0805C194.688 82.0806 194.688 82.0806 194.904 81.5292C195.119 80.9779 195.119 80.978 195.119 80.978L195.12 80.9782L195.121 80.9786L195.125 80.98L195.137 80.9847C195.148 80.9888 195.163 80.9946 195.183 81.0022C195.222 81.0174 195.279 81.0399 195.353 81.0698ZM20.2217 83.8313C19.6401 83.6372 19.0673 83.4391 18.5039 83.2368L18.9227 82.1295C19.4769 82.3286 20.0409 82.5236 20.6141 82.7148L20.2217 83.8313ZM197.659 82.1409C198.148 82.3915 198.694 82.6851 199.283 83.0239L198.668 84.0405C198.096 83.7119 197.568 83.4275 197.095 83.1851L197.659 82.1409ZM23.691 84.9125C23.1066 84.7421 22.5294 84.5684 21.9598 84.3911L22.3282 83.267C22.8904 83.442 23.4606 83.6136 24.0382 83.782L23.691 84.9125ZM200.856 83.9746C201.348 84.2869 201.859 84.6257 202.384 84.9919L201.678 85.9511C201.169 85.5954 200.673 85.2664 200.195 84.9632L200.856 83.9746ZM27.1957 85.8738C26.6104 85.7226 26.031 85.5686 25.4577 85.4116L25.7854 84.2755C26.3526 84.4309 26.9263 84.5834 27.5061 84.7331L27.1957 85.8738ZM30.7279 86.7373C30.1365 86.6004 29.55 86.461 28.9688 86.319L29.2632 85.1744C29.8395 85.3151 30.4212 85.4533 31.0079 85.5892L30.7279 86.7373ZM34.281 87.5201C33.6825 87.3945 33.088 87.2669 32.498 87.137L32.7649 85.9859C33.3508 86.1149 33.9412 86.2417 34.5359 86.3665L34.281 87.5201ZM203.872 86.081C204.342 86.4412 204.819 86.8225 205.299 87.2255L204.508 88.1193C204.042 87.7283 203.58 87.3582 203.123 87.0085L203.872 86.081ZM37.8372 88.2332C37.2376 88.1182 36.6412 88.0013 36.0484 87.8825L36.2925 86.7266C36.8818 86.8447 37.4748 86.961 38.0712 87.0754L37.8372 88.2332ZM41.3985 88.8894C40.8014 88.7836 40.2069 88.6763 39.6153 88.5674L39.8402 87.4078C40.429 87.5163 41.0207 87.6231 41.615 87.7283L41.3985 88.8894ZM44.9736 89.5C44.3781 89.4018 43.7845 89.3023 43.1931 89.2014L43.4021 88.039C43.9911 88.1395 44.5824 88.2387 45.1757 88.3365L44.9736 89.5ZM206.677 88.4376C207.118 88.844 207.558 89.2691 207.997 89.7133L207.124 90.5312C206.699 90.1009 206.272 89.6889 205.844 89.2949L206.677 88.4376ZM48.5573 90.0725C47.9586 89.9797 47.3612 89.8858 46.7655 89.7907L46.9613 88.6262C47.5551 88.721 48.1506 88.8146 48.7475 88.9071L48.5573 90.0725ZM52.1417 90.6128C51.5423 90.5248 50.9438 90.4358 50.3463 90.3458L50.5314 89.1796C51.1273 89.2694 51.7243 89.3581 52.3222 89.446L52.1417 90.6128ZM55.727 91.1278C55.1289 91.0437 54.531 90.9588 53.9337 90.873L54.1103 89.7056C54.7063 89.7911 55.303 89.8759 55.9 89.9598L55.727 91.1278ZM59.3171 91.6239C58.7188 91.5425 58.1203 91.4605 57.5218 91.3779L57.6918 90.2095C58.2894 90.292 58.887 90.3739 59.4845 90.4552L59.3171 91.6239ZM62.9061 92.1061C62.3084 92.0267 61.7099 91.9467 61.1108 91.8663L61.2762 90.6973C61.8746 90.7776 62.4726 90.8575 63.0699 90.9369L62.9061 92.1061ZM209.248 91.0444C209.648 91.4913 210.044 91.9552 210.433 92.4362L209.482 93.1666C209.106 92.7014 208.723 92.2527 208.336 91.8201L209.248 91.0444ZM66.4938 92.5801C65.8981 92.5018 65.3011 92.4232 64.7031 92.3442L64.8657 91.1748C65.4635 91.2537 66.0602 91.3323 66.6558 91.4106L66.4938 92.5801ZM70.0876 93.0525C69.4911 92.9739 68.8928 92.8953 68.2927 92.8165L68.4546 91.647C69.0546 91.7258 69.6531 91.8045 70.2498 91.883L70.0876 93.0525ZM73.6777 93.5279C73.079 93.448 72.4779 93.3681 71.8744 93.2883L72.0375 92.1189C72.6413 92.1989 73.2429 92.2788 73.8421 92.3588L73.6777 93.5279ZM77.2591 94.0122C76.6644 93.9306 76.0665 93.8492 75.4656 93.768L75.632 92.5991C76.2336 92.6805 76.8324 92.762 77.4281 92.8437L77.2591 94.0122ZM80.8294 94.5123C80.2418 94.4282 79.6503 94.3445 79.0551 94.2612L79.2274 93.0931C79.8237 93.1766 80.4165 93.2604 81.0056 93.3448L80.8294 94.5123ZM84.4156 95.0406C83.827 94.9512 83.2335 94.8625 82.6355 94.7745L82.8164 93.6077C83.4162 93.696 84.0115 93.7849 84.6021 93.8746L84.4156 95.0406ZM211.546 93.886C211.899 94.3718 212.245 94.8733 212.581 95.3908L211.557 96.0219C211.233 95.5222 210.899 95.0377 210.557 94.5682L211.546 93.886ZM87.991 95.6037C87.4011 95.5071 86.8052 95.4115 86.2035 95.3168L86.3966 94.1519C87.0006 94.2469 87.5991 94.3429 88.1918 94.4399L87.991 95.6037ZM91.5521 96.2141C90.9611 96.1078 90.3626 96.0029 89.757 95.8992L89.9665 94.7369C90.5754 94.8412 91.1774 94.9467 91.772 95.0537L91.5521 96.2141ZM95.0948 96.8887C94.5064 96.7698 93.9085 96.6528 93.3017 96.5375L93.5334 95.3793C94.1447 95.4954 94.7473 95.6133 95.3407 95.7332L95.0948 96.8887ZM98.6133 97.6505C98.0331 97.5154 97.4411 97.3828 96.8377 97.2525L97.0997 96.1004C97.7091 96.232 98.3077 96.3661 98.8947 96.5027L98.6133 97.6505ZM102.095 98.5334C101.525 98.3752 100.939 98.2203 100.338 98.0686L100.642 96.9263C101.251 97.0802 101.846 97.2375 102.427 97.3984L102.095 98.5334ZM213.534 96.9469C213.833 97.4668 214.123 98.0012 214.4 98.5505L213.314 99.0723C213.046 98.5422 212.767 98.0263 212.477 97.5245L213.534 96.9469ZM105.51 99.5884C104.954 99.3959 104.377 99.2081 103.779 99.0246L104.143 97.8992C104.754 98.0865 105.345 98.2789 105.915 98.4765L105.51 99.5884ZM108.781 100.895C108.272 100.658 107.734 100.427 107.167 100.202L107.624 99.1094C108.211 99.3422 108.771 99.5823 109.304 99.8304L108.781 100.895ZM215.178 100.197C215.418 100.745 215.647 101.306 215.863 101.881L214.726 102.286C214.517 101.731 214.296 101.19 214.064 100.661L215.178 100.197ZM111.071 102.133C110.843 101.988 110.605 101.845 110.357 101.704L110.967 100.685C111.232 100.835 111.488 100.989 111.734 101.145C111.968 101.294 112.211 101.444 112.464 101.596L111.831 102.602C111.569 102.445 111.315 102.289 111.071 102.133ZM115.113 104.372C114.54 104.09 113.993 103.808 113.471 103.529L114.056 102.495C114.564 102.767 115.099 103.043 115.66 103.32L115.113 104.372ZM216.455 103.597C216.634 104.166 216.801 104.747 216.953 105.34L215.779 105.627C215.631 105.054 215.47 104.493 215.297 103.943L216.455 103.597ZM118.496 105.936C117.904 105.679 117.33 105.422 116.776 105.166L117.294 104.099C117.84 104.351 118.406 104.604 118.99 104.859L118.496 105.936ZM121.902 107.345C121.31 107.112 120.732 106.878 120.168 106.645L120.641 105.559C121.199 105.789 121.771 106.02 122.357 106.252L121.902 107.345ZM125.355 108.655C124.762 108.439 124.179 108.222 123.607 108.005L124.046 106.905C124.613 107.12 125.191 107.335 125.78 107.55L125.355 108.655ZM217.358 107.105C217.476 107.688 217.581 108.281 217.671 108.886L216.473 109.057C216.385 108.471 216.284 107.897 216.17 107.333L217.358 107.105ZM128.842 109.883C128.246 109.68 127.658 109.477 127.078 109.272L127.49 108.163C128.065 108.365 128.649 108.567 129.242 108.769L128.842 109.883ZM132.35 111.04C131.751 110.849 131.159 110.657 130.575 110.464L130.963 109.346C131.544 109.538 132.132 109.729 132.727 109.919L132.35 111.04ZM135.867 112.133C135.27 111.953 134.679 111.772 134.094 111.59L134.462 110.466C135.044 110.646 135.632 110.826 136.225 111.005L135.867 112.133ZM217.895 110.68C217.925 110.98 217.951 111.284 217.974 111.589C218 111.928 218.006 112.259 217.994 112.582L216.784 112.538C216.794 112.26 216.789 111.973 216.766 111.676C216.744 111.379 216.718 111.085 216.689 110.794L217.895 110.68ZM139.405 113.171C138.81 113.001 138.219 112.83 137.633 112.658L137.982 111.528C138.565 111.699 139.153 111.869 139.745 112.038L139.405 113.171ZM142.962 114.159C142.368 113.998 141.777 113.836 141.19 113.673L141.522 112.538C142.106 112.701 142.694 112.862 143.286 113.022L142.962 114.159ZM146.536 115.098C145.94 114.946 145.346 114.792 144.755 114.636L145.07 113.497C145.658 113.652 146.25 113.805 146.844 113.957L146.536 115.098ZM217.678 114.486C217.485 115.116 217.208 115.705 216.851 116.254L215.828 115.623C216.126 115.164 216.357 114.673 216.517 114.149L217.678 114.486ZM150.124 115.991C149.523 115.845 148.924 115.699 148.327 115.55L148.627 114.407C149.221 114.554 149.818 114.701 150.416 114.846L150.124 115.991ZM153.72 116.835C153.117 116.698 152.516 116.559 151.917 116.418L152.201 115.271C152.798 115.411 153.396 115.55 153.996 115.686L153.72 116.835ZM157.325 117.633C156.723 117.504 156.121 117.373 155.52 117.24L155.789 116.089C156.386 116.222 156.985 116.352 157.585 116.481L157.325 117.633ZM160.944 118.384C160.34 118.263 159.737 118.14 159.134 118.015L159.386 116.861C159.986 116.985 160.587 117.108 161.188 117.228L160.944 118.384ZM215.592 117.743C215.135 118.169 214.62 118.561 214.054 118.92L213.393 117.931C213.903 117.608 214.357 117.261 214.754 116.891L215.592 117.743ZM164.573 119.086C163.968 118.973 163.362 118.858 162.756 118.741L162.992 117.583C163.595 117.7 164.198 117.815 164.801 117.927L164.573 119.086ZM168.209 119.736C167.604 119.632 166.998 119.526 166.392 119.418L166.61 118.257C167.214 118.365 167.817 118.471 168.419 118.574L168.209 119.736ZM212.354 119.835C211.803 120.087 211.217 120.318 210.6 120.53L210.198 119.416C210.781 119.217 211.328 119 211.839 118.766L212.354 119.835ZM171.859 120.333C171.253 120.238 170.646 120.142 170.038 120.042L170.238 118.878C170.844 118.977 171.448 119.074 172.05 119.167L171.859 120.333ZM175.523 120.871C174.915 120.787 174.304 120.7 173.692 120.61L173.872 119.443C174.482 119.533 175.089 119.619 175.694 119.703L175.523 120.871ZM208.806 121.068C208.213 121.222 207.597 121.363 206.959 121.49L206.717 120.333C207.333 120.211 207.925 120.076 208.492 119.928L208.806 121.068ZM179.196 121.346C178.584 121.273 177.968 121.196 177.35 121.116L177.509 119.946C178.124 120.026 178.736 120.102 179.344 120.175L179.196 121.346ZM182.876 121.75C182.263 121.689 181.645 121.624 181.024 121.556L181.16 120.383C181.777 120.451 182.39 120.515 182.999 120.576L182.876 121.75ZM205.118 121.809C204.519 121.899 203.903 121.979 203.272 122.048L203.136 120.876C203.752 120.808 204.351 120.73 204.933 120.643L205.118 121.809ZM186.562 122.072C185.952 122.026 185.336 121.976 184.717 121.922L184.825 120.746C185.44 120.8 186.051 120.85 186.656 120.896L186.562 122.072ZM190.255 122.303C189.648 122.273 189.035 122.239 188.417 122.201L188.494 121.023C189.107 121.061 189.714 121.095 190.315 121.124L190.255 122.303ZM201.394 122.224C200.793 122.27 200.181 122.309 199.557 122.34L199.496 121.161C200.109 121.131 200.71 121.093 201.298 121.048L201.394 122.224ZM193.957 122.423C193.354 122.413 192.742 122.399 192.124 122.378L192.165 121.199C192.776 121.219 193.381 121.234 193.977 121.243L193.957 122.423ZM197.67 122.409C197.069 122.424 196.458 122.432 195.839 122.435L195.834 121.255C196.445 121.252 197.047 121.244 197.64 121.229L197.67 122.409Z" fill="#007867"/>
<path d="M14.4146 27.4781L43.6558 116.56C44.1398 117.998 45.1077 119.236 46.403 120.072C47.6983 120.907 49.2449 121.293 50.7927 121.166L89.1404 118.003L178.771 110.543C179.672 110.475 180.55 110.234 181.355 109.834C182.16 109.435 182.877 108.884 183.462 108.213C184.048 107.542 184.492 106.765 184.768 105.927C185.045 105.089 185.148 104.205 185.073 103.328C185.009 102.698 184.86 102.078 184.632 101.486L177.463 83.0644L164.497 49.2921L154.445 23.195C153.952 21.9188 153.07 20.819 151.919 20.0431C150.768 19.2666 149.401 18.8512 148.001 18.8512H20.9528C20.0508 18.8512 19.1575 19.0241 18.3241 19.3604C17.4907 19.6967 16.7335 20.19 16.0956 20.8113C15.4578 21.4326 14.9517 22.1707 14.6066 22.9826C14.2614 23.7945 14.0837 24.6648 14.0837 25.5439C14.0931 26.2012 14.2046 26.8532 14.4146 27.4781Z" fill="white"/>
<path d="M14.4146 27.4781L43.6558 116.56C44.1398 117.998 45.1077 119.236 46.403 120.072C47.6983 120.907 49.2449 121.293 50.7927 121.166L89.1404 118.003L178.771 110.543C179.672 110.475 180.55 110.234 181.355 109.834C182.16 109.435 182.877 108.884 183.462 108.213C184.048 107.542 184.492 106.765 184.768 105.927C185.045 105.089 185.148 104.205 185.073 103.328C185.009 102.698 184.86 102.078 184.632 101.486L177.463 83.0644L164.497 49.2921L154.445 23.195C153.952 21.9188 153.07 20.819 151.919 20.0431C150.768 19.2666 149.401 18.8512 148.001 18.8512H20.9528C20.0508 18.8512 19.1575 19.0241 18.3241 19.3604C17.4907 19.6967 16.7335 20.19 16.0956 20.8113C15.4578 21.4326 14.9517 22.1707 14.6066 22.9826C14.2614 23.7945 14.0837 24.6648 14.0837 25.5439C14.0931 26.2012 14.2046 26.8532 14.4146 27.4781Z" fill="white"/>
<path d="M88.6752 118.041L50.7927 121.166C49.2449 121.293 47.6983 120.907 46.403 120.072C45.1077 119.236 44.1398 117.998 43.6559 116.56L14.4146 27.4781C14.2046 26.8532 14.0931 26.2012 14.0837 25.5439C14.0837 24.6648 14.2614 23.7945 14.6066 22.9826C14.9517 22.1707 15.4578 21.4326 16.0956 20.8113C16.7335 20.19 17.4907 19.6967 18.3241 19.3604C19.1575 19.0241 20.0508 18.8512 20.9528 18.8512H55.7437L88.6752 118.041Z" fill="url(#paint0_linear_0_51287)"/>
<path d="M123.376 67.9837C124.959 67.8882 126.021 66.3617 125.528 64.8937L120.391 49.6149C120.051 48.6059 119.062 47.9415 117.973 47.9923L80.6578 49.7394C79.0434 49.8149 77.9564 51.3808 78.4851 52.8689L84.0853 68.6328C84.4408 69.6341 85.4387 70.2819 86.5245 70.2158L123.376 67.9837Z" fill="#F4F6F8"/>
<path d="M133.671 96.3053C135.253 96.2097 136.316 94.6833 135.822 93.2153L130.685 77.9365C130.346 76.9275 129.356 76.2631 128.267 76.3139L90.9523 78.061C89.3379 78.1365 88.2509 79.7024 88.7796 81.1905L94.3798 96.9544C94.7352 97.9556 95.7332 98.6035 96.819 98.5374L133.671 96.3053Z" fill="#C4CDD5"/>
<g opacity="0.4" filter="url(#filter0_f_0_51287)">
<path d="M138.596 34.5396L148.253 65.7482C148.395 66.2509 148.705 66.6934 149.132 67.0073C149.559 67.3212 150.081 67.4882 150.617 67.4832L174.572 66.809C175.403 66.786 175.963 65.9736 175.672 65.216L163.56 33.7083C163.392 33.271 162.975 32.9719 162.497 32.9442L140.754 31.6998C140.397 31.685 140.041 31.7558 139.718 31.9063C139.394 32.0568 139.115 32.2816 138.901 32.5618C138.688 32.8421 138.549 33.169 138.496 33.5136C138.442 33.8587 138.477 34.211 138.596 34.5396Z" fill="#919EAB"/>
<path d="M139.071 34.3804L139.074 34.3915L148.732 65.6001L148.735 65.6117L148.735 65.6117C148.846 66.005 149.089 66.3543 149.429 66.6035L149.429 66.6037C149.766 66.8516 150.18 66.9853 150.607 66.9823L174.558 66.3083L174.558 66.3083C175.062 66.2943 175.365 65.8136 175.204 65.3957L175.204 65.3957L163.092 33.888L163.092 33.8877C162.997 33.6404 162.756 33.4611 162.468 33.4443C162.468 33.4443 162.468 33.4443 162.468 33.4443L140.729 32.2002C140.453 32.1894 140.178 32.2445 139.929 32.3604L139.929 32.3605C139.679 32.477 139.464 32.6504 139.3 32.8651C139.137 33.0796 139.031 33.3286 138.991 33.59L139.071 34.3804ZM139.071 34.3804L139.067 34.3694M139.071 34.3804L139.067 34.3694M139.067 34.3694C138.977 34.1194 138.95 33.852 138.991 33.5901L139.067 34.3694ZM148.253 65.7482C148.395 66.2509 148.705 66.6934 149.132 67.0073L148.253 65.7482Z" stroke="#919EAB"/>
</g>
<path d="M185.266 58.0731L175.278 30.518C175.124 30.0755 174.841 29.6866 174.463 29.4005C174.085 29.1137 173.629 28.942 173.151 28.906L131.054 26.4804C130.695 26.4698 130.339 26.5435 130.016 26.6958C129.694 26.848 129.414 27.074 129.2 27.3542C128.986 27.6351 128.846 27.9614 128.79 28.3065C128.734 28.6517 128.765 29.0046 128.879 29.3356L138.537 60.56C138.681 61.0628 138.99 61.5059 139.417 61.8215C139.843 62.1378 140.364 62.3089 140.9 62.3101L183.344 61.0663C183.698 61.0462 184.042 60.9442 184.348 60.7677C184.653 60.5913 184.911 60.3465 185.099 60.0538C185.287 59.7606 185.401 59.4278 185.43 59.0832C185.459 58.7386 185.403 58.3923 185.266 58.0731Z" fill="white"/>
<path d="M164.249 53.6785C164.539 54.4083 164.684 54.7736 164.993 54.9801C165.303 55.1872 165.704 55.1872 166.508 55.1872H166.702C168.305 55.1872 169.107 55.1872 169.468 54.6738C169.829 54.1611 169.539 53.4324 168.961 51.975L165.069 42.1734C164.779 41.443 164.634 41.0783 164.324 40.8712C164.015 40.6647 163.613 40.6647 162.81 40.6647H162.616C161.012 40.6647 160.211 40.6647 159.85 41.178C159.489 41.6908 159.778 42.4195 160.357 43.8763L164.249 53.6785Z" fill="#007867"/>
<g opacity="0.48">
<path d="M170.883 53.6743C171.172 54.4065 171.317 54.7724 171.627 54.9795C171.937 55.1866 172.339 55.1866 173.143 55.1866H173.334C174.938 55.1866 175.74 55.1866 176.1 54.6738C176.461 54.1605 176.172 53.4318 175.592 51.975L174.632 49.5565C174.342 48.8266 174.197 48.462 173.888 48.2555C173.578 48.0484 173.176 48.0484 172.373 48.0484H172.189C170.587 48.0484 169.787 48.0484 169.426 48.5605C169.065 49.0727 169.353 49.8008 169.928 51.2564L170.883 53.6743Z" fill="url(#paint1_linear_0_51287)"/>
<path d="M157.601 53.6755C157.891 54.4072 158.035 54.773 158.345 54.9801C158.655 55.1872 159.057 55.1872 159.862 55.1872H160.052C161.656 55.1872 162.458 55.1872 162.819 54.6738C163.18 54.1605 162.89 53.4318 162.311 51.9745L160.673 47.8525C160.383 47.1226 160.238 46.758 159.929 46.5515C159.619 46.345 159.217 46.345 158.414 46.345H158.231C156.629 46.345 155.829 46.345 155.468 46.8571C155.107 47.3693 155.395 48.0974 155.971 49.5536L157.601 53.6755Z" fill="url(#paint2_linear_0_51287)"/>
<path d="M150.967 53.6785C151.257 54.4084 151.402 54.7736 151.712 54.9801C152.021 55.1873 152.423 55.1872 153.227 55.1872H153.42C155.024 55.1872 155.826 55.1872 156.187 54.6739C156.548 54.1612 156.258 53.4325 155.679 51.9751L149.96 37.5683C149.67 36.8378 149.525 36.4732 149.215 36.2661C148.906 36.0596 148.504 36.0596 147.7 36.0596H147.507C145.903 36.0596 145.101 36.0596 144.74 36.5723C144.379 37.0857 144.669 37.8138 145.247 39.2711L150.967 53.6785Z" fill="url(#paint3_linear_0_51287)"/>
<path d="M144.319 53.6774C144.609 54.4084 144.754 54.7737 145.063 54.9802C145.373 55.1873 145.775 55.1873 146.578 55.1873H146.773C148.376 55.1873 149.177 55.1873 149.538 54.6745C149.899 54.1618 149.61 53.4331 149.033 51.9763L141.2 32.2268C140.91 31.4963 140.765 31.1311 140.455 30.9246C140.146 30.7175 139.744 30.7175 138.94 30.7175H138.745C137.142 30.7175 136.341 30.7175 135.98 31.2302C135.619 31.7429 135.908 32.4716 136.486 33.9284L144.319 53.6774Z" fill="url(#paint4_linear_0_51287)"/>
</g>
<g opacity="0.4">
<path fill-rule="evenodd" clip-rule="evenodd" d="M32.6274 46.7132C31.9977 44.4398 32.3095 42.0166 33.4957 39.965C34.6818 37.9135 36.6475 36.3983 38.9693 35.7451C41.291 35.092 43.7832 35.3533 45.9089 36.4732C48.035 37.5931 49.624 39.4818 50.3349 41.7322C51.0453 43.9826 50.8206 46.4153 49.7088 48.5057C48.5964 50.5962 46.6864 52.1775 44.3894 52.9091C42.0924 53.6408 39.5925 53.4638 37.4279 52.4171C35.2633 51.3703 33.6073 49.5371 32.8165 47.3121L32.722 47.02L32.6274 46.7132ZM41.8283 44.2416L39.6542 37.4415C40.2681 37.2568 40.9032 37.1489 41.5448 37.1188C43.1492 37.0603 44.729 37.5164 46.0416 38.418C47.3538 39.3196 48.3257 40.6159 48.8078 42.1081C48.9967 42.7064 49.1081 43.3247 49.1384 43.9502C49.1584 44.5738 49.1003 45.1975 48.9652 45.8076C48.6873 47.0266 48.0775 48.1506 47.2006 49.0622C46.3365 49.9885 45.2338 50.6736 44.0068 51.0459C42.7797 51.4188 41.4729 51.4648 40.2214 51.1804C39.6045 51.04 39.0069 50.8287 38.441 50.5508C37.8721 50.2582 37.3429 49.8971 36.8655 49.4764C35.9352 48.6374 35.2409 47.5806 34.8489 46.4065L41.8283 44.2416Z" fill="white"/>
<path fill-rule="evenodd" clip-rule="evenodd" d="M52.7784 103.711C52.3043 101.483 52.7112 99.1617 53.9187 97.2134C55.1262 95.2651 57.0446 93.8331 59.2894 93.2041C61.5348 92.5751 63.9407 92.7958 66.0256 93.8219C68.1106 94.8479 69.7214 96.6039 70.534 98.738V99.0295C70.534 99.1215 70.534 99.2289 70.6442 99.321C71.268 101.507 71.0227 103.842 69.9569 105.86C68.8911 107.877 67.0829 109.428 64.8945 110.204C62.706 110.979 60.2983 110.922 58.1509 110.042C56.0042 109.163 54.2766 107.527 53.3137 105.461C53.2665 105.316 53.2232 105.17 53.1799 105.024C53.1366 104.878 53.0933 104.732 53.0461 104.586C53.0082 104.47 52.9754 104.353 52.9426 104.236C52.8935 104.061 52.8445 103.886 52.7784 103.711ZM59.5526 95.038L61.8211 101.808L61.8689 101.793L64.1373 108.578C65.0408 108.284 65.8759 107.82 66.5947 107.212C67.3141 106.603 67.9033 105.862 68.3284 105.032C68.6173 104.478 68.8292 103.89 68.9582 103.282C69.0975 102.678 69.1501 102.058 69.1156 101.44C69.0333 99.8727 68.421 98.3758 67.3759 97.1821C66.3301 95.9885 64.9094 95.1648 63.3338 94.8385C62.0766 94.5896 60.7747 94.6586 59.5526 95.038Z" fill="white"/>
<path fill-rule="evenodd" clip-rule="evenodd" d="M46.0651 65.7936C44.3309 67.4835 43.3566 69.7752 43.3566 72.1654V72.7943C43.3566 75.1846 44.3309 77.4763 46.0651 79.1661C47.7995 80.8565 50.1521 81.8059 52.6046 81.8059C55.0577 81.8059 57.4097 80.8565 59.144 79.1661C60.8783 77.4763 61.8527 75.1846 61.8527 72.7943V72.1654C61.8527 69.7752 60.8783 67.4835 59.144 65.7936C57.4097 64.1038 55.0577 63.1544 52.6046 63.1544C50.1521 63.1544 47.7995 64.1038 46.0651 65.7936ZM52.4785 72.4569V65.334C53.7574 65.3435 55.0115 65.6769 56.1179 66.3011C56.6962 66.6044 57.2267 66.9873 57.6936 67.4369C58.6049 68.3184 59.2608 69.4194 59.595 70.6278C59.9287 71.8362 59.9281 73.1095 59.5938 74.3179C59.2595 75.5257 58.6031 76.6267 57.6905 77.5076C56.7786 78.3885 55.6437 79.0186 54.4005 79.3343C53.164 79.6718 51.856 79.6718 50.6194 79.3343C50.003 79.1791 49.4101 78.9467 48.8548 78.6434L52.4785 72.4569Z" fill="white"/>
</g>
<path d="M76.9147 0H51.7537L59.411 4.55924L76.9147 0Z" fill="url(#paint5_linear_0_51287)"/>
<path d="M76.9147 0L60.7655 7.27639L63.4912 16.5484L76.9147 0Z" fill="url(#paint6_linear_0_51287)"/>
<path d="M56.4959 11.3751L60.7655 7.27639L76.9147 0L56.4959 11.3751Z" fill="url(#paint7_linear_0_51287)"/>
<path d="M56.4959 11.3751L60.7656 7.27639L76.9147 0L59.411 4.55924L56.4959 11.3751Z" fill="#007867"/>
<defs>
<filter id="filter0_f_0_51287" x="118.433" y="11.6591" width="77.3558" height="75.863" filterUnits="userSpaceOnUse" color-interpolation-filters="sRGB">
<feFlood flood-opacity="0" result="BackgroundImageFix"/>
<feBlend mode="normal" in="SourceGraphic" in2="BackgroundImageFix" result="shape"/>
<feGaussianBlur stdDeviation="10" result="effect1_foregroundBlur_0_51287"/>
</filter>
<linearGradient id="paint0_linear_0_51287" x1="14.0837" y1="18.8512" x2="14.0837" y2="121.189" gradientUnits="userSpaceOnUse">
<stop stop-color="#5BE49B"/>
<stop offset="1" stop-color="#007867"/>
</linearGradient>
<linearGradient id="paint1_linear_0_51287" x1="135.821" y1="30.7175" x2="157.498" y2="66.5401" gradientUnits="userSpaceOnUse">
<stop stop-color="#00A76F"/>
<stop offset="1" stop-color="#007867"/>
</linearGradient>
<linearGradient id="paint2_linear_0_51287" x1="135.821" y1="30.7175" x2="157.498" y2="66.5401" gradientUnits="userSpaceOnUse">
<stop stop-color="#00A76F"/>
<stop offset="1" stop-color="#007867"/>
</linearGradient>
<linearGradient id="paint3_linear_0_51287" x1="135.821" y1="30.7175" x2="157.498" y2="66.5401" gradientUnits="userSpaceOnUse">
<stop stop-color="#00A76F"/>
<stop offset="1" stop-color="#007867"/>
</linearGradient>
<linearGradient id="paint4_linear_0_51287" x1="135.821" y1="30.7175" x2="157.498" y2="66.5401" gradientUnits="userSpaceOnUse">
<stop stop-color="#00A76F"/>
<stop offset="1" stop-color="#007867"/>
</linearGradient>
<linearGradient id="paint5_linear_0_51287" x1="51.7537" y1="0" x2="51.7537" y2="16.5484" gradientUnits="userSpaceOnUse">
<stop stop-color="#5BE39A"/>
<stop offset="1" stop-color="#007867"/>
</linearGradient>
<linearGradient id="paint6_linear_0_51287" x1="51.7537" y1="0" x2="51.7537" y2="16.5484" gradientUnits="userSpaceOnUse">
<stop stop-color="#5BE39A"/>
<stop offset="1" stop-color="#007867"/>
</linearGradient>
<linearGradient id="paint7_linear_0_51287" x1="51.7537" y1="0" x2="51.7537" y2="16.5484" gradientUnits="userSpaceOnUse">
<stop stop-color="#5BE39A"/>
<stop offset="1" stop-color="#007867"/>
</linearGradient>
</defs>
</svg>
