<svg width="18" height="18" viewBox="0 0 18 18" fill="none" xmlns="http://www.w3.org/2000/svg">
<path d="M2.25 4.78218C2.25 4.41918 2.50875 4.12443 2.82825 4.12443H4.827C5.22375 4.11243 5.574 3.82518 5.709 3.40068L5.7315 3.32568L5.81775 3.03243C5.87025 2.85243 5.916 2.69493 5.9805 2.55468C6.234 2.00043 6.7035 1.61568 7.24575 1.51743C7.38375 1.49268 7.52925 1.49268 7.69575 1.49268L10.3043 1.49268C10.4715 1.49268 10.617 1.49268 10.7542 1.51743C11.2965 1.61568 11.7667 2.00043 12.0195 2.55468C12.084 2.69493 12.1297 2.85168 12.183 3.03243L12.2685 3.32568L12.291 3.40068C12.426 3.82518 12.846 4.11318 13.2435 4.12443L15.171 4.12443C15.4913 4.12443 15.75 4.41918 15.75 4.78218C15.75 5.14518 15.4913 5.43993 15.1718 5.43993L2.8275 5.43993C2.50875 5.43993 2.25 5.14518 2.25 4.78218Z" fill="white"/>
<path fill-rule="evenodd" clip-rule="evenodd" d="M8.697 16.4927H9.303C11.3903 16.4927 12.4335 16.4927 13.113 15.8282C13.791 15.1637 13.86 14.0739 13.9988 11.8944L14.199 8.75343C14.274 7.57068 14.3115 6.97893 13.9718 6.60468C13.6312 6.22968 13.0568 6.22968 11.907 6.22968L6.093 6.22968C4.94325 6.22968 4.368 6.22968 4.02825 6.60468C3.68775 6.97968 3.72525 7.57068 3.801 8.75343L4.00125 11.8944C4.14 14.0739 4.209 15.1644 4.88775 15.8282C5.5665 16.4927 6.60975 16.4927 8.697 16.4927ZM7.6845 9.13443C7.6545 8.80893 7.3785 8.57193 7.0695 8.60418C6.75975 8.63643 6.53475 8.92668 6.5655 9.25218L6.9405 13.1994C6.9705 13.5249 7.2465 13.7619 7.5555 13.7297C7.86525 13.6974 8.09025 13.4072 8.0595 13.0817L7.6845 9.13443ZM10.9312 8.60418C11.2402 8.63643 11.466 8.92668 11.4345 9.25218L11.0595 13.1994C11.0295 13.5249 10.7527 13.7619 10.4445 13.7297C10.1347 13.6974 9.90975 13.4072 9.9405 13.0817L10.3155 9.13443C10.3455 8.80893 10.623 8.57193 10.9312 8.60418Z" fill="white"/>
</svg>
