<svg width="16" height="16" viewBox="0 0 16 16" fill="none" xmlns="http://www.w3.org/2000/svg">
<path d="M8.00028 10.3341C7.84451 10.3344 7.69355 10.2802 7.57361 10.1808L3.57361 6.84748C3.29011 6.61183 3.25131 6.19098 3.48695 5.90748C3.72259 5.62397 4.14344 5.58517 4.42695 5.82081L8.00028 8.80748L11.5736 5.92748C11.7113 5.81563 11.888 5.7633 12.0644 5.78207C12.2408 5.80083 12.4025 5.88916 12.5136 6.02748C12.637 6.16605 12.6971 6.34979 12.6794 6.53452C12.6617 6.71924 12.5678 6.88822 12.4203 7.00081L8.42028 10.2208C8.29689 10.3045 8.14901 10.3444 8.00028 10.3341Z" fill="#637381"/>
</svg>
