<svg width="132" height="132" viewBox="0 0 132 132" fill="none" xmlns="http://www.w3.org/2000/svg">
<rect opacity="0.24" x="15.8398" y="47.52" width="100.32" height="36.96" rx="18.48" fill="#919EAB"/>
<path fill-rule="evenodd" clip-rule="evenodd" d="M71.28 50.1599C68.3639 50.1599 66 52.5238 66 55.4399V76.5599C66 79.476 68.3639 81.8399 71.28 81.8399H97.68C106.428 81.8399 113.52 74.7481 113.52 65.9999C113.52 57.2517 106.428 50.1599 97.68 50.1599H71.28ZM86.1935 73.2123L89.4009 71.5161C89.6255 71.3973 89.8943 71.3973 90.1189 71.5161L93.3264 73.2123C93.5651 73.3385 93.8384 73.382 94.1042 73.3362C94.7716 73.2211 95.2198 72.5835 95.1054 71.9122L94.4918 68.3137C94.4495 68.0655 94.5314 67.8124 94.7112 67.6362L97.3096 65.0885C97.5027 64.8992 97.6283 64.6511 97.6671 64.3827C97.7645 63.7087 97.3002 63.0829 96.6301 62.9849L93.0429 62.4606C92.7924 62.424 92.576 62.2663 92.4645 62.039L90.8594 58.7677C90.7401 58.5244 90.5443 58.3276 90.3025 58.2075C89.6953 57.9061 88.9601 58.1569 88.6604 58.7677L87.0554 62.039C86.9439 62.2663 86.7275 62.424 86.477 62.4606L82.8898 62.9849C82.6229 63.0239 82.3763 63.1503 82.1881 63.3445C81.7154 63.8323 81.7254 64.6131 82.2103 65.0885L84.8087 67.6362C84.9884 67.8124 85.0704 68.0655 85.028 68.3137L84.4145 71.9122C84.3689 72.1795 84.4122 72.4545 84.5377 72.6946C84.8528 73.2974 85.5941 73.5292 86.1935 73.2123Z" fill="#919EAB"/>
<path d="M42.959 58.3524L49.9745 65.2585C50.2213 65.5014 50.2224 65.8964 49.9769 66.1407C49.8585 66.2584 49.6977 66.3246 49.5299 66.3246H49.1701C48.9077 66.3246 48.6949 66.5373 48.6949 66.7998V72.9844C48.6949 73.5011 48.2716 73.9201 47.7494 73.9201H46.2509C45.8093 73.9201 45.4266 73.6177 45.3288 73.1916L44.0637 67.6798C43.9659 67.2537 43.5832 66.9513 43.1416 66.9513H41.4524C41.0109 66.9513 40.6282 67.2537 40.5304 67.6798L39.2653 73.1916C39.1675 73.6177 38.7847 73.9201 38.3432 73.9201H36.8447C36.3225 73.9201 35.8991 73.5011 35.8991 72.9844V66.7998C35.8991 66.5373 35.6864 66.3246 35.4239 66.3246H34.9507C34.6025 66.3246 34.3203 66.0453 34.3203 65.7007C34.3203 65.5331 34.3885 65.3726 34.5094 65.2552L41.6303 58.3476C41.9999 57.989 42.5921 57.9912 42.959 58.3524Z" fill="#919EAB"/>
</svg>
