<svg width="20" height="20" viewBox="0 0 20 20" fill="none" xmlns="http://www.w3.org/2000/svg">
<path fill-rule="evenodd" clip-rule="evenodd" d="M1.66406 10.4168V9.5835C1.66406 6.84433 1.66406 5.47433 2.42073 4.55183C2.55914 4.3832 2.71377 4.22857 2.8824 4.09016C3.80573 3.3335 5.17406 3.3335 7.91406 3.3335C10.6532 3.3335 12.0232 3.3335 12.9457 4.09016C13.1144 4.22857 13.269 4.3832 13.4074 4.55183C13.9924 5.26433 14.1249 6.24433 14.1549 7.91683L14.7132 7.64183C16.3341 6.83183 17.1449 6.426 17.7382 6.79266C18.3307 7.15933 18.3307 8.066 18.3307 9.8785V10.1218C18.3307 11.9343 18.3307 12.841 17.7382 13.2077C17.1449 13.5743 16.3341 13.1685 14.7132 12.3577L14.1549 12.0835C14.1249 13.756 13.9924 14.736 13.4074 15.4485C13.269 15.6171 13.1144 15.7717 12.9457 15.9102C12.0224 16.6668 10.6541 16.6668 7.91406 16.6668C5.1749 16.6668 3.8049 16.6668 2.8824 15.9102C2.71377 15.7718 2.55914 15.6171 2.42073 15.4485C1.66406 14.5252 1.66406 13.1568 1.66406 10.4168ZM11.2974 7.96683C11.4188 7.85199 11.5159 7.71399 11.583 7.56098C11.6501 7.40797 11.6858 7.24306 11.6881 7.076C11.6904 6.90894 11.6592 6.74311 11.5963 6.58833C11.5334 6.43354 11.4401 6.29293 11.3219 6.17482C11.2037 6.05671 11.0631 5.96348 10.9083 5.90065C10.7534 5.83783 10.5876 5.80667 10.4205 5.80904C10.2535 5.8114 10.0886 5.84723 9.93561 5.91441C9.78264 5.98159 9.64468 6.07875 9.5299 6.20016C9.30231 6.43602 9.17646 6.75184 9.17946 7.07958C9.18246 7.40733 9.31407 7.72078 9.54594 7.95243C9.77781 8.18409 10.0914 8.3154 10.4191 8.31809C10.7469 8.32078 11.0618 8.19464 11.2974 7.96683Z" fill="#637381"/>
</svg>
