<svg width="18" height="18" viewBox="0 0 18 18" fill="none" xmlns="http://www.w3.org/2000/svg">
<path d="M7.49937 14.25C7.32413 14.2503 7.1543 14.1893 7.01937 14.0775C6.86599 13.9503 6.76951 13.7673 6.75122 13.5689C6.73292 13.3705 6.79433 13.173 6.92187 13.02L10.2819 8.99996L7.04187 4.97246C6.91604 4.81751 6.85717 4.6188 6.87828 4.42032C6.8994 4.22184 6.99876 4.03996 7.15437 3.91496C7.31124 3.77693 7.51859 3.7106 7.72645 3.73196C7.93431 3.75331 8.12384 3.86041 8.24937 4.02746L11.8719 8.52746C12.0994 8.80421 12.0994 9.20321 11.8719 9.47996L8.12187 13.98C7.96927 14.164 7.73805 14.2643 7.49937 14.25Z" fill="#00A76F"/>
</svg>
