<svg width="18" height="18" viewBox="0 0 18 18" fill="none" xmlns="http://www.w3.org/2000/svg">
<path d="M16.5 9.52352C16.4985 10.626 16.4902 11.562 16.428 12.3308C16.3552 13.2233 16.206 13.9688 15.873 14.5875C15.7277 14.8588 15.5432 15.1072 15.3255 15.3248C14.7008 15.9495 13.9058 16.2323 12.8978 16.3673C11.913 16.5 10.65 16.5 9.03975 16.5H8.96025C7.34925 16.5 6.08775 16.5 5.10225 16.3673C4.095 16.2323 3.29925 15.9495 2.67525 15.3248C2.12175 14.7713 1.83525 14.0828 1.68375 13.2285C1.53375 12.3885 1.50675 11.3445 1.5015 10.0478C1.5 9.71777 1.5 9.36902 1.5 9.00002V8.95952C1.5 7.34852 1.5 6.08702 1.63275 5.10152C1.76775 4.09427 2.0505 3.29852 2.67525 2.67452C3.29925 2.04977 4.095 1.76702 5.10225 1.63202C5.97825 1.51427 7.10475 1.50077 8.4765 1.49927C8.61534 1.49927 8.7485 1.55442 8.84667 1.6526C8.94485 1.75077 9 1.88393 9 2.02277C9 2.16161 8.94485 2.29476 8.84667 2.39294C8.7485 2.49111 8.61534 2.54627 8.4765 2.54627C7.08525 2.54777 6.051 2.55977 5.24175 2.66852C4.35 2.78852 3.81225 3.01652 3.41475 3.41402C3.01725 3.81152 2.79 4.35002 2.67 5.24252C2.54775 6.15002 2.54625 7.34102 2.54625 9.00002V9.58802L3.24525 8.97752C3.55165 8.70944 3.94847 8.56782 4.35536 8.58132C4.76225 8.59483 5.14881 8.76246 5.43675 9.05027L8.42925 12.0428C8.66142 12.2751 8.96812 12.418 9.29533 12.4464C9.62254 12.4748 9.94927 12.3869 10.218 12.198L10.4265 12.0518C10.8141 11.7793 11.2826 11.6465 11.7555 11.675C12.2284 11.7035 12.6777 11.8916 13.0297 12.2085L15.0045 13.986C15.2032 13.5683 15.3218 13.02 15.3848 12.246C15.444 11.517 15.4523 10.632 15.453 9.52352C15.453 9.38468 15.5082 9.25152 15.6063 9.15335C15.7045 9.05517 15.8377 9.00002 15.9765 9.00002C16.1153 9.00002 16.2485 9.05517 16.3467 9.15335C16.4448 9.25152 16.5 9.38468 16.5 9.52352Z" fill="#637381"/>
<path fill-rule="evenodd" clip-rule="evenodd" d="M13.125 8.25002C11.5343 8.25002 10.7385 8.25002 10.2443 7.75577C9.75 7.26152 9.75 6.46577 9.75 4.87502C9.75 3.28427 9.75 2.48852 10.2443 1.99427C10.7385 1.50002 11.5343 1.50002 13.125 1.50002C14.7157 1.50002 15.5115 1.50002 16.0057 1.99427C16.5 2.48852 16.5 3.28427 16.5 4.87502C16.5 6.46577 16.5 7.26152 16.0057 7.75577C15.5115 8.25002 14.7157 8.25002 13.125 8.25002ZM13.6875 3.37502C13.6875 3.22583 13.6282 3.08276 13.5227 2.97727C13.4173 2.87178 13.2742 2.81252 13.125 2.81252C12.9758 2.81252 12.8327 2.87178 12.7273 2.97727C12.6218 3.08276 12.5625 3.22583 12.5625 3.37502V4.31252H11.625C11.4758 4.31252 11.3327 4.37178 11.2273 4.47727C11.1218 4.58276 11.0625 4.72583 11.0625 4.87502C11.0625 5.0242 11.1218 5.16728 11.2273 5.27277C11.3327 5.37825 11.4758 5.43752 11.625 5.43752H12.5625V6.37502C12.5625 6.5242 12.6218 6.66728 12.7273 6.77276C12.8327 6.87825 12.9758 6.93752 13.125 6.93752C13.2742 6.93752 13.4173 6.87825 13.5227 6.77276C13.6282 6.66728 13.6875 6.5242 13.6875 6.37502V5.43752H14.625C14.7742 5.43752 14.9173 5.37825 15.0227 5.27277C15.1282 5.16728 15.1875 5.0242 15.1875 4.87502C15.1875 4.72583 15.1282 4.58276 15.0227 4.47727C14.9173 4.37178 14.7742 4.31252 14.625 4.31252H13.6875V3.37502Z" fill="#637381"/>
</svg>
