<svg width="13" height="13" viewBox="0 0 13 13" fill="none" xmlns="http://www.w3.org/2000/svg">
<path d="M5.63264 0C4.84012 0 4.18837 0.651752 4.18837 1.44427C4.18837 2.42947 4.73577 3.65256 5.31219 4.80218C4.86162 6.21263 4.35033 7.72413 3.69642 8.99958C2.35802 9.52473 1.16443 9.91506 0.446819 10.4935C0.43563 10.5049 0.425083 10.517 0.415226 10.5296C0.152993 10.7978 0 11.1629 0 11.5541C0 12.3466 0.651752 12.9984 1.44427 12.9984C1.83073 12.9984 2.20375 12.8542 2.4733 12.5786C2.48263 12.5715 2.49167 12.564 2.50038 12.5561C3.02862 11.9253 3.65147 10.7811 4.20642 9.73525C5.48543 9.23212 6.82595 8.72018 8.11948 8.41285C9.06379 9.17387 10.4299 9.67658 11.5541 9.67658C12.3466 9.67658 12.9984 9.02482 12.9984 8.23231C12.9984 7.4398 12.3466 6.78805 11.5541 6.78805C10.6525 6.78805 9.34238 7.10988 8.34063 7.44699C7.52865 6.68472 6.78264 5.73271 6.24645 4.72094C6.62955 3.54076 7.0769 2.35989 7.0769 1.44427C7.0769 0.651752 6.42515 0 5.63264 0ZM5.63264 0.866559C5.95683 0.866559 6.21034 1.12008 6.21034 1.44427C6.21034 1.87775 5.97821 2.67586 5.70936 3.53394C5.35011 2.69919 5.05493 1.89832 5.05493 1.44427C5.05493 1.12008 5.30845 0.866559 5.63264 0.866559ZM5.88087 5.80865C6.31525 6.49961 6.82401 7.14256 7.37929 7.71328C6.5228 7.94748 5.68633 8.24757 4.86086 8.56179C5.25955 7.66192 5.57872 6.72815 5.88087 5.80865ZM11.5541 7.65461C11.8783 7.65461 12.1318 7.90812 12.1318 8.23231C12.1318 8.55651 11.8783 8.81002 11.5541 8.81002C10.9033 8.81002 9.97827 8.51623 9.23878 8.10594C10.0876 7.86593 11.0138 7.65461 11.5541 7.65461ZM2.93366 10.2407C2.52752 10.9657 2.12381 11.6424 1.84144 11.9829C1.74498 12.0751 1.61667 12.1318 1.44427 12.1318C1.12008 12.1318 0.866559 11.8783 0.866559 11.5541C0.866559 11.4016 0.931399 11.25 1.02001 11.1524C1.35882 10.8902 2.0959 10.576 2.93366 10.2407Z" fill="white"/>
</svg>
