<svg width="16" height="16" viewBox="0 0 16 16" fill="none" xmlns="http://www.w3.org/2000/svg">
<path fill-rule="evenodd" clip-rule="evenodd" d="M14.6654 7.99357C14.6654 11.6756 11.6807 14.6602 7.99871 14.6602C6.93204 14.6602 5.92404 14.4096 5.03071 13.9642C4.79472 13.8423 4.52231 13.8107 4.26471 13.8756L2.78071 14.2729C2.63382 14.3121 2.47921 14.312 2.33239 14.2725C2.18557 14.2331 2.05171 14.1557 1.94425 14.0482C1.83679 13.9406 1.7595 13.8067 1.72014 13.6599C1.68079 13.513 1.68075 13.3584 1.72004 13.2116L2.11671 11.7276C2.18122 11.4701 2.14945 11.1979 2.02737 10.9622C1.56846 10.04 1.33041 9.02366 1.33204 7.99357C1.33204 4.31157 4.31671 1.3269 7.99871 1.3269C11.6807 1.3269 14.6654 4.31157 14.6654 7.99357ZM5.33204 8.66024C5.15523 8.66024 4.98566 8.59 4.86063 8.46497C4.73561 8.33995 4.66537 8.17038 4.66537 7.99357C4.66537 7.81676 4.73561 7.64719 4.86063 7.52217C4.98566 7.39714 5.15523 7.3269 5.33204 7.3269C5.50885 7.3269 5.67842 7.39714 5.80344 7.52217C5.92847 7.64719 5.99871 7.81676 5.99871 7.99357C5.99871 8.17038 5.92847 8.33995 5.80344 8.46497C5.67842 8.59 5.50885 8.66024 5.33204 8.66024ZM7.33204 7.99357C7.33204 8.17038 7.40228 8.33995 7.5273 8.46497C7.65233 8.59 7.82189 8.66024 7.99871 8.66024C8.17552 8.66024 8.34509 8.59 8.47011 8.46497C8.59513 8.33995 8.66537 8.17038 8.66537 7.99357C8.66537 7.81676 8.59513 7.64719 8.47011 7.52217C8.34509 7.39714 8.17552 7.3269 7.99871 7.3269C7.82189 7.3269 7.65233 7.39714 7.5273 7.52217C7.40228 7.64719 7.33204 7.81676 7.33204 7.99357ZM9.99871 7.99357C9.99871 8.17038 10.0689 8.33995 10.194 8.46497C10.319 8.59 10.4886 8.66024 10.6654 8.66024C10.8422 8.66024 11.0118 8.59 11.1368 8.46497C11.2618 8.33995 11.332 8.17038 11.332 7.99357C11.332 7.81676 11.2618 7.64719 11.1368 7.52217C11.0118 7.39714 10.8422 7.3269 10.6654 7.3269C10.4886 7.3269 10.319 7.39714 10.194 7.52217C10.0689 7.64719 9.99871 7.81676 9.99871 7.99357Z" fill="#919EAB"/>
</svg>
