<svg width="184" height="173" viewBox="0 0 184 173" fill="none" xmlns="http://www.w3.org/2000/svg">
<path fill-rule="evenodd" clip-rule="evenodd" d="M79.3588 1.00082L79.3586 0L78.3578 0.000174665C55.3576 0.00418892 33.0938 8.10975 15.4746 22.894L14.7079 23.5373L15.3512 24.304L26.5701 37.6741C12.6897 49.6222 3.35764 66.01 0.17379 84.0665L0 85.0521L0.985613 85.2259L22.7192 89.0581C20.7059 101.793 23.1204 114.846 29.5771 126.029L30.0775 126.896L30.9443 126.395L38.0758 122.278C43.4612 131.165 51.6343 138.023 61.3211 141.783L53.7725 162.523L53.4302 163.463L54.3706 163.806C69.5618 169.335 86.1858 169.447 101.435 164.141L104.25 171.876L104.592 172.816L105.533 172.474C122.762 166.203 137.28 154.167 146.637 138.422L161.752 147.149L162.619 147.65L163.119 146.783C174.455 127.148 178.617 104.196 174.911 81.8495L183.015 80.4207L184.001 80.2469L183.827 79.2613C179.455 54.469 166.488 32.0096 147.203 15.8276L146.437 15.1843L145.793 15.951L119.75 46.988C108.322 37.6919 94.0945 32.5147 79.3643 32.2923L79.3588 1.00082ZM79.3752 95.1051L79.3747 92.1658V34.2944C93.6306 34.5187 107.399 39.5298 118.463 48.5215L79.3752 95.1051ZM77.3731 92.1728L77.3573 2.00721C55.5167 2.23889 34.4087 9.92367 17.5313 23.788L77.3731 95.1047V92.1728ZM62.0059 139.902L76.4934 100.098L39.8098 121.277C44.9593 129.756 52.7611 136.303 62.0059 139.902ZM55.9982 162.26L63.1984 142.478L63.199 142.478L63.5413 141.538L78.3746 100.784L100.75 162.26C86.2583 167.295 70.4901 167.295 55.9982 162.26ZM103.318 163.464L103.319 163.463L102.977 162.523L80.2556 100.098L144.903 137.422C135.952 152.472 122.162 164.043 105.786 170.244L103.318 163.464ZM80.908 96.3923L173.583 80.051L174.569 79.8772L181.677 78.624C177.282 55.0135 164.93 33.6196 146.68 18.0079L121.289 48.2688L120.645 49.0354L80.908 96.3923ZM81.2556 98.3634L161.882 144.913C172.607 125.879 176.509 103.751 172.94 82.1969L81.2556 98.3634ZM30.8181 124.157C24.9672 113.578 22.8109 101.348 24.6907 89.4062L75.4927 98.3639L30.8181 124.157ZM2.32517 83.4296L75.8402 96.3923L27.8567 39.2077C14.5894 50.6356 5.58837 66.2259 2.32517 83.4296Z" fill="white"/>
</svg>
