<svg width="24" height="24" viewBox="0 0 24 24" fill="none" xmlns="http://www.w3.org/2000/svg">
<path opacity="0.32" fill-rule="evenodd" clip-rule="evenodd" d="M17.7565 2.30079C17.3529 2.11371 17.1182 2.08917 17.0642 2.08595C15.7669 2.03476 14.1095 2 12 2C7.72535 2 5.30655 2.14276 3.98072 2.27571C3.04117 2.36993 2.36993 3.04117 2.27571 3.98072C2.14276 5.30655 2 7.72535 2 12C2 16.6448 2.16855 19.604 2.30992 21.2694C2.37527 22.039 3.24642 22.378 3.83985 21.8834L5.5 20.5L6.8671 21.8671C7.2274 22.2274 7.801 22.2592 8.1989 21.9408L10 20.5L11.2929 21.7929C11.6834 22.1834 12.3166 22.1834 12.7071 21.7929L14 20.5L15.8011 21.9408C16.199 22.2592 16.7726 22.2274 17.1329 21.8671L18.5 20.5L20.1602 21.8834C20.7536 22.378 21.6248 22.039 21.6901 21.2694C21.8314 19.604 22 16.6448 22 12C22 9.87288 21.9647 8.20528 21.9128 6.90321C21.4753 6.95701 20.8571 7.00045 20.001 7.00045C19.3715 7.00045 18.8706 6.97695 18.4756 6.94315C17.6156 6.8695 17.0568 6.21195 17.0238 5.3494C17.0101 4.99245 17.001 4.54875 17.001 4.00045C17.001 3.11398 17.0249 2.50092 17.0531 2.08594C17.0531 2.08594 17.2935 2.08635 17.7565 2.30079ZM11.6599 15.2672C12.2041 15.2672 12.5972 15.1752 12.8391 14.9912C13.0911 14.8072 13.217 14.5817 13.217 14.3149C13.217 14.0757 13.1213 13.8825 12.9298 13.7352C12.7383 13.588 12.4511 13.4592 12.0681 13.3488L11.2365 13.1004C10.8232 12.9807 10.4503 12.8519 10.1177 12.7139C9.7851 12.5759 9.5029 12.4103 9.27105 12.217C9.03925 12.0238 8.8578 11.7938 8.7268 11.527C8.59575 11.2601 8.53025 10.9427 8.53025 10.5746C8.53025 9.94895 8.7419 9.4291 9.16525 9.01505C9.58855 8.601 10.1933 8.32495 10.9795 8.18695V7.7944C10.9795 7.3862 11.2622 7.0214 11.6701 7.00345C11.7225 7.00115 11.7745 7 11.8261 7C12.199 7 12.4662 7.0598 12.6274 7.1794C12.7988 7.29905 12.8844 7.51525 12.8844 7.8281V8.13175C13.5295 8.19615 14.0537 8.33875 14.4568 8.5596C14.86 8.7712 15.0616 9.05185 15.0616 9.4015C15.0616 9.55725 15.0203 9.70145 14.9491 9.8323C14.7594 10.1803 14.2861 10.1546 13.9106 10.0279C13.8032 9.99165 13.688 9.9577 13.5648 9.92595C13.1818 9.81555 12.7635 9.76035 12.3099 9.76035C11.806 9.76035 11.428 9.83855 11.1761 9.995C10.9341 10.1422 10.8132 10.3354 10.8132 10.5746C10.8132 10.7679 10.8938 10.9243 11.0551 11.0439C11.2264 11.1635 11.4834 11.2739 11.8261 11.3751L12.6728 11.6098C13.5799 11.8674 14.2754 12.2078 14.7592 12.6311C15.253 13.0543 15.5 13.6248 15.5 14.3425C15.5 14.9774 15.2782 15.5157 14.8348 15.9573C14.3913 16.3898 13.7412 16.6796 12.8844 16.8268V17.2056C12.8844 17.6138 12.6016 17.9786 12.1938 17.9965C12.1415 17.9988 12.0894 18 12.0378 18C11.6649 18 11.3927 17.9402 11.2214 17.8206C11.0601 17.7009 10.9795 17.4847 10.9795 17.1719V16.8958C10.2437 16.8222 9.644 16.6612 9.18035 16.4128C8.7268 16.1551 8.5 15.8331 8.5 15.4466C8.5 15.2209 8.58665 15.0249 8.72565 14.8601C8.9745 14.5651 9.4176 14.6382 9.76045 14.8155C9.9067 14.8911 10.0661 14.9634 10.2387 15.0326C10.6519 15.189 11.1257 15.2672 11.6599 15.2672Z" fill="#00A76F"/>
<path d="M21.9128 6.9031C21.4752 6.95695 20.8567 7.00045 20 7.00045C19.3705 7.00045 18.8696 6.97695 18.4746 6.94315C17.6146 6.8695 17.0559 6.21195 17.0228 5.3494C17.0092 4.99245 17 4.54875 17 4.00045C17 3.11398 17.0239 2.50092 17.0522 2.08594C17.0522 2.08594 18.0872 2.08772 20 4.00045C21.9128 5.9132 21.9128 6.9031 21.9128 6.9031Z" fill="#00A76F"/>
<path d="M11.6599 15.2672C12.2041 15.2672 12.5972 15.1752 12.8391 14.9912C13.091 14.8072 13.217 14.5817 13.217 14.3149C13.217 14.0757 13.1213 13.8825 12.9298 13.7352C12.7383 13.588 12.4511 13.4592 12.0681 13.3488L11.2365 13.1004C10.8232 12.9807 10.4503 12.8519 10.1177 12.7139C9.7851 12.5759 9.5029 12.4103 9.27105 12.217C9.03925 12.0238 8.8578 11.7938 8.7268 11.527C8.59575 11.2601 8.53025 10.9427 8.53025 10.5746C8.53025 9.94895 8.7419 9.4291 9.16525 9.01505C9.58855 8.601 10.1933 8.32495 10.9795 8.18695V7.7944C10.9795 7.3862 11.2623 7.0214 11.6701 7.00345C11.7225 7.00115 11.7745 7 11.8261 7C12.199 7 12.4662 7.0598 12.6274 7.1794C12.7988 7.29905 12.8844 7.51525 12.8844 7.8281V8.13175C13.5295 8.19615 14.0537 8.33875 14.4568 8.5596C14.86 8.7712 15.0616 9.05185 15.0616 9.4015C15.0616 9.55725 15.0203 9.70145 14.9491 9.8323C14.7594 10.1803 14.2861 10.1546 13.9106 10.0279C13.8032 9.99165 13.688 9.9577 13.5648 9.92595C13.1818 9.81555 12.7635 9.76035 12.3099 9.76035C11.806 9.76035 11.428 9.83855 11.1761 9.995C10.9341 10.1422 10.8132 10.3354 10.8132 10.5746C10.8132 10.7679 10.8938 10.9243 11.0551 11.0439C11.2264 11.1635 11.4834 11.2739 11.8261 11.3751L12.6728 11.6098C13.5799 11.8674 14.2754 12.2078 14.7592 12.6311C15.253 13.0543 15.5 13.6248 15.5 14.3425C15.5 14.9774 15.2783 15.5157 14.8348 15.9573C14.3913 16.3898 13.7412 16.6796 12.8844 16.8268V17.2056C12.8844 17.6138 12.6016 17.9786 12.1938 17.9965C12.1415 17.9988 12.0894 18 12.0378 18C11.6648 18 11.3928 17.9402 11.2214 17.8206C11.0601 17.7009 10.9795 17.4847 10.9795 17.1719V16.8958C10.2437 16.8222 9.644 16.6612 9.18035 16.4128C8.7268 16.1551 8.5 15.8331 8.5 15.4466C8.5 15.2209 8.58665 15.0249 8.72565 14.8601C8.9745 14.5651 9.4176 14.6382 9.76045 14.8155C9.9067 14.8911 10.0661 14.9634 10.2387 15.0326C10.6519 15.189 11.1257 15.2672 11.6599 15.2672Z" fill="#00A76F"/>
</svg>
