<svg width="20" height="20" viewBox="0 0 20 20" fill="none" xmlns="http://www.w3.org/2000/svg">
<path d="M10.0003 15C7.2389 15 5.00033 12.7614 5.00033 9.99996C5.00033 7.23854 7.2389 4.99996 10.0003 4.99996C12.7618 4.99996 15.0003 7.23854 15.0003 9.99996C15.0003 12.7614 12.7618 15 10.0003 15Z" fill="#00A76F"/>
<path fill-rule="evenodd" clip-rule="evenodd" d="M1.66699 9.99996C1.66699 14.6023 5.39795 18.3333 10.0003 18.3333C14.6027 18.3333 18.3337 14.6023 18.3337 9.99996C18.3337 5.39759 14.6027 1.66663 10.0003 1.66663C5.39795 1.66663 1.66699 5.39759 1.66699 9.99996ZM2.91699 9.99996C2.91699 6.08794 6.08831 2.91663 10.0003 2.91663C13.9123 2.91663 17.0837 6.08794 17.0837 9.99996C17.0837 13.912 13.9123 17.0833 10.0003 17.0833C6.08831 17.0833 2.91699 13.912 2.91699 9.99996Z" fill="#00A76F"/>
</svg>
