<svg width="18" height="18" viewBox="0 0 18 18" fill="none" xmlns="http://www.w3.org/2000/svg">
<path fill-rule="evenodd" clip-rule="evenodd" d="M16.5 8.99268C16.5 13.1349 13.1423 16.4927 9.00001 16.4927C7.80001 16.4927 6.66601 16.2107 5.66101 15.7097C5.39553 15.5725 5.08906 15.537 4.79926 15.6099L3.12976 16.0569C2.96451 16.101 2.79058 16.1009 2.6254 16.0565C2.46023 16.0121 2.30964 15.9251 2.18875 15.8041C2.06785 15.6831 1.9809 15.5325 1.93663 15.3673C1.89235 15.2021 1.89231 15.0281 1.93651 14.8629L2.38276 13.1934C2.45534 12.9038 2.4196 12.5976 2.28226 12.3324C1.76598 11.2949 1.49817 10.1515 1.50001 8.99268C1.50001 4.85043 4.85776 1.49268 9.00001 1.49268C13.1423 1.49268 16.5 4.85043 16.5 8.99268ZM6.00001 9.74268C5.8011 9.74268 5.61033 9.66366 5.46968 9.52301C5.32903 9.38235 5.25001 9.19159 5.25001 8.99268C5.25001 8.79376 5.32903 8.603 5.46968 8.46235C5.61033 8.32169 5.8011 8.24268 6.00001 8.24268C6.19892 8.24268 6.38969 8.32169 6.53034 8.46235C6.67099 8.603 6.75001 8.79376 6.75001 8.99268C6.75001 9.19159 6.67099 9.38235 6.53034 9.52301C6.38969 9.66366 6.19892 9.74268 6.00001 9.74268ZM8.25001 8.99268C8.25001 9.19159 8.32903 9.38235 8.46968 9.52301C8.61033 9.66366 8.8011 9.74268 9.00001 9.74268C9.19892 9.74268 9.38969 9.66366 9.53034 9.52301C9.67099 9.38235 9.75001 9.19159 9.75001 8.99268C9.75001 8.79376 9.67099 8.603 9.53034 8.46235C9.38969 8.32169 9.19892 8.24268 9.00001 8.24268C8.8011 8.24268 8.61033 8.32169 8.46968 8.46235C8.32903 8.603 8.25001 8.79376 8.25001 8.99268ZM11.25 8.99268C11.25 9.19159 11.329 9.38235 11.4697 9.52301C11.6103 9.66366 11.8011 9.74268 12 9.74268C12.1989 9.74268 12.3897 9.66366 12.5303 9.52301C12.671 9.38235 12.75 9.19159 12.75 8.99268C12.75 8.79376 12.671 8.603 12.5303 8.46235C12.3897 8.32169 12.1989 8.24268 12 8.24268C11.8011 8.24268 11.6103 8.32169 11.4697 8.46235C11.329 8.603 11.25 8.79376 11.25 8.99268Z" fill="#00B8D9"/>
</svg>
