<svg width="24" height="24" viewBox="0 0 24 24" fill="none" xmlns="http://www.w3.org/2000/svg">
<path fill-rule="evenodd" clip-rule="evenodd" d="M3.03986 2.29234C2.85209 2.22644 2.64582 2.23782 2.46644 2.324C2.28707 2.41017 2.14927 2.56407 2.08336 2.75184C2.01745 2.93962 2.02884 3.14588 2.11501 3.32526C2.20119 3.50464 2.35509 3.64244 2.54286 3.70834L2.80386 3.79934C3.47186 4.03434 3.91086 4.18934 4.23386 4.34834C4.53686 4.49734 4.66986 4.61834 4.75786 4.74634C4.84786 4.87834 4.91786 5.06034 4.95786 5.42334C4.99786 5.80334 4.99986 6.29834 4.99986 7.03834V9.64034C4.99986 12.5823 5.06286 13.5523 5.92986 14.4663C6.79586 15.3803 8.18986 15.3803 10.9799 15.3803H16.2819C17.8429 15.3803 18.6239 15.3803 19.1749 14.9303C19.7269 14.4803 19.8849 13.7163 20.1999 12.1883L20.6999 9.76334C21.0469 8.02334 21.2199 7.15434 20.7759 6.57734C20.3319 6.00034 18.8159 6.00034 17.1309 6.00034H6.49186C6.4876 5.75386 6.47326 5.50765 6.44886 5.26234C6.39486 4.76534 6.27886 4.31234 5.99686 3.90034C5.71286 3.48434 5.33486 3.21834 4.89386 3.00134C4.48186 2.79934 3.95786 2.61534 3.34186 2.39834L3.03986 2.29234ZM12.9999 8.25034C13.1988 8.25034 13.3895 8.32936 13.5302 8.47001C13.6708 8.61067 13.7499 8.80143 13.7499 9.00034V10.2503H14.9999C15.1988 10.2503 15.3895 10.3294 15.5302 10.47C15.6708 10.6107 15.7499 10.8014 15.7499 11.0003C15.7499 11.1993 15.6708 11.39 15.5302 11.5307C15.3895 11.6713 15.1988 11.7503 14.9999 11.7503H13.7499V13.0003C13.7499 13.1993 13.6708 13.39 13.5302 13.5307C13.3895 13.6713 13.1988 13.7503 12.9999 13.7503C12.8009 13.7503 12.6102 13.6713 12.4695 13.5307C12.3289 13.39 12.2499 13.1993 12.2499 13.0003V11.7503H10.9999C10.8009 11.7503 10.6102 11.6713 10.4695 11.5307C10.3289 11.39 10.2499 11.1993 10.2499 11.0003C10.2499 10.8014 10.3289 10.6107 10.4695 10.47C10.6102 10.3294 10.8009 10.2503 10.9999 10.2503H12.2499V9.00034C12.2499 8.80143 12.3289 8.61067 12.4695 8.47001C12.6102 8.32936 12.8009 8.25034 12.9999 8.25034Z" fill="#212B36"/>
<path d="M7.49986 18.0003C7.89769 18.0003 8.27922 18.1584 8.56052 18.4397C8.84183 18.721 8.99986 19.1025 8.99986 19.5003C8.99986 19.8982 8.84183 20.2797 8.56052 20.561C8.27922 20.8423 7.89769 21.0003 7.49986 21.0003C7.10204 21.0003 6.7205 20.8423 6.4392 20.561C6.1579 20.2797 5.99986 19.8982 5.99986 19.5003C5.99986 19.1025 6.1579 18.721 6.4392 18.4397C6.7205 18.1584 7.10204 18.0003 7.49986 18.0003ZM16.4999 18.0003C16.8977 18.0003 17.2792 18.1584 17.5605 18.4397C17.8418 18.721 17.9999 19.1025 17.9999 19.5003C17.9999 19.8982 17.8418 20.2797 17.5605 20.561C17.2792 20.8423 16.8977 21.0003 16.4999 21.0003C16.102 21.0003 15.7205 20.8423 15.4392 20.561C15.1579 20.2797 14.9999 19.8982 14.9999 19.5003C14.9999 19.1025 15.1579 18.721 15.4392 18.4397C15.7205 18.1584 16.102 18.0003 16.4999 18.0003Z" fill="#212B36"/>
</svg>
