<svg width="20" height="20" viewBox="0 0 20 20" fill="none" xmlns="http://www.w3.org/2000/svg">
<path d="M11.6663 13.75C11.9874 13.7502 12.296 13.8738 12.5283 14.0953C12.7607 14.3169 12.8989 14.6193 12.9143 14.9399C12.9297 15.2606 12.8212 15.5749 12.6112 15.8177C12.4012 16.0605 12.1059 16.2132 11.7863 16.2442L11.6663 16.25H8.33301C8.01199 16.2498 7.70335 16.1262 7.47102 15.9047C7.23869 15.6831 7.1005 15.3807 7.08507 15.0601C7.06964 14.7394 7.17817 14.4251 7.38815 14.1823C7.59814 13.9395 7.89349 13.7868 8.21301 13.7558L8.33301 13.75H11.6663ZM14.1663 8.75C14.4979 8.75 14.8158 8.8817 15.0502 9.11612C15.2846 9.35054 15.4163 9.66848 15.4163 10C15.4163 10.3315 15.2846 10.6495 15.0502 10.8839C14.8158 11.1183 14.4979 11.25 14.1663 11.25H5.83301C5.50149 11.25 5.18354 11.1183 4.94912 10.8839C4.7147 10.6495 4.58301 10.3315 4.58301 10C4.58301 9.66848 4.7147 9.35054 4.94912 9.11612C5.18354 8.8817 5.50149 8.75 5.83301 8.75H14.1663ZM16.6663 3.75C16.9979 3.75 17.3158 3.8817 17.5502 4.11612C17.7846 4.35054 17.9163 4.66848 17.9163 5C17.9163 5.33152 17.7846 5.64946 17.5502 5.88388C17.3158 6.1183 16.9979 6.25 16.6663 6.25H3.33301C3.00149 6.25 2.68354 6.1183 2.44912 5.88388C2.2147 5.64946 2.08301 5.33152 2.08301 5C2.08301 4.66848 2.2147 4.35054 2.44912 4.11612C2.68354 3.8817 3.00149 3.75 3.33301 3.75H16.6663Z" fill="#212B36"/>
</svg>
