<svg width="18" height="18" viewBox="0 0 18 18" fill="none" xmlns="http://www.w3.org/2000/svg">
<path fill-rule="evenodd" clip-rule="evenodd" d="M10.4775 4.85249C10.583 4.74716 10.7259 4.68799 10.875 4.68799C11.0241 4.68799 11.167 4.74716 11.2725 4.85249L15.0225 8.60249C15.1278 8.70796 15.187 8.85093 15.187 8.99999C15.187 9.14906 15.1278 9.29202 15.0225 9.39749L11.2725 13.1475C11.221 13.2028 11.1589 13.2471 11.0899 13.2778C11.0209 13.3086 10.9464 13.3251 10.8709 13.3264C10.7954 13.3278 10.7203 13.3139 10.6503 13.2856C10.5803 13.2573 10.5166 13.2152 10.4632 13.1618C10.4098 13.1084 10.3677 13.0447 10.3394 12.9747C10.3111 12.9046 10.2972 12.8296 10.2986 12.7541C10.2999 12.6786 10.3164 12.6041 10.3472 12.5351C10.3779 12.4661 10.4222 12.404 10.4775 12.3525L13.2675 9.56249H7.125C6.59025 9.56249 5.775 9.72749 5.10975 10.2067C4.47375 10.6642 3.9375 11.433 3.9375 12.75C3.9375 12.8992 3.87824 13.0423 3.77275 13.1477C3.66726 13.2532 3.52418 13.3125 3.375 13.3125C3.22582 13.3125 3.08274 13.2532 2.97725 13.1477C2.87176 13.0423 2.8125 12.8992 2.8125 12.75C2.8125 11.067 3.5265 9.95999 4.45275 9.29324C5.34975 8.64749 6.41025 8.43749 7.125 8.43749H13.2675L10.4775 5.64749C10.3722 5.54202 10.313 5.39906 10.313 5.24999C10.313 5.10093 10.3722 4.95796 10.4775 4.85249Z" fill="#637381"/>
</svg>
