<svg width="13" height="13" viewBox="0 0 13 13" fill="none" xmlns="http://www.w3.org/2000/svg">
<path opacity="0.48" d="M11.5409 0.433199H10.1359C10.0355 0.433199 9.98535 0.476527 9.93518 0.519855C9.885 0.563183 9.885 0.649839 9.885 0.736495C9.98535 0.909807 10.0355 1.12645 10.0355 1.29976V6.93239L10.1861 7.79895C10.1861 7.88561 10.2864 7.92894 10.3366 7.97227C10.3868 7.97227 10.437 8.01559 10.437 8.01559L10.6878 8.14558C11.4907 8.40555 11.9925 9.05546 11.9925 9.74871V11.6985C11.9925 11.7851 12.0426 11.8718 12.143 11.8718C12.1932 11.8718 12.1932 11.9151 12.2434 11.9151C12.2935 11.9151 12.3437 11.9151 12.3939 11.8718C12.7953 11.6118 12.996 11.2652 12.996 10.8319V1.73304C13.0462 0.996463 12.3939 0.433199 11.5409 0.433199Z" fill="white"/>
<path d="M4.76701 1.03987C4.81718 0.909887 4.91754 0.866559 5.0179 0.866559H5.51967C5.62003 0.866559 5.72038 0.909887 5.77056 1.03987L6.07163 2.03641L6.47305 1.29984L5.87092 0.0866559V0H4.51612V0.0866559L4.01434 1.29984L4.41576 2.12307L4.76701 1.03987Z" fill="white"/>
<path d="M5.21831 1.29973L4.566 3.24949C4.46565 3.4228 4.51582 3.63944 4.66636 3.76943C4.86707 3.94274 5.61973 3.94274 5.82045 3.76943C5.97098 3.63944 6.02116 3.4228 5.97098 3.24949L5.31867 1.29973H5.21831Z" fill="white"/>
<path d="M10.5373 8.53561L10.1861 8.40563C9.78466 8.27564 9.48359 7.97235 9.48359 7.58239V1.29984C9.48359 0.563263 8.83128 0 7.97826 0H6.37257L7.02488 1.21318C7.07506 1.25651 7.07506 1.34317 7.02488 1.38649L6.37257 2.46969C6.37257 2.51302 6.32239 2.55635 6.27222 2.55635L6.47293 3.11961C6.62346 3.42291 6.52311 3.81286 6.22204 4.07283C6.02133 4.24614 5.67008 4.3328 5.26866 4.3328C4.86724 4.3328 4.516 4.24614 4.31528 4.07283C4.01422 3.81286 3.91386 3.42291 4.0644 3.11961L4.26511 2.59968C4.16475 2.59968 4.0644 2.55635 4.01422 2.46969L3.51244 1.38649V1.21318L4.01422 0H1.50533C0.65231 0 0 0.563263 0 1.29984V11.6985C0 12.4351 0.65231 12.9984 1.50533 12.9984H10.0355C10.8886 12.9984 11.5409 12.4351 11.5409 11.6985V9.74879C11.5409 9.18553 11.1395 8.70892 10.5373 8.53561ZM4.76688 11.2653H4.26511C4.11457 11.2653 4.01422 11.1786 4.01422 11.0486C4.01422 10.9186 4.11457 10.832 4.26511 10.832H4.76688C4.91742 10.832 5.01777 10.9186 5.01777 11.0486C5.01777 11.1786 4.91742 11.2653 4.76688 11.2653ZM4.76688 10.3987H4.26511C4.11457 10.3987 4.01422 10.3121 4.01422 10.1821C4.01422 10.0521 4.11457 9.96543 4.26511 9.96543H4.76688C4.91742 9.96543 5.01777 10.0521 5.01777 10.1821C5.01777 10.3121 4.91742 10.3987 4.76688 10.3987ZM4.76688 9.53215H4.26511C4.11457 9.53215 4.01422 9.4455 4.01422 9.31551C4.01422 9.18553 4.11457 9.09887 4.26511 9.09887H4.76688C4.91742 9.09887 5.01777 9.18553 5.01777 9.31551C5.01777 9.4455 4.91742 9.53215 4.76688 9.53215ZM4.76688 8.66559H4.26511C4.11457 8.66559 4.01422 8.57894 4.01422 8.44895C4.01422 8.31897 4.11457 8.23231 4.26511 8.23231H4.76688C4.91742 8.23231 5.01777 8.31897 5.01777 8.44895C5.01777 8.57894 4.91742 8.66559 4.76688 8.66559ZM4.76688 7.79903H4.26511C4.11457 7.79903 4.01422 7.71238 4.01422 7.58239C4.01422 7.45241 4.11457 7.36575 4.26511 7.36575H4.76688C4.91742 7.36575 5.01777 7.45241 5.01777 7.58239C5.01777 7.71238 4.91742 7.79903 4.76688 7.79903ZM4.76688 6.93247H4.26511C4.11457 6.93247 4.01422 6.84582 4.01422 6.71583C4.01422 6.58585 4.11457 6.49919 4.26511 6.49919H4.76688C4.91742 6.49919 5.01777 6.58585 5.01777 6.71583C5.01777 6.84582 4.91742 6.93247 4.76688 6.93247ZM4.76688 6.06591H4.26511C4.11457 6.06591 4.01422 5.97926 4.01422 5.84927C4.01422 5.71929 4.11457 5.63264 4.26511 5.63264H4.76688C4.91742 5.63264 5.01777 5.71929 5.01777 5.84927C5.01777 5.97926 4.91742 6.06591 4.76688 6.06591ZM4.76688 5.19936H4.26511C4.11457 5.19936 4.01422 5.1127 4.01422 4.98272C4.01422 4.85273 4.11457 4.76608 4.26511 4.76608H4.76688C4.91742 4.76608 5.01777 4.85273 5.01777 4.98272C5.01777 5.1127 4.91742 5.19936 4.76688 5.19936ZM6.27222 10.832H5.77044C5.61991 10.832 5.51955 10.7453 5.51955 10.6154C5.51955 10.4854 5.61991 10.3987 5.77044 10.3987H6.27222C6.42275 10.3987 6.52311 10.4854 6.52311 10.6154C6.52311 10.7453 6.42275 10.832 6.27222 10.832ZM6.27222 9.96543H5.77044C5.61991 9.96543 5.51955 9.87878 5.51955 9.74879C5.51955 9.61881 5.61991 9.53215 5.77044 9.53215H6.27222C6.42275 9.53215 6.52311 9.61881 6.52311 9.74879C6.52311 9.87878 6.42275 9.96543 6.27222 9.96543ZM6.27222 9.09887H5.77044C5.61991 9.09887 5.51955 9.01222 5.51955 8.88223C5.51955 8.75225 5.61991 8.66559 5.77044 8.66559H6.27222C6.42275 8.66559 6.52311 8.75225 6.52311 8.88223C6.52311 9.01222 6.42275 9.09887 6.27222 9.09887ZM6.27222 8.23231H5.77044C5.61991 8.23231 5.51955 8.14566 5.51955 8.01567C5.51955 7.88569 5.61991 7.79903 5.77044 7.79903H6.27222C6.42275 7.79903 6.52311 7.88569 6.52311 8.01567C6.52311 8.14566 6.42275 8.23231 6.27222 8.23231ZM6.27222 7.36575H5.77044C5.61991 7.36575 5.51955 7.2791 5.51955 7.14911C5.51955 7.01913 5.61991 6.93247 5.77044 6.93247H6.27222C6.42275 6.93247 6.52311 7.01913 6.52311 7.14911C6.52311 7.2791 6.42275 7.36575 6.27222 7.36575ZM6.27222 6.49919H5.77044C5.61991 6.49919 5.51955 6.41254 5.51955 6.28255C5.51955 6.15257 5.61991 6.06591 5.77044 6.06591H6.27222C6.42275 6.06591 6.52311 6.15257 6.52311 6.28255C6.52311 6.41254 6.42275 6.49919 6.27222 6.49919ZM6.27222 5.63264H5.77044C5.61991 5.63264 5.51955 5.54598 5.51955 5.416C5.51955 5.28601 5.61991 5.19936 5.77044 5.19936H6.27222C6.42275 5.19936 6.52311 5.28601 6.52311 5.416C6.52311 5.54598 6.42275 5.63264 6.27222 5.63264Z" fill="white"/>
</svg>
