<svg width="132" height="132" viewBox="0 0 132 132" fill="none" xmlns="http://www.w3.org/2000/svg">
<path opacity="0.24" d="M83.248 94.8063C94.1347 94.8063 102.96 86.9544 102.96 77.2686V46.5777C102.96 36.8919 94.1347 29.04 83.248 29.04H48.752C37.8654 29.04 29.04 36.8919 29.04 46.5777V77.2686C29.04 86.9544 37.8654 94.8063 48.752 94.8063H53.68L64.4608 102.48C65.3407 103.106 66.5827 103.12 67.4787 102.521L67.5393 102.48L78.32 94.8063H83.248Z" fill="#919EAB"/>
<rect x="42.2402" y="50.8201" width="31.68" height="6.6" rx="3.3" fill="#919EAB"/>
<rect opacity="0.24" x="42.2402" y="74.5801" width="31.68" height="6.6" rx="3.3" fill="#919EAB"/>
<rect opacity="0.48" x="42.2402" y="62.7" width="47.52" height="6.6" rx="3.3" fill="#919EAB"/>
</svg>
