<svg width="40" height="40" viewBox="0 0 40 40" fill="none" xmlns="http://www.w3.org/2000/svg">
<path d="M36.4987 20C36.4987 19.8166 36.3987 19.6333 36.3487 19.45C36.2716 19.1265 36.1713 18.8091 36.0487 18.5C35.9654 18.3 35.8487 18.1 35.7487 17.8833C35.6487 17.6666 35.4987 17.3833 35.3487 17.15C35.1987 16.9166 34.9987 16.8 34.9987 16.6666C34.9987 16.5333 34.6654 16.25 34.482 16.05C34.2987 15.85 34.132 15.7166 33.9487 15.55L33.332 15L32.732 14.6C32.4965 14.4558 32.2515 14.3278 31.9987 14.2166L31.3487 13.9166C31.0765 13.8158 30.7981 13.7323 30.5154 13.6666C30.2914 13.6007 30.063 13.5506 29.832 13.5166L29.4487 13.3333C28.7686 11.3684 27.493 9.66433 25.7993 8.45824C24.1055 7.25214 22.078 6.604 19.9987 6.604C17.9194 6.604 15.8919 7.25214 14.1981 8.45824C12.5044 9.66433 11.2288 11.3684 10.5487 13.3333L10.2487 13.4166C10.0177 13.4506 9.78936 13.5007 9.56536 13.5666C9.28259 13.6323 9.00426 13.7158 8.73203 13.8166L8.08203 14.1166C7.82924 14.2278 7.58423 14.3558 7.3487 14.5L6.7487 15L6.13203 15.5166C5.9487 15.6833 5.76536 15.8333 5.5987 16.0166C5.43203 16.2 5.2487 16.4333 5.08203 16.6333C4.91536 16.8333 4.78203 17.0166 4.6487 17.2333C4.51536 17.45 4.38203 17.7166 4.2487 17.9666C4.11536 18.2166 4.03203 18.3833 3.9487 18.5833C3.8261 18.8924 3.72584 19.2099 3.6487 19.5333C3.6487 19.7166 3.53203 19.9 3.4987 20.0833C3.39496 20.6049 3.33917 21.1349 3.33203 21.6666C3.33984 22.1755 3.39002 22.6828 3.48203 23.1833C3.48203 23.35 3.56536 23.5 3.5987 23.6666C3.68108 23.9941 3.78122 24.3168 3.8987 24.6333L4.0987 25.1166C4.24541 25.438 4.41242 25.7498 4.5987 26.05L4.83203 26.4166C4.85601 26.4633 4.88389 26.5079 4.91536 26.55L4.9987 26.6666C5.77492 27.7016 6.78146 28.5416 7.93859 29.1202C9.09571 29.6988 10.3717 30 11.6654 30H16.6654V27.7166C16.159 28.0104 15.5841 28.1656 14.9987 28.1666C14.0958 28.1582 13.2329 27.7927 12.5987 27.15C12.2942 26.8349 12.0548 26.463 11.8941 26.0554C11.7335 25.6477 11.6548 25.2124 11.6625 24.7744C11.6703 24.3363 11.7643 23.904 11.9392 23.5023C12.1142 23.1006 12.3666 22.7374 12.682 22.4333L17.682 17.6C18.3041 17.0004 19.1347 16.6657 19.9987 16.6666C20.8813 16.6704 21.7264 17.024 22.3487 17.65L27.3487 22.65C27.9695 23.2745 28.318 24.1193 28.318 25C28.318 25.8806 27.9695 26.7254 27.3487 27.35C26.7264 27.9759 25.8813 28.3296 24.9987 28.3333C24.4124 28.3388 23.8359 28.1832 23.332 27.8833V30H28.332C29.6257 30 30.9017 29.6988 32.0588 29.1202C33.2159 28.5416 34.2225 27.7016 34.9987 26.6666L35.082 26.5833C35.1135 26.5413 35.1414 26.4967 35.1654 26.45L35.3987 26.0833C35.585 25.7831 35.752 25.4714 35.8987 25.15L36.0987 24.6666C36.2162 24.3501 36.3163 24.0274 36.3987 23.7C36.3987 23.5333 36.482 23.3833 36.5154 23.2166C36.6092 22.7052 36.6594 22.1866 36.6654 21.6666C36.6634 21.107 36.6076 20.5489 36.4987 20Z" fill="#919EAB"/>
<path d="M21.182 18.8166C20.8705 18.5113 20.4516 18.3402 20.0154 18.3402C19.5791 18.3402 19.1602 18.5113 18.8487 18.8166L13.8487 23.65C13.6718 23.7959 13.527 23.9767 13.4232 24.1812C13.3195 24.3857 13.259 24.6093 13.2456 24.8382C13.2323 25.0671 13.2662 25.2963 13.3455 25.5115C13.4247 25.7266 13.5475 25.9231 13.7061 26.0887C13.8648 26.2542 14.0559 26.3852 14.2675 26.4736C14.4791 26.5619 14.7066 26.6056 14.9359 26.6019C15.1651 26.5983 15.3912 26.5474 15.5998 26.4524C15.8085 26.3575 15.9954 26.2204 16.1487 26.05L18.332 23.9333V33.3333C18.332 33.7753 18.5076 34.1993 18.8202 34.5118C19.1327 34.8244 19.5567 35 19.9987 35C20.4407 35 20.8646 34.8244 21.1772 34.5118C21.4898 34.1993 21.6654 33.7753 21.6654 33.3333V24.0166L23.8154 26.1833C23.9703 26.3395 24.1546 26.4635 24.3577 26.5481C24.5608 26.6327 24.7787 26.6763 24.9987 26.6763C25.2187 26.6763 25.4366 26.6327 25.6397 26.5481C25.8428 26.4635 26.0271 26.3395 26.182 26.1833C26.3382 26.0284 26.4622 25.844 26.5469 25.6409C26.6315 25.4378 26.675 25.22 26.675 25C26.675 24.7799 26.6315 24.5621 26.5469 24.359C26.4622 24.1559 26.3382 23.9716 26.182 23.8166L21.182 18.8166Z" fill="#919EAB"/>
</svg>
