<svg width="18" height="18" viewBox="0 0 18 18" fill="none" xmlns="http://www.w3.org/2000/svg">
<path fill-rule="evenodd" clip-rule="evenodd" d="M7.52201 4.85249C7.62734 4.95796 7.68651 5.10093 7.68651 5.24999C7.68651 5.39906 7.62734 5.54202 7.52201 5.64749L4.73201 8.43749H10.8745C11.5893 8.43749 12.6498 8.64749 13.5468 9.29324C14.473 9.96074 15.187 11.067 15.187 12.75C15.187 12.8992 15.1277 13.0423 15.0223 13.1477C14.9168 13.2532 14.7737 13.3125 14.6245 13.3125C14.4753 13.3125 14.3322 13.2532 14.2268 13.1477C14.1213 13.0423 14.062 12.8992 14.062 12.75C14.062 11.433 13.5258 10.665 12.8898 10.2067C12.2245 9.72749 11.4093 9.56249 10.8745 9.56249H4.73201L7.52201 12.3525C7.57727 12.404 7.6216 12.4661 7.65234 12.5351C7.68308 12.6041 7.69962 12.6786 7.70095 12.7541C7.70228 12.8296 7.68839 12.9046 7.6601 12.9747C7.63181 13.0447 7.5897 13.1084 7.53628 13.1618C7.48287 13.2152 7.41924 13.2573 7.3492 13.2856C7.27916 13.3139 7.20414 13.3278 7.12861 13.3264C7.05309 13.3251 6.9786 13.3086 6.9096 13.2778C6.8406 13.2471 6.7785 13.2028 6.72701 13.1475L2.97701 9.39749C2.87167 9.29202 2.8125 9.14906 2.8125 8.99999C2.8125 8.85093 2.87167 8.70796 2.97701 8.60249L6.72701 4.85249C6.83247 4.74716 6.97544 4.68799 7.12451 4.68799C7.27357 4.68799 7.41654 4.74716 7.52201 4.85249Z" fill="#637381"/>
</svg>
