<svg width="20" height="20" viewBox="0 0 20 20" fill="none" xmlns="http://www.w3.org/2000/svg">
<g opacity="0.48">
<path fill-rule="evenodd" clip-rule="evenodd" d="M18.3346 9.99996C18.3346 14.6025 14.6038 18.3333 10.0013 18.3333C5.3988 18.3333 1.66797 14.6025 1.66797 9.99996C1.66797 5.39746 5.3988 1.66663 10.0013 1.66663C14.6038 1.66663 18.3346 5.39746 18.3346 9.99996ZM7.4763 7.47496C7.59349 7.35792 7.75234 7.29218 7.91797 7.29218C8.08359 7.29218 8.24245 7.35792 8.35964 7.47496L10.0013 9.11663L11.643 7.47496C11.7614 7.36456 11.9182 7.30446 12.0801 7.30731C12.242 7.31017 12.3965 7.37576 12.511 7.49027C12.6255 7.60479 12.6911 7.75927 12.6939 7.92119C12.6968 8.08311 12.6367 8.23981 12.5263 8.35829L10.8846 9.99996L12.5263 11.6416C12.6367 11.7601 12.6968 11.9168 12.6939 12.0787C12.6911 12.2406 12.6255 12.3951 12.511 12.5096C12.3965 12.6242 12.242 12.6897 12.0801 12.6926C11.9182 12.6955 11.7614 12.6354 11.643 12.525L10.0013 10.8833L8.35964 12.525C8.24116 12.6354 8.08445 12.6955 7.92253 12.6926C7.76062 12.6897 7.60613 12.6242 7.49162 12.5096C7.37711 12.3951 7.31151 12.2406 7.30866 12.0787C7.3058 11.9168 7.3659 11.7601 7.4763 11.6416L9.11797 9.99996L7.4763 8.35829C7.35926 8.24111 7.29352 8.08225 7.29352 7.91663C7.29352 7.751 7.35926 7.59215 7.4763 7.47496Z" fill="#212B36"/>
</g>
</svg>
