<svg width="20" height="20" viewBox="0 0 20 20" fill="none" xmlns="http://www.w3.org/2000/svg">
<path d="M15.2143 2.92337C15.3285 2.97067 15.4261 3.05079 15.4948 3.15359C15.5634 3.25638 15.6001 3.37724 15.6001 3.50087V7.0367C15.6001 7.20246 15.5342 7.36143 15.417 7.47864C15.2998 7.59585 15.1408 7.6617 14.9751 7.6617H11.4393C11.3157 7.66159 11.195 7.62488 11.0923 7.55619C10.9896 7.48751 10.9096 7.38994 10.8623 7.2758C10.8151 7.16167 10.8027 7.03608 10.8268 6.91492C10.8509 6.79375 10.9103 6.68244 10.9976 6.59503L12.3326 5.25837C11.1063 4.74485 9.74487 4.65015 8.45929 4.98895C7.17372 5.32775 6.03579 6.08113 5.22186 7.13232C4.40794 8.18352 3.96347 9.47383 3.95734 10.8033C3.95121 12.1327 4.38376 13.4271 5.18796 14.4858C5.99216 15.5444 7.12309 16.3082 8.40549 16.6589C9.68788 17.0095 11.0501 16.9274 12.2811 16.4252C13.5121 15.923 14.543 15.0288 15.2142 13.8812C15.8854 12.7336 16.1593 11.3966 15.9934 10.0775C15.9762 9.91483 16.0236 9.75187 16.1252 9.62366C16.2268 9.49545 16.3747 9.41221 16.537 9.39181C16.6994 9.37141 16.8632 9.41547 16.9934 9.51455C17.1236 9.61362 17.2098 9.7598 17.2334 9.9217C17.4363 11.5352 17.0939 13.1701 16.2609 14.5667C15.4278 15.9633 14.1517 17.0413 12.6356 17.6294C11.1195 18.2175 9.45034 18.2819 7.89342 17.8124C6.3365 17.3428 4.98121 16.3664 4.04299 15.0381C3.10478 13.7099 2.63749 12.1062 2.71541 10.4819C2.79333 8.85754 3.41198 7.3059 4.47303 6.07357C5.53407 4.84125 6.97661 3.99897 8.57132 3.68064C10.166 3.36231 11.8214 3.58619 13.2743 4.3167L14.5326 3.05837C14.62 2.9711 14.7314 2.9117 14.8525 2.88767C14.9737 2.86364 15.1001 2.87606 15.2143 2.92337Z" fill="#637381"/>
</svg>
