<svg width="20" height="20" viewBox="0 0 20 20" fill="none" xmlns="http://www.w3.org/2000/svg">
<path d="M9.50018 15.126L15.6635 8.96263C14.6266 8.52969 13.6848 7.89714 12.8918 7.10096C12.0953 6.3078 11.4625 5.36577 11.0293 4.32846L4.86601 10.4918C4.38518 10.9726 4.14435 11.2135 3.93768 11.4785C3.6936 11.7912 3.48431 12.1296 3.31351 12.4876C3.16935 12.791 3.06185 13.1143 2.84685 13.7593L1.71185 17.1618C1.65961 17.3176 1.65186 17.4849 1.68947 17.6448C1.72707 17.8048 1.80855 17.951 1.92474 18.0672C2.04093 18.1834 2.18722 18.2649 2.34717 18.3025C2.50712 18.3401 2.67439 18.3324 2.83018 18.2801L6.23268 17.1451C6.87851 16.9301 7.20101 16.8226 7.50435 16.6785C7.86268 16.5076 8.20101 16.2985 8.51351 16.0543C8.77851 15.8476 9.01935 15.6068 9.50018 15.126ZM17.3735 7.25263C17.988 6.6381 18.3333 5.80462 18.3333 4.93554C18.3333 4.06647 17.988 3.23299 17.3735 2.61846C16.759 2.00393 15.9255 1.65869 15.0564 1.65869C14.1874 1.65869 13.3539 2.00393 12.7393 2.61846L12.0002 3.35763L12.0318 3.45013C12.3961 4.49239 12.9922 5.43838 13.7752 6.21679C14.5769 7.02321 15.556 7.63105 16.6343 7.99179L17.3735 7.25263Z" fill="#637381"/>
</svg>
