<svg width="604" height="200" viewBox="0 0 604 200" fill="none" xmlns="http://www.w3.org/2000/svg">
<path d="M0 62C0 59.7909 1.79086 58 4 58C6.20914 58 8 59.7909 8 62V86H0V62Z" fill="#919EAB"/>
<path d="M0 86H8V114H0V86Z" fill="#FFAB00"/>
<path d="M0 114H8V154H0V114Z" fill="#FF5630"/>
<rect y="154" width="8" height="46" fill="#00A76F"/>
<path d="M99.332 128C99.332 125.791 101.123 124 103.332 124C105.541 124 107.332 125.791 107.332 128V139H99.332V128Z" fill="#919EAB"/>
<path d="M99.332 139H107.332V154H99.332V139Z" fill="#FFAB00"/>
<path d="M99.332 154H107.332V175H99.332V154Z" fill="#FF5630"/>
<rect x="99.332" y="175" width="8" height="25" fill="#00A76F"/>
<path d="M198.668 111C198.668 108.791 200.459 107 202.668 107C204.877 107 206.668 108.791 206.668 111V125H198.668V111Z" fill="#919EAB"/>
<path d="M198.668 125H206.668V144H198.668V125Z" fill="#FFAB00"/>
<path d="M198.668 144H206.668V170H198.668V144Z" fill="#FF5630"/>
<rect x="198.668" y="170" width="8" height="30" fill="#00A76F"/>
<path d="M298 62C298 59.7909 299.791 58 302 58C304.209 58 306 59.7909 306 62V86H298V62Z" fill="#919EAB"/>
<path d="M298 86H306V114H298V86Z" fill="#FFAB00"/>
<path d="M298 114H306V154H298V114Z" fill="#FF5630"/>
<rect x="298" y="154" width="8" height="46" fill="#00A76F"/>
<path d="M397.332 82C397.332 79.7909 399.123 78 401.332 78C403.541 78 405.332 79.7909 405.332 82V102H397.332V82Z" fill="#919EAB"/>
<path d="M397.332 102H405.332V126H397.332V102Z" fill="#FFAB00"/>
<path d="M397.332 126H405.332V161H397.332V126Z" fill="#FF5630"/>
<rect x="397.332" y="161" width="8" height="39" fill="#00A76F"/>
<path d="M496.668 4C496.668 1.79086 498.459 0 500.668 0C502.877 0 504.668 1.79086 504.668 4V30H496.668V4Z" fill="#919EAB"/>
<path d="M496.668 30H504.668V60H496.668V30Z" fill="#FFAB00"/>
<path d="M496.668 60H504.668V103H496.668V60Z" fill="#FF5630"/>
<rect x="496.668" y="103" width="8" height="97" fill="#00A76F"/>
<path d="M596 98C596 95.7909 597.791 94 600 94C602.209 94 604 95.7909 604 98V115H596V98Z" fill="#919EAB"/>
<path d="M596 115H604V136H596V115Z" fill="#FFAB00"/>
<path d="M596 136H604V166H596V136Z" fill="#FF5630"/>
<rect x="596" y="166" width="8" height="34" fill="#00A76F"/>
</svg>
