<svg width="20" height="20" viewBox="0 0 20 20" fill="none" xmlns="http://www.w3.org/2000/svg">
<path fill-rule="evenodd" clip-rule="evenodd" d="M1.33918 5.06665C1.4398 5.02357 1.54792 5.00073 1.65737 4.99945C1.76682 4.99816 1.87545 5.01845 1.97706 5.05916C2.07867 5.09986 2.17126 5.16018 2.24955 5.23668C2.32784 5.31318 2.39029 5.40435 2.43334 5.50498L1.66751 5.83332L2.43418 5.50498L2.43668 5.51165L2.45418 5.54915C2.47084 5.58415 2.49668 5.63915 2.53251 5.71082C2.60418 5.85415 2.71501 6.06415 2.86584 6.31832C3.26341 6.98656 3.72984 7.61136 4.25751 8.18248C4.4156 8.3526 4.57959 8.51715 4.74918 8.67582C5.98418 9.83332 7.71001 10.8333 10.0008 10.8333C10.919 10.8374 11.8295 10.6672 12.6842 10.3316C13.7067 9.92915 14.5625 9.32332 15.2642 8.66665C16.2019 7.77558 16.9731 6.72439 17.5417 5.56248L17.5642 5.51415L17.5683 5.50498C17.6575 5.30499 17.8217 5.14811 18.0256 5.06827C18.2295 4.98843 18.4566 4.99204 18.6579 5.07832C18.8591 5.1646 19.0183 5.32661 19.101 5.52933C19.1838 5.73206 19.1834 5.9592 19.1 6.16165L19.0983 6.16582L19.095 6.17248L19.0858 6.19415L19.0525 6.26665C18.8673 6.65209 18.6612 7.0271 18.435 7.38998C18.0186 8.05919 17.5413 8.68853 17.0092 9.26998L17.6733 9.93415C17.8297 10.0904 17.9176 10.3024 17.9177 10.5234C17.9178 10.7445 17.83 10.9565 17.6738 11.1129C17.5175 11.2693 17.3055 11.3572 17.0845 11.3572C16.8634 11.3573 16.6514 11.2696 16.495 11.1133L15.795 10.4133C15.303 10.8123 14.7736 11.1628 14.2142 11.46L14.8658 12.4616C14.9273 12.5533 14.97 12.6563 14.9913 12.7646C15.0127 12.8729 15.0123 12.9844 14.9902 13.0926C14.9681 13.2007 14.9247 13.3034 14.8626 13.3947C14.8005 13.4859 14.7208 13.5639 14.6283 13.6241C14.5358 13.6844 14.4323 13.7256 14.3237 13.7455C14.2151 13.7653 14.1036 13.7634 13.9958 13.7399C13.8879 13.7163 13.7858 13.6715 13.6954 13.6082C13.605 13.5448 13.5281 13.4641 13.4692 13.3708L12.6475 12.1091C12.0817 12.2825 11.4775 12.405 10.8342 12.4625V13.75C10.8342 13.971 10.7464 14.183 10.5901 14.3392C10.4338 14.4955 10.2219 14.5833 10.0008 14.5833C9.77983 14.5833 9.56787 14.4955 9.41159 14.3392C9.25531 14.183 9.16751 13.971 9.16751 13.75V12.4633C8.52168 12.405 7.91751 12.2825 7.35334 12.1091L6.53251 13.3708C6.40926 13.5496 6.22112 13.6731 6.00814 13.7153C5.79515 13.7574 5.57413 13.7147 5.39213 13.5963C5.21012 13.478 5.0815 13.2933 5.03363 13.0815C4.98576 12.8697 5.02244 12.6476 5.13584 12.4625L5.78751 11.46C5.20417 11.1516 4.67751 10.7933 4.20668 10.4125L3.50668 11.1125C3.34951 11.2643 3.139 11.3483 2.92051 11.3464C2.70201 11.3445 2.493 11.2568 2.33849 11.1023C2.18399 10.9478 2.09635 10.7388 2.09445 10.5203C2.09255 10.3018 2.17654 10.0913 2.32834 9.93415L2.99251 9.26998C2.40299 8.62511 1.88084 7.92174 1.43418 7.17082C1.25575 6.87114 1.09141 6.56331 0.941675 6.24832C0.932363 6.22838 0.923196 6.20838 0.914175 6.18832L0.905842 6.17082L0.904175 6.16498L0.903342 6.16332C0.900842 6.16332 0.900842 6.16165 1.66751 5.83332L0.901675 6.16248C0.858441 6.06187 0.835462 5.95371 0.834053 5.84421C0.832645 5.73471 0.852833 5.626 0.893465 5.5243C0.934097 5.42261 0.994376 5.32992 1.07085 5.25153C1.14733 5.17315 1.23851 5.10977 1.33918 5.06665Z" fill="white"/>
</svg>
