<svg width="20" height="20" viewBox="0 0 20 20" fill="none" xmlns="http://www.w3.org/2000/svg">
<path opacity="0.5" d="M5.21094 15.8334C5.21084 15.9612 5.24993 16.086 5.32293 16.1909C5.39593 16.2958 5.49934 16.3758 5.61921 16.4201C5.73909 16.4644 5.86967 16.4709 5.99335 16.4387C6.11703 16.4065 6.22788 16.3372 6.31094 16.2401L11.3109 10.4067C11.408 10.2935 11.4613 10.1492 11.4613 10.0001C11.4613 9.8509 11.408 9.70666 11.3109 9.59339L6.31094 3.76006C6.22788 3.66293 6.11703 3.5936 5.99335 3.56141C5.86967 3.52922 5.73909 3.53572 5.61921 3.58004C5.49934 3.62436 5.39593 3.70436 5.32293 3.80926C5.24993 3.91416 5.21084 4.03892 5.21094 4.16672V15.8334Z" fill="#FFAB00"/>
<path fill-rule="evenodd" clip-rule="evenodd" d="M8.75973 16.3083C8.69738 16.2549 8.64617 16.1897 8.60903 16.1164C8.57189 16.0432 8.54954 15.9634 8.54328 15.8815C8.53701 15.7996 8.54694 15.7173 8.57249 15.6393C8.59805 15.5612 8.63874 15.489 8.69223 15.4267L13.3431 10L8.69223 4.57333C8.63817 4.5111 8.59696 4.43879 8.57096 4.36056C8.54496 4.28234 8.5347 4.19974 8.54075 4.11754C8.54681 4.03533 8.56907 3.95513 8.60625 3.88156C8.64343 3.80798 8.69479 3.7425 8.75739 3.68886C8.81998 3.63522 8.89257 3.5945 8.97097 3.56903C9.04937 3.54356 9.13203 3.53385 9.2142 3.54047C9.29636 3.54708 9.37641 3.56988 9.44973 3.60756C9.52305 3.64523 9.58819 3.69704 9.6414 3.76L14.6414 9.59333C14.7385 9.7066 14.7918 9.85084 14.7918 10C14.7918 10.1492 14.7385 10.2934 14.6414 10.4067L9.6414 16.24C9.58802 16.3024 9.52286 16.3537 9.44965 16.3909C9.37644 16.4281 9.29661 16.4505 9.21473 16.4569C9.13285 16.4632 9.05052 16.4534 8.97244 16.4279C8.89437 16.4024 8.82209 16.3618 8.75973 16.3083Z" fill="#FFAB00"/>
</svg>
