<svg width="132" height="132" viewBox="0 0 132 132" fill="none" xmlns="http://www.w3.org/2000/svg">
<path opacity="0.24" d="M26.4002 75.24C31.5033 75.24 35.6402 71.1031 35.6402 66C35.6402 60.8969 31.5033 56.76 26.4002 56.76C21.297 56.76 17.1602 60.8969 17.1602 66C17.1602 71.1031 21.297 75.24 26.4002 75.24Z" fill="#919EAB"/>
<path opacity="0.24" d="M79.2 75.24C84.3031 75.24 88.44 71.1031 88.44 66C88.44 60.8969 84.3031 56.76 79.2 56.76C74.0969 56.76 69.96 60.8969 69.96 66C69.96 71.1031 74.0969 75.24 79.2 75.24Z" fill="#919EAB"/>
<path opacity="0.24" d="M105.6 75.24C110.703 75.24 114.84 71.1031 114.84 66C114.84 60.8969 110.703 56.76 105.6 56.76C100.497 56.76 96.3604 60.8969 96.3604 66C96.3604 71.1031 100.497 75.24 105.6 75.24Z" fill="#919EAB"/>
<path d="M52.8001 75.24C57.9032 75.24 62.0401 71.1031 62.0401 66C62.0401 60.8969 57.9032 56.76 52.8001 56.76C47.6969 56.76 43.5601 60.8969 43.5601 66C43.5601 71.1031 47.6969 75.24 52.8001 75.24Z" fill="#919EAB"/>
</svg>
