<svg width="20" height="20" viewBox="0 0 20 20" fill="none" xmlns="http://www.w3.org/2000/svg">
<path fill-rule="evenodd" clip-rule="evenodd" d="M2.53333 1.91004C2.37685 1.85512 2.20496 1.86461 2.05548 1.93642C1.906 2.00823 1.79117 2.13648 1.73625 2.29296C1.68132 2.44944 1.69081 2.62132 1.76262 2.77081C1.83443 2.92029 1.96268 3.03512 2.11916 3.09004L2.33666 3.16588C2.89333 3.36171 3.25916 3.49088 3.52833 3.62338C3.78083 3.74754 3.89166 3.84838 3.965 3.95504C4.04 4.06504 4.09833 4.21671 4.13166 4.51921C4.165 4.83588 4.16666 5.24838 4.16666 5.86504V8.03338C4.16666 10.485 4.21916 11.2934 4.94166 12.055C5.66333 12.8167 6.82499 12.8167 9.14999 12.8167H13.5683C14.8692 12.8167 15.52 12.8167 15.9792 12.4417C16.4392 12.0667 16.5708 11.43 16.8333 10.1567L17.25 8.13588C17.5392 6.68588 17.6833 5.96171 17.3133 5.48088C16.9433 5.00004 15.68 5.00004 14.2758 5.00004H5.41C5.40645 4.79464 5.39449 4.58947 5.37416 4.38504C5.32916 3.97088 5.2325 3.59338 4.9975 3.25004C4.76083 2.90338 4.44583 2.68171 4.07833 2.50088C3.735 2.33254 3.29833 2.17921 2.785 1.99838L2.53333 1.91004ZM10.8333 6.87504C10.9991 6.87504 11.1581 6.94089 11.2753 7.0581C11.3925 7.17531 11.4583 7.33428 11.4583 7.50004V8.54171H12.5C12.6658 8.54171 12.8247 8.60756 12.9419 8.72477C13.0591 8.84198 13.125 9.00095 13.125 9.16671C13.125 9.33247 13.0591 9.49144 12.9419 9.60865C12.8247 9.72586 12.6658 9.79171 12.5 9.79171H11.4583V10.8334C11.4583 10.9991 11.3925 11.1581 11.2753 11.2753C11.1581 11.3925 10.9991 11.4584 10.8333 11.4584C10.6676 11.4584 10.5086 11.3925 10.3914 11.2753C10.2742 11.1581 10.2083 10.9991 10.2083 10.8334V9.79171H9.16666C9.0009 9.79171 8.84193 9.72586 8.72472 9.60865C8.60751 9.49144 8.54166 9.33247 8.54166 9.16671C8.54166 9.00095 8.60751 8.84198 8.72472 8.72477C8.84193 8.60756 9.0009 8.54171 9.16666 8.54171H10.2083V7.50004C10.2083 7.33428 10.2742 7.17531 10.3914 7.0581C10.5086 6.94089 10.6676 6.87504 10.8333 6.87504Z" fill="white"/>
<path d="M6.25 15C6.58152 15 6.89946 15.1317 7.13388 15.3662C7.3683 15.6006 7.5 15.9185 7.5 16.25C7.5 16.5816 7.3683 16.8995 7.13388 17.1339C6.89946 17.3683 6.58152 17.5 6.25 17.5C5.91847 17.5 5.60053 17.3683 5.36611 17.1339C5.13169 16.8995 5 16.5816 5 16.25C5 15.9185 5.13169 15.6006 5.36611 15.3662C5.60053 15.1317 5.91847 15 6.25 15ZM13.75 15C14.0815 15 14.3995 15.1317 14.6339 15.3662C14.8683 15.6006 15 15.9185 15 16.25C15 16.5816 14.8683 16.8995 14.6339 17.1339C14.3995 17.3683 14.0815 17.5 13.75 17.5C13.4185 17.5 13.1005 17.3683 12.8661 17.1339C12.6317 16.8995 12.5 16.5816 12.5 16.25C12.5 15.9185 12.6317 15.6006 12.8661 15.3662C13.1005 15.1317 13.4185 15 13.75 15Z" fill="white"/>
</svg>
