<svg width="132" height="132" viewBox="0 0 132 132" fill="none" xmlns="http://www.w3.org/2000/svg">
<path d="M44.6523 49.7578H35.303C32.3225 49.7578 29.9062 52.1818 29.9062 55.1719V76.8281C29.9062 79.8182 32.3225 82.2422 35.303 82.2422H44.6523C45.5546 82.2422 46.3971 81.7898 46.8976 81.0367L55.8921 67.5016C56.4964 66.5923 56.4964 65.4077 55.8921 64.4984L46.8976 50.9633C46.3971 50.2102 45.5546 49.7578 44.6523 49.7578Z" fill="#919EAB"/>
<path opacity="0.24" d="M91.4902 49.7578H56.5353C55.5402 49.7578 54.6258 50.3073 54.1562 51.1875C53.6866 52.0677 53.7381 53.1357 54.2901 53.9664L61.2889 64.4984C61.8932 65.4077 61.8932 66.5923 61.2889 67.5016L54.2901 78.0336C53.7381 78.8643 53.6866 79.9323 54.1562 80.8125C54.6258 81.6927 55.5402 82.2422 56.5353 82.2422H91.4902C92.3924 82.2422 93.2349 81.7898 93.7354 81.0367L100.734 70.5048C102.547 67.7769 102.547 64.2231 100.734 61.4952L93.7354 50.9633C93.2349 50.2102 92.3924 49.7578 91.4902 49.7578Z" fill="#919EAB"/>
</svg>
