<svg width="24" height="24" viewBox="0 0 24 24" fill="none" xmlns="http://www.w3.org/2000/svg">
<path d="M21.9 11.0001C21.9 10.8901 21.84 10.7801 21.81 10.6701C21.7637 10.4761 21.7036 10.2856 21.63 10.1001C21.58 9.98012 21.51 9.86012 21.45 9.73012C21.39 9.60012 21.3 9.43012 21.21 9.29012C21.12 9.15012 21 9.08012 21 9.00012C21 8.92012 20.8 8.75012 20.69 8.63012C20.58 8.51012 20.48 8.43012 20.37 8.33012L20 8.00012L19.64 7.76012C19.4987 7.67363 19.3517 7.59679 19.2 7.53012L18.81 7.35012C18.6467 7.28962 18.4797 7.23952 18.31 7.20012C18.1756 7.16058 18.0386 7.13051 17.9 7.11012H17.72C17.3348 5.90938 16.5811 4.86052 15.5659 4.1125C14.5507 3.36448 13.3257 2.95533 12.0647 2.94315C10.8038 2.93097 9.57103 3.31639 8.54158 4.04466C7.51213 4.77293 6.73831 5.80704 6.33 7.00012H6.15C6.0114 7.02051 5.8744 7.05058 5.74 7.09012C5.57034 7.12952 5.40334 7.17962 5.24 7.24012L4.85 7.42012C4.69832 7.48679 4.55132 7.56363 4.41 7.65012L4.05 8.00012L3.68 8.31012C3.57 8.41012 3.46 8.50012 3.36 8.61012C3.26 8.72012 3.15 8.86012 3.05 8.98012C2.95 9.10012 2.87 9.21012 2.79 9.34012C2.71 9.47012 2.63 9.63012 2.55 9.78012C2.47 9.93012 2.42 10.0301 2.37 10.1501C2.29644 10.3356 2.23629 10.5261 2.19 10.7201C2.19 10.8301 2.12 10.9401 2.1 11.0501C2.03776 11.3631 2.00428 11.6811 2 12.0001C2.00469 12.3054 2.03479 12.6098 2.09 12.9101C2.09 13.0101 2.14 13.1001 2.16 13.2001C2.20943 13.3966 2.26952 13.5902 2.34 13.7801L2.46 14.0701C2.54803 14.263 2.64823 14.45 2.76 14.6301L2.9 14.8501C2.91439 14.8781 2.93111 14.9049 2.95 14.9301L3 15.0001C3.46574 15.6211 4.06965 16.1251 4.76393 16.4723C5.45821 16.8194 6.22377 17.0001 7 17.0001C7.00223 16.4705 7.21441 15.9635 7.59 15.5901C7.96335 15.2145 8.47042 15.0023 9 15.0001C9.35177 14.9968 9.6977 15.0902 10 15.2701V12.0001C10 11.4697 10.2107 10.961 10.5858 10.5859C10.9609 10.2108 11.4696 10.0001 12 10.0001C12.5304 10.0001 13.0391 10.2108 13.4142 10.5859C13.7893 10.961 14 11.4697 14 12.0001V15.3701C14.3038 15.1939 14.6487 15.1007 15 15.1001C15.5417 15.1052 16.0595 15.3245 16.44 15.7101C16.7767 16.0581 16.9757 16.5165 17 17.0001C17.7762 17.0001 18.5418 16.8194 19.2361 16.4723C19.9303 16.1251 20.5343 15.6211 21 15.0001L21.05 14.9501C21.0689 14.9249 21.0856 14.8981 21.1 14.8701L21.24 14.6501C21.3518 14.47 21.452 14.283 21.54 14.0901L21.66 13.8001C21.7305 13.6102 21.7906 13.4166 21.84 13.2201C21.84 13.1201 21.89 13.0301 21.91 12.9301C21.9663 12.6232 21.9964 12.3121 22 12.0001C21.9988 11.6643 21.9654 11.3295 21.9 11.0001Z" fill="white"/>
<path d="M14.31 16.3801L13 17.6401V12.0001C13 11.7349 12.8946 11.4805 12.7071 11.293C12.5196 11.1055 12.2652 11.0001 12 11.0001C11.7348 11.0001 11.4804 11.1055 11.2929 11.293C11.1054 11.4805 11 11.7349 11 12.0001V17.5901L9.71 16.2901C9.61676 16.1969 9.50607 16.1229 9.38425 16.0725C9.26243 16.022 9.13186 15.996 9 15.996C8.86814 15.996 8.73757 16.022 8.61575 16.0725C8.49393 16.1229 8.38324 16.1969 8.29 16.2901C8.19676 16.3834 8.1228 16.494 8.07234 16.6159C8.02188 16.7377 7.99591 16.8683 7.99591 17.0001C7.99591 17.132 8.02188 17.2625 8.07234 17.3844C8.1228 17.5062 8.19676 17.6169 8.29 17.7101L11.29 20.7101C11.3834 20.8028 11.4943 20.8761 11.6161 20.9259C11.7379 20.9757 11.8684 21.0009 12 21.0001C12.2575 20.9991 12.5046 20.8988 12.69 20.7201L15.69 17.8201C15.7961 17.7326 15.883 17.624 15.9453 17.5014C16.0075 17.3787 16.0438 17.2445 16.0518 17.1072C16.0599 16.9698 16.0395 16.8323 15.9919 16.7032C15.9444 16.5741 15.8707 16.4562 15.7755 16.3569C15.6803 16.2576 15.5657 16.179 15.4387 16.126C15.3118 16.073 15.1753 16.0468 15.0377 16.0489C14.9002 16.0511 14.7645 16.0816 14.6393 16.1386C14.5141 16.1956 14.402 16.2778 14.31 16.3801Z" fill="white"/>
<path d="M21.9 11.0001C21.9 10.8901 21.84 10.7801 21.81 10.6701C21.7637 10.4761 21.7036 10.2856 21.63 10.1001C21.58 9.98012 21.51 9.86012 21.45 9.73012C21.39 9.60012 21.3 9.43012 21.21 9.29012C21.12 9.15012 21 9.08012 21 9.00012C21 8.92012 20.8 8.75012 20.69 8.63012C20.58 8.51012 20.48 8.43012 20.37 8.33012L20 8.00012L19.64 7.76012C19.4987 7.67363 19.3517 7.59679 19.2 7.53012L18.81 7.35012C18.6467 7.28962 18.4797 7.23952 18.31 7.20012C18.1756 7.16058 18.0386 7.13051 17.9 7.11012H17.72C17.3348 5.90938 16.5811 4.86052 15.5659 4.1125C14.5507 3.36448 13.3257 2.95533 12.0647 2.94315C10.8038 2.93097 9.57103 3.31639 8.54158 4.04466C7.51213 4.77293 6.73831 5.80704 6.33 7.00012H6.15C6.0114 7.02051 5.8744 7.05058 5.74 7.09012C5.57034 7.12952 5.40334 7.17962 5.24 7.24012L4.85 7.42012C4.69832 7.48679 4.55132 7.56363 4.41 7.65012L4.05 8.00012L3.68 8.31012C3.57 8.41012 3.46 8.50012 3.36 8.61012C3.26 8.72012 3.15 8.86012 3.05 8.98012C2.95 9.10012 2.87 9.21012 2.79 9.34012C2.71 9.47012 2.63 9.63012 2.55 9.78012C2.47 9.93012 2.42 10.0301 2.37 10.1501C2.29644 10.3356 2.23629 10.5261 2.19 10.7201C2.19 10.8301 2.12 10.9401 2.1 11.0501C2.03776 11.3631 2.00428 11.6811 2 12.0001C2.00469 12.3054 2.03479 12.6098 2.09 12.9101C2.09 13.0101 2.14 13.1001 2.16 13.2001C2.20943 13.3966 2.26952 13.5902 2.34 13.7801L2.46 14.0701C2.54803 14.263 2.64823 14.45 2.76 14.6301L2.9 14.8501C2.91439 14.8781 2.93111 14.9049 2.95 14.9301L3 15.0001C3.46574 15.6211 4.06965 16.1251 4.76393 16.4723C5.45821 16.8194 6.22377 17.0001 7 17.0001C7.00223 16.4705 7.21441 15.9635 7.59 15.5901C7.96335 15.2145 8.47042 15.0023 9 15.0001C9.35177 14.9968 9.6977 15.0902 10 15.2701V12.0001C10 11.4697 10.2107 10.961 10.5858 10.5859C10.9609 10.2108 11.4696 10.0001 12 10.0001C12.5304 10.0001 13.0391 10.2108 13.4142 10.5859C13.7893 10.961 14 11.4697 14 12.0001V15.3701C14.3038 15.1939 14.6487 15.1007 15 15.1001C15.5417 15.1052 16.0595 15.3245 16.44 15.7101C16.7767 16.0581 16.9757 16.5165 17 17.0001C17.7762 17.0001 18.5418 16.8194 19.2361 16.4723C19.9303 16.1251 20.5343 15.6211 21 15.0001L21.05 14.9501C21.0689 14.9249 21.0856 14.8981 21.1 14.8701L21.24 14.6501C21.3518 14.47 21.452 14.283 21.54 14.0901L21.66 13.8001C21.7305 13.6102 21.7906 13.4166 21.84 13.2201C21.84 13.1201 21.89 13.0301 21.91 12.9301C21.9663 12.6232 21.9964 12.3121 22 12.0001C21.9988 11.6643 21.9654 11.3295 21.9 11.0001Z" fill="white"/>
<path d="M14.31 16.3801L13 17.6401V12.0001C13 11.7349 12.8946 11.4805 12.7071 11.293C12.5196 11.1055 12.2652 11.0001 12 11.0001C11.7348 11.0001 11.4804 11.1055 11.2929 11.293C11.1054 11.4805 11 11.7349 11 12.0001V17.5901L9.71 16.2901C9.61676 16.1969 9.50607 16.1229 9.38425 16.0725C9.26243 16.022 9.13186 15.996 9 15.996C8.86814 15.996 8.73757 16.022 8.61575 16.0725C8.49393 16.1229 8.38324 16.1969 8.29 16.2901C8.19676 16.3834 8.1228 16.494 8.07234 16.6159C8.02188 16.7377 7.99591 16.8683 7.99591 17.0001C7.99591 17.132 8.02188 17.2625 8.07234 17.3844C8.1228 17.5062 8.19676 17.6169 8.29 17.7101L11.29 20.7101C11.3834 20.8028 11.4943 20.8761 11.6161 20.9259C11.7379 20.9757 11.8684 21.0009 12 21.0001C12.2575 20.9991 12.5046 20.8988 12.69 20.7201L15.69 17.8201C15.7961 17.7326 15.883 17.624 15.9453 17.5014C16.0075 17.3787 16.0438 17.2445 16.0518 17.1072C16.0599 16.9698 16.0395 16.8323 15.9919 16.7032C15.9444 16.5741 15.8707 16.4562 15.7755 16.3569C15.6803 16.2576 15.5657 16.179 15.4387 16.126C15.3118 16.073 15.1753 16.0468 15.0377 16.0489C14.9002 16.0511 14.7645 16.0816 14.6393 16.1386C14.5141 16.1956 14.402 16.2778 14.31 16.3801Z" fill="white"/>
</svg>
