<svg width="20" height="20" viewBox="0 0 20 20" fill="none" xmlns="http://www.w3.org/2000/svg">
<path d="M4.58464 13.7498C5.02666 13.7498 5.45059 13.9254 5.76315 14.238C6.07571 14.5506 6.2513 14.9745 6.2513 15.4165C6.2513 15.8585 6.07571 16.2825 5.76315 16.595C5.45059 16.9076 5.02666 17.0832 4.58464 17.0832C4.14261 17.0832 3.71868 16.9076 3.40612 16.595C3.09356 16.2825 2.91797 15.8585 2.91797 15.4165C2.91797 14.9745 3.09356 14.5506 3.40612 14.238C3.71868 13.9254 4.14261 13.7498 4.58464 13.7498ZM10.0013 13.7498C10.4433 13.7498 10.8673 13.9254 11.1798 14.238C11.4924 14.5506 11.668 14.9745 11.668 15.4165C11.668 15.8585 11.4924 16.2825 11.1798 16.595C10.8673 16.9076 10.4433 17.0832 10.0013 17.0832C9.55927 17.0832 9.13535 16.9076 8.82279 16.595C8.51023 16.2825 8.33464 15.8585 8.33464 15.4165C8.33464 14.9745 8.51023 14.5506 8.82279 14.238C9.13535 13.9254 9.55927 13.7498 10.0013 13.7498ZM15.418 13.7498C15.86 13.7498 16.2839 13.9254 16.5965 14.238C16.909 14.5506 17.0846 14.9745 17.0846 15.4165C17.0846 15.8585 16.909 16.2825 16.5965 16.595C16.2839 16.9076 15.86 17.0832 15.418 17.0832C14.9759 17.0832 14.552 16.9076 14.2395 16.595C13.9269 16.2825 13.7513 15.8585 13.7513 15.4165C13.7513 14.9745 13.9269 14.5506 14.2395 14.238C14.552 13.9254 14.9759 13.7498 15.418 13.7498ZM4.58464 8.33317C5.02666 8.33317 5.45059 8.50877 5.76315 8.82133C6.07571 9.13389 6.2513 9.55781 6.2513 9.99984C6.2513 10.4419 6.07571 10.8658 5.76315 11.1783C5.45059 11.4909 5.02666 11.6665 4.58464 11.6665C4.14261 11.6665 3.71868 11.4909 3.40612 11.1783C3.09356 10.8658 2.91797 10.4419 2.91797 9.99984C2.91797 9.55781 3.09356 9.13389 3.40612 8.82133C3.71868 8.50877 4.14261 8.33317 4.58464 8.33317ZM10.0013 8.33317C10.4433 8.33317 10.8673 8.50877 11.1798 8.82133C11.4924 9.13389 11.668 9.55781 11.668 9.99984C11.668 10.4419 11.4924 10.8658 11.1798 11.1783C10.8673 11.4909 10.4433 11.6665 10.0013 11.6665C9.55927 11.6665 9.13535 11.4909 8.82279 11.1783C8.51023 10.8658 8.33464 10.4419 8.33464 9.99984C8.33464 9.55781 8.51023 9.13389 8.82279 8.82133C9.13535 8.50877 9.55927 8.33317 10.0013 8.33317ZM15.418 8.33317C15.86 8.33317 16.2839 8.50877 16.5965 8.82133C16.909 9.13389 17.0846 9.55781 17.0846 9.99984C17.0846 10.4419 16.909 10.8658 16.5965 11.1783C16.2839 11.4909 15.86 11.6665 15.418 11.6665C14.9759 11.6665 14.552 11.4909 14.2395 11.1783C13.9269 10.8658 13.7513 10.4419 13.7513 9.99984C13.7513 9.55781 13.9269 9.13389 14.2395 8.82133C14.552 8.50877 14.9759 8.33317 15.418 8.33317ZM4.58464 2.9165C5.02666 2.9165 5.45059 3.0921 5.76315 3.40466C6.07571 3.71722 6.2513 4.14114 6.2513 4.58317C6.2513 5.0252 6.07571 5.44912 5.76315 5.76168C5.45059 6.07424 5.02666 6.24984 4.58464 6.24984C4.14261 6.24984 3.71868 6.07424 3.40612 5.76168C3.09356 5.44912 2.91797 5.0252 2.91797 4.58317C2.91797 4.14114 3.09356 3.71722 3.40612 3.40466C3.71868 3.0921 4.14261 2.9165 4.58464 2.9165ZM10.0013 2.9165C10.4433 2.9165 10.8673 3.0921 11.1798 3.40466C11.4924 3.71722 11.668 4.14114 11.668 4.58317C11.668 5.0252 11.4924 5.44912 11.1798 5.76168C10.8673 6.07424 10.4433 6.24984 10.0013 6.24984C9.55927 6.24984 9.13535 6.07424 8.82279 5.76168C8.51023 5.44912 8.33464 5.0252 8.33464 4.58317C8.33464 4.14114 8.51023 3.71722 8.82279 3.40466C9.13535 3.0921 9.55927 2.9165 10.0013 2.9165ZM15.418 2.9165C15.86 2.9165 16.2839 3.0921 16.5965 3.40466C16.909 3.71722 17.0846 4.14114 17.0846 4.58317C17.0846 5.0252 16.909 5.44912 16.5965 5.76168C16.2839 6.07424 15.86 6.24984 15.418 6.24984C14.9759 6.24984 14.552 6.07424 14.2395 5.76168C13.9269 5.44912 13.7513 5.0252 13.7513 4.58317C13.7513 4.14114 13.9269 3.71722 14.2395 3.40466C14.552 3.0921 14.9759 2.9165 15.418 2.9165Z" fill="#637381"/>
</svg>
