<svg width="18" height="18" viewBox="0 0 18 18" fill="none" xmlns="http://www.w3.org/2000/svg">
<path fill-rule="evenodd" clip-rule="evenodd" d="M8.99439 10.0564L13.2351 14.2974C13.3765 14.434 13.5658 14.5096 13.7624 14.5079C13.9589 14.5062 14.147 14.4273 14.2859 14.2883C14.4249 14.1493 14.5038 13.9613 14.5055 13.7647C14.5072 13.5681 14.4316 13.3788 14.2951 13.2374L10.0544 8.99638L14.2951 4.75537C14.4316 4.61398 14.5072 4.42461 14.5055 4.22804C14.5038 4.03147 14.4249 3.84344 14.2859 3.70444C14.147 3.56544 13.9589 3.4866 13.7624 3.48489C13.5658 3.48318 13.3765 3.55875 13.2351 3.69531L8.99439 7.93631L4.75369 3.69531C4.61167 3.56212 4.42341 3.48942 4.22874 3.49258C4.03407 3.49574 3.84827 3.57452 3.71065 3.71225C3.57303 3.84998 3.49439 4.03585 3.49136 4.23053C3.48834 4.42522 3.56117 4.61344 3.69445 4.75537L7.9344 8.99638L3.6937 13.2374C3.6221 13.3065 3.56499 13.3893 3.5257 13.4807C3.48642 13.5722 3.46574 13.6706 3.46487 13.7701C3.46401 13.8697 3.48297 13.9684 3.52067 14.0605C3.55836 14.1526 3.61402 14.2363 3.68441 14.3067C3.75479 14.3771 3.83849 14.4328 3.93062 14.4705C4.02275 14.5082 4.12146 14.5272 4.221 14.5263C4.32053 14.5254 4.4189 14.5047 4.51036 14.4654C4.60182 14.4262 4.68454 14.369 4.75369 14.2974L8.99439 10.0564Z" fill="white"/>
</svg>
