<svg width="32" height="32" viewBox="0 0 32 32" fill="none" xmlns="http://www.w3.org/2000/svg">
<path opacity="0.5" fill-rule="evenodd" clip-rule="evenodd" d="M18.666 29.3333H13.3327C8.30468 29.3333 5.79002 29.3333 4.22868 27.7706C2.66602 26.2093 2.66602 23.6946 2.66602 18.6666V13.3333C2.66602 8.30529 2.66602 5.79063 4.22868 4.22929C5.79002 2.66663 8.31802 2.66663 13.3727 2.66663C14.1807 2.66663 14.8273 2.66663 15.3727 2.68929C15.3553 2.79596 15.346 2.90396 15.346 3.01463L15.3327 6.79329C15.3327 8.25596 15.3327 9.54929 15.4727 10.5906C15.6247 11.72 15.9727 12.8493 16.8953 13.772C17.8153 14.692 18.946 15.0413 20.0753 15.1933C21.1167 15.3333 22.41 15.3333 23.8727 15.3333H29.2754C29.3327 16.0453 29.3327 16.92 29.3327 18.084V18.6666C29.3327 23.6946 29.3327 26.2093 27.77 27.7706C26.2087 29.3333 23.694 29.3333 18.666 29.3333Z" fill="#22C55E"/>
<path d="M14.0802 20.664C14.1736 20.567 14.2465 20.4522 14.2945 20.3263C14.3425 20.2004 14.3645 20.0662 14.3593 19.9316C14.3541 19.797 14.3218 19.6649 14.2643 19.5431C14.2068 19.4213 14.1252 19.3124 14.0246 19.2229C13.9239 19.1334 13.8063 19.0652 13.6786 19.0223C13.5509 18.9794 13.4159 18.9627 13.2816 18.9733C13.1474 18.9838 13.0166 19.0214 12.8972 19.0837C12.7778 19.1461 12.6723 19.2319 12.5869 19.336L9.77754 22.496L8.7482 21.336C8.5721 21.1376 8.3244 21.0173 8.0596 21.0016C7.7948 20.9858 7.53458 21.0759 7.3362 21.252C7.13782 21.4281 7.01752 21.6758 7.00177 21.9406C6.98601 22.2054 7.0761 22.4656 7.2522 22.664L9.03087 24.664C9.12468 24.7693 9.2397 24.8536 9.36839 24.9113C9.49707 24.969 9.63651 24.9988 9.77754 24.9988C9.91856 24.9988 10.058 24.969 10.1867 24.9113C10.3154 24.8536 10.4304 24.7693 10.5242 24.664L14.0802 20.664ZM15.3469 3.01334L15.3335 6.79334C15.3335 8.25601 15.3335 9.54801 15.4735 10.5907C15.6255 11.72 15.9735 12.8493 16.8962 13.7707C17.8162 14.692 18.9469 15.0413 20.0762 15.1933C21.1175 15.3333 22.4109 15.3333 23.8735 15.3333H29.2762C29.2935 15.54 29.3055 15.7613 29.3135 16H29.3335C29.3335 15.6427 29.3335 15.464 29.3202 15.2533C29.2175 13.9863 28.7764 12.7702 28.0429 11.732C27.9175 11.5613 27.8322 11.46 27.6629 11.256C26.6055 9.99201 25.2135 8.41601 24.0002 7.33334C22.9202 6.36801 21.4389 5.31334 20.1469 4.45067C19.0375 3.71067 18.4829 3.34001 17.7215 3.06401C17.5001 2.98521 17.2749 2.91713 17.0469 2.86001C16.5349 2.73334 16.0362 2.68934 15.3335 2.67334L15.3469 3.01334Z" fill="#22C55E"/>
</svg>
