<svg width="242" height="242" viewBox="0 0 242 242" fill="none" xmlns="http://www.w3.org/2000/svg">
<path d="M121 12.7764C61.2297 12.7764 12.7764 61.2297 12.7764 121C12.7764 156.995 30.349 188.885 57.3832 208.561L50.3197 218.283C29.7756 203.357 14.4841 182.31 6.63692 158.159C-1.21024 134.008 -1.21024 107.992 6.63692 83.8411C14.4841 59.69 29.7756 38.6431 50.3197 23.7169C70.8638 8.79075 95.6059 0.751552 121 0.751552V12.7764Z" fill="#00A76F" stroke="white" stroke-width="1.5"/>
<path d="M154.452 223.954C143.917 227.375 132.675 229.223 121 229.223C97.2246 229.223 75.2399 221.557 57.3832 208.561L50.3197 218.283C65.672 229.437 83.4461 236.799 102.189 239.768C120.932 242.736 140.111 241.227 158.159 235.363L154.452 223.954Z" fill="#FFAB00" stroke="white" stroke-width="1.5"/>
<path d="M208.561 184.617C195.267 202.883 176.397 216.829 154.452 223.954L158.159 235.363C182.31 227.516 203.357 212.224 218.283 191.68L208.561 184.617Z" fill="#FF5630" stroke="white" stroke-width="1.5"/>
<path d="M121 12.7764C180.77 12.7764 229.223 61.2297 229.223 121C229.223 144.775 221.557 166.76 208.561 184.617L218.283 191.68C231.318 173.739 239.138 152.543 240.878 130.434C242.617 108.326 238.21 86.1677 228.142 66.4083C218.074 46.6489 202.738 30.0585 183.829 18.4713C164.921 6.88415 143.176 0.751552 121 0.751552V12.7764Z" fill="#00B8D9" stroke="white" stroke-width="1.5"/>
</svg>
