<svg width="22" height="22" viewBox="0 0 22 22" fill="none" xmlns="http://www.w3.org/2000/svg">
<path opacity="0.32" d="M8.64436 3.23558C8.09083 2.59056 7.27151 2.23241 6.42845 2.29967C5.0816 2.40712 4.12946 2.55247 3.47941 2.68426C2.69714 2.84287 2.16779 3.46738 2.08402 4.26784C1.9654 5.40128 1.83398 7.44251 1.83398 10.9236C1.83398 14.4048 1.9654 16.4461 2.08402 17.5795C2.16779 18.3799 2.69633 19.0042 3.4786 19.1629C4.70421 19.4115 7.00435 19.7083 11.0007 19.7083C11.8523 19.7083 12.627 19.6948 13.3306 19.6712C13.3244 19.1951 13.3178 18.5986 13.3121 17.8615C13.0959 17.8538 12.9172 17.844 12.7759 17.8343C12.5463 17.8186 12.3757 17.6265 12.3757 17.3964V16.9786C12.3757 16.7485 12.5463 16.5564 12.7759 16.5407C12.9152 16.5312 13.0911 16.5214 13.3033 16.5139C13.3003 15.9541 13.2977 15.3353 13.2958 14.6525C13.087 14.645 12.9136 14.6354 12.7759 14.626C12.5463 14.6103 12.3757 14.4182 12.3757 14.188V13.7703C12.3757 13.5401 12.5463 13.3481 12.7759 13.3323C12.913 13.323 13.0855 13.3134 13.2932 13.3059C13.2926 12.8654 13.2923 12.4027 13.2923 11.9167L13.2924 11.4441C13.0851 11.4366 12.9129 11.427 12.7759 11.4177C12.5463 11.402 12.3757 11.2098 12.3757 10.9797V10.5619C12.3757 10.3318 12.5463 10.1397 12.7759 10.124C12.9132 10.1147 13.0858 10.1051 13.2938 10.0976C13.295 9.42326 13.2968 8.80396 13.299 8.23599C13.0887 8.22843 12.9143 8.21876 12.7759 8.20932C12.5463 8.19364 12.3757 8.00151 12.3757 7.77138V7.35361C12.3757 7.12348 12.5463 6.93139 12.7759 6.91567C12.9158 6.90614 13.0924 6.89638 13.3057 6.88881C13.3104 6.11066 13.316 5.4573 13.3217 4.91317H14.6379C14.6436 5.45551 14.6492 6.1063 14.6539 6.88102C14.9056 6.88726 15.0943 6.89752 15.2335 6.90834C15.4413 6.92452 15.584 7.09676 15.584 7.30516V7.81987C15.584 8.02828 15.4413 8.20052 15.2335 8.21665C15.0955 8.22738 14.909 8.2376 14.6606 8.24383C14.6629 8.80744 14.6647 9.42152 14.6658 10.0897C14.9116 10.0959 15.0965 10.106 15.2335 10.1167C15.4413 10.1329 15.584 10.3051 15.584 10.5135V11.0282C15.584 11.2366 15.4413 11.4089 15.2335 11.425C15.0968 11.4356 14.9123 11.4457 14.6672 11.452L14.6673 11.9167C14.6673 12.3997 14.667 12.8599 14.6664 13.298C14.9119 13.3042 15.0966 13.3144 15.2335 13.325C15.4413 13.3412 15.584 13.5134 15.584 13.7218V14.2365C15.584 14.4449 15.4413 14.6172 15.2335 14.6333C15.0961 14.644 14.9106 14.6542 14.6637 14.6604C14.6619 15.3368 14.6594 15.9505 14.6564 16.5061C14.9069 16.5123 15.0948 16.5226 15.2335 16.5333C15.4413 16.5495 15.584 16.7218 15.584 16.9302V17.4449C15.584 17.6533 15.4413 17.8255 15.2335 17.8417C15.0931 17.8526 14.9024 17.8629 14.6475 17.8692C14.642 18.5727 14.6358 19.1479 14.6298 19.6123C16.4886 19.5045 17.7303 19.3236 18.5227 19.1629C19.305 19.0042 19.8335 18.3799 19.9173 17.5795C20.0359 16.4461 20.1673 14.4048 20.1673 10.9236C20.1673 9.55987 20.1472 8.41707 20.1155 7.46323C20.0676 6.02053 18.8759 4.91315 17.4449 4.91315H10.9218C10.3897 4.91315 9.88388 4.67995 9.53563 4.27418L8.64436 3.23558Z" fill="#637381"/>
<path d="M14.6291 19.6124C14.2257 19.6358 13.7932 19.6557 13.33 19.6713C13.3237 19.1952 13.3172 18.5986 13.3114 17.8615C13.0953 17.8539 12.9165 17.844 12.7752 17.8344C12.5456 17.8187 12.375 17.6265 12.375 17.3964V16.9787C12.375 16.7485 12.5456 16.5564 12.7752 16.5407C12.9146 16.5312 13.0904 16.5215 13.3026 16.5139C13.2996 15.9541 13.2971 15.3353 13.2952 14.6526C13.0863 14.645 12.913 14.6354 12.7752 14.626C12.5456 14.6104 12.375 14.4182 12.375 14.1881V13.7703C12.375 13.5402 12.5456 13.3481 12.7752 13.3324C12.9124 13.323 13.0848 13.3134 13.2925 13.3059C13.292 12.8654 13.2917 12.4027 13.2917 11.9167L13.2918 11.4441C13.0844 11.4366 12.9123 11.427 12.7752 11.4177C12.5456 11.402 12.375 11.2099 12.375 10.9798V10.562C12.375 10.3319 12.5456 10.1398 12.7752 10.124C12.9125 10.1147 13.0852 10.1051 13.2932 10.0976C13.2943 9.4233 13.2961 8.804 13.2984 8.23603C13.0881 8.22847 12.9137 8.2188 12.7752 8.20936C12.5456 8.19368 12.375 8.00155 12.375 7.77142V7.35365C12.375 7.12352 12.5456 6.93143 12.7752 6.91571C12.9151 6.90618 13.0917 6.89642 13.305 6.88885C13.3098 6.1107 13.3153 5.45734 13.3211 4.91321H14.6372C14.643 5.45555 14.6485 6.10634 14.6532 6.88106C14.905 6.8873 15.0936 6.89756 15.2328 6.90838C15.4407 6.92456 15.5833 7.0968 15.5833 7.3052V7.81991C15.5833 8.02832 15.4407 8.20056 15.2328 8.21669C15.0949 8.22742 14.9083 8.23764 14.66 8.24387C14.6622 8.80748 14.664 9.42156 14.6652 10.0897C14.9109 10.096 15.0958 10.1061 15.2328 10.1167C15.4407 10.1329 15.5833 10.3051 15.5833 10.5135V11.0282C15.5833 11.2366 15.4407 11.4089 15.2328 11.425C15.0961 11.4357 14.9116 11.4458 14.6666 11.452L14.6667 11.9167C14.6667 12.3998 14.6663 12.8599 14.6658 13.298C14.9112 13.3043 15.096 13.3144 15.2328 13.325C15.4407 13.3412 15.5833 13.5135 15.5833 13.7219V14.2366C15.5833 14.445 15.4407 14.6172 15.2328 14.6334C15.0955 14.644 14.9099 14.6542 14.6631 14.6604C14.6612 15.3369 14.6587 15.9505 14.6558 16.5062C14.9062 16.5123 15.0941 16.5226 15.2328 16.5334C15.4407 16.5496 15.5833 16.7218 15.5833 16.9302V17.4449C15.5833 17.6533 15.4407 17.8256 15.2328 17.8417C15.0925 17.8526 14.9018 17.863 14.6469 17.8692C14.6413 18.5727 14.6352 19.1479 14.6291 19.6124Z" fill="#637381"/>
</svg>
