<svg width="16" height="16" viewBox="0 0 16 16" fill="none" xmlns="http://www.w3.org/2000/svg">
<path d="M13.9999 7.99999C13.9999 7.6318 13.7014 7.33333 13.3332 7.33333C12.965 7.33333 12.6665 7.6318 12.6665 7.99999V9.53333L9.83987 6.19999C9.62919 5.95374 9.27194 5.89467 8.9932 6.05999L6.14653 7.79999L3.17987 4.23999C3.02743 4.0566 2.78874 3.96845 2.55369 4.00877C2.31865 4.04908 2.12297 4.21172 2.04036 4.43543C1.95775 4.65914 2.00077 4.90993 2.1532 5.09333L5.48653 9.09333C5.69621 9.34541 6.05806 9.4076 6.33987 9.23999L9.1932 7.52666L11.8599 10.6667H9.99987C9.63168 10.6667 9.3332 10.9651 9.3332 11.3333C9.3332 11.7015 9.63168 12 9.99987 12H13.3332C13.4152 11.998 13.4964 11.9822 13.5732 11.9533L13.6665 11.9C13.7013 11.8825 13.7347 11.8624 13.7665 11.84C13.8031 11.807 13.8345 11.7688 13.8599 11.7267C13.8822 11.6971 13.9023 11.6659 13.9199 11.6333C13.9362 11.5973 13.9474 11.5591 13.9532 11.52C13.9802 11.4612 13.9961 11.3979 13.9999 11.3333V7.99999Z" fill="#FF5630"/>
</svg>
