<svg width="22" height="22" viewBox="0 0 22 22" fill="none" xmlns="http://www.w3.org/2000/svg">
<g opacity="0.32">
<path d="M11.0007 9.85414C15.3125 9.85414 17.8548 9.76073 19.1297 9.69321C19.7197 9.66196 20.1673 9.17369 20.1673 8.58281V7.51141C20.1673 7.09919 20.0345 6.69475 19.7425 6.40371C18.0299 4.69651 14.0941 2.49628 11.4269 1.91406C11.1451 1.85254 10.8562 1.85254 10.5744 1.91406C7.90722 2.49628 3.97138 4.69651 2.25876 6.40371C1.9668 6.69475 1.83398 7.09919 1.83398 7.51141V8.58281C1.83398 9.17369 2.28159 9.66196 2.87161 9.69321C4.14647 9.76073 6.68879 9.85414 11.0007 9.85414Z" fill="#212B36"/>
<path d="M1.99779 17.1679C2.1169 16.8221 2.46307 16.6649 2.8282 16.6442C3.77651 16.5903 6.09804 16.5 11.0007 16.5C15.9033 16.5 18.2248 16.5903 19.1731 16.6442C19.5382 16.6649 19.8844 16.8221 20.0035 17.1679C20.0917 17.4241 20.1673 17.7993 20.1673 18.3333C20.1673 18.8673 20.0917 19.2425 20.0035 19.4987C19.8844 19.8445 19.5382 20.0017 19.1731 20.0224C18.2248 20.0763 15.9033 20.1666 11.0007 20.1666C6.09804 20.1666 3.77651 20.0763 2.8282 20.0224C2.46307 20.0017 2.1169 19.8445 1.99779 19.4987C1.90955 19.2425 1.83398 18.8673 1.83398 18.3333C1.83398 17.7993 1.90955 17.4241 1.99779 17.1679Z" fill="#212B36"/>
</g>
<path d="M10.9993 8.25004C12.0119 8.25004 12.8327 7.42923 12.8327 6.41671C12.8327 5.40419 12.0119 4.58337 10.9993 4.58337C9.98683 4.58337 9.16602 5.40419 9.16602 6.41671C9.16602 7.42923 9.98683 8.25004 10.9993 8.25004Z" fill="#212B36"/>
<path d="M12.7838 9.84852C12.226 9.85216 11.6317 9.85417 10.9993 9.85417C10.367 9.85417 9.77268 9.85216 9.21485 9.84852C9.19143 10.4455 9.16602 11.5052 9.16602 13.2917C9.16602 14.8679 9.1858 15.8783 9.20654 16.5044C9.76185 16.5016 10.3586 16.5 10.9993 16.5C11.6401 16.5 12.2369 16.5016 12.7922 16.5044C12.8129 15.8783 12.8327 14.8679 12.8327 13.2917C12.8327 11.5052 12.8073 10.4455 12.7838 9.84852Z" fill="#212B36"/>
<path d="M14.7157 9.82782C14.692 10.4209 14.666 11.4844 14.666 13.2917C14.666 14.8815 14.6861 15.8957 14.7071 16.5205C16.3589 16.5406 17.5097 16.5726 18.2888 16.603C18.3107 15.9863 18.3327 14.9535 18.3327 13.2917C18.3327 11.3836 18.3037 10.3047 18.2791 9.73297C17.4271 9.76821 16.2581 9.8043 14.7157 9.82782Z" fill="#212B36"/>
<path d="M3.7196 9.73297C4.57157 9.76821 5.74057 9.8043 7.28303 9.82782C7.30668 10.4209 7.33268 11.4844 7.33268 13.2917C7.33268 14.8815 7.31256 15.8957 7.29162 16.5205C5.63982 16.5406 4.48899 16.5726 3.70993 16.603C3.68802 15.9863 3.66602 14.9535 3.66602 13.2917C3.66602 11.3836 3.69502 10.3047 3.7196 9.73297Z" fill="#212B36"/>
</svg>
