<svg width="20" height="20" viewBox="0 0 20 20" fill="none" xmlns="http://www.w3.org/2000/svg">
<path fill-rule="evenodd" clip-rule="evenodd" d="M5.83268 1.66675C3.5315 1.66675 1.66602 3.53223 1.66602 5.83342V14.1667C1.66602 16.4679 3.5315 18.3334 5.83268 18.3334H14.166C16.4672 18.3334 18.3327 16.4679 18.3327 14.1667V5.83342C18.3327 3.53223 16.4672 1.66675 14.166 1.66675H5.83268ZM6.24935 2.91675C4.4084 2.91675 2.91602 4.40913 2.91602 6.25008V13.7501C2.91602 15.591 4.4084 17.0834 6.24935 17.0834H13.7493C15.5903 17.0834 17.0827 15.591 17.0827 13.7501V6.25008C17.0827 4.40913 15.5903 2.91675 13.7493 2.91675H6.24935Z" fill="#637381"/>
</svg>
