<svg width="26" height="21" viewBox="0 0 26 21" fill="none" xmlns="http://www.w3.org/2000/svg">
<path d="M12.5033 12.1175C13.4325 12.1907 14.4015 11.5257 14.6675 10.6324C14.9334 9.73902 14.3958 8.95552 13.4665 8.88238C12.5373 8.80925 11.5683 9.47418 11.3024 10.3675C11.0364 11.2609 11.5741 12.0444 12.5033 12.1175Z" fill="#637381"/>
<path d="M18.3922 12.581C19.3215 12.6541 20.2904 11.9892 20.5564 11.0958C20.8224 10.2025 20.2847 9.41898 19.3554 9.34585C18.4262 9.27272 17.4573 9.93765 17.1913 10.831C16.9253 11.7244 17.463 12.5079 18.3922 12.581Z" fill="#637381"/>
<path d="M6.61439 11.6541C7.54363 11.7272 8.51256 11.0623 8.77854 10.1689C9.04452 9.27555 8.50684 8.49205 7.5776 8.41892C6.64835 8.34578 5.67943 9.01071 5.41345 9.90407C5.14746 10.7974 5.68514 11.5809 6.61439 11.6541Z" fill="#637381"/>
</svg>
