<svg width="22" height="22" viewBox="0 0 22 22" fill="none" xmlns="http://www.w3.org/2000/svg">
<path opacity="0.32" fill-rule="evenodd" clip-rule="evenodd" d="M16.2755 2.1091C15.9055 1.93761 15.6904 1.91512 15.6409 1.91217C14.4517 1.86524 12.9324 1.83337 10.9987 1.83337C7.08027 1.83337 4.86304 1.96423 3.64769 2.0861C2.78643 2.17247 2.17113 2.78778 2.08476 3.64903C1.96289 4.86438 1.83203 7.08161 1.83203 11C1.83203 15.2577 1.98653 17.9704 2.11612 19.4969C2.17602 20.2025 2.97459 20.5132 3.51856 20.0599L5.04036 18.7917L6.29354 20.0449C6.62381 20.3752 7.14961 20.4043 7.51436 20.1125L9.16536 18.7917L10.3505 19.9769C10.7085 20.3348 11.2889 20.3348 11.6469 19.9769L12.832 18.7917L14.483 20.1125C14.8478 20.4043 15.3736 20.3752 15.7039 20.0449L16.957 18.7917L18.4788 20.0599C19.0228 20.5132 19.8214 20.2025 19.8813 19.4969C20.0109 17.9704 20.1654 15.2577 20.1654 11C20.1654 9.05019 20.133 7.52154 20.0854 6.32799C19.6844 6.3773 19.1177 6.41712 18.3329 6.41712C17.7559 6.41712 17.2968 6.39558 16.9347 6.36459C16.1463 6.29708 15.6341 5.69433 15.6038 4.90366C15.5913 4.57646 15.5829 4.16973 15.5829 3.66712C15.5829 2.85452 15.6048 2.29255 15.6307 1.91215C15.6307 1.91215 15.851 1.91253 16.2755 2.1091ZM10.6869 13.995C11.1858 13.995 11.5461 13.9107 11.7679 13.742C11.9988 13.5733 12.1143 13.3666 12.1143 13.1221C12.1143 12.9028 12.0266 12.7257 11.851 12.5907C11.6755 12.4558 11.4122 12.3376 11.0611 12.2364L10.2988 12.0087C9.92001 11.8991 9.57814 11.781 9.27326 11.6545C8.96837 11.5279 8.70969 11.3761 8.49716 11.199C8.28468 11.0219 8.11835 10.811 7.99826 10.5665C7.87814 10.3218 7.81809 10.0308 7.81809 9.69347C7.81809 9.11991 8.01211 8.64338 8.40018 8.26383C8.7882 7.88429 9.34256 7.63124 10.0632 7.50474V7.14491C10.0632 6.77072 10.3224 6.43632 10.6963 6.41987C10.7443 6.41776 10.792 6.41671 10.8393 6.41671C11.1812 6.41671 11.426 6.47152 11.5739 6.58116C11.7309 6.69083 11.8094 6.88902 11.8094 7.1758V7.45414C12.4007 7.51318 12.8812 7.64389 13.2508 7.84634C13.6203 8.04031 13.8051 8.29757 13.8051 8.61808C13.8051 8.76085 13.7674 8.89303 13.702 9.01298C13.5282 9.33198 13.0943 9.30847 12.7501 9.19228C12.6517 9.15905 12.546 9.12793 12.4331 9.09883C12.082 8.99763 11.6986 8.94703 11.2828 8.94703C10.8209 8.94703 10.4744 9.01871 10.2434 9.16212C10.0216 9.29706 9.91075 9.47416 9.91075 9.69347C9.91075 9.87061 9.98468 10.014 10.1325 10.1236C10.2896 10.2333 10.5252 10.3345 10.8393 10.4273L11.6154 10.6424C12.4469 10.8785 13.0845 11.1906 13.528 11.5785C13.9807 11.9665 14.207 12.4895 14.207 13.1474C14.207 13.7293 14.0038 14.2228 13.5972 14.6276C13.1907 15.024 12.5948 15.2897 11.8094 15.4247V15.7718C11.8094 16.1461 11.5502 16.4805 11.1764 16.4969C11.1284 16.499 11.0806 16.5 11.0333 16.5C10.6915 16.5 10.4421 16.4452 10.285 16.3356C10.1371 16.2259 10.0632 16.0277 10.0632 15.7409V15.4879C9.38876 15.4204 8.83903 15.2729 8.41402 15.0451C7.99827 14.8089 7.79036 14.5137 7.79036 14.1595C7.79036 13.9526 7.86979 13.7729 7.99721 13.6218C8.22532 13.3514 8.6315 13.4184 8.94578 13.5809C9.07984 13.6502 9.22596 13.7165 9.38413 13.7799C9.76294 13.9233 10.1972 13.995 10.6869 13.995Z" fill="#637381"/>
<path d="M20.086 6.32784C19.6849 6.3772 19.118 6.41708 18.3327 6.41708C17.7556 6.41708 17.2965 6.39553 16.9344 6.36455C16.1461 6.29704 15.6339 5.69429 15.6036 4.90361C15.5911 4.57641 15.5827 4.16969 15.5827 3.66708C15.5827 2.85448 15.6046 2.29251 15.6305 1.91211C15.6305 1.91211 16.5793 1.91375 18.3327 3.66708C20.086 5.42043 20.086 6.32784 20.086 6.32784Z" fill="#637381"/>
<path d="M10.6875 13.995C11.1864 13.995 11.5468 13.9106 11.7685 13.7419C11.9995 13.5733 12.115 13.3666 12.115 13.122C12.115 12.9027 12.0272 12.7256 11.8517 12.5906C11.6761 12.4557 11.4128 12.3376 11.0617 12.2364L10.2995 12.0087C9.92066 11.899 9.57879 11.781 9.27391 11.6545C8.96902 11.5279 8.71034 11.3761 8.49781 11.199C8.28533 11.0219 8.119 10.811 7.99892 10.5664C7.87879 10.3218 7.81874 10.0308 7.81874 9.69343C7.81874 9.11987 8.01276 8.64334 8.40083 8.26379C8.78885 7.88425 9.34321 7.6312 10.0639 7.5047V7.14486C10.0639 6.77068 10.3231 6.43628 10.6969 6.41983C10.7449 6.41772 10.7927 6.41666 10.84 6.41666C11.1818 6.41666 11.4267 6.47148 11.5745 6.58111C11.7316 6.69079 11.8101 6.88898 11.8101 7.17576V7.4541C12.4014 7.51313 12.8819 7.64385 13.2514 7.8463C13.621 8.04026 13.8058 8.29753 13.8058 8.61804C13.8058 8.76081 13.768 8.89299 13.7027 9.01294C13.5288 9.33194 13.0949 9.30843 12.7507 9.19224C12.6523 9.15901 12.5467 9.12789 12.4337 9.09878C12.0827 8.99758 11.6992 8.94699 11.2835 8.94699C10.8215 8.94699 10.475 9.01867 10.2441 9.16208C10.0223 9.29701 9.9114 9.47411 9.9114 9.69343C9.9114 9.87057 9.98533 10.0139 10.1332 10.1236C10.2902 10.2333 10.5258 10.3345 10.84 10.4272L11.6161 10.6423C12.4476 10.8784 13.0851 11.1905 13.5286 11.5785C13.9813 11.9665 14.2077 12.4894 14.2077 13.1473C14.2077 13.7293 14.0044 14.2227 13.5979 14.6276C13.1914 15.024 12.5954 15.2897 11.8101 15.4246V15.7718C11.8101 16.146 11.5509 16.4804 11.177 16.4968C11.1291 16.4989 11.0813 16.5 11.034 16.5C10.6921 16.5 10.4427 16.4452 10.2856 16.3355C10.1378 16.2259 10.0639 16.0277 10.0639 15.7409V15.4879C9.38941 15.4204 8.83968 15.2728 8.41467 15.0451C7.99892 14.8089 7.79102 14.5137 7.79102 14.1594C7.79102 13.9525 7.87044 13.7729 7.99786 13.6218C8.22597 13.3513 8.63215 13.4184 8.94643 13.5809C9.08049 13.6502 9.22661 13.7165 9.38478 13.7799C9.76359 13.9233 10.1979 13.995 10.6875 13.995Z" fill="#637381"/>
</svg>
