<svg width="22" height="22" viewBox="0 0 22 22" fill="none" xmlns="http://www.w3.org/2000/svg">
<path opacity="0.32" d="M2.09156 18.0194C2.17284 18.8065 2.68887 19.4295 3.46279 19.5942C4.68436 19.8543 6.98712 20.1667 11.0007 20.1667C15.0142 20.1667 17.3169 19.8543 18.5385 19.5942C19.3124 19.4295 19.8285 18.8065 19.9097 18.0194C20.0303 16.8524 20.1673 14.7097 20.1673 11C20.1673 7.29034 20.0303 5.14767 19.9097 3.98067C19.8285 3.1936 19.3124 2.57059 18.5385 2.40584C17.3169 2.14578 15.0142 1.83337 11.0007 1.83337C6.98712 1.83337 4.68436 2.14578 3.46279 2.40584C2.68887 2.57059 2.17284 3.1936 2.09156 3.98067C1.97104 5.14767 1.83398 7.29034 1.83398 11C1.83398 14.7097 1.97104 16.8524 2.09156 18.0194Z" fill="#637381"/>
<path d="M12.7773 12.7012C13.9917 12.0617 14.8197 10.7873 14.8197 9.31943C14.8197 7.21004 13.1097 5.5 11.0002 5.5C8.89086 5.5 7.18082 7.21004 7.18082 9.31943C7.18082 10.7873 8.00889 12.0619 9.22338 12.7013C7.59698 13.321 6.35513 14.7668 5.97045 16.5485C5.91724 16.7951 6.05291 17.0482 6.30128 17.0932C7.19264 17.2545 8.6688 17.4167 11.0012 17.4167C13.3336 17.4167 14.8097 17.2545 15.7011 17.0932C15.9486 17.0484 16.0839 16.7962 16.0309 16.5505C15.6467 14.7678 14.4045 13.321 12.7773 12.7012Z" fill="#637381"/>
</svg>
