<svg width="14" height="14" viewBox="0 0 14 14" fill="none" xmlns="http://www.w3.org/2000/svg">
<path d="M3.69275 10.1346C3.69275 10.4545 3.95388 10.7157 4.27517 10.7157H4.94099V12.3618C4.94099 12.7788 5.27595 13.1192 5.68748 13.1192C6.10037 13.1192 6.43396 12.7801 6.43396 12.3618V10.7143H7.59607V12.3604C7.59607 12.7774 7.93103 13.1178 8.34255 13.1178C8.75544 13.1178 9.08904 12.7788 9.08904 12.3604V10.7143H9.75486C10.0761 10.7143 10.3373 10.4532 10.3373 10.1333V4.73014H3.69275V10.1346ZM8.57498 1.93014L9.18884 1.04146C9.22439 0.98951 9.21619 0.919783 9.16833 0.885604C9.12048 0.852791 9.05212 0.869198 9.01658 0.921151L8.37947 1.84537C7.95974 1.67994 7.49216 1.58834 7.00134 1.58834C6.51052 1.58834 6.04294 1.67994 5.62322 1.84537L4.98611 0.922518C4.95056 0.870565 4.8822 0.852791 4.83435 0.886971C4.7865 0.919784 4.7783 0.988143 4.81384 1.04283L5.42771 1.9315C4.45154 2.38541 3.76794 3.24537 3.68044 4.25025H10.325C10.2347 3.244 9.54978 2.38404 8.57498 1.93014ZM5.59861 3.3315C5.52587 3.3315 5.45476 3.30993 5.39428 3.26952C5.3338 3.22911 5.28667 3.17167 5.25883 3.10447C5.23099 3.03727 5.22371 2.96332 5.2379 2.89198C5.25209 2.82064 5.28712 2.75511 5.33855 2.70367C5.38999 2.65224 5.45552 2.61721 5.52686 2.60302C5.5982 2.58883 5.67215 2.59611 5.73935 2.62395C5.80655 2.65179 5.86399 2.69892 5.9044 2.7594C5.94481 2.81988 5.96638 2.89099 5.96638 2.96373C5.96613 3.06119 5.9273 3.15459 5.85838 3.2235C5.78947 3.29242 5.69607 3.33125 5.59861 3.3315ZM8.44783 3.3315C8.37509 3.3315 8.30398 3.30993 8.2435 3.26952C8.18302 3.22911 8.13588 3.17167 8.10805 3.10447C8.08021 3.03727 8.07293 2.96332 8.08712 2.89198C8.10131 2.82064 8.13634 2.75511 8.18777 2.70367C8.23921 2.65224 8.30474 2.61721 8.37608 2.60302C8.44742 2.58883 8.52137 2.59611 8.58857 2.62395C8.65577 2.65179 8.71321 2.69892 8.75362 2.7594C8.79403 2.81988 8.8156 2.89099 8.8156 2.96373C8.81535 3.06119 8.77652 3.15459 8.7076 3.2235C8.63869 3.29242 8.54529 3.33125 8.44783 3.3315ZM11.5021 4.70826C11.0892 4.70826 10.7556 5.04732 10.7556 5.46568V8.42428C10.7556 8.84127 11.0906 9.1817 11.5021 9.1817C11.915 9.1817 12.2486 8.84264 12.2486 8.42428V5.46432C12.25 5.04596 11.9164 4.70826 11.5021 4.70826ZM2.49783 4.70826C2.08494 4.70826 1.75134 5.04732 1.75134 5.46568V8.42428C1.75134 8.84127 2.0863 9.1817 2.49783 9.1817C2.91072 9.1817 3.24431 8.84264 3.24431 8.42428V5.46432C3.24431 5.04596 2.90935 4.70826 2.49783 4.70826Z" fill="#919EAB"/>
</svg>
