<svg width="20" height="20" viewBox="0 0 20 20" fill="none" xmlns="http://www.w3.org/2000/svg">
<path d="M16.6667 9.15837C16.4457 9.15837 16.2337 9.24616 16.0774 9.40244C15.9211 9.55872 15.8333 9.77069 15.8333 9.9917V14.9917C15.8333 15.2127 15.7455 15.4247 15.5893 15.581C15.433 15.7372 15.221 15.825 15 15.825H5C4.77899 15.825 4.56702 15.7372 4.41074 15.581C4.25446 15.4247 4.16667 15.2127 4.16667 14.9917V4.9917C4.16667 4.77069 4.25446 4.55872 4.41074 4.40244C4.56702 4.24616 4.77899 4.15837 5 4.15837H10C10.221 4.15837 10.433 4.07057 10.5893 3.91429C10.7455 3.75801 10.8333 3.54605 10.8333 3.32503C10.8333 3.10402 10.7455 2.89206 10.5893 2.73578C10.433 2.5795 10.221 2.4917 10 2.4917H5C4.33696 2.4917 3.70107 2.75509 3.23223 3.22393C2.76339 3.69277 2.5 4.32866 2.5 4.9917V14.9917C2.5 15.6547 2.76339 16.2906 3.23223 16.7595C3.70107 17.2283 4.33696 17.4917 5 17.4917H15C15.663 17.4917 16.2989 17.2283 16.7678 16.7595C17.2366 16.2906 17.5 15.6547 17.5 14.9917V9.9917C17.5 9.77069 17.4122 9.55872 17.2559 9.40244C17.0996 9.24616 16.8877 9.15837 16.6667 9.15837Z" fill="#637381"/>
<path d="M13.3333 4.15837H14.65L9.40833 9.3917C9.33023 9.46917 9.26823 9.56134 9.22592 9.66288C9.18362 9.76443 9.16183 9.87336 9.16183 9.98337C9.16183 10.0934 9.18362 10.2023 9.22592 10.3038C9.26823 10.4054 9.33023 10.4976 9.40833 10.575C9.4858 10.6531 9.57797 10.7151 9.67952 10.7574C9.78107 10.7997 9.88999 10.8215 10 10.8215C10.11 10.8215 10.2189 10.7997 10.3205 10.7574C10.422 10.7151 10.5142 10.6531 10.5917 10.575L15.8333 5.3417V6.65837C15.8333 6.87938 15.9211 7.09134 16.0774 7.24762C16.2337 7.4039 16.4457 7.4917 16.6667 7.4917C16.8877 7.4917 17.0996 7.4039 17.2559 7.24762C17.4122 7.09134 17.5 6.87938 17.5 6.65837V3.32503C17.5 3.10402 17.4122 2.89206 17.2559 2.73578C17.0996 2.5795 16.8877 2.4917 16.6667 2.4917H13.3333C13.1123 2.4917 12.9004 2.5795 12.7441 2.73578C12.5878 2.89206 12.5 3.10402 12.5 3.32503C12.5 3.54605 12.5878 3.75801 12.7441 3.91429C12.9004 4.07057 13.1123 4.15837 13.3333 4.15837Z" fill="#637381"/>
</svg>
