<svg width="24" height="24" viewBox="0 0 24 24" fill="none" xmlns="http://www.w3.org/2000/svg">
<path d="M11.703 6.5802H7.88428V20.1987H4.75506V6.5802H1V3.82501H11.703V6.5802Z" fill="#006C9C"/>
<path d="M19.8496 15.9029C19.8496 15.2356 19.6869 14.7333 19.3616 14.3959C19.0434 14.0511 18.46 13.695 17.6114 13.3276C16.0627 12.7053 14.9489 11.9781 14.27 11.1459C13.5911 10.3063 13.2517 9.31665 13.2517 8.17709C13.2517 6.79762 13.7113 5.69179 14.6307 4.85961C15.5571 4.01994 16.731 3.6001 18.1524 3.6001C19.1 3.6001 19.945 3.81377 20.6876 4.2411C21.4301 4.66094 21.9994 5.25696 22.3954 6.02916C22.7985 6.80137 23 7.67853 23 8.66065H19.892C19.892 7.89595 19.7364 7.31492 19.4253 6.91757C19.1212 6.51273 18.6792 6.31031 18.0993 6.31031C17.5548 6.31031 17.1305 6.48274 16.8264 6.82761C16.5223 7.16498 16.3703 7.6223 16.3703 8.19958C16.3703 8.64941 16.54 9.058 16.8795 9.42536C17.2189 9.78522 17.82 10.1601 18.6827 10.5499C20.189 11.1272 21.2816 11.8357 21.9605 12.6754C22.6464 13.515 22.9894 14.5834 22.9894 15.8804C22.9894 17.3048 22.5616 18.4181 21.7059 19.2203C20.8502 20.0225 19.6869 20.4236 18.216 20.4236C17.2189 20.4236 16.3102 20.2062 15.4899 19.7714C14.6696 19.3365 14.026 18.7143 13.5593 17.9046C13.0996 17.0949 12.8698 16.139 12.8698 15.037H15.999C15.999 15.9816 16.1723 16.6676 16.5188 17.0949C16.8653 17.5222 17.4311 17.7359 18.216 17.7359C19.305 17.7359 19.8496 17.1249 19.8496 15.9029Z" fill="#006C9C"/>
</svg>
