<svg width="132" height="132" viewBox="0 0 132 132" fill="none" xmlns="http://www.w3.org/2000/svg">
<path opacity="0.48" d="M18.4805 39.5999C18.4805 35.2258 22.0264 31.6799 26.4005 31.6799H105.6C109.975 31.6799 113.52 35.2258 113.52 39.5999V47.5199H18.4805V39.5999Z" fill="#919EAB"/>
<path opacity="0.24" d="M18.4805 47.52V92.4C18.4805 96.7741 22.0264 100.32 26.4005 100.32H105.6C109.975 100.32 113.52 96.7741 113.52 92.4V47.52H18.4805Z" fill="#919EAB"/>
<g opacity="0.48">
<path d="M26.4004 62.7C26.4004 60.5129 28.1733 58.74 30.3604 58.74H46.2004C48.3874 58.74 50.1604 60.5129 50.1604 62.7V67.98C50.1604 70.167 48.3874 71.94 46.2004 71.94H30.3604C28.1733 71.94 26.4004 70.167 26.4004 67.98V62.7Z" fill="#919EAB"/>
<path d="M54.1204 62.7C54.1204 60.5129 55.8933 58.74 58.0804 58.74H101.64C103.827 58.74 105.6 60.5129 105.6 62.7V67.98C105.6 70.167 103.827 71.94 101.64 71.94H58.0804C55.8933 71.94 54.1204 70.167 54.1204 67.98V62.7Z" fill="#919EAB"/>
</g>
<g opacity="0.24">
<path d="M26.4004 79.8599C26.4004 77.6729 28.1733 75.8999 30.3604 75.8999H46.2004C48.3874 75.8999 50.1604 77.6729 50.1604 79.8599V85.1399C50.1604 87.3269 48.3874 89.0999 46.2004 89.0999H30.3604C28.1733 89.0999 26.4004 87.3269 26.4004 85.1399V79.8599Z" fill="#919EAB"/>
<path d="M54.1204 79.8599C54.1204 77.6729 55.8933 75.8999 58.0804 75.8999H101.64C103.827 75.8999 105.6 77.6729 105.6 79.8599V85.1399C105.6 87.3269 103.827 89.0999 101.64 89.0999H58.0804C55.8933 89.0999 54.1204 87.3269 54.1204 85.1399V79.8599Z" fill="#919EAB"/>
</g>
</svg>
