<svg width="36" height="36" viewBox="0 0 36 36" fill="none" xmlns="http://www.w3.org/2000/svg">
<path d="M20.7712 0C21.3014 0 21.8099 0.210507 22.1849 0.585255L32.7129 11.1053C33.0883 11.4805 33.2992 11.9894 33.2992 12.5201V31.8C33.2992 34.1196 31.3812 36 29.0152 36H6.98322C4.61723 36 2.69922 34.1196 2.69922 31.8L2.69922 4.2C2.69922 1.8804 4.61723 0 6.98322 0L20.7712 0Z" fill="#4586F9"/>
<g filter="url(#filter0_d_0_28877)">
<path d="M31.5533 10.8393C31.8663 11.1549 31.6427 11.6914 31.1983 11.6914H26.0984C23.7788 11.6914 21.6863 9.65113 21.6863 7.38947V2.10552C21.6863 1.65908 22.2269 1.43645 22.5413 1.75341L31.5533 10.8393Z" fill="white" fill-opacity="0.24" shape-rendering="crispEdges"/>
</g>
<defs>
<filter id="filter0_d_0_28877" x="19.6875" y="1.60449" width="14.0117" height="14.0869" filterUnits="userSpaceOnUse" color-interpolation-filters="sRGB">
<feFlood flood-opacity="0" result="BackgroundImageFix"/>
<feColorMatrix in="SourceAlpha" type="matrix" values="0 0 0 0 0 0 0 0 0 0 0 0 0 0 0 0 0 0 127 0" result="hardAlpha"/>
<feOffset dy="2"/>
<feGaussianBlur stdDeviation="1"/>
<feComposite in2="hardAlpha" operator="out"/>
<feColorMatrix type="matrix" values="0 0 0 0 0 0 0 0 0 0 0 0 0 0 0 0 0 0 0.04 0"/>
<feBlend mode="normal" in2="BackgroundImageFix" result="effect1_dropShadow_0_28877"/>
<feBlend mode="normal" in="SourceGraphic" in2="effect1_dropShadow_0_28877" result="shape"/>
</filter>
</defs>
</svg>
