<svg width="16" height="16" viewBox="0 0 16 16" fill="none" xmlns="http://www.w3.org/2000/svg">
<path d="M6.0026 6.66671C7.47536 6.66671 8.66927 5.4728 8.66927 4.00004C8.66927 2.52728 7.47536 1.33337 6.0026 1.33337C4.52985 1.33337 3.33594 2.52728 3.33594 4.00004C3.33594 5.4728 4.52985 6.66671 6.0026 6.66671Z" fill="#00A76F"/>
<path d="M6.0026 14.0007C8.57993 14.0007 10.6693 12.8068 10.6693 11.334C10.6693 9.86128 8.57993 8.66737 6.0026 8.66737C3.42528 8.66737 1.33594 9.86128 1.33594 11.334C1.33594 12.8068 3.42528 14.0007 6.0026 14.0007Z" fill="#00A76F"/>
<path d="M14.0019 11.3334C14.0019 12.438 12.6446 13.3334 10.9879 13.3334C11.4759 12.8 11.8119 12.13 11.8119 11.3347C11.8119 10.538 11.4753 9.86804 10.9859 9.33404C12.6433 9.33337 14.0019 10.2294 14.0019 11.3334ZM12.0019 4.00004C12.0022 4.32185 11.9247 4.63896 11.7762 4.92445C11.6277 5.20993 11.4124 5.45536 11.1488 5.63989C10.8851 5.82442 10.5809 5.94261 10.2618 5.98442C9.94269 6.02623 9.61823 5.99042 9.31594 5.88004C9.64162 5.30707 9.81234 4.6591 9.81127 4.00004C9.81127 3.31671 9.63127 2.67537 9.3166 2.12071C9.61885 2.01046 9.94324 1.97476 10.2622 2.01663C10.5812 2.05851 10.8854 2.17672 11.149 2.36123C11.4125 2.54575 11.6277 2.79113 11.7762 3.07654C11.9247 3.36195 12.0021 3.67831 12.0019 4.00004Z" fill="#00A76F"/>
</svg>
