<svg width="24" height="24" viewBox="0 0 24 24" fill="none" xmlns="http://www.w3.org/2000/svg">
<path d="M12.6501 10.0001C12.1676 8.62984 11.2042 7.48128 9.93891 6.76769C8.67358 6.0541 7.19226 5.82398 5.77008 6.12005C3.48008 6.58005 1.62008 8.41005 1.14008 10.7001C0.94656 11.5772 0.952231 12.4865 1.15667 13.3611C1.36112 14.2357 1.75912 15.0534 2.32139 15.7538C2.88366 16.4542 3.59587 17.0196 4.40558 17.4084C5.21529 17.7971 6.10188 17.9993 7.00008 18.0001C8.24002 18.0001 9.44942 17.6154 10.4614 16.8989C11.4734 16.1824 12.2381 15.1696 12.6501 14.0001H17.0001V16.0001C17.0001 17.1001 17.9001 18.0001 19.0001 18.0001C20.1001 18.0001 21.0001 17.1001 21.0001 16.0001V14.0001C22.1001 14.0001 23.0001 13.1001 23.0001 12.0001C23.0001 10.9001 22.1001 10.0001 21.0001 10.0001H12.6501ZM7.00008 14.0001C5.90008 14.0001 5.00008 13.1001 5.00008 12.0001C5.00008 10.9001 5.90008 10.0001 7.00008 10.0001C8.10008 10.0001 9.00008 10.9001 9.00008 12.0001C9.00008 13.1001 8.10008 14.0001 7.00008 14.0001Z" fill="#212B36"/>
</svg>
