<svg width="20" height="20" viewBox="0 0 20 20" fill="none" xmlns="http://www.w3.org/2000/svg">
<path d="M18.25 9.99998C18.25 9.90832 18.2 9.81665 18.175 9.72498C18.1364 9.56327 18.0863 9.40453 18.025 9.24998C17.9833 9.14998 17.925 9.04998 17.875 8.94165C17.825 8.83332 17.75 8.69165 17.675 8.57498C17.6 8.45832 17.5 8.39998 17.5 8.33332C17.5 8.26665 17.3333 8.12498 17.2417 8.02498C17.15 7.92498 17.0667 7.85832 16.975 7.77498L16.6667 7.49998L16.3667 7.29998C16.2489 7.22791 16.1264 7.16388 16 7.10832L15.675 6.95832C15.5389 6.90791 15.3997 6.86616 15.2583 6.83332C15.1463 6.80037 15.0322 6.77531 14.9167 6.75832L14.725 6.66665C14.385 5.68419 13.7471 4.83217 12.9003 4.22912C12.0534 3.62607 11.0396 3.302 9.99999 3.302C8.96035 3.302 7.94657 3.62607 7.09971 4.22912C6.25285 4.83217 5.61502 5.68419 5.27499 6.66665L5.12499 6.70832C5.00949 6.72531 4.89532 6.75037 4.78332 6.78332C4.64194 6.81616 4.50277 6.85791 4.36666 6.90832L4.04166 7.05832C3.91526 7.11388 3.79276 7.17791 3.67499 7.24998L3.37499 7.49998L3.06666 7.75832C2.97499 7.84165 2.88332 7.91665 2.79999 8.00832C2.71666 8.09998 2.62499 8.21665 2.54166 8.31665C2.45832 8.41665 2.39166 8.50832 2.32499 8.61665C2.25832 8.72498 2.19166 8.85832 2.12499 8.98332C2.05832 9.10832 2.01666 9.19165 1.97499 9.29165C1.91369 9.44619 1.86356 9.60493 1.82499 9.76665C1.82499 9.85832 1.76666 9.94998 1.74999 10.0416C1.69812 10.3024 1.67023 10.5674 1.66666 10.8333C1.67056 11.0877 1.69565 11.3414 1.74166 11.5917C1.74166 11.675 1.78332 11.75 1.79999 11.8333C1.84118 11.997 1.89125 12.1584 1.94999 12.3166L2.04999 12.5583C2.12335 12.719 2.20685 12.8749 2.29999 13.025L2.41666 13.2083C2.42865 13.2317 2.44258 13.254 2.45832 13.275L2.49999 13.3333C2.8881 13.8508 3.39137 14.2708 3.96993 14.5601C4.5485 14.8494 5.18647 15 5.83332 15H8.33332V13.8583C8.08012 14.0052 7.79271 14.0828 7.49999 14.0833C7.04853 14.0791 6.6171 13.8963 6.29999 13.575C6.14773 13.4175 6.02802 13.2315 5.9477 13.0277C5.86738 12.8239 5.82803 12.6062 5.8319 12.3872C5.83577 12.1681 5.88279 11.952 5.97026 11.7512C6.05772 11.5503 6.18393 11.3687 6.34166 11.2167L8.84166 8.79998C9.1527 8.50019 9.56799 8.33287 9.99999 8.33332C10.4413 8.33518 10.8639 8.51199 11.175 8.82498L13.675 11.325C13.9854 11.6373 14.1596 12.0597 14.1596 12.5C14.1596 12.9403 13.9854 13.3627 13.675 13.675C13.3639 13.988 12.9413 14.1648 12.5 14.1667C12.2068 14.1694 11.9186 14.0916 11.6667 13.9417V15H14.1667C14.8135 15 15.4515 14.8494 16.03 14.5601C16.6086 14.2708 17.1119 13.8508 17.5 13.3333L17.5417 13.2916C17.5574 13.2706 17.5713 13.2483 17.5833 13.225L17.7 13.0416C17.7931 12.8916 17.8766 12.7357 17.95 12.575L18.05 12.3333C18.1087 12.175 18.1588 12.0137 18.2 11.85C18.2 11.7667 18.2417 11.6917 18.2583 11.6083C18.3053 11.3526 18.3304 11.0933 18.3333 10.8333C18.3324 10.5535 18.3045 10.2744 18.25 9.99998Z" fill="#007867"/>
<path d="M10.5917 9.40832C10.4359 9.25563 10.2265 9.1701 10.0083 9.1701C9.7902 9.1701 9.58076 9.25563 9.42499 9.40832L6.92499 11.825C6.83657 11.8979 6.76415 11.9884 6.71226 12.0906C6.66038 12.1928 6.63015 12.3047 6.62346 12.4191C6.61677 12.5336 6.63376 12.6482 6.67338 12.7557C6.713 12.8633 6.77439 12.9616 6.85371 13.0443C6.93303 13.1271 7.02858 13.1926 7.13438 13.2368C7.24017 13.2809 7.35394 13.3028 7.46857 13.301C7.5832 13.2992 7.69622 13.2737 7.80056 13.2262C7.90491 13.1787 7.99833 13.1102 8.07499 13.025L9.16666 11.9666V16.6667C9.16666 16.8877 9.25445 17.0996 9.41073 17.2559C9.56702 17.4122 9.77898 17.5 9.99999 17.5C10.221 17.5 10.433 17.4122 10.5892 17.2559C10.7455 17.0996 10.8333 16.8877 10.8333 16.6667V12.0083L11.9083 13.0917C11.9858 13.1698 12.078 13.2318 12.1795 13.2741C12.2811 13.3164 12.39 13.3381 12.5 13.3381C12.61 13.3381 12.7189 13.3164 12.8205 13.2741C12.922 13.2318 13.0142 13.1698 13.0917 13.0917C13.1698 13.0142 13.2318 12.922 13.2741 12.8205C13.3164 12.7189 13.3382 12.61 13.3382 12.5C13.3382 12.39 13.3164 12.2811 13.2741 12.1795C13.2318 12.078 13.1698 11.9858 13.0917 11.9083L10.5917 9.40832Z" fill="#007867"/>
</svg>
