<svg width="16" height="16" viewBox="0 0 16 16" fill="none" xmlns="http://www.w3.org/2000/svg">
<path d="M5.16732 1.66675C5.16732 1.53414 5.11464 1.40696 5.02087 1.31319C4.9271 1.21943 4.79993 1.16675 4.66732 1.16675C4.53471 1.16675 4.40753 1.21943 4.31376 1.31319C4.22 1.40696 4.16732 1.53414 4.16732 1.66675V2.72008C3.20732 2.79675 2.57798 2.98475 2.11532 3.44808C1.65198 3.91075 1.46398 4.54075 1.38665 5.50008H14.6147C14.5373 4.54008 14.3493 3.91075 13.886 3.44808C13.4233 2.98475 12.7933 2.79675 11.834 2.71941V1.66675C11.834 1.53414 11.7813 1.40696 11.6875 1.31319C11.5938 1.21943 11.4666 1.16675 11.334 1.16675C11.2014 1.16675 11.0742 1.21943 10.9804 1.31319C10.8867 1.40696 10.834 1.53414 10.834 1.66675V2.67541C10.3907 2.66675 9.89332 2.66675 9.33398 2.66675H6.66732C6.10798 2.66675 5.61065 2.66675 5.16732 2.67541V1.66675Z" fill="#637381"/>
<path fill-rule="evenodd" clip-rule="evenodd" d="M14.6673 8.00008C14.6673 7.44075 14.6673 6.94341 14.6587 6.50008H1.34265C1.33398 6.94341 1.33398 7.44075 1.33398 8.00008V9.33342C1.33398 11.8474 1.33398 13.1047 2.11532 13.8854C2.89598 14.6667 4.15332 14.6667 6.66732 14.6667H9.33398C11.848 14.6667 13.1053 14.6667 13.886 13.8854C14.6673 13.1047 14.6673 11.8474 14.6673 9.33342V8.00008ZM9.33398 8.16675C9.02457 8.16675 8.72782 8.28966 8.50903 8.50846C8.29023 8.72725 8.16732 9.024 8.16732 9.33342V10.6667C8.16732 10.9762 8.29023 11.2729 8.50903 11.4917C8.72782 11.7105 9.02457 11.8334 9.33398 11.8334C9.6434 11.8334 9.94015 11.7105 10.1589 11.4917C10.3777 11.2729 10.5007 10.9762 10.5007 10.6667V9.33342C10.5007 9.024 10.3777 8.72725 10.1589 8.50846C9.94015 8.28966 9.6434 8.16675 9.33398 8.16675ZM9.33398 9.16675C9.28978 9.16675 9.24739 9.18431 9.21613 9.21556C9.18488 9.24682 9.16732 9.28921 9.16732 9.33342V10.6667C9.16732 10.711 9.18488 10.7533 9.21613 10.7846C9.24739 10.8159 9.28978 10.8334 9.33398 10.8334C9.37819 10.8334 9.42058 10.8159 9.45184 10.7846C9.48309 10.7533 9.50065 10.711 9.50065 10.6667V9.33342C9.50065 9.28921 9.48309 9.24682 9.45184 9.21556C9.42058 9.18431 9.37819 9.16675 9.33398 9.16675ZM7.19198 8.20475C7.28336 8.24259 7.36146 8.30669 7.4164 8.38893C7.47134 8.47116 7.50066 8.56785 7.50065 8.66675V11.3334C7.50065 11.466 7.44797 11.5932 7.3542 11.687C7.26044 11.7807 7.13326 11.8334 7.00065 11.8334C6.86804 11.8334 6.74087 11.7807 6.6471 11.687C6.55333 11.5932 6.50065 11.466 6.50065 11.3334V9.87341L6.35398 10.0201C6.2592 10.1084 6.13384 10.1565 6.0043 10.1542C5.87477 10.1519 5.75118 10.0994 5.65957 10.0078C5.56796 9.91622 5.51549 9.79263 5.5132 9.6631C5.51092 9.53356 5.559 9.4082 5.64732 9.31342L6.64732 8.31342C6.71719 8.24349 6.80623 8.19584 6.90318 8.1765C7.00012 8.15716 7.10062 8.16699 7.19198 8.20475Z" fill="#637381"/>
</svg>
