<svg width="18" height="18" viewBox="0 0 18 18" fill="none" xmlns="http://www.w3.org/2000/svg">
<path d="M12.5569 11.906L12.1019 12.359C12.1019 12.359 11.0189 13.435 8.06386 10.497C5.10886 7.55898 6.19186 6.48298 6.19186 6.48298L6.47786 6.19698C7.18486 5.49498 7.25186 4.36698 6.63486 3.54298L5.37486 1.85998C4.61086 0.839979 3.13586 0.70498 2.26086 1.57498L0.690856 3.13498C0.257856 3.56698 -0.032144 4.12498 0.002856 4.74498C0.092856 6.33198 0.810856 9.74498 4.81486 13.727C9.06186 17.949 13.0469 18.117 14.6759 17.965C15.1919 17.917 15.6399 17.655 16.0009 17.295L17.4209 15.883C18.3809 14.93 18.1109 13.295 16.8829 12.628L14.9729 11.589C14.1669 11.151 13.1869 11.28 12.5569 11.906Z" fill="#FF5630"/>
</svg>
