<svg width="20" height="20" viewBox="0 0 20 20" fill="none" xmlns="http://www.w3.org/2000/svg">
<path d="M18.3307 7.17325V13.9583C18.3308 14.65 18.0661 15.3156 17.591 15.8184C17.1159 16.3213 16.4664 16.6233 15.7757 16.6624L15.6224 16.6666H4.3724C3.68061 16.6666 3.01504 16.402 2.5122 15.9269C2.00937 15.4518 1.70739 14.8023 1.66823 14.1116L1.66406 13.9583V7.17325L9.7074 11.3866C9.79688 11.4335 9.89638 11.4579 9.9974 11.4579C10.0984 11.4579 10.1979 11.4335 10.2874 11.3866L18.3307 7.17325ZM4.3724 3.33325H15.6224C16.2937 3.33317 16.9411 3.58241 17.4391 4.03264C17.9371 4.48287 18.2501 5.10199 18.3174 5.76992L9.9974 10.1283L1.6774 5.76992C1.742 5.12851 2.03327 4.53118 2.49885 4.0853C2.96444 3.63943 3.5738 3.37424 4.2174 3.33742L4.3724 3.33325Z" fill="#919EAB"/>
</svg>
