<svg width="20" height="20" viewBox="0 0 20 20" fill="none" xmlns="http://www.w3.org/2000/svg">
<path d="M14.6334 17.5001C14.5001 17.5006 14.3687 17.4692 14.25 17.4084L10 15.1834L5.75005 17.4084C5.61204 17.481 5.45644 17.5134 5.30094 17.5019C5.14544 17.4905 4.99628 17.4356 4.8704 17.3436C4.74453 17.2516 4.647 17.1261 4.58889 16.9814C4.53079 16.8367 4.51444 16.6786 4.54171 16.5251L5.37505 11.8334L1.94171 8.50009C1.83459 8.39319 1.75861 8.25915 1.7219 8.11233C1.6852 7.96552 1.68917 7.81148 1.73338 7.66676C1.78168 7.51865 1.87053 7.38705 1.98984 7.28689C2.10915 7.18672 2.25415 7.12201 2.40838 7.10009L7.15838 6.40842L9.25005 2.13342C9.31828 1.99253 9.42483 1.87371 9.55747 1.79057C9.69012 1.70743 9.8435 1.66333 10 1.66333C10.1566 1.66333 10.31 1.70743 10.4426 1.79057C10.5753 1.87371 10.6818 1.99253 10.75 2.13342L12.8667 6.40009L17.6167 7.09176C17.7709 7.11368 17.9159 7.17839 18.0353 7.27855C18.1546 7.37872 18.2434 7.51032 18.2917 7.65842C18.3359 7.80315 18.3399 7.95719 18.3032 8.104C18.2665 8.25081 18.1905 8.38486 18.0834 8.49176L14.65 11.8251L15.4834 16.5168C15.5131 16.673 15.4976 16.8345 15.4385 16.9821C15.3794 17.1298 15.2793 17.2575 15.15 17.3501C14.9991 17.4558 14.8174 17.5086 14.6334 17.5001Z" fill="#FFAB00"/>
</svg>
