<svg width="20" height="20" viewBox="0 0 20 20" fill="none" xmlns="http://www.w3.org/2000/svg">
<path d="M16.8917 13.5542L17.4792 10.1542C17.5137 9.9549 17.5042 9.75049 17.4515 9.55526C17.3987 9.36003 17.3039 9.17868 17.1737 9.0239C17.0436 8.86912 16.8812 8.74466 16.6979 8.6592C16.5146 8.57375 16.3148 8.52937 16.1126 8.52917H11.7951C11.6943 8.52919 11.5947 8.50728 11.5033 8.46495C11.4119 8.42262 11.3307 8.3609 11.2656 8.28406C11.2004 8.20722 11.1527 8.11711 11.1259 8.02C11.099 7.92288 11.0936 7.82108 11.1101 7.72167L11.6626 4.35084C11.7522 3.80354 11.7267 3.24354 11.5876 2.70667C11.528 2.48484 11.4134 2.28166 11.2543 2.116C11.0952 1.95035 10.8968 1.8276 10.6776 1.75917L10.5567 1.72001C10.2835 1.63225 9.9871 1.65253 9.7284 1.77667C9.44507 1.91334 9.2384 2.16251 9.16173 2.45834L8.76507 3.98667C8.63878 4.47303 8.45528 4.9427 8.2184 5.38584C7.87257 6.03334 7.33756 6.55251 6.7809 7.03167L5.58173 8.06501C5.41537 8.20877 5.28544 8.3899 5.20259 8.59355C5.11973 8.79721 5.08631 9.01761 5.10506 9.23667L5.78173 17.0642C5.81156 17.4103 5.9701 17.7328 6.22606 17.9677C6.48201 18.2027 6.81677 18.3332 7.16423 18.3333H11.0376C13.9392 18.3333 16.4151 16.3117 16.8917 13.5542Z" fill="#637381"/>
<path fill-rule="evenodd" clip-rule="evenodd" d="M2.4734 7.90417C2.63445 7.89713 2.79199 7.95259 2.91312 8.05896C3.03424 8.16534 3.10958 8.3144 3.1234 8.47501L3.93173 17.8383C3.94542 17.9778 3.93055 18.1185 3.88802 18.252C3.84548 18.3855 3.77618 18.5089 3.68435 18.6148C3.59252 18.7206 3.48008 18.8065 3.3539 18.8674C3.22772 18.9283 3.09046 18.9629 2.95048 18.969C2.81051 18.975 2.67077 18.9525 2.53979 18.9027C2.40882 18.853 2.28936 18.7771 2.18871 18.6796C2.08807 18.5821 2.00835 18.4652 1.95442 18.3359C1.90049 18.2065 1.87349 18.0676 1.87507 17.9275V8.52834C1.87513 8.36724 1.9374 8.21239 2.04889 8.0961C2.16037 7.9798 2.31245 7.91105 2.4734 7.90417Z" fill="#637381"/>
</svg>
