<svg width="32" height="32" viewBox="0 0 32 32" fill="none" xmlns="http://www.w3.org/2000/svg">
<g clip-path="url(#clip0_0_25225)">
<path d="M26.0002 16C25.9122 16 25.8272 16.01 25.7402 16.013L24.2372 9H28.0002V7H23.0002C22.851 6.99996 22.7038 7.03329 22.5691 7.09755C22.4345 7.16181 22.316 7.25538 22.2222 7.37139C22.1284 7.48741 22.0618 7.62293 22.0272 7.76804C21.9926 7.91314 21.9909 8.06415 22.0222 8.21L22.6202 11H12.3872L11.3872 8H14.0002V6H7.00022V8H9.28022L10.3212 11.123L7.75122 16.263C6.58484 15.9058 5.33728 15.9125 4.17485 16.2824C3.01242 16.6523 1.99035 17.3677 1.24488 18.3333C0.499406 19.2989 0.0659588 20.4687 0.00231478 21.6869C-0.0613293 22.9051 0.247854 24.1138 0.888648 25.1518C1.52944 26.1898 2.4714 27.0078 3.58896 27.4968C4.70652 27.9858 5.94658 28.1225 7.14383 27.8888C8.34109 27.655 9.43865 27.0619 10.2902 26.1885C11.1418 25.315 11.7069 24.2028 11.9102 23H14.5202C14.8203 23.0008 15.1166 22.9337 15.3871 22.8038C15.6576 22.674 15.8952 22.4846 16.0822 22.25L23.1402 13.426L23.7842 16.43C22.4007 16.9845 21.2737 18.035 20.6232 19.3761C19.9728 20.7172 19.8457 22.2526 20.2669 23.6824C20.688 25.1122 21.6271 26.3336 22.9006 27.108C24.1741 27.8824 25.6906 28.1542 27.1539 27.8703C28.6171 27.5864 29.9219 26.7671 30.8133 25.5726C31.7048 24.3781 32.1189 22.8941 31.9747 21.4106C31.8305 19.9271 31.1385 18.5506 30.0337 17.5501C28.9289 16.5495 27.4907 15.9969 26.0002 16ZM6.00022 26C5.43882 26.0011 4.88348 25.884 4.37032 25.6563C3.85716 25.4286 3.39767 25.0955 3.02173 24.6785C2.6458 24.2616 2.36185 23.7702 2.18834 23.2363C2.01483 22.7023 1.95566 22.1379 2.01466 21.5796C2.07367 21.0213 2.24953 20.4817 2.53082 19.9958C2.8121 19.51 3.19251 19.0888 3.6473 18.7596C4.10208 18.4305 4.62106 18.2008 5.17048 18.0854C5.7199 17.97 6.28745 17.9716 6.83622 18.09L5.10622 21.553L5.11522 21.557C5.04256 21.6936 5.00316 21.8453 5.00022 22C4.99869 22.225 5.07364 22.4439 5.21277 22.6207C5.3519 22.7976 5.54697 22.9219 5.76602 22.9734C5.98506 23.0249 6.2151 23.0004 6.41844 22.9041C6.62177 22.8077 6.78635 22.6451 6.88522 22.443L6.89522 22.447L8.61722 19C9.23404 19.5316 9.6731 20.2396 9.87523 21.0284C10.0774 21.8172 10.0328 22.6491 9.74767 23.4118C9.46251 24.1746 8.95041 24.8316 8.28036 25.2944C7.61032 25.7571 6.81453 26.0034 6.00022 26ZM11.9102 21C11.6484 19.4613 10.7971 18.0853 9.53722 17.164L11.2152 13.806L13.6132 21H11.9102ZM15.3682 19.94L13.0542 13H20.9192L15.3682 19.94ZM26.0002 26C25.0998 26.0029 24.2249 25.7009 23.5179 25.1433C22.8109 24.5857 22.3134 23.8052 22.1064 22.9289C21.8994 22.0526 21.995 21.132 22.3777 20.317C22.7604 19.5019 23.4077 18.8404 24.2142 18.44L25.0222 22.21L25.0422 22.206C25.0863 22.4283 25.2057 22.6286 25.3802 22.7732C25.5546 22.9178 25.7736 22.9979 26.0002 23C26.2654 23 26.5198 22.8946 26.7073 22.7071C26.8949 22.5196 27.0002 22.2652 27.0002 22C26.9939 21.93 26.9798 21.8609 26.9582 21.794L26.9782 21.79L26.1702 18.017C27.2165 18.0574 28.2051 18.5071 28.923 19.2693C29.6409 20.0315 30.0307 21.0452 30.0084 22.092C29.9861 23.1389 29.5535 24.1351 28.8038 24.866C28.0541 25.597 27.0473 26.0042 26.0002 26Z" fill="#212B36"/>
</g>
<defs>
<clipPath id="clip0_0_25225">
<rect width="32" height="32" fill="white"/>
</clipPath>
</defs>
</svg>
