<svg width="132" height="132" viewBox="0 0 132 132" fill="none" xmlns="http://www.w3.org/2000/svg">
<rect opacity="0.24" x="15.8398" y="56.76" width="100.32" height="18.48" rx="9.24" fill="#919EAB"/>
<path fill-rule="evenodd" clip-rule="evenodd" d="M85.1397 66C85.1397 73.2902 79.2299 79.2 71.9397 79.2C64.6496 79.2 58.7397 73.2902 58.7397 66C58.7397 58.7099 64.6496 52.8 71.9397 52.8C79.2299 52.8 85.1397 58.7099 85.1397 66ZM67.3031 62.7389C67.3031 61.4156 66.2304 60.3429 64.9071 60.3429C63.5839 60.3429 62.5112 61.4156 62.5112 62.7389V69.2612C62.5112 70.5845 63.5839 71.6572 64.9071 71.6572C66.2304 71.6572 67.3031 70.5845 67.3031 69.2612V62.7389ZM74.0917 62.7389C74.0917 61.4156 73.019 60.3429 71.6957 60.3429C70.3725 60.3429 69.2997 61.4156 69.2997 62.7389V69.2612C69.2997 70.5845 70.3725 71.6572 71.6957 71.6572C73.019 71.6572 74.0917 70.5845 74.0917 69.2612V62.7389ZM78.4843 60.3429C79.8075 60.3429 80.8802 61.4156 80.8802 62.7389V69.2612C80.8802 70.5845 79.8075 71.6572 78.4843 71.6572C77.161 71.6572 76.0883 70.5845 76.0883 69.2612V62.7389C76.0883 61.4156 77.161 60.3429 78.4843 60.3429Z" fill="#919EAB"/>
<path opacity="0.48" d="M60.396 60.72H25.0798C22.1637 60.72 19.7998 63.0839 19.7998 66C19.7998 68.916 22.1637 71.28 25.0798 71.28H60.396C59.352 69.7833 58.7398 67.9631 58.7398 66C58.7398 64.0368 59.352 62.2166 60.396 60.72Z" fill="#919EAB"/>
</svg>
