<svg width="107" height="32" viewBox="0 0 107 32" fill="none" xmlns="http://www.w3.org/2000/svg">
<path d="M16 0C7.16315 0 0 7.16315 0 16C0 24.8368 7.16315 32 16 32C24.8368 32 32 24.8368 32 16C32 7.16424 24.8368 0.00109178 16 0ZM23.3378 23.0758C23.0507 23.5475 22.436 23.6948 21.9666 23.4077C18.2098 21.1117 13.4802 20.5931 7.91102 21.865C7.37387 21.9884 6.83889 21.6521 6.71662 21.115C6.59324 20.5778 6.92842 20.0429 7.46667 19.9206C13.561 18.5286 18.7895 19.1279 23.007 21.7045C23.4765 21.9939 23.6261 22.6063 23.3378 23.0758ZM25.2954 18.7207C24.934 19.3081 24.1654 19.4915 23.5791 19.1312C19.2797 16.488 12.7225 15.7227 7.63589 17.2665C6.97646 17.4663 6.2799 17.094 6.07902 16.4356C5.88031 15.7762 6.25261 15.0807 6.91095 14.8798C12.7214 13.1166 19.9457 13.9704 24.8838 17.0055C25.4712 17.3669 25.6568 18.1344 25.2954 18.7207ZM25.4635 14.1833C20.306 11.1208 11.7988 10.8392 6.87492 12.3327C6.08448 12.5729 5.24817 12.1264 5.00908 11.3359C4.76998 10.5455 5.21542 9.70918 6.00696 9.46899C11.6591 7.7538 21.0538 8.08461 26.9909 11.6089C27.7017 12.0314 27.9353 12.9496 27.5139 13.6592C27.0936 14.3711 26.1732 14.6058 25.4635 14.1833ZM43.5303 14.7707C40.7681 14.1123 40.2757 13.6494 40.2757 12.6777C40.2757 11.7595 41.1404 11.1427 42.4254 11.1427C43.6711 11.1427 44.9059 11.6121 46.2018 12.5773C46.2411 12.6068 46.2903 12.6177 46.3383 12.61C46.3863 12.6024 46.4289 12.5762 46.4573 12.5358L47.8057 10.6339C47.8613 10.5553 47.8461 10.4472 47.7718 10.3883C46.2302 9.15128 44.4954 8.54971 42.4658 8.54971C39.483 8.54971 37.3999 10.3402 37.3999 12.9004C37.3999 15.6474 39.197 16.619 42.3031 17.3702C44.9463 17.9794 45.3928 18.4893 45.3928 19.4009C45.3928 20.4119 44.491 21.0396 43.039 21.0396C41.4264 21.0396 40.1108 20.4959 38.6402 19.2218C38.6042 19.1902 38.5539 19.176 38.507 19.1782C38.4579 19.1825 38.4142 19.2044 38.3825 19.2415L36.8704 21.0418C36.8071 21.1161 36.8147 21.2285 36.8879 21.2929C38.5998 22.8214 40.7047 23.6282 42.9778 23.6282C46.192 23.6282 48.2686 21.8716 48.2686 19.1541C48.274 16.8592 46.9006 15.5884 43.5357 14.7707H43.5303ZM55.5409 12.0467C54.1478 12.0467 53.0047 12.5958 52.0625 13.7193V12.4539C52.0625 12.3535 51.9817 12.2727 51.8813 12.2727H49.4073C49.3069 12.2727 49.2261 12.3546 49.2261 12.4539V26.516C49.2261 26.6164 49.3069 26.6972 49.4073 26.6972H51.8813C51.9806 26.6972 52.0625 26.6154 52.0625 26.516V22.0768C53.0047 23.1348 54.1478 23.6512 55.5409 23.6512C58.1295 23.6512 60.7498 21.6587 60.7498 17.8495C60.7541 14.0392 58.1317 12.0456 55.5431 12.0456L55.5409 12.0467ZM57.874 17.8495C57.874 19.7896 56.6796 21.1434 54.9677 21.1434C53.2766 21.1434 52.0003 19.7284 52.0003 17.8495C52.0003 15.9716 53.2766 14.5556 54.9677 14.5556C56.6512 14.5556 57.874 15.941 57.874 17.8495ZM67.4664 12.0467C64.1321 12.0467 61.5206 14.6134 61.5206 17.8921C61.5206 21.1346 64.1146 23.6741 67.4249 23.6741C70.7701 23.6741 73.3904 21.1161 73.3904 17.8506C73.3915 14.596 70.7887 12.0467 67.4664 12.0467ZM67.4664 21.1619C65.6933 21.1619 64.3559 19.7372 64.3559 17.8484C64.3559 15.9509 65.6464 14.5752 67.4249 14.5752C69.21 14.5752 70.555 16 70.555 17.8899C70.5561 19.7863 69.2569 21.1619 67.4664 21.1619ZM80.5109 12.2727H77.7891V9.48973C77.7891 9.39038 77.7084 9.30849 77.609 9.30849H75.1361C75.0357 9.30849 74.9549 9.39038 74.9549 9.48973V12.2727H73.7659C73.6666 12.2727 73.5858 12.3546 73.5858 12.4539V14.5796C73.5858 14.6789 73.6666 14.7608 73.7659 14.7608H74.9549V20.2612C74.9549 22.4841 76.0609 23.6108 78.2433 23.6108C79.1309 23.6108 79.8668 23.4274 80.5601 23.0343C80.6169 23.0027 80.6518 22.9415 80.6518 22.8771V20.853C80.6518 20.7907 80.619 20.7318 80.5655 20.699C80.512 20.6652 80.4444 20.663 80.3898 20.6903C79.9137 20.9305 79.453 21.0407 78.9377 21.0407C78.144 21.0407 77.7902 20.6805 77.7902 19.8725V14.7608H80.512C80.6125 14.7608 80.6922 14.6789 80.6922 14.5796V12.4539C80.6965 12.3535 80.6158 12.2727 80.5142 12.2727H80.5109ZM89.9952 12.2836V11.9419C89.9952 10.9363 90.3806 10.4876 91.2453 10.4876C91.7606 10.4876 92.1755 10.5902 92.6395 10.7453C92.6963 10.7627 92.7563 10.754 92.8022 10.7202C92.8502 10.6863 92.8764 10.6306 92.8764 10.5728V8.48748C92.8764 8.40778 92.8251 8.33681 92.7487 8.31389C92.2585 8.16759 91.6318 8.01801 90.6929 8.01801C88.4078 8.01801 87.2003 9.30413 87.2003 11.7377V12.2607H86.0113C85.912 12.2607 85.8301 12.3425 85.8301 12.4419V14.5785C85.8301 14.6779 85.912 14.7597 86.0113 14.7597H87.2003V23.245C87.2003 23.3455 87.2811 23.4263 87.3804 23.4263H89.8544C89.9548 23.4263 90.0356 23.3444 90.0356 23.245V14.7608H92.3447L95.8821 23.2439C95.4803 24.1348 95.0851 24.3128 94.5468 24.3128C94.1112 24.3128 93.6516 24.1829 93.1832 23.9263C93.1395 23.9023 93.0871 23.8979 93.0391 23.9132C92.9921 23.9296 92.9518 23.9645 92.9321 24.0104L92.0936 25.85C92.0532 25.9374 92.0882 26.0389 92.1711 26.0837C93.0467 26.5575 93.8361 26.7595 94.8132 26.7595C96.6398 26.7595 97.6497 25.909 98.5395 23.6195L102.831 12.5303C102.853 12.4746 102.847 12.4113 102.812 12.3622C102.778 12.3131 102.723 12.2836 102.663 12.2836H100.088C100.01 12.2836 99.9413 12.3327 99.9162 12.4048L97.2785 19.9402L94.3885 12.4004C94.3623 12.3305 94.2946 12.2836 94.2193 12.2836H89.9952ZM84.4959 12.2727H82.022C81.9215 12.2727 81.8407 12.3546 81.8407 12.4539V23.2461C81.8407 23.3466 81.9226 23.4274 82.022 23.4274H84.4959C84.5953 23.4274 84.6772 23.3455 84.6772 23.2461V12.455C84.6772 12.3546 84.5964 12.2738 84.4959 12.2727C84.497 12.2727 84.4959 12.2727 84.4959 12.2727ZM83.2731 7.35858C82.2927 7.35858 81.4979 8.1523 81.4979 9.13163C81.4979 10.112 82.2938 10.9069 83.2731 10.9069C84.2525 10.9069 85.0473 10.1131 85.0473 9.13163C85.0473 8.1523 84.2525 7.35858 83.2731 7.35858ZM104.944 15.7423C103.965 15.7423 103.204 14.9563 103.204 14.001C103.204 13.0457 103.975 12.2508 104.954 12.2508C105.933 12.2508 106.694 13.0369 106.694 13.9911C106.693 14.9464 105.921 15.7423 104.944 15.7423ZM104.953 12.4244C104.061 12.4244 103.386 13.133 103.386 14.001C103.386 14.8689 104.056 15.5677 104.943 15.5677C105.835 15.5677 106.509 14.8591 106.509 13.9911C106.511 13.1243 105.84 12.4244 104.953 12.4244ZM105.339 14.1702L105.831 14.8591H105.417L104.973 14.227H104.592V14.8591H104.245V13.0315H105.06C105.484 13.0315 105.764 13.2487 105.764 13.6145C105.766 13.9136 105.591 14.097 105.341 14.1691L105.339 14.1702ZM105.044 13.3459H104.591V13.9234H105.044C105.27 13.9234 105.406 13.8132 105.406 13.6341C105.406 13.4463 105.27 13.3459 105.044 13.3459Z" fill="white"/>
</svg>
