<svg width="20" height="20" viewBox="0 0 20 20" fill="none" xmlns="http://www.w3.org/2000/svg">
<path d="M18.2513 9.99998C18.2513 9.90832 18.2013 9.81665 18.1763 9.72498C18.1377 9.56327 18.0876 9.40453 18.0263 9.24998C17.9846 9.14998 17.9263 9.04998 17.8763 8.94165C17.8263 8.83332 17.7513 8.69165 17.6763 8.57498C17.6013 8.45832 17.5013 8.39998 17.5013 8.33332C17.5013 8.26665 17.3346 8.12498 17.243 8.02498C17.1513 7.92498 17.068 7.85832 16.9763 7.77498L16.668 7.49998L16.368 7.29998C16.2502 7.22791 16.1277 7.16388 16.0013 7.10832L15.6763 6.95832C15.5402 6.90791 15.401 6.86616 15.2596 6.83332C15.1476 6.80037 15.0335 6.77531 14.918 6.75832L14.7263 6.66665C14.3863 5.68419 13.7484 4.83217 12.9016 4.22912C12.0547 3.62607 11.0409 3.302 10.0013 3.302C8.96167 3.302 7.94789 3.62607 7.10102 4.22912C6.25416 4.83217 5.61634 5.68419 5.2763 6.66665L5.1263 6.70832C5.0108 6.72531 4.89663 6.75037 4.78464 6.78332C4.64325 6.81616 4.50408 6.85791 4.36797 6.90832L4.04297 7.05832C3.91657 7.11388 3.79407 7.17791 3.6763 7.24998L3.3763 7.49998L3.06797 7.75832C2.9763 7.84165 2.88464 7.91665 2.8013 8.00832C2.71797 8.09998 2.6263 8.21665 2.54297 8.31665C2.45964 8.41665 2.39297 8.50832 2.3263 8.61665C2.25964 8.72498 2.19297 8.85832 2.1263 8.98332C2.05964 9.10832 2.01797 9.19165 1.9763 9.29165C1.915 9.44619 1.86488 9.60493 1.8263 9.76665C1.8263 9.85832 1.76797 9.94998 1.7513 10.0416C1.69943 10.3024 1.67154 10.5674 1.66797 10.8333C1.67188 11.0877 1.69696 11.3414 1.74297 11.5917C1.74297 11.675 1.78464 11.75 1.8013 11.8333C1.84249 11.997 1.89257 12.1584 1.9513 12.3166L2.0513 12.5583C2.12466 12.719 2.20816 12.8749 2.3013 13.025L2.41797 13.2083C2.42996 13.2317 2.4439 13.254 2.45964 13.275L2.5013 13.3333C2.88941 13.8508 3.39268 14.2708 3.97125 14.5601C4.54981 14.8494 5.18778 15 5.83464 15H8.33464V13.8583C8.08144 14.0052 7.79402 14.0828 7.5013 14.0833C7.04985 14.0791 6.61842 13.8963 6.3013 13.575C6.14904 13.4175 6.02933 13.2315 5.94902 13.0277C5.8687 12.8239 5.82935 12.6062 5.83322 12.3872C5.83709 12.1681 5.8841 11.952 5.97157 11.7512C6.05904 11.5503 6.18524 11.3687 6.34297 11.2167L8.84297 8.79998C9.15401 8.50019 9.5693 8.33287 10.0013 8.33332C10.4426 8.33518 10.8652 8.51199 11.1763 8.82498L13.6763 11.325C13.9867 11.6373 14.161 12.0597 14.161 12.5C14.161 12.9403 13.9867 13.3627 13.6763 13.675C13.3652 13.988 12.9426 14.1648 12.5013 14.1667C12.2082 14.1694 11.9199 14.0916 11.668 13.9417V15H14.168C14.8148 15 15.4528 14.8494 16.0314 14.5601C16.6099 14.2708 17.1132 13.8508 17.5013 13.3333L17.543 13.2916C17.5587 13.2706 17.5726 13.2483 17.5846 13.225L17.7013 13.0416C17.7944 12.8916 17.8779 12.7357 17.9513 12.575L18.0513 12.3333C18.11 12.175 18.1601 12.0137 18.2013 11.85C18.2013 11.7667 18.243 11.6917 18.2596 11.6083C18.3066 11.3526 18.3317 11.0933 18.3346 10.8333C18.3337 10.5535 18.3058 10.2744 18.2513 9.99998Z" fill="white"/>
<path d="M10.593 9.40832C10.4372 9.25563 10.2278 9.1701 10.0096 9.1701C9.79151 9.1701 9.58208 9.25563 9.4263 9.40832L6.9263 11.825C6.83788 11.8979 6.76546 11.9884 6.71357 12.0906C6.66169 12.1928 6.63146 12.3047 6.62477 12.4191C6.61808 12.5336 6.63508 12.6482 6.6747 12.7557C6.71431 12.8633 6.7757 12.9616 6.85503 13.0443C6.93435 13.1271 7.02989 13.1926 7.13569 13.2368C7.24149 13.2809 7.35526 13.3028 7.46988 13.301C7.58451 13.2992 7.69753 13.2737 7.80188 13.2262C7.90622 13.1787 7.99964 13.1102 8.0763 13.025L9.16797 11.9666V16.6667C9.16797 16.8877 9.25577 17.0996 9.41205 17.2559C9.56833 17.4122 9.78029 17.5 10.0013 17.5C10.2223 17.5 10.4343 17.4122 10.5906 17.2559C10.7468 17.0996 10.8346 16.8877 10.8346 16.6667V12.0083L11.9096 13.0917C11.9871 13.1698 12.0793 13.2318 12.1808 13.2741C12.2824 13.3164 12.3913 13.3381 12.5013 13.3381C12.6113 13.3381 12.7202 13.3164 12.8218 13.2741C12.9233 13.2318 13.0155 13.1698 13.093 13.0917C13.1711 13.0142 13.2331 12.922 13.2754 12.8205C13.3177 12.7189 13.3395 12.61 13.3395 12.5C13.3395 12.39 13.3177 12.2811 13.2754 12.1795C13.2331 12.078 13.1711 11.9858 13.093 11.9083L10.593 9.40832Z" fill="white"/>
</svg>
