<svg width="20" height="20" viewBox="0 0 20 20" fill="none" xmlns="http://www.w3.org/2000/svg">
<path d="M9.99846 12.9176C9.80375 12.918 9.61505 12.8502 9.46513 12.726L4.46513 8.55931C4.11074 8.26476 4.06224 7.7387 4.35679 7.38431C4.65134 7.02993 5.17741 6.98143 5.53179 7.27598L9.99846 11.0093L14.4651 7.40931C14.6373 7.26951 14.8581 7.20409 15.0786 7.22755C15.2991 7.25101 15.5012 7.36141 15.6401 7.53431C15.7944 7.70753 15.8695 7.93721 15.8474 8.16811C15.8252 8.39901 15.7078 8.61024 15.5235 8.75098L10.5235 12.776C10.3692 12.8806 10.1844 12.9305 9.99846 12.9176Z" fill="white"/>
</svg>
