<svg width="106" height="53" viewBox="0 0 106 53" fill="none" xmlns="http://www.w3.org/2000/svg">
<path d="M102.663 52.7772C101.932 52.7781 101.22 52.5412 100.634 52.1023C100.049 51.6634 99.6223 51.0461 99.4183 50.3436L89.3837 14.7478C88.7803 12.4883 87.4601 10.4856 85.6215 9.04037C83.7828 7.59518 81.5249 6.78553 79.1868 6.73303H26.8071C24.4641 6.77676 22.199 7.58156 20.3537 9.02592C18.5083 10.4703 17.183 12.4758 16.5778 14.7397L6.57556 50.3111C6.301 51.1334 5.72051 51.8185 4.95445 52.2244C4.18839 52.6302 3.29552 52.7257 2.46097 52.491C1.62642 52.2563 0.914215 51.7094 0.472017 50.9637C0.0298199 50.218 -0.108446 49.3308 0.08589 48.4859L10.0881 12.9144C11.0964 9.23935 13.2728 5.99194 16.2887 3.66231C19.3046 1.33269 22.9965 0.0472492 26.8071 0H79.1868C82.9925 0.0560525 86.6772 1.34636 89.6864 3.67683C92.6957 6.00729 94.8669 9.25188 95.8734 12.9225L105.876 48.494C106.115 49.3546 106.004 50.275 105.566 51.0536C105.128 51.8321 104.399 52.4053 103.539 52.6474C103.255 52.7311 102.96 52.7748 102.663 52.7772Z" fill="#C4CDD5"/>
</svg>
