<svg width="20" height="20" viewBox="0 0 20 20" fill="none" xmlns="http://www.w3.org/2000/svg">
<path d="M14.6317 17.5001C14.4984 17.5006 14.3669 17.4692 14.2483 17.4084L9.99834 15.1834L5.74834 17.4084C5.61033 17.481 5.45473 17.5134 5.29923 17.5019C5.14373 17.4905 4.99457 17.4356 4.86869 17.3436C4.74282 17.2516 4.64529 17.1261 4.58718 16.9814C4.52908 16.8367 4.51273 16.6786 4.54 16.5251L5.37334 11.8334L1.94 8.50009C1.83289 8.39319 1.7569 8.25915 1.72019 8.11233C1.68349 7.96552 1.68746 7.81148 1.73167 7.66676C1.77997 7.51865 1.86882 7.38705 1.98813 7.28689C2.10744 7.18672 2.25244 7.12201 2.40667 7.10009L7.15667 6.40842L9.24834 2.13342C9.31657 1.99253 9.42312 1.87371 9.55576 1.79057C9.68841 1.70743 9.84179 1.66333 9.99834 1.66333C10.1549 1.66333 10.3083 1.70743 10.4409 1.79057C10.5736 1.87371 10.6801 1.99253 10.7483 2.13342L12.865 6.40009L17.615 7.09176C17.7692 7.11368 17.9142 7.17839 18.0335 7.27855C18.1529 7.37872 18.2417 7.51032 18.29 7.65842C18.3342 7.80315 18.3382 7.95719 18.3015 8.104C18.2648 8.25081 18.1888 8.38486 18.0817 8.49176L14.6483 11.8251L15.4817 16.5168C15.5114 16.673 15.4958 16.8345 15.4368 16.9821C15.3777 17.1298 15.2776 17.2575 15.1483 17.3501C14.9974 17.4558 14.8157 17.5086 14.6317 17.5001ZM9.99834 13.4168C10.1319 13.4134 10.2641 13.445 10.3817 13.5084L13.5233 15.1751L12.9233 11.6668C12.9001 11.5328 12.9099 11.3952 12.952 11.2659C12.9942 11.1366 13.0673 11.0196 13.165 10.9251L15.665 8.48342L12.165 7.96676C12.0367 7.94092 11.9162 7.8852 11.8134 7.80412C11.7106 7.72304 11.6284 7.61888 11.5733 7.50009L9.99834 4.37509L8.42334 7.50009C8.36304 7.61984 8.27475 7.72328 8.16594 7.80162C8.05713 7.87996 7.93103 7.93089 7.79834 7.95009L4.29834 8.46675L6.79834 10.9084C6.89607 11.003 6.96918 11.12 7.01131 11.2492C7.05343 11.3785 7.06328 11.5161 7.04 11.6501L6.44 15.1168L9.58167 13.4501C9.71479 13.4006 9.85904 13.3891 9.99834 13.4168Z" fill="#637381"/>
</svg>
