<svg width="40" height="40" viewBox="0 0 40 40" fill="none" xmlns="http://www.w3.org/2000/svg">
<path d="M35.7029 19.974L37.6777 19.1757C39.5564 18.4153 40.4791 16.2897 39.7517 14.3981L35.1291 2.38106C34.3893 0.464616 32.236 -0.489215 30.3196 0.250568C30.2925 0.261072 30.2654 0.271835 30.2386 0.282942L7.14204 9.85742C5.2937 10.6259 4.38507 12.7193 5.08594 14.5944L6.01583 17.0741L7.57668 21.3516H30.9963L35.7029 19.974Z" fill="#61F3F3"/>
<path d="M11.1243 17.0761L9.66406 13.4254L15.5052 10.5049L16.9655 14.1556L11.1243 17.0761Z" fill="#006C9C"/>
<path d="M28.3691 13.5269L34.94 10.605L35.4997 11.8638L28.9289 14.7857L28.3691 13.5269Z" fill="#006C9C"/>
<path d="M23.9805 12.07L33.4717 7.68945L34.0487 8.93964L24.5574 13.3202L23.9805 12.07Z" fill="#006C9C"/>
<path opacity="0.12" d="M37.6783 19.1758C37.7396 19.151 37.7913 19.1132 37.8505 19.0856C37.666 17.2453 36.1182 15.8434 34.2687 15.8413H5.55078L6.01366 17.0763L7.57726 21.3518H30.9969L35.7035 19.9742L37.6783 19.1758Z" fill="black"/>
<path d="M3.61626 17.2188H32.8907C34.8879 17.2188 36.507 18.8378 36.507 20.835V36.3333C36.507 38.3305 34.8879 39.9495 32.8907 39.9495H3.61626C1.61905 39.9495 0 38.3305 0 36.3333V20.835C0 18.8378 1.61905 17.2188 3.61626 17.2188Z" fill="#FFD666"/>
<path d="M26.1758 37.8832C23.8933 37.8832 22.043 36.0329 22.043 33.7503C22.043 31.4678 23.8933 29.6174 26.1758 29.6174C28.4584 29.6174 30.3087 31.4678 30.3087 33.7503C30.3064 36.0319 28.4574 37.8809 26.1758 37.8832ZM26.1758 30.9951C24.6542 30.9951 23.4206 32.2286 23.4206 33.7503C23.4206 35.272 24.6542 36.5055 26.1758 36.5055C27.6975 36.5055 28.9311 35.272 28.9311 33.7503C28.9311 32.2286 27.6975 30.9951 26.1758 30.9951Z" fill="#B76E00"/>
<path d="M30.3086 37.8832C28.0261 37.8832 26.1758 36.0329 26.1758 33.7503C26.1758 31.4678 28.0261 29.6174 30.3086 29.6174C32.5912 29.6174 34.4415 31.4678 34.4415 33.7503C34.4393 36.0319 32.5902 37.8809 30.3086 37.8832ZM30.3086 30.9951C28.787 30.9951 27.5534 32.2286 27.5534 33.7503C27.5534 35.272 28.787 36.5055 30.3086 36.5055C31.8303 36.5055 33.0639 35.272 33.0639 33.7503C33.0639 32.2286 31.8303 30.9951 30.3086 30.9951Z" fill="#B76E00"/>
<path d="M0 21.3516H36.507V26.8621H0V21.3516Z" fill="#B76E00"/>
</svg>
