<svg width="355" height="260" viewBox="0 0 355 260" fill="none" xmlns="http://www.w3.org/2000/svg">
<g opacity="0.2">
<mask id="mask0_0_20211" style="mask-type:alpha" maskUnits="userSpaceOnUse" x="0" y="0" width="355" height="260">
<path opacity="0.48" fill-rule="evenodd" clip-rule="evenodd" d="M0 143.564C0 173.505 11.0534 200.789 29.2424 221.409C50.1093 245.072 80.3685 259.95 114.098 260C128.838 260.021 142.933 257.193 155.88 252.029C162.574 249.358 170.067 249.665 176.551 252.829C184.156 256.536 192.672 258.615 201.665 258.615C205.379 258.615 209.017 258.257 212.536 257.579C222.581 255.651 231.721 251.087 239.227 244.622C243.945 240.558 249.987 238.516 256.162 238.523H256.267C276.671 238.523 295.624 232.216 311.36 221.409C325.428 211.76 336.916 198.517 344.57 182.969C351.243 169.42 355 154.114 355 137.914C355 82.353 310.792 37.3052 256.267 37.3052C250.708 37.3052 245.262 37.7836 239.95 38.6763C225.882 15.47 200.69 0 171.952 0C159.819 0 148.316 2.75722 138.02 7.69978C128.228 12.3849 119.522 19.0423 112.401 27.1556C88.2185 27.5484 65.8584 35.5983 47.5574 49.0327C18.7495 70.1677 0 104.637 0 143.564Z" fill="url(#paint0_linear_0_20211)"/>
</mask>
<g mask="url(#mask0_0_20211)">
<rect width="355" height="260" fill="#00A76F"/>
</g>
</g>
<path opacity="0.12" d="M219.995 71.7134L82.4811 67.8926C77.7847 67.7624 73.957 70.8962 73.957 74.8935V190.364C73.957 194.361 77.7847 197.4 82.4811 197.153L219.995 189.91C223.9 189.705 227.051 186.605 227.051 182.988V78.4606C227.051 74.8408 223.9 71.8203 219.995 71.7134Z" fill="#00A76F"/>
<path d="M220.007 67.4591L86.6603 63.6475C82.1063 63.5177 78.3945 66.6439 78.3945 70.6316V185.823C78.3945 189.81 82.1063 192.841 86.6603 192.595L220.007 185.371C223.794 185.165 226.849 182.074 226.849 178.464V74.1895C226.849 70.5791 223.794 67.5657 220.007 67.4591Z" fill="white"/>
<path opacity="0.16" d="M151.702 146.594L151.701 146.594C146.392 146.689 141.142 145.497 136.422 143.126L136.422 143.126C131.389 140.599 127.162 136.777 124.201 132.077C121.363 127.557 119.86 122.363 119.855 117.065C119.855 100.505 134.292 87.3485 151.698 87.7906C168.67 88.222 182.128 101.487 182.128 117.313C182.128 133.138 168.673 146.295 151.702 146.594ZM151.71 147.094C146.32 147.19 140.99 145.98 136.198 143.573L151.71 147.094ZM114.736 175.509L114.735 175.509C113.016 175.577 111.699 174.354 111.699 172.873V160.617C111.699 159.122 113.038 157.805 114.767 157.763L193.806 155.856L193.81 155.856C194.509 155.834 195.185 156.091 195.682 156.563C196.18 157.035 196.456 157.68 196.453 158.35V158.352V169.873C196.44 171.309 195.274 172.502 193.775 172.567C193.774 172.567 193.774 172.567 193.773 172.567L114.736 175.509Z" fill="#919EAB" stroke="#919EAB"/>
<path d="M138.151 98.7147C138.172 99.0852 138.031 99.4463 137.763 99.7099L136.389 101.052L148.878 113.252C149.506 113.865 149.505 114.86 148.878 115.472C148.246 116.091 147.229 116.083 146.605 115.472L134.116 103.273L132.741 104.615C132.491 104.859 132.152 104.996 131.798 104.996C131.774 104.996 131.748 104.995 131.723 104.994C131.343 104.973 130.991 104.794 130.755 104.502L124.901 97.5577C124.481 97.0398 124.525 96.2981 125.004 95.8301L128.77 92.1518C129.249 91.6838 130.008 91.6412 130.539 92.0507L137.647 97.7686C137.946 97.9997 138.129 98.3442 138.151 98.7147Z" fill="#DFE3E8"/>
<path d="M155.112 119.34L159.136 123.271C159.763 123.884 159.763 124.879 159.136 125.492C158.503 126.11 157.484 126.099 156.862 125.492L152.838 121.561C152.21 120.947 152.21 119.954 152.838 119.34C153.466 118.727 154.484 118.726 155.112 119.34Z" fill="#DFE3E8"/>
<path d="M155.109 119.34L159.133 123.271C159.761 123.884 159.761 124.879 159.133 125.492L152.836 119.34C153.464 118.727 154.482 118.726 155.109 119.34Z" fill="#F4F6F8"/>
<path d="M176.45 140.675L174.676 142.408C172.143 144.886 167.985 144.802 165.564 142.178L153.314 128.835C152.744 128.213 152.77 127.266 153.373 126.676L160.258 119.95C160.86 119.364 161.824 119.334 162.461 119.885L176.181 131.745L176.184 131.748C178.881 134.09 179.004 138.181 176.45 140.675Z" fill="url(#paint1_linear_0_20211)"/>
<path d="M178.025 100.217C177.78 99.0745 176.334 98.6534 175.489 99.4797L170.226 104.622C169.269 105.556 167.72 105.556 166.764 104.622L163.943 101.867C162.987 100.933 162.987 99.419 163.943 98.4866L169.207 93.3429C170.052 92.5182 169.622 91.1055 168.453 90.8657C164.492 90.0525 160.201 91.1488 157.125 94.1533C153.208 97.9803 152.46 103.729 154.879 108.289L125.052 132.225C123.042 133.767 122.863 136.678 124.67 138.444L129.321 142.987C131.129 144.752 134.108 144.578 135.687 142.614L160.189 113.476C164.858 115.839 170.742 115.109 174.66 111.282C177.736 108.278 178.857 104.086 178.025 100.217ZM132.661 136.752C132.217 136.752 131.815 136.576 131.523 136.292C131.233 136.007 131.053 135.615 131.053 135.181C131.053 134.314 131.773 133.611 132.661 133.611C133.105 133.611 133.506 133.787 133.797 134.07C134.088 134.356 134.268 134.747 134.268 135.181C134.268 136.049 133.549 136.752 132.661 136.752Z" fill="url(#paint2_linear_0_20211)"/>
<path d="M148.794 114.692L127.602 93.9906L129.118 92.5095L129.119 92.5093C129.417 92.2177 129.894 92.1887 130.228 92.4438L137.334 98.1582L137.334 98.1583L137.341 98.1641C137.527 98.3078 137.638 98.5193 137.651 98.7435C137.664 98.9681 137.579 99.189 137.412 99.3528C137.412 99.3529 137.412 99.353 137.412 99.3531L136.039 100.694L135.673 101.052L136.039 101.409L148.528 113.61L148.528 113.61C148.829 113.904 148.918 114.324 148.794 114.692Z" fill="#919EAB" stroke="#919EAB"/>
<path opacity="0.24" d="M176.449 140.675L175.563 141.541L156.859 123.27L160.258 119.95C160.86 119.364 161.823 119.334 162.46 119.884L176.181 131.745L176.184 131.748C178.88 134.09 179.003 138.18 176.449 140.675Z" fill="#004B50"/>
<path opacity="0.24" d="M174.661 111.282C170.742 115.109 164.858 115.84 160.19 113.476L135.688 142.615C134.109 144.578 131.13 144.752 129.322 142.987L126.996 140.716L131.524 136.292C131.816 136.576 132.218 136.752 132.661 136.752C133.55 136.752 134.268 136.049 134.268 135.181C134.268 134.747 134.089 134.356 133.798 134.071L165.355 103.245L166.765 104.622C167.721 105.556 169.27 105.556 170.226 104.622L175.49 99.4798C176.334 98.6535 177.78 99.0746 178.026 100.217C178.858 104.086 177.736 108.278 174.661 111.282Z" fill="#004B50"/>
<path d="M184.679 209.706V212.093C184.679 212.705 184.357 213.21 183.931 213.265L145.716 216.642C145.434 216.68 145.147 216.674 144.867 216.625C144.793 216.612 144.719 216.596 144.645 216.579L118.019 211.686C117.736 211.614 117.527 211.253 117.527 210.836V208.313L145.778 204.899L149.414 203.22L153.03 203.728L155.165 203.329L160.046 204.714L184.679 209.706Z" fill="url(#paint3_linear_0_20211)"/>
<path opacity="0.3" d="M184.677 209.706V212.094C184.677 212.705 184.355 213.21 183.929 213.265L145.716 216.642C145.434 216.68 145.147 216.674 144.867 216.625V203.76L149.414 203.219L153.03 203.726L155.164 203.328L160.044 204.712L184.677 209.706Z" fill="url(#paint4_linear_0_20211)"/>
<path d="M155.165 203.327L117.527 208.195L144.676 213.181C145.005 213.264 145.348 213.284 145.686 213.239L184.677 209.706L155.165 203.327Z" fill="url(#paint5_linear_0_20211)"/>
<path d="M168.962 207.728C168.962 209.475 163.322 210.835 155.534 211.187C153.569 211.274 151.467 211.3 149.287 211.251C138.569 211.01 129.958 209.066 129.958 206.914C129.955 206.862 129.96 206.81 129.972 206.759H129.958L130.002 206.656C130.012 206.621 130.026 206.587 130.042 206.555L132.514 200.255L135.499 192.653L139.679 181.998L142.878 173.842L146.858 163.7C147.355 162.431 148.279 161.641 149.275 161.641C149.411 161.64 149.545 161.655 149.676 161.684C150.518 161.863 151.269 162.602 151.701 163.702L155.714 173.915L158.922 182.178L163.149 193.047L166.185 200.856L166.233 200.861L168.763 207.207C168.871 207.38 168.962 207.553 168.962 207.728Z" fill="url(#paint6_linear_0_20211)"/>
<path d="M166.237 200.864C163.797 201.659 159.897 202.232 155.222 202.444C153.34 202.531 151.349 202.559 149.278 202.522C142.077 202.389 135.834 201.486 132.512 200.256L135.499 192.653C138.996 193.42 143.868 193.937 149.288 194.017C151.039 194.043 152.746 194.021 154.372 193.957C157.791 193.825 160.806 193.505 163.182 193.051L166.193 200.859L166.237 200.864Z" fill="white"/>
<path d="M158.957 182.178C157.094 182.374 155.047 182.508 152.874 182.568C151.71 182.601 150.512 182.613 149.288 182.601C146.076 182.581 142.867 182.379 139.68 181.998L142.879 173.842C144.881 173.996 147.038 174.084 149.288 174.097C150.08 174.101 150.862 174.096 151.634 174.081C153.044 174.055 154.408 174 155.715 173.915L158.957 182.178Z" fill="white"/>
<path opacity="0.2" d="M155.534 211.186C153.569 211.274 151.467 211.299 149.287 211.25C138.569 211.009 129.958 209.065 129.958 206.913C129.955 206.861 129.96 206.809 129.972 206.758H129.958L130.002 206.655C130.012 206.62 130.026 206.587 130.042 206.555L132.514 200.254L135.499 192.652L139.679 181.998L142.878 173.842L146.858 163.7C147.355 162.431 148.279 161.641 149.275 161.641C149.411 161.64 149.545 161.655 149.676 161.684C150.101 164.265 150.829 168.77 151.633 174.081C152.037 176.754 152.46 179.632 152.874 182.569C153.408 186.366 153.925 190.265 154.365 193.956C154.723 196.981 155.029 199.868 155.246 202.445C155.563 206.177 155.693 209.264 155.534 211.186Z" fill="url(#paint7_linear_0_20211)"/>
<path d="M87.3529 74.5203C88.374 74.5203 89.2018 73.7119 89.2018 72.7147C89.2018 71.7176 88.374 70.9092 87.3529 70.9092C86.3317 70.9092 85.5039 71.7176 85.5039 72.7147C85.5039 73.7119 86.3317 74.5203 87.3529 74.5203Z" fill="#FF5630"/>
<path d="M93.2669 74.5203C94.2881 74.5203 95.1159 73.7119 95.1159 72.7147C95.1159 71.7176 94.2881 70.9092 93.2669 70.9092C92.2458 70.9092 91.418 71.7176 91.418 72.7147C91.418 73.7119 92.2458 74.5203 93.2669 74.5203Z" fill="#FFAB00"/>
<path d="M99.1849 74.5203C100.206 74.5203 101.034 73.7119 101.034 72.7147C101.034 71.7176 100.206 70.9092 99.1849 70.9092C98.1637 70.9092 97.3359 71.7176 97.3359 72.7147C97.3359 73.7119 98.1637 74.5203 99.1849 74.5203Z" fill="#00A76F"/>
<defs>
<linearGradient id="paint0_linear_0_20211" x1="177.5" y1="260" x2="310.799" y2="15.5171" gradientUnits="userSpaceOnUse">
<stop/>
<stop offset="1" stop-opacity="0.01"/>
</linearGradient>
<linearGradient id="paint1_linear_0_20211" x1="123.422" y1="90.606" x2="123.422" y2="144.207" gradientUnits="userSpaceOnUse">
<stop stop-color="#5BE39A"/>
<stop offset="1" stop-color="#007867"/>
</linearGradient>
<linearGradient id="paint2_linear_0_20211" x1="123.422" y1="90.606" x2="123.422" y2="144.207" gradientUnits="userSpaceOnUse">
<stop stop-color="#5BE39A"/>
<stop offset="1" stop-color="#007867"/>
</linearGradient>
<linearGradient id="paint3_linear_0_20211" x1="117.53" y1="209.943" x2="184.681" y2="209.943" gradientUnits="userSpaceOnUse">
<stop stop-color="#FFC444"/>
<stop offset="1" stop-color="#F36F56"/>
</linearGradient>
<linearGradient id="paint4_linear_0_20211" x1="167.68" y1="209.804" x2="167.142" y2="211.32" gradientUnits="userSpaceOnUse">
<stop stop-color="#FFC444"/>
<stop offset="0.59" stop-color="#F8924F"/>
<stop offset="1" stop-color="#F36F56"/>
</linearGradient>
<linearGradient id="paint5_linear_0_20211" x1="155.954" y1="208.288" x2="155.738" y2="208.897" gradientUnits="userSpaceOnUse">
<stop stop-color="#FFC444"/>
<stop offset="0.59" stop-color="#F8924F"/>
<stop offset="1" stop-color="#F36F56"/>
</linearGradient>
<linearGradient id="paint6_linear_0_20211" x1="150.114" y1="147.386" x2="147.785" y2="224.914" gradientUnits="userSpaceOnUse">
<stop stop-color="#FFC444"/>
<stop offset="1" stop-color="#F36F56"/>
</linearGradient>
<linearGradient id="paint7_linear_0_20211" x1="129.958" y1="186.457" x2="155.602" y2="186.457" gradientUnits="userSpaceOnUse">
<stop stop-color="#FFC444"/>
<stop offset="1" stop-color="#F36F56"/>
</linearGradient>
</defs>
</svg>
