<svg width="20" height="20" viewBox="0 0 20 20" fill="none" xmlns="http://www.w3.org/2000/svg">
<path d="M10.0013 1.6665C8.35313 1.6665 6.74196 2.15525 5.37155 3.07092C4.00114 3.9866 2.93304 5.28809 2.30231 6.81081C1.67158 8.33353 1.50655 10.0091 1.8281 11.6256C2.14964 13.2421 2.94331 14.727 4.10875 15.8924C5.27419 17.0578 6.75905 17.8515 8.37555 18.173C9.99206 18.4946 11.6676 18.3296 13.1903 17.6988C14.7131 17.0681 16.0145 16 16.9302 14.6296C17.8459 13.2592 18.3346 11.648 18.3346 9.99984C18.3346 8.90549 18.1191 7.82186 17.7003 6.81081C17.2815 5.79976 16.6677 4.8811 15.8939 4.10728C15.12 3.33346 14.2014 2.71963 13.1903 2.30084C12.1793 1.88205 11.0957 1.6665 10.0013 1.6665ZM10.0013 16.6665C8.68276 16.6665 7.39383 16.2755 6.2975 15.543C5.20118 14.8104 4.34669 13.7692 3.84211 12.5511C3.33753 11.3329 3.2055 9.99244 3.46274 8.69924C3.71997 7.40603 4.35491 6.21814 5.28726 5.28579C6.21961 4.35344 7.4075 3.7185 8.7007 3.46127C9.99391 3.20403 11.3344 3.33606 12.5525 3.84064C13.7707 4.34523 14.8119 5.19971 15.5444 6.29604C16.277 7.39236 16.668 8.6813 16.668 9.99984C16.668 11.7679 15.9656 13.4636 14.7154 14.7139C13.4651 15.9641 11.7694 16.6665 10.0013 16.6665Z" fill="#919EAB"/>
<path d="M12.2513 6.9915L9.10131 11.1582L7.74297 9.39984C7.60705 9.22524 7.40733 9.11178 7.18776 9.08443C6.96818 9.05708 6.74674 9.11808 6.57214 9.254C6.39754 9.38993 6.28408 9.58964 6.25674 9.80922C6.22939 10.0288 6.29038 10.2502 6.42631 10.4248L8.45131 13.0165C8.52978 13.1158 8.62985 13.196 8.74392 13.2508C8.85799 13.3057 8.98306 13.3339 9.10964 13.3332C9.2369 13.3329 9.36241 13.3034 9.47653 13.2471C9.59064 13.1907 9.69034 13.109 9.76797 13.0082L13.5763 8.00817C13.7111 7.83136 13.7702 7.60823 13.7405 7.38788C13.7108 7.16752 13.5948 6.96799 13.418 6.83317C13.2412 6.69835 13.018 6.63929 12.7977 6.66899C12.5773 6.69868 12.3778 6.81469 12.243 6.9915H12.2513Z" fill="#919EAB"/>
</svg>
