<svg width="16" height="16" viewBox="0 0 16 16" fill="none" xmlns="http://www.w3.org/2000/svg">
<path d="M11.8067 4.19329C11.7447 4.13081 11.671 4.08121 11.5897 4.04737C11.5085 4.01352 11.4213 3.99609 11.3333 3.99609C11.2453 3.99609 11.1582 4.01352 11.0769 4.04737C10.9957 4.08121 10.922 4.13081 10.86 4.19329L5.33333 9.72663V5.99996C5.33333 5.82315 5.2631 5.65358 5.13807 5.52855C5.01305 5.40353 4.84348 5.33329 4.66667 5.33329C4.48986 5.33329 4.32029 5.40353 4.19526 5.52855C4.07024 5.65358 4 5.82315 4 5.99996V11.3333C4 11.5101 4.07024 11.6797 4.19526 11.8047C4.32029 11.9297 4.48986 12 4.66667 12H10C10.1768 12 10.3464 11.9297 10.4714 11.8047C10.5964 11.6797 10.6667 11.5101 10.6667 11.3333C10.6667 11.1565 10.5964 10.9869 10.4714 10.8619C10.3464 10.7369 10.1768 10.6666 10 10.6666H6.27333L11.8067 5.13996C11.8692 5.07798 11.9187 5.00425 11.9526 4.92301C11.9864 4.84177 12.0039 4.75463 12.0039 4.66663C12.0039 4.57862 11.9864 4.49148 11.9526 4.41024C11.9187 4.329 11.8692 4.25527 11.8067 4.19329Z" fill="white"/>
</svg>
