<svg width="18" height="18" viewBox="0 0 18 18" fill="none" xmlns="http://www.w3.org/2000/svg">
<path fill-rule="evenodd" clip-rule="evenodd" d="M8.99561 10.056L13.2363 14.297C13.3777 14.4335 13.5671 14.5091 13.7636 14.5074C13.9602 14.5057 14.1482 14.4268 14.2872 14.2878C14.4262 14.1488 14.505 13.9608 14.5067 13.7642C14.5084 13.5677 14.4328 13.3783 14.2963 13.2369L10.0556 8.99589L14.2963 4.75489C14.4328 4.61349 14.5084 4.42412 14.5067 4.22755C14.505 4.03099 14.4262 3.84295 14.2872 3.70395C14.1482 3.56496 13.9602 3.48611 13.7636 3.4844C13.5671 3.4827 13.3777 3.55826 13.2363 3.69482L8.99561 7.93582L4.75491 3.69482C4.61289 3.56164 4.42463 3.48893 4.22996 3.49209C4.03529 3.49525 3.84949 3.57403 3.71187 3.71176C3.57425 3.84949 3.49561 4.03536 3.49258 4.23004C3.48956 4.42473 3.56239 4.61295 3.69567 4.75489L7.93562 8.99589L3.69492 13.2369C3.62332 13.306 3.56621 13.3888 3.52693 13.4802C3.48764 13.5717 3.46696 13.6701 3.46609 13.7696C3.46523 13.8692 3.48419 13.9679 3.52189 14.06C3.55958 14.1522 3.61524 14.2359 3.68563 14.3062C3.75601 14.3766 3.83971 14.4323 3.93184 14.47C4.02397 14.5077 4.12268 14.5267 4.22222 14.5258C4.32175 14.5249 4.42012 14.5043 4.51158 14.465C4.60304 14.4257 4.68576 14.3686 4.75491 14.297L8.99561 10.056Z" fill="#006C9C"/>
</svg>
