<svg width="26" height="21" viewBox="0 0 26 21" fill="none" xmlns="http://www.w3.org/2000/svg">
<path d="M15.4952 18.1471C15.3605 18.1371 15.2368 18.0961 15.1347 18.0277L11.4871 15.5306L6.55367 17.3524C6.39338 17.4118 6.22694 17.4309 6.07327 17.4074C5.9196 17.384 5.78487 17.3189 5.68438 17.2196C5.5839 17.1203 5.5217 16.9907 5.50485 16.8457C5.488 16.7006 5.51718 16.5459 5.58907 16.3991L7.78607 11.9118L5.28323 8.40385C5.20598 8.29159 5.16801 8.15546 5.17338 8.01005C5.17875 7.86465 5.22726 7.71546 5.31372 7.57851C5.40528 7.43861 5.533 7.31794 5.68239 7.23021C5.83178 7.14247 5.99686 7.09119 6.1589 7.08217L11.154 6.78827L14.5009 2.80537C14.6105 2.67405 14.7524 2.56719 14.9104 2.49704C15.0683 2.42688 15.2359 2.39627 15.3939 2.40871C15.552 2.42115 15.6941 2.47613 15.8039 2.56736C15.9138 2.65859 15.9871 2.78238 16.0152 2.92454L16.9192 7.23371L21.5145 8.2824C21.6639 8.31593 21.7916 8.39026 21.8831 8.49695C21.9746 8.60365 22.0263 8.73843 22.0322 8.88601C22.035 9.02999 21.9945 9.1798 21.9151 9.31938C21.8356 9.45895 21.7201 9.58301 21.5811 9.67825L17.1519 12.6406L16.6374 17.2603C16.6223 17.4143 16.5599 17.5698 16.4576 17.7084C16.3553 17.847 16.2174 17.963 16.0601 18.0426C15.8772 18.1333 15.6785 18.17 15.4952 18.1471Z" fill="#FFAB00"/>
</svg>
