<svg width="20" height="20" viewBox="0 0 20 20" fill="none" xmlns="http://www.w3.org/2000/svg">
<path d="M17.5011 9.99996C17.5011 9.53972 17.128 9.16663 16.6677 9.16663C16.2075 9.16663 15.8344 9.53972 15.8344 9.99996V11.9166L12.3011 7.74996C12.0377 7.44214 11.5911 7.3683 11.2427 7.57496L7.68439 9.74996L3.97605 5.29996C3.78551 5.07071 3.48714 4.96054 3.19334 5.01093C2.89954 5.06132 2.65493 5.26462 2.55167 5.54426C2.44841 5.8239 2.50218 6.13738 2.69272 6.36663L6.85939 11.3666C7.12148 11.6817 7.57379 11.7595 7.92605 11.55L11.4927 9.40829L14.8261 13.3333H12.5011C12.0408 13.3333 11.6677 13.7064 11.6677 14.1666C11.6677 14.6269 12.0408 15 12.5011 15H16.6677C16.7703 14.9974 16.8717 14.9777 16.9677 14.9416L17.0844 14.875C17.1278 14.8531 17.1696 14.828 17.2094 14.8C17.255 14.7587 17.2943 14.711 17.3261 14.6583C17.354 14.6214 17.379 14.5824 17.4011 14.5416C17.4214 14.4966 17.4355 14.4489 17.4427 14.4C17.4765 14.3265 17.4963 14.2474 17.5011 14.1666V9.99996Z" fill="#7A4100"/>
</svg>
