<svg width="16" height="16" viewBox="0 0 16 16" fill="none" xmlns="http://www.w3.org/2000/svg">
<path fill-rule="evenodd" clip-rule="evenodd" d="M7.99967 1.3335C4.31778 1.3335 1.33301 4.31826 1.33301 8.00016C1.33301 11.6821 4.31778 14.6668 7.99967 14.6668C11.6816 14.6668 14.6663 11.6821 14.6663 8.00016C14.6663 6.23205 13.964 4.53636 12.7137 3.28612C11.4635 2.03588 9.76778 1.3335 7.99967 1.3335ZM8.66634 10.6668C8.66634 11.035 8.36786 11.3335 7.99967 11.3335C7.63148 11.3335 7.33301 11.035 7.33301 10.6668V7.3335C7.33301 6.96531 7.63148 6.66683 7.99967 6.66683C8.36786 6.66683 8.66634 6.96531 8.66634 7.3335V10.6668ZM7.33301 5.3335C7.33301 5.70169 7.63148 6.00016 7.99967 6.00016C8.36786 6.00016 8.66634 5.70169 8.66634 5.3335C8.66634 4.96531 8.36786 4.66683 7.99967 4.66683C7.63148 4.66683 7.33301 4.96531 7.33301 5.3335Z" fill="#637381"/>
</svg>
