<svg width="20" height="20" viewBox="0 0 20 20" fill="none" xmlns="http://www.w3.org/2000/svg">
<path fill-rule="evenodd" clip-rule="evenodd" d="M10.0013 18.3251C14.6038 18.3251 18.3346 14.5943 18.3346 9.99178C18.3346 5.38928 14.6038 1.65845 10.0013 1.65845C5.3988 1.65845 1.66797 5.38928 1.66797 9.99178C1.66797 14.5943 5.3988 18.3251 10.0013 18.3251ZM10.6263 6.65845C10.6263 6.49269 10.5605 6.33372 10.4432 6.21651C10.326 6.0993 10.1671 6.03345 10.0013 6.03345C9.83554 6.03345 9.67657 6.0993 9.55936 6.21651C9.44215 6.33372 9.3763 6.49269 9.3763 6.65845V9.99178C9.3763 10.1576 9.44214 10.3168 9.55964 10.4334L11.643 12.5168C11.7002 12.5782 11.7692 12.6274 11.8459 12.6616C11.9225 12.6958 12.0053 12.7141 12.0892 12.7156C12.1731 12.7171 12.2565 12.7017 12.3343 12.6702C12.4121 12.6388 12.4828 12.592 12.5422 12.5326C12.6015 12.4733 12.6483 12.4026 12.6797 12.3248C12.7112 12.247 12.7266 12.1636 12.7251 12.0797C12.7236 11.9958 12.7053 11.913 12.6711 11.8363C12.637 11.7597 12.5877 11.6907 12.5263 11.6334L10.6263 9.73345V6.65845Z" fill="#212B36"/>
</svg>
