<svg width="18" height="18" viewBox="0 0 18 18" fill="none" xmlns="http://www.w3.org/2000/svg">
<path fill-rule="evenodd" clip-rule="evenodd" d="M8.99567 10.0564L13.2364 14.2974C13.3778 14.434 13.5671 14.5096 13.7637 14.5079C13.9602 14.5062 14.1482 14.4273 14.2872 14.2883C14.4262 14.1493 14.5051 13.9613 14.5068 13.7647C14.5085 13.5681 14.4329 13.3788 14.2964 13.2374L10.0557 8.99638L14.2964 4.75537C14.4329 4.61398 14.5085 4.42461 14.5068 4.22804C14.5051 4.03147 14.4262 3.84344 14.2872 3.70444C14.1482 3.56544 13.9602 3.4866 13.7637 3.48489C13.5671 3.48318 13.3778 3.55875 13.2364 3.69531L8.99567 7.93631L4.75497 3.69531C4.61295 3.56212 4.42469 3.48942 4.23002 3.49258C4.03535 3.49574 3.84955 3.57452 3.71193 3.71225C3.57431 3.84998 3.49567 4.03585 3.49264 4.23053C3.48962 4.42522 3.56245 4.61344 3.69573 4.75537L7.93568 8.99638L3.69498 13.2374C3.62338 13.3065 3.56627 13.3893 3.52699 13.4807C3.4877 13.5722 3.46702 13.6706 3.46615 13.7701C3.46529 13.8697 3.48426 13.9684 3.52195 14.0605C3.55964 14.1526 3.6153 14.2363 3.68569 14.3067C3.75607 14.3771 3.83977 14.4328 3.9319 14.4705C4.02403 14.5082 4.12274 14.5272 4.22228 14.5263C4.32181 14.5254 4.42018 14.5047 4.51164 14.4654C4.6031 14.4262 4.68582 14.369 4.75497 14.2974L8.99567 10.0564Z" fill="#065E49"/>
</svg>
