<svg width="132" height="132" viewBox="0 0 132 132" fill="none" xmlns="http://www.w3.org/2000/svg">
<path opacity="0.24" d="M15.8398 64.68C15.8398 60.3059 19.3857 56.76 23.7598 56.76H108.24C112.614 56.76 116.16 60.3059 116.16 64.68V96.36C116.16 100.734 112.614 104.28 108.24 104.28H23.7598C19.3857 104.28 15.8398 100.734 15.8398 96.36V64.68Z" fill="#919EAB"/>
<rect opacity="0.48" x="26.3999" y="71.28" width="21.12" height="6.6" rx="3.3" fill="#919EAB"/>
<rect opacity="0.24" x="26.3999" y="83.1599" width="42.24" height="6.6" rx="3.3" fill="#919EAB"/>
<rect opacity="0.24" x="23.7598" y="27.72" width="84.48" height="23.76" rx="11.88" fill="#919EAB"/>
<path opacity="0.48" d="M35.5605 34.98C37.7038 34.98 39.4413 36.7175 39.4413 38.8608C39.4413 39.5976 39.236 40.2864 38.8794 40.8731L40.6491 42.6426C41.0099 43.0035 41.0099 43.5885 40.6491 43.9493C40.2991 44.2993 39.7384 44.3099 39.3757 43.9812L39.3423 43.9493L37.5728 42.1797C36.9861 42.5363 36.2972 42.7416 35.5605 42.7416C33.4172 42.7416 31.6797 41.0041 31.6797 38.8608C31.6797 36.7175 33.4172 34.98 35.5605 34.98ZM35.5605 36.828C34.4378 36.828 33.5277 37.7381 33.5277 38.8608C33.5277 39.9835 34.4378 40.8936 35.5605 40.8936C36.1086 40.8936 36.6179 40.6781 36.9979 40.2982C37.3779 39.9182 37.5933 39.4089 37.5933 38.8608C37.5933 37.7381 36.6832 36.828 35.5605 36.828Z" fill="#919EAB"/>
<rect x="47.5195" y="36.3" width="36.96" height="6.6" rx="3.3" fill="#919EAB"/>
</svg>
