<svg width="24" height="24" viewBox="0 0 24 24" fill="none" xmlns="http://www.w3.org/2000/svg">
<g opacity="0.32">
<path d="M12.584 7.76946C12.8506 7.23353 13.0006 6.62933 13.0006 5.99011C13.0006 5.35089 12.8506 4.74669 12.584 4.21076C13.1303 3.47036 14.0088 2.99011 14.9996 2.99011C16.6564 2.99011 17.9996 4.33326 17.9996 5.99011C17.9996 7.64697 16.6564 8.99011 14.9996 8.99011C14.0088 8.99011 13.1303 8.50986 12.584 7.76946Z" fill="#637381"/>
<path d="M14.0593 19.7559C14.6559 19.9067 15.3115 19.9901 15.9996 19.9901C18.761 19.9901 20.9996 18.647 20.9996 16.9901C20.9996 15.3333 18.761 13.9901 15.9996 13.9901C15.3106 13.9901 14.6542 14.0737 14.0569 14.225C15.2609 14.9434 16.0006 15.9179 16.0006 16.9911C16.0006 18.0636 15.2618 19.0376 14.0593 19.7559Z" fill="#637381"/>
</g>
<path d="M9.00195 9.99011C11.2111 9.99011 13.002 8.19925 13.002 5.99011C13.002 3.78097 11.2111 1.99011 9.00195 1.99011C6.79281 1.99011 5.00195 3.78097 5.00195 5.99011C5.00195 8.19925 6.79281 9.99011 9.00195 9.99011Z" fill="#637381"/>
<path d="M9.00195 20.9911C12.8679 20.9911 16.002 19.2003 16.002 16.9911C16.002 14.782 12.8679 12.9911 9.00195 12.9911C5.13596 12.9911 2.00195 14.782 2.00195 16.9911C2.00195 19.2003 5.13596 20.9911 9.00195 20.9911Z" fill="#637381"/>
</svg>
