<svg width="47" height="32" viewBox="0 0 47 32" fill="none" xmlns="http://www.w3.org/2000/svg">
<path d="M17.7143 16.7314C17.7143 17.0172 17.5771 17.2914 17.3428 17.4514C16.4228 18.0972 15.4286 17.4457 15.4286 16.5714V7.4286H8.57142V18.8572C8.57142 22.0057 11.1371 24.5714 14.2857 24.5714C15.6457 24.5714 16.9657 24.0857 18 23.2C17.8914 24.0457 17.4286 24.7429 16.6514 25.2286C15.9257 25.6857 14.9771 25.9257 13.9143 25.9257C12.8171 25.9257 11.7028 25.6686 10.6914 25.1829C10.6914 25.1829 10.5086 25.0971 10.28 24.9657V31.0571C11.8057 31.6743 13.48 32 15.0971 32C17.6571 32 19.9943 31.2 21.68 29.7429C23.5714 28.1143 24.5714 25.7314 24.5714 22.8572V7.4286H17.7143V16.7314ZM6.85714 18.8572V0.571462H0V17.7143C0 22.4229 3.10857 24.5714 5.99999 24.5714C6.86285 24.5714 7.72571 24.3714 8.49713 24.0114C8.61142 23.96 8.79428 23.8457 8.79428 23.8457C8.79428 23.8457 8.62285 23.6629 8.54856 23.5829C7.45142 22.3314 6.85714 20.7086 6.85714 18.8572ZM46.8571 14.2857V7.4286H44.4114C43.3885 2.04003 37.7257 -1.50282 32.0343 0.628604C28.8628 1.81146 26.2857 5.60003 26.2857 8.9886V24.5714H26.5828C28.3485 24.4971 30 23.7486 31.2285 22.4686C32.4628 21.1829 33.1428 19.4972 33.1428 17.72H36V10.8572H33.1428V8.97145C33.1428 8.24002 33.5314 7.55431 34.1714 7.20003C35.9257 6.22288 37.7142 7.48003 37.7142 9.14288V15.4286C37.7142 17.9143 38.6514 20.2229 40.3542 21.9314C41.9828 23.56 44.1885 24.4971 46.56 24.5714H46.8514V17.7143C45.5714 17.7086 44.5657 16.68 44.5657 15.4286V14.2857H46.8571Z" fill="white"/>
</svg>
