<svg width="24" height="24" viewBox="0 0 24 24" fill="none" xmlns="http://www.w3.org/2000/svg">
<path d="M4.9738 15.925L7.4988 12L4.9738 8.075C4.54047 7.40833 4.51547 6.729 4.8988 6.037C5.28214 5.345 5.8738 4.99933 6.6738 5H14.9988C15.3321 5 15.6448 5.075 15.9368 5.225C16.2288 5.375 16.4661 5.58333 16.6488 5.85L20.1738 10.85C20.4238 11.2 20.5488 11.5833 20.5488 12C20.5488 12.4167 20.4238 12.8 20.1738 13.15L16.6488 18.15C16.4655 18.4167 16.2281 18.625 15.9368 18.775C15.6455 18.925 15.3328 19 14.9988 19H6.6738C5.8738 19 5.28214 18.654 4.8988 17.962C4.51547 17.27 4.54047 16.591 4.9738 15.925Z" fill="#637381"/>
</svg>
