<svg width="78" height="50" viewBox="0 0 78 50" fill="none" xmlns="http://www.w3.org/2000/svg">
<path d="M5.26712 0H5.25901C2.35454 0 0 2.35453 0 5.25899V44.2795C0 47.1839 2.35454 49.5385 5.25901 49.5385H5.26712C8.17158 49.5385 10.5261 47.1839 10.5261 44.2795V5.25899C10.5261 2.35453 8.17158 0 5.26712 0Z" fill="#004B50"/>
<path d="M27.7558 0H27.7477C24.8432 0 22.4887 2.35453 22.4887 5.25899V44.2795C22.4887 47.1839 24.8432 49.5385 27.7477 49.5385H27.7558C30.6602 49.5385 33.0148 47.1839 33.0148 44.2795V5.25899C33.0148 2.35453 30.6602 0 27.7558 0Z" fill="#004B50"/>
<path d="M50.2528 0H50.2447C47.3402 0 44.9857 2.35453 44.9857 5.25899V44.2795C44.9857 47.1839 47.3402 49.5385 50.2447 49.5385H50.2528C53.1572 49.5385 55.5118 47.1839 55.5118 44.2795V5.25899C55.5118 2.35453 53.1572 0 50.2528 0Z" fill="#004B50"/>
<path d="M72.7415 0H72.7334C69.8289 0 67.4744 2.35453 67.4744 5.25899V44.2795C67.4744 47.1839 69.8289 49.5385 72.7334 49.5385H72.7415C75.6459 49.5385 78.0005 47.1839 78.0005 44.2795V5.25899C78.0005 2.35453 75.6459 0 72.7415 0Z" fill="#004B50"/>
</svg>
