<svg width="120" height="120" viewBox="0 0 120 120" fill="none" xmlns="http://www.w3.org/2000/svg">
<path fill-rule="evenodd" clip-rule="evenodd" d="M29.2583 100.284H85.1809C87.0773 100.281 88.8954 99.5272 90.2364 98.1862C91.5773 96.8453 92.3316 95.0271 92.3338 93.1307V30.0713C92.3338 29.4625 92.0564 28.8868 91.5804 28.5074L81.8322 20.7374C81.478 20.4551 81.0385 20.3014 80.5856 20.3014H29.2583C27.3619 20.3035 25.5438 21.0578 24.2029 22.3988C22.8619 23.7398 22.1076 25.5579 22.1055 27.4543V93.1307C22.1076 95.0271 22.8619 96.8452 24.2029 98.1862C25.5438 99.5272 27.3619 100.281 29.2583 100.284Z" fill="white"/>
<path opacity="0.2" d="M36.0128 58.9736L36.0122 58.9736C35.9214 58.9737 35.8314 58.9559 35.7475 58.9212L35.5566 59.3833L35.7475 58.9212C35.6636 58.8865 35.5873 58.8356 35.523 58.7714C35.4588 58.7072 35.4078 58.631 35.373 58.5471L34.916 58.7366L35.373 58.5471C35.3382 58.4632 35.3203 58.3733 35.3203 58.2825C35.3203 58.1916 35.3382 58.1017 35.373 58.0178C35.4078 57.9339 35.4588 57.8577 35.523 57.7935C35.5873 57.7293 35.6636 57.6784 35.7475 57.6437C35.8315 57.609 35.9214 57.5912 36.0122 57.5913H36.0128H73.5127C73.696 57.5913 73.8718 57.6641 74.0014 57.7937C74.131 57.9234 74.2038 58.0992 74.2038 58.2825C74.2038 58.4658 74.131 58.6415 74.0014 58.7712C73.8718 58.9008 73.696 58.9736 73.5127 58.9736L36.0128 58.9736ZM78.4263 62.9937H36.0129C35.9222 62.9937 35.8323 62.9758 35.7484 62.9411C35.6646 62.9064 35.5884 62.8555 35.5242 62.7913C35.46 62.7271 35.4091 62.6509 35.3744 62.5671C35.3397 62.4832 35.3218 62.3933 35.3218 62.3026C35.3218 62.2118 35.3397 62.1219 35.3744 62.0381C35.4091 61.9542 35.46 61.878 35.5242 61.8139C35.5884 61.7497 35.6646 61.6988 35.7484 61.664C35.8323 61.6293 35.9222 61.6114 36.0129 61.6114H78.4263C78.517 61.6114 78.6069 61.6293 78.6907 61.664C78.7746 61.6988 78.8508 61.7497 78.915 61.8139C78.9792 61.878 79.0301 61.9542 79.0648 62.0381C79.0995 62.1219 79.1174 62.2118 79.1174 62.3026C79.1174 62.3933 79.0995 62.4832 79.0648 62.5671C79.0301 62.6509 78.9792 62.7271 78.915 62.7913C78.8508 62.8555 78.7746 62.9064 78.6907 62.9411C78.6069 62.9758 78.517 62.9937 78.4263 62.9937Z" fill="url(#paint0_linear_0_26977)" stroke="#919EAB"/>
<path opacity="0.08" d="M36.0128 81.0098L36.0122 81.0098C35.9214 81.0099 35.8315 80.9921 35.7475 80.9574C35.6636 80.9227 35.5873 80.8719 35.523 80.8077C35.4588 80.7435 35.4078 80.6672 35.373 80.5833L34.9111 80.7748L35.373 80.5833C35.3382 80.4994 35.3203 80.4095 35.3203 80.3187C35.3203 80.2279 35.3382 80.1379 35.373 80.054C35.4078 79.9701 35.4588 79.8939 35.523 79.8297L35.1732 79.4795L35.523 79.8297C35.5873 79.7655 35.6636 79.7146 35.7475 79.6799C35.8315 79.6452 35.9214 79.6274 36.0122 79.6275H36.0128H78.4261C78.6094 79.6275 78.7852 79.7004 78.9148 79.83C79.0445 79.9596 79.1173 80.1354 79.1173 80.3187C79.1173 80.502 79.0445 80.6778 78.9148 80.8074C78.7852 80.937 78.6094 81.0098 78.4261 81.0098L36.0128 81.0098ZM73.5128 76.9897H36.0129C35.8296 76.9897 35.6538 76.9169 35.5242 76.7873C35.3946 76.6577 35.3218 76.4819 35.3218 76.2986C35.3218 76.1153 35.3946 75.9395 35.5242 75.8099C35.6538 75.6802 35.8296 75.6074 36.0129 75.6074H73.5128C73.6961 75.6074 73.8719 75.6802 74.0015 75.8099C74.1311 75.9395 74.2039 76.1153 74.2039 76.2986C74.2039 76.4819 74.1311 76.6577 74.0015 76.7873C73.8719 76.9169 73.6961 76.9897 73.5128 76.9897Z" fill="#919EAB" stroke="#919EAB"/>
<g opacity="0.4">
<mask id="path-4-inside-1_0_26977" fill="white">
<path d="M73.5127 41.4575H36.0128C35.8563 41.4577 35.7012 41.427 35.5566 41.3673C35.4119 41.3075 35.2804 41.2198 35.1697 41.1091C35.0589 40.9985 34.9711 40.8671 34.9111 40.7225C34.8512 40.5779 34.8203 40.4229 34.8203 40.2664C34.8203 40.1099 34.8512 39.9549 34.9111 39.8103C34.9711 39.6657 35.0589 39.5343 35.1697 39.4237C35.2804 39.313 35.4119 39.2253 35.5566 39.1655C35.7012 39.1058 35.8563 39.0751 36.0128 39.0752H73.5127C73.8286 39.0752 74.1315 39.2007 74.3549 39.4241C74.5783 39.6475 74.7038 39.9505 74.7038 40.2664C74.7038 40.5823 74.5783 40.8853 74.3549 41.1087C74.1315 41.332 73.8286 41.4575 73.5127 41.4575Z"/>
<path d="M78.4263 45.4777H36.0129C35.8565 45.4777 35.7016 45.4468 35.5571 45.387C35.4126 45.3271 35.2813 45.2394 35.1707 45.1288C35.06 45.0182 34.9723 44.8869 34.9124 44.7423C34.8526 44.5978 34.8218 44.4429 34.8218 44.2865C34.8218 44.1301 34.8526 43.9752 34.9124 43.8307C34.9723 43.6862 35.06 43.5548 35.1707 43.4442C35.2813 43.3336 35.4126 43.2459 35.5571 43.186C35.7016 43.1262 35.8565 43.0954 36.0129 43.0954H78.4263C78.5827 43.0954 78.7376 43.1262 78.8821 43.186C79.0266 43.2459 79.1579 43.3336 79.2685 43.4442C79.3791 43.5548 79.4669 43.6862 79.5267 43.8307C79.5866 43.9752 79.6174 44.1301 79.6174 44.2865C79.6174 44.4429 79.5866 44.5978 79.5267 44.7423C79.4669 44.8869 79.3791 45.0182 79.2685 45.1288C79.1579 45.2394 79.0266 45.3271 78.8821 45.387C78.7376 45.4468 78.5827 45.4777 78.4263 45.4777Z"/>
<path d="M92.1186 29.3913H83.4638C83.151 29.3913 82.8412 29.3296 82.5522 29.2099C82.2631 29.0902 82.0005 28.9147 81.7793 28.6935C81.5581 28.4723 81.3826 28.2097 81.2629 27.9206C81.1432 27.6316 81.0815 27.3218 81.0815 27.009V20.6167C81.0815 20.5887 81.0894 20.5613 81.1043 20.5376C81.1192 20.5138 81.1404 20.4948 81.1656 20.4826C81.1908 20.4704 81.2189 20.4656 81.2467 20.4687C81.2746 20.4717 81.3009 20.4826 81.3229 20.5L92.211 29.1256C92.2353 29.1448 92.2529 29.1711 92.2615 29.2008C92.2702 29.2305 92.2693 29.2621 92.2592 29.2913C92.249 29.3205 92.23 29.3458 92.2048 29.3637C92.1796 29.3816 92.1495 29.3913 92.1186 29.3913Z"/>
</mask>
<path d="M73.5127 41.4575H36.0128C35.8563 41.4577 35.7012 41.427 35.5566 41.3673C35.4119 41.3075 35.2804 41.2198 35.1697 41.1091C35.0589 40.9985 34.9711 40.8671 34.9111 40.7225C34.8512 40.5779 34.8203 40.4229 34.8203 40.2664C34.8203 40.1099 34.8512 39.9549 34.9111 39.8103C34.9711 39.6657 35.0589 39.5343 35.1697 39.4237C35.2804 39.313 35.4119 39.2253 35.5566 39.1655C35.7012 39.1058 35.8563 39.0751 36.0128 39.0752H73.5127C73.8286 39.0752 74.1315 39.2007 74.3549 39.4241C74.5783 39.6475 74.7038 39.9505 74.7038 40.2664C74.7038 40.5823 74.5783 40.8853 74.3549 41.1087C74.1315 41.332 73.8286 41.4575 73.5127 41.4575Z" fill="#919EAB"/>
<path d="M78.4263 45.4777H36.0129C35.8565 45.4777 35.7016 45.4468 35.5571 45.387C35.4126 45.3271 35.2813 45.2394 35.1707 45.1288C35.06 45.0182 34.9723 44.8869 34.9124 44.7423C34.8526 44.5978 34.8218 44.4429 34.8218 44.2865C34.8218 44.1301 34.8526 43.9752 34.9124 43.8307C34.9723 43.6862 35.06 43.5548 35.1707 43.4442C35.2813 43.3336 35.4126 43.2459 35.5571 43.186C35.7016 43.1262 35.8565 43.0954 36.0129 43.0954H78.4263C78.5827 43.0954 78.7376 43.1262 78.8821 43.186C79.0266 43.2459 79.1579 43.3336 79.2685 43.4442C79.3791 43.5548 79.4669 43.6862 79.5267 43.8307C79.5866 43.9752 79.6174 44.1301 79.6174 44.2865C79.6174 44.4429 79.5866 44.5978 79.5267 44.7423C79.4669 44.8869 79.3791 45.0182 79.2685 45.1288C79.1579 45.2394 79.0266 45.3271 78.8821 45.387C78.7376 45.4468 78.5827 45.4777 78.4263 45.4777Z" fill="#919EAB"/>
<path d="M92.1186 29.3913H83.4638C83.151 29.3913 82.8412 29.3296 82.5522 29.2099C82.2631 29.0902 82.0005 28.9147 81.7793 28.6935C81.5581 28.4723 81.3826 28.2097 81.2629 27.9206C81.1432 27.6316 81.0815 27.3218 81.0815 27.009V20.6167C81.0815 20.5887 81.0894 20.5613 81.1043 20.5376C81.1192 20.5138 81.1404 20.4948 81.1656 20.4826C81.1908 20.4704 81.2189 20.4656 81.2467 20.4687C81.2746 20.4717 81.3009 20.4826 81.3229 20.5L92.211 29.1256C92.2353 29.1448 92.2529 29.1711 92.2615 29.2008C92.2702 29.2305 92.2693 29.2621 92.2592 29.2913C92.249 29.3205 92.23 29.3458 92.2048 29.3637C92.1796 29.3816 92.1495 29.3913 92.1186 29.3913Z" fill="#919EAB"/>
<path d="M36.0128 41.4575V40.4575L36.0117 40.4575L36.0128 41.4575ZM35.5566 41.3673L35.9385 40.4431H35.9385L35.5566 41.3673ZM35.1697 41.1091L35.8764 40.4016L35.1697 41.1091ZM34.9111 40.7225L33.9873 41.1055H33.9873L34.9111 40.7225ZM34.9111 39.8103L33.9873 39.4273H33.9873L34.9111 39.8103ZM35.1697 39.4237L35.8764 40.1312H35.8764L35.1697 39.4237ZM35.5566 39.1655L35.1746 38.2413H35.1746L35.5566 39.1655ZM36.0128 39.0752L36.0117 40.0752H36.0128V39.0752ZM74.3549 39.4241L75.062 38.717L74.3549 39.4241ZM74.3549 41.1087L73.6478 40.4016H73.6478L74.3549 41.1087ZM35.5571 45.387L35.9398 44.4631H35.9398L35.5571 45.387ZM35.1707 45.1288L34.4636 45.8359H34.4636L35.1707 45.1288ZM34.9124 44.7423L33.9886 45.125H33.9886L34.9124 44.7423ZM34.9124 43.8307L35.8363 44.2134L34.9124 43.8307ZM35.1707 43.4442L34.4636 42.7371H34.4636L35.1707 43.4442ZM35.5571 43.186L35.9398 44.1099H35.9398L35.5571 43.186ZM79.5267 43.8307L78.6028 44.2133L78.6029 44.2134L79.5267 43.8307ZM79.5267 44.7423L78.6029 44.3597L78.6028 44.3597L79.5267 44.7423ZM92.1186 29.3913L92.1186 28.3913H92.1186V29.3913ZM81.0815 20.6167L80.0815 20.6167V20.6167H81.0815ZM81.3229 20.5L81.9439 19.7161L81.9438 19.7161L81.3229 20.5ZM92.211 29.1256L92.832 28.3418L92.832 28.3418L92.211 29.1256ZM73.5127 40.4575H36.0128V42.4575H73.5127V40.4575ZM36.0117 40.4575C35.9865 40.4576 35.9617 40.4526 35.9385 40.4431L35.1746 42.2915C35.4408 42.4014 35.726 42.4579 36.0139 42.4575L36.0117 40.4575ZM35.9385 40.4431C35.9153 40.4335 35.8942 40.4194 35.8764 40.4016L34.463 41.8166C34.6667 42.0201 34.9085 42.1815 35.1746 42.2915L35.9385 40.4431ZM35.8764 40.4016C35.8586 40.3839 35.8445 40.3628 35.8349 40.3396L33.9873 41.1055C34.0976 41.3715 34.2592 41.6131 34.463 41.8166L35.8764 40.4016ZM35.8349 40.3396C35.8253 40.3164 35.8203 40.2915 35.8203 40.2664H33.8203C33.8203 40.5544 33.8771 40.8395 33.9873 41.1055L35.8349 40.3396ZM35.8203 40.2664C35.8203 40.2413 35.8253 40.2164 35.8349 40.1932L33.9873 39.4273C33.8771 39.6933 33.8203 39.9784 33.8203 40.2664H35.8203ZM35.8349 40.1932C35.8445 40.17 35.8586 40.1489 35.8764 40.1312L34.463 38.7162C34.2592 38.9197 34.0976 39.1613 33.9873 39.4273L35.8349 40.1932ZM35.8764 40.1312C35.8941 40.1134 35.9152 40.0993 35.9385 40.0897L35.1746 38.2413C34.9085 38.3513 34.6667 38.5127 34.463 38.7162L35.8764 40.1312ZM35.9385 40.0897C35.9617 40.0801 35.9866 40.0752 36.0117 40.0752L36.0139 38.0752C35.7259 38.0749 35.4408 38.1314 35.1746 38.2413L35.9385 40.0897ZM36.0128 40.0752H73.5127V38.0752H36.0128V40.0752ZM73.5127 40.0752C73.5634 40.0752 73.612 40.0954 73.6478 40.1312L75.062 38.717C74.6511 38.3061 74.0938 38.0752 73.5127 38.0752V40.0752ZM73.6478 40.1312C73.6837 40.1671 73.7038 40.2157 73.7038 40.2664H75.7038C75.7038 39.6853 75.473 39.1279 75.062 38.717L73.6478 40.1312ZM73.7038 40.2664C73.7038 40.3171 73.6837 40.3657 73.6478 40.4016L75.062 41.8158C75.473 41.4049 75.7038 40.8475 75.7038 40.2664H73.7038ZM73.6478 40.4016C73.612 40.4374 73.5634 40.4575 73.5127 40.4575V42.4575C74.0938 42.4575 74.6511 42.2267 75.062 41.8158L73.6478 40.4016ZM78.4263 44.4777H36.0129V46.4777H78.4263V44.4777ZM36.0129 44.4777C35.9878 44.4777 35.963 44.4727 35.9398 44.4631L35.1744 46.3109C35.4402 46.421 35.7252 46.4777 36.0129 46.4777V44.4777ZM35.9398 44.4631C35.9166 44.4535 35.8955 44.4394 35.8778 44.4217L34.4636 45.8359C34.667 46.0393 34.9086 46.2007 35.1744 46.3109L35.9398 44.4631ZM35.8778 44.4217C35.86 44.4039 35.8459 44.3828 35.8363 44.3597L33.9886 45.125C34.0987 45.3909 34.2601 45.6324 34.4636 45.8359L35.8778 44.4217ZM35.8363 44.3597C35.8267 44.3365 35.8218 44.3116 35.8218 44.2865H33.8218C33.8218 44.5743 33.8785 44.8592 33.9886 45.125L35.8363 44.3597ZM35.8218 44.2865C35.8218 44.2614 35.8267 44.2365 35.8363 44.2134L33.9886 43.448C33.8785 43.7138 33.8218 43.9988 33.8218 44.2865H35.8218ZM35.8363 44.2134C35.8459 44.1902 35.86 44.1691 35.8778 44.1514L34.4636 42.7371C34.2601 42.9406 34.0987 43.1821 33.9886 43.448L35.8363 44.2134ZM35.8778 44.1514C35.8955 44.1336 35.9166 44.1195 35.9398 44.1099L35.1744 42.2622C34.9086 42.3723 34.667 42.5337 34.4636 42.7371L35.8778 44.1514ZM35.9398 44.1099C35.963 44.1003 35.9878 44.0954 36.0129 44.0954V42.0954C35.7252 42.0954 35.4402 42.152 35.1744 42.2622L35.9398 44.1099ZM36.0129 44.0954H78.4263V42.0954H36.0129V44.0954ZM78.4263 44.0954C78.4514 44.0954 78.4762 44.1003 78.4994 44.1099L79.2648 42.2622C78.9989 42.152 78.714 42.0954 78.4263 42.0954V44.0954ZM78.4994 44.1099C78.5226 44.1195 78.5437 44.1336 78.5614 44.1514L79.9756 42.7371C79.7722 42.5337 79.5306 42.3723 79.2648 42.2622L78.4994 44.1099ZM78.5614 44.1514C78.5792 44.1691 78.5933 44.1902 78.6028 44.2133L80.4506 43.448C80.3405 43.1821 80.1791 42.9406 79.9756 42.7371L78.5614 44.1514ZM78.6029 44.2134C78.6125 44.2366 78.6174 44.2614 78.6174 44.2865H80.6174C80.6174 43.9988 80.5607 43.7138 80.4506 43.448L78.6029 44.2134ZM78.6174 44.2865C78.6174 44.3116 78.6125 44.3365 78.6029 44.3597L80.4506 45.125C80.5607 44.8592 80.6174 44.5743 80.6174 44.2865H78.6174ZM78.6028 44.3597C78.5933 44.3828 78.5792 44.4039 78.5614 44.4217L79.9756 45.8359C80.1791 45.6324 80.3405 45.3909 80.4506 45.125L78.6028 44.3597ZM78.5614 44.4217C78.5437 44.4394 78.5226 44.4535 78.4994 44.4631L79.2648 46.3109C79.5306 46.2007 79.7722 46.0394 79.9756 45.8359L78.5614 44.4217ZM78.4994 44.4631C78.4762 44.4727 78.4514 44.4777 78.4263 44.4777V46.4777C78.714 46.4777 78.9989 46.421 79.2648 46.3109L78.4994 44.4631ZM92.1186 28.3913H83.4638V30.3913H92.1186V28.3913ZM83.4638 28.3913C83.2823 28.3913 83.1026 28.3555 82.9348 28.286L82.1695 30.1338C82.5798 30.3038 83.0197 30.3913 83.4638 30.3913V28.3913ZM82.9348 28.286C82.7671 28.2166 82.6148 28.1147 82.4864 27.9864L81.0722 29.4006C81.3863 29.7147 81.7591 29.9638 82.1695 30.1338L82.9348 28.286ZM82.4864 27.9864C82.358 27.858 82.2562 27.7056 82.1868 27.5379L80.339 28.3033C80.509 28.7137 80.7581 29.0865 81.0722 29.4006L82.4864 27.9864ZM82.1868 27.5379C82.1173 27.3702 82.0815 27.1905 82.0815 27.009H80.0815C80.0815 27.4531 80.169 27.8929 80.339 28.3033L82.1868 27.5379ZM82.0815 27.009V20.6167H80.0815V27.009H82.0815ZM82.0815 20.6167C82.0815 20.7765 82.0365 20.9332 81.9514 21.0689L80.2571 20.0062C80.1423 20.1893 80.0815 20.4009 80.0815 20.6167L82.0815 20.6167ZM81.9514 21.0689C81.8664 21.2044 81.745 21.3133 81.6009 21.3829L80.7303 19.5824C80.5359 19.6764 80.3719 19.8233 80.2571 20.0062L81.9514 21.0689ZM81.6009 21.3829C81.4569 21.4526 81.2962 21.4802 81.1372 21.4627L81.3563 19.4747C81.1417 19.451 80.9247 19.4883 80.7303 19.5824L81.6009 21.3829ZM81.1372 21.4627C80.9781 21.4451 80.8273 21.3831 80.7019 21.2838L81.9438 19.7161C81.7747 19.5821 81.571 19.4984 81.3563 19.4747L81.1372 21.4627ZM80.7019 21.2838L91.5901 29.9095L92.832 28.3418L81.9439 19.7161L80.7019 21.2838ZM91.5901 29.9095C91.4514 29.7997 91.3506 29.6495 91.3013 29.4799L93.2218 28.9216C93.1552 28.6927 93.0191 28.49 92.832 28.3418L91.5901 29.9095ZM91.3013 29.4799C91.252 29.3103 91.2567 29.1294 91.3148 28.9625L93.2036 29.6201C93.282 29.3948 93.2884 29.1507 93.2218 28.9216L91.3013 29.4799ZM91.3148 28.9625C91.3729 28.7957 91.4815 28.651 91.6255 28.5486L92.7841 30.1788C92.9786 30.0406 93.1252 29.8454 93.2036 29.6201L91.3148 28.9625ZM91.6255 28.5486C91.7695 28.4463 91.9419 28.3912 92.1186 28.3913L92.1185 30.3913C92.3571 30.3913 92.5897 30.317 92.7841 30.1788L91.6255 28.5486Z" fill="#919EAB" mask="url(#path-4-inside-1_0_26977)"/>
</g>
<path opacity="0.2" d="M38.3863 25.95C38.3863 29.3024 37.3922 32.5795 35.5297 35.3669C33.6673 38.1543 31.02 40.3268 27.9228 41.6098C24.8256 42.8927 21.4175 43.2283 18.1296 42.5743C14.8416 41.9203 11.8214 40.306 9.45088 37.9355C7.08038 35.565 5.46604 32.5448 4.81203 29.2568C4.15801 25.9688 4.49367 22.5607 5.77658 19.4635C7.05948 16.3663 9.23201 13.7191 12.0194 11.8566C14.8068 9.9941 18.0839 9 21.4363 9C25.9313 9.00142 30.2418 10.7877 33.4202 13.9661C36.5987 17.1445 38.3849 21.455 38.3863 25.95Z" fill="#919EAB"/>
<path d="M37.7848 25.9494C37.7848 29.183 36.8259 32.344 35.0294 35.0326C33.2329 37.7213 30.6795 39.8168 27.692 41.0543C24.7045 42.2917 21.4172 42.6155 18.2457 41.9847C15.0743 41.3538 12.1611 39.7967 9.87458 37.5102C7.58807 35.2237 6.03094 32.3105 5.40009 29.139C4.76925 25.9675 5.09302 22.6802 6.33047 19.6927C7.56792 16.7053 9.66346 14.1518 12.3521 12.3553C15.0408 10.5589 18.2018 9.59998 21.4354 9.59998C25.7711 9.60134 29.9288 11.3243 32.9946 14.3901C36.0604 17.4559 37.7834 21.6137 37.7848 25.9494Z" fill="#C8FAD6"/>
<mask id="mask0_0_26977" style="mask-type:alpha" maskUnits="userSpaceOnUse" x="5" y="9" width="33" height="34">
<path d="M37.7848 25.9494C37.7848 29.183 36.8259 32.344 35.0294 35.0326C33.2329 37.7213 30.6795 39.8168 27.692 41.0543C24.7045 42.2917 21.4172 42.6155 18.2457 41.9847C15.0743 41.3538 12.1611 39.7967 9.87458 37.5102C7.58807 35.2237 6.03094 32.3105 5.40009 29.139C4.76925 25.9675 5.09302 22.6802 6.33047 19.6927C7.56792 16.7053 9.66346 14.1518 12.3521 12.3553C15.0408 10.5589 18.2018 9.59998 21.4354 9.59998C25.7711 9.60134 29.9288 11.3243 32.9946 14.3901C36.0604 17.4559 37.7834 21.6137 37.7848 25.9494Z" fill="white"/>
</mask>
<g mask="url(#mask0_0_26977)">
<path d="M21.6861 17.657C24.8673 17.657 27.4461 20.2358 27.4461 23.417L27.4462 24.0512C28.0299 24.1492 28.4747 24.6569 28.4747 25.2684V26.7084C28.4747 27.3309 28.0138 27.8458 27.4146 27.9305C27.2021 29.9676 25.9277 31.6889 24.1548 32.5312L24.1547 34.4227H24.5661C28.6562 34.4227 31.9718 37.7383 31.9718 41.8284V42.7541H11.4004V41.8284C11.4004 37.7383 14.716 34.4227 18.8061 34.4227H19.2175L19.2175 32.5312C17.4445 31.689 16.1701 29.9676 15.9575 27.9305C15.3584 27.8458 14.8975 27.3309 14.8975 26.7084V25.2684C14.8975 24.6568 15.3424 24.1491 15.9261 24.0512L15.9261 23.417C15.9261 20.2358 18.5049 17.657 21.6861 17.657Z" fill="#FDBAB9"/>
<path d="M16.6461 35.1784C16.6461 36.8531 18.9256 38.2106 21.7375 38.2106C24.5494 38.2106 26.829 36.8531 26.829 35.1784C26.829 35.0383 26.813 34.9004 26.7821 34.7653C29.7896 35.7071 31.9718 38.5156 31.9718 41.8337V42.7541H11.4004V41.8337C11.4004 38.4749 13.6364 35.6384 16.701 34.7314C16.6648 34.8774 16.6461 35.0266 16.6461 35.1784Z" fill="#007867"/>
<path d="M16.6461 35.1784C16.6461 36.8531 18.9256 38.2106 21.7375 38.2106C24.5494 38.2106 26.829 36.8531 26.829 35.1784C26.829 35.0383 26.813 34.9004 26.7821 34.7653C29.7896 35.7071 31.9718 38.5156 31.9718 41.8337V42.7541H11.4004V41.8337C11.4004 38.4749 13.6364 35.6384 16.701 34.7314C16.6648 34.8774 16.6461 35.0266 16.6461 35.1784Z" fill="#5BE49B"/>
<g opacity="0.16">
<path d="M19.1133 29.3423C19.2583 30.3321 20.354 31.1312 21.6847 31.1312C23.0186 31.1312 24.1169 30.3272 24.2561 29.2529C24.2666 29.2118 24.233 29.074 24.0325 29.074C21.9767 29.074 20.4236 29.074 19.3369 29.074C19.1527 29.074 19.0999 29.2016 19.1133 29.3423Z" fill="black"/>
<path fill-rule="evenodd" clip-rule="evenodd" d="M20.4505 27.3254C20.4505 27.7799 21.0031 28.1483 21.6848 28.1483C22.3665 28.1483 22.9191 27.7799 22.9191 27.3254" fill="black"/>
</g>
<path d="M19.0113 26.0912C19.3521 26.0912 19.6284 25.8149 19.6284 25.4741C19.6284 25.1332 19.3521 24.8569 19.0113 24.8569C18.6704 24.8569 18.3941 25.1332 18.3941 25.4741C18.3941 25.8149 18.6704 26.0912 19.0113 26.0912Z" fill="#004B50"/>
<path d="M24.3597 26.0912C24.7006 26.0912 24.9769 25.8149 24.9769 25.4741C24.9769 25.1332 24.7006 24.8569 24.3597 24.8569C24.0189 24.8569 23.7426 25.1332 23.7426 25.4741C23.7426 25.8149 24.0189 26.0912 24.3597 26.0912Z" fill="#004B50"/>
<path d="M17.5336 24.1532C17.9362 23.5866 19.0402 23.2689 19.9911 23.5024C20.1014 23.5295 20.2129 23.462 20.24 23.3517C20.267 23.2414 20.1996 23.13 20.0892 23.1029C18.9849 22.8317 17.7066 23.1996 17.1982 23.9149C17.1324 24.0075 17.1541 24.1359 17.2467 24.2018C17.3393 24.2676 17.4678 24.2459 17.5336 24.1532Z" fill="#004B50"/>
<path d="M25.838 24.1532C25.4353 23.5866 24.3314 23.2689 23.3805 23.5024C23.2701 23.5295 23.1587 23.462 23.1316 23.3517C23.1045 23.2414 23.172 23.13 23.2824 23.1029C24.3867 22.8317 25.665 23.1996 26.1734 23.9149C26.2392 24.0075 26.2175 24.1359 26.1249 24.2018C26.0323 24.2676 25.9038 24.2459 25.838 24.1532Z" fill="#004B50"/>
<path d="M21.6849 16.1141C25.5477 16.1141 28.6792 19.2456 28.6792 23.1084L28.6792 26.2717C28.7692 27.2799 28.8534 27.9862 28.9318 28.3906C29.0735 29.1213 29.5175 28.8803 29.5175 29.9196C29.5175 30.959 29.0723 31.3082 29.0704 32.2324C29.0684 33.1566 30.6541 33.8916 30.6541 35.0648C30.6541 36.238 29.9264 41.7745 22.67 41.7745C21.1199 41.7745 19.7995 41.3335 18.7089 40.4515C18.7792 41.119 18.8455 41.8866 18.9078 42.7541H14.0735C14.1694 40.3091 13.3242 38.9419 13.3242 36.2171C13.3242 33.4924 14.7269 29.5295 14.6906 28.5598C14.6927 28.4993 14.6948 28.4276 14.6971 28.3446C14.6927 28.2454 14.6906 28.1457 14.6906 28.0456V23.1084C14.6906 22.6999 14.7256 22.2996 14.7928 21.9103C14.7932 21.8984 14.7933 21.8863 14.7935 21.8741L14.7978 21.8821C15.3775 18.604 18.2404 16.1141 21.6849 16.1141ZM21.7363 19.4056H21.6335C18.5375 19.4056 16.0278 21.9153 16.0278 25.0113V27.377C16.0278 30.4729 18.5375 32.9827 21.6335 32.9827H21.7363C24.8323 32.9827 27.342 30.4729 27.342 27.377V25.0113C27.342 21.9153 24.8323 19.4056 21.7363 19.4056Z" fill="#00A76F"/>
<g opacity="0.9">
<path fill-rule="evenodd" clip-rule="evenodd" d="M21.6857 17.2455C25.2077 17.2455 28.0629 20.0776 28.0629 23.5712C28.0629 23.9738 28.025 24.3676 27.9525 24.7493C27.7891 21.4297 25.0459 18.7883 21.6857 18.7883C18.3256 18.7883 15.5824 21.4297 15.4191 24.7493C15.3465 24.3676 15.3086 23.9738 15.3086 23.5712C15.3086 20.0776 18.1637 17.2455 21.6857 17.2455Z" fill="#007867"/>
<path fill-rule="evenodd" clip-rule="evenodd" d="M28.4393 35.5015C28.4539 35.5344 28.4675 35.568 28.4799 35.6021C28.9455 36.8813 27.6491 38.5276 25.5844 39.2791C23.5196 40.0306 21.4683 39.6028 21.0027 38.3236C20.9903 38.2894 20.9791 38.255 20.9692 38.2203C21.8119 38.8018 23.4776 38.8294 25.1934 38.2049C26.9062 37.5815 28.163 36.4924 28.4377 35.5067L28.4393 35.5015ZM27.245 33.9233C27.2521 33.9492 27.2579 33.9755 27.2626 34.0021C27.4384 34.9993 25.9012 36.1039 23.8291 36.4692C21.757 36.8346 19.9347 36.3224 19.7589 35.3252C19.7542 35.2986 19.7507 35.2719 19.7485 35.2452C20.4157 35.7578 21.9597 35.9355 23.6815 35.6319C25.4003 35.3288 26.7887 34.6357 27.2426 33.927L27.245 33.9233ZM27.4456 25.8341V28.1998C27.4456 31.2957 24.9358 33.8055 21.8399 33.8055H21.5313C18.4353 33.8055 15.9256 31.2957 15.9256 28.1998V25.8341C15.9256 25.4537 15.9635 25.0822 16.0357 24.7231C16.0309 24.8186 16.0284 24.9146 16.0284 25.0112V27.3769C16.0284 30.4729 18.5382 32.9826 21.6342 32.9826H21.737C24.833 32.9826 27.3427 30.4729 27.3427 27.3769V25.0112C27.3427 24.9146 27.3403 24.8186 27.3355 24.7232C27.4077 25.0822 27.4456 25.4537 27.4456 25.8341Z" fill="#007867"/>
</g>
</g>
<path opacity="0.2" d="M117.31 59.5406C117.31 63.1187 116.178 66.605 114.076 69.5007C111.974 72.3964 109.01 74.5529 105.608 75.6616C105.506 75.6939 105.404 75.7263 105.301 75.7571C104.861 75.8927 104.414 76.0083 103.959 76.1069C103.136 76.2854 102.301 76.4013 101.461 76.4536C101.096 76.4782 100.729 76.4906 100.36 76.4906C98.4513 76.4925 96.5564 76.1715 94.7552 75.5414C94.7029 75.5229 94.6505 75.5044 94.5996 75.4859C91.6813 74.4319 89.1082 72.5971 87.1608 70.1815C85.2133 67.7659 83.9663 64.8621 83.5555 61.7865C83.1447 58.711 83.5859 55.5817 84.8311 52.7396C86.0762 49.8976 88.0775 47.4518 90.6169 45.6688C93.1564 43.8858 96.1364 42.834 99.2324 42.628C102.328 42.422 105.422 43.0697 108.175 44.5005C110.928 45.9313 113.236 48.0904 114.847 50.7424C116.457 53.3945 117.309 56.4377 117.31 59.5406Z" fill="#919EAB"/>
<path d="M116.708 59.54C116.708 62.9913 115.616 66.3541 113.589 69.1472C111.561 71.9403 108.702 74.0203 105.421 75.0898C105.323 75.121 105.225 75.1522 105.125 75.1819C104.7 75.3127 104.269 75.4242 103.83 75.5193C103.037 75.6915 102.232 75.8033 101.421 75.8537C101.069 75.8775 100.715 75.8894 100.358 75.8894C98.5178 75.8912 96.6901 75.5817 94.9527 74.9738C94.9022 74.956 94.8517 74.9382 94.8026 74.9203C91.9877 73.9037 89.5058 72.1339 87.6274 69.8039C85.7489 67.4738 84.546 64.6729 84.1498 61.7064C83.7536 58.7398 84.1791 55.7214 85.3802 52.98C86.5812 50.2387 88.5116 47.8795 90.9611 46.1597C93.4105 44.4399 96.285 43.4253 99.2713 43.2266C102.258 43.0279 105.241 43.6527 107.897 45.0328C110.553 46.413 112.779 48.4955 114.332 51.0536C115.886 53.6116 116.708 56.5471 116.708 59.54Z" fill="#C8FAD6"/>
<mask id="mask1_0_26977" style="mask-type:alpha" maskUnits="userSpaceOnUse" x="84" y="43" width="33" height="33">
<path d="M116.708 59.54C116.708 62.9913 115.616 66.3541 113.589 69.1472C111.561 71.9403 108.702 74.0203 105.421 75.0898C105.323 75.121 105.225 75.1522 105.125 75.1819C104.7 75.3127 104.269 75.4242 103.83 75.5193C103.037 75.6915 102.232 75.8033 101.421 75.8537C101.069 75.8775 100.715 75.8894 100.358 75.8894C98.5178 75.8912 96.6901 75.5817 94.9527 74.9738C94.9022 74.956 94.8517 74.9382 94.8026 74.9203C91.9877 73.9037 89.5058 72.1339 87.6274 69.8039C85.7489 67.4738 84.546 64.6729 84.1498 61.7064C83.7536 58.7398 84.1791 55.7214 85.3802 52.98C86.5812 50.2387 88.5116 47.8795 90.9611 46.1597C93.4105 44.4399 96.285 43.4253 99.2713 43.2266C102.258 43.0279 105.241 43.6527 107.897 45.0328C110.553 46.413 112.779 48.4955 114.332 51.0536C115.886 53.6116 116.708 56.5471 116.708 59.54Z" fill="white"/>
</mask>
<g mask="url(#mask1_0_26977)">
<path d="M100.131 51.2568C103.313 51.2568 105.891 53.8357 105.891 57.0168L105.892 57.6511C106.475 57.749 106.92 58.2567 106.92 58.8683V60.3083C106.92 60.9308 106.459 61.4457 105.86 61.5303C105.647 63.5674 104.373 65.2888 102.6 66.1311L102.6 68.0226H103.011C107.101 68.0226 110.417 71.3382 110.417 75.4283V76.354H89.8457V75.4283C89.8457 71.3382 93.1614 68.0226 97.2514 68.0226H97.6628L97.6628 66.1311C95.8899 65.2888 94.6154 63.5675 94.4028 61.5303C93.8037 61.4457 93.3428 60.9308 93.3428 60.3083V58.8683C93.3428 58.2567 93.7877 57.749 94.3714 57.651L94.3714 57.0168C94.3714 53.8357 96.9503 51.2568 100.131 51.2568Z" fill="#FDBAB9"/>
<path d="M103.011 68.0278C107.101 68.0278 110.417 71.3435 110.417 75.4335V76.3539H89.8457V75.4335C89.8457 71.3435 93.1614 68.0278 97.2514 68.0278L97.3741 68.0279C97.361 68.129 97.3543 68.232 97.3543 68.3364C97.3543 69.7566 98.5976 70.9078 100.131 70.9078C101.665 70.9078 102.909 69.7566 102.909 68.3364C102.909 68.232 102.902 68.129 102.889 68.0279L103.011 68.0278Z" fill="#C8FAD6"/>
<path fill-rule="evenodd" clip-rule="evenodd" d="M96.4286 72.0854C96.4286 73.6498 96.6302 75.1116 96.9801 76.3541L89.8457 76.354V75.4336C89.8457 71.4544 92.9841 68.2082 96.9207 68.0352C96.6075 69.2292 96.4286 70.6118 96.4286 72.0854ZM110.417 75.4336V76.354L103.386 76.3541C103.735 75.1116 103.937 73.6498 103.937 72.0854C103.937 70.614 103.759 69.2333 103.446 68.0405C107.334 68.2656 110.417 71.4896 110.417 75.4336Z" fill="#00A76F"/>
<path fill-rule="evenodd" clip-rule="evenodd" d="M105.172 73.8855L106.155 73.1483C106.303 73.037 106.508 73.0388 106.654 73.1527L107.332 73.6798L105.172 73.8855Z" fill="#C8FAD6"/>
<path fill-rule="evenodd" clip-rule="evenodd" d="M96.9425 67.9198C96.5311 69.9084 96.7025 72.7198 97.4568 76.3541H95.8111L94.3711 72.6512L94.9882 71.7255L94.3711 71.1084L96.3254 68.0227C96.5339 67.9578 96.7397 67.9235 96.9425 67.9198Z" fill="#004B50"/>
<path fill-rule="evenodd" clip-rule="evenodd" d="M103.32 67.9198C103.731 69.9084 103.56 72.7198 102.805 76.3541H104.451L105.891 72.6512L105.274 71.7255L105.891 71.1084L103.937 68.0227C103.728 67.9578 103.523 67.9235 103.32 67.9198Z" fill="#004B50"/>
<path fill-rule="evenodd" clip-rule="evenodd" d="M102.6 67.2552C103.296 67.728 103.731 68.3987 103.731 69.1425C103.731 69.9037 103.276 70.5883 102.55 71.0627L101.939 70.5813L101.468 70.6154L101.571 70.2913L101.563 70.285C102.191 69.9618 102.6 69.4318 102.6 68.8328L102.6 67.2552ZM98.6993 70.285L98.6913 70.2913L98.7941 70.6154L98.323 70.5813L97.712 71.0627C97.0003 70.5973 96.5485 69.9294 96.5317 69.1854L96.5312 69.1425C96.5312 68.3986 96.9661 67.728 97.6627 67.2551L97.6627 68.8328C97.6627 69.4318 98.0718 69.9618 98.6993 70.285Z" fill="#5BE49B"/>
<g opacity="0.16">
<path fill-rule="evenodd" clip-rule="evenodd" d="M98.6914 62.8797C98.6914 63.675 99.3361 64.3197 100.131 64.3197C100.927 64.3197 101.571 63.675 101.571 62.8797" fill="black"/>
<path fill-rule="evenodd" clip-rule="evenodd" d="M98.8971 60.9254C98.8971 61.3799 99.4497 61.7483 100.131 61.7483C100.813 61.7483 101.366 61.3799 101.366 60.9254" fill="black"/>
</g>
<path fill-rule="evenodd" clip-rule="evenodd" d="M96.033 59.6451C96.2229 60.0359 96.6506 60.3083 97.1477 60.3083C97.6431 60.3083 98.0694 60.0378 98.2604 59.6493C98.3171 59.5339 98.2364 59.4394 98.155 59.5094C97.9029 59.7262 97.5448 59.8615 97.1477 59.8615C96.763 59.8615 96.4149 59.7345 96.1644 59.5295C96.0727 59.4546 95.9774 59.5309 96.033 59.6451Z" fill="#004B50"/>
<path fill-rule="evenodd" clip-rule="evenodd" d="M101.999 59.6451C102.189 60.0359 102.616 60.3083 103.113 60.3083C103.609 60.3083 104.035 60.0378 104.226 59.6493C104.283 59.5339 104.202 59.4394 104.121 59.5094C103.869 59.7262 103.511 59.8615 103.113 59.8615C102.729 59.8615 102.381 59.7345 102.13 59.5295C102.038 59.4546 101.943 59.5309 101.999 59.6451Z" fill="#004B50"/>
<path d="M95.9789 57.7532C96.3816 57.1866 97.4855 56.8689 98.4364 57.1024C98.5468 57.1295 98.6582 57.062 98.6853 56.9517C98.7124 56.8413 98.6449 56.7299 98.5345 56.7028C97.4302 56.4316 96.1519 56.7996 95.6435 57.5149C95.5777 57.6075 95.5994 57.7359 95.692 57.8017C95.7846 57.8675 95.9131 57.8458 95.9789 57.7532Z" fill="#004B50"/>
<path d="M104.283 57.7532C103.881 57.1866 102.777 56.8689 101.826 57.1024C101.715 57.1295 101.604 57.062 101.577 56.9517C101.55 56.8413 101.617 56.7299 101.728 56.7028C102.832 56.4316 104.11 56.7996 104.619 57.5149C104.685 57.6075 104.663 57.7359 104.57 57.8017C104.478 57.8675 104.349 57.8458 104.283 57.7532Z" fill="#004B50"/>
<path fill-rule="evenodd" clip-rule="evenodd" d="M100.131 53.4167C103.483 53.4167 106.2 54.9364 106.2 56.811C106.2 57.0764 106.145 57.3346 106.042 57.5824C105.418 56.0795 103.008 54.9596 100.131 54.9596C97.2539 54.9596 94.8444 56.0795 94.2199 57.5825C94.117 57.3347 94.0625 57.0764 94.0625 56.811C94.0625 54.9364 96.7795 53.4167 100.131 53.4167Z" fill="#007867"/>
<path d="M100.184 64.6118C99.0136 64.6507 98.4917 65.2167 98.0987 64.6415C97.8037 64.2098 97.9271 63.4838 98.2028 63.0753C98.595 62.494 99.127 62.7752 99.7219 62.7089C99.8837 62.6909 100.046 62.6454 100.184 62.5711C100.321 62.6454 100.483 62.6909 100.645 62.7089C101.24 62.7752 101.772 62.494 102.164 63.0753C102.44 63.4838 102.563 64.2098 102.268 64.6415C101.875 65.2167 101.353 64.573 100.184 64.6118ZM105.863 57.6339C105.515 59.0816 105.355 60.5585 105.103 62.0229C105.051 62.3282 104.993 62.6324 104.932 62.9362C104.919 62.9999 104.906 63.2368 104.844 63.2668C104.656 63.3577 104.273 62.8741 104.17 62.765C103.913 62.4907 103.657 62.2141 103.344 61.9989C102.71 61.5641 101.968 61.307 101.196 61.246C100.873 61.2205 100.437 61.265 100.132 61.451C99.8279 61.265 99.3912 61.2205 99.0682 61.246C98.2962 61.307 97.5544 61.5641 96.9207 61.9989C96.6071 62.2141 96.3519 62.4907 96.0943 62.765C95.9918 62.8741 95.6084 63.3577 95.4203 63.2668C95.3582 63.2368 95.3455 62.9999 95.3327 62.9362C95.2716 62.6324 95.214 62.3282 95.1614 62.0229C94.9091 60.5585 94.7492 59.0816 94.4011 57.6339C94.2998 57.6339 94.211 59.5623 94.1997 59.7419C94.1537 60.4716 94.1 61.1851 94.1686 61.9155C94.2869 63.1753 94.4103 64.7551 95.3588 65.7172C96.2159 66.5865 97.4604 66.7683 98.5337 67.317C98.6719 67.3877 98.8552 67.4749 99.0529 67.5464C99.2612 67.7071 99.6742 67.8168 100.15 67.8168C100.649 67.8168 101.079 67.6962 101.276 67.5224C101.449 67.456 101.608 67.3799 101.731 67.317C102.804 66.7682 104.049 66.5865 104.906 65.7172C105.854 64.7551 105.978 63.1753 106.096 61.9155C106.165 61.1851 106.111 60.4716 106.065 59.7419C106.054 59.5623 105.965 57.6339 105.863 57.6339Z" fill="#004B50"/>
<path d="M100.338 47.8627C103.408 47.8627 108.764 52.4036 108.772 57.2559C108.777 59.8765 107.782 61.4769 105.789 62.057C106.418 56.3083 102.539 55.0024 100.129 53.6038C97.7163 55.0024 93.8437 56.3083 94.4751 62.057C92.4819 61.5426 91.4876 59.9423 91.4922 57.2559C91.5005 52.4036 96.8484 47.8627 99.9265 47.8627C99.9952 47.8627 100.064 47.8657 100.131 47.8717C100.2 47.8657 100.269 47.8627 100.338 47.8627Z" fill="#004B50"/>
</g>
<path opacity="0.2" d="M3.00001 93.8743C2.99706 96.1053 3.43589 98.3147 4.29119 100.375C5.14648 102.436 6.40131 104.306 7.98328 105.88C8.11586 106.011 8.25144 106.141 8.38853 106.269C9.21461 107.041 10.1159 107.728 11.079 108.32C11.2639 108.434 11.4488 108.544 11.6384 108.65C12.6123 109.199 13.6385 109.65 14.7017 109.995C14.885 110.055 15.0715 110.112 15.2579 110.165C18.6376 111.134 22.2345 111.033 25.5543 109.875C25.619 109.852 25.6837 109.829 25.7469 109.806C28.6612 108.746 31.2288 106.906 33.1702 104.488C35.1116 102.07 36.3524 99.1651 36.7576 96.0906C37.1628 93.016 36.7168 89.8892 35.4681 87.0505C34.2195 84.2119 32.2161 81.7701 29.676 79.9911C27.1359 78.212 24.1564 77.1639 21.062 76.9607C17.9675 76.7576 14.8766 77.4072 12.1257 78.8389C9.37477 80.2705 7.06933 82.4294 5.46029 85.0805C3.85125 87.7315 3.00028 90.7732 3.00001 93.8743Z" fill="#919EAB"/>
<path d="M3.59962 93.8737C3.59677 96.0256 4.02005 98.1568 4.84505 100.144C5.67004 102.132 6.88041 103.936 8.40633 105.454C8.5342 105.58 8.66498 105.706 8.79721 105.83C9.59403 106.574 10.4634 107.237 11.3924 107.808C11.5707 107.918 11.7491 108.023 11.9319 108.126C12.8713 108.655 13.8611 109.09 14.8867 109.424C15.0635 109.481 15.2434 109.536 15.4232 109.587C18.6831 110.522 22.1526 110.424 25.3548 109.308C25.4172 109.285 25.4796 109.263 25.5405 109.241C28.3516 108.218 30.8282 106.444 32.7008 104.111C34.5734 101.779 35.7703 98.9771 36.1611 96.0114C36.5519 93.0458 36.1217 90.0298 34.9173 87.2917C33.7129 84.5536 31.7805 82.1984 29.3304 80.4824C26.8803 78.7664 24.0064 77.7554 21.0216 77.5594C18.0368 77.3635 15.0554 77.9901 12.4019 79.371C9.74851 80.752 7.52475 82.8343 5.97273 85.3915C4.4207 87.9486 3.59988 90.8825 3.59962 93.8737Z" fill="#C8FAD6"/>
<mask id="mask2_0_26977" style="mask-type:alpha" maskUnits="userSpaceOnUse" x="3" y="77" width="34" height="34">
<path d="M3.59962 93.8737C3.59677 96.0256 4.02005 98.1568 4.84505 100.144C5.67004 102.132 6.88041 103.936 8.40633 105.454C8.5342 105.58 8.66498 105.706 8.79721 105.83C9.59403 106.574 10.4634 107.237 11.3924 107.808C11.5707 107.918 11.7491 108.023 11.9319 108.126C12.8713 108.655 13.8611 109.09 14.8867 109.424C15.0635 109.481 15.2434 109.536 15.4232 109.587C18.6831 110.522 22.1526 110.424 25.3548 109.308C25.4172 109.285 25.4796 109.263 25.5405 109.241C28.3516 108.218 30.8282 106.444 32.7008 104.111C34.5734 101.779 35.7703 98.9771 36.1611 96.0114C36.5519 93.0458 36.1217 90.0298 34.9173 87.2917C33.7129 84.5536 31.7805 82.1984 29.3304 80.4824C26.8803 78.7664 24.0064 77.7554 21.0216 77.5594C18.0368 77.3635 15.0554 77.9901 12.4019 79.371C9.74851 80.752 7.52475 82.8343 5.97273 85.3915C4.4207 87.9486 3.59988 90.8825 3.59962 93.8737Z" fill="white"/>
</mask>
<g mask="url(#mask2_0_26977)">
<path d="M20.1763 85.9028C23.3575 85.9028 25.9363 88.4817 25.9363 91.6628L25.9364 92.2971C26.5201 92.395 26.9649 92.9027 26.9649 93.5143V94.9543C26.9649 95.5768 26.504 96.0917 25.9049 96.1763C25.6923 98.2134 24.418 99.9348 22.645 100.777L22.6449 102.669H23.0563C27.1464 102.669 30.462 105.984 30.462 110.074V111H9.89062V110.074C9.89062 105.984 13.2063 102.669 17.2963 102.669H17.7078L17.7078 100.777C15.9348 99.9348 14.6603 98.2135 14.4477 96.1763C13.8486 96.0917 13.3878 95.5768 13.3878 94.9543V93.5143C13.3878 92.9027 13.8326 92.395 14.4164 92.297L14.4163 91.6628C14.4163 88.4817 16.9952 85.9028 20.1763 85.9028Z" fill="#FDBAB9"/>
<path d="M15.1363 103.424C15.1363 105.099 17.4158 106.456 20.2278 106.456C23.0397 106.456 25.3192 105.099 25.3192 103.424C25.3192 103.284 25.3032 103.146 25.2723 103.011C28.2799 103.953 30.462 106.761 30.462 110.08V111H9.89062V110.08C9.89062 106.721 12.1266 103.884 15.1912 102.977C15.1551 103.123 15.1363 103.272 15.1363 103.424Z" fill="#00A76F"/>
<g opacity="0.16">
<path d="M18.2352 97.5389C18.344 98.5152 19.172 99.2743 20.1773 99.2743C21.1858 99.2743 22.0158 98.5105 22.1205 97.5298C22.1289 97.4509 22.0408 97.32 21.9303 97.32C20.3984 97.32 19.2247 97.32 18.4377 97.32C18.3266 97.32 18.2243 97.4412 18.2352 97.5389Z" fill="black"/>
<path fill-rule="evenodd" clip-rule="evenodd" d="M18.943 95.5714C18.943 96.0259 19.4956 96.3943 20.1773 96.3943C20.859 96.3943 21.4116 96.0259 21.4116 95.5714" fill="black"/>
</g>
<path d="M17.5038 94.3371C17.8446 94.3371 18.1209 94.0608 18.1209 93.7199C18.1209 93.3791 17.8446 93.1028 17.5038 93.1028C17.1629 93.1028 16.8866 93.3791 16.8866 93.7199C16.8866 94.0608 17.1629 94.3371 17.5038 94.3371Z" fill="#004B50"/>
<path d="M22.8523 94.3371C23.1932 94.3371 23.4695 94.0608 23.4695 93.7199C23.4695 93.3791 23.1932 93.1028 22.8523 93.1028C22.5115 93.1028 22.2352 93.3791 22.2352 93.7199C22.2352 94.0608 22.5115 94.3371 22.8523 94.3371Z" fill="#004B50"/>
<path d="M16.0258 92.3991C16.4284 91.8325 17.5324 91.5148 18.4833 91.7483C18.5936 91.7754 18.705 91.7079 18.7321 91.5976C18.7592 91.4872 18.6918 91.3758 18.5814 91.3487C17.4771 91.0775 16.1987 91.4454 15.6904 92.1608C15.6246 92.2534 15.6463 92.3818 15.7389 92.4476C15.8315 92.5134 15.9599 92.4917 16.0258 92.3991Z" fill="#004B50"/>
<path d="M24.3304 92.3991C23.9277 91.8325 22.8238 91.5148 21.8729 91.7483C21.7625 91.7754 21.6511 91.7079 21.624 91.5976C21.5969 91.4872 21.6644 91.3758 21.7747 91.3487C22.8791 91.0775 24.1574 91.4454 24.6658 92.1608C24.7316 92.2534 24.7099 92.3818 24.6173 92.4476C24.5246 92.5134 24.3962 92.4917 24.3304 92.3991Z" fill="#004B50"/>
<mask id="mask3_0_26977" style="mask-type:alpha" maskUnits="userSpaceOnUse" x="6" y="82" width="28" height="29">
<path d="M33.7539 82.2V111H30.4625V110.074C30.4625 105.984 27.1468 102.669 23.0567 102.669H22.6453L22.6454 100.777C24.4485 99.9204 25.736 98.1546 25.9153 96.072C26.5096 95.9831 26.9653 95.4705 26.9653 94.8514V93.5142C26.9653 92.9027 26.5205 92.395 25.9368 92.297L25.9367 91.6628C25.9367 90.8456 25.7666 90.0681 25.4597 89.3639C24.4386 87.6514 15.786 87.734 14.9012 89.347C14.5897 90.0557 14.4168 90.8391 14.4168 91.6628L14.4168 92.297C13.833 92.3949 13.3882 92.9026 13.3882 93.5142V94.8514C13.3882 95.4705 13.8439 95.9831 14.4382 96.072C14.6175 98.1546 15.905 99.9205 17.7082 100.777L17.7082 102.669H17.2968C13.2476 102.669 9.95743 105.918 9.89203 109.952L9.89104 110.074V111H6.59961V82.2H33.7539Z" fill="white"/>
</mask>
<g mask="url(#mask3_0_26977)">
<path fill-rule="evenodd" clip-rule="evenodd" d="M19.2704 82.4056H21.1871C23.12 82.4056 24.7922 83.7511 25.206 85.6391L26.143 89.9142H14.3145L15.2515 85.6391C15.6653 83.7511 17.3375 82.4056 19.2704 82.4056Z" fill="#004B50"/>
<path d="M20.1775 97.1142C27.1079 97.1142 32.726 94.4663 32.726 91.1999C32.726 87.9336 27.1079 85.2856 20.1775 85.2856C13.2471 85.2856 7.62891 87.9336 7.62891 91.1999C7.62891 94.4663 13.2471 97.1142 20.1775 97.1142Z" fill="#004B50"/>
<path d="M20.176 93.2057C23.698 93.2057 26.5531 92.0545 26.5531 90.6343C26.5531 89.2141 23.698 88.0629 20.176 88.0629C16.654 88.0629 13.7988 89.2141 13.7988 90.6343C13.7988 92.0545 16.654 93.2057 20.176 93.2057Z" fill="#007867"/>
</g>
<g opacity="0.7">
<path d="M19.324 93.7713C19.324 94.7693 18.4754 95.5787 17.0614 95.5787H16.7786C15.3646 95.5787 14.7988 94.769 14.7988 93.7713C14.7988 92.7731 14.9309 91.964 16.9106 91.964H17.2122C19.1919 91.964 19.324 92.7731 19.324 93.7713Z" fill="#004B50"/>
<path d="M25.6568 93.7713C25.6568 94.7693 24.8085 95.5787 23.3942 95.5787H23.1113C21.6973 95.5787 21.1316 94.769 21.1316 93.7713C21.1316 92.7731 21.2637 91.964 23.2434 91.964H23.5449C25.5244 91.964 25.6568 92.7731 25.6568 93.7713Z" fill="#004B50"/>
</g>
<path d="M17.2124 91.6628C19.4395 91.6628 19.6258 92.7045 19.6258 93.7714C19.6258 95.0128 18.5716 95.88 17.0617 95.88H16.7788C15.3503 95.88 14.4975 95.0917 14.4975 93.7714C14.4975 92.7045 14.6839 91.6628 16.9109 91.6628H17.2124ZM17.2124 92.265H16.9109C15.1368 92.265 15.1014 92.9035 15.1006 93.7211L15.1006 93.7714C15.1006 94.4585 15.3916 95.2775 16.7788 95.2775H17.0617C18.2163 95.2775 19.0227 94.6582 19.0227 93.7714L19.0227 93.6962C19.0226 93.6879 19.0226 93.6796 19.0226 93.6713L19.0223 93.6219C19.0162 92.8524 18.9141 92.265 17.2124 92.265Z" fill="#004B50"/>
<path d="M23.5452 91.6628C25.7722 91.6628 25.9586 92.7045 25.9586 93.7714C25.9586 95.0128 24.9043 95.88 23.3944 95.88H23.1115C21.6831 95.88 20.8303 95.0917 20.8303 93.7714C20.8303 92.7045 21.0166 91.6628 23.2436 91.6628H23.5452ZM23.5452 92.265H23.2436C21.4696 92.265 21.4341 92.9035 21.4334 93.7211L21.4334 93.7714C21.4334 94.4585 21.7247 95.2775 23.1115 95.2775H23.3944C24.5491 95.2775 25.3554 94.6582 25.3554 93.7714L25.3554 93.6962C25.3554 93.6879 25.3554 93.6796 25.3553 93.6713L25.3551 93.6219C25.3489 92.8524 25.2468 92.265 23.5452 92.265Z" fill="#004B50"/>
<path d="M13.8953 92.2653C13.9659 92.1948 14.7379 91.6628 16.9109 91.6628C18.7329 91.6628 19.1186 91.8562 19.7024 92.1484L19.7452 92.17C19.7857 92.1847 19.9933 92.2568 20.2361 92.2647C20.4573 92.255 20.6465 92.1937 20.7018 92.174C21.3681 91.8426 22.0204 91.6628 23.5452 91.6628C25.7182 91.6628 26.4902 92.1948 26.5608 92.2653C26.7275 92.2653 26.8623 92.3999 26.8623 92.5665V92.8677C26.8623 93.0343 26.7275 93.169 26.5608 93.169C26.5608 93.169 25.9576 93.169 25.9576 93.4702C25.9576 93.7714 25.6561 93.0343 25.6561 92.8677V92.5743C25.2883 92.4304 24.63 92.265 23.5452 92.265C22.3366 92.265 21.7346 92.3816 21.2183 92.5993L21.2241 92.6135L20.9674 92.7171L21.2238 92.8208L20.9975 93.3793L20.718 93.2662C20.693 93.2561 20.6392 93.238 20.5645 93.2192C20.3563 93.1666 20.1422 93.1507 19.9529 93.1904C19.8834 93.205 19.819 93.2269 19.7598 93.2564L19.4901 93.3912L19.2203 92.8524L19.4907 92.7173L19.2323 92.6129L19.2405 92.5926C18.7952 92.3804 18.3846 92.265 16.9109 92.265C15.8261 92.265 15.1678 92.4303 14.8 92.5743V92.8677C14.8 93.0343 14.4984 93.7714 14.4984 93.4702C14.4984 93.169 13.8953 93.169 13.8953 93.169C13.7288 93.169 13.5938 93.0343 13.5938 92.8677V92.5665C13.5938 92.3999 13.7288 92.2653 13.8953 92.2653Z" fill="#004B50"/>
</g>
<defs>
<linearGradient id="paint0_linear_0_26977" x1="34.8203" y1="57.0913" x2="36.6137" y2="69.6398" gradientUnits="userSpaceOnUse">
<stop stop-color="#00A76F"/>
<stop offset="1" stop-color="#007867"/>
</linearGradient>
</defs>
</svg>
