<svg width="18" height="18" viewBox="0 0 18 18" fill="none" xmlns="http://www.w3.org/2000/svg">
<path d="M14.0775 10.02C14.0145 9.94406 13.9372 9.88128 13.8499 9.83527C13.7627 9.78925 13.6672 9.7609 13.5689 9.75185C13.4707 9.74279 13.3717 9.7532 13.2775 9.78249C13.1832 9.81177 13.0957 9.85935 13.02 9.9225L9.74996 12.645V3.75C9.74996 3.55109 9.67094 3.36032 9.53029 3.21967C9.38964 3.07902 9.19887 3 8.99996 3C8.80105 3 8.61028 3.07902 8.46963 3.21967C8.32898 3.36032 8.24996 3.55109 8.24996 3.75V12.645L4.97996 9.9225C4.90412 9.85947 4.81661 9.81199 4.72242 9.78277C4.62824 9.75356 4.52922 9.74318 4.43102 9.75223C4.33282 9.76129 4.23737 9.78959 4.15011 9.83554C4.06285 9.88148 3.9855 9.94416 3.92246 10.02C3.85943 10.0958 3.81195 10.1833 3.78273 10.2775C3.75352 10.3717 3.74314 10.4707 3.75219 10.5689C3.76125 10.6671 3.78956 10.7626 3.8355 10.8499C3.88144 10.9371 3.94412 11.0145 4.01996 11.0775L8.51996 14.8275L8.63246 14.895L8.72996 14.9475C8.90372 15.0145 9.0962 15.0145 9.26996 14.9475L9.36746 14.895L9.47996 14.8275L13.98 11.0775C14.0559 11.0145 14.1187 10.9372 14.1647 10.85C14.2107 10.7627 14.2391 10.6672 14.2481 10.569C14.2572 10.4707 14.2468 10.3717 14.2175 10.2775C14.1882 10.1833 14.1406 10.0958 14.0775 10.02Z" fill="#637381"/>
</svg>
