<svg width="16" height="16" viewBox="0 0 16 16" fill="none" xmlns="http://www.w3.org/2000/svg">
<path fill-rule="evenodd" clip-rule="evenodd" d="M8.29205 1.84595C8.19572 1.81522 8.09129 1.82238 8.00005 1.86595C7.95484 1.88688 7.91472 1.9174 7.88249 1.95539C7.85025 1.99338 7.82667 2.03794 7.81339 2.08595L7.49605 3.30862C7.3852 3.73593 7.22407 4.14859 7.01605 4.53795C6.69272 5.14262 6.20405 5.60729 5.75072 5.99795L4.79205 6.82462C4.71872 6.88788 4.66144 6.96764 4.62493 7.05734C4.58843 7.14704 4.57373 7.24413 4.58205 7.34062L5.12339 13.6026C5.13655 13.7547 5.2062 13.8964 5.31862 13.9996C5.43104 14.1029 5.57806 14.1604 5.73072 14.1606H8.83005C10.9207 14.1606 12.6827 12.706 13.0207 10.752L13.4907 8.03195C13.506 7.9443 13.5019 7.85437 13.4787 7.76846C13.4556 7.68255 13.414 7.60273 13.3567 7.53459C13.2995 7.46645 13.2281 7.41164 13.1475 7.37399C13.0669 7.33634 12.979 7.31676 12.8901 7.31662H9.43605C8.78472 7.31662 8.28938 6.73262 8.39472 6.08995L8.83672 3.39395C8.89727 3.02468 8.88001 2.64683 8.78605 2.28462C8.75954 2.18873 8.70921 2.1011 8.63974 2.02989C8.57027 1.95867 8.48392 1.90618 8.38872 1.87729L8.29205 1.84595ZM7.56538 0.965287C7.88778 0.810187 8.25739 0.784656 8.59805 0.893954L8.69472 0.925287C9.21272 1.09195 9.61672 1.50529 9.75405 2.03329C9.88272 2.53062 9.90672 3.04929 9.82338 3.55595L9.38138 6.25195C9.38002 6.2599 9.38042 6.26806 9.38254 6.27584C9.38466 6.28362 9.38846 6.29085 9.39367 6.29701C9.39888 6.30317 9.40537 6.30812 9.41269 6.31151C9.42001 6.31489 9.42798 6.31664 9.43605 6.31662H12.8894C13.8894 6.31662 14.6467 7.21795 14.4761 8.20262L14.0061 10.9226C13.5807 13.3813 11.3807 15.1606 8.83005 15.1606H5.73072C5.32778 15.1603 4.93961 15.0089 4.64279 14.7364C4.34597 14.4639 4.16208 14.0901 4.12739 13.6886L3.58539 7.42662C3.56335 7.17231 3.60202 6.91641 3.69822 6.67996C3.79442 6.44352 3.9454 6.23331 4.13872 6.06662L5.09872 5.23995C5.53539 4.86395 5.90272 4.49929 6.13339 4.06662C6.30465 3.74709 6.43715 3.40824 6.52805 3.05729L6.84539 1.83529C6.89501 1.64668 6.98513 1.47115 7.10947 1.32091C7.23381 1.17066 7.38939 1.04931 7.56538 0.965287ZM1.97872 6.31729C2.10756 6.31165 2.23359 6.35602 2.33049 6.44112C2.42739 6.52622 2.48766 6.64547 2.49872 6.77395L3.14539 14.2646C3.15634 14.3762 3.14444 14.4888 3.11041 14.5956C3.07639 14.7024 3.02095 14.8011 2.94748 14.8858C2.87401 14.9704 2.78406 15.0392 2.68312 15.0879C2.58218 15.1366 2.47237 15.1643 2.36039 15.1691C2.24841 15.174 2.13661 15.1559 2.03183 15.1161C1.92706 15.0763 1.83149 15.0156 1.75097 14.9376C1.67045 14.8597 1.60668 14.7661 1.56354 14.6626C1.52039 14.5592 1.49879 14.448 1.50005 14.336V6.81662C1.49993 6.68763 1.54967 6.56358 1.63888 6.4704C1.72808 6.37722 1.84984 6.32279 1.97872 6.31729Z" fill="#212B36"/>
</svg>
