<svg width="36" height="36" viewBox="0 0 36 36" fill="none" xmlns="http://www.w3.org/2000/svg">
<path d="M30.2402 6.29126H3.96016C2.96604 6.29126 2.16016 7.09715 2.16016 8.09126V20.3313C2.16016 21.3254 2.96604 22.1313 3.96016 22.1313H30.2402C31.2343 22.1313 32.0402 21.3254 32.0402 20.3313V8.09126C32.0402 7.09715 31.2343 6.29126 30.2402 6.29126Z" fill="#F9B552"/>
<path d="M32.04 9.17116H3.96C1.77295 9.17116 0 10.9441 0 13.1312V29.3312C0 31.5182 1.77295 33.2912 3.96 33.2912H32.04C34.2271 33.2912 36 31.5182 36 29.3312V13.1312C36 10.9441 34.2271 9.17116 32.04 9.17116Z" fill="#FFCF5C"/>
<path d="M14.04 2.69116H3.96C1.77295 2.69116 0 4.46411 0 6.65116V12.4112C0 14.5982 1.77295 16.3712 3.96 16.3712H14.04C16.227 16.3712 18 14.5982 18 12.4112V6.65116C18 4.46411 16.227 2.69116 14.04 2.69116Z" fill="#FFCF5C"/>
</svg>
