<svg width="118" height="32" viewBox="0 0 118 32" fill="none" xmlns="http://www.w3.org/2000/svg">
<path d="M100.506 29.8851C102.161 30.069 103.816 30.2529 105.379 30.4368L108.966 21.5172L112.368 31.2644C114.115 31.4483 115.862 31.7241 117.609 32L111.632 14.8966L117.701 0H112.644L112.552 0.091954L109.333 8.09195L106.483 0H101.425L106.575 14.7126L100.506 29.8851ZM96.6437 29.5172V0H91.5862V29.1494C93.3333 29.2414 94.9885 29.4253 96.6437 29.5172ZM58.8506 27.8621H62.8966V17.1034H68.9655V12.5057H62.8966V4.5977H69.8851V0H57.931V27.8621H58.8506ZM43.3103 28.1379C44.9655 28.046 46.6207 28.046 48.3678 27.954V4.5977H53.0575V0H38.6207V4.5977H43.3103V28.1379ZM4.78161 31.2644V13.7011L10.7586 30.6207L16.2759 30.069V0H11.4943V18.2069L5.05747 0H0V31.908C1.65517 31.7241 3.21839 31.5402 4.78161 31.2644ZM33.7471 4.5977V0H21.7012V29.5172C25.6552 29.1494 29.7012 28.8736 33.6552 28.6897V24.092C31.3563 24.1839 29.0575 24.3678 26.6667 24.5517V17.1034H32.7356V12.5057H26.6667V4.5977H33.7471ZM79.9081 23.8161V0H74.8506V28.2299C78.8966 28.4138 82.8506 28.5977 86.8966 28.8736V24.2759C84.5058 24 82.2069 23.908 79.9081 23.8161Z" fill="white"/>
</svg>
