<svg width="40" height="40" viewBox="0 0 40 40" fill="none" xmlns="http://www.w3.org/2000/svg">
<g opacity="0.48">
<path d="M13.9991 10.3333C14.1742 10.202 14.3734 10.1065 14.5854 10.0521C14.7975 9.99782 15.0181 9.9858 15.2348 10.0168C15.4514 10.0477 15.6599 10.121 15.8482 10.2325C16.0366 10.3441 16.2011 10.4916 16.3324 10.6667C16.4637 10.8418 16.5593 11.041 16.6136 11.253C16.6679 11.4651 16.6799 11.6857 16.649 11.9024C16.618 12.119 16.5447 12.3275 16.4332 12.5158C16.3217 12.7042 16.1742 12.8687 15.9991 13C13.3924 14.955 11.8991 16.8567 11.0441 18.5167C12.218 18.2145 13.457 18.2855 14.5887 18.7199C15.7204 19.1543 16.6886 19.9305 17.3589 20.9406C18.0291 21.9507 18.368 23.1445 18.3285 24.3561C18.289 25.5676 17.873 26.7368 17.1383 27.701C16.4037 28.6653 15.3869 29.3767 14.2292 29.7364C13.0716 30.0961 11.8307 30.0863 10.6789 29.7082C9.52717 29.3301 8.52181 28.6026 7.80258 27.6268C7.08336 26.651 6.686 25.4754 6.66574 24.2633C6.45217 22.2165 6.74285 20.1486 7.5124 18.24C8.5074 15.73 10.4524 12.9933 13.9991 10.3333ZM28.9991 10.3333C29.1742 10.202 29.3734 10.1065 29.5854 10.0521C29.7975 9.99782 30.0181 9.9858 30.2348 10.0168C30.4514 10.0477 30.6599 10.121 30.8482 10.2325C31.0366 10.3441 31.2011 10.4916 31.3324 10.6667C31.4637 10.8418 31.5593 11.041 31.6136 11.253C31.6679 11.4651 31.6799 11.6857 31.649 11.9024C31.618 12.119 31.5447 12.3275 31.4332 12.5158C31.3217 12.7042 31.1742 12.8687 30.9991 13C28.3924 14.955 26.8991 16.8567 26.0441 18.5167C27.218 18.2145 28.457 18.2855 29.5887 18.7199C30.7204 19.1543 31.6886 19.9305 32.3589 20.9406C33.0291 21.9507 33.368 23.1445 33.3285 24.3561C33.289 25.5676 32.873 26.7368 32.1383 27.701C31.4037 28.6653 30.3869 29.3767 29.2292 29.7364C28.0716 30.0961 26.8307 30.0863 25.6789 29.7082C24.5272 29.3301 23.5218 28.6026 22.8026 27.6268C22.0834 26.651 21.686 25.4754 21.6657 24.2633C21.4522 22.2165 21.7429 20.1486 22.5124 18.24C23.5091 15.73 25.4524 12.9933 28.9991 10.3333Z" fill="white"/>
</g>
</svg>
