<svg width="20" height="20" viewBox="0 0 20 20" fill="none" xmlns="http://www.w3.org/2000/svg">
<path d="M11.6693 13.75C11.9903 13.7502 12.2989 13.8738 12.5313 14.0953C12.7636 14.3169 12.9018 14.6193 12.9172 14.9399C12.9326 15.2606 12.8241 15.5749 12.6141 15.8177C12.4041 16.0605 12.1088 16.2132 11.7893 16.2442L11.6693 16.25H8.33594C8.01492 16.2498 7.70627 16.1262 7.47395 15.9047C7.24162 15.6831 7.10343 15.3807 7.088 15.0601C7.07257 14.7394 7.1811 14.4251 7.39108 14.1823C7.60107 13.9395 7.89642 13.7868 8.21594 13.7558L8.33594 13.75H11.6693ZM14.1693 8.75C14.5008 8.75 14.8187 8.8817 15.0532 9.11612C15.2876 9.35054 15.4193 9.66848 15.4193 10C15.4193 10.3315 15.2876 10.6495 15.0532 10.8839C14.8187 11.1183 14.5008 11.25 14.1693 11.25H5.83594C5.50442 11.25 5.18647 11.1183 4.95205 10.8839C4.71763 10.6495 4.58594 10.3315 4.58594 10C4.58594 9.66848 4.71763 9.35054 4.95205 9.11612C5.18647 8.8817 5.50442 8.75 5.83594 8.75H14.1693ZM16.6693 3.75C17.0008 3.75 17.3187 3.8817 17.5532 4.11612C17.7876 4.35054 17.9193 4.66848 17.9193 5C17.9193 5.33152 17.7876 5.64946 17.5532 5.88388C17.3187 6.1183 17.0008 6.25 16.6693 6.25H3.33594C3.00442 6.25 2.68647 6.1183 2.45205 5.88388C2.21763 5.64946 2.08594 5.33152 2.08594 5C2.08594 4.66848 2.21763 4.35054 2.45205 4.11612C2.68647 3.8817 3.00442 3.75 3.33594 3.75H16.6693Z" fill="#637381"/>
</svg>
