<svg width="22" height="22" viewBox="0 0 22 22" fill="none" xmlns="http://www.w3.org/2000/svg">
<path opacity="0.32" d="M3.1263 1.8335C2.49348 1.8335 1.98047 2.3465 1.98047 2.97933C1.98047 3.61215 2.49348 4.12516 3.1263 4.12516H3.89846C4.11603 4.12516 4.30349 4.27726 4.3479 4.49023C4.55241 5.47051 5.13151 8.21253 5.59622 10.0835C6.17073 12.3967 6.6914 14.0636 7.01961 15.0361C7.42467 14.8012 7.8952 14.6667 8.39714 14.6667C9.57582 14.6667 10.5813 15.4083 10.9725 16.4503C11.6583 16.4809 12.4589 16.5002 13.3879 16.5002C14.1738 16.5002 14.8541 16.4864 15.4418 16.4636C15.8294 15.4146 16.8384 14.6667 18.0221 14.6667C18.5301 14.6667 19.0059 14.8045 19.4143 15.0446C19.7382 14.2291 20.1737 12.8637 20.543 10.771C20.8079 9.26963 20.9708 8.14268 21.0709 7.32451C21.1938 6.31948 20.4097 5.50016 19.3971 5.50016H7.02214L6.45266 3.22218C6.24861 2.40604 5.51532 1.8335 4.67405 1.8335H3.1263Z" fill="#637381"/>
<path d="M16.0876 9.71125C16.1414 9.17432 15.7197 8.70837 15.1801 8.70837C14.7115 8.70837 14.3191 9.06345 14.2725 9.52975L13.9966 12.2888C13.9429 12.8258 14.3645 13.2917 14.9042 13.2917C15.3728 13.2917 15.7651 12.9366 15.8118 12.4703L16.0876 9.71125Z" fill="#637381"/>
<path d="M11.6868 9.52975C11.6401 9.06345 11.2478 8.70837 10.7792 8.70837C10.2395 8.70837 9.81788 9.17432 9.8716 9.71125L10.1475 12.4703C10.1941 12.9366 10.5865 13.2917 11.0551 13.2917C11.5947 13.2917 12.0164 12.8258 11.9627 12.2888L11.6868 9.52975Z" fill="#637381"/>
<path d="M15.2715 17.4167C15.2715 18.9355 16.5027 20.1667 18.0215 20.1667C19.5403 20.1667 20.7715 18.9355 20.7715 17.4167C20.7715 15.898 19.5403 14.6667 18.0215 14.6667C16.5027 14.6667 15.2715 15.898 15.2715 17.4167Z" fill="#637381"/>
<path d="M5.64648 17.4167C5.64648 18.9355 6.87771 20.1667 8.39648 20.1667C9.91526 20.1667 11.1465 18.9355 11.1465 17.4167C11.1465 15.898 9.91526 14.6667 8.39648 14.6667C6.87771 14.6667 5.64648 15.898 5.64648 17.4167Z" fill="#637381"/>
</svg>
