<svg width="16" height="16" viewBox="0 0 16 16" fill="none" xmlns="http://www.w3.org/2000/svg">
<path fill-rule="evenodd" clip-rule="evenodd" d="M7.99614 8.93906L11.7657 12.7088C11.8913 12.8302 12.0597 12.8974 12.2344 12.8959C12.4091 12.8944 12.5762 12.8243 12.6998 12.7007C12.8233 12.5772 12.8934 12.41 12.8949 12.2353C12.8964 12.0606 12.8292 11.8922 12.7079 11.7666L8.93836 7.99678L12.7079 4.227C12.8292 4.10132 12.8964 3.93298 12.8949 3.75826C12.8934 3.58353 12.8233 3.41639 12.6998 3.29284C12.5762 3.16928 12.4091 3.0992 12.2344 3.09768C12.0597 3.09616 11.8913 3.16333 11.7657 3.28472L7.99614 7.0545L4.22663 3.28472C4.10039 3.16633 3.93305 3.10171 3.76001 3.10452C3.58697 3.10733 3.42182 3.17735 3.29949 3.29978C3.17716 3.4222 3.10725 3.58742 3.10457 3.76047C3.10188 3.93352 3.16662 4.10083 3.28509 4.227L7.05393 7.99678L3.28442 11.7666C3.22078 11.828 3.17001 11.9016 3.13509 11.9829C3.10017 12.0642 3.08179 12.1516 3.08102 12.2401C3.08025 12.3286 3.09711 12.4163 3.13061 12.4982C3.16412 12.5801 3.2136 12.6545 3.27616 12.7171C3.33873 12.7797 3.41313 12.8291 3.49502 12.8627C3.57691 12.8962 3.66465 12.913 3.75313 12.9123C3.84161 12.9115 3.92904 12.8931 4.01034 12.8582C4.09164 12.8233 4.16516 12.7725 4.22663 12.7088L7.99614 8.93906Z" fill="#919EAB"/>
</svg>
