<svg width="24" height="24" viewBox="0 0 24 24" fill="none" xmlns="http://www.w3.org/2000/svg">
<path d="M7.08958 3.82501H10.3447V15.1607C10.3447 16.75 9.90924 18.0246 9.03825 18.9842C8.16725 19.9438 7.04529 20.4236 5.67237 20.4236C4.19611 20.4236 3.04831 19.9776 2.22899 19.0854C1.40966 18.1932 1 16.9525 1 15.3631H4.26623C4.26623 16.9075 4.73494 17.6797 5.67237 17.6797C6.61718 17.6797 7.08958 16.7875 7.08958 15.0032V3.82501Z" fill="#FFAB00"/>
<path d="M19.7116 15.9029C19.7116 15.2356 19.5419 14.7333 19.2023 14.3959C18.8702 14.0511 18.2612 13.695 17.3754 13.3276C15.7589 12.7053 14.5964 11.9781 13.8878 11.1459C13.1792 10.3063 12.8249 9.31665 12.8249 8.17709C12.8249 6.79762 13.3046 5.69179 14.2642 4.85961C15.2312 4.01994 16.4565 3.6001 17.9401 3.6001C18.9292 3.6001 19.8113 3.81377 20.5863 4.2411C21.3613 4.66094 21.9555 5.25696 22.3689 6.02916C22.7896 6.80137 23 7.67853 23 8.66065H19.7559C19.7559 7.89595 19.5935 7.31492 19.2687 6.91757C18.9514 6.51273 18.49 6.31031 17.8848 6.31031C17.3164 6.31031 16.8735 6.48274 16.5561 6.82761C16.2387 7.16498 16.08 7.6223 16.08 8.19958C16.08 8.64941 16.2572 9.058 16.6115 9.42536C16.9658 9.78522 17.5932 10.1601 18.4937 10.5499C20.0659 11.1272 21.2063 11.8357 21.9149 12.6754C22.6309 13.515 22.9889 14.5834 22.9889 15.8804C22.9889 17.3048 22.5424 18.4181 21.6492 19.2203C20.7561 20.0225 19.5419 20.4236 18.0065 20.4236C16.9658 20.4236 16.0173 20.2062 15.161 19.7714C14.3048 19.3365 13.6331 18.7143 13.1459 17.9046C12.6662 17.0949 12.4263 16.139 12.4263 15.037H15.6925C15.6925 15.9816 15.8733 16.6676 16.235 17.0949C16.5967 17.5222 17.1872 17.7359 18.0065 17.7359C19.1433 17.7359 19.7116 17.1249 19.7116 15.9029Z" fill="#FFAB00"/>
</svg>
