<svg width="132" height="132" viewBox="0 0 132 132" fill="none" xmlns="http://www.w3.org/2000/svg">
<path opacity="0.24" d="M15.8398 31.6799C15.8398 28.7638 18.2038 26.3999 21.1198 26.3999H110.88C113.796 26.3999 116.16 28.7638 116.16 31.6799V42.2399C116.16 45.156 113.796 47.5199 110.88 47.5199H21.1198C18.2038 47.5199 15.8398 45.156 15.8398 42.2399V31.6799Z" fill="#919EAB"/>
<path opacity="0.24" d="M15.8398 60.7199C15.8398 57.8039 18.2038 55.4399 21.1198 55.4399H110.88C113.796 55.4399 116.16 57.8039 116.16 60.7199V71.2799C116.16 74.196 113.796 76.5599 110.88 76.5599H21.1198C18.2038 76.5599 15.8398 74.196 15.8398 71.2799V60.7199Z" fill="#919EAB"/>
<path opacity="0.24" d="M15.8398 89.76C15.8398 86.8439 18.2038 84.48 21.1198 84.48H110.88C113.796 84.48 116.16 86.8439 116.16 89.76V100.32C116.16 103.236 113.796 105.6 110.88 105.6H21.1198C18.2038 105.6 15.8398 103.236 15.8398 100.32V89.76Z" fill="#919EAB"/>
<path opacity="0.48" d="M106.916 34.5497L103.611 37.7823L100.305 34.5497C100.003 34.2644 99.5225 34.2684 99.2255 34.5589C98.9285 34.8493 98.9243 35.319 99.2161 35.6144L103.066 39.3794C103.367 39.6733 103.854 39.6733 104.155 39.3794L108.005 35.6144C108.205 35.4254 108.285 35.1454 108.215 34.8822C108.144 34.6189 107.934 34.4133 107.665 34.3444C107.396 34.2755 107.109 34.354 106.916 34.5497Z" fill="#919EAB"/>
<path opacity="0.48" d="M106.916 63.5898L103.611 66.8223L100.305 63.5898C100.003 63.3044 99.5225 63.3085 99.2255 63.5989C98.9285 63.8894 98.9243 64.359 99.2161 64.6545L103.066 68.4194C103.367 68.7133 103.854 68.7133 104.155 68.4194L108.005 64.6545C108.205 64.4654 108.285 64.1855 108.215 63.9222C108.144 63.6589 107.934 63.4533 107.665 63.3844C107.396 63.3155 107.109 63.394 106.916 63.5898Z" fill="#919EAB"/>
<path opacity="0.48" d="M106.916 92.6298L103.611 95.8624L100.305 92.6298C100.003 92.3444 99.5225 92.3485 99.2255 92.639C98.9285 92.9294 98.9243 93.3991 99.2161 93.6945L103.066 97.4594C103.367 97.7534 103.854 97.7534 104.155 97.4594L108.005 93.6945C108.205 93.5055 108.285 93.2255 108.215 92.9622C108.144 92.699 107.934 92.4934 107.665 92.4245C107.396 92.3556 107.109 92.4341 106.916 92.6298Z" fill="#919EAB"/>
<rect x="23.7598" y="33.6599" width="26.4" height="6.6" rx="3.3" fill="#919EAB"/>
<rect opacity="0.48" x="23.7598" y="62.7" width="42.24" height="6.6" rx="3.3" fill="#919EAB"/>
<rect opacity="0.24" x="23.7598" y="91.74" width="52.8" height="6.6" rx="3.3" fill="#919EAB"/>
</svg>
