<svg width="16" height="16" viewBox="0 0 16 16" fill="none" xmlns="http://www.w3.org/2000/svg">
<path d="M8.00022 10.3341C7.84445 10.3344 7.69349 10.2802 7.57355 10.1808L3.57355 6.84748C3.29005 6.61183 3.25124 6.19098 3.48689 5.90748C3.72253 5.62397 4.14338 5.58517 4.42689 5.82081L8.00022 8.80748L11.5736 5.92748C11.7113 5.81563 11.8879 5.7633 12.0643 5.78207C12.2408 5.80083 12.4024 5.88916 12.5136 6.02748C12.637 6.16605 12.6971 6.34979 12.6793 6.53452C12.6616 6.71924 12.5677 6.88822 12.4202 7.00081L8.42022 10.2208C8.29683 10.3045 8.14895 10.3444 8.00022 10.3341Z" fill="#00A76F"/>
</svg>
