<svg width="32" height="32" viewBox="0 0 32 32" fill="none" xmlns="http://www.w3.org/2000/svg">
<path opacity="0.5" fill-rule="evenodd" clip-rule="evenodd" d="M1.66602 9.33337C1.66602 9.06816 1.77137 8.8138 1.95891 8.62627C2.14645 8.43873 2.4008 8.33337 2.66602 8.33337H13.3327C13.5979 8.33337 13.8523 8.43873 14.0398 8.62627C14.2273 8.8138 14.3327 9.06816 14.3327 9.33337C14.3327 9.59859 14.2273 9.85294 14.0398 10.0405C13.8523 10.228 13.5979 10.3334 13.3327 10.3334H2.66602C2.4008 10.3334 2.14645 10.228 1.95891 10.0405C1.77137 9.85294 1.66602 9.59859 1.66602 9.33337ZM1.66602 16C1.66602 15.7348 1.77137 15.4805 1.95891 15.2929C2.14645 15.1054 2.4008 15 2.66602 15H10.666C10.9312 15 11.1856 15.1054 11.3731 15.2929C11.5607 15.4805 11.666 15.7348 11.666 16C11.666 16.2653 11.5607 16.5196 11.3731 16.7071C11.1856 16.8947 10.9312 17 10.666 17H2.66602C2.4008 17 2.14645 16.8947 1.95891 16.7071C1.77137 16.5196 1.66602 16.2653 1.66602 16ZM1.66602 22.6667C1.66602 22.4015 1.77137 22.1471 1.95891 21.9596C2.14645 21.7721 2.4008 21.6667 2.66602 21.6667H13.3327C13.5979 21.6667 13.8523 21.7721 14.0398 21.9596C14.2273 22.1471 14.3327 22.4015 14.3327 22.6667C14.3327 22.9319 14.2273 23.1863 14.0398 23.3738C13.8523 23.5614 13.5979 23.6667 13.3327 23.6667H2.66602C2.4008 23.6667 2.14645 23.5614 1.95891 23.3738C1.77137 23.1863 1.66602 22.9319 1.66602 22.6667Z" fill="#FFAB00"/>
<path fill-rule="evenodd" clip-rule="evenodd" d="M22.6667 22.6667C24.4348 22.6667 26.1305 21.9643 27.3807 20.7141C28.631 19.4638 29.3333 17.7682 29.3333 16C29.3333 14.2319 28.631 12.5362 27.3807 11.286C26.1305 10.0358 24.4348 9.33337 22.6667 9.33337C20.8986 9.33337 19.2029 10.0358 17.9526 11.286C16.7024 12.5362 16 14.2319 16 16C16 17.7682 16.7024 19.4638 17.9526 20.7141C19.2029 21.9643 20.8986 22.6667 22.6667 22.6667ZM23.6667 13.3334C23.6667 13.0682 23.5613 12.8138 23.3738 12.6263C23.1862 12.4387 22.9319 12.3334 22.6667 12.3334C22.4015 12.3334 22.1471 12.4387 21.9596 12.6263C21.772 12.8138 21.6667 13.0682 21.6667 13.3334V15.7947C21.6667 16.0347 21.7533 16.268 21.9107 16.4494L23.244 17.988C23.33 18.0873 23.4347 18.1687 23.5521 18.2275C23.6695 18.2863 23.7974 18.3215 23.9283 18.3309C24.0593 18.3403 24.1909 18.3238 24.3155 18.2824C24.4401 18.2409 24.5554 18.1753 24.6547 18.0894C24.7539 18.0034 24.8353 17.8987 24.8941 17.7813C24.953 17.6639 24.9881 17.536 24.9975 17.405C25.0069 17.274 24.9904 17.1425 24.949 17.0178C24.9075 16.8932 24.842 16.778 24.756 16.6787L23.6667 15.4214V13.3334Z" fill="#FFAB00"/>
</svg>
