<svg width="154" height="159" viewBox="0 0 154 159" fill="none" xmlns="http://www.w3.org/2000/svg">
<path d="M153.508 141.943H148.232V141.51H153.074V98.4353H134.5V34.6909H117.444V34.2573H134.934V98.0017H153.508V141.943ZM47.701 68.2977H47.2673V53.0482H59.1923V39.3164H59.6259V53.5541H47.701V68.2977Z" fill="#00A76F"/>
<path opacity="0.08" d="M117.443 30.5713C117.443 32.884 116.503 35.1245 114.913 36.7145C113.251 38.3767 111.083 39.244 108.77 39.244H48.8558C45.6758 39.3163 42.7127 37.654 41.1227 34.9799C39.5327 32.2336 39.5327 28.8368 41.1227 26.0904C42.7127 23.344 45.6758 21.6818 48.8558 21.8263H50.8795C49.434 16.6227 50.4458 11.0577 53.6981 6.79362C56.9504 2.52954 62.0817 0 67.4299 0H72.489C78.9213 0 84.7753 3.54136 87.7385 9.25089C89.184 8.52817 90.774 8.09453 92.4362 8.09453H93.7371C96.4835 8.09453 99.0853 9.17862 101.037 11.13C102.988 13.0813 104.072 15.6832 104.072 18.4295V18.9354C104.072 19.875 103.928 20.8868 103.638 21.7541H108.625C113.54 21.8986 117.443 25.8013 117.443 30.5713Z" fill="#00A76F"/>
<path d="M141.219 114.407V124.526C141.219 125.104 140.93 125.61 140.424 125.826C140.208 125.971 139.919 126.043 139.629 126.043C138.762 126.043 138.039 125.321 138.039 124.526V114.407C138.039 111.011 135.51 108.192 132.185 107.831C131.896 107.831 131.679 107.758 131.39 107.758C127.704 107.758 124.741 110.721 124.741 114.407V124.526C124.741 125.104 124.452 125.61 123.946 125.826C123.729 125.971 123.44 126.043 123.151 126.043C122.284 126.043 121.561 125.321 121.561 124.453V114.335C121.561 108.915 125.97 104.578 131.318 104.578C131.607 104.578 131.824 104.578 132.113 104.651C137.317 105.084 141.219 109.276 141.219 114.407Z" fill="white"/>
<path d="M141.221 114.407V124.526C141.438 124.887 141.366 125.393 141.004 125.682C140.643 125.971 140.209 125.971 139.848 125.682C139.487 125.393 139.414 124.887 139.631 124.526V114.407C139.631 110.721 136.668 107.758 132.982 107.758C132.693 107.758 132.476 107.758 132.187 107.831C131.898 107.831 131.681 107.758 131.392 107.758C127.706 107.758 124.743 110.721 124.743 114.407V124.526C124.96 124.887 124.888 125.393 124.526 125.682C124.165 125.971 123.731 125.971 123.37 125.682C123.008 125.393 122.936 124.959 123.153 124.526V114.407C122.864 111.011 124.526 107.758 127.417 105.951C130.308 104.145 133.994 104.145 136.885 105.951C139.848 107.686 141.51 111.011 141.221 114.407Z" fill="#C4CDD5"/>
<path d="M142.955 124.453H118.961C116.07 124.453 113.685 126.838 113.685 129.729V153.724C113.685 156.615 116.07 159 118.961 159H142.955C145.846 159 148.231 156.615 148.231 153.724V129.729C148.231 126.838 145.846 124.453 142.955 124.453Z" fill="#004B50"/>
<path d="M142.957 124.453H124.961C122.07 124.453 119.685 126.838 119.685 129.729V153.724C119.685 156.615 122.07 159 124.961 159H142.957C145.848 159 148.233 156.615 148.233 153.724V129.729C148.233 126.838 145.848 124.453 142.957 124.453Z" fill="#007867"/>
<path d="M143.098 54.2043H127.198C124.018 54.2043 121.417 56.8061 121.417 59.9861V76.4643C121.417 79.6442 124.018 82.2461 127.198 82.2461H143.098C146.278 82.2461 148.88 79.6442 148.88 76.4643V59.9861C148.88 56.8061 146.278 54.2043 143.098 54.2043Z" fill="url(#paint0_linear_0_25838)"/>
<path opacity="0.08" d="M33.2465 43.1468H17.0575C15.8288 43.1468 14.8893 44.0863 14.8893 45.315V69.0204C14.8893 70.249 15.8288 71.1885 17.0575 71.1885H33.2465C34.4752 71.1885 35.4147 70.249 35.4147 69.0204V45.315C35.4147 44.0863 34.4029 43.1468 33.2465 43.1468Z" fill="#00A76F"/>
<path d="M28.2567 47.6274H11.9953C10.7667 47.6274 9.82716 48.567 9.82716 49.7956V73.501C9.82716 74.7297 10.7667 75.6692 11.9953 75.6692H28.1844C29.413 75.6692 30.3526 74.7297 30.3526 73.501V49.7956C30.4249 48.6393 29.413 47.6274 28.2567 47.6274Z" fill="white"/>
<path opacity="0.48" d="M28.2567 47.6274H11.9953C10.7667 47.6274 9.82716 48.567 9.82716 49.7956V73.501C9.82716 74.7297 10.7667 75.6692 11.9953 75.6692H28.1844C29.413 75.6692 30.3526 74.7297 30.3526 73.501V49.7956C30.4249 48.6393 29.413 47.6274 28.2567 47.6274Z" fill="#00A76F"/>
<path d="M0 125.393C0.144545 126.839 0.650453 128.212 1.44545 129.368C4.62545 135.005 8.23908 140.57 13.1536 144.762C20.4531 150.905 29.9209 153.579 39.1718 156.109C38.3768 155.675 37.3649 151.483 37.0036 150.544C36.2808 148.737 35.6304 146.858 34.9799 145.051C33.8959 142.16 31.6554 139.848 29.4149 137.679C24.4281 132.837 18.3572 129.296 11.7082 127.272C7.87771 126.044 3.90272 125.393 0 125.393Z" fill="#00A76F"/>
<path d="M35.9936 128.501C35.2709 123.225 34.4759 117.949 32.38 113.035C30.2841 108.192 26.5982 103.711 21.6114 101.905C21.4668 109.421 21.3223 116.937 21.1777 124.454C21.1054 128.79 21.0332 133.199 22.2618 137.39C24.43 144.69 32.0186 153.218 39.3181 155.675C40.4022 152.206 38.5954 146.858 38.0895 143.244L35.9936 128.501Z" fill="#004B50"/>
<path d="M113.611 67.936H43.3625C39.9657 67.936 37.2916 70.6824 37.2916 74.0069V87.811C37.2916 91.2078 40.038 93.8819 43.3625 93.8819H113.539C116.936 93.8819 119.61 91.1355 119.61 87.811V74.0069C119.682 70.6824 116.936 67.936 113.611 67.936ZM113.611 99.736H43.3625C39.9657 99.736 37.2916 102.482 37.2916 105.807V119.611C37.2916 123.008 40.038 125.682 43.3625 125.682H113.539C116.936 125.682 119.61 122.935 119.61 119.611V105.807C119.682 102.482 116.936 99.736 113.611 99.736ZM113.611 131.68H43.3625C39.9657 131.68 37.2916 134.427 37.2916 137.751V151.555C37.2916 154.952 40.038 157.626 43.3625 157.626H113.539C116.936 157.626 119.61 154.88 119.61 151.555V137.751C119.682 134.427 116.936 131.68 113.611 131.68Z" fill="#007867"/>
<path d="M113.903 67.936H47.9907C44.5939 67.936 41.9198 70.6824 41.9198 74.0069V87.811C41.9198 91.2078 44.6662 93.8819 47.9907 93.8819H113.831C117.228 93.8819 119.902 91.1355 119.902 87.811V74.0069C119.974 70.6824 117.228 67.936 113.903 67.936ZM119.974 106.674V118.816C119.974 120.623 119.252 122.43 117.878 123.73C116.505 125.031 114.698 125.754 112.747 125.754H49.1471C47.1957 125.754 45.3889 125.031 44.0158 123.73C42.6426 122.43 41.9198 120.695 41.9198 118.816V106.674C41.9198 102.844 45.1721 99.736 49.1471 99.736H112.747C114.698 99.736 116.505 100.459 117.878 101.76C119.179 103.061 119.974 104.795 119.974 106.674ZM113.903 131.536H47.9907C44.5939 131.536 41.9198 134.282 41.9198 137.607V151.411C41.9198 154.808 44.6662 157.482 47.9907 157.482H113.831C117.228 157.482 119.902 154.735 119.902 151.411V137.607C119.974 134.282 117.228 131.536 113.903 131.536Z" fill="url(#paint1_linear_0_25838)"/>
<path d="M58.9751 80.9453C58.9751 82.5353 57.6742 83.8362 56.0842 83.8362C54.4942 83.8362 53.1933 82.5353 53.1933 80.9453C53.1933 79.3553 54.4942 78.0544 56.0842 78.0544C57.6742 78.0544 58.9751 79.3553 58.9751 80.9453ZM67.6479 80.9453C67.6479 82.5353 66.3469 83.8362 64.7569 83.8362C63.167 83.8362 61.866 82.5353 61.866 80.9453C61.866 79.3553 63.167 78.0544 64.7569 78.0544C66.3469 78.0544 67.6479 79.3553 67.6479 80.9453ZM73.4297 83.8362C75.0197 83.8362 76.3206 82.5353 76.3206 80.9453C76.3206 79.3553 75.0197 78.0544 73.4297 78.0544C71.8397 78.0544 70.5388 79.3553 70.5388 80.9453C70.5388 82.5353 71.8397 83.8362 73.4297 83.8362ZM59.2642 112.745C59.2642 114.335 57.9633 115.636 56.3733 115.636C54.7833 115.636 53.4824 114.335 53.4824 112.745C53.4824 111.155 54.7833 109.854 56.3733 109.854C57.9633 109.854 59.2642 111.155 59.2642 112.745ZM67.9369 112.745C67.9369 114.335 66.636 115.636 65.046 115.636C63.456 115.636 62.1551 114.335 62.1551 112.745C62.1551 111.155 63.456 109.854 65.046 109.854C66.636 109.854 67.9369 111.155 67.9369 112.745ZM73.7188 115.636C75.3088 115.636 76.6097 114.335 76.6097 112.745C76.6097 111.155 75.3088 109.854 73.7188 109.854C72.1288 109.854 70.8278 111.155 70.8278 112.745C70.8278 114.335 72.1288 115.636 73.7188 115.636ZM111.301 111.3H89.6187C89.1851 111.3 88.896 111.589 88.896 112.023V113.468C88.896 113.902 89.1851 114.191 89.6187 114.191H111.301C111.734 114.191 112.023 113.902 112.023 113.468V112.023C112.023 111.589 111.734 111.3 111.301 111.3ZM59.2642 144.545C59.2642 146.135 57.9633 147.436 56.3733 147.436C54.7833 147.436 53.4824 146.135 53.4824 144.545C53.4824 142.955 54.7833 141.654 56.3733 141.654C57.9633 141.654 59.2642 142.955 59.2642 144.545ZM67.9369 144.545C67.9369 146.135 66.636 147.436 65.046 147.436C63.456 147.436 62.1551 146.135 62.1551 144.545C62.1551 142.955 63.456 141.654 65.046 141.654C66.636 141.654 67.9369 142.955 67.9369 144.545ZM73.7188 147.436C75.3088 147.436 76.6097 146.135 76.6097 144.545C76.6097 142.955 75.3088 141.654 73.7188 141.654C72.1288 141.654 70.8278 142.955 70.8278 144.545C70.8278 146.135 72.1288 147.436 73.7188 147.436ZM111.301 143.1H89.6187C89.1851 143.1 88.896 143.389 88.896 143.822V145.268C88.896 145.702 89.1851 145.991 89.6187 145.991H111.301C111.734 145.991 112.023 145.702 112.023 145.268V143.822C112.023 143.389 111.734 143.1 111.301 143.1Z" fill="#C8FAD6"/>
<path d="M133.27 142.883C133.631 141.582 132.692 140.209 132.403 138.908C132.33 138.691 132.33 138.402 132.403 138.185C132.547 137.101 133.487 136.306 134.571 136.306C135.655 136.306 136.594 137.101 136.739 138.185C136.811 138.402 136.739 138.691 136.739 138.908C136.522 140.209 135.583 141.654 135.944 142.955L136.233 143.895C136.594 144.979 135.727 146.135 134.571 146.135C133.414 146.135 132.619 145.051 132.908 143.967L133.27 142.883ZM128.644 64.1779L135.293 60.7088L141.653 64.1779C141.653 64.1779 140.497 72.7061 135.438 75.1633C135.438 75.1633 129.223 72.7784 128.644 64.1779Z" fill="#004B50"/>
<defs>
<linearGradient id="paint0_linear_0_25838" x1="142.791" y1="52.9322" x2="126.947" y2="84.6002" gradientUnits="userSpaceOnUse">
<stop stop-color="#00A66F"/>
<stop offset="1" stop-color="#007867"/>
</linearGradient>
<linearGradient id="paint1_linear_0_25838" x1="41.9198" y1="67.936" x2="41.9198" y2="157.482" gradientUnits="userSpaceOnUse">
<stop stop-color="#5BE39A"/>
<stop offset="1" stop-color="#007867"/>
</linearGradient>
</defs>
</svg>
