<svg width="18" height="18" viewBox="0 0 18 18" fill="none" xmlns="http://www.w3.org/2000/svg">
<path d="M16.425 8.24997C16.425 8.16747 16.38 8.08497 16.3575 8.00247C16.3228 7.85692 16.2777 7.71405 16.2225 7.57497C16.185 7.48497 16.1325 7.39497 16.0875 7.29747C16.0425 7.19997 15.975 7.07247 15.9075 6.96747C15.84 6.86247 15.75 6.80997 15.75 6.74997C15.75 6.68997 15.6 6.56247 15.5175 6.47247C15.435 6.38247 15.36 6.32247 15.2775 6.24747L15 5.99997L14.73 5.81997C14.624 5.7551 14.5138 5.69747 14.4 5.64747L14.1075 5.51247C13.985 5.4671 13.8597 5.42952 13.7325 5.39997C13.6317 5.37031 13.5289 5.34776 13.425 5.33247H13.29C13.0011 4.43191 12.4358 3.64527 11.6744 3.08425C10.913 2.52324 9.99425 2.21637 9.04853 2.20724C8.10282 2.19811 7.17827 2.48717 6.40618 3.03337C5.6341 3.57958 5.05373 4.35516 4.7475 5.24997H4.6125C4.50855 5.26526 4.4058 5.28781 4.305 5.31747C4.17775 5.34702 4.0525 5.3846 3.93 5.42997L3.6375 5.56497C3.52374 5.61497 3.41349 5.6726 3.3075 5.73747L3.0375 5.99997L2.76 6.23247C2.6775 6.30747 2.595 6.37497 2.52 6.45747C2.445 6.53997 2.3625 6.64497 2.2875 6.73497C2.2125 6.82497 2.1525 6.90747 2.0925 7.00497C2.0325 7.10247 1.9725 7.22247 1.9125 7.33497C1.8525 7.44747 1.815 7.52247 1.7775 7.61247C1.72233 7.75155 1.67722 7.89442 1.6425 8.03997C1.6425 8.12247 1.59 8.20497 1.575 8.28747C1.52832 8.52218 1.50321 8.76067 1.5 8.99997C1.50352 9.22894 1.52609 9.45723 1.5675 9.68247C1.5675 9.75746 1.605 9.82497 1.62 9.89997C1.65707 10.0473 1.70214 10.1925 1.755 10.335L1.845 10.5525C1.91102 10.6971 1.98617 10.8374 2.07 10.9725L2.175 11.1375C2.18579 11.1585 2.19833 11.1786 2.2125 11.1975L2.25 11.25C2.5993 11.7157 3.05224 12.0937 3.57295 12.3541C4.09366 12.6144 4.66783 12.75 5.25 12.75C5.25167 12.3528 5.41081 11.9725 5.6925 11.6925C5.97251 11.4108 6.35282 11.2516 6.75 11.25C7.01383 11.2475 7.27327 11.3175 7.5 11.4525V8.99997C7.5 8.60214 7.65804 8.22061 7.93934 7.93931C8.22064 7.658 8.60218 7.49997 9 7.49997C9.39782 7.49997 9.77936 7.658 10.0607 7.93931C10.342 8.22061 10.5 8.60214 10.5 8.99997V11.5275C10.7279 11.3953 10.9866 11.3254 11.25 11.325C11.6563 11.3288 12.0446 11.4932 12.33 11.7825C12.5825 12.0435 12.7317 12.3873 12.75 12.75C13.3322 12.75 13.9063 12.6144 14.4271 12.3541C14.9478 12.0937 15.4007 11.7157 15.75 11.25L15.7875 11.2125C15.8017 11.1936 15.8142 11.1735 15.825 11.1525L15.93 10.9875C16.0138 10.8524 16.089 10.7121 16.155 10.5675L16.245 10.35C16.2979 10.2075 16.3429 10.0623 16.38 9.91497C16.38 9.83997 16.4175 9.77247 16.4325 9.69747C16.4747 9.4673 16.4973 9.23396 16.5 8.99997C16.4991 8.74814 16.474 8.49698 16.425 8.24997Z" fill="#212B36"/>
<path d="M10.7325 12.285L9.75 13.23V8.99997C9.75 8.80105 9.67098 8.61029 9.53033 8.46964C9.38968 8.32898 9.19891 8.24997 9 8.24997C8.80109 8.24997 8.61032 8.32898 8.46967 8.46964C8.32902 8.61029 8.25 8.80105 8.25 8.99997V13.1925L7.2825 12.2175C7.21257 12.1475 7.12955 12.0921 7.03819 12.0542C6.94682 12.0164 6.84889 11.9969 6.75 11.9969C6.65111 11.9969 6.55318 12.0164 6.46181 12.0542C6.37045 12.0921 6.28743 12.1475 6.2175 12.2175C6.14757 12.2874 6.0921 12.3704 6.05426 12.4618C6.01641 12.5531 5.99693 12.6511 5.99693 12.75C5.99693 12.8489 6.01641 12.9468 6.05426 13.0382C6.0921 13.1295 6.14757 13.2125 6.2175 13.2825L8.4675 15.5325C8.53758 15.602 8.62069 15.657 8.71207 15.6943C8.80345 15.7316 8.9013 15.7505 9 15.75C9.1931 15.7492 9.37847 15.674 9.5175 15.54L11.7675 13.365C11.8471 13.2993 11.9123 13.2179 11.959 13.1259C12.0057 13.0339 12.0329 12.9332 12.0389 12.8302C12.0449 12.7272 12.0296 12.6241 11.9939 12.5273C11.9583 12.4305 11.903 12.342 11.8316 12.2676C11.7603 12.1931 11.6743 12.1341 11.5791 12.0944C11.4838 12.0546 11.3814 12.0349 11.2783 12.0366C11.1751 12.0382 11.0734 12.0611 10.9795 12.1039C10.8856 12.1466 10.8015 12.2082 10.7325 12.285Z" fill="#212B36"/>
<path d="M16.425 8.24997C16.425 8.16747 16.38 8.08497 16.3575 8.00247C16.3228 7.85692 16.2777 7.71405 16.2225 7.57497C16.185 7.48497 16.1325 7.39497 16.0875 7.29747C16.0425 7.19997 15.975 7.07247 15.9075 6.96747C15.84 6.86247 15.75 6.80997 15.75 6.74997C15.75 6.68997 15.6 6.56247 15.5175 6.47247C15.435 6.38247 15.36 6.32247 15.2775 6.24747L15 5.99997L14.73 5.81997C14.624 5.7551 14.5138 5.69747 14.4 5.64747L14.1075 5.51247C13.985 5.4671 13.8597 5.42952 13.7325 5.39997C13.6317 5.37031 13.5289 5.34776 13.425 5.33247H13.29C13.0011 4.43191 12.4358 3.64527 11.6744 3.08425C10.913 2.52324 9.99425 2.21637 9.04853 2.20724C8.10282 2.19811 7.17827 2.48717 6.40618 3.03337C5.6341 3.57958 5.05373 4.35516 4.7475 5.24997H4.6125C4.50855 5.26526 4.4058 5.28781 4.305 5.31747C4.17775 5.34702 4.0525 5.3846 3.93 5.42997L3.6375 5.56497C3.52374 5.61497 3.41349 5.6726 3.3075 5.73747L3.0375 5.99997L2.76 6.23247C2.6775 6.30747 2.595 6.37497 2.52 6.45747C2.445 6.53997 2.3625 6.64497 2.2875 6.73497C2.2125 6.82497 2.1525 6.90747 2.0925 7.00497C2.0325 7.10247 1.9725 7.22247 1.9125 7.33497C1.8525 7.44747 1.815 7.52247 1.7775 7.61247C1.72233 7.75155 1.67722 7.89442 1.6425 8.03997C1.6425 8.12247 1.59 8.20497 1.575 8.28747C1.52832 8.52218 1.50321 8.76067 1.5 8.99997C1.50352 9.22894 1.52609 9.45723 1.5675 9.68247C1.5675 9.75746 1.605 9.82497 1.62 9.89997C1.65707 10.0473 1.70214 10.1925 1.755 10.335L1.845 10.5525C1.91102 10.6971 1.98617 10.8374 2.07 10.9725L2.175 11.1375C2.18579 11.1585 2.19833 11.1786 2.2125 11.1975L2.25 11.25C2.5993 11.7157 3.05224 12.0937 3.57295 12.3541C4.09366 12.6144 4.66783 12.75 5.25 12.75C5.25167 12.3528 5.41081 11.9725 5.6925 11.6925C5.97251 11.4108 6.35282 11.2516 6.75 11.25C7.01383 11.2475 7.27327 11.3175 7.5 11.4525V8.99997C7.5 8.60214 7.65804 8.22061 7.93934 7.93931C8.22064 7.658 8.60218 7.49997 9 7.49997C9.39782 7.49997 9.77936 7.658 10.0607 7.93931C10.342 8.22061 10.5 8.60214 10.5 8.99997V11.5275C10.7279 11.3953 10.9866 11.3254 11.25 11.325C11.6563 11.3288 12.0446 11.4932 12.33 11.7825C12.5825 12.0435 12.7317 12.3873 12.75 12.75C13.3322 12.75 13.9063 12.6144 14.4271 12.3541C14.9478 12.0937 15.4007 11.7157 15.75 11.25L15.7875 11.2125C15.8017 11.1936 15.8142 11.1735 15.825 11.1525L15.93 10.9875C16.0138 10.8524 16.089 10.7121 16.155 10.5675L16.245 10.35C16.2979 10.2075 16.3429 10.0623 16.38 9.91497C16.38 9.83997 16.4175 9.77247 16.4325 9.69747C16.4747 9.4673 16.4973 9.23396 16.5 8.99997C16.4991 8.74814 16.474 8.49698 16.425 8.24997Z" fill="#212B36"/>
<path d="M10.7325 12.285L9.75 13.23V8.99997C9.75 8.80105 9.67098 8.61029 9.53033 8.46964C9.38968 8.32898 9.19891 8.24997 9 8.24997C8.80109 8.24997 8.61032 8.32898 8.46967 8.46964C8.32902 8.61029 8.25 8.80105 8.25 8.99997V13.1925L7.2825 12.2175C7.21257 12.1475 7.12955 12.0921 7.03819 12.0542C6.94682 12.0164 6.84889 11.9969 6.75 11.9969C6.65111 11.9969 6.55318 12.0164 6.46181 12.0542C6.37045 12.0921 6.28743 12.1475 6.2175 12.2175C6.14757 12.2874 6.0921 12.3704 6.05426 12.4618C6.01641 12.5531 5.99693 12.6511 5.99693 12.75C5.99693 12.8489 6.01641 12.9468 6.05426 13.0382C6.0921 13.1295 6.14757 13.2125 6.2175 13.2825L8.4675 15.5325C8.53758 15.602 8.62069 15.657 8.71207 15.6943C8.80345 15.7316 8.9013 15.7505 9 15.75C9.1931 15.7492 9.37847 15.674 9.5175 15.54L11.7675 13.365C11.8471 13.2993 11.9123 13.2179 11.959 13.1259C12.0057 13.0339 12.0329 12.9332 12.0389 12.8302C12.0449 12.7272 12.0296 12.6241 11.9939 12.5273C11.9583 12.4305 11.903 12.342 11.8316 12.2676C11.7603 12.1931 11.6743 12.1341 11.5791 12.0944C11.4838 12.0546 11.3814 12.0349 11.2783 12.0366C11.1751 12.0382 11.0734 12.0611 10.9795 12.1039C10.8856 12.1466 10.8015 12.2082 10.7325 12.285Z" fill="#212B36"/>
</svg>
