<svg width="20" height="20" viewBox="0 0 20 20" fill="none" xmlns="http://www.w3.org/2000/svg">
<path d="M8.1481 9.99984C8.1481 11.0224 8.97692 11.8516 9.99984 11.8516C11.0228 11.8516 11.8516 11.0228 11.8516 9.99984C11.8516 8.97727 11.0228 8.1481 9.99984 8.1481C8.97727 8.1481 8.1481 8.97692 8.1481 9.99984Z" fill="#E02D69"/>
<path fill-rule="evenodd" clip-rule="evenodd" d="M9.99984 5.44532C11.4832 5.44532 11.6589 5.45088 12.2446 5.47762C12.8769 5.50643 13.4637 5.63317 13.9151 6.08456C14.3665 6.53595 14.4932 7.12275 14.5221 7.75505C14.5488 8.34081 14.5544 8.5165 14.5544 9.99984C14.5544 11.4832 14.5488 11.6589 14.5221 12.2446C14.4932 12.8769 14.3665 13.4637 13.9151 13.9151C13.4637 14.3665 12.8769 14.4932 12.2446 14.5221C11.6589 14.5488 11.4832 14.5544 9.99984 14.5544C8.5165 14.5544 8.34081 14.5488 7.75505 14.5221C7.12275 14.4932 6.53595 14.3665 6.08456 13.9151C5.63317 13.4637 5.50643 12.8769 5.47762 12.2446C5.45088 11.6589 5.44532 11.4832 5.44532 9.99984C5.44532 8.5165 5.45088 8.34081 5.47762 7.75505C5.50643 7.12275 5.63317 6.53595 6.08456 6.08456C6.53595 5.63317 7.12275 5.50643 7.75505 5.47762C8.34081 5.45088 8.5165 5.44532 9.99984 5.44532ZM7.14706 9.99984C7.14706 8.42449 8.42414 7.14706 9.99984 7.14706C11.5755 7.14706 12.8526 8.42449 12.8526 9.99984C12.8526 11.5752 11.5752 12.8526 9.99984 12.8526C8.42449 12.8526 7.14706 11.5752 7.14706 9.99984ZM12.9655 7.70088C13.3337 7.70088 13.6321 7.4024 13.6321 7.03421C13.6321 6.66602 13.3337 6.36755 12.9655 6.36755C12.5973 6.36755 12.2988 6.66602 12.2988 7.03421C12.2988 7.4024 12.5973 7.70088 12.9655 7.70088Z" fill="#E02D69"/>
<path fill-rule="evenodd" clip-rule="evenodd" d="M6.56407 1.7165C7.45296 1.67623 7.73664 1.6665 9.99984 1.6665C12.263 1.6665 12.5467 1.67623 13.4356 1.7165C14.7905 1.77831 15.9797 2.11025 16.9346 3.06512C17.8898 4.02032 18.2214 5.20991 18.2832 6.56407C18.3235 7.45296 18.3332 7.73664 18.3332 9.99984C18.3332 12.263 18.3235 12.5467 18.2832 13.4356C18.2214 14.7905 17.8894 15.9797 16.9346 16.9346C15.9794 17.8898 14.7894 18.2214 13.4356 18.2832C12.5467 18.3235 12.263 18.3332 9.99984 18.3332C7.73664 18.3332 7.45296 18.3235 6.56407 18.2832C5.20921 18.2214 4.01998 17.8894 3.06512 16.9346C2.10991 15.9794 1.77831 14.7898 1.7165 13.4356C1.67623 12.5467 1.6665 12.263 1.6665 9.99984C1.6665 7.73664 1.67623 7.45296 1.7165 6.56407C1.77831 5.20921 2.11025 4.01998 3.06512 3.06512C4.02032 2.10991 5.20991 1.77831 6.56407 1.7165ZM9.99984 4.44428C8.49116 4.44428 8.30192 4.45053 7.70921 4.47762C6.80643 4.51893 6.01338 4.74012 5.37657 5.37657C4.74012 6.01303 4.51893 6.80609 4.47762 7.70921C4.45053 8.30192 4.44428 8.49116 4.44428 9.99984C4.44428 11.5085 4.45053 11.6978 4.47762 12.2905C4.51893 13.1932 4.74012 13.9863 5.37657 14.6231C6.01303 15.2596 6.80609 15.4807 7.70921 15.5221C8.30192 15.5491 8.49116 15.5554 9.99984 15.5554C11.5085 15.5554 11.6978 15.5491 12.2905 15.5221C13.1932 15.4807 13.9863 15.2596 14.6231 14.6231C15.2596 13.9866 15.4807 13.1936 15.5221 12.2905C15.5491 11.6978 15.5554 11.5085 15.5554 9.99984C15.5554 8.49116 15.5491 8.30192 15.5221 7.70921C15.4807 6.80643 15.2596 6.01338 14.6231 5.37657C13.9866 4.74012 13.1936 4.51893 12.2905 4.47762C11.6978 4.45053 11.5085 4.44428 9.99984 4.44428Z" fill="#E02D69"/>
</svg>
