<svg width="26" height="21" viewBox="0 0 26 21" fill="none" xmlns="http://www.w3.org/2000/svg">
<g clip-path="url(#clip0_0_52608)">
<path d="M10.9436 8.68396C12.8021 8.83023 14.74 7.50036 15.272 5.71363C15.8039 3.92689 14.7286 2.35988 12.8701 2.21361C11.0116 2.06735 9.0737 3.39721 8.54173 5.18395C8.00976 6.97068 9.08512 8.53769 10.9436 8.68396Z" fill="#00A76F"/>
<path d="M8.29453 17.5815C11.5469 17.8375 14.6147 16.5965 15.1467 14.8098C15.6787 13.0231 13.4733 11.3671 10.221 11.1111C6.96859 10.8552 3.90077 12.0961 3.3688 13.8829C2.83683 15.6696 5.04216 17.3255 8.29453 17.5815Z" fill="#00A76F"/>
<path d="M19.3525 15.14C18.9535 16.4801 16.9172 17.4315 14.8267 17.267C15.6351 16.6684 16.3011 15.889 16.5884 14.9241C16.8762 13.9576 16.6933 13.1113 16.2687 12.4149C18.3604 12.5787 19.7513 13.8006 19.3525 15.14ZM19.4775 6.04461C19.3615 6.43505 19.1493 6.81207 18.8587 7.14367C18.5682 7.47527 18.2079 7.75164 17.8086 7.94933C17.4092 8.14702 16.9825 8.26018 16.5648 8.27922C16.147 8.29825 15.7505 8.22258 15.4089 8.05865C16.0269 7.39587 16.4764 6.62672 16.7131 5.82705C16.9599 4.99803 16.9644 4.2021 16.7677 3.49793C17.1889 3.3942 17.6111 3.3831 17.9986 3.46558C18.386 3.54806 18.7271 3.72169 18.9931 3.97172C19.259 4.22175 19.4419 4.5408 19.5262 4.90181C19.6105 5.26282 19.5939 5.65431 19.4775 6.04461Z" fill="#00A76F"/>
</g>
<defs>
<clipPath id="clip0_0_52608">
<rect width="20" height="20" fill="white" transform="matrix(1.00953 0.0794521 -0.288965 0.970552 5.77932 0)"/>
</clipPath>
</defs>
</svg>
