<svg width="20" height="20" viewBox="0 0 20 20" fill="none" xmlns="http://www.w3.org/2000/svg">
<path d="M8.33334 15.8334C8.13863 15.8337 7.94993 15.7659 7.8 15.6417C7.62958 15.5004 7.52238 15.2971 7.50206 15.0767C7.48173 14.8562 7.54996 14.6368 7.69167 14.4667L11.425 10L7.825 5.52504C7.6852 5.35287 7.61978 5.13208 7.64324 4.91155C7.6667 4.69102 7.7771 4.48893 7.95 4.35004C8.12431 4.19667 8.35469 4.12297 8.58565 4.1467C8.81661 4.17043 9.02719 4.28943 9.16667 4.47504L13.1917 9.47504C13.4444 9.78254 13.4444 10.2259 13.1917 10.5334L9.025 15.5334C8.85545 15.7379 8.59853 15.8493 8.33334 15.8334Z" fill="white"/>
</svg>
