<svg width="22" height="22" viewBox="0 0 22 22" fill="none" xmlns="http://www.w3.org/2000/svg">
<path opacity="0.32" fill-rule="evenodd" clip-rule="evenodd" d="M3.78024 2.05675C4.87521 1.94413 6.69667 1.83337 9.62565 1.83337C12.5546 1.83337 14.3761 1.94413 15.4711 2.05675C16.4064 2.15295 17.0871 2.84674 17.1948 3.78078C17.3071 4.75548 17.4173 6.22723 17.4173 8.25004C17.4173 10.2729 17.3071 11.7446 17.1948 12.7193C17.0871 13.6533 16.4065 14.3471 15.4712 14.4433C14.5042 14.5428 12.9704 14.6408 10.6074 14.6624C10.2411 14.6657 9.88924 14.8126 9.63207 15.0734L8.08198 16.6453C7.40901 17.3277 6.24544 16.9315 6.12884 15.9802L6.00615 14.9796C5.97892 14.7575 5.79371 14.5876 5.57023 14.576C4.82731 14.5375 4.24026 14.4906 3.78096 14.4434C2.84567 14.3472 2.16419 13.6533 2.05654 12.7193C1.9442 11.7446 1.83398 10.2729 1.83398 8.25004C1.83398 6.22723 1.9442 4.75548 2.05654 3.78078C2.16419 2.84674 2.84494 2.15295 3.78024 2.05675ZM6.41732 5.50004C5.91104 5.50004 5.50065 5.91043 5.50065 6.41671C5.50065 6.92298 5.91104 7.33337 6.41732 7.33337H12.834C13.3403 7.33337 13.7507 6.92298 13.7507 6.41671C13.7507 5.91043 13.3403 5.50004 12.834 5.50004H6.41732ZM6.41732 9.62504C5.91104 9.62504 5.50065 10.0354 5.50065 10.5417C5.50065 11.048 5.91104 11.4584 6.41732 11.4584H10.084C10.5903 11.4584 11.0007 11.048 11.0007 10.5417C11.0007 10.0354 10.5903 9.62504 10.084 9.62504H6.41732Z" fill="#637381"/>
<path d="M5.5 6.41667C5.5 5.91039 5.91039 5.5 6.41667 5.5H12.8333C13.3396 5.5 13.75 5.91039 13.75 6.41667C13.75 6.92294 13.3396 7.33333 12.8333 7.33333H6.41667C5.91039 7.33333 5.5 6.92294 5.5 6.41667Z" fill="#637381"/>
<path d="M5.5 10.5417C5.5 10.0354 5.91039 9.625 6.41667 9.625H10.0833C10.5896 9.625 11 10.0354 11 10.5417C11 11.0479 10.5896 11.4583 10.0833 11.4583H6.41667C5.91039 11.4583 5.5 11.0479 5.5 10.5417Z" fill="#637381"/>
<path d="M9.19111 15.5199L9.63142 15.0734C9.88859 14.8126 10.2405 14.6657 10.6068 14.6623C12.9698 14.6408 14.5035 14.5427 15.4706 14.4433C16.4059 14.3471 17.0865 13.6533 17.1941 12.7193C17.2675 12.0825 17.34 11.2335 17.3814 10.1574C17.846 10.1849 18.2118 10.2174 18.4967 10.2494C19.0701 10.3138 19.4905 10.728 19.5618 11.3006C19.6364 11.8991 19.7083 12.8329 19.7083 14.2083C19.7083 15.5838 19.6364 16.5176 19.5618 17.1161C19.4905 17.6886 19.0695 18.1029 18.4961 18.1673C18.1129 18.2104 17.5833 18.2542 16.8641 18.2859C16.6513 18.2953 16.4709 18.4481 16.4297 18.657L16.2732 19.4507C16.1705 19.9713 15.5419 20.1843 15.144 19.8333L13.8161 18.6624C13.5702 18.4455 13.2536 18.3243 12.9258 18.3165C11.7204 18.2879 10.9101 18.227 10.3796 18.1674C9.80623 18.103 9.38447 17.6886 9.31315 17.1161C9.26526 16.7317 9.21846 16.209 9.19111 15.5199Z" fill="#637381"/>
</svg>
