<svg width="22" height="22" viewBox="0 0 22 22" fill="none" xmlns="http://www.w3.org/2000/svg">
<g clip-path="url(#clip0_0_43278)">
<g opacity="0.32">
<path d="M2.39135 21.0689C1.62452 21.0495 1.04369 20.5882 0.981003 19.8237C0.943456 19.3658 0.916016 18.7365 0.916016 17.875C0.916016 17.0135 0.943456 16.3842 0.981003 15.9263C1.04369 15.1618 1.62452 14.7005 2.39135 14.6811C2.72685 14.6725 3.14632 14.6667 3.66602 14.6667C4.18571 14.6667 4.60519 14.6725 4.94069 14.6811C5.70752 14.7005 6.28832 15.1618 6.35102 15.9263C6.38856 16.3842 6.41602 17.0135 6.41602 17.875C6.41602 18.7365 6.38856 19.3658 6.35102 19.8237C6.28832 20.5882 5.70752 21.0495 4.94069 21.0689C4.60519 21.0775 4.18571 21.0833 3.66602 21.0833C3.14632 21.0833 2.72685 21.0775 2.39135 21.0689Z" fill="#212B36"/>
<path d="M17.2744 21.0643C16.381 21.0291 15.7546 20.401 15.6966 19.5088C15.6366 18.5836 15.5827 17.0809 15.5827 14.6667C15.5827 12.2524 15.6366 10.7497 15.6966 9.82456C15.7546 8.93232 16.381 8.30427 17.2744 8.26902C17.5692 8.25738 17.9192 8.25 18.3327 8.25C18.7461 8.25 19.0962 8.25738 19.391 8.26902C20.2844 8.30427 20.9108 8.93232 20.9687 9.82456C21.0288 10.7497 21.0827 12.2524 21.0827 14.6667C21.0827 17.0809 21.0288 18.5836 20.9687 19.5088C20.9108 20.401 20.2844 21.0291 19.391 21.0643C19.0962 21.076 18.7461 21.0833 18.3327 21.0833C17.9192 21.0833 17.5692 21.076 17.2744 21.0643Z" fill="#212B36"/>
<path d="M9.8779 21.0679C9.02182 21.0419 8.39785 20.48 8.33634 19.6258C8.28803 18.9544 8.24935 17.9608 8.24935 16.5C8.24935 15.0392 8.28803 14.0456 8.33634 13.3742C8.39785 12.52 9.02182 11.9581 9.8779 11.9321C10.1855 11.9228 10.556 11.9167 10.9993 11.9167C11.4427 11.9167 11.8132 11.9228 12.1208 11.9321C12.9769 11.9581 13.6009 12.52 13.6624 13.3742C13.7107 14.0456 13.7493 15.0392 13.7493 16.5C13.7493 17.9608 13.7107 18.9544 13.6624 19.6258C13.6009 20.48 12.9769 21.0419 12.1208 21.0679C11.8132 21.0772 11.4427 21.0833 10.9993 21.0833C10.556 21.0833 10.1855 21.0772 9.8779 21.0679Z" fill="#212B36"/>
</g>
<path d="M19.213 5.54642C19.1674 6.45204 18.306 6.79231 17.6378 6.17929C17.334 5.90053 16.9703 5.55738 16.5376 5.13599C15.5603 6.02538 14.0445 7.41207 12.2374 9.09012C11.7628 9.53081 10.992 9.48154 10.5774 8.98402L10.5771 8.98365C9.76345 8.0102 8.94377 7.04068 8.09553 6.09716C7.10434 6.8249 5.32518 8.21177 3.55958 9.97736C3.1121 10.4248 2.3866 10.4248 1.93912 9.97736C1.49165 9.52989 1.49165 8.8044 1.93912 8.35692C3.67127 6.62479 5.57177 5 7.61002 3.63292L7.61318 3.63079C7.61396 3.63028 7.61373 3.63042 7.61373 3.63042C8.06822 3.32745 8.67335 3.38737 9.05959 3.77359C9.94688 4.66088 10.7486 5.63685 11.5602 6.5933C12.9398 5.3173 14.1021 4.25417 14.9171 3.51216C14.5473 3.13051 14.2409 2.8051 13.9876 2.5291C13.3744 1.86085 13.7149 0.999189 14.6207 0.953604C15.7765 0.895437 16.9627 0.861208 18.1045 1.07467C18.6186 1.17078 18.9957 1.54795 19.0918 2.06206C19.3052 3.20398 19.2711 4.3904 19.213 5.54642Z" fill="#212B36"/>
</g>
<defs>
<clipPath id="clip0_0_43278">
<rect width="22" height="22" fill="white"/>
</clipPath>
</defs>
</svg>
