<svg width="24" height="24" viewBox="0 0 24 24" fill="none" xmlns="http://www.w3.org/2000/svg">
<path d="M2.625 20.25C2.32663 20.25 2.04048 20.3685 1.8295 20.5795C1.61853 20.7905 1.5 21.0766 1.5 21.375C1.5 21.6734 1.61853 21.9595 1.8295 22.1705C2.04048 22.3815 2.32663 22.5 2.625 22.5H21.375C21.6734 22.5 21.9595 22.3815 22.1705 22.1705C22.3815 21.9595 22.5 21.6734 22.5 21.375C22.5 21.0766 22.3815 20.7905 22.1705 20.5795C21.9595 20.3685 21.6734 20.25 21.375 20.25H2.625Z" fill="#00A76F"/>
<path opacity="0.32" d="M12.453 6.22505C12.5805 6.03005 12.726 5.82455 12.888 5.61305L12.912 5.58005C13.31 5.05221 13.7681 4.57248 14.277 4.15055C14.8665 3.67055 15.5805 3.25955 16.3995 3.08555C16.6725 3.02855 16.959 2.99855 17.2545 3.00005C19.281 3.01355 20.8125 4.39505 21.7515 5.55605C21.87 5.70155 21.9765 5.84255 22.0755 5.97755L22.1175 6.03605C22.218 6.17405 22.2975 6.31805 22.3575 6.46355L22.3695 6.49205C22.7655 7.50005 22.227 8.58905 21.3 9.04955C21.2283 9.0856 21.1547 9.11765 21.0795 9.14555L17.7315 10.3726L13.0725 17.0926C11.6655 19.1221 8.4915 17.7346 9.027 15.3226L9.495 13.2121L4.8375 14.5246C4.44734 14.6346 4.037 14.6528 3.63864 14.5777C3.24029 14.5025 2.86474 14.3362 2.54143 14.0916C2.21813 13.8471 1.95585 13.531 1.77517 13.1681C1.59449 12.8052 1.5003 12.4054 1.5 12.0001V7.74005C1.5 5.92505 3.957 5.35955 4.749 6.99455L5.6565 8.86805L10.8045 7.51205C11.4525 7.34255 12.0285 6.87005 12.4545 6.22505H12.453ZM6.516 6.85955L6.666 7.05155L10.4235 6.06155C10.6215 6.01055 10.92 5.82455 11.202 5.39855C11.3516 5.17044 11.5087 4.94732 11.673 4.72955L9.762 3.42005C9.36328 3.14647 8.89106 3.00005 8.4075 3.00005C6.42 3.00005 5.2965 5.28755 6.516 6.85955Z" fill="#00A76F"/>
</svg>
