<svg width="38" height="40" viewBox="0 0 38 40" fill="none" xmlns="http://www.w3.org/2000/svg">
<path d="M21.285 33.1886C27.7551 31.6592 31.7604 25.1743 30.231 18.7042C28.7016 12.2341 22.2166 8.22888 15.7465 9.75831C9.27634 11.2877 5.27109 17.7726 6.80051 24.2428C8.32992 30.7129 14.8149 34.7181 21.285 33.1886Z" fill="#FFD666"/>
<path d="M18.5176 9.4436V33.5242C25.1566 33.5242 30.5578 28.1229 30.5578 21.4839C30.5578 14.8449 25.1566 9.4436 18.5176 9.4436Z" fill="#FFAB00"/>
<path d="M31.6091 8.391C28.7427 5.52459 25.1017 3.71467 21.1584 3.15459L22.3125 2.00045C22.7702 1.54279 22.7702 0.80084 22.3125 0.343184C21.8549 -0.114395 21.1129 -0.114395 20.6552 0.343184L17.6875 3.31092C17.2299 3.7685 17.2299 4.51053 17.6875 4.96819L20.6552 7.93584C20.884 8.16467 21.1839 8.27913 21.4838 8.27913C21.7836 8.27913 22.0836 8.16467 22.3124 7.93584C22.77 7.47827 22.77 6.73623 22.3124 6.27858L21.6513 5.61748C29.0733 7.08155 34.6885 13.6388 34.6885 21.4838C34.6886 30.4013 27.4336 37.6562 18.5162 37.6562C9.59875 37.6562 2.34375 30.4013 2.34375 21.4839C2.34375 18.0812 3.38805 14.8262 5.36383 12.0708C7.2986 9.37264 9.96579 7.35928 13.0773 6.2485C13.6868 6.03084 14.0045 5.36037 13.7869 4.75076C13.5693 4.14123 12.8987 3.82358 12.2891 4.04115C8.72641 5.31311 5.67305 7.61748 3.45906 10.7051C1.19609 13.861 0 17.5883 0 21.484C0 26.4298 1.92602 31.0796 5.42328 34.5769C8.92055 38.0739 13.5703 40 18.5162 40C23.462 40 28.1118 38.074 31.6091 34.5768C35.1063 31.0795 37.0324 26.4298 37.0324 21.4839C37.0324 16.538 35.1063 11.8882 31.6091 8.391Z" fill="#00B8D9"/>
<path d="M19.9486 20.3212C19.0216 19.9935 17.9976 19.5986 17.4318 19.1548C17.2902 19.0437 17.2298 18.7624 17.2848 18.4705C17.3136 18.3173 17.4477 17.8058 17.9631 17.6506C18.8699 17.3774 19.4877 17.7367 19.7113 17.9037C20.2299 18.2913 20.9641 18.1852 21.3515 17.6668C21.7391 17.1484 21.633 16.4141 21.1146 16.0266C20.8998 15.8659 20.3759 15.5224 19.626 15.3359V15.0215C19.626 14.3743 19.1013 13.8496 18.4542 13.8496C17.807 13.8496 17.2823 14.3743 17.2823 15.0215V15.4081C16.1011 15.7659 15.2197 16.7724 14.9816 18.0364C14.7613 19.2054 15.1459 20.3405 15.9855 20.999C16.8157 21.6502 18.0054 22.1201 19.1674 22.5309C20.0841 22.8548 20.1111 23.5568 20.0456 23.9463C19.9363 24.5966 19.3892 25.2994 18.4463 25.3056C17.4618 25.312 17.1817 25.2677 16.4386 24.7816C15.8969 24.4271 15.1707 24.579 14.8163 25.1207C14.462 25.6623 14.6138 26.3886 15.1555 26.743C15.9638 27.2717 16.5695 27.5023 17.2823 27.5947V27.9462C17.2823 28.5934 17.807 29.1181 18.4542 29.1181C19.1013 29.1181 19.626 28.5934 19.626 27.9462V27.4748C20.1782 27.3069 20.6828 27.0199 21.1177 26.6204C21.7699 26.0212 22.2099 25.2095 22.357 24.3348C22.6571 22.5494 21.6893 20.9365 19.9486 20.3212Z" fill="#B76E00"/>
<path d="M21.1598 3.15459L22.3139 2.00045C22.7715 1.54279 22.7715 0.80084 22.3139 0.343184C21.8563 -0.114395 21.1143 -0.114395 20.6566 0.343184L17.6889 3.31092C17.2313 3.7685 17.2313 4.51053 17.6889 4.96819L20.6566 7.93584C20.8854 8.16467 21.1854 8.27913 21.4852 8.27913C21.785 8.27913 22.085 8.16467 22.3138 7.93584C22.7714 7.47827 22.7714 6.73623 22.3138 6.27858L21.6527 5.61748C29.0747 7.08155 34.6899 13.6388 34.6899 21.4838C34.69 30.4013 27.435 37.6562 18.5176 37.6562V40C23.4635 40 28.1132 38.074 31.6105 34.5768C35.1078 31.0795 37.0338 26.4298 37.0338 21.4839C37.0338 16.538 35.1078 11.8883 31.6105 8.391C28.7441 5.52459 25.1032 3.71459 21.1598 3.15459Z" fill="#00B8D9"/>
<path d="M19.9484 20.3212C19.4718 20.1528 18.97 19.9664 18.5176 19.7649V22.2945C18.7334 22.3759 18.9508 22.4545 19.1672 22.531C20.0838 22.855 20.1109 23.5569 20.0454 23.9464C19.9389 24.5798 19.4159 25.2611 18.5176 25.302V29.115C19.135 29.0818 19.6258 28.5721 19.6258 27.9464V27.475C20.178 27.307 20.6826 27.02 21.1175 26.6205C21.7696 26.0214 22.2096 25.2096 22.3567 24.3349C22.6569 22.5495 21.6891 20.9365 19.9484 20.3212Z" fill="#B76E00"/>
<path d="M18.5176 13.8528V17.5547C19.1216 17.5275 19.5366 17.7734 19.711 17.9037C20.2296 18.2914 20.9638 18.1853 21.3513 17.6668C21.7389 17.1484 21.6328 16.4141 21.1144 16.0266C20.8996 15.866 20.3756 15.5225 19.6258 15.336V15.0215C19.6258 14.3958 19.135 13.8861 18.5176 13.8528Z" fill="#B76E00"/>
</svg>
