<svg width="20" height="20" viewBox="0 0 20 20" fill="none" xmlns="http://www.w3.org/2000/svg">
<path fill-rule="evenodd" clip-rule="evenodd" d="M1.66602 5.83342C1.66602 3.53223 3.5315 1.66675 5.83268 1.66675H14.166C16.4672 1.66675 18.3327 3.53223 18.3327 5.83342V14.1667C18.3327 16.4679 16.4672 18.3334 14.166 18.3334H5.83268C3.5315 18.3334 1.66602 16.4679 1.66602 14.1667V5.83342ZM13.8452 8.74591L9.88685 12.7042C9.74518 12.8459 9.56185 12.9126 9.37018 12.9126C9.18685 12.9126 9.00352 12.8459 8.86185 12.7042L6.87852 10.7292C6.59518 10.4376 6.59518 9.97925 6.87852 9.69591C7.16185 9.41258 7.62852 9.41258 7.91185 9.69591L9.37018 11.1542L12.8118 7.71258C13.0952 7.42925 13.5618 7.42925 13.8452 7.71258C14.1285 8.00425 14.1285 8.46258 13.8452 8.74591Z" fill="#00A76F"/>
</svg>
