<svg width="24" height="24" viewBox="0 0 24 24" fill="none" xmlns="http://www.w3.org/2000/svg">
<path d="M20 10.9902C19.7348 10.9902 19.4804 11.0956 19.2929 11.2831C19.1054 11.4707 19 11.725 19 11.9902V17.9902C19 18.2555 18.8946 18.5098 18.7071 18.6973C18.5196 18.8849 18.2652 18.9902 18 18.9902H6C5.73478 18.9902 5.48043 18.8849 5.29289 18.6973C5.10536 18.5098 5 18.2555 5 17.9902V5.99023C5 5.72502 5.10536 5.47066 5.29289 5.28313C5.48043 5.09559 5.73478 4.99023 6 4.99023H12C12.2652 4.99023 12.5196 4.88488 12.7071 4.69734C12.8946 4.5098 13 4.25545 13 3.99023C13 3.72502 12.8946 3.47066 12.7071 3.28313C12.5196 3.09559 12.2652 2.99023 12 2.99023H6C5.20435 2.99023 4.44129 3.3063 3.87868 3.86891C3.31607 4.43152 3 5.19458 3 5.99023V17.9902C3 18.7859 3.31607 19.5489 3.87868 20.1116C4.44129 20.6742 5.20435 20.9902 6 20.9902H18C18.7956 20.9902 19.5587 20.6742 20.1213 20.1116C20.6839 19.5489 21 18.7859 21 17.9902V11.9902C21 11.725 20.8946 11.4707 20.7071 11.2831C20.5196 11.0956 20.2652 10.9902 20 10.9902Z" fill="white"/>
<path d="M16 4.99023H17.58L11.29 11.2702C11.1963 11.3632 11.1219 11.4738 11.0711 11.5957C11.0203 11.7175 10.9942 11.8482 10.9942 11.9802C10.9942 12.1122 11.0203 12.243 11.0711 12.3648C11.1219 12.4867 11.1963 12.5973 11.29 12.6902C11.383 12.784 11.4936 12.8584 11.6154 12.9091C11.7373 12.9599 11.868 12.986 12 12.986C12.132 12.986 12.2627 12.9599 12.3846 12.9091C12.5064 12.8584 12.617 12.784 12.71 12.6902L19 6.41023V7.99023C19 8.25545 19.1054 8.5098 19.2929 8.69734C19.4804 8.88488 19.7348 8.99023 20 8.99023C20.2652 8.99023 20.5196 8.88488 20.7071 8.69734C20.8946 8.5098 21 8.25545 21 7.99023V3.99023C21 3.72502 20.8946 3.47066 20.7071 3.28313C20.5196 3.09559 20.2652 2.99023 20 2.99023H16C15.7348 2.99023 15.4804 3.09559 15.2929 3.28313C15.1054 3.47066 15 3.72502 15 3.99023C15 4.25545 15.1054 4.5098 15.2929 4.69734C15.4804 4.88488 15.7348 4.99023 16 4.99023Z" fill="white"/>
</svg>
