<svg width="18" height="18" viewBox="0 0 18 18" fill="none" xmlns="http://www.w3.org/2000/svg">
<path fill-rule="evenodd" clip-rule="evenodd" d="M1.5 9.375V8.625C1.5 6.15975 1.5 4.92675 2.181 4.0965C2.30557 3.94474 2.44474 3.80557 2.5965 3.681C3.4275 3 4.659 3 7.125 3C9.59025 3 10.8232 3 11.6535 3.681C11.8053 3.80557 11.9444 3.94474 12.069 4.0965C12.5955 4.73775 12.7148 5.61975 12.7418 7.125L13.2443 6.8775C14.703 6.1485 15.4327 5.78325 15.9667 6.11325C16.5 6.44325 16.5 7.25925 16.5 8.8905V9.1095C16.5 10.7407 16.5 11.5568 15.9667 11.8868C15.4327 12.2168 14.703 11.8515 13.2443 11.1217L12.7418 10.875C12.7148 12.3802 12.5955 13.2622 12.069 13.9035C11.9444 14.0553 11.8053 14.1944 11.6535 14.319C10.8225 15 9.591 15 7.125 15C4.65975 15 3.42675 15 2.5965 14.319C2.44474 14.1944 2.30557 14.0553 2.181 13.9035C1.5 13.0725 1.5 11.841 1.5 9.375ZM10.17 7.17C10.2792 7.06664 10.3666 6.94244 10.427 6.80473C10.4874 6.66703 10.5196 6.51861 10.5216 6.36825C10.5237 6.2179 10.4956 6.06865 10.439 5.92935C10.3824 5.79004 10.2984 5.66349 10.192 5.55719C10.0857 5.45089 9.95911 5.36699 9.81978 5.31044C9.68044 5.2539 9.53119 5.22586 9.38083 5.22799C9.23048 5.23011 9.08207 5.26236 8.94439 5.32282C8.80672 5.38328 8.68255 5.47073 8.57925 5.58C8.37442 5.79227 8.26116 6.07651 8.26386 6.37148C8.26656 6.66645 8.38501 6.94856 8.59369 7.15704C8.80238 7.36553 9.0846 7.48371 9.37957 7.48614C9.67455 7.48856 9.95792 7.37503 10.17 7.17Z" fill="#8E33FF"/>
</svg>
