<svg width="32" height="32" viewBox="0 0 32 32" fill="none" xmlns="http://www.w3.org/2000/svg">
<path opacity="0.5" d="M2.66602 18.216V13.0333C2.66602 8.14663 2.66602 5.70263 4.22868 4.18529C5.79002 2.66663 8.31802 2.66663 13.3727 2.66663C14.1607 2.66663 14.7967 2.66663 15.3327 2.68663L15.346 3.01196L15.3327 6.67729V6.91729C15.3327 8.32929 15.3367 9.57729 15.4727 10.5906C15.6247 11.72 15.9727 12.8493 16.8953 13.7706C17.8153 14.692 18.946 15.0413 20.0753 15.1933C21.1167 15.3333 22.41 15.3333 23.8727 15.3333H29.2754C29.2927 15.54 29.3047 15.7613 29.3127 16H29.3233C29.3327 16.476 29.3327 17.02 29.3327 17.6506V19.1253L29.3167 19.1333C29.1959 19.1943 29.0772 19.2592 28.9607 19.328C28.2789 19.7671 27.485 20.0007 26.674 20.0007C25.863 20.0007 25.0692 19.7671 24.3874 19.328C23.8761 18.9987 23.2808 18.8236 22.6727 18.8236C22.0646 18.8236 21.4693 18.9987 20.958 19.328C20.2762 19.7671 19.4824 20.0007 18.6713 20.0007C17.8603 20.0007 17.0665 19.7671 16.3847 19.328C15.8734 18.9987 15.2781 18.8236 14.67 18.8236C14.0619 18.8236 13.4666 18.9987 12.9553 19.328C12.2735 19.7671 11.4797 20.0007 10.6687 20.0007C9.85767 20.0007 9.06382 19.7671 8.38202 19.328C7.87075 18.9987 7.27548 18.8236 6.66735 18.8236C6.05922 18.8236 5.46395 18.9987 4.95268 19.328C4.76868 19.4453 4.67802 19.5053 4.61135 19.5386C4.09668 19.7973 3.25535 19.5746 2.66602 19.152V18.216Z" fill="#637381"/>
<path d="M15.346 3.01334L15.3327 6.79334C15.3327 8.25601 15.3327 9.54801 15.4727 10.5907C15.6247 11.72 15.9727 12.8493 16.8953 13.7707C17.8153 14.692 18.946 15.0413 20.0753 15.1933C21.1167 15.3333 22.41 15.3333 23.8727 15.3333H29.2754C29.2927 15.54 29.3047 15.7613 29.3127 16H29.3327C29.3327 15.6427 29.3327 15.464 29.3193 15.2533C29.2167 13.9863 28.7755 12.7702 28.042 11.732C27.9167 11.5613 27.8313 11.46 27.662 11.256C26.6047 9.99201 25.2127 8.41601 23.9993 7.33334C22.9193 6.36801 21.438 5.31334 20.146 4.45067C19.0367 3.71067 18.482 3.34001 17.7207 3.06401C17.4992 2.98521 17.2741 2.91713 17.046 2.86001C16.534 2.73334 16.0353 2.68934 15.3327 2.67334L15.346 3.01334Z" fill="#637381"/>
<path d="M13.3327 29.3333H18.666C23.694 29.3333 26.2087 29.3333 27.7714 28.0893C29.2327 26.924 29.326 25.0947 29.3327 21.5813L29.3167 21.588C29.1965 21.638 29.0778 21.6913 28.9607 21.748C27.5753 22.4813 25.7714 22.4813 24.3874 21.748C23.8566 21.4763 23.2689 21.3346 22.6727 21.3346C22.0764 21.3346 21.4887 21.4763 20.958 21.748C19.5727 22.4813 17.7687 22.4813 16.3847 21.748C15.8538 21.4761 15.2658 21.3343 14.6693 21.3343C14.0729 21.3343 13.4849 21.4761 12.954 21.748C11.57 22.4813 9.76735 22.4813 8.38068 21.748C7.84995 21.4763 7.26225 21.3346 6.66602 21.3346C6.06978 21.3346 5.48208 21.4763 4.95135 21.748C4.83992 21.809 4.72653 21.8664 4.61135 21.92C4.09668 22.132 3.25535 21.9493 2.66602 21.6027C2.67268 25.1027 2.76868 26.9267 4.22735 28.0893C5.79002 29.3333 8.30602 29.3333 13.3327 29.3333Z" fill="#637381"/>
</svg>
