<svg width="20" height="20" viewBox="0 0 20 20" fill="none" xmlns="http://www.w3.org/2000/svg">
<path d="M18.2493 9.16676C18.2493 9.0751 18.1993 8.98343 18.1743 8.89176C18.1358 8.73005 18.0856 8.57131 18.0243 8.41676C17.9827 8.31676 17.9244 8.21676 17.8743 8.10843C17.8244 8.0001 17.7493 7.85843 17.6743 7.74176C17.5993 7.6251 17.4993 7.56676 17.4993 7.5001C17.4993 7.43343 17.3327 7.29176 17.241 7.19176C17.1494 7.09176 17.066 7.0251 16.9743 6.94176L16.666 6.66676L16.366 6.46676C16.2482 6.39469 16.1257 6.33066 15.9994 6.2751L15.6743 6.1251C15.5382 6.07469 15.3991 6.03294 15.2577 6.0001C15.1457 5.96715 15.0315 5.94209 14.916 5.9251H14.766C14.445 4.92448 13.8169 4.05043 12.9709 3.42708C12.125 2.80373 11.1041 2.46277 10.0533 2.45263C9.00248 2.44248 7.9752 2.76366 7.11733 3.37055C6.25946 3.97745 5.6146 4.8392 5.27435 5.83343H5.12435C5.00885 5.85042 4.89468 5.87548 4.78268 5.90843C4.6413 5.94127 4.50213 5.98302 4.36602 6.03343L4.04102 6.18343C3.91462 6.23899 3.79212 6.30303 3.67435 6.3751L3.37435 6.66676L3.06602 6.9251C2.97435 7.00843 2.88268 7.08343 2.79935 7.1751C2.71602 7.26676 2.62435 7.38343 2.54102 7.48343C2.45768 7.58343 2.39102 7.6751 2.32435 7.78343C2.25768 7.89176 2.19102 8.0251 2.12435 8.1501C2.05768 8.2751 2.01602 8.35843 1.97435 8.45843C1.91305 8.61297 1.86292 8.77171 1.82435 8.93343C1.82435 9.0251 1.76602 9.11676 1.74935 9.20843C1.69748 9.46922 1.66959 9.73422 1.66602 10.0001C1.66992 10.2545 1.69501 10.5082 1.74102 10.7584C1.74102 10.8418 1.78268 10.9168 1.79935 11.0001C1.84054 11.1638 1.89061 11.3252 1.94935 11.4834L2.04935 11.7251C2.12271 11.8858 2.20621 12.0417 2.29935 12.1918L2.41602 12.3751C2.428 12.3985 2.44194 12.4208 2.45768 12.4418L2.49935 12.5001C2.88746 13.0176 3.39073 13.4376 3.96929 13.7269C4.54786 14.0162 5.18583 14.1668 5.83268 14.1668C5.83454 13.7254 6.01136 13.3029 6.32435 12.9918C6.63547 12.6788 7.05804 12.502 7.49935 12.5001C7.79249 12.4973 8.08076 12.5752 8.33268 12.7251V10.0001C8.33268 9.55807 8.50828 9.13415 8.82084 8.82159C9.1334 8.50903 9.55732 8.33343 9.99935 8.33343C10.4414 8.33343 10.8653 8.50903 11.1779 8.82159C11.4904 9.13415 11.666 9.55807 11.666 10.0001V12.8084C11.9192 12.6616 12.2066 12.584 12.4993 12.5834C12.9508 12.5877 13.3822 12.7704 13.6994 13.0918C13.9799 13.3818 14.1457 13.7638 14.166 14.1668C14.8129 14.1668 15.4508 14.0162 16.0294 13.7269C16.608 13.4376 17.1112 13.0176 17.4993 12.5001L17.541 12.4584C17.5568 12.4374 17.5707 12.4151 17.5827 12.3918L17.6994 12.2084C17.7925 12.0583 17.876 11.9025 17.9494 11.7418L18.0493 11.5001C18.1081 11.3418 18.1582 11.1805 18.1994 11.0168C18.1994 10.9334 18.241 10.8584 18.2577 10.7751C18.3046 10.5194 18.3297 10.2601 18.3327 10.0001C18.3317 9.72029 18.3038 9.44122 18.2493 9.16676Z" fill="#637381"/>
<path d="M11.9243 13.6501L10.8327 14.7001V10.0001C10.8327 9.77908 10.7449 9.56712 10.5886 9.41084C10.4323 9.25456 10.2204 9.16676 9.99935 9.16676C9.77834 9.16676 9.56637 9.25456 9.41009 9.41084C9.25381 9.56712 9.16602 9.77908 9.16602 10.0001V14.6584L8.09102 13.5751C8.01332 13.4974 7.92108 13.4358 7.81956 13.3937C7.71804 13.3517 7.60923 13.33 7.49935 13.33C7.38947 13.33 7.28066 13.3517 7.17914 13.3937C7.07762 13.4358 6.98538 13.4974 6.90768 13.5751C6.82998 13.6528 6.76835 13.745 6.7263 13.8466C6.68425 13.9481 6.66261 14.0569 6.66261 14.1668C6.66261 14.2766 6.68425 14.3855 6.7263 14.487C6.76835 14.5885 6.82998 14.6807 6.90768 14.7584L9.40768 17.2584C9.48555 17.3357 9.5779 17.3968 9.67943 17.4382C9.78096 17.4797 9.88968 17.5007 9.99935 17.5001C10.2139 17.4992 10.4199 17.4157 10.5743 17.2668L13.0743 14.8501C13.1628 14.7771 13.2352 14.6867 13.2871 14.5845C13.339 14.4822 13.3692 14.3704 13.3759 14.256C13.3826 14.1415 13.3656 14.0269 13.326 13.9193C13.2863 13.8118 13.2249 13.7135 13.1456 13.6307C13.0663 13.548 12.9708 13.4825 12.865 13.4383C12.7592 13.3941 12.6454 13.3723 12.5308 13.3741C12.4161 13.3759 12.3031 13.4014 12.1988 13.4489C12.0944 13.4963 12.001 13.5649 11.9243 13.6501Z" fill="#637381"/>
<path d="M18.2493 9.16676C18.2493 9.0751 18.1993 8.98343 18.1743 8.89176C18.1358 8.73005 18.0856 8.57131 18.0243 8.41676C17.9827 8.31676 17.9244 8.21676 17.8743 8.10843C17.8244 8.0001 17.7493 7.85843 17.6743 7.74176C17.5993 7.6251 17.4993 7.56676 17.4993 7.5001C17.4993 7.43343 17.3327 7.29176 17.241 7.19176C17.1494 7.09176 17.066 7.0251 16.9743 6.94176L16.666 6.66676L16.366 6.46676C16.2482 6.39469 16.1257 6.33066 15.9994 6.2751L15.6743 6.1251C15.5382 6.07469 15.3991 6.03294 15.2577 6.0001C15.1457 5.96715 15.0315 5.94209 14.916 5.9251H14.766C14.445 4.92448 13.8169 4.05043 12.9709 3.42708C12.125 2.80373 11.1041 2.46277 10.0533 2.45263C9.00248 2.44248 7.9752 2.76366 7.11733 3.37055C6.25946 3.97745 5.6146 4.8392 5.27435 5.83343H5.12435C5.00885 5.85042 4.89468 5.87548 4.78268 5.90843C4.6413 5.94127 4.50213 5.98302 4.36602 6.03343L4.04102 6.18343C3.91462 6.23899 3.79212 6.30303 3.67435 6.3751L3.37435 6.66676L3.06602 6.9251C2.97435 7.00843 2.88268 7.08343 2.79935 7.1751C2.71602 7.26676 2.62435 7.38343 2.54102 7.48343C2.45768 7.58343 2.39102 7.6751 2.32435 7.78343C2.25768 7.89176 2.19102 8.0251 2.12435 8.1501C2.05768 8.2751 2.01602 8.35843 1.97435 8.45843C1.91305 8.61297 1.86292 8.77171 1.82435 8.93343C1.82435 9.0251 1.76602 9.11676 1.74935 9.20843C1.69748 9.46922 1.66959 9.73422 1.66602 10.0001C1.66992 10.2545 1.69501 10.5082 1.74102 10.7584C1.74102 10.8418 1.78268 10.9168 1.79935 11.0001C1.84054 11.1638 1.89061 11.3252 1.94935 11.4834L2.04935 11.7251C2.12271 11.8858 2.20621 12.0417 2.29935 12.1918L2.41602 12.3751C2.428 12.3985 2.44194 12.4208 2.45768 12.4418L2.49935 12.5001C2.88746 13.0176 3.39073 13.4376 3.96929 13.7269C4.54786 14.0162 5.18583 14.1668 5.83268 14.1668C5.83454 13.7254 6.01136 13.3029 6.32435 12.9918C6.63547 12.6788 7.05804 12.502 7.49935 12.5001C7.79249 12.4973 8.08076 12.5752 8.33268 12.7251V10.0001C8.33268 9.55807 8.50828 9.13415 8.82084 8.82159C9.1334 8.50903 9.55732 8.33343 9.99935 8.33343C10.4414 8.33343 10.8653 8.50903 11.1779 8.82159C11.4904 9.13415 11.666 9.55807 11.666 10.0001V12.8084C11.9192 12.6616 12.2066 12.584 12.4993 12.5834C12.9508 12.5877 13.3822 12.7704 13.6994 13.0918C13.9799 13.3818 14.1457 13.7638 14.166 14.1668C14.8129 14.1668 15.4508 14.0162 16.0294 13.7269C16.608 13.4376 17.1112 13.0176 17.4993 12.5001L17.541 12.4584C17.5568 12.4374 17.5707 12.4151 17.5827 12.3918L17.6994 12.2084C17.7925 12.0583 17.876 11.9025 17.9494 11.7418L18.0493 11.5001C18.1081 11.3418 18.1582 11.1805 18.1994 11.0168C18.1994 10.9334 18.241 10.8584 18.2577 10.7751C18.3046 10.5194 18.3297 10.2601 18.3327 10.0001C18.3317 9.72029 18.3038 9.44122 18.2493 9.16676Z" fill="#637381"/>
<path d="M11.9243 13.6501L10.8327 14.7001V10.0001C10.8327 9.77908 10.7449 9.56712 10.5886 9.41084C10.4323 9.25456 10.2204 9.16676 9.99935 9.16676C9.77834 9.16676 9.56637 9.25456 9.41009 9.41084C9.25381 9.56712 9.16602 9.77908 9.16602 10.0001V14.6584L8.09102 13.5751C8.01332 13.4974 7.92108 13.4358 7.81956 13.3937C7.71804 13.3517 7.60923 13.33 7.49935 13.33C7.38947 13.33 7.28066 13.3517 7.17914 13.3937C7.07762 13.4358 6.98538 13.4974 6.90768 13.5751C6.82998 13.6528 6.76835 13.745 6.7263 13.8466C6.68425 13.9481 6.66261 14.0569 6.66261 14.1668C6.66261 14.2766 6.68425 14.3855 6.7263 14.487C6.76835 14.5885 6.82998 14.6807 6.90768 14.7584L9.40768 17.2584C9.48555 17.3357 9.5779 17.3968 9.67943 17.4382C9.78096 17.4797 9.88968 17.5007 9.99935 17.5001C10.2139 17.4992 10.4199 17.4157 10.5743 17.2668L13.0743 14.8501C13.1628 14.7771 13.2352 14.6867 13.2871 14.5845C13.339 14.4822 13.3692 14.3704 13.3759 14.256C13.3826 14.1415 13.3656 14.0269 13.326 13.9193C13.2863 13.8118 13.2249 13.7135 13.1456 13.6307C13.0663 13.548 12.9708 13.4825 12.865 13.4383C12.7592 13.3941 12.6454 13.3723 12.5308 13.3741C12.4161 13.3759 12.3031 13.4014 12.1988 13.4489C12.0944 13.4963 12.001 13.5649 11.9243 13.6501Z" fill="#637381"/>
</svg>
