<svg width="149" height="140" viewBox="0 0 149 140" fill="none" xmlns="http://www.w3.org/2000/svg">
<path opacity="0.08" d="M11.3446 14.6166C11.3446 13.1299 11.73 11.6432 12.4459 10.3216C13.1617 9.0001 14.1528 7.89883 15.4193 7.07288C16.6857 6.24693 18.1174 5.75136 19.6041 5.58617C21.0908 5.42098 22.5775 5.64123 24.0092 6.19186C25.0003 4.09945 26.6522 2.44755 28.6896 1.34628C30.7269 0.245005 33.0396 -0.195503 35.2972 0.0798146C37.5548 0.355132 39.7023 1.34628 41.4093 2.88805C43.1162 4.42983 44.3276 6.46718 44.8232 8.72479C47.3011 8.88998 49.6137 9.99125 51.2656 11.8634C52.9175 13.6805 53.7986 16.1033 53.7435 18.5812C53.6884 21.059 52.6422 23.3717 50.8802 25.1337C49.1182 26.8407 46.7504 27.8318 44.2726 27.8318L13.7123 27.8318C12.1155 27.8318 10.5737 27.2812 9.3623 26.29C8.1509 25.2989 7.32495 23.8673 7.04963 22.3255C6.77432 20.7837 7.04963 19.1869 7.82052 17.7552C8.59141 16.2685 9.85787 15.1672 11.3446 14.6166ZM119.104 89.5029C119.104 88.5669 119.324 87.6859 119.765 86.8599C120.205 86.034 120.811 85.3732 121.582 84.8226C122.353 84.327 123.234 83.9966 124.17 83.8865C125.106 83.7763 126.042 83.9415 126.868 84.2719C127.474 83.0055 128.52 81.9592 129.731 81.2434C130.943 80.5276 132.429 80.3074 133.806 80.4725C135.237 80.6377 136.559 81.2434 137.605 82.1795C138.651 83.1156 139.367 84.3821 139.698 85.7586C141.239 85.8688 142.671 86.5295 143.662 87.6859C144.708 88.8422 145.259 90.3289 145.204 91.8156C145.149 93.3574 144.488 94.7891 143.387 95.8353C142.286 96.8815 140.799 97.4872 139.257 97.4872L120.536 97.4872C119.544 97.4872 118.608 97.1568 117.892 96.496C117.122 95.8903 116.626 95.0093 116.461 94.0732C116.296 93.1371 116.461 92.146 116.901 91.265C117.452 90.5492 118.223 89.8884 119.104 89.5029ZM17.6769 72.7636C17.6769 71.1668 18.0623 69.625 18.8332 68.2484C19.6041 66.8719 20.6503 65.6605 21.9718 64.8345C23.2934 63.9535 24.7801 63.4029 26.3219 63.2377C27.8636 63.0725 29.4605 63.2927 30.8921 63.8984C31.9383 61.7509 33.6453 59.9339 35.7928 58.7775C37.8852 57.6212 40.308 57.1256 42.7308 57.456C45.1536 57.7313 47.3561 58.7775 49.1732 60.3744C50.9353 61.9712 52.2017 64.1187 52.7524 66.4864C55.3954 66.5965 57.9283 67.6978 59.7454 69.625C61.5625 71.5523 62.5537 74.1402 62.4435 76.7833C62.3334 79.4263 61.2321 81.9592 59.3049 83.7763C57.3777 85.5934 54.7897 86.5846 52.1467 86.4745H20.2098C18.5579 86.4745 16.9611 85.8688 15.6946 84.8226C14.4281 83.7763 13.5471 82.2896 13.2718 80.6377C12.9965 78.9858 13.2718 77.3339 14.0427 75.9023C14.8136 74.4706 16.1351 73.3693 17.6769 72.7636ZM117.011 26.29C117.011 25.1888 117.287 24.1426 117.837 23.2065C118.333 22.2704 119.104 21.4445 119.985 20.8388C120.866 20.2331 121.912 19.8476 123.013 19.7375C124.115 19.6274 125.161 19.7926 126.207 20.178C126.923 18.6913 128.134 17.4799 129.566 16.6539C131.053 15.883 132.705 15.5527 134.356 15.7179C136.008 15.9381 137.55 16.5989 138.817 17.7552C140.083 18.8565 140.909 20.3432 141.294 21.94C143.112 21.9951 144.874 22.766 146.14 24.1426C147.407 25.4641 148.067 27.2812 148.012 29.0983C147.957 30.9154 147.186 32.6774 145.81 33.9439C144.488 35.2103 142.671 35.8711 140.854 35.816H118.774C117.617 35.816 116.516 35.4306 115.635 34.6597C114.754 33.9439 114.148 32.8977 113.928 31.7964C113.708 30.6401 113.928 29.4837 114.479 28.4926C115.029 27.4464 115.965 26.6755 117.011 26.29Z" fill="#00A76F"/>
<path opacity="0.24" d="M74.5009 139.391C115.633 139.391 149.002 137.463 149.002 135.041C149.002 132.618 115.633 130.691 74.5009 130.691C33.3685 130.691 0 132.618 0 135.041C0 137.463 33.3134 139.391 74.5009 139.391Z" fill="#004B50"/>
<path d="M48.7869 12.5242L55.835 12.5242C60.2401 12.5242 64.5351 13.7907 68.2243 16.2135C72.0237 18.6913 74.9971 22.2154 76.7041 26.4002C80.8889 26.6755 84.8535 28.2173 88.0472 30.9154C91.2409 33.6135 93.4985 37.2477 94.4346 41.2674C97.2428 42.0933 99.6656 43.8554 101.317 46.3332C102.914 48.8111 103.575 51.7294 103.19 54.6478C102.804 57.5662 101.317 60.2092 99.115 62.1364C96.9124 64.0637 94.0491 65.1099 91.1307 65.1099H22.3014C19.7134 65.1649 17.1804 64.6694 14.8127 63.7333C12.445 62.7972 10.2424 61.3656 8.42534 59.5485C6.60825 57.7314 5.12153 55.5839 4.13039 53.2162C3.13925 50.8484 2.64367 48.3155 2.64367 45.7275C2.64367 43.1395 3.13925 40.6066 4.13039 38.2389C5.12153 35.8711 6.55318 33.7237 8.42534 31.9066C10.2424 30.0895 12.445 28.6578 14.8127 27.7217C17.1804 26.7857 19.7684 26.2901 22.3014 26.3452H27.9178C29.6248 22.2705 32.5432 18.7464 36.2324 16.3236C39.9767 13.8457 44.3268 12.5242 48.7869 12.5242Z" fill="url(#paint0_linear_0_29289)"/>
<path d="M40.856 65.11H49.8865V74.1955C49.8865 75.1866 49.501 76.1778 48.7852 76.8936C48.4548 77.224 48.1244 77.4442 47.739 77.6094V83.4462C47.739 83.9968 47.5187 84.4924 47.1333 84.8778C46.8029 85.2082 46.3073 85.4285 45.8668 85.4835H46.3073V87.7962C46.3073 90.1639 47.2434 92.4766 48.9504 94.1836C50.6573 95.8905 52.9149 96.8266 55.3377 96.8266H75.491V98.7538H55.3377C52.4194 98.7538 49.6662 97.5975 47.5738 95.5601C45.5364 93.5228 44.3801 90.7146 44.3801 87.7962V85.4285H44.8206C44.325 85.3734 43.8845 85.2082 43.5541 84.8228C43.1687 84.4373 42.9484 83.9417 42.9484 83.3911V77.5544C42.563 77.3892 42.2326 77.1139 41.9022 76.8385C41.1864 76.1227 40.801 75.1866 40.801 74.1404V65.11H40.856Z" fill="url(#paint1_linear_0_29289)"/>
<path fill-rule="evenodd" clip-rule="evenodd" d="M91.4624 42.5338L92.3434 42.7541C94.8213 43.4699 96.9137 45.0117 98.3453 47.1591C99.7219 49.3066 100.328 51.8946 99.9422 54.4275C99.6118 56.9604 98.3453 59.2731 96.4181 60.9801C94.4909 62.687 92.013 63.5681 89.425 63.5681L29.3507 63.5681C24.7254 63.5681 20.2653 61.6959 16.9064 58.4472C13.6026 55.1984 11.6754 50.7933 11.5652 46.1129C11.4551 41.4876 13.1621 36.9724 16.3007 33.6135C19.4944 30.1996 23.8444 28.1622 28.5248 27.8869H29.3507C30.9476 27.8869 32.5995 28.1072 34.1413 28.5477L34.2514 28.6027L35.628 28.9882L36.1236 27.6666C37.6103 23.8122 40.1983 20.4533 43.5571 18.0856C46.916 15.6628 50.8806 14.2862 55.0103 14.121C59.03 14.2862 62.8844 15.5527 66.1882 17.8653C69.492 20.178 72.08 23.3166 73.6218 27.061L74.0073 27.942L74.9433 27.997C78.7427 28.2173 82.432 29.704 85.3503 32.1819C88.2687 34.6597 90.3611 37.9635 91.2421 41.7078L91.4624 42.5338ZM48.1274 55.9693V40.7167H43.2818L55.8363 26.6204L68.3908 40.7167H63.5452V55.9693H48.1274Z" fill="#C8FAD6"/>
<path opacity="0.48" d="M136.449 32.8978C136.559 32.7326 136.614 32.5674 136.614 32.3471C136.614 32.0718 136.504 31.8516 136.339 31.6864C136.174 31.5212 135.898 31.4111 135.678 31.4111C135.513 31.4111 135.293 31.4661 135.128 31.5762C134.962 31.6864 134.852 31.8516 134.797 32.0168C134.742 32.1819 134.687 32.4022 134.742 32.5674C134.797 32.7326 134.852 32.8978 135.017 33.063C135.128 33.1731 135.293 33.2832 135.513 33.3383C135.678 33.3933 135.898 33.3383 136.064 33.2832C136.174 33.1731 136.339 33.0079 136.449 32.8978ZM28.9651 82.7303C29.1303 82.51 29.1854 82.2347 29.1854 81.9043C29.1854 81.5189 29.0202 81.1334 28.7449 80.8581C28.4696 80.5828 28.0841 80.4176 27.6987 80.4176C27.4234 80.4176 27.148 80.5277 26.8727 80.6378C26.6525 80.803 26.4322 81.0233 26.3221 81.2986C26.212 81.5739 26.1569 81.8492 26.212 82.1246C26.267 82.3999 26.4322 82.6752 26.5974 82.8404C26.8177 83.0606 27.0379 83.1708 27.3683 83.2258C27.6436 83.2809 27.9189 83.2809 28.1943 83.1708C28.5797 83.1708 28.8 82.9505 28.9651 82.7303ZM140.138 32.3471C140.138 32.5123 140.083 32.7326 139.973 32.8978C139.863 33.063 139.698 33.1731 139.533 33.2282C139.367 33.2832 139.147 33.3383 138.982 33.2832C138.817 33.2282 138.652 33.1731 138.486 33.0079C138.376 32.8978 138.266 32.7326 138.211 32.5123C138.156 32.3471 138.211 32.1269 138.266 31.9617C138.321 31.7965 138.431 31.6313 138.597 31.5212C138.762 31.4111 138.927 31.356 139.147 31.356C139.423 31.356 139.643 31.4661 139.808 31.6313C140.028 31.8516 140.138 32.0718 140.138 32.3471ZM48.6779 71.9378C48.6779 72.5986 48.1272 73.1492 47.4665 73.1492C46.8057 73.1492 46.2551 72.5986 46.2551 71.9378C46.2551 71.277 46.8057 70.7264 47.4665 70.7264C48.1272 70.7815 48.6779 71.277 48.6779 71.9378Z" fill="#C8FAD6"/>
<path opacity="0.12" d="M133.034 32.3471C133.034 32.5123 132.979 32.7326 132.869 32.8978C132.759 33.063 132.594 33.1731 132.429 33.2282C132.263 33.2832 132.043 33.3383 131.878 33.2832C131.713 33.2282 131.548 33.1731 131.382 33.0079C131.272 32.8978 131.162 32.7326 131.107 32.5123C131.052 32.3471 131.107 32.1269 131.162 31.9617C131.217 31.7965 131.382 31.6313 131.492 31.5212C131.658 31.4111 131.823 31.356 132.043 31.356C132.318 31.356 132.539 31.4661 132.704 31.6313C132.979 31.8516 133.034 32.0718 133.034 32.3471ZM23.7332 81.9043C23.7332 82.1796 23.623 82.4549 23.5129 82.7303C23.3477 82.9505 23.1275 83.1708 22.8522 83.2809C22.5768 83.391 22.3015 83.4461 22.0262 83.3359C21.7509 83.2809 21.4756 83.1157 21.2553 82.9505C21.0351 82.7853 20.9249 82.51 20.8699 82.2347C20.8148 81.9594 20.8699 81.684 20.98 81.4087C21.0901 81.1334 21.2553 80.9132 21.5306 80.748C21.7509 80.5828 22.0262 80.5277 22.3566 80.5277C22.742 80.5277 23.1275 80.6929 23.4028 80.9682C23.568 81.1885 23.7332 81.5189 23.7332 81.9043ZM45.4833 71.9378C45.4833 72.5986 44.9326 73.1492 44.2719 73.1492C43.6111 73.1492 43.0605 72.5986 43.0605 71.9378C43.0605 71.277 43.6111 70.7264 44.2719 70.7264C44.9326 70.7264 45.4833 71.277 45.4833 71.9378Z" fill="#C8FAD6"/>
<path d="M113.597 50.518H80.5589C77.8057 50.518 75.5481 52.7756 75.5481 55.5288V130.03C75.5481 132.783 77.8057 135.04 80.5589 135.04H113.597C116.35 135.04 118.608 132.783 118.608 130.03L118.608 55.5288C118.608 52.7756 116.35 50.518 113.597 50.518Z" fill="#00A76F"/>
<path d="M113.596 135.04H122.571C125.324 135.04 127.582 132.783 127.582 130.03L127.582 55.5288C127.582 52.7756 125.324 50.518 122.571 50.518H113.596C116.349 50.518 118.607 52.7756 118.607 55.5288L118.607 130.03C118.607 132.783 116.349 135.04 113.596 135.04Z" fill="#007867"/>
<path d="M116.953 130.03L116.953 55.5289C116.953 53.7118 115.467 52.17 113.594 52.17H82.0981C80.281 52.17 78.7393 53.6568 78.7393 55.5289V130.03C78.7393 131.847 80.226 133.389 82.0981 133.389H113.594C115.412 133.389 116.953 131.847 116.953 130.03Z" fill="white"/>
<path opacity="0.24" fill-rule="evenodd" clip-rule="evenodd" d="M83.9709 61.9712H111.723C112.384 61.9712 113.044 61.6959 113.54 61.2003C114.036 60.7048 114.311 60.044 114.311 59.3832C114.311 58.6674 114.036 58.0066 113.54 57.5661C113.044 57.0706 112.384 56.7953 111.723 56.7953H83.9709C83.3102 56.7953 82.6494 57.0706 82.1538 57.5661C81.6583 58.0617 81.3829 58.7225 81.3829 59.3832C81.3829 60.044 81.6583 60.7048 82.1538 61.2003C82.6494 61.6959 83.2551 61.9712 83.9709 61.9712ZM83.5304 59.9339L102.582 59.9339C102.748 59.9339 102.858 59.8788 102.968 59.7687C103.078 59.6586 103.133 59.4934 103.133 59.3832C103.133 59.3282 103.133 59.218 103.078 59.163C103.023 59.1079 103.023 59.0529 102.968 58.9978C102.913 58.9427 102.858 58.8877 102.803 58.8877C102.748 58.8326 102.637 58.8326 102.582 58.8326H83.5304C83.3652 58.8326 83.2551 58.8877 83.145 58.9978C83.0348 59.1079 82.9798 59.2731 82.9798 59.3832C82.9798 59.4383 82.9798 59.5484 83.0348 59.6035C83.0899 59.6586 83.0899 59.7136 83.145 59.7687C83.2 59.8237 83.2551 59.8788 83.3102 59.8788C83.4203 59.9339 83.4754 59.9339 83.5304 59.9339ZM83.9709 70.3409H111.723C112.384 70.3409 113.044 70.0656 113.54 69.57C114.036 69.0744 114.311 68.4137 114.311 67.7529C114.311 67.0921 114.036 66.4314 113.54 65.9358C113.044 65.4402 112.384 65.1649 111.723 65.1649H83.9709C83.3102 65.1649 82.6494 65.4402 82.1538 65.9358C81.6583 66.4314 81.3829 67.0921 81.3829 67.7529C81.3829 68.4687 81.6583 69.0744 82.1538 69.57C82.5943 70.0656 83.2551 70.3409 83.9709 70.3409ZM83.5304 68.3035H102.582C102.748 68.3035 102.858 68.2485 102.968 68.1383C103.078 68.0282 103.133 67.863 103.133 67.7529C103.133 67.5877 103.078 67.4776 102.968 67.3674C102.858 67.2573 102.693 67.2023 102.582 67.2023L83.5304 67.2023C83.3652 67.2023 83.2551 67.2573 83.145 67.3674C83.0348 67.4776 82.9798 67.6428 82.9798 67.7529C82.9798 67.9181 83.0348 68.0282 83.145 68.1383C83.2551 68.2485 83.4203 68.3035 83.5304 68.3035ZM83.9709 78.7105H111.723C112.384 78.7105 113.044 78.4352 113.54 77.9396C114.036 77.4441 114.311 76.7833 114.311 76.1225C114.311 75.4067 114.036 74.746 113.54 74.3055C113.044 73.8099 112.384 73.5346 111.723 73.5346H83.9709C83.2551 73.5346 82.6494 73.8099 82.1538 74.3055C81.6583 74.801 81.3829 75.4618 81.3829 76.1225C81.3829 76.7833 81.6583 77.4441 82.1538 77.9396C82.6494 78.3801 83.2551 78.6555 83.9709 78.7105ZM83.5304 76.6732H102.582C102.748 76.6732 102.858 76.6181 102.968 76.508C103.078 76.3979 103.133 76.2327 103.133 76.1225C103.133 76.0675 103.133 75.9574 103.078 75.9023C103.023 75.8472 103.023 75.7922 102.968 75.7371C102.913 75.682 102.858 75.627 102.803 75.627C102.748 75.627 102.637 75.5719 102.582 75.5719H83.5304C83.3652 75.5719 83.2551 75.627 83.145 75.7371C83.0348 75.8472 82.9798 76.0124 82.9798 76.1225C82.9798 76.1776 82.9798 76.2877 83.0348 76.3428C83.0899 76.3979 83.0899 76.4529 83.145 76.508C83.2 76.5631 83.2551 76.6181 83.3102 76.6181C83.4203 76.6181 83.4754 76.6732 83.5304 76.6732ZM83.9709 81.8492H111.723C113.155 81.8492 114.311 83.0055 114.311 84.4371C114.311 85.8688 113.155 87.0251 111.723 87.0251H83.9709C82.5393 87.0251 81.3829 85.8688 81.3829 84.4371C81.3829 83.0055 82.5393 81.8492 83.9709 81.8492ZM83.5304 84.9878H102.582C102.748 84.9878 102.858 84.9327 102.968 84.8226C103.078 84.7125 103.133 84.5473 103.133 84.4371C103.133 84.2719 103.078 84.1618 102.968 84.0517C102.858 83.9416 102.693 83.8865 102.582 83.8865H83.5304C83.3652 83.8865 83.2551 83.9416 83.145 84.0517C83.0348 84.1618 82.9798 84.327 82.9798 84.4371C82.9798 84.5473 83.0348 84.7125 83.145 84.8226C83.2551 84.9327 83.4203 84.9878 83.5304 84.9878ZM111.723 95.3948H83.9709C83.3102 95.3948 82.6494 95.1195 82.1538 94.6239C81.6583 94.1283 81.3829 93.4676 81.3829 92.8068C81.3829 92.091 81.6583 91.4853 82.1538 90.9897C82.6494 90.4941 83.3102 90.2188 83.9709 90.2188H111.723C112.439 90.2188 113.1 90.4941 113.54 90.9897C114.036 91.4853 114.311 92.146 114.311 92.8068C114.311 93.4676 114.036 94.1283 113.54 94.6239C113.1 95.1195 112.439 95.3948 111.723 95.3948ZM102.582 93.3574H83.5304C83.4754 93.3574 83.3652 93.3574 83.3102 93.3024C83.2551 93.2473 83.2 93.2473 83.145 93.1922C83.0899 93.1372 83.0348 93.0821 83.0348 93.027C82.9798 92.972 82.9798 92.8619 82.9798 92.8068C82.9798 92.7517 82.9798 92.6416 83.0348 92.5865C83.0899 92.5315 83.0899 92.4764 83.145 92.4213C83.2 92.3663 83.2551 92.3112 83.3102 92.3112C83.3652 92.2562 83.4754 92.2562 83.5304 92.2562H102.582C102.637 92.2562 102.748 92.2562 102.803 92.3112C102.858 92.3663 102.913 92.3663 102.968 92.4213C103.023 92.4764 103.078 92.5315 103.078 92.5865C103.133 92.6416 103.133 92.7517 103.133 92.8068C103.133 92.972 103.078 93.0821 102.968 93.1922C102.858 93.3024 102.748 93.3574 102.582 93.3574ZM83.9709 103.764H111.723C112.439 103.764 113.1 103.489 113.54 102.994C114.036 102.498 114.311 101.837 114.311 101.176C114.311 100.516 114.036 99.8549 113.54 99.3594C113.044 98.8638 112.384 98.5885 111.723 98.5885H83.9709C83.3102 98.5885 82.6494 98.8638 82.1538 99.3594C81.6583 99.8549 81.3829 100.516 81.3829 101.176C81.3829 101.837 81.6583 102.498 82.1538 102.994C82.5943 103.434 83.2551 103.709 83.9709 103.764ZM83.5304 101.727H102.582C102.748 101.727 102.858 101.672 102.968 101.562C103.078 101.452 103.133 101.287 103.133 101.176C103.133 101.011 103.078 100.901 102.968 100.791C102.858 100.681 102.693 100.626 102.582 100.626H83.5304C83.4754 100.626 83.3652 100.626 83.3102 100.681C83.2551 100.736 83.2 100.736 83.145 100.791C83.0899 100.846 83.0348 100.901 83.0348 100.956C82.9798 101.011 82.9798 101.121 82.9798 101.176C82.9798 101.342 83.0348 101.452 83.145 101.562C83.2551 101.672 83.4203 101.727 83.5304 101.727ZM111.723 112.079H83.9709C83.3102 112.079 82.6494 111.804 82.1538 111.308C81.6583 110.813 81.3829 110.152 81.3829 109.491C81.3829 108.775 81.6583 108.17 82.1538 107.674C82.6494 107.178 83.3102 106.903 83.9709 106.903H111.723C112.439 106.903 113.1 107.178 113.54 107.674C114.036 108.17 114.311 108.83 114.311 109.491C114.311 110.152 114.036 110.813 113.54 111.308C113.1 111.804 112.439 112.079 111.723 112.079ZM102.582 110.042H83.5304C83.3652 110.042 83.2551 109.987 83.145 109.876C83.0348 109.766 82.9798 109.601 82.9798 109.491C82.9798 109.326 83.0348 109.216 83.145 109.106C83.2551 108.995 83.4203 108.94 83.5304 108.94H102.582C102.637 108.94 102.748 108.94 102.803 108.995C102.858 109.051 102.913 109.051 102.968 109.106C103.023 109.161 103.078 109.216 103.078 109.271C103.133 109.326 103.133 109.436 103.133 109.491C103.133 109.656 103.078 109.766 102.968 109.876C102.858 109.987 102.748 110.042 102.582 110.042ZM83.9709 115.273H111.723C113.155 115.273 114.311 116.429 114.311 117.861C114.311 119.292 113.155 120.449 111.723 120.449H83.9709C82.5393 120.449 81.3829 119.292 81.3829 117.861C81.3829 116.429 82.5393 115.273 83.9709 115.273ZM83.5304 118.411H102.582C102.748 118.411 102.858 118.356 102.968 118.246C103.078 118.136 103.133 117.971 103.133 117.861C103.133 117.695 103.078 117.585 102.968 117.475C102.858 117.365 102.693 117.31 102.582 117.31H83.5304C83.3652 117.31 83.2551 117.365 83.145 117.475C83.0348 117.585 82.9798 117.751 82.9798 117.861C82.9798 117.916 82.9798 118.026 83.0348 118.081C83.0899 118.136 83.0899 118.191 83.145 118.246C83.2 118.301 83.2551 118.356 83.3102 118.356C83.3652 118.356 83.4754 118.411 83.5304 118.411ZM111.723 128.818H83.9709C83.3102 128.818 82.6494 128.543 82.1538 128.047C81.6583 127.552 81.3829 126.891 81.3829 126.23C81.3829 125.515 81.6583 124.909 82.1538 124.413C82.6494 123.918 83.3102 123.642 83.9709 123.642H111.723C112.439 123.642 113.1 123.918 113.54 124.413C114.036 124.909 114.311 125.57 114.311 126.23C114.311 126.946 114.036 127.552 113.54 128.047C113.1 128.543 112.439 128.818 111.723 128.818ZM102.582 126.781H83.5304C83.3652 126.781 83.2551 126.726 83.145 126.616C83.0348 126.506 82.9798 126.34 82.9798 126.23C82.9798 126.065 83.0348 125.955 83.145 125.845C83.2551 125.735 83.4203 125.68 83.5304 125.68H102.582C102.637 125.68 102.748 125.68 102.803 125.735C102.858 125.79 102.913 125.79 102.968 125.845C103.023 125.9 103.078 125.955 103.078 126.01C103.133 126.065 103.133 126.175 103.133 126.23C103.133 126.396 103.078 126.506 102.968 126.616C102.858 126.726 102.748 126.781 102.582 126.781Z" fill="#00A76F"/>
<path d="M109.468 59.9338C109.798 59.9338 110.019 59.6585 110.019 59.3831C110.019 59.0528 109.743 58.8325 109.468 58.8325C109.138 58.8325 108.917 59.1078 108.917 59.3831C108.862 59.7135 109.138 59.9338 109.468 59.9338ZM109.468 68.3034C109.798 68.3034 110.019 68.0281 110.019 67.7528C110.019 67.4224 109.743 67.2022 109.468 67.2022C109.138 67.2022 108.917 67.4775 108.917 67.7528C108.862 68.0281 109.138 68.3034 109.468 68.3034ZM109.468 76.6731C109.798 76.6731 110.019 76.3978 110.019 76.1225C110.019 75.7921 109.743 75.5718 109.468 75.5718C109.138 75.5718 108.917 75.8471 108.917 76.1225C108.862 76.3978 109.138 76.6731 109.468 76.6731ZM106.935 84.9877C107.265 84.9877 107.486 84.7124 107.486 84.4371C107.486 84.1067 107.21 83.8864 106.935 83.8864C106.605 83.8864 106.384 84.1617 106.384 84.4371C106.384 84.7674 106.605 84.9877 106.935 84.9877ZM106.935 93.3573C107.265 93.3573 107.486 93.082 107.486 92.8067C107.486 92.4763 107.21 92.2561 106.935 92.2561C106.605 92.2561 106.384 92.5314 106.384 92.8067C106.384 93.082 106.605 93.3573 106.935 93.3573ZM106.935 101.727C107.265 101.727 107.486 101.452 107.486 101.176C107.486 100.846 107.21 100.626 106.935 100.626C106.605 100.626 106.384 100.901 106.384 101.176C106.384 101.452 106.605 101.727 106.935 101.727ZM106.935 110.042C107.265 110.042 107.486 109.766 107.486 109.491C107.486 109.161 107.21 108.94 106.935 108.94C106.605 108.94 106.384 109.216 106.384 109.491C106.384 109.821 106.605 110.042 106.935 110.042ZM109.468 118.411C109.798 118.411 110.019 118.136 110.019 117.861C110.019 117.53 109.743 117.31 109.468 117.31C109.138 117.31 108.917 117.585 108.917 117.861C108.862 118.136 109.138 118.411 109.468 118.411ZM109.468 126.781C109.798 126.781 110.019 126.506 110.019 126.23C110.019 125.9 109.743 125.68 109.468 125.68C109.138 125.68 108.917 125.955 108.917 126.23C108.862 126.506 109.138 126.781 109.468 126.781Z" fill="#FFAB00"/>
<path d="M111.946 59.9338C112.276 59.9338 112.496 59.6585 112.496 59.3831C112.496 59.0528 112.221 58.8325 111.946 58.8325C111.615 58.8325 111.395 59.1078 111.395 59.3831C111.395 59.7135 111.615 59.9338 111.946 59.9338ZM111.946 68.3034C112.276 68.3034 112.496 68.0281 112.496 67.7528C112.496 67.4224 112.221 67.2022 111.946 67.2022C111.615 67.2022 111.395 67.4775 111.395 67.7528C111.395 68.0281 111.615 68.3034 111.946 68.3034ZM111.946 76.6731C112.276 76.6731 112.496 76.3978 112.496 76.1225C112.496 75.7921 112.221 75.5718 111.946 75.5718C111.615 75.5718 111.395 75.8471 111.395 76.1225C111.395 76.3978 111.615 76.6731 111.946 76.6731ZM109.468 84.9877C109.798 84.9877 110.019 84.7124 110.019 84.4371C110.019 84.1067 109.743 83.8864 109.468 83.8864C109.138 83.8864 108.917 84.1617 108.917 84.4371C108.862 84.7674 109.138 84.9877 109.468 84.9877ZM109.468 93.3573C109.798 93.3573 110.019 93.082 110.019 92.8067C110.019 92.4763 109.743 92.2561 109.468 92.2561C109.138 92.2561 108.917 92.5314 108.917 92.8067C108.862 93.082 109.138 93.3573 109.468 93.3573ZM111.946 101.727C112.276 101.727 112.496 101.452 112.496 101.176C112.496 100.846 112.221 100.626 111.946 100.626C111.615 100.626 111.395 100.901 111.395 101.176C111.395 101.452 111.615 101.727 111.946 101.727ZM111.946 110.042C112.276 110.042 112.496 109.766 112.496 109.491C112.496 109.161 112.221 108.94 111.946 108.94C111.615 108.94 111.395 109.216 111.395 109.491C111.395 109.821 111.615 110.042 111.946 110.042ZM111.946 118.411C112.276 118.411 112.496 118.136 112.496 117.861C112.496 117.53 112.221 117.31 111.946 117.31C111.615 117.31 111.395 117.585 111.395 117.861C111.395 118.136 111.615 118.411 111.946 118.411ZM111.946 126.781C112.276 126.781 112.496 126.506 112.496 126.23C112.496 125.9 112.221 125.68 111.946 125.68C111.615 125.68 111.395 125.955 111.395 126.23C111.395 126.506 111.615 126.781 111.946 126.781ZM106.935 59.9338C107.265 59.9338 107.486 59.6585 107.486 59.3831C107.486 59.0528 107.21 58.8325 106.935 58.8325C106.605 58.8325 106.384 59.1078 106.384 59.3831C106.384 59.7135 106.605 59.9338 106.935 59.9338ZM106.935 68.3034C107.265 68.3034 107.486 68.0281 107.486 67.7528C107.486 67.4224 107.21 67.2022 106.935 67.2022C106.605 67.2022 106.384 67.4775 106.384 67.7528C106.384 68.0281 106.605 68.3034 106.935 68.3034ZM106.935 76.6731C107.265 76.6731 107.486 76.3978 107.486 76.1225C107.486 75.7921 107.21 75.5718 106.935 75.5718C106.605 75.5718 106.384 75.8471 106.384 76.1225C106.384 76.3978 106.605 76.6731 106.935 76.6731ZM111.946 84.9877C112.276 84.9877 112.496 84.7124 112.496 84.4371C112.496 84.1067 112.221 83.8864 111.946 83.8864C111.615 83.8864 111.395 84.1617 111.395 84.4371C111.395 84.7674 111.615 84.9877 111.946 84.9877ZM111.946 93.3573C112.276 93.3573 112.496 93.082 112.496 92.8067C112.496 92.4763 112.221 92.2561 111.946 92.2561C111.615 92.2561 111.395 92.5314 111.395 92.8067C111.395 93.082 111.615 93.3573 111.946 93.3573ZM109.468 101.727C109.798 101.727 110.019 101.452 110.019 101.176C110.019 100.846 109.743 100.626 109.468 100.626C109.138 100.626 108.917 100.901 108.917 101.176C108.862 101.452 109.138 101.727 109.468 101.727ZM109.468 110.042C109.798 110.042 110.019 109.766 110.019 109.491C110.019 109.161 109.743 108.94 109.468 108.94C109.138 108.94 108.917 109.216 108.917 109.491C108.862 109.821 109.138 110.042 109.468 110.042ZM106.935 118.411C107.265 118.411 107.486 118.136 107.486 117.861C107.486 117.53 107.21 117.31 106.935 117.31C106.605 117.31 106.384 117.585 106.384 117.861C106.384 118.136 106.605 118.411 106.935 118.411ZM106.935 126.781C107.265 126.781 107.486 126.506 107.486 126.23C107.486 125.9 107.21 125.68 106.935 125.68C106.605 125.68 106.384 125.955 106.384 126.23C106.384 126.506 106.605 126.781 106.935 126.781Z" fill="#007867"/>
<path d="M66.4054 104.976L63.9275 108.059C63.7073 108.335 63.4319 108.555 63.1016 108.72C62.7712 108.885 62.4408 108.94 62.1104 108.94H39.9749C39.3692 108.94 38.8185 109.161 38.4331 109.546C37.9926 109.932 37.7173 110.482 37.6622 111.033L35.6799 134.655C35.6249 134.93 35.6799 135.206 35.79 135.481C35.9002 135.756 36.0103 135.977 36.1755 136.197C36.3407 136.417 36.5609 136.582 36.8363 136.692C37.1116 136.803 37.3869 136.858 37.6622 136.858H81.1073C81.713 136.858 82.2637 136.637 82.6491 136.252C83.0896 135.867 83.3649 135.316 83.42 134.765L85.7877 106.352C85.8428 106.077 85.7877 105.802 85.6776 105.527C85.5675 105.251 85.4573 105.031 85.2922 104.811C85.127 104.59 84.9067 104.425 84.6314 104.315C84.3561 104.205 84.0808 104.15 83.8605 104.15H68.1674C67.837 104.15 67.5066 104.205 67.1763 104.37C66.9009 104.48 66.6256 104.701 66.4054 104.976Z" fill="#004B50"/>
<path d="M57.5963 106.628L55.614 109.546C55.4488 109.821 55.1735 110.042 54.8982 110.152C54.6229 110.317 54.2925 110.372 53.9621 110.372H35.7361C35.4607 110.372 35.1854 110.427 34.9652 110.482C34.7449 110.592 34.4696 110.757 34.3044 110.923C34.1392 111.088 33.974 111.363 33.8639 111.583C33.7538 111.859 33.7538 112.079 33.7538 112.354L35.4057 134.71C35.4607 135.261 35.7361 135.811 36.1766 136.142C36.6171 136.527 37.1677 136.692 37.7184 136.692H81.1635C81.4388 136.692 81.7141 136.637 81.9344 136.582C82.1546 136.472 82.4299 136.307 82.5951 136.142C82.7603 135.977 82.9255 135.701 83.0356 135.481C83.1457 135.206 83.1457 134.985 83.1457 134.71L81.1635 107.784C81.1084 107.233 80.8331 106.738 80.3926 106.352C79.9521 105.967 79.4014 105.802 78.8508 105.802H59.3032C58.9729 105.802 58.6425 105.857 58.3672 106.022C58.0918 106.187 57.8165 106.407 57.5963 106.628Z" fill="url(#paint2_linear_0_29289)"/>
<defs>
<linearGradient id="paint0_linear_0_29289" x1="71.4268" y1="4.62139" x2="27.9237" y2="108.164" gradientUnits="userSpaceOnUse">
<stop stop-color="#00A66F"/>
<stop offset="1" stop-color="#007867"/>
</linearGradient>
<linearGradient id="paint1_linear_0_29289" x1="87.8003" y1="11.5016" x2="44.2972" y2="115.044" gradientUnits="userSpaceOnUse">
<stop stop-color="#00A66F"/>
<stop offset="1" stop-color="#007867"/>
</linearGradient>
<linearGradient id="paint2_linear_0_29289" x1="64.9865" y1="102.21" x2="52.6591" y2="142.211" gradientUnits="userSpaceOnUse">
<stop stop-color="#00A66F"/>
<stop offset="1" stop-color="#007867"/>
</linearGradient>
</defs>
</svg>
