<svg width="22" height="22" viewBox="0 0 22 22" fill="none" xmlns="http://www.w3.org/2000/svg">
<g clip-path="url(#clip0_0_28492)">
<g opacity="0.32">
<path d="M2.39196 21.0689C1.62513 21.0495 1.0443 20.5882 0.981613 19.8237C0.944066 19.3658 0.916626 18.7365 0.916626 17.875C0.916626 17.0135 0.944066 16.3842 0.981613 15.9263C1.0443 15.1618 1.62513 14.7005 2.39196 14.6811C2.72746 14.6725 3.14693 14.6667 3.66663 14.6667C4.18632 14.6667 4.6058 14.6725 4.9413 14.6811C5.70813 14.7005 6.28893 15.1618 6.35163 15.9263C6.38917 16.3842 6.41663 17.0135 6.41663 17.875C6.41663 18.7365 6.38917 19.3658 6.35163 19.8237C6.28893 20.5882 5.70813 21.0495 4.9413 21.0689C4.6058 21.0775 4.18632 21.0833 3.66663 21.0833C3.14693 21.0833 2.72746 21.0775 2.39196 21.0689Z" fill="#637381"/>
<path d="M17.275 21.0643C16.3816 21.0291 15.7552 20.401 15.6972 19.5088C15.6372 18.5836 15.5833 17.0809 15.5833 14.6667C15.5833 12.2524 15.6372 10.7497 15.6972 9.82456C15.7552 8.93232 16.3816 8.30427 17.275 8.26902C17.5698 8.25738 17.9198 8.25 18.3333 8.25C18.7468 8.25 19.0968 8.25738 19.3916 8.26902C20.285 8.30427 20.9114 8.93232 20.9694 9.82456C21.0294 10.7497 21.0833 12.2524 21.0833 14.6667C21.0833 17.0809 21.0294 18.5836 20.9694 19.5088C20.9114 20.401 20.285 21.0291 19.3916 21.0643C19.0968 21.076 18.7468 21.0833 18.3333 21.0833C17.9198 21.0833 17.5698 21.076 17.275 21.0643Z" fill="#637381"/>
<path d="M9.87851 21.0679C9.02244 21.0419 8.39846 20.48 8.33695 19.6258C8.28864 18.9544 8.24996 17.9608 8.24996 16.5C8.24996 15.0392 8.28864 14.0456 8.33695 13.3742C8.39846 12.52 9.02244 11.9581 9.87851 11.9321C10.1861 11.9228 10.5566 11.9167 11 11.9167C11.4434 11.9167 11.8138 11.9228 12.1214 11.9321C12.9775 11.9581 13.6015 12.52 13.663 13.3742C13.7113 14.0456 13.75 15.0392 13.75 16.5C13.75 17.9608 13.7113 18.9544 13.663 19.6258C13.6015 20.48 12.9775 21.0419 12.1214 21.0679C11.8138 21.0772 11.4434 21.0833 11 21.0833C10.5566 21.0833 10.1861 21.0772 9.87851 21.0679Z" fill="#637381"/>
</g>
<path d="M19.2136 5.54642C19.168 6.45204 18.3066 6.79231 17.6385 6.17929C17.3346 5.90053 16.9709 5.55738 16.5382 5.13599C15.5609 6.02538 14.0451 7.41207 12.238 9.09012C11.7634 9.53081 10.9926 9.48154 10.578 8.98402L10.5777 8.98365C9.76406 8.0102 8.94438 7.04068 8.09614 6.09716C7.10495 6.8249 5.32579 8.21177 3.56019 9.97736C3.11271 10.4248 2.38721 10.4248 1.93973 9.97736C1.49226 9.52989 1.49226 8.8044 1.93973 8.35692C3.67188 6.62479 5.57238 5 7.61063 3.63292L7.61379 3.63079C7.61457 3.63028 7.61434 3.63042 7.61434 3.63042C8.06883 3.32745 8.67396 3.38737 9.0602 3.77359C9.94749 4.66088 10.7493 5.63685 11.5608 6.5933C12.9405 5.3173 14.1027 4.25417 14.9177 3.51216C14.5479 3.13051 14.2415 2.8051 13.9882 2.5291C13.375 1.86085 13.7155 0.999189 14.6213 0.953604C15.7771 0.895437 16.9633 0.861208 18.1051 1.07467C18.6192 1.17078 18.9963 1.54795 19.0924 2.06206C19.3058 3.20398 19.2717 4.3904 19.2136 5.54642Z" fill="#637381"/>
</g>
<defs>
<clipPath id="clip0_0_28492">
<rect width="22" height="22" fill="white"/>
</clipPath>
</defs>
</svg>
