<svg width="48" height="48" viewBox="0 0 48 48" fill="none" xmlns="http://www.w3.org/2000/svg">
<path fill-rule="evenodd" clip-rule="evenodd" d="M0.00015 9.29219L14.1196 0L24.0002 8.31248L9.76365 17.1723L0.00015 9.29219ZM38.2365 17.1724L48 9.29234L33.8805 0.000151L24.0002 8.31248L24 8.31263L38.2361 17.1722L24 26.0332L9.7635 17.1735L0 25.0535L14.1195 34.3457L23.9998 26.0335L33.8802 34.3459L47.9997 25.0537L38.2365 17.1724ZM38.2365 17.1724L38.2361 17.1722L38.2362 17.1721L38.2365 17.1724ZM24.0284 27.8218L14.1194 36.1101L9.87891 33.3191V36.4472L24.0284 45.0001L38.1779 36.4472V33.3191L33.9374 36.1101L24.0284 27.8218Z" fill="#0F82E2"/>
</svg>
