<svg width="20" height="20" viewBox="0 0 20 20" fill="none" xmlns="http://www.w3.org/2000/svg">
<path fill-rule="evenodd" clip-rule="evenodd" d="M2.70703 5.83337C2.70703 5.66761 2.77288 5.50864 2.89009 5.39143C3.0073 5.27422 3.16627 5.20837 3.33203 5.20837H16.6654C16.8311 5.20837 16.9901 5.27422 17.1073 5.39143C17.2245 5.50864 17.2904 5.66761 17.2904 5.83337C17.2904 5.99913 17.2245 6.15811 17.1073 6.27532C16.9901 6.39253 16.8311 6.45837 16.6654 6.45837H3.33203C3.16627 6.45837 3.0073 6.39253 2.89009 6.27532C2.77288 6.15811 2.70703 5.99913 2.70703 5.83337ZM2.70703 10C2.70703 9.83428 2.77288 9.67531 2.89009 9.5581C3.0073 9.44089 3.16627 9.37504 3.33203 9.37504H12.4987C12.6645 9.37504 12.8234 9.44089 12.9406 9.5581C13.0578 9.67531 13.1237 9.83428 13.1237 10C13.1237 10.1658 13.0578 10.3248 12.9406 10.442C12.8234 10.5592 12.6645 10.625 12.4987 10.625H3.33203C3.16627 10.625 3.0073 10.5592 2.89009 10.442C2.77288 10.3248 2.70703 10.1658 2.70703 10ZM2.70703 14.1667C2.70703 14.0009 2.77288 13.842 2.89009 13.7248C3.0073 13.6076 3.16627 13.5417 3.33203 13.5417H7.4987C7.66446 13.5417 7.82343 13.6076 7.94064 13.7248C8.05785 13.842 8.1237 14.0009 8.1237 14.1667C8.1237 14.3325 8.05785 14.4914 7.94064 14.6087C7.82343 14.7259 7.66446 14.7917 7.4987 14.7917H3.33203C3.16627 14.7917 3.0073 14.7259 2.89009 14.6087C2.77288 14.4914 2.70703 14.3325 2.70703 14.1667Z" fill="#212B36"/>
</svg>
