<svg width="16" height="16" viewBox="0 0 16 16" fill="none" xmlns="http://www.w3.org/2000/svg">
<path d="M14.0002 4.66667C14.0065 4.62021 14.0065 4.57312 14.0002 4.52667C13.9944 4.48753 13.9832 4.44938 13.9669 4.41333C13.9493 4.38075 13.9292 4.34955 13.9069 4.32C13.8815 4.27784 13.8501 4.23965 13.8135 4.20667L13.7335 4.16C13.695 4.1313 13.6523 4.10881 13.6069 4.09333H13.4735C13.4329 4.054 13.3855 4.02237 13.3335 4H10.0002C9.63201 4 9.33353 4.29848 9.33353 4.66667C9.33353 5.03486 9.63201 5.33333 10.0002 5.33333H11.8869L9.2202 8.47333L6.3402 6.76C6.05839 6.59239 5.69654 6.65458 5.48687 6.90667L2.15353 10.9067C2.04016 11.0427 1.98558 11.2183 2.00184 11.3946C2.0181 11.571 2.10386 11.7336 2.2402 11.8467C2.36014 11.9461 2.5111 12.0003 2.66687 12C2.86515 12.0003 3.05329 11.9124 3.1802 11.76L6.14687 8.2L8.99353 9.90667C9.27227 10.072 9.62952 10.0129 9.8402 9.76667L12.6669 6.46667V8C12.6669 8.36819 12.9653 8.66667 13.3335 8.66667C13.7017 8.66667 14.0002 8.36819 14.0002 8V4.66667Z" fill="#22C55E"/>
</svg>
