<svg width="32" height="32" viewBox="0 0 32 32" fill="none" xmlns="http://www.w3.org/2000/svg">
<path fill-rule="evenodd" clip-rule="evenodd" d="M4.504 6.77584C4 7.49317 4 9.6265 4 13.8892V15.9878C4 23.5052 9.652 27.1545 13.1987 28.7025C14.16 29.1225 14.6413 29.3332 16 29.3332C17.36 29.3332 17.84 29.1225 18.8013 28.7025C22.348 27.1532 28 23.5065 28 15.9878V13.8892C28 9.62517 28 7.49317 27.496 6.77584C26.9933 6.05984 24.9893 5.37317 20.98 4.00117L20.216 3.73984C18.1267 3.02384 17.0827 2.6665 16 2.6665C14.9187 2.6665 13.8733 3.02384 11.784 3.73984L11.02 3.99984C7.01067 5.37317 5.00667 6.05984 4.504 6.77584ZM20.0787 13.9998C20.2459 13.8008 20.3291 13.5445 20.3106 13.2852C20.292 13.0259 20.1733 12.784 19.9794 12.6108C19.7856 12.4376 19.5319 12.3467 19.2721 12.3573C19.0124 12.368 18.767 12.4793 18.588 12.6678L14.572 17.1665L13.412 15.8678C13.2347 15.6719 12.9871 15.5542 12.7233 15.5402C12.4594 15.5263 12.2008 15.6173 12.0039 15.7935C11.8069 15.9696 11.6877 16.2166 11.6723 16.4803C11.6568 16.7441 11.7463 17.0032 11.9213 17.2012L13.8253 19.3345C13.9191 19.4396 14.0341 19.5237 14.1626 19.5812C14.2912 19.6388 14.4305 19.6686 14.5713 19.6686C14.7122 19.6686 14.8515 19.6388 14.98 19.5812C15.1086 19.5237 15.2235 19.4396 15.3173 19.3345L20.08 14.0012L20.0787 13.9998Z" fill="#00A76F"/>
</svg>
