<svg width="20" height="20" viewBox="0 0 20 20" fill="none" xmlns="http://www.w3.org/2000/svg">
<path fill-rule="evenodd" clip-rule="evenodd" d="M11.5025 4.44426C11.5025 2.91092 12.7525 1.66676 14.2925 1.66676C14.6581 1.66588 15.0203 1.73703 15.3584 1.87613C15.6966 2.01524 16.004 2.21959 16.2631 2.4775C16.5223 2.73542 16.7281 3.04185 16.8688 3.37931C17.0095 3.71676 17.0824 4.07863 17.0833 4.44426C17.0833 5.97842 15.8333 7.22259 14.2925 7.22259C13.9229 7.22304 13.557 7.15005 13.216 7.00785C12.8749 6.86565 12.5655 6.65708 12.3058 6.39426L8.44329 9.02426C8.55086 9.56009 8.49811 10.1157 8.29163 10.6218L12.5266 13.4051C13.0254 12.9983 13.6496 12.7766 14.2933 12.7776C14.6589 12.7768 15.0211 12.8481 15.3592 12.9873C15.6973 13.1265 16.0046 13.3309 16.2637 13.5889C16.5228 13.8469 16.7285 14.1534 16.8691 14.4909C17.0098 14.8284 17.0825 15.1903 17.0833 15.5559C17.0833 17.0893 15.8333 18.3334 14.2925 18.3334C13.5542 18.335 12.8455 18.0432 12.3223 17.5224C11.7991 17.0015 11.5042 16.2942 11.5025 15.5559C11.5018 15.1665 11.5839 14.7813 11.7433 14.4259L7.54163 11.6668C7.0328 12.1092 6.3809 12.3522 5.70663 12.3509C5.34097 12.3518 4.97873 12.2806 4.6406 12.1414C4.30246 12.0023 3.99507 11.7978 3.73597 11.5398C3.47687 11.2818 3.27115 10.9753 3.13057 10.6377C2.98998 10.3002 2.91728 9.93824 2.91663 9.57259C2.91739 9.20701 2.99017 8.84516 3.1308 8.5077C3.27144 8.17025 3.47718 7.86381 3.73626 7.60589C3.99535 7.34796 4.30271 7.1436 4.64079 7.00449C4.97887 6.86537 5.34104 6.79421 5.70663 6.79509C6.59329 6.79509 7.38163 7.20592 7.89246 7.84592L11.6366 5.29676C11.5475 5.02137 11.5023 4.73369 11.5025 4.44426Z" fill="#637381"/>
</svg>
