<svg width="132" height="132" viewBox="0 0 132 132" fill="none" xmlns="http://www.w3.org/2000/svg">
<path opacity="0.24" d="M15.8398 64.68C15.8398 60.3059 19.3857 56.76 23.7598 56.76H108.24C112.614 56.76 116.16 60.3059 116.16 64.68V96.36C116.16 100.734 112.614 104.28 108.24 104.28H23.7598C19.3857 104.28 15.8398 100.734 15.8398 96.36V64.68Z" fill="#919EAB"/>
<rect opacity="0.48" x="26.3999" y="71.28" width="21.12" height="6.6" rx="3.3" fill="#919EAB"/>
<rect opacity="0.24" x="26.3999" y="83.1599" width="42.24" height="6.6" rx="3.3" fill="#919EAB"/>
<path opacity="0.24" d="M34.3198 33C34.3198 30.0839 36.6838 27.72 39.5998 27.72H92.3998C95.3159 27.72 97.6798 30.0839 97.6798 33V46.2C97.6798 49.116 95.3159 51.48 92.3998 51.48H39.5998C36.6838 51.48 34.3198 49.116 34.3198 46.2V33Z" fill="#919EAB"/>
<rect x="50.1597" y="35.6399" width="31.68" height="7.92" rx="3.96" fill="#919EAB"/>
</svg>
