<svg width="36" height="20" viewBox="0 0 36 20" fill="none" xmlns="http://www.w3.org/2000/svg">
<circle cx="8" cy="8" r="8" transform="matrix(1.01699 0.0800385 -0.291098 0.977715 18.1694 2.01822)" fill="#FFAC82"/>
<g filter="url(#filter0_i_0_32485)">
<circle cx="8" cy="8" r="8" transform="matrix(1.01699 0.0800385 -0.291098 0.977715 18.1694 2.01822)" fill="black" fill-opacity="0.01"/>
</g>
<circle cx="8" cy="8" r="8" transform="matrix(1.01699 0.0800385 -0.291098 0.977715 18.1694 2.01822)" stroke="white" stroke-width="2"/>
<circle cx="8" cy="8" r="8" transform="matrix(1.01699 0.0800385 -0.291098 0.977715 5.96562 1.05774)" fill="#00B8D9"/>
<g filter="url(#filter1_i_0_32485)">
<circle cx="8" cy="8" r="8" transform="matrix(1.01699 0.0800385 -0.291098 0.977715 5.96562 1.05774)" fill="black" fill-opacity="0.01"/>
</g>
<circle cx="8" cy="8" r="8" transform="matrix(1.01699 0.0800385 -0.291098 0.977715 5.96562 1.05774)" stroke="white" stroke-width="2"/>
<defs>
<filter id="filter0_i_0_32485" x="14.4916" y="2.63189" width="17.9497" height="16.7168" filterUnits="userSpaceOnUse" color-interpolation-filters="sRGB">
<feFlood flood-opacity="0" result="BackgroundImageFix"/>
<feBlend mode="normal" in="SourceGraphic" in2="BackgroundImageFix" result="shape"/>
<feColorMatrix in="SourceAlpha" type="matrix" values="0 0 0 0 0 0 0 0 0 0 0 0 0 0 0 0 0 0 127 0" result="hardAlpha"/>
<feOffset dx="-1" dy="1"/>
<feGaussianBlur stdDeviation="1"/>
<feComposite in2="hardAlpha" operator="arithmetic" k2="-1" k3="1"/>
<feColorMatrix type="matrix" values="0 0 0 0 0 0 0 0 0 0 0 0 0 0 0 0 0 0 0.24 0"/>
<feBlend mode="normal" in2="shape" result="effect1_innerShadow_0_32485"/>
</filter>
<filter id="filter1_i_0_32485" x="2.28782" y="1.67141" width="17.9497" height="16.7168" filterUnits="userSpaceOnUse" color-interpolation-filters="sRGB">
<feFlood flood-opacity="0" result="BackgroundImageFix"/>
<feBlend mode="normal" in="SourceGraphic" in2="BackgroundImageFix" result="shape"/>
<feColorMatrix in="SourceAlpha" type="matrix" values="0 0 0 0 0 0 0 0 0 0 0 0 0 0 0 0 0 0 127 0" result="hardAlpha"/>
<feOffset dx="-1" dy="1"/>
<feGaussianBlur stdDeviation="1"/>
<feComposite in2="hardAlpha" operator="arithmetic" k2="-1" k3="1"/>
<feColorMatrix type="matrix" values="0 0 0 0 0 0 0 0 0 0 0 0 0 0 0 0 0 0 0.24 0"/>
<feBlend mode="normal" in2="shape" result="effect1_innerShadow_0_32485"/>
</filter>
</defs>
</svg>
