<svg width="24" height="24" viewBox="0 0 24 24" fill="none" xmlns="http://www.w3.org/2000/svg">
<path fill-rule="evenodd" clip-rule="evenodd" d="M13.232 1.36006C13.864 0.60206 15.095 1.12006 14.995 2.10206L14.289 9.00006H20C20.19 9.00013 20.3761 9.05434 20.5364 9.15633C20.6967 9.25833 20.8247 9.40389 20.9053 9.57597C20.9858 9.74805 21.0157 9.93952 20.9914 10.128C20.9671 10.3164 20.8896 10.4941 20.768 10.6401L10.768 22.6401C10.136 23.3981 8.90501 22.8801 9.00501 21.8981L9.71101 15.0001H4.00001C3.80999 15 3.62393 14.9458 3.46361 14.8438C3.30329 14.7418 3.17535 14.5962 3.09476 14.4242C3.01418 14.2521 2.98429 14.0606 3.0086 13.8721C3.0329 13.6837 3.1104 13.5061 3.23201 13.3601L13.232 1.36006Z" fill="white"/>
</svg>
