<svg width="132" height="132" viewBox="0 0 132 132" fill="none" xmlns="http://www.w3.org/2000/svg">
<path d="M68.3037 29.904C68.3037 26.5108 71.0545 23.76 74.4477 23.76H102.096C105.489 23.76 108.24 26.5108 108.24 29.904V57.552C108.24 60.9452 105.489 63.696 102.096 63.696H74.4477C71.0545 63.696 68.3037 60.9452 68.3037 57.552V29.904Z" fill="#919EAB"/>
<g opacity="0.24">
<path d="M23.7598 29.904C23.7598 26.5108 26.5105 23.76 29.9038 23.76H57.5518C60.945 23.76 63.6958 26.5108 63.6958 29.904V57.552C63.6958 60.9452 60.945 63.696 57.5518 63.696H29.9038C26.5105 63.696 23.7598 60.9452 23.7598 57.552V29.904Z" fill="#919EAB"/>
<path d="M23.7598 74.448C23.7598 71.0548 26.5105 68.304 29.9038 68.304H57.5518C60.945 68.304 63.6958 71.0548 63.6958 74.448V102.096C63.6958 105.489 60.945 108.24 57.5518 108.24H29.9038C26.5105 108.24 23.7598 105.489 23.7598 102.096V74.448Z" fill="#919EAB"/>
<path d="M68.3038 74.448C68.3038 71.0548 71.0545 68.304 74.4478 68.304H102.096C105.489 68.304 108.24 71.0548 108.24 74.448V102.096C108.24 105.489 105.489 108.24 102.096 108.24H74.4478C71.0545 108.24 68.3038 105.489 68.3038 102.096V74.448Z" fill="#919EAB"/>
</g>
</svg>
