<svg width="24" height="24" viewBox="0 0 24 24" fill="none" xmlns="http://www.w3.org/2000/svg">
<path d="M2.162 8.5001C2 9.60311 2 11.0501 2 13.0001C2 16.7711 2 18.6571 3.172 19.8281C4.343 21.0001 6.229 21.0001 10 21.0001H14C17.771 21.0001 19.657 21.0001 20.828 19.8281C22 18.6571 22 16.7711 22 13.0001C22 11.0501 22 9.6041 21.838 8.5001C19.561 9.9801 18.102 10.9241 16.75 11.5051V12.0001C16.7523 12.199 16.6754 12.3907 16.5363 12.5329C16.3973 12.6752 16.2074 12.7564 16.0085 12.7586C15.8096 12.7609 15.6179 12.684 15.4757 12.5449C15.3334 12.4059 15.2523 12.216 15.25 12.0171C13.1197 12.5787 10.8803 12.5787 8.75 12.0171C8.74775 12.216 8.66657 12.4059 8.52432 12.5449C8.38207 12.684 8.19041 12.7609 7.9915 12.7586C7.79259 12.7564 7.60272 12.6752 7.46366 12.5329C7.3246 12.3907 7.24775 12.199 7.25 12.0001V11.5051C5.898 10.9231 4.44 9.9801 2.162 8.5001Z" fill="#212B36"/>
<path fill-rule="evenodd" clip-rule="evenodd" d="M10.581 2.2501H10.561C10.447 2.2501 10.359 2.2501 10.275 2.2551C9.75543 2.28669 9.25549 2.46509 8.8333 2.76956C8.41111 3.07403 8.084 3.49208 7.89 3.9751C7.84738 4.0885 7.80737 4.20287 7.77 4.3181L7.766 4.3301C7.66312 4.60265 7.48909 4.84264 7.262 5.0251C7.034 5.0331 6.817 5.0421 6.609 5.0551C4.965 5.1511 3.922 5.4211 3.172 6.1721C2.92801 6.41537 2.72775 6.69885 2.58 7.01011C2.638 7.03011 2.694 7.05611 2.747 7.0911C4.847 8.45611 6.167 9.3111 7.264 9.8581C7.2998 9.6754 7.40228 9.51254 7.5515 9.40121C7.70072 9.28987 7.88601 9.23801 8.07135 9.25572C8.25668 9.27344 8.4288 9.35945 8.55424 9.49703C8.67967 9.63461 8.74945 9.81393 8.75 10.0001V10.4581C10.87 11.0981 13.13 11.0981 15.25 10.4581V10.0001C15.2493 9.81302 15.3185 9.63241 15.444 9.49372C15.5696 9.35504 15.7425 9.26829 15.9287 9.25051C16.1149 9.23272 16.3011 9.28518 16.4506 9.3976C16.6002 9.51001 16.7023 9.67426 16.737 9.8581C17.833 9.3101 19.153 8.45611 21.253 7.0911C21.3051 7.05732 21.3612 7.03012 21.42 7.01011C21.2718 6.69909 21.0716 6.41568 20.828 6.1721C20.078 5.4221 19.035 5.1521 17.391 5.0541C17.194 5.0431 16.988 5.0341 16.773 5.0261C16.521 4.82121 16.3264 4.55456 16.208 4.2521L16.205 4.2431C16.169 4.1361 16.142 4.0521 16.11 3.9741C15.9158 3.49127 15.5887 3.07343 15.1665 2.76914C14.7443 2.46485 14.2445 2.2866 13.725 2.2551C13.6301 2.25063 13.535 2.24896 13.44 2.2501H10.58H10.581ZM14.818 4.8161L14.813 4.8051L14.808 4.7931L14.804 4.7811L14.798 4.7661L14.788 4.7361L14.785 4.7281L14.783 4.7211L14.781 4.7151C14.7616 4.65421 14.7406 4.59386 14.718 4.5341C14.6299 4.31453 14.4812 4.12448 14.2893 3.98605C14.0974 3.84762 13.8702 3.76649 13.634 3.7521C13.5624 3.7496 13.4907 3.74893 13.419 3.7501H10.581C10.438 3.7501 10.398 3.7501 10.366 3.7521C10.1298 3.76649 9.90259 3.84762 9.7107 3.98605C9.51881 4.12448 9.37015 4.31453 9.282 4.5341L9.279 4.5411L9.271 4.5621C9.24371 4.63822 9.21804 4.7149 9.194 4.7921L9.192 4.7981L9.189 4.8051L9.187 4.8131L9.177 4.8431L9.171 4.8581L9.167 4.8701L9.162 4.8821L9.158 4.8921L9.157 4.8931C9.14307 4.9294 9.1284 4.96541 9.113 5.0011L10 5.0001H14.896C14.868 4.93965 14.842 4.87828 14.818 4.8161Z" fill="#212B36"/>
</svg>
