<svg width="22" height="22" viewBox="0 0 22 22" fill="none" xmlns="http://www.w3.org/2000/svg">
<path opacity="0.32" d="M19.4164 15.5561C19.1563 16.1567 18.5379 16.5 17.8835 16.5H13.5815C13.6096 16.4216 13.6347 16.3413 13.6563 16.2592C13.9073 15.306 13.6429 14.3358 13.0369 13.655C13.2606 11.8334 13.4002 9.96716 13.4855 8.49306C13.5278 7.7617 12.6318 7.51741 12.3091 8.17232C11.6586 9.49232 10.8625 11.1795 10.1611 12.8709C9.30179 13.1522 8.59605 13.8579 8.34502 14.8111C8.19237 15.3908 8.23032 15.9767 8.41979 16.5H4.11777C3.46334 16.5 2.84496 16.1567 2.58489 15.5561C2.10176 14.4405 1.83398 13.2099 1.83398 11.9167C1.83398 6.85405 5.93804 2.75 11.0007 2.75C16.0633 2.75 20.1673 6.85405 20.1673 11.9167C20.1673 13.2099 19.8996 14.4405 19.4164 15.5561Z" fill="#637381"/>
<path d="M13.4849 8.49302C13.5272 7.76166 12.6312 7.51737 12.3085 8.17228C11.658 9.49228 10.8619 11.1795 10.1605 12.8709C9.30114 13.1522 8.5954 13.8578 8.34437 14.8111C7.95135 16.3034 8.82177 17.8374 10.2884 18.2373C11.7551 18.6372 13.2627 17.7515 13.6556 16.2592C13.9067 15.3059 13.6422 14.3357 13.0362 13.6549C13.26 11.8333 13.3996 9.96712 13.4849 8.49302Z" fill="#637381"/>
</svg>
