<svg width="16" height="16" viewBox="0 0 16 16" fill="none" xmlns="http://www.w3.org/2000/svg">
<path d="M14.6666 5.73875V11.1667C14.6667 11.7202 14.4549 12.2526 14.0749 12.6549C13.6948 13.0572 13.1752 13.2987 12.6226 13.3301L12.5 13.3334H3.49998C2.94655 13.3335 2.41409 13.1217 2.01183 12.7416C1.60956 12.3616 1.36798 11.842 1.33665 11.2894L1.33331 11.1667V5.73875L7.76798 9.10941C7.83956 9.14691 7.91917 9.1665 7.99998 9.1665C8.08079 9.1665 8.1604 9.14691 8.23198 9.10941L14.6666 5.73875ZM3.49998 2.66675H12.5C13.037 2.66668 13.555 2.86608 13.9533 3.22626C14.3517 3.58644 14.6021 4.08174 14.656 4.61608L7.99998 8.10275L1.34398 4.61608C1.39566 4.10296 1.62868 3.62509 2.00115 3.26839C2.37361 2.91169 2.8611 2.69954 3.37598 2.67008L3.49998 2.66675Z" fill="white"/>
</svg>
