<svg width="22" height="22" viewBox="0 0 22 22" fill="none" xmlns="http://www.w3.org/2000/svg">
<g opacity="0.32">
<path d="M19.2507 7.33333H11.9173C11.6742 7.33333 11.441 7.23676 11.2691 7.06485C11.0972 6.89294 11.0007 6.65978 11.0007 6.41667C11.0007 6.17355 11.0972 5.94039 11.2691 5.76849C11.441 5.59658 11.6742 5.5 11.9173 5.5H19.2507C19.4938 5.5 19.7269 5.59658 19.8988 5.76849C20.0707 5.94039 20.1673 6.17355 20.1673 6.41667C20.1673 6.65978 20.0707 6.89294 19.8988 7.06485C19.7269 7.23676 19.4938 7.33333 19.2507 7.33333ZM19.2507 11H11.9173C11.6742 11 11.441 10.9034 11.2691 10.7315C11.0972 10.5596 11.0007 10.3264 11.0007 10.0833C11.0007 9.84022 11.0972 9.60706 11.2691 9.43515C11.441 9.26324 11.6742 9.16667 11.9173 9.16667H19.2507C19.4938 9.16667 19.7269 9.26324 19.8988 9.43515C20.0707 9.60706 20.1673 9.84022 20.1673 10.0833C20.1673 10.3264 20.0707 10.5596 19.8988 10.7315C19.7269 10.9034 19.4938 11 19.2507 11Z" fill="#637381"/>
<path d="M19.2507 14.6667H2.75065C2.50754 14.6667 2.27438 14.5701 2.10247 14.3982C1.93056 14.2263 1.83398 13.9931 1.83398 13.75C1.83398 13.5069 1.93056 13.2737 2.10247 13.1018C2.27438 12.9299 2.50754 12.8333 2.75065 12.8333H19.2507C19.4938 12.8333 19.7269 12.9299 19.8988 13.1018C20.0707 13.2737 20.1673 13.5069 20.1673 13.75C20.1673 13.9931 20.0707 14.2263 19.8988 14.3982C19.7269 14.5701 19.4938 14.6667 19.2507 14.6667ZM11.9173 18.3333H2.75065C2.50754 18.3333 2.27438 18.2368 2.10247 18.0648C1.93056 17.8929 1.83398 17.6598 1.83398 17.4167C1.83398 17.1736 1.93056 16.9404 2.10247 16.7685C2.27438 16.5966 2.50754 16.5 2.75065 16.5H11.9173C12.1604 16.5 12.3936 16.5966 12.5655 16.7685C12.7374 16.9404 12.834 17.1736 12.834 17.4167C12.834 17.6598 12.7374 17.8929 12.5655 18.0648C12.3936 18.2368 12.1604 18.3333 11.9173 18.3333Z" fill="#637381"/>
</g>
<rect x="1.83398" y="3.66663" width="7.33333" height="7.33333" rx="2" fill="#637381"/>
</svg>
