<svg width="24" height="24" viewBox="0 0 24 24" fill="none" xmlns="http://www.w3.org/2000/svg">
<path d="M3 6.37623C3 5.89223 3.345 5.49923 3.771 5.49923H6.436C6.965 5.48323 7.432 5.10023 7.612 4.53423L7.642 4.43423L7.757 4.04323C7.827 3.80323 7.888 3.59323 7.974 3.40623C8.312 2.66723 8.938 2.15423 9.661 2.02323C9.845 1.99023 10.039 1.99023 10.261 1.99023H13.739C13.962 1.99023 14.156 1.99023 14.339 2.02323C15.062 2.15423 15.689 2.66723 16.026 3.40623C16.112 3.59323 16.173 3.80223 16.244 4.04323L16.358 4.43423L16.388 4.53423C16.568 5.10023 17.128 5.48423 17.658 5.49923H20.228C20.655 5.49923 21 5.89223 21 6.37623C21 6.86023 20.655 7.25323 20.229 7.25323H3.77C3.345 7.25323 3 6.86023 3 6.37623Z" fill="#B71D18"/>
<path fill-rule="evenodd" clip-rule="evenodd" d="M11.596 21.9902H12.404C15.187 21.9902 16.578 21.9902 17.484 21.1042C18.388 20.2182 18.48 18.7652 18.665 15.8592L18.932 11.6712C19.032 10.0942 19.082 9.30523 18.629 8.80623C18.175 8.30623 17.409 8.30623 15.876 8.30623H8.124C6.591 8.30623 5.824 8.30623 5.371 8.80623C4.917 9.30623 4.967 10.0942 5.068 11.6712L5.335 15.8592C5.52 18.7652 5.612 20.2192 6.517 21.1042C7.422 21.9902 8.813 21.9902 11.596 21.9902ZM10.246 12.1792C10.206 11.7452 9.838 11.4292 9.426 11.4722C9.013 11.5152 8.713 11.9022 8.754 12.3362L9.254 17.5992C9.294 18.0332 9.662 18.3492 10.074 18.3062C10.487 18.2632 10.787 17.8762 10.746 17.4422L10.246 12.1792ZM14.575 11.4722C14.987 11.5152 15.288 11.9022 15.246 12.3362L14.746 17.5992C14.706 18.0332 14.337 18.3492 13.926 18.3062C13.513 18.2632 13.213 17.8762 13.254 17.4422L13.754 12.1792C13.794 11.7452 14.164 11.4292 14.575 11.4722Z" fill="#B71D18"/>
</svg>
