<svg width="16" height="16" viewBox="0 0 16 16" fill="none" xmlns="http://www.w3.org/2000/svg">
<path d="M6.0026 6.66659C7.47536 6.66659 8.66927 5.47268 8.66927 3.99992C8.66927 2.52716 7.47536 1.33325 6.0026 1.33325C4.52985 1.33325 3.33594 2.52716 3.33594 3.99992C3.33594 5.47268 4.52985 6.66659 6.0026 6.66659Z" fill="#919EAB"/>
<path d="M6.0026 14.0006C8.57993 14.0006 10.6693 12.8067 10.6693 11.3339C10.6693 9.86116 8.57993 8.66725 6.0026 8.66725C3.42528 8.66725 1.33594 9.86116 1.33594 11.3339C1.33594 12.8067 3.42528 14.0006 6.0026 14.0006Z" fill="#919EAB"/>
<path d="M14.0019 11.3333C14.0019 12.4379 12.6446 13.3333 10.9879 13.3333C11.4759 12.7999 11.8119 12.1299 11.8119 11.3346C11.8119 10.5379 11.4753 9.86792 10.9859 9.33392C12.6433 9.33325 14.0019 10.2293 14.0019 11.3333ZM12.0019 3.99992C12.0022 4.32173 11.9247 4.63884 11.7762 4.92432C11.6277 5.20981 11.4124 5.45524 11.1488 5.63977C10.8851 5.8243 10.5809 5.94249 10.2618 5.9843C9.94269 6.02611 9.61823 5.9903 9.31594 5.87992C9.64162 5.30695 9.81234 4.65898 9.81127 3.99992C9.81127 3.31659 9.63127 2.67525 9.3166 2.12059C9.61885 2.01034 9.94324 1.97464 10.2622 2.01651C10.5812 2.05838 10.8854 2.17659 11.149 2.36111C11.4125 2.54563 11.6277 2.79101 11.7762 3.07642C11.9247 3.36183 12.0021 3.67819 12.0019 3.99992Z" fill="#919EAB"/>
</svg>
