<svg width="194" height="146" viewBox="0 0 194 146" fill="none" xmlns="http://www.w3.org/2000/svg">
<path d="M170.93 27.9331V113.133C170.93 113.666 170.794 114.2 170.589 114.733C170.384 115.266 170.043 115.666 169.701 116.066C169.292 116.466 168.814 116.733 168.336 116.933C167.79 117.133 167.244 117.266 166.698 117.266H52.8927C52.3466 117.266 51.7322 117.2 51.2543 116.933C50.7764 116.666 50.2985 116.4 49.8889 116C49.4793 115.6 49.2062 115.066 49.0697 114.6C48.9331 114.066 48.8648 113.533 48.9331 112.933V27.7331C48.66 25.6665 50.5033 23.7998 52.8927 23.7998H166.698C167.244 23.7998 167.79 23.9331 168.336 24.1331C168.882 24.3331 169.292 24.6665 169.701 24.9998C170.111 25.3998 170.384 25.8665 170.657 26.3331C170.794 26.7998 170.93 27.3998 170.93 27.9331Z" fill="url(#paint0_linear_0_26478)"/>
<path opacity="0.24" d="M116.656 142.6C159.324 142.6 193.937 139.667 193.937 136.067C193.937 132.467 159.324 129.533 116.656 129.533C73.9875 129.533 39.375 132.467 39.375 136.067C39.375 139.667 73.9875 142.6 116.656 142.6Z" fill="#004B50"/>
<path d="M12.8203 5.6001L22.7876 1.6001L77.5395 6.6001V11.6668L12.8203 11.8668V5.6001Z" fill="#007867"/>
<path d="M30.9128 0H21.082V133H30.9128V0Z" fill="#00A76F"/>
<path d="M96.9965 112.467H93.5147C93.1051 112.467 92.832 112.733 92.832 113.133V145.333C92.832 145.733 93.1051 146 93.5147 146H97.0647C97.4743 146 97.7474 145.733 97.7474 145.333V113.133C97.6791 112.8 97.4061 112.467 96.9965 112.467Z" fill="white"/>
<path d="M62.1116 112.467H58.5616C58.152 112.467 57.8789 112.733 57.8789 113.133V144.267C57.8789 144.667 58.152 144.933 58.5616 144.933H62.1116C62.5212 144.933 62.7943 144.667 62.7943 144.267V113.2C62.7943 112.8 62.5212 112.467 62.1116 112.467Z" fill="white"/>
<path opacity="0.5" d="M92.6942 130H97.6096V113.533H92.5576L92.6942 130ZM57.9451 130H62.8605V113.533H57.8086L57.9451 130Z" fill="#DFE3E8"/>
<path opacity="0.24" d="M162.328 36.6665H123.483C122.322 36.6665 121.435 37.5332 121.435 38.6665V94.5998C121.435 95.7332 122.322 96.5998 123.483 96.5998H162.328C163.489 96.5998 164.376 95.7332 164.376 94.5998V38.6665C164.376 37.5332 163.42 36.6665 162.328 36.6665ZM114.471 36.6665C115.632 36.6665 116.519 37.5332 116.519 38.6665V94.5998C116.519 95.7332 115.632 96.5998 114.471 96.5998H75.6262C74.4656 96.5998 73.5781 95.7332 73.5781 94.5998V94.3998C73.5781 93.2665 74.4656 92.3998 75.6262 92.3998H95.7656C96.9262 92.3998 97.8137 91.5332 97.8137 90.3998V38.6665C97.8137 37.5332 98.7012 36.6665 99.8618 36.6665H114.471Z" fill="#5BE49B"/>
<path d="M96.9948 32.4668H58.1496C56.9891 32.4668 56.1016 33.3335 56.1016 34.4668V89.3335C56.1016 90.4668 56.9891 91.3335 58.1496 91.3335H96.9948C98.1554 91.3335 99.0429 90.4668 99.0429 89.3335V34.4668C99.0429 33.4001 98.0871 32.4668 96.9948 32.4668Z" fill="#004B50"/>
<path d="M75.0827 11.6001H75.7654V28.2668C81.9779 28.2001 89.4192 29.0001 97.8163 31.6001C98.1577 31.7334 98.3625 32.0668 98.2259 32.4668C98.0894 32.8001 97.7481 33.0001 97.3384 32.8668C85.5961 29.1334 75.6288 29.1334 68.5971 30.0668C65.1154 30.5334 62.3163 31.2001 60.4048 31.8001C59.449 32.0668 58.7663 32.3334 58.2202 32.5334C57.9471 32.6001 57.8106 32.6668 57.674 32.7334C57.6057 32.7334 57.5375 32.8001 57.5375 32.8001C57.1961 32.9334 56.7865 32.8001 56.65 32.4668C56.5134 32.1334 56.65 31.7334 56.9913 31.6001L57.3327 32.2668C57.0596 31.6668 57.0596 31.6668 57.0596 31.6668H57.1279C57.1961 31.6668 57.1961 31.6001 57.2644 31.6001C57.4009 31.5334 57.6057 31.4668 57.8788 31.3334C58.425 31.1334 59.1759 30.8668 60.1317 30.6001C62.1115 30.0001 64.9106 29.2668 68.5288 28.8001C70.5086 28.5334 72.6932 28.3334 75.1509 28.2668V11.6001H75.0827Z" fill="white"/>
<path d="M85.5941 36.2666H60.3345C59.7201 36.2666 59.2422 36.7333 59.2422 37.3333C59.2422 37.9333 59.7201 38.3999 60.3345 38.3999H85.5941C86.2085 38.3999 86.6864 37.9333 86.6864 37.3333C86.6181 36.7333 86.1403 36.2666 85.5941 36.2666ZM73.8518 39.9999H59.8566C59.5153 39.9999 59.2422 40.2666 59.2422 40.5999C59.2422 40.9333 59.5153 41.1999 59.8566 41.1999H73.8518C74.1931 41.1999 74.4662 40.9333 74.4662 40.5999C74.4662 40.2666 74.1931 39.9999 73.8518 39.9999ZM80.2008 42.9333H66.2056C65.8643 42.9333 65.5912 43.1999 65.5912 43.5333C65.5912 43.8666 65.8643 44.1333 66.2056 44.1333H80.2008C80.5422 44.1333 80.8153 43.8666 80.8153 43.5333C80.8153 43.1999 80.5422 42.9333 80.2008 42.9333ZM77.5383 39.9999H76.5143C76.173 39.9999 75.8999 40.2666 75.8999 40.5999C75.8999 40.9333 76.173 41.1999 76.5143 41.1999H77.5383C77.8797 41.1999 78.1528 40.9333 78.1528 40.5999C78.1528 40.2666 77.8797 39.9999 77.5383 39.9999ZM80.747 39.9999H79.723C79.3816 39.9999 79.1085 40.2666 79.1085 40.5999C79.1085 40.9333 79.3816 41.1999 79.723 41.1999H80.747C81.0883 41.1999 81.3614 40.9333 81.3614 40.5999C81.3614 40.2666 81.0883 39.9999 80.747 39.9999ZM62.5191 42.9333H61.4951C61.1537 42.9333 60.8806 43.1999 60.8806 43.5333C60.8806 43.8666 61.1537 44.1333 61.4951 44.1333H62.5191C62.8605 44.1333 63.1335 43.8666 63.1335 43.5333C63.1335 43.1999 62.8605 42.9333 62.5191 42.9333ZM84.0239 39.9999H82.9999C82.6585 39.9999 82.3855 40.2666 82.3855 40.5999C82.3855 40.9333 82.6585 41.1999 82.9999 41.1999H84.0239C84.3653 41.1999 84.6383 40.9333 84.6383 40.5999C84.5701 40.2666 84.297 39.9999 84.0239 39.9999Z" fill="#007867"/>
<path opacity="0.48" d="M94.4718 102C94.4718 101.267 93.8573 100.667 93.1064 100.667H55.2169C54.466 100.667 53.8516 101.267 53.8516 102V105.333C53.8516 106.067 54.466 106.667 55.2169 106.667H93.1064C93.8573 106.667 94.4718 106.067 94.4718 105.333V102Z" fill="#004B50"/>
<path d="M101.16 115.333H53.3711V127.467H101.16V115.333Z" fill="#00A76F"/>
<path d="M53.5763 114.867C52.8254 114.867 52.2109 115.467 52.2109 116.2V126.733C52.2109 127.467 52.8254 128.067 53.5763 128.067L101.16 128C101.911 128 102.525 127.4 102.525 126.667L102.252 116.267C102.252 115.533 101.638 114.933 100.887 114.933L53.5763 114.867ZM53.5081 117.867C53.5081 117.133 54.1225 116.533 54.8734 116.533H58.4234C59.584 116.533 60.1984 117.8 59.5157 118.667L53.7811 126.133C53.7811 126.2 53.7129 126.2 53.6446 126.2C53.5763 126.2 53.5081 126.133 53.5081 126.067V117.867ZM65.3869 117.067C65.66 116.733 66.0696 116.533 66.4792 116.533H67.9811C69.0734 116.533 69.7561 117.8 69.0734 118.667L63.7484 125.667C63.4754 126 63.0657 126.2 62.6561 126.2H61.1542C60.0619 126.2 59.3792 124.933 60.0619 124.067L65.3869 117.067ZM74.8763 117.067C75.1494 116.733 75.559 116.533 75.9686 116.533H77.4706C78.5629 116.533 79.2456 117.8 78.5629 118.667L73.2379 125.667C72.9648 126 72.5552 126.2 72.1456 126.2H70.7119C69.6196 126.2 68.9369 124.933 69.6196 124.067L74.8763 117.067ZM84.5023 117.067C84.7754 116.733 85.185 116.533 85.5946 116.533H87.0965C88.2571 116.533 88.8715 117.8 88.1888 118.667L82.7956 125.667C82.5225 126 82.1129 126.2 81.7032 126.2H80.2696C79.1773 126.2 78.4946 124.933 79.1773 124.067L84.5023 117.067ZM93.9917 117.067C94.2648 116.733 94.6744 116.533 95.084 116.533H96.5859C97.6783 116.533 98.3609 117.8 97.6783 118.667L92.3533 125.667C92.0802 126 91.6706 126.2 91.2609 126.2H89.8273C88.735 126.2 88.0523 124.933 88.735 124.067L93.9917 117.067ZM100.75 124.867C100.75 125.6 100.136 126.2 99.385 126.2C98.2927 126.2 97.61 124.933 98.2927 124.067C99.0436 123 100.75 123.6 100.75 124.867Z" fill="white"/>
<path d="M22.9238 137.133C22.8555 137.933 22.5141 138.733 22.1045 139.4C21.6266 140.067 21.0122 140.667 20.3295 141.067C18.7593 140.6 17.1891 140.133 15.6189 139.533C14.7997 139.267 14.0488 138.933 13.2295 138.6C8.79203 136.8 4.6276 134.467 0.667988 131.733C0.394911 131 0.190103 130.267 0.0535647 129.467C-0.0829738 128.733 0.0535647 127.933 0.326642 127.2C0.667988 126.467 1.14587 125.867 1.82856 125.467C2.51126 125.133 3.12568 124.8 3.7401 124.4C5.03722 123.333 5.10549 121.333 4.4228 119.8C3.7401 118.267 2.51126 117 1.62376 115.6C0.736257 114.2 0.121834 112.4 0.872796 110.867C1.35068 109.933 2.23818 109.2 2.8526 108.267C3.94491 106.533 3.60356 104.267 3.19395 102.267C2.6478 99.5334 2.10164 96.8001 1.55549 94.0667C1.21414 92.2667 0.941065 90.2001 2.30645 88.9334C4.14972 87.2667 7.15357 88.6001 8.92857 90.2667C11.1132 92.2001 12.6834 94.6001 13.5026 97.3334C15.2093 103.267 12.2055 109.933 14.5949 115.667C16.1651 119.533 19.9199 122.133 21.7632 125.867C23.5382 129.467 23.4699 133.4 22.9238 137.133Z" fill="#004B50"/>
<path d="M30.9097 119.8C30.1588 121.333 29.6126 123.2 30.5001 124.6C30.978 125.133 31.4559 125.733 32.0021 126.2C33.9819 128.533 32.9578 132.066 31.3876 134.733C30.9097 135.4 30.6367 136.133 30.5001 136.933C30.4319 138.2 31.3876 139.266 32.1386 140.266C32.8896 141.266 33.504 142.533 32.9578 143.6C27.0184 142.933 21.2155 141.533 15.6174 139.6C14.7982 139.333 14.0472 139 13.228 138.666C13.0915 136.933 13.6376 135.066 14.3886 133.4C15.2078 131.6 16.4367 129.733 16.7097 127.733C16.9828 125.933 16.6415 124.2 17.2559 122.4C17.8021 120.6 18.7578 119 20.0549 117.6C21.3521 116.266 22.9222 115.2 24.7655 114.533C25.7896 114.2 26.9501 113.933 27.7011 113.2C28.2472 112.666 28.6569 112 28.9299 111.266C30.2953 108.333 31.729 105.333 33.0944 102.333C33.7088 101 34.5963 99.4665 36.0982 99.1998C37.2588 98.9998 38.4194 99.7998 39.0338 100.8C39.5799 101.866 39.7165 103.066 39.5799 104.2C38.8973 110.133 33.5722 114.466 30.9097 119.8Z" fill="#007867"/>
<defs>
<linearGradient id="paint0_linear_0_26478" x1="175.128" y1="76.9141" x2="44.5236" y2="63.5111" gradientUnits="userSpaceOnUse">
<stop stop-color="#00A66F"/>
<stop offset="1" stop-color="#007867"/>
</linearGradient>
</defs>
</svg>
