<svg width="20" height="20" viewBox="0 0 20 20" fill="none" xmlns="http://www.w3.org/2000/svg">
<path d="M10.0187 7.08522C10.2134 7.08484 10.4021 7.15266 10.5521 7.27689L15.5521 11.4436C15.9064 11.7381 15.9549 12.2642 15.6604 12.6186C15.3658 12.9729 14.8398 13.0214 14.4854 12.7269L10.0187 8.99356L5.55206 12.5936C5.3799 12.7334 5.15911 12.7988 4.93858 12.7753C4.71804 12.7519 4.51596 12.6415 4.37706 12.4686C4.22278 12.2953 4.14768 12.0657 4.16982 11.8348C4.19196 11.6039 4.30934 11.3926 4.49373 11.2519L9.49373 7.22689C9.64796 7.12229 9.83281 7.07241 10.0187 7.08522Z" fill="#212B36"/>
</svg>
