<svg width="20" height="20" viewBox="0 0 20 20" fill="none" xmlns="http://www.w3.org/2000/svg">
<path d="M9.9987 8.33329C11.8396 8.33329 13.332 6.84091 13.332 4.99996C13.332 3.15901 11.8396 1.66663 9.9987 1.66663C8.15775 1.66663 6.66536 3.15901 6.66536 4.99996C6.66536 6.84091 8.15775 8.33329 9.9987 8.33329Z" fill="#637381"/>
<path fill-rule="evenodd" clip-rule="evenodd" d="M13.7487 18.3333C12.3737 18.3333 11.6862 18.3333 11.2595 17.9058C10.832 17.4791 10.832 16.7916 10.832 15.4166C10.832 14.0416 10.832 13.3541 11.2595 12.9275C11.6862 12.5 12.3737 12.5 13.7487 12.5C15.1237 12.5 15.8112 12.5 16.2379 12.9275C16.6654 13.3541 16.6654 14.0416 16.6654 15.4166C16.6654 16.7916 16.6654 17.4791 16.2379 17.9058C15.8112 18.3333 15.1237 18.3333 13.7487 18.3333ZM14.2345 14.12C14.2345 13.9911 14.1833 13.8675 14.0922 13.7764C14.0011 13.6853 13.8775 13.6341 13.7487 13.6341C13.6198 13.6341 13.4963 13.6853 13.4052 13.7764C13.3141 13.8675 13.2629 13.9911 13.2629 14.12V14.9308H12.452C12.3232 14.9308 12.1996 14.982 12.1085 15.0731C12.0174 15.1642 11.9662 15.2878 11.9662 15.4166C11.9662 15.5455 12.0174 15.6691 12.1085 15.7602C12.1996 15.8513 12.3232 15.9025 12.452 15.9025H13.2629V16.7133C13.2629 16.8421 13.3141 16.9657 13.4052 17.0568C13.4963 17.1479 13.6198 17.1991 13.7487 17.1991C13.8775 17.1991 14.0011 17.1479 14.0922 17.0568C14.1833 16.9657 14.2345 16.8421 14.2345 16.7133V15.9025H15.0454C15.1742 15.9025 15.2978 15.8513 15.3889 15.7602C15.48 15.6691 15.5312 15.5455 15.5312 15.4166C15.5312 15.2878 15.48 15.1642 15.3889 15.0731C15.2978 14.982 15.1742 14.9308 15.0454 14.9308H14.2345V14.12Z" fill="#637381"/>
<path d="M13.0637 11.2525C12.6695 11.2566 12.302 11.2716 11.982 11.3141C11.4462 11.3866 10.8595 11.5583 10.3754 12.0433C9.89036 12.5275 9.7187 13.1141 9.64703 13.65C9.58203 14.1316 9.58203 14.72 9.58203 15.345V15.4883C9.58203 16.1133 9.58203 16.7016 9.64703 17.1833C9.69703 17.5591 9.79703 17.96 10.0195 18.3333H9.9987C3.33203 18.3333 3.33203 16.6541 3.33203 14.5833C3.33203 12.5125 6.31703 10.8333 9.9987 10.8333C11.1037 10.8333 12.1462 10.9841 13.0637 11.2525Z" fill="#637381"/>
</svg>
