<svg width="20" height="20" viewBox="0 0 20 20" fill="none" xmlns="http://www.w3.org/2000/svg">
<path d="M4.79297 0.833496C4.95873 0.833496 5.1177 0.899344 5.23491 1.01655C5.35212 1.13376 5.41797 1.29274 5.41797 1.4585V3.00016L6.8513 2.7135C8.22693 2.43826 9.65292 2.56913 10.9555 3.09016L11.1255 3.15766C12.4262 3.67812 13.8579 3.77551 15.2171 3.436C15.3646 3.39915 15.5184 3.39638 15.6671 3.4279C15.8157 3.45942 15.9552 3.5244 16.075 3.61791C16.1948 3.71141 16.2917 3.83098 16.3583 3.96754C16.425 4.1041 16.4596 4.25404 16.4596 4.406V10.5452C16.4596 11.0818 16.0938 11.5502 15.573 11.6802L15.3946 11.7243C13.9201 12.0931 12.3668 11.9879 10.9555 11.4235C9.65318 10.9026 8.22749 10.7717 6.85214 11.0468L5.41797 11.3335V18.1252C5.41797 18.2909 5.35212 18.4499 5.23491 18.5671C5.1177 18.6843 4.95873 18.7502 4.79297 18.7502C4.62721 18.7502 4.46824 18.6843 4.35103 18.5671C4.23382 18.4499 4.16797 18.2909 4.16797 18.1252V1.4585C4.16797 1.29274 4.23382 1.13376 4.35103 1.01655C4.46824 0.899344 4.62721 0.833496 4.79297 0.833496Z" fill="#00B8D9"/>
</svg>
