<svg width="24" height="24" viewBox="0 0 24 24" fill="none" xmlns="http://www.w3.org/2000/svg">
<path opacity="0.32" d="M4 9.95495V5C4 3.34315 5.34315 2 7 2H17C18.6568 2 20 3.34315 20 5V9.95495C20 10.6097 19.6819 11.2218 19.1343 11.5806C17.4417 12.6896 13.71 15 12 15C10.29 15 6.55835 12.6896 4.86571 11.5806C4.31808 11.2218 4 10.6097 4 9.95495Z" fill="#00A76F"/>
<path d="M4 6.251C3.4905 6.62919 3.04023 6.97507 2.67894 7.2576C2.07695 7.72835 1.69958 8.4226 1.64866 9.1851C1.57936 10.2227 1.5 11.9645 1.5 14.5C1.5 16.8978 1.64196 18.5858 1.7746 19.6396C1.88396 20.5085 2.46569 21.1975 3.32339 21.3746C4.69863 21.6585 7.3247 22 12 22C16.6753 22 19.3014 21.6585 20.6766 21.3746C21.5343 21.1975 22.1161 20.5085 22.2254 19.6396C22.3581 18.5858 22.5 16.8978 22.5 14.5C22.5 11.9645 22.4207 10.2227 22.3514 9.1851C22.3004 8.4226 21.923 7.72835 21.3211 7.2576C20.9598 6.97507 20.5095 6.62919 20 6.251V9.95495C20 10.6097 19.6819 11.2218 19.1343 11.5806C17.4417 12.6896 13.71 15 12 15C10.29 15 6.55835 12.6896 4.86571 11.5806C4.31808 11.2218 4 10.6097 4 9.95495V6.251Z" fill="#00A76F"/>
<path d="M7 5.75C7 5.3358 7.3358 5 7.75 5H12.25C12.6642 5 13 5.3358 13 5.75C13 6.1642 12.6642 6.5 12.25 6.5H7.75C7.3358 6.5 7 6.1642 7 5.75Z" fill="#00A76F"/>
<path d="M7 9.25C7 8.8358 7.3358 8.5 7.75 8.5H15.25C15.6642 8.5 16 8.8358 16 9.25C16 9.6642 15.6642 10 15.25 10H7.75C7.3358 10 7 9.6642 7 9.25Z" fill="#00A76F"/>
</svg>
