<svg width="48" height="48" viewBox="0 0 48 48" fill="none" xmlns="http://www.w3.org/2000/svg">
<mask id="mask0_0_22531" style="mask-type:luminance" maskUnits="userSpaceOnUse" x="-8" y="-8" width="64" height="64">
<rect x="-8" y="-8" width="64" height="64" fill="white"/>
</mask>
<g mask="url(#mask0_0_22531)">
<rect x="40.875" y="22.1323" width="6.25" height="5.625" fill="#007867"/>
<path fill-rule="evenodd" clip-rule="evenodd" d="M1.57637 24.374L20.3475 15.0289C21.416 14.4969 22.6722 14.5003 23.7379 15.038L46.4297 26.4876C47.0528 26.802 47.3035 27.563 46.9898 28.1873C46.87 28.4257 46.6781 28.62 46.4415 28.7425L27.4379 38.5835C26.3319 39.1562 25.0158 39.1481 23.917 38.5618L1.54471 26.6247C0.928946 26.2961 0.695577 25.5296 1.02347 24.9126C1.14723 24.6797 1.34055 24.4914 1.57637 24.374Z" fill="#004B50"/>
<path fill-rule="evenodd" clip-rule="evenodd" d="M25.25 34.7079V37.8529C25.25 38.3227 24.8691 38.7036 24.3993 38.7036C24.2879 38.7036 24.1779 38.6817 24.0754 38.6395L24 38.6041L23.9999 32.941C24.749 33.2054 25.25 33.9135 25.25 34.7079ZM1.5 20.9785L24 32.941V38.6041L1.49987 26.6398L1.49937 26.6253L1.41384 26.5753C1.07981 26.3596 0.875 25.9877 0.875 25.5855V19.6322L1.5 20.9785Z" fill="#007867"/>
<path d="M1.57637 18.749L20.3475 9.40391C21.416 8.87194 22.6722 8.87532 23.7379 9.41303L46.4297 20.8626C47.0528 21.177 47.3035 21.938 46.9898 22.5623C46.87 22.8007 46.6781 22.995 46.4415 23.1175L27.4379 32.9585C26.3319 33.5312 25.0158 33.5231 23.917 32.9368L1.54471 20.9997C0.928946 20.6711 0.695577 19.9046 1.02347 19.2876C1.14723 19.0547 1.34055 18.8664 1.57637 18.749Z" fill="#00A76F"/>
</g>
</svg>
