<svg width="16" height="16" viewBox="0 0 16 16" fill="none" xmlns="http://www.w3.org/2000/svg">
<path d="M14.0004 7.99999C14.0004 7.6318 13.7019 7.33333 13.3337 7.33333C12.9655 7.33333 12.667 7.6318 12.667 7.99999V9.53333L9.84035 6.19999C9.62967 5.95374 9.27242 5.89467 8.99369 6.05999L6.14702 7.79999L3.18035 4.23999C3.02792 4.0566 2.78923 3.96845 2.55418 4.00877C2.31914 4.04908 2.12346 4.21172 2.04085 4.43543C1.95824 4.65914 2.00125 4.90993 2.15369 5.09333L5.48702 9.09333C5.69669 9.34541 6.05855 9.4076 6.34035 9.23999L9.19369 7.52666L11.8604 10.6667H10.0004C9.63216 10.6667 9.33369 10.9651 9.33369 11.3333C9.33369 11.7015 9.63216 12 10.0004 12H13.3337C13.4157 11.998 13.4969 11.9822 13.5737 11.9533L13.667 11.9C13.7018 11.8825 13.7352 11.8624 13.767 11.84C13.8035 11.807 13.835 11.7688 13.8604 11.7267C13.8827 11.6971 13.9027 11.6659 13.9204 11.6333C13.9367 11.5973 13.9479 11.5591 13.9537 11.52C13.9807 11.4612 13.9965 11.3979 14.0004 11.3333V7.99999Z" fill="#22C55E"/>
</svg>
