<svg width="608" height="200" viewBox="0 0 608 200" fill="none" xmlns="http://www.w3.org/2000/svg">
<path d="M0 63C0 60.7909 1.79086 59 4 59C6.20914 59 8 60.7909 8 63V200H0V63Z" fill="#00A76F"/>
<path d="M100 104C100 101.791 101.791 100 104 100C106.209 100 108 101.791 108 104V200H100V104Z" fill="#00A76F"/>
<path d="M200 84C200 81.7909 201.791 80 204 80C206.209 80 208 81.7909 208 84V200H200V84Z" fill="#00A76F"/>
<path d="M300 63C300 60.7909 301.791 59 304 59C306.209 59 308 60.7909 308 63V200H300V63Z" fill="#00A76F"/>
<path d="M400 84C400 81.7909 401.791 80 404 80C406.209 80 408 81.7909 408 84V200H400V84Z" fill="#00A76F"/>
<path d="M500 4C500 1.79086 501.791 0 504 0C506.209 0 508 1.79086 508 4V200H500V4Z" fill="#00A76F"/>
<path d="M600 99C600 96.7909 601.791 95 604 95C606.209 95 608 96.7909 608 99V200H600V99Z" fill="#00A76F"/>
</svg>
