<svg width="132" height="132" viewBox="0 0 132 132" fill="none" xmlns="http://www.w3.org/2000/svg">
<path fill-rule="evenodd" clip-rule="evenodd" d="M77.8796 30.36C77.8796 36.9211 72.5608 42.24 65.9996 42.24C59.4385 42.24 54.1196 36.9211 54.1196 30.36C54.1196 23.7988 59.4385 18.48 65.9996 18.48C72.5608 18.48 77.8796 23.7988 77.8796 30.36ZM66.9896 29.37H70.9496C71.4964 29.37 71.9396 29.8132 71.9396 30.36C71.9396 30.9067 71.4964 31.35 70.9496 31.35H66.9896V35.31C66.9896 35.8567 66.5464 36.3 65.9996 36.3C65.4529 36.3 65.0096 35.8567 65.0096 35.31V31.35H61.0496C60.5029 31.35 60.0596 30.9067 60.0596 30.36C60.0596 29.8132 60.5029 29.37 61.0496 29.37H65.0096V25.41C65.0096 24.8632 65.4529 24.42 65.9996 24.42C66.5464 24.42 66.9896 24.8632 66.9896 25.41V29.37Z" fill="#919EAB"/>
<path opacity="0.24" d="M80.7838 57.1488C90.1152 57.1488 97.6798 63.879 97.6798 72.1811V98.4876C97.6798 106.79 90.1152 113.52 80.7838 113.52H51.2158C41.8844 113.52 34.3198 106.79 34.3198 98.4876V72.1811C34.3198 63.879 41.8844 57.1488 51.2158 57.1488H55.4398L64.6805 50.5717C65.4347 50.0349 66.4993 50.0229 67.2673 50.5359L67.3192 50.5717L76.5598 57.1488H80.7838Z" fill="#919EAB"/>
<rect opacity="0.48" x="42.2397" y="75.24" width="31.68" height="6.6" rx="3.3" fill="#919EAB"/>
<rect opacity="0.24" x="42.2397" y="99" width="31.68" height="6.6" rx="3.3" fill="#919EAB"/>
<rect opacity="0.24" x="42.2397" y="87.1201" width="47.52" height="6.6" rx="3.3" fill="#919EAB"/>
</svg>
