<svg width="132" height="132" viewBox="0 0 132 132" fill="none" xmlns="http://www.w3.org/2000/svg">
<path d="M76.4846 85.5359H50.0443C49.1045 85.5359 48.2561 86.0974 47.8879 86.962L42.9072 98.6488C42.5384 99.5141 41.6899 100.075 40.7508 100.075H30.7064C29.0101 100.075 27.8753 98.3268 28.5639 96.7748L56.5897 33.6205C56.9661 32.7729 57.8057 32.2266 58.7322 32.2266H67.8834C68.81 32.2266 69.6496 32.7729 70.026 33.6205L98.0518 96.7748C98.7404 98.3268 97.6056 100.075 95.9093 100.075H85.8554C84.9214 100.075 84.0761 99.5197 83.7047 98.6615L78.6359 86.95C78.2639 86.0917 77.4186 85.5359 76.4846 85.5359ZM53.1423 73.9051H73.3764L63.3082 49.2855L53.1423 73.9051Z" fill="#919EAB"/>
<path opacity="0.24" d="M107.991 31.0207C108.668 31.0207 109.218 31.5702 109.218 32.2489V100.092C109.218 100.77 108.668 101.32 107.991 101.32H100.238C99.5599 101.32 99.011 100.77 99.011 100.092C99.011 99.4135 99.5605 98.8633 100.238 98.8633H106.764V84.4252H102.903C102.225 84.4252 101.676 83.8751 101.676 83.197C101.676 82.5183 102.225 81.9682 102.903 81.9682H106.764V67.3681H100.222C99.5448 67.3681 98.9953 66.8186 98.9953 66.1399C98.9953 66.1286 98.9972 66.1172 98.9972 66.1053L98.9953 66.0712C98.9953 65.3926 99.5448 64.8431 100.222 64.8431H106.764V50.502H102.903C102.225 50.502 101.676 49.9518 101.676 49.2732C101.676 48.5951 102.225 48.045 102.903 48.045H106.764V33.477H100.238C99.5599 33.477 99.011 32.9269 99.011 32.2489C99.011 31.5702 99.5605 31.0207 100.238 31.0207H107.991ZM77.6326 98.7902C78.3098 98.7902 78.8593 99.3397 78.8593 100.018C78.8593 100.678 78.3391 101.217 77.6872 101.245L77.6326 101.247H76.4877C75.8098 101.247 75.2609 100.696 75.2609 100.018C75.2609 99.3397 75.8098 98.7902 76.4877 98.7902H77.6326ZM72.3976 98.7902C73.0755 98.7902 73.625 99.3397 73.625 100.018C73.625 100.678 73.1048 101.217 72.4523 101.245L72.3976 101.247H71.2527C70.5755 101.247 70.026 100.696 70.026 100.018C70.026 99.3397 70.5755 98.7902 71.2527 98.7902H72.3976ZM67.1633 98.7902C67.8406 98.7902 68.3901 99.3397 68.3901 100.018C68.3901 100.678 67.8705 101.217 67.218 101.245L67.1633 101.247H66.0184C65.3405 101.247 64.7917 100.696 64.7917 100.018C64.7917 99.3397 65.3405 98.7902 66.0184 98.7902H67.1633ZM61.929 98.7902C62.6063 98.7902 63.1558 99.3397 63.1558 100.018C63.1558 100.678 62.6356 101.217 61.9837 101.245L61.929 101.247H60.7841C60.1062 101.247 59.5574 100.696 59.5574 100.018C59.5574 99.3397 60.1062 98.7902 60.7841 98.7902H61.929ZM56.6941 98.7902C57.372 98.7902 57.9215 99.3397 57.9215 100.018C57.9215 100.678 57.4013 101.217 56.7488 101.245L56.6941 101.247H55.5492C54.8719 101.247 54.3224 100.696 54.3224 100.018C54.3224 99.3397 54.8719 98.7902 55.5492 98.7902H56.6941ZM51.4598 98.7902C52.1371 98.7902 52.6866 99.3397 52.6866 100.018C52.6866 100.678 52.1664 101.217 51.5144 101.245L51.4598 101.247H50.3149C49.637 101.247 49.0881 100.696 49.0881 100.018C49.0881 99.3397 49.637 98.7902 50.3149 98.7902H51.4598ZM46.2255 98.7902C46.9028 98.7902 47.4522 99.3397 47.4522 100.018C47.4522 100.678 46.9321 101.217 46.2801 101.245L46.2255 101.247H45.0806C44.4027 101.247 43.8538 100.696 43.8538 100.018C43.8538 99.3397 44.4027 98.7902 45.0806 98.7902H46.2255ZM51.1539 72.6142C51.8312 72.6142 52.3806 73.1637 52.3806 73.8423C52.3806 74.5204 51.8312 75.0705 51.1539 75.0705H50.0083C49.3311 75.0705 48.7816 74.5204 48.7816 73.8423C48.7816 73.1637 49.3311 72.6142 50.0083 72.6142H51.1539ZM45.919 72.6142C46.5969 72.6142 47.1463 73.1637 47.1463 73.8423C47.1463 74.5204 46.5969 75.0705 45.919 75.0705H44.774C44.0968 75.0705 43.5473 74.5204 43.5473 73.8423C43.5473 73.1637 44.0968 72.6142 44.774 72.6142H45.919ZM40.6847 72.6142C41.3626 72.6142 41.9114 73.1637 41.9114 73.8423C41.9114 74.5204 41.3626 75.0705 40.6847 75.0705H39.5397C38.8618 75.0705 38.313 74.5204 38.313 73.8423C38.313 73.1637 38.8618 72.6142 39.5397 72.6142H40.6847ZM35.4504 72.6142C36.1276 72.6142 36.6771 73.1637 36.6771 73.8423C36.6771 74.5204 36.1276 75.0705 35.4504 75.0705H34.3048C33.6275 75.0705 33.0781 74.5204 33.0781 73.8423C33.0781 73.1637 33.6275 72.6142 34.3048 72.6142H35.4504ZM30.2154 72.6142C30.8933 72.6142 31.4428 73.1637 31.4428 73.8423C31.4428 74.5204 30.8933 75.0705 30.2154 75.0705H29.0705C28.3932 75.0705 27.8438 74.5204 27.8438 73.8423C27.8438 73.1637 28.3932 72.6142 29.0705 72.6142H30.2154ZM96.1862 30.9375C96.8634 30.9375 97.4129 31.4876 97.4129 32.1657C97.4129 32.8444 96.8634 33.3938 96.1862 33.3938H95.0412C94.3633 33.3938 93.8145 32.8444 93.8145 32.1657C93.8145 31.4876 94.3633 30.9375 95.0412 30.9375H96.1862ZM90.9519 30.9375C91.6291 30.9375 92.1786 31.4876 92.1786 32.1657C92.1786 32.8444 91.6291 33.3938 90.9519 33.3938H89.8063C89.129 33.3938 88.5795 32.8444 88.5795 32.1657C88.5795 31.4876 89.129 30.9375 89.8063 30.9375H90.9519ZM85.7169 30.9375C86.3948 30.9375 86.9443 31.4876 86.9443 32.1657C86.9443 32.8444 86.3948 33.3938 85.7169 33.3938H84.572C83.8947 33.3938 83.3452 32.8444 83.3452 32.1657C83.3452 31.4876 83.8941 30.9375 84.572 30.9375H85.7169ZM80.4826 30.9375C81.1599 30.9375 81.7094 31.4876 81.7094 32.1657C81.7094 32.8444 81.1599 33.3938 80.4826 33.3938H79.3377C78.6598 33.3938 78.1109 32.8444 78.1109 32.1657C78.1109 31.4876 78.6598 30.9375 79.3377 30.9375H80.4826ZM75.2483 30.9375C75.9256 30.9375 76.4751 31.4876 76.4751 32.1657C76.4751 32.8444 75.9256 33.3938 75.2483 33.3938H74.1028C73.4255 33.3938 72.876 32.8444 72.876 32.1657C72.876 31.4876 73.4255 30.9375 74.1028 30.9375H75.2483ZM70.0134 30.9375C70.6913 30.9375 71.2408 31.4876 71.2408 32.1657C71.2408 32.8444 70.6913 33.3938 70.0134 33.3938H68.8685C68.1912 33.3938 67.6417 32.8444 67.6417 32.1657C67.6417 31.4876 68.1912 30.9375 68.8685 30.9375H70.0134ZM64.7791 30.9375C65.4563 30.9375 66.0058 31.4876 66.0058 32.1657C66.0058 32.8444 65.4563 33.3938 64.7791 33.3938H63.6342C62.9563 33.3938 62.4074 32.8444 62.4074 32.1657C62.4074 31.4876 62.9563 30.9375 63.6342 30.9375H64.7791ZM59.5448 30.9375C60.222 30.9375 60.7715 31.4876 60.7715 32.1657C60.7715 32.8444 60.222 33.3938 59.5448 33.3938H58.3992C57.722 33.3938 57.1725 32.8444 57.1725 32.1657C57.1725 31.4876 57.722 30.9375 58.3992 30.9375H59.5448Z" fill="#919EAB"/>
</svg>
