<svg width="40" height="36" viewBox="0 0 40 36" fill="none" xmlns="http://www.w3.org/2000/svg">
<path d="M39.9996 20.8848L34.1408 14.5017C33.7102 14.0321 33.1023 13.7648 32.4652 13.7649H25.1916L25.1914 31.2414H27.9736C27.9736 29.0433 29.7555 27.2614 31.9536 27.2614C34.1517 27.2614 35.9337 29.0433 35.9337 31.2414H37.7248C38.3281 31.2415 38.9067 31.0019 39.3333 30.5753C39.7599 30.1487 39.9995 29.5701 39.9994 28.9668L39.9996 20.8848Z" fill="#FFAB00"/>
<circle cx="31.9527" cy="31.2413" r="3.98002" fill="#B76E00"/>
<path fill-rule="evenodd" clip-rule="evenodd" d="M25.1916 20.8848V31.2414H13.0783C13.0783 29.043 11.2962 27.2609 9.0978 27.2609C6.89943 27.2609 5.11731 29.043 5.11731 31.2414H2.27457C1.67128 31.2415 1.09268 31.0019 0.666096 30.5753C0.23951 30.1487 -9.88115e-05 29.5701 3.05681e-08 28.9668V9.97671C-9.88115e-05 9.37343 0.23951 8.79483 0.666096 8.36824C1.09268 7.94166 1.67128 7.70205 2.27457 7.70215H4.74194C4.88379 11.7125 8.17594 14.8902 12.1888 14.8902C16.2016 14.8902 19.4937 11.7125 19.6356 7.70215H22.917C24.1732 7.70225 25.1915 8.72055 25.1916 9.97671V20.8848Z" fill="#FFD666"/>
<path fill-rule="evenodd" clip-rule="evenodd" d="M19.6412 7.45148C19.6412 7.53531 19.6403 7.61914 19.6366 7.70204C19.4947 11.7124 16.2026 14.8901 12.1898 14.8901C8.17694 14.8901 4.88479 11.7124 4.74294 7.70204C4.73921 7.61914 4.73828 7.53531 4.73828 7.45148C4.73828 3.33614 8.07442 0 12.1898 0C16.3051 0 19.6412 3.33614 19.6412 7.45148Z" fill="#61F3F3"/>
<path fill-rule="evenodd" clip-rule="evenodd" d="M9.09721 27.2612C11.2953 27.2612 13.0772 29.0431 13.0772 31.2413C13.0772 33.4394 11.2953 35.2213 9.09721 35.2213C6.8991 35.2213 5.11719 33.4394 5.11719 31.2413C5.11724 29.0432 6.89913 27.2613 9.09721 27.2612Z" fill="#B76E00"/>
<path fill-rule="evenodd" clip-rule="evenodd" d="M14.6759 10.4322C14.5104 10.4324 14.351 10.3694 14.2304 10.2561L11.7434 7.92754C11.6118 7.80425 11.5371 7.63194 11.5371 7.45158V2.61929C11.5371 2.2592 11.829 1.96729 12.1891 1.96729C12.5492 1.96729 12.8411 2.2592 12.8411 2.61929V7.16935L15.1216 9.30467C15.317 9.48758 15.3808 9.77132 15.2824 10.0202C15.1841 10.2691 14.9436 10.4327 14.676 10.4326L14.6759 10.4322Z" fill="#006C9C"/>
</svg>
