<svg width="132" height="132" viewBox="0 0 132 132" fill="none" xmlns="http://www.w3.org/2000/svg">
<g filter="url(#filter0_di_0_18883)">
<rect x="48.8398" y="23.76" width="54.12" height="63.36" rx="12" fill="#00A76F"/>
</g>
<path d="M58.4582 92.0706C50.4041 92.0706 43.8486 85.4978 43.8486 77.4225V42.0957H37.8332C32.6184 42.0957 28.3799 46.3448 28.3799 51.5733V98.1018C28.3799 103.33 32.6184 107.58 37.8332 107.58H80.8015C86.0163 107.58 90.2549 103.33 90.2549 98.1018V92.0706H58.4582Z" fill="white"/>
<path opacity="0.12" d="M58.4582 92.0706C50.4041 92.0706 43.8486 85.4978 43.8486 77.4225V42.0957H37.8332C32.6184 42.0957 28.3799 46.3448 28.3799 51.5733V98.1018C28.3799 103.33 32.6184 107.58 37.8332 107.58H80.8015C86.0163 107.58 90.2549 103.33 90.2549 98.1018V92.0706H58.4582Z" fill="#007867"/>
<defs>
<filter id="filter0_di_0_18883" x="40.8398" y="15.76" width="86.1201" height="95.3601" filterUnits="userSpaceOnUse" color-interpolation-filters="sRGB">
<feFlood flood-opacity="0" result="BackgroundImageFix"/>
<feColorMatrix in="SourceAlpha" type="matrix" values="0 0 0 0 0 0 0 0 0 0 0 0 0 0 0 0 0 0 127 0" result="hardAlpha"/>
<feOffset dx="8" dy="8"/>
<feGaussianBlur stdDeviation="8"/>
<feColorMatrix type="matrix" values="0 0 0 0 0 0 0 0 0 0.470588 0 0 0 0 0.403922 0 0 0 0.16 0"/>
<feBlend mode="normal" in2="BackgroundImageFix" result="effect1_dropShadow_0_18883"/>
<feBlend mode="normal" in="SourceGraphic" in2="effect1_dropShadow_0_18883" result="shape"/>
<feColorMatrix in="SourceAlpha" type="matrix" values="0 0 0 0 0 0 0 0 0 0 0 0 0 0 0 0 0 0 127 0" result="hardAlpha"/>
<feOffset dx="-2" dy="-2"/>
<feGaussianBlur stdDeviation="2"/>
<feComposite in2="hardAlpha" operator="arithmetic" k2="-1" k3="1"/>
<feColorMatrix type="matrix" values="0 0 0 0 0 0 0 0 0 0.470588 0 0 0 0 0.403922 0 0 0 0.48 0"/>
<feBlend mode="normal" in2="shape" result="effect2_innerShadow_0_18883"/>
</filter>
</defs>
</svg>
