<svg width="48" height="48" viewBox="0 0 48 48" fill="none" xmlns="http://www.w3.org/2000/svg">
<path opacity="0.48" d="M9.04688 27.4V13.2992C9.04688 8.55495 12.8835 4.70898 17.6162 4.70898H12.3984C7.6522 4.70898 3.80469 8.55649 3.80469 13.3027V27.3965C3.80469 32.1426 7.6522 35.9902 12.3984 35.9902H17.6162C12.8835 35.9902 9.04688 32.1443 9.04688 27.4Z" fill="#00B8D9"/>
<path d="M32.25 44.584H15.75C13.472 44.4995 13.4737 41.2302 15.75 41.1465H32.25C34.528 41.231 34.5263 44.5003 32.25 44.584ZM35.6875 37.709H12.3107C6.62541 37.709 2 33.0837 2 27.3983V13.3027C2 7.61642 6.62619 2.99023 12.3125 2.99023H35.6875C41.3738 2.99023 46 7.61642 46 13.3027V27.3965C46 33.0828 41.3738 37.709 35.6875 37.709ZM12.3125 6.42773C8.52163 6.42773 5.4375 9.51186 5.4375 13.3027V27.3983C5.4375 31.1881 8.52085 34.2715 12.3107 34.2715H35.6875C39.4784 34.2715 42.5625 31.1874 42.5625 27.3965V13.3027C42.5625 9.51186 39.4784 6.42773 35.6875 6.42773H12.3125Z" fill="#003768"/>
<path d="M22.1105 29.0297C21.9532 29.0297 21.7935 29.008 21.6347 28.9624C20.7225 28.7001 20.1955 27.748 20.4578 26.8357L24.4109 13.0857C24.6733 12.1734 25.6256 11.6469 26.5377 11.9088C27.4499 12.1711 27.9769 13.1232 27.7146 14.0355L23.7615 27.7855C23.5448 28.539 22.8573 29.0297 22.1105 29.0297ZM32.4222 27.3106C31.9777 27.3106 31.5335 27.1393 31.1972 26.7974C30.5313 26.1208 30.54 25.0326 31.2166 24.3668L34.5816 21.0551C34.9159 20.6941 34.916 20.2198 34.5789 19.8587L31.2083 16.4961C30.5363 15.8256 30.5351 14.7374 31.2055 14.0654C31.876 13.3933 32.9642 13.3922 33.6362 14.0625L37.0064 17.4247C38.6748 19.0208 38.6748 21.8961 37.0059 23.4922C37.0034 23.4948 37.0007 23.4975 36.998 23.5001L33.6278 26.8169C33.293 27.1462 32.8575 27.3106 32.4222 27.3106ZM15.7502 27.3106C15.3149 27.3106 14.8794 27.1462 14.5446 26.8168L11.1744 23.5C11.1717 23.4974 11.1691 23.4948 11.1665 23.4921C9.49751 21.8956 9.4976 19.0207 11.1665 17.4244L14.5363 14.0625C15.2083 13.3921 16.2965 13.3935 16.9669 14.0654C17.6373 14.7374 17.6361 15.8256 16.9641 16.4961L13.5939 19.8583C13.2567 20.2193 13.256 20.6934 13.5907 21.0551L16.9558 24.3668C17.6324 25.0326 17.641 26.1208 16.9752 26.7974C16.6388 27.1392 16.1945 27.3106 15.7502 27.3106Z" fill="#00B8D9"/>
</svg>
