<svg width="18" height="18" viewBox="0 0 18 18" fill="none" xmlns="http://www.w3.org/2000/svg">
<path d="M16.5 6.456V12.5625C16.5 13.1851 16.2618 13.7841 15.8342 14.2367C15.4067 14.6892 14.8221 14.961 14.2005 14.9963L14.0625 15H3.9375C3.3149 15 2.71588 14.7618 2.26333 14.3342C1.81078 13.9067 1.539 13.3221 1.50375 12.7005L1.5 12.5625V6.456L8.739 10.248C8.81953 10.2902 8.90909 10.3122 9 10.3122C9.09091 10.3122 9.18047 10.2902 9.261 10.248L16.5 6.456ZM3.9375 3H14.0625C14.6667 2.99993 15.2494 3.22425 15.6975 3.62945C16.1457 4.03465 16.4274 4.59186 16.488 5.193L9 9.1155L1.512 5.193C1.57014 4.61573 1.83229 4.07814 2.25131 3.67685C2.67034 3.27556 3.21876 3.03689 3.798 3.00375L3.9375 3Z" fill="#00A76F"/>
</svg>
