<svg width="80" height="32" viewBox="0 0 80 32" fill="none" xmlns="http://www.w3.org/2000/svg">
<path d="M0 0V2.18182H15.5455V0H0ZM17.8182 0V2.18182H40C40 2.18182 37.7273 0 34.7273 0H17.8182ZM44.3636 0V2.18182H57.8182L56.9091 0H44.3636ZM67.3636 0L66.5455 2.18182H79.8182V0H67.3636ZM0 4.27273V6.45455H15.5455V4.27273H0ZM17.8182 4.27273V6.45455H42.5455C42.5455 6.45455 42.2727 4.72727 41.7273 4.27273H17.8182ZM44.3636 4.27273V6.45455H59.2727L58.5455 4.27273H44.3636ZM65.8182 4.27273L65.0909 6.45455H79.9091V4.27273H65.8182ZM4.45455 8.54545V10.7273H11.1818V8.54545H4.45455ZM22.2727 8.54545V10.7273H29V8.54545H22.2727ZM35.5455 8.54545V10.7273H42.2727C42.2727 10.7273 42.7273 9.54545 42.7273 8.54545H35.5455ZM48.8182 8.54545V10.7273H60.8182L60 8.54545H48.8182ZM64.2727 8.54545L63.4545 10.7273H75.4546V8.54545H64.2727ZM4.45455 12.8182V15H11.1818V12.8182H4.45455ZM22.2727 12.8182V15H39.4545C39.4545 15 40.9091 13.9091 41.3636 12.8182H22.2727ZM48.8182 12.8182V15H55.5455V13.8182L56 15H68.3636L68.8182 13.8182V15H75.5455V12.8182H62.9091L62.2727 14.6364L61.6364 12.8182H48.8182ZM4.45455 17V19.1818H11.1818V17H4.45455ZM22.2727 17V19.1818H41.3636C40.9091 18.0909 39.4545 17 39.4545 17H22.2727ZM48.8182 17V19.1818H55.5455V17H48.8182ZM56.7273 17L57.5455 19.1818H66.8182L67.6364 17H56.7273ZM68.8182 17V19.1818H75.5455V17H68.8182ZM4.45455 21.2727V23.4545H11.1818V21.2727H4.45455ZM22.2727 21.2727V23.4545H29V21.2727H22.2727ZM35.5455 21.2727V23.4545H42.7273C42.7273 22.4545 42.2727 21.2727 42.2727 21.2727H35.5455ZM48.8182 21.2727V23.4545H55.5455V21.2727H48.8182ZM58.2727 21.2727L59.0909 23.4545H65.2727L66.0909 21.2727H58.2727ZM68.8182 21.2727V23.4545H75.5455V21.2727H68.8182ZM0.0909091 25.5455V27.7273H15.6364V25.5455H0.0909091ZM17.8182 25.5455V27.7273H41.8182C42.3636 27.1818 42.6364 25.5455 42.6364 25.5455H17.8182ZM44.4545 25.5455V27.7273H55.5455V25.5455H44.4545ZM59.8182 25.5455L60.6364 27.7273H63.8182L64.5455 25.5455H59.8182ZM68.8182 25.5455V27.7273H80V25.5455H68.8182ZM0.0909091 29.8182V32H15.6364V29.8182H0.0909091ZM17.8182 29.8182V32H34.7273C37.7273 32 40 29.8182 40 29.8182H17.8182ZM44.4545 29.8182V32H55.5455V29.8182H44.4545ZM61.3636 29.8182L62.1818 32H62.2727L63.0909 29.8182H61.3636ZM68.8182 29.8182V32H80V29.8182H68.8182Z" fill="white"/>
</svg>
