<svg width="20" height="20" viewBox="0 0 20 20" fill="none" xmlns="http://www.w3.org/2000/svg">
<g opacity="0.48">
<path fill-rule="evenodd" clip-rule="evenodd" d="M18.3337 9.99996C18.3337 14.6025 14.6028 18.3333 10.0003 18.3333C5.39783 18.3333 1.66699 14.6025 1.66699 9.99996C1.66699 5.39746 5.39783 1.66663 10.0003 1.66663C14.6028 1.66663 18.3337 5.39746 18.3337 9.99996ZM7.47533 7.47496C7.59251 7.35792 7.75137 7.29218 7.91699 7.29218C8.08262 7.29218 8.24147 7.35792 8.35866 7.47496L10.0003 9.11663L11.642 7.47496C11.7605 7.36456 11.9172 7.30446 12.0791 7.30731C12.241 7.31017 12.3955 7.37576 12.51 7.49027C12.6245 7.60479 12.6901 7.75927 12.693 7.92119C12.6958 8.08311 12.6357 8.23981 12.5253 8.35829L10.8837 9.99996L12.5253 11.6416C12.6357 11.7601 12.6958 11.9168 12.693 12.0787C12.6901 12.2406 12.6245 12.3951 12.51 12.5096C12.3955 12.6242 12.241 12.6897 12.0791 12.6926C11.9172 12.6955 11.7605 12.6354 11.642 12.525L10.0003 10.8833L8.35866 12.525C8.24018 12.6354 8.08348 12.6955 7.92156 12.6926C7.75964 12.6897 7.60515 12.6242 7.49064 12.5096C7.37613 12.3951 7.31054 12.2406 7.30768 12.0787C7.30482 11.9168 7.36493 11.7601 7.47533 11.6416L9.11699 9.99996L7.47533 8.35829C7.35828 8.24111 7.29254 8.08225 7.29254 7.91663C7.29254 7.751 7.35828 7.59215 7.47533 7.47496Z" fill="white"/>
</g>
</svg>
