<svg width="598" height="200" viewBox="0 0 598 200" fill="none" xmlns="http://www.w3.org/2000/svg">
<path d="M0 117C0 114.791 1.79086 113 4 113C6.20914 113 8 114.791 8 117V200H0V117Z" fill="#00A76F"/>
<path d="M12 136C12 133.791 13.7909 132 16 132C18.2091 132 20 133.791 20 136V200H12V136Z" fill="#FFAB00"/>
<path d="M96.334 70C96.334 67.7909 98.1248 66 100.334 66C102.543 66 104.334 67.7909 104.334 70V200H96.334V70Z" fill="#00A76F"/>
<path d="M108.334 105C108.334 102.791 110.125 101 112.334 101C114.543 101 116.334 102.791 116.334 105V200H108.334V105Z" fill="#FFAB00"/>
<path d="M192.666 148C192.666 145.791 194.457 144 196.666 144C198.875 144 200.666 145.791 200.666 148V200H192.666V148Z" fill="#00A76F"/>
<path d="M204.666 116C204.666 113.791 206.457 112 208.666 112C210.875 112 212.666 113.791 212.666 116V200H204.666V116Z" fill="#FFAB00"/>
<path d="M289 105C289 102.791 290.791 101 293 101C295.209 101 297 102.791 297 105V200H289V105Z" fill="#00A76F"/>
<path d="M301 132C301 129.791 302.791 128 305 128C307.209 128 309 129.791 309 132V200H301V132Z" fill="#FFAB00"/>
<path d="M385.334 97C385.334 94.7909 387.125 93 389.334 93C391.543 93 393.334 94.7909 393.334 97V200H385.334V97Z" fill="#00A76F"/>
<path d="M397.334 162C397.334 159.791 399.125 158 401.334 158C403.543 158 405.334 159.791 405.334 162V200H397.334V162Z" fill="#FFAB00"/>
<path d="M481.666 98C481.666 95.7909 483.457 94 485.666 94C487.875 94 489.666 95.7909 489.666 98V200H481.666V98Z" fill="#00A76F"/>
<path d="M493.666 181C493.666 178.791 495.457 177 497.666 177C499.875 177 501.666 178.791 501.666 181V200H493.666V181Z" fill="#FFAB00"/>
<path d="M578 4C578 1.79086 579.791 0 582 0C584.209 0 586 1.79086 586 4V200H578V4Z" fill="#00A76F"/>
<path d="M590 80C590 77.7909 591.791 76 594 76C596.209 76 598 77.7909 598 80V200H590V80Z" fill="#FFAB00"/>
</svg>
