<svg width="182" height="171" viewBox="0 0 182 171" fill="none" xmlns="http://www.w3.org/2000/svg">
<g opacity="0.8">
<path d="M77.3488 32.3413C92.5559 32.3413 107.277 37.6992 118.926 47.4742L77.3488 97.0241V32.3413Z" fill="#00A76F"/>
<path d="M145.654 15.6206C164.793 31.6795 177.661 53.9679 181.999 78.5715L77.3488 97.0241L145.654 15.6206Z" fill="#B76E00"/>
<path d="M172.899 80.1759C176.86 102.64 172.78 125.781 161.374 145.536L77.3488 97.0239L172.899 80.1759Z" fill="#5119B7"/>
<path d="M145.369 136.296C136.137 152.288 121.564 164.515 104.212 170.831L77.3488 97.0242L145.369 136.296Z" fill="#FF5630"/>
<path d="M101.053 162.148C85.7427 167.72 68.9581 167.72 53.6474 162.148L77.3504 97.0242L101.053 162.148Z" fill="#006C9C"/>
<path d="M61.55 140.44C51.3429 136.725 42.771 129.532 37.3399 120.125L77.3521 97.0242L61.55 140.44Z" fill="#003768"/>
<path d="M29.3357 124.746C22.8184 113.457 20.4867 100.234 22.7502 87.397L77.3503 97.0245L29.3357 124.746Z" fill="#22C55E"/>
<path d="M0 83.3851C3.20655 65.1999 12.7178 48.7258 26.8635 36.8562L77.3502 97.0241L0 83.3851Z" fill="#FFAB00"/>
<path d="M14.9857 22.6994C32.4552 8.0407 54.5299 0.00398017 77.3348 0L77.3517 97.0243L14.9857 22.6994Z" fill="#00B8D9"/>
</g>
</svg>
