<svg width="132" height="132" viewBox="0 0 132 132" fill="none" xmlns="http://www.w3.org/2000/svg">
<path opacity="0.48" fill-rule="evenodd" clip-rule="evenodd" d="M42.2398 66C42.2398 73.2902 36.33 79.2 29.0398 79.2C21.7497 79.2 15.8398 73.2902 15.8398 66C15.8398 58.7099 21.7497 52.8 29.0398 52.8C36.33 52.8 42.2398 58.7099 42.2398 66ZM32.9998 70.1779C32.9998 70.9127 32.5713 71.28 31.7143 71.28H26.587C25.73 71.28 25.3015 70.9127 25.3015 70.1779C25.3015 69.8204 25.4049 69.5523 25.6118 69.3736C25.8187 69.1949 26.1437 69.1055 26.587 69.1055H27.7839V63.7287L26.6018 64.4287C26.4343 64.528 26.2619 64.5777 26.0846 64.5777C25.8088 64.5777 25.5724 64.456 25.3754 64.2127C25.1784 63.9695 25.0798 63.6989 25.0798 63.401C25.0798 62.9939 25.2522 62.6861 25.597 62.4776L27.9612 61.0924C28.3946 60.8442 28.8034 60.72 29.1876 60.72C29.5816 60.72 29.8993 60.8392 30.1407 61.0775C30.382 61.3158 30.5027 61.6385 30.5027 62.0456V69.1055H31.7143C32.1576 69.1055 32.4827 69.1949 32.6895 69.3736C32.8964 69.5523 32.9998 69.8204 32.9998 70.1779Z" fill="#919EAB"/>
<path fill-rule="evenodd" clip-rule="evenodd" d="M116.16 66C116.16 75.1127 108.773 82.5 99.6602 82.5C90.5475 82.5 83.1602 75.1127 83.1602 66C83.1602 56.8873 90.5475 49.5 99.6602 49.5C108.773 49.5 116.16 56.8873 116.16 66ZM105.265 73.5207C104.944 73.7869 104.455 73.92 103.798 73.92H95.6238C95.0863 73.92 94.6608 73.761 94.3472 73.443C94.0337 73.125 93.8769 72.722 93.8769 72.2339C93.8769 71.598 94.1308 71.0212 94.6384 70.5035L99.3864 65.6007C100.372 64.5802 100.864 63.641 100.864 62.7832C100.864 62.2803 100.719 61.8958 100.428 61.6296C100.137 61.3634 99.7223 61.2303 99.1848 61.2303C98.7518 61.2303 98.3524 61.2931 97.9866 61.4188C97.6208 61.5445 97.199 61.7257 96.7212 61.9624L96.2733 62.1842C96.2136 62.2138 96.0979 62.2766 95.9262 62.3728C95.7545 62.4689 95.6014 62.5392 95.467 62.5835C95.3327 62.6279 95.1908 62.6501 95.0415 62.6501C94.6683 62.6501 94.3547 62.4837 94.1009 62.1509C93.8471 61.8182 93.7202 61.4225 93.7202 60.964C93.7202 60.6387 93.7687 60.3724 93.8657 60.1654C93.9628 59.9583 94.1457 59.7661 94.4144 59.5886C95.1162 59.1153 95.9038 58.7455 96.7772 58.4793C97.6507 58.2131 98.5129 58.08 99.364 58.08C100.469 58.08 101.439 58.2612 102.275 58.6235C103.112 58.9859 103.757 59.5035 104.213 60.1765C104.668 60.8494 104.896 61.6222 104.896 62.4948C104.896 63.397 104.713 64.2215 104.347 64.9684C103.981 65.7153 103.358 66.5472 102.477 67.4642L99.2968 70.681H103.798C104.455 70.681 104.944 70.8104 105.265 71.0692C105.586 71.3281 105.747 71.7311 105.747 72.2783C105.747 72.8403 105.586 73.2545 105.265 73.5207Z" fill="#919EAB"/>
<path opacity="0.24" d="M41.6353 69.96H83.8753C83.5599 68.6914 83.3926 67.3651 83.3926 66C83.3926 64.635 83.5599 63.3086 83.8753 62.04H41.6353C42.0315 63.2901 42.2451 64.6204 42.2451 66C42.2451 67.3797 42.0315 68.7099 41.6353 69.96Z" fill="#919EAB"/>
<path fill-rule="evenodd" clip-rule="evenodd" d="M33.0001 70.1778C33.0001 70.9126 32.5716 71.28 31.7146 71.28H26.5872C25.7302 71.28 25.3017 70.9126 25.3017 70.1778C25.3017 69.8203 25.4052 69.5522 25.612 69.3735C25.8189 69.1948 26.144 69.1054 26.5872 69.1054H27.7841V63.7286L26.602 64.4286C26.4346 64.5279 26.2622 64.5776 26.0849 64.5776C25.809 64.5776 25.5726 64.4559 25.3756 64.2127C25.1786 63.9694 25.0801 63.6988 25.0801 63.4009C25.0801 62.9938 25.2525 62.686 25.5972 62.4775L27.9614 61.0923C28.3949 60.8441 28.8037 60.72 29.1878 60.72C29.5819 60.72 29.8996 60.8391 30.1409 61.0774C30.3822 61.3157 30.5029 61.6384 30.5029 62.0456V69.1054H31.7146C32.1578 69.1054 32.4829 69.1948 32.6898 69.3735C32.8966 69.5522 33.0001 69.8203 33.0001 70.1778Z" fill="#919EAB"/>
</svg>
