<svg width="20" height="20" viewBox="0 0 20 20" fill="none" xmlns="http://www.w3.org/2000/svg">
<path d="M9.99998 11.6667C10.9205 11.6667 11.6666 10.9205 11.6666 10C11.6666 9.07952 10.9205 8.33333 9.99998 8.33333C9.07951 8.33333 8.33331 9.07952 8.33331 10C8.33331 10.9205 9.07951 11.6667 9.99998 11.6667Z" fill="#637381"/>
<path d="M9.99998 5.83333C10.9205 5.83333 11.6666 5.08714 11.6666 4.16667C11.6666 3.24619 10.9205 2.5 9.99998 2.5C9.07951 2.5 8.33331 3.24619 8.33331 4.16667C8.33331 5.08714 9.07951 5.83333 9.99998 5.83333Z" fill="#637381"/>
<path d="M9.99998 17.5C10.9205 17.5 11.6666 16.7538 11.6666 15.8333C11.6666 14.9129 10.9205 14.1667 9.99998 14.1667C9.07951 14.1667 8.33331 14.9129 8.33331 15.8333C8.33331 16.7538 9.07951 17.5 9.99998 17.5Z" fill="#637381"/>
</svg>
