<svg width="20" height="20" viewBox="0 0 20 20" fill="none" xmlns="http://www.w3.org/2000/svg">
<path d="M6.8763 4.16675C4.94547 4.17175 3.91214 4.21925 3.14964 4.72841C2.78552 4.97167 2.47289 5.28429 2.22964 5.64841C1.66797 6.48925 1.66797 7.65841 1.66797 10.0001C1.66797 12.3409 1.66797 13.5109 2.22964 14.3517C2.47289 14.7159 2.78552 15.0285 3.14964 15.2717C3.91214 15.7809 4.94547 15.8284 6.8763 15.8334V12.4209C6.34 12.2819 5.86505 11.9687 5.52598 11.5306C5.18692 11.0924 5.00295 10.5541 5.00295 10.0001C5.00295 9.44606 5.18692 8.90772 5.52598 8.46957C5.86505 8.03142 6.34 7.71826 6.8763 7.57925V4.16675ZM8.1263 15.8334H11.8763V4.16675H8.1263V15.8334ZM13.1263 4.16675V7.57925C13.6626 7.71826 14.1376 8.03142 14.4766 8.46957C14.8157 8.90772 14.9997 9.44606 14.9997 10.0001C14.9997 10.5541 14.8157 11.0924 14.4766 11.5306C14.1376 11.9687 13.6626 12.2819 13.1263 12.4209V15.8334C15.0571 15.8284 16.0913 15.7809 16.853 15.2717C17.217 15.0284 17.5297 14.7158 17.773 14.3517C18.3346 13.5109 18.3346 12.3417 18.3346 10.0001C18.3346 7.65925 18.3346 6.48925 17.773 5.64841C17.5297 5.28432 17.2171 4.97171 16.853 4.72841C16.0905 4.21925 15.0571 4.17091 13.1263 4.16675Z" fill="#212B36"/>
</svg>
