<svg width="18" height="18" viewBox="0 0 18 18" fill="none" xmlns="http://www.w3.org/2000/svg">
<path d="M14.25 2.25C14.6478 2.25 15.0294 2.40804 15.3107 2.68934C15.592 2.97064 15.75 3.35218 15.75 3.75V14.25C15.75 14.6478 15.592 15.0294 15.3107 15.3107C15.0294 15.592 14.6478 15.75 14.25 15.75H3.75C3.35218 15.75 2.97064 15.592 2.68934 15.3107C2.40804 15.0294 2.25 14.6478 2.25 14.25V3.75C2.25 3.35218 2.40804 2.97064 2.68934 2.68934C2.97064 2.40804 3.35218 2.25 3.75 2.25H14.25ZM14.25 6.75H3.75V14.25H14.25V6.75ZM6.375 11.25C6.57391 11.25 6.76468 11.329 6.90533 11.4697C7.04598 11.6103 7.125 11.8011 7.125 12C7.125 12.1989 7.04598 12.3897 6.90533 12.5303C6.76468 12.671 6.57391 12.75 6.375 12.75H5.625C5.42609 12.75 5.23532 12.671 5.09467 12.5303C4.95402 12.3897 4.875 12.1989 4.875 12C4.875 11.8011 4.95402 11.6103 5.09467 11.4697C5.23532 11.329 5.42609 11.25 5.625 11.25H6.375ZM9.375 11.25C9.56616 11.2502 9.75002 11.3234 9.88903 11.4546C10.028 11.5859 10.1117 11.7652 10.1229 11.956C10.1341 12.1469 10.072 12.3348 9.9493 12.4814C9.82661 12.628 9.65257 12.7222 9.46275 12.7448L9.375 12.75H8.625C8.43384 12.7498 8.24998 12.6766 8.11097 12.5454C7.97197 12.4141 7.88832 12.2348 7.87712 12.044C7.86592 11.8531 7.92801 11.6652 8.0507 11.5186C8.17339 11.372 8.34743 11.2778 8.53725 11.2552L8.625 11.25H9.375ZM6.375 8.25C6.56616 8.25021 6.75002 8.32341 6.88903 8.45464C7.02803 8.58586 7.11168 8.76521 7.12288 8.95605C7.13408 9.14688 7.07199 9.33478 6.9493 9.48137C6.82661 9.62796 6.65257 9.72217 6.46275 9.74475L6.375 9.75H5.625C5.43384 9.74979 5.24998 9.67659 5.11097 9.54536C4.97197 9.41414 4.88832 9.23479 4.87712 9.04395C4.86592 8.85312 4.92801 8.66522 5.0507 8.51863C5.17339 8.37204 5.34743 8.27783 5.53725 8.25525L5.625 8.25H6.375ZM9.375 8.25C9.57391 8.25 9.76468 8.32902 9.90533 8.46967C10.046 8.61032 10.125 8.80109 10.125 9C10.125 9.19891 10.046 9.38968 9.90533 9.53033C9.76468 9.67098 9.57391 9.75 9.375 9.75H8.625C8.42609 9.75 8.23532 9.67098 8.09467 9.53033C7.95402 9.38968 7.875 9.19891 7.875 9C7.875 8.80109 7.95402 8.61032 8.09467 8.46967C8.23532 8.32902 8.42609 8.25 8.625 8.25H9.375ZM12.375 8.25C12.5662 8.25021 12.75 8.32341 12.889 8.45464C13.028 8.58586 13.1117 8.76521 13.1229 8.95605C13.1341 9.14688 13.072 9.33478 12.9493 9.48137C12.8266 9.62796 12.6526 9.72217 12.4628 9.74475L12.375 9.75H11.625C11.4338 9.74979 11.25 9.67659 11.111 9.54536C10.972 9.41414 10.8883 9.23479 10.8771 9.04395C10.8659 8.85312 10.928 8.66522 11.0507 8.51863C11.1734 8.37204 11.3474 8.27783 11.5373 8.25525L11.625 8.25H12.375ZM14.25 3.75H3.75V5.25H14.25V3.75Z" fill="#212B36"/>
</svg>
