<svg width="132" height="132" viewBox="0 0 132 132" fill="none" xmlns="http://www.w3.org/2000/svg">
<path opacity="0.48" d="M18.4805 39.5999C18.4805 35.2258 22.0264 31.6799 26.4005 31.6799H105.6C109.975 31.6799 113.52 35.2258 113.52 39.5999V47.5199H18.4805V39.5999Z" fill="#919EAB"/>
<path opacity="0.24" d="M18.4805 47.52V92.4C18.4805 96.7741 22.0264 100.32 26.4005 100.32H105.6C109.975 100.32 113.52 96.7741 113.52 92.4V47.52H18.4805Z" fill="#919EAB"/>
<rect x="26.4004" y="58.74" width="23.76" height="13.2" rx="6" fill="#919EAB"/>
<rect opacity="0.48" x="54.1201" y="58.74" width="23.76" height="13.2" rx="6" fill="#919EAB"/>
<rect opacity="0.48" x="81.8408" y="58.74" width="23.76" height="13.2" rx="6" fill="#919EAB"/>
<rect opacity="0.48" x="26.4004" y="75.8999" width="23.76" height="13.2" rx="6" fill="#919EAB"/>
<rect opacity="0.24" x="54.1201" y="75.8999" width="23.76" height="13.2" rx="6" fill="#919EAB"/>
<rect opacity="0.24" x="81.8408" y="75.8999" width="23.76" height="13.2" rx="6" fill="#919EAB"/>
</svg>
