<svg width="132" height="132" viewBox="0 0 132 132" fill="none" xmlns="http://www.w3.org/2000/svg">
<path opacity="0.24" fill-rule="evenodd" clip-rule="evenodd" d="M106.846 59.7507C105.649 52.4423 101.923 46.9943 96.0684 44.0709C92.4759 42.3435 88.7503 41.5462 84.7586 41.5462C79.3033 41.5462 74.2471 43.1408 69.7232 44.6024L69.324 44.7252C66.038 45.7361 63.2438 46.5956 60.9414 46.5956C58.9456 46.5956 57.482 45.9312 56.4175 44.6024C55.5592 43.5004 56.0568 41.8341 56.6609 39.8115L56.6611 39.8106C56.7125 39.6387 56.7646 39.4642 56.8167 39.2873L56.8454 39.187C57.64 36.4113 58.6525 32.8742 56.4175 29.9857C55.0869 28.2583 52.825 27.3281 50.1638 27.3281C47.5027 27.3281 44.7085 28.2583 42.4465 29.72C31.4028 37.2941 24.75 49.9176 24.75 63.4713C24.75 86.3266 43.3779 104.93 66.2637 104.93C84.7586 104.93 101.125 92.5719 106.181 74.7661C106.58 72.9058 107.91 66.5275 106.846 59.7507ZM84.6254 69.9823C79.4362 69.9823 75.3115 65.8631 75.3115 60.6808C75.3115 55.4985 79.4362 51.3792 84.6254 51.3792C89.8147 51.3792 93.9394 55.4985 93.9394 60.6808C93.9394 65.8631 89.8147 69.9823 84.6254 69.9823ZM60.6753 87.2568C60.6753 90.1801 63.0703 92.5719 65.9976 92.5719C68.9248 92.5719 71.3199 90.1801 71.3199 87.2568C71.3199 84.3334 68.9248 81.9416 65.9976 81.9416C63.0703 81.9416 60.6753 84.3334 60.6753 87.2568ZM46.7948 84.5681C44.1352 84.2795 42.0474 82.0134 42.0474 79.284C42.0474 76.726 43.881 74.575 46.3005 74.0773C46.6461 74.0061 47.0037 73.9688 47.3696 73.9688C47.3696 73.9688 47.3697 73.9688 47.3696 73.9688C50.2969 73.9688 52.6921 76.3606 52.6921 79.2839C52.6921 81.8419 50.8583 83.9929 48.4388 84.4906C48.0932 84.5617 47.7357 84.5991 47.3699 84.5991C47.3698 84.5991 47.37 84.5991 47.3699 84.5991C47.1758 84.5991 46.9837 84.5886 46.7948 84.5681ZM36.7254 60.6809C36.7254 57.7575 39.1204 55.3657 42.0477 55.3657C44.9749 55.3657 47.3699 57.7575 47.3699 60.6809C47.3699 63.6042 44.9749 65.9961 42.0477 65.9961C39.1204 65.9961 36.7254 63.6042 36.7254 60.6809Z" fill="#919EAB"/>
<path opacity="0.48" fill-rule="evenodd" clip-rule="evenodd" d="M60.6755 87.2568C60.6755 90.1801 63.0705 92.5719 65.9978 92.5719C68.925 92.5719 71.32 90.1801 71.32 87.2568C71.32 84.3334 68.925 81.9416 65.9978 81.9416C63.0705 81.9416 60.6755 84.3334 60.6755 87.2568ZM46.795 84.5681C44.1354 84.2795 42.0476 82.0134 42.0476 79.284C42.0476 76.726 43.8812 74.575 46.3007 74.0773C46.6463 74.0061 47.0039 73.9688 47.3698 73.9688C50.2971 73.9688 52.6923 76.3606 52.6923 79.2839C52.6923 81.8419 50.8585 83.9929 48.439 84.4906C48.0934 84.5617 47.7359 84.5991 47.3701 84.5991C47.1759 84.5991 46.9839 84.5886 46.795 84.5681ZM36.7256 60.6809C36.7256 57.7576 39.1206 55.3657 42.0479 55.3657C44.9751 55.3657 47.3701 57.7576 47.3701 60.6809C47.3701 63.6042 44.9751 65.9961 42.0479 65.9961C39.1206 65.9961 36.7256 63.6042 36.7256 60.6809Z" fill="#919EAB"/>
<path fill-rule="evenodd" clip-rule="evenodd" d="M84.6255 69.9823C79.4363 69.9823 75.3115 65.863 75.3115 60.6807C75.3115 55.4984 79.4363 51.3792 84.6255 51.3792C89.8147 51.3792 93.9395 55.4984 93.9395 60.6807C93.9395 65.863 89.8147 69.9823 84.6255 69.9823Z" fill="#919EAB"/>
</svg>
