<svg width="16" height="16" viewBox="0 0 16 16" fill="none" xmlns="http://www.w3.org/2000/svg">
<path fill-rule="evenodd" clip-rule="evenodd" d="M9.2007 3.55538C9.2007 2.32871 10.2007 1.33338 11.4327 1.33338C11.7252 1.33268 12.015 1.3896 12.2855 1.50088C12.556 1.61217 12.8019 1.77565 13.0092 1.98198C13.2165 2.18831 13.3812 2.43346 13.4938 2.70342C13.6064 2.97339 13.6647 3.26288 13.6654 3.55538C13.6654 4.78271 12.6654 5.77805 11.4327 5.77805C11.1371 5.77841 10.8444 5.72002 10.5715 5.60625C10.2987 5.49249 10.0512 5.32564 9.84336 5.11538L6.75336 7.21938C6.83942 7.64805 6.79722 8.09257 6.63203 8.49738L10.02 10.724C10.4191 10.3986 10.9184 10.2212 11.4334 10.222C11.7259 10.2214 12.0156 10.2784 12.2861 10.3898C12.5566 10.5012 12.8024 10.6647 13.0097 10.8711C13.217 11.0775 13.3815 11.3227 13.494 11.5927C13.6065 11.8627 13.6648 12.1522 13.6654 12.4447C13.6654 13.6714 12.6654 14.6667 11.4327 14.6667C10.8421 14.668 10.2752 14.4346 9.8566 14.0179C9.43804 13.6012 9.20211 13.0353 9.2007 12.4447C9.20018 12.1331 9.26585 11.825 9.39336 11.5407L6.03203 9.33338C5.62497 9.68732 5.10345 9.88176 4.56403 9.88071C4.27151 9.88141 3.98172 9.82447 3.71121 9.71313C3.4407 9.6018 3.19478 9.43825 2.98751 9.23184C2.78023 9.02543 2.61565 8.7802 2.50318 8.51016C2.39071 8.24012 2.33256 7.95057 2.33203 7.65805C2.33264 7.36558 2.39087 7.0761 2.50337 6.80614C2.61588 6.53618 2.78047 6.29103 2.98774 6.08468C3.19501 5.87834 3.4409 5.71486 3.71136 5.60356C3.98183 5.49227 4.27157 5.43535 4.56403 5.43605C5.27336 5.43605 5.90403 5.76471 6.3127 6.27671L9.30803 4.23738C9.23677 4.01707 9.20055 3.78693 9.2007 3.55538Z" fill="#919EAB"/>
</svg>
