<svg width="20" height="20" viewBox="0 0 20 20" fill="none" xmlns="http://www.w3.org/2000/svg">
<g opacity="0.48">
<path fill-rule="evenodd" clip-rule="evenodd" d="M18.3334 10.0001C18.3334 14.6026 14.6025 18.3334 10 18.3334C5.39752 18.3334 1.66669 14.6026 1.66669 10.0001C1.66669 5.39758 5.39752 1.66675 10 1.66675C14.6025 1.66675 18.3334 5.39758 18.3334 10.0001ZM7.47502 7.47508C7.59221 7.35804 7.75106 7.2923 7.91669 7.2923C8.08231 7.2923 8.24117 7.35804 8.35835 7.47508L10 9.11675L11.6417 7.47508C11.7602 7.36468 11.9169 7.30458 12.0788 7.30744C12.2407 7.31029 12.3952 7.37589 12.5097 7.4904C12.6242 7.60491 12.6898 7.7594 12.6927 7.92131C12.6955 8.08323 12.6354 8.23994 12.525 8.35841L10.8834 10.0001L12.525 11.6417C12.6354 11.7602 12.6955 11.9169 12.6927 12.0789C12.6898 12.2408 12.6242 12.3953 12.5097 12.5098C12.3952 12.6243 12.2407 12.6899 12.0788 12.6927C11.9169 12.6956 11.7602 12.6355 11.6417 12.5251L10 10.8834L8.35835 12.5251C8.23987 12.6355 8.08317 12.6956 7.92125 12.6927C7.75933 12.6899 7.60485 12.6243 7.49034 12.5098C7.37583 12.3953 7.31023 12.2408 7.30737 12.0789C7.30452 11.9169 7.36462 11.7602 7.47502 11.6417L9.11669 10.0001L7.47502 8.35841C7.35798 8.24123 7.29224 8.08237 7.29224 7.91675C7.29224 7.75112 7.35798 7.59227 7.47502 7.47508Z" fill="#B71D18"/>
</g>
</svg>
