<svg width="32" height="32" viewBox="0 0 32 32" fill="none" xmlns="http://www.w3.org/2000/svg">
<path d="M20.2 11.2C18.1361 11.1929 16.1541 12.0069 14.6909 13.4626C13.2277 14.9183 12.4035 16.8961 12.4 18.96V26.8C12.4 27.1183 12.5264 27.4235 12.7515 27.6485C12.9765 27.8736 13.2817 28 13.6 28H16.4C17.0627 28 17.6 27.4627 17.6 26.8V18.96C17.5995 18.2249 17.9117 17.5243 18.4588 17.0333C19.0058 16.5422 19.7359 16.3071 20.4667 16.3867C21.8079 16.5556 22.8106 17.7015 22.8 19.0533V26.8C22.8 27.4627 23.3373 28 24 28H26.8C27.4627 28 28 27.4627 28 26.8V18.96C27.9965 16.8961 27.1723 14.9183 25.7091 13.4626C24.2459 12.0069 22.2639 11.1929 20.2 11.2Z" fill="#00AAEC"/>
<path d="M4 13.6C4 12.9373 4.53726 12.4 5.2 12.4H8.8C9.46274 12.4 10 12.9373 10 13.6V26.8C10 27.4627 9.46274 28 8.8 28H5.2C4.53726 28 4 27.4627 4 26.8V13.6Z" fill="#00AAEC"/>
<path d="M10 7C10 8.65685 8.65685 10 7 10C5.34315 10 4 8.65685 4 7C4 5.34315 5.34315 4 7 4C8.65685 4 10 5.34315 10 7Z" fill="#00AAEC"/>
</svg>
