<svg width="24" height="24" viewBox="0 0 24 24" fill="none" xmlns="http://www.w3.org/2000/svg">
<path d="M12.1595 17.9721C10.9382 17.9721 9.92483 17.7108 9.1195 17.1881C8.3195 16.6601 7.84217 15.8814 7.6875 14.8521L9.2395 14.7561C9.41017 15.4068 9.7515 15.8948 10.2635 16.2201C10.7755 16.5454 11.4048 16.7081 12.1515 16.7081C12.5995 16.7081 13.0182 16.6308 13.4075 16.4761C13.8022 16.3214 14.1195 16.1054 14.3595 15.8281C14.6048 15.5508 14.7275 15.2228 14.7275 14.8441C14.7275 14.3374 14.5755 13.9321 14.2715 13.6281C13.9728 13.3241 13.4955 13.0841 12.8395 12.9081L10.8475 12.3881C9.98883 12.1694 9.30883 11.8254 8.8075 11.3561C8.30617 10.8868 8.05283 10.2574 8.0475 9.46811C8.04217 8.80145 8.2155 8.21478 8.5675 7.70811C8.92483 7.20145 9.4155 6.80678 10.0395 6.52411C10.6688 6.24145 11.3942 6.10011 12.2155 6.10011C13.0048 6.10011 13.6848 6.25211 14.2555 6.55611C14.8315 6.85478 15.2768 7.25211 15.5915 7.74811C15.9115 8.24411 16.0822 8.78545 16.1035 9.37211L14.5995 9.45211C14.4822 8.76411 14.2288 8.24411 13.8395 7.89211C13.4555 7.53478 12.9142 7.35611 12.2155 7.35611C11.8848 7.35611 11.5648 7.39878 11.2555 7.48411C10.9515 7.56411 10.6768 7.68678 10.4315 7.85211C10.1915 8.01745 9.9995 8.22278 9.8555 8.46811C9.7115 8.71345 9.6395 8.99878 9.6395 9.32411C9.6395 9.74011 9.78617 10.0708 10.0795 10.3161C10.3728 10.5561 10.9008 10.7934 11.6635 11.0281L13.5835 11.5721C14.5648 11.8441 15.2635 12.2681 15.6795 12.8441C16.1008 13.4148 16.3115 14.0761 16.3115 14.8281C16.3115 15.4414 16.1382 15.9854 15.7915 16.4601C15.4448 16.9294 14.9568 17.3001 14.3275 17.5721C13.7035 17.8388 12.9808 17.9721 12.1595 17.9721ZM11.5355 4.51611H12.9035V6.58011H11.5355V4.51611ZM11.4395 17.4201H12.8075V19.4841H11.4395V17.4201Z" fill="#919EAB"/>
</svg>
