<svg width="32" height="32" viewBox="0 0 32 32" fill="none" xmlns="http://www.w3.org/2000/svg">
<path d="M22.6667 4.66663C22.6667 4.29844 22.3682 3.99996 22 3.99996H18.6667C15.1724 3.8259 12.1937 6.50675 12 9.99996V13.6H8.66667C8.29848 13.6 8 13.8984 8 14.2666V17.7333C8 18.1015 8.29848 18.4 8.66667 18.4H12V27.3333C12 27.7015 12.2985 28 12.6667 28H16.6667C17.0349 28 17.3333 27.7015 17.3333 27.3333V18.4H20.8267C21.1317 18.4043 21.4007 18.2012 21.48 17.9066L22.44 14.44C22.4938 14.2403 22.4518 14.027 22.3266 13.8626C22.2013 13.6981 22.0067 13.6011 21.8 13.6H17.3333V9.99996C17.4021 9.31609 17.9794 8.79652 18.6667 8.79996H22C22.3682 8.79996 22.6667 8.50148 22.6667 8.1333V4.66663Z" fill="#1877F2"/>
</svg>
