<svg width="20" height="20" viewBox="0 0 20 20" fill="none" xmlns="http://www.w3.org/2000/svg">
<path d="M13.5569 12.906L13.1019 13.359C13.1019 13.359 12.0189 14.435 9.06386 11.497C6.10886 8.55898 7.19186 7.48298 7.19186 7.48298L7.47786 7.19698C8.18486 6.49498 8.25186 5.36698 7.63486 4.54298L6.37486 2.85998C5.61086 1.83998 4.13586 1.70498 3.26086 2.57498L1.69086 4.13498C1.25786 4.56698 0.967856 5.12498 1.00286 5.74498C1.09286 7.33198 1.81086 10.745 5.81486 14.727C10.0619 18.949 14.0469 19.117 15.6759 18.965C16.1919 18.917 16.6399 18.655 17.0009 18.295L18.4209 16.883C19.3809 15.93 19.1109 14.295 17.8829 13.628L15.9729 12.589C15.1669 12.151 14.1869 12.28 13.5569 12.906Z" fill="#919EAB"/>
</svg>
