<svg width="14" height="14" viewBox="0 0 14 14" fill="none" xmlns="http://www.w3.org/2000/svg">
<path d="M7.62066 3.89951L8.05525 3.72101C8.40816 3.58101 8.86433 3.43809 9.40275 3.52851C10.5058 3.71401 11.2665 4.30959 11.7197 5.09943C11.8947 5.40393 11.7536 5.80526 11.4269 5.93301C11.1471 6.04248 10.9078 6.2357 10.742 6.48627C10.5761 6.73683 10.4916 7.0325 10.5001 7.33288C10.5086 7.63326 10.6096 7.9237 10.7894 8.16449C10.9692 8.40528 11.2189 8.58468 11.5045 8.67818C11.8067 8.77734 11.977 9.11276 11.8778 9.41493C11.62 10.1978 11.249 10.9205 10.8097 11.5038C10.3757 12.0802 9.84608 12.5585 9.25633 12.7924C8.87133 12.9441 8.45833 12.8875 8.06341 12.7895L7.82891 12.7271L7.48066 12.6262C7.32258 12.5801 7.15983 12.5404 7 12.5404C6.83958 12.5404 6.67741 12.5801 6.51933 12.6262L6.17108 12.7271L5.93658 12.7895C5.54166 12.8875 5.12808 12.9447 4.74366 12.7924C4.00108 12.4984 3.346 11.8124 2.85075 11.0033C2.31459 10.1124 1.96085 9.12371 1.81008 8.09484C1.67766 7.18834 1.74941 6.17043 2.16883 5.30943C2.6005 4.42218 3.3915 3.73151 4.59725 3.52851C5.08725 3.44626 5.50841 3.55651 5.84558 3.68309L6.03866 3.75893L6.37933 3.89951C6.61266 3.99109 6.79641 4.04476 7 4.04476C7.203 4.04476 7.38733 3.99109 7.62066 3.89951ZM6.86466 1.61459C7.434 1.04468 8.30841 0.995676 8.51433 1.20218C8.72083 1.40809 8.67183 2.28251 8.10191 2.85184C7.53258 3.42118 6.65816 3.47018 6.45225 3.26426C6.24575 3.05834 6.29475 2.18393 6.86466 1.61459Z" fill="#919EAB"/>
</svg>
