<svg width="40" height="40" viewBox="0 0 40 40" fill="none" xmlns="http://www.w3.org/2000/svg">
<path d="M40 20C40 31.0458 31.0455 40 20 40C8.95416 40 0 31.0458 0 20C0 8.95415 8.95416 0 20 0C31.0455 0 40 8.95415 40 20Z" fill="#FFD666"/>
<path d="M25.2682 8.01452C25.0409 7.13562 24.0707 5.88958 20.3952 5.88958C14.7165 5.88958 13.9078 6.73065 12.3965 5.27832C11.1215 4.05304 10.3726 9.95025 12.0727 11.8231C11.3553 14.4757 11.9293 17.1326 11.9293 17.1326H27.9068C27.9065 17.1326 29.2474 10.9265 25.2682 8.01452Z" fill="#B76E00"/>
<path d="M13.5415 17.4115C13.5415 17.4115 12.8527 16.1499 11.4751 16.1499C10.0975 16.1499 9.12157 22.2065 13.5415 21.1969V17.4115Z" fill="#FDBAB9"/>
<path opacity="0.32" d="M13.5415 17.4115C13.5415 17.4115 12.8527 16.1499 11.4751 16.1499C10.0975 16.1499 9.12157 22.2065 13.5415 21.1969V17.4115Z" fill="white"/>
<path d="M26.293 17.4115C26.293 17.4115 26.9818 16.1499 28.3593 16.1499C29.7372 16.1499 30.7128 22.2065 26.293 21.1969V17.4115Z" fill="#FDBAB9"/>
<path opacity="0.32" d="M26.293 17.4115C26.293 17.4115 26.9818 16.1499 28.3593 16.1499C29.7372 16.1499 30.7128 22.2065 26.293 21.1969V17.4115Z" fill="white"/>
<path d="M19.9171 9.29565C9.36294 9.29565 11.3808 26.6052 19.9171 26.6052C28.4532 26.6052 30.4713 9.29565 19.9171 9.29565Z" fill="#FDBAB9"/>
<path opacity="0.56" d="M19.9171 9.29565C9.36294 9.29565 11.3808 26.6052 19.9171 26.6052C28.4532 26.6052 30.4713 9.29565 19.9171 9.29565Z" fill="white"/>
<path d="M16.1157 7.4731C14.0936 7.61389 13.3994 7.66223 12.3943 6.69648C11.7406 6.06813 11.2261 7.31355 11.1083 8.92823C10.9459 6.7444 11.5563 4.47298 12.3943 5.27833C13.3995 6.24418 14.0938 6.19587 16.1163 6.05513C17.135 5.98424 18.4907 5.8899 20.3929 5.8899C24.0688 5.8899 25.0389 7.13563 25.266 8.01484C27.9323 9.96552 28.2094 13.3929 28.1026 15.4443C27.9939 13.4613 27.3824 10.9811 25.266 9.43269C25.0389 8.55348 24.0688 7.30775 20.3929 7.30775C18.4904 7.30775 17.1345 7.40216 16.1157 7.4731Z" fill="#B76E00"/>
<path d="M12.738 16.5519C12.738 7.34081 19.917 8.35369 19.917 8.35369C19.917 8.35369 27.0956 7.34081 27.0956 16.5519C27.0956 16.5519 26.192 12.7449 24.118 11.7067C23.6751 11.4848 23.3609 11.6225 22.8723 11.8366C22.2959 12.0892 21.4767 12.4482 19.917 12.4482C18.3571 12.4482 17.5379 12.0892 16.9615 11.8366C16.4729 11.6225 16.1587 11.4848 15.7156 11.7067C13.6419 12.7449 12.738 16.5519 12.738 16.5519Z" fill="#B76E00"/>
<path d="M34.4409 33.8375C33.9279 32.5804 32.8858 31.5727 31.5396 31.1302L25.0541 28.9992C24.4422 28.7981 24.0265 28.2295 24.0207 27.5853L23.9975 24.9663C22.9136 25.9423 21.5641 26.5471 19.986 26.5612C18.4083 26.5749 17.0484 25.9938 15.947 25.0374L15.9693 27.5646C15.9751 28.2186 15.557 28.8011 14.9354 29.0053L8.45221 31.1315C7.10913 31.5721 6.06787 32.5752 5.55273 33.828C9.19348 37.6311 14.3207 39.9999 20.0016 39.9999C25.6772 39.9999 30.8005 37.6351 34.4409 33.8375Z" fill="#FFAB00"/>
<path d="M19.7615 34.6743C23.087 34.6743 25.9236 32.5869 27.0366 29.6514L25.052 28.9992C24.4401 28.7981 24.0245 28.2292 24.019 27.5853L23.9958 24.9663C22.9115 25.9423 21.5623 26.5471 19.9843 26.5612C18.4062 26.5749 17.0463 25.9938 15.9453 25.0374L15.9675 27.5646C15.9733 28.2186 15.5552 28.8011 14.9336 29.0053L12.541 29.7899C13.6897 32.6522 16.4885 34.6743 19.7615 34.6743Z" fill="#FDBAB9"/>
<path opacity="0.32" d="M19.7615 34.6743C23.087 34.6743 25.9236 32.5869 27.0366 29.6514L25.052 28.9992C24.4401 28.7981 24.0245 28.2292 24.019 27.5853L23.9958 24.9663C22.9115 25.9423 21.5623 26.5471 19.9843 26.5612C18.4062 26.5749 17.0463 25.9938 15.9453 25.0374L15.9675 27.5646C15.9733 28.2186 15.5552 28.8011 14.9336 29.0053L12.541 29.7899C13.6897 32.6522 16.4885 34.6743 19.7615 34.6743Z" fill="white"/>
<path d="M20 1.5625C30.7837 1.5625 39.5728 10.0979 39.9832 20.7812C39.9933 20.5218 40 20.2618 40 20C40 8.95446 31.0455 0 20 0C8.95416 0 0 8.95446 0 20C0 20.2618 0.00640869 20.5218 0.0164795 20.7812C0.426941 10.0979 9.216 1.5625 20 1.5625Z" fill="#FFAB00"/>
</svg>
