<svg width="132" height="132" viewBox="0 0 132 132" fill="none" xmlns="http://www.w3.org/2000/svg">
<path d="M56.3484 41.2165C59.3403 40.0457 62.5515 39.5115 65.7362 39.6621C60.6641 41.7165 56.0099 45.2751 53.0578 50.1691C50.4952 54.3583 49.2641 59.3447 49.0352 64.301C48.2617 74.0509 53.0351 83.8892 60.6433 89.2933C62.4002 90.5203 64.3103 91.5164 66.3301 92.145C61.4433 92.4663 56.4732 91.2172 52.2654 88.5543C47.1781 85.3773 43.2217 80.2121 41.3551 74.2638C39.0479 67.0322 39.8989 58.7463 43.6888 52.2497C46.5824 47.203 51.1117 43.2287 56.3484 41.2165Z" fill="white"/>
<path d="M36.3504 43.8733C40.5811 40.9396 45.6829 39.3965 50.7411 39.6433C46.0332 41.7101 41.6075 44.8445 38.6608 49.3233C35.093 54.6187 33.8393 61.3008 34.0552 67.7119C34.4832 76.3865 39.1021 84.6618 45.948 89.3994C47.6126 90.5753 49.4609 91.398 51.3301 92.1244C46.1715 92.4716 40.9239 91.0208 36.5758 88.063C31.7315 84.8063 28.0084 79.7175 26.2661 73.9244C24.7208 68.8557 24.683 63.2833 26.1677 58.1925C27.8437 52.3532 31.5232 47.1982 36.3504 43.8733Z" fill="white"/>
<path opacity="0.16" d="M36.3504 43.8733C40.5811 40.9396 45.6829 39.3965 50.7411 39.6433C46.0332 41.7101 41.6075 44.8445 38.6608 49.3233C35.093 54.6187 33.8393 61.3008 34.0552 67.7119C34.4832 76.3865 39.1021 84.6618 45.948 89.3994C47.6126 90.5753 49.4609 91.398 51.3301 92.1244C46.1715 92.4716 40.9239 91.0208 36.5758 88.063C31.7315 84.8063 28.0084 79.7175 26.2661 73.9244C24.7208 68.8557 24.683 63.2833 26.1677 58.1925C27.8437 52.3532 31.5232 47.1982 36.3504 43.8733Z" fill="#007867"/>
<path opacity="0.4" d="M56.3484 41.216C59.3403 40.0452 62.5515 39.511 65.7362 39.6616C60.6641 41.716 56.0099 45.2746 53.0578 50.1686C50.4952 54.3578 49.2641 59.3442 49.0352 64.3005C48.2617 74.0504 53.0351 83.8887 60.6433 89.2928C62.4002 90.5199 64.3103 91.5159 66.3301 92.1445C61.4433 92.4658 56.4732 91.2167 52.2654 88.5538C47.1781 85.3768 43.2217 80.2117 41.3551 74.2633C39.0479 67.0317 39.8989 58.7458 43.6888 52.2492C46.5824 47.2025 51.1117 43.2282 56.3484 41.216Z" fill="#007867"/>
<g filter="url(#filter0_di_0_18951)">
<path d="M79.3702 39.6741C85.0205 39.2428 90.7971 40.707 95.5454 43.8058C101.945 47.9074 106.413 54.9053 107.349 62.4607C108.301 69.4366 106.273 76.7533 101.853 82.2329C98.0187 87.0867 92.4186 90.5084 86.3414 91.6737C81.9278 92.5401 77.2937 92.2373 73.0284 90.8072C68.8614 89.4193 65.0571 86.9583 62.0806 83.7251C57.8454 79.1862 55.3099 73.0989 55.1015 66.8893C54.863 61.157 56.5807 55.3666 59.9179 50.6994C64.3436 44.3814 71.6695 40.2056 79.3702 39.6741Z" fill="#00A76F"/>
</g>
<defs>
<filter id="filter0_di_0_18951" x="47.0796" y="31.6001" width="84.5" height="84.5571" filterUnits="userSpaceOnUse" color-interpolation-filters="sRGB">
<feFlood flood-opacity="0" result="BackgroundImageFix"/>
<feColorMatrix in="SourceAlpha" type="matrix" values="0 0 0 0 0 0 0 0 0 0 0 0 0 0 0 0 0 0 127 0" result="hardAlpha"/>
<feOffset dx="8" dy="8"/>
<feGaussianBlur stdDeviation="8"/>
<feColorMatrix type="matrix" values="0 0 0 0 0 0 0 0 0 0.470588 0 0 0 0 0.403922 0 0 0 0.16 0"/>
<feBlend mode="normal" in2="BackgroundImageFix" result="effect1_dropShadow_0_18951"/>
<feBlend mode="normal" in="SourceGraphic" in2="effect1_dropShadow_0_18951" result="shape"/>
<feColorMatrix in="SourceAlpha" type="matrix" values="0 0 0 0 0 0 0 0 0 0 0 0 0 0 0 0 0 0 127 0" result="hardAlpha"/>
<feOffset dx="-2" dy="-2"/>
<feGaussianBlur stdDeviation="2"/>
<feComposite in2="hardAlpha" operator="arithmetic" k2="-1" k3="1"/>
<feColorMatrix type="matrix" values="0 0 0 0 0 0 0 0 0 0.470588 0 0 0 0 0.403922 0 0 0 0.48 0"/>
<feBlend mode="normal" in2="shape" result="effect2_innerShadow_0_18951"/>
</filter>
</defs>
</svg>
