<svg width="26" height="21" viewBox="0 0 26 21" fill="none" xmlns="http://www.w3.org/2000/svg">
<path d="M15.3931 2.41205C17.4012 2.57009 19.0987 3.48856 20.1122 4.96541C21.1257 6.44227 21.3721 8.35653 20.7973 10.2871C20.0571 12.7733 18.0413 14.6973 16.1209 16.0402C15.1637 16.7031 14.159 17.2935 13.1196 17.8038L12.6914 18.0102L12.4911 18.1045L12.1162 18.2737L11.7841 18.4172L11.3759 18.5854C11.0995 18.6967 10.8104 18.744 10.5369 18.7224C10.2635 18.7009 10.0151 18.6114 9.81614 18.4626L9.52445 18.2394L9.16404 17.9461L9.03261 17.8323L8.75343 17.5844C7.99916 16.902 7.33462 16.1383 6.76926 15.3042C5.7187 13.7258 4.9141 11.5815 5.65433 9.09529C6.22912 7.16475 7.57807 5.37605 9.40444 4.1227C11.2308 2.86935 13.385 2.25401 15.3931 2.41205ZM13.9482 7.2648C13.6168 7.23872 13.2699 7.27565 12.9274 7.37349C12.5849 7.47133 12.2535 7.62816 11.952 7.83502C11.6506 8.04189 11.3851 8.29474 11.1706 8.57914C10.9561 8.86354 10.7969 9.17392 10.702 9.49255C10.6071 9.81119 10.5785 10.1318 10.6177 10.4362C10.6568 10.7406 10.7631 11.0227 10.9304 11.2664C11.0977 11.5102 11.3227 11.7108 11.5926 11.8569C11.8625 12.0029 12.172 12.0915 12.5034 12.1176C13.1728 12.1702 13.8908 11.9651 14.4996 11.5473C15.1084 11.1296 15.5581 10.5333 15.7497 9.88981C15.9413 9.2463 15.8591 8.60821 15.5213 8.11593C15.1834 7.62364 14.6176 7.31749 13.9482 7.2648Z" fill="#FF5630"/>
</svg>
