<svg width="32" height="32" viewBox="0 0 32 32" fill="none" xmlns="http://www.w3.org/2000/svg">
<path d="M10.7744 26.6668C14.7576 26.8001 18.6254 25.3169 21.4983 22.5546C24.3711 19.7922 26.0048 15.9855 26.0277 12.0001C26.9313 10.882 27.6022 9.59458 28.0011 8.21348C28.0619 7.99058 27.9862 7.75274 27.8078 7.60596C27.6293 7.45919 27.3814 7.43081 27.1744 7.53348C26.2051 8.00005 25.0462 7.79617 24.2944 7.02681C23.3487 5.99125 22.024 5.38276 20.6223 5.34005C19.2206 5.29735 17.8613 5.82407 16.8544 6.80014C15.4663 8.1444 14.8844 10.1178 15.3211 12.0001C10.8544 12.2668 7.78773 10.1468 5.33439 7.24014C5.18379 7.06959 4.94659 7.00424 4.72989 7.07358C4.5132 7.14292 4.358 7.33385 4.33439 7.56014C3.37722 12.8697 5.82355 18.2144 10.4677 20.9601C8.94724 22.7039 6.81201 23.793 4.50773 24.0001C4.25463 24.0421 4.05623 24.2404 4.01405 24.4934C3.97188 24.7465 4.09526 24.9984 4.32106 25.1201C6.32576 26.122 8.53337 26.6511 10.7744 26.6668Z" fill="#00AAEC"/>
</svg>
