<svg width="20" height="20" viewBox="0 0 20 20" fill="none" xmlns="http://www.w3.org/2000/svg">
<path d="M4.14679 13.2709L6.25096 10.0001L4.14679 6.72925C3.78568 6.17369 3.76485 5.60758 4.08429 5.03092C4.40373 4.45425 4.89679 4.16619 5.56346 4.16675H12.501C12.7787 4.16675 13.0393 4.22925 13.2826 4.35425C13.526 4.47925 13.7237 4.65286 13.876 4.87508L16.8135 9.04175C17.0218 9.33342 17.126 9.65286 17.126 10.0001C17.126 10.3473 17.0218 10.6667 16.8135 10.9584L13.876 15.1251C13.7232 15.3473 13.5254 15.5209 13.2826 15.6459C13.0398 15.7709 12.7793 15.8334 12.501 15.8334H5.56346C4.89679 15.8334 4.40373 15.5451 4.08429 14.9684C3.76485 14.3917 3.78568 13.8259 4.14679 13.2709Z" fill="#FFAB00"/>
</svg>
