<svg width="24" height="24" viewBox="0 0 24 24" fill="none" xmlns="http://www.w3.org/2000/svg">
<path opacity="0.32" d="M18.7501 8.99011V9.69411C18.7501 10.5391 18.9901 11.3651 19.4421 12.0681L20.5501 13.7911C21.5611 15.3651 20.7891 17.5041 19.0301 18.0011C14.4338 19.3031 9.56631 19.3031 4.97006 18.0011C3.21106 17.5041 2.43906 15.3651 3.45006 13.7911L4.55806 12.0681C5.01164 11.3595 5.25217 10.5355 5.25106 9.69411V8.99011C5.25106 5.12411 8.27306 1.99011 12.0001 1.99011C15.7271 1.99011 18.7501 5.12411 18.7501 8.99011Z" fill="#637381"/>
<path d="M12.7492 5.99011C12.7492 5.7912 12.6702 5.60043 12.5295 5.45978C12.3889 5.31913 12.1981 5.24011 11.9992 5.24011C11.8003 5.24011 11.6095 5.31913 11.4689 5.45978C11.3282 5.60043 11.2492 5.7912 11.2492 5.99011V9.99011C11.2492 10.189 11.3282 10.3798 11.4689 10.5204C11.6095 10.6611 11.8003 10.7401 11.9992 10.7401C12.1981 10.7401 12.3889 10.6611 12.5295 10.5204C12.6702 10.3798 12.7492 10.189 12.7492 9.99011V5.99011ZM7.24219 18.5351C7.56894 19.5392 8.20507 20.4142 9.05948 21.0347C9.91389 21.6551 10.9427 21.9893 11.9987 21.9893C13.0546 21.9893 14.0835 21.6551 14.9379 21.0347C15.7923 20.4142 16.4284 19.5392 16.7552 18.5351C13.6102 19.1251 10.3882 19.1251 7.24219 18.5351Z" fill="#637381"/>
</svg>
