<svg width="132" height="132" viewBox="0 0 132 132" fill="none" xmlns="http://www.w3.org/2000/svg">
<rect opacity="0.24" x="15.8398" y="26.3999" width="100.32" height="21.12" rx="8" fill="#919EAB"/>
<path opacity="0.48" d="M32.2298 36.1898H29.1498V33.1098C29.1498 32.6846 28.805 32.3398 28.3798 32.3398C27.9545 32.3398 27.6098 32.6846 27.6098 33.1098V36.1898H24.5298C24.1045 36.1898 23.7598 36.5346 23.7598 36.9598C23.7598 37.3851 24.1045 37.7298 24.5298 37.7298H27.6098V40.8098C27.6098 41.2351 27.9545 41.5798 28.3798 41.5798C28.805 41.5798 29.1498 41.2351 29.1498 40.8098V37.7298H32.2298C32.655 37.7298 32.9998 37.3851 32.9998 36.9598C32.9998 36.5346 32.655 36.1898 32.2298 36.1898Z" fill="#919EAB"/>
<rect x="40.9199" y="33.6599" width="52.8" height="6.6" rx="3.3" fill="#919EAB"/>
<rect opacity="0.24" x="23.7598" y="55.4399" width="92.4" height="21.12" rx="8" fill="#919EAB"/>
<path opacity="0.48" d="M40.1497 66.9898H32.4497C32.0244 66.9898 31.6797 66.6205 31.6797 66.1648C31.6797 65.7092 32.0244 65.3398 32.4497 65.3398H40.1497C40.5749 65.3398 40.9197 65.7092 40.9197 66.1648C40.9197 66.6205 40.5749 66.9898 40.1497 66.9898Z" fill="#919EAB"/>
<rect opacity="0.48" x="48.8398" y="62.7" width="44.88" height="6.6" rx="3.3" fill="#919EAB"/>
<rect opacity="0.24" x="23.7598" y="84.48" width="92.4" height="21.12" rx="8" fill="#919EAB"/>
<path opacity="0.48" d="M40.1497 96.0299H32.4497C32.0244 96.0299 31.6797 95.6605 31.6797 95.2049C31.6797 94.7492 32.0244 94.3799 32.4497 94.3799H40.1497C40.5749 94.3799 40.9197 94.7492 40.9197 95.2049C40.9197 95.6605 40.5749 96.0299 40.1497 96.0299Z" fill="#919EAB"/>
<rect opacity="0.24" x="48.8398" y="91.74" width="44.88" height="6.6" rx="3.3" fill="#919EAB"/>
</svg>
