<svg width="107" height="32" viewBox="0 0 107 32" fill="none" xmlns="http://www.w3.org/2000/svg">
<path fill-rule="evenodd" clip-rule="evenodd" d="M61.4963 1.09535V3.52078C61.4963 3.83374 61.8093 4.06846 62.1222 4.1467H67.7555L61.2616 13.4572C60.8704 14.0831 60.8704 14.709 60.8704 15.1002V17.5257C60.8704 17.9169 61.2616 18.2298 61.6528 18.0733C65.3301 16.1174 69.7897 16.3521 73.0758 18.0733C73.467 18.3081 73.8582 17.9169 73.8582 17.5257V14.9438C73.8582 14.6308 73.7017 14.2396 73.3105 14.0049C71.4328 12.9095 69.242 12.6748 67.1296 12.6748L72.7628 4.69438C72.8245 4.5915 72.8836 4.49404 72.9395 4.40164C73.3091 3.79124 73.5452 3.40139 73.5452 3.12958V1.09535C73.5452 0.782396 73.2323 0.469438 72.9193 0.469438H62.1222C61.731 0.469438 61.4963 0.704156 61.4963 1.09535ZM18.7775 18.5428H22.0636C22.3765 18.5428 22.6895 18.3081 22.533 17.9951V8.99755C22.533 8.93449 22.5329 8.87082 22.5329 8.80665C22.5305 6.80094 22.5275 4.30318 24.802 4.30318C26.9092 4.30318 26.8724 6.57332 26.8428 8.3962C26.8395 8.60379 26.8362 8.80558 26.8362 8.99755V17.9951C26.8362 18.3081 27.1491 18.621 27.4621 18.621H30.7482C31.0611 18.621 31.3741 18.3081 31.3741 17.9951V8.99755C31.3741 7.98044 31.3741 6.57213 31.687 5.71149C32 4.85085 32.8606 4.30318 33.643 4.30318C34.6601 4.30318 35.3643 4.69438 35.599 5.78973C35.722 6.343 35.7 7.57248 35.685 8.41555C35.6808 8.64548 35.6773 8.84666 35.6773 8.99755V17.9951C35.6773 18.3081 35.9902 18.621 36.3032 18.621H39.5892C39.9022 18.621 40.2152 18.3081 40.2152 17.9951V7.27628C40.2152 6.98061 40.221 6.68106 40.2268 6.38069C40.258 4.77343 40.2897 3.14255 39.4328 1.95599C38.4939 0.625917 37.0073 0.0782396 35.599 0.0782396C33.643 0.0782396 31.8435 1.09535 31.0611 3.20782C30.2005 1.09535 28.8704 0.0782396 26.8362 0.0782396C24.8802 0.0782396 23.3154 1.09535 22.533 3.20782H22.4548V1.01711C22.3765 0.704156 22.1418 0.469438 21.8288 0.469438H18.7775C18.4645 0.469438 18.1516 0.782396 18.1516 1.09535V17.9951C18.2298 18.3081 18.4645 18.5428 18.7775 18.5428ZM75.5012 9.54523C75.423 4.22494 78.0831 0.156479 82.8557 0.156479C87.7848 0.156479 90.445 4.30318 90.3667 9.70171C90.3667 14.8655 87.4719 18.934 82.8557 18.934C78.0831 18.934 75.5012 14.7873 75.5012 9.54523ZM80.3519 9.1789C80.3498 11.3503 80.3456 15.4914 82.8557 15.4914C85.3594 15.4914 85.5159 11.8924 85.5941 9.70171C85.5941 8.2934 85.5159 6.57213 85.1247 5.24205C84.7335 4.06846 83.9511 3.59902 82.934 3.59902C80.5085 3.59902 80.3521 6.96332 80.3521 8.99755C80.3521 9.0563 80.352 9.11679 80.3519 9.1789ZM93.4181 18.5428H96.7041C97.0953 18.5428 97.4083 18.3081 97.4083 17.9951V8.84107C97.4083 7.66748 97.4865 6.65037 97.956 5.63325C98.2689 4.85085 99.0513 4.30318 99.8337 4.30318C101.912 4.30318 101.89 6.53573 101.871 8.35402C101.87 8.52052 101.868 8.68355 101.868 8.84107V17.9951C101.946 18.3081 102.181 18.5428 102.494 18.5428H105.702C106.015 18.5428 106.328 18.3081 106.328 17.9951V7.35452C106.328 5.71149 106.328 3.44254 105.467 2.11247C104.528 0.704156 103.12 0.156479 101.633 0.156479C99.3643 0.156479 98.1124 1.17359 97.1736 3.52078H97.0953V0.938875C97.0171 0.704156 96.7824 0.469438 96.4694 0.469438H93.4181C93.1051 0.469438 92.7922 0.704156 92.7922 1.01711V17.9169C92.7922 18.2298 93.1051 18.5428 93.4181 18.5428ZM58.5938 15.2682C58.6482 15.3418 58.7031 15.416 58.7579 15.4914C58.9927 15.8044 58.9927 16.1956 58.6797 16.2738C58.3276 16.5477 57.8582 16.9584 57.3887 17.3692C56.9193 17.78 56.4499 18.1907 56.0978 18.4645C55.8631 18.621 55.5501 18.6993 55.3154 18.5428C54.4767 17.8838 54.1884 17.4542 53.8184 16.9026C53.7052 16.7339 53.5843 16.5537 53.4376 16.3521C51.6381 18.2298 50.3863 18.7775 48.0391 18.7775C45.3007 18.7775 43.11 17.0562 43.11 13.6919C43.11 10.9535 44.5966 9.15403 46.6308 8.2934C48.118 7.6468 50.0861 7.4277 51.7844 7.23863C52.141 7.19893 52.4858 7.16054 52.8117 7.1198V6.72861C52.8117 6.63243 52.8129 6.5339 52.8141 6.43373C52.8227 5.71895 52.8323 4.92078 52.4205 4.30318C52.0293 3.67726 51.3252 3.44254 50.621 3.44254C49.3692 3.44254 48.1956 4.06846 47.9609 5.39853C47.8826 5.71149 47.7262 6.02445 47.4132 6.02445L44.2054 5.71149C43.9707 5.63325 43.6577 5.39853 43.7359 5.00733C44.5183 1.17359 47.9609 0 51.0905 0C52.7335 0 54.846 0.391198 56.0196 1.64303C57.5299 3.08149 57.5196 4.85052 57.5081 6.82858C57.5071 7.00231 57.5061 7.17765 57.5061 7.35452V12.4401C57.5061 13.7964 58.0271 14.5014 58.5938 15.2682ZM49.9951 15.4914C50.934 15.4914 51.7164 14.9438 52.264 14.0049C52.89 12.8313 52.89 11.7359 52.89 10.4841V9.77995C50.4645 9.77995 47.9609 10.2494 47.9609 13.066C47.9609 14.5526 48.7433 15.4914 49.9951 15.4914ZM15.4056 15.2682C15.46 15.3418 15.5148 15.416 15.5697 15.4914C15.8044 15.8044 15.8826 16.1956 15.5697 16.2738C15.2176 16.5477 14.7482 16.9584 14.2787 17.3692C13.8093 17.7799 13.3399 18.1907 12.9878 18.4645C12.7531 18.621 12.4401 18.6993 12.2054 18.5428C11.3667 17.8838 11.0784 17.4542 10.7084 16.9026C10.5952 16.7339 10.4743 16.5537 10.3276 16.3521C8.52812 18.2298 7.27628 18.7775 4.92909 18.7775C2.19071 18.7775 0 17.0562 0 13.6919C0 10.9535 1.48655 9.15403 3.52078 8.2934C5.00795 7.6468 6.97605 7.4277 8.67434 7.23863C9.03101 7.19893 9.37579 7.16054 9.70171 7.1198V6.72861C9.70171 6.63243 9.70289 6.53389 9.70409 6.43372C9.71267 5.71894 9.72225 4.92078 9.31051 4.30318C8.91931 3.67726 8.21516 3.44254 7.511 3.44254C6.25917 3.44254 5.08557 4.06846 4.85085 5.39853C4.77262 5.71149 4.61614 6.02445 4.30318 6.02445L1.09535 5.71149C0.782396 5.63325 0.547677 5.47677 0.625917 5.00733C1.40831 1.17359 4.85085 0 7.98044 0C9.54523 0 11.6577 0.391198 12.8313 1.64303C14.3417 3.08149 14.3314 4.85053 14.3199 6.82859C14.3189 7.00232 14.3178 7.17765 14.3178 7.35452V12.4401C14.3178 13.7964 14.8389 14.5014 15.4056 15.2682ZM6.88508 15.4914C7.82396 15.4914 8.60636 14.9438 9.15403 14.0049C9.77995 12.8313 9.77995 11.7359 9.77995 10.4841V9.77995C7.35452 9.77995 4.85085 10.2494 4.85085 13.066C4.85085 14.5526 5.63325 15.4914 6.88508 15.4914ZM43.1898 32C50.9355 32 59.8548 29.5746 66.0357 25.0367C67.0528 24.3325 66.1922 23.1589 65.0968 23.5501C58.2118 26.5232 50.6225 27.9315 43.8157 27.9315C33.6445 27.9315 23.7863 25.1932 15.8841 20.577C15.18 20.1076 14.7105 20.8117 15.2582 21.3594C22.691 28.0098 32.3927 32 43.1898 32ZM61.4843 21.8211C63.4721 21.5824 67.8437 21.0575 68.6176 22.0636C69.3489 23.0873 67.8931 26.7765 67.1248 28.7236C67.071 28.8598 67.0206 28.9875 66.9746 29.1051C66.7399 29.6528 67.2093 29.8875 67.757 29.4963C71.1213 26.7579 71.9819 20.89 71.2778 20.1076C70.5736 19.3252 64.7839 18.5428 61.2631 21.0465C60.7154 21.3594 60.7937 21.9071 61.4196 21.8289L61.4843 21.8211Z" fill="white"/>
</svg>
