<svg width="16" height="16" viewBox="0 0 16 16" fill="none" xmlns="http://www.w3.org/2000/svg">
<path fill-rule="evenodd" clip-rule="evenodd" d="M13.6513 2.34079C13.4656 2.15504 13.2451 2.00769 13.0024 1.90716C12.7597 1.80663 12.4996 1.75488 12.237 1.75488C11.9743 1.75488 11.7142 1.80663 11.4715 1.90716C11.2289 2.00769 11.0084 2.15504 10.8226 2.34079L9.80064 3.36279C9.42827 3.18391 9.00954 3.1251 8.6023 3.19448C8.19506 3.26387 7.81943 3.45803 7.52731 3.75012L7.05197 4.22612C6.9281 4.34994 6.82984 4.49695 6.7628 4.65875C6.69576 4.82056 6.66126 4.99398 6.66126 5.16912C6.66126 5.34426 6.69576 5.51769 6.7628 5.67949C6.82984 5.84129 6.9281 5.9883 7.05197 6.11212L2.72797 10.4355C2.54228 10.6213 2.39502 10.8418 2.29458 11.0846C2.19415 11.3273 2.14252 11.5874 2.14264 11.8501V13.0501C2.14264 13.2623 2.22692 13.4658 2.37695 13.6158C2.52698 13.7658 2.73047 13.8501 2.94264 13.8501H4.14264C4.67289 13.8497 5.18126 13.6386 5.55597 13.2635L9.87997 8.94079C10.0038 9.06466 10.1508 9.16292 10.3126 9.22996C10.4744 9.297 10.6478 9.3315 10.823 9.3315C10.9981 9.3315 11.1715 9.297 11.3333 9.22996C11.4951 9.16292 11.6422 9.06466 11.766 8.94079L12.242 8.46412C12.5341 8.172 12.7282 7.79636 12.7976 7.38913C12.867 6.98189 12.8082 6.56316 12.6293 6.19079L13.6513 5.16946C13.8371 4.98373 13.9844 4.76324 14.0849 4.52057C14.1855 4.27789 14.2372 4.01779 14.2372 3.75512C14.2372 3.49245 14.1855 3.23235 14.0849 2.98968C13.9844 2.747 13.8371 2.52651 13.6513 2.34079ZM3.67131 11.3781L7.99464 7.05479L8.93731 7.99746L4.61397 12.3215C4.48898 12.4465 4.31944 12.5168 4.14264 12.5168H3.47597V11.8501C3.47601 11.6733 3.54627 11.5038 3.67131 11.3788V11.3781Z" fill="white"/>
</svg>
