<svg width="132" height="132" viewBox="0 0 132 132" fill="none" xmlns="http://www.w3.org/2000/svg">
<path opacity="0.24" fill-rule="evenodd" clip-rule="evenodd" d="M50.1602 42.24C45.7861 42.24 42.2402 45.7859 42.2402 50.16V81.84C42.2402 86.2141 45.7861 89.76 50.1602 89.76H81.8402C86.2143 89.76 89.7602 86.2141 89.7602 81.84V50.16C89.7602 45.7859 86.2143 42.24 81.8402 42.24H50.1602ZM54.1202 47.52C50.4752 47.52 47.5202 50.4749 47.5202 54.12V77.88C47.5202 81.5251 50.4752 84.48 54.1202 84.48H77.8802C81.5253 84.48 84.4802 81.5251 84.4802 77.88V54.12C84.4802 50.4749 81.5253 47.52 77.8802 47.52H54.1202Z" fill="#919EAB"/>
<path d="M74.6121 56.9836C75.5765 55.8959 77.2366 55.7992 78.3199 56.7676C79.3857 57.7203 79.4961 59.3491 78.5809 60.4373L78.5351 60.4904L65.2047 75.5243C64.2161 76.6392 62.5085 76.7058 61.4367 75.6849L61.3862 75.6355L53.569 67.7865C52.5434 66.7567 52.5434 65.0872 53.569 64.0574C54.5778 63.0445 56.2031 63.0279 57.2321 64.0076L57.283 64.0574L63.132 69.9303L74.6121 56.9836Z" fill="#919EAB"/>
</svg>
