<svg width="32" height="32" viewBox="0 0 32 32" fill="none" xmlns="http://www.w3.org/2000/svg">
<path fill-rule="evenodd" clip-rule="evenodd" d="M12.7893 4.26684C12.5796 4.45659 12.3593 4.63421 12.1293 4.79884C11.732 5.06551 11.2853 5.24951 10.816 5.34284C10.612 5.38284 10.3987 5.40017 9.97333 5.43351C8.90533 5.51884 8.37066 5.56151 7.92533 5.71884C7.41612 5.89862 6.95363 6.19013 6.57179 6.57197C6.18995 6.95382 5.89844 7.41631 5.71866 7.92551C5.56133 8.37084 5.51866 8.90551 5.43333 9.97351C5.41878 10.2559 5.38851 10.5372 5.34266 10.8162C5.24933 11.2855 5.06533 11.7322 4.79866 12.1295C4.68266 12.3028 4.54399 12.4655 4.26666 12.7895C3.57199 13.6055 3.22399 14.0135 3.01999 14.4402C2.54933 15.4268 2.54933 16.5735 3.01999 17.5602C3.22399 17.9868 3.57199 18.3948 4.26666 19.2108C4.54399 19.5348 4.68266 19.6975 4.79866 19.8708C5.06533 20.2682 5.24933 20.7148 5.34266 21.1842C5.38266 21.3882 5.39999 21.6015 5.43333 22.0268C5.51866 23.0948 5.56133 23.6295 5.71866 24.0748C5.89844 24.584 6.18995 25.0465 6.57179 25.4284C6.95363 25.8102 7.41612 26.1017 7.92533 26.2815C8.37066 26.4388 8.90533 26.4815 9.97333 26.5668C10.3987 26.6002 10.612 26.6175 10.816 26.6575C11.2853 26.7508 11.732 26.9362 12.1293 27.2015C12.3027 27.3175 12.4653 27.4562 12.7893 27.7335C13.6053 28.4282 14.0133 28.7762 14.44 28.9802C15.4267 29.4508 16.5733 29.4508 17.56 28.9802C17.9867 28.7762 18.3947 28.4282 19.2107 27.7335C19.5347 27.4562 19.6973 27.3175 19.8707 27.2015C20.268 26.9348 20.7147 26.7508 21.184 26.6575C21.388 26.6175 21.6013 26.6002 22.0267 26.5668C23.0947 26.4815 23.6293 26.4388 24.0747 26.2815C24.5839 26.1017 25.0464 25.8102 25.4282 25.4284C25.81 25.0465 26.1015 24.584 26.2813 24.0748C26.4387 23.6295 26.4813 23.0948 26.5667 22.0268C26.6 21.6015 26.6173 21.3882 26.6573 21.1842C26.7507 20.7148 26.936 20.2682 27.2013 19.8708C27.3173 19.6975 27.456 19.5348 27.7333 19.2108C28.428 18.3948 28.776 17.9868 28.98 17.5602C29.4507 16.5735 29.4507 15.4268 28.98 14.4402C28.776 14.0135 28.428 13.6055 27.7333 12.7895C27.5436 12.5798 27.366 12.3595 27.2013 12.1295C26.9349 11.732 26.75 11.2856 26.6573 10.8162C26.6115 10.5372 26.5812 10.2559 26.5667 9.97351C26.4813 8.90551 26.4387 8.37084 26.2813 7.92551C26.1015 7.41631 25.81 6.95382 25.4282 6.57197C25.0464 6.19013 24.5839 5.89862 24.0747 5.71884C23.6293 5.56151 23.0947 5.51884 22.0267 5.43351C21.7443 5.41896 21.463 5.38869 21.184 5.34284C20.7145 5.25016 20.2681 5.06525 19.8707 4.79884C19.641 4.63386 19.4206 4.45625 19.2107 4.26684C18.3947 3.57217 17.9867 3.22417 17.56 3.02017C17.0729 2.78735 16.5399 2.6665 16 2.6665C15.4601 2.6665 14.9271 2.78735 14.44 3.02017C14.0133 3.22417 13.6053 3.57217 12.7893 4.26684ZM21.8307 13.1508C22.0191 12.9446 22.1208 12.6736 22.1145 12.3943C22.1082 12.115 21.9944 11.8489 21.7969 11.6513C21.5993 11.4538 21.3332 11.34 21.0539 11.3337C20.7746 11.3274 20.5036 11.4291 20.2973 11.6175L13.8307 18.0842L11.7027 15.9575C11.4964 15.7691 11.2254 15.6674 10.9461 15.6737C10.6668 15.68 10.4007 15.7938 10.2031 15.9913C10.0056 16.1889 9.89182 16.455 9.88552 16.7343C9.87923 17.0136 9.98088 17.2846 10.1693 17.4908L13.0627 20.3842C13.2661 20.5872 13.5419 20.7013 13.8293 20.7013C14.1168 20.7013 14.3925 20.5872 14.596 20.3842L21.832 13.1508H21.8307Z" fill="#00A76F"/>
</svg>
