<svg width="132" height="132" viewBox="0 0 132 132" fill="none" xmlns="http://www.w3.org/2000/svg">
<rect x="77.2202" y="60.72" width="31.68" height="10.56" rx="5.28" fill="#919EAB"/>
<rect opacity="0.48" x="23.1001" y="34.3201" width="31.68" height="10.56" rx="5.28" fill="#919EAB"/>
<rect opacity="0.24" x="23.1001" y="87.1201" width="31.68" height="10.56" rx="5.28" fill="#919EAB"/>
<path opacity="0.24" d="M65.9998 74.6928C66.5506 74.6928 66.9898 75.0266 66.9898 75.5775V82.8226C66.9898 83.3735 66.5506 83.7074 65.9998 83.7074C65.4489 83.7074 65.0098 83.3735 65.0098 82.8226V75.5775C65.0098 75.0266 65.4489 74.6928 65.9998 74.6928Z" fill="#919EAB"/>
<path opacity="0.24" d="M65.9998 48.2926C66.5506 48.2926 66.9898 48.6265 66.9898 49.1774V56.4225C66.9898 56.9734 66.5506 57.3072 65.9998 57.3072C65.4489 57.3072 65.0098 56.9734 65.0098 56.4225V49.1774C65.0098 48.6265 65.4489 48.2926 65.9998 48.2926Z" fill="#919EAB"/>
<path opacity="0.24" d="M65.9998 30.9117C65.4492 30.9117 65.0098 30.5736 65.0098 30.0231V25.5019C65.0098 24.8527 65.4058 24.4199 65.9998 24.4199C66.5938 24.4199 66.9898 24.8527 66.9898 25.5019V30.0231C66.9898 30.5736 66.5503 30.9117 65.9998 30.9117Z" fill="#919EAB"/>
<path opacity="0.24" d="M65.9998 101.088C66.5503 101.088 66.9898 101.426 66.9898 101.977V106.498C66.9898 107.147 66.5938 107.58 65.9998 107.58C65.4058 107.58 65.0098 107.147 65.0098 106.498V101.977C65.0098 101.426 65.4492 101.088 65.9998 101.088Z" fill="#919EAB"/>
<circle opacity="0.24" cx="66.0001" cy="39.5999" r="5.94" fill="#919EAB"/>
<circle opacity="0.24" cx="66.0001" cy="66.0001" r="5.94" fill="#919EAB"/>
<ellipse opacity="0.24" cx="66.0001" cy="92.4" rx="5.94" ry="5.94" fill="#919EAB"/>
</svg>
