<svg width="118" height="114" viewBox="0 0 118 114" fill="none" xmlns="http://www.w3.org/2000/svg">
<g opacity="0.48">
<g filter="url(#filter0_di_0_33470)">
<path d="M8.45781 36.2164C9.01925 33.7107 11.4453 32.5582 14.01 32.4312C19.1241 32.178 30.0051 31.8257 50.9543 31.8257C71.9034 31.8257 82.7845 32.178 87.8986 32.4312C90.4632 32.5582 92.8893 33.7107 93.4508 36.2164C93.693 37.2973 93.8631 38.6736 93.8631 40.4075C93.8631 42.1415 93.693 43.5178 93.4508 44.5986C92.8893 47.1043 90.4632 48.2568 87.8986 48.3838C82.7845 48.637 71.9034 48.9893 50.9543 48.9893C30.0051 48.9893 19.1241 48.637 14.01 48.3838C11.4453 48.2568 9.01925 47.1043 8.45781 44.5986C8.21563 43.5178 8.04541 42.1415 8.04541 40.4075C8.04541 38.6736 8.21563 37.2973 8.45781 36.2164Z" fill="#DFE3E8"/>
</g>
<g opacity="0.48">
<path d="M54.9245 60.0382C54.861 59.2053 54.5207 58.3959 53.7528 58.0668C53.1437 57.8057 52.2388 57.5712 50.9539 57.5712C49.6861 57.5712 48.7883 57.7994 48.1794 58.0562C47.3948 58.3873 47.0513 59.2113 46.9913 60.0607C46.7853 62.9712 46.3832 70.2615 46.964 76.5946C47.0385 77.4056 47.3777 78.1904 48.1241 78.5167C48.7334 78.7829 49.6471 79.0256 50.9539 79.0256C52.2388 79.0256 53.1437 78.7911 53.7528 78.53C54.5207 78.2009 54.8637 77.3908 54.9337 76.5585C55.5218 69.5537 55.1336 62.7792 54.9245 60.0382Z" fill="#C4CDD5"/>
<path d="M74.4478 60.8331C74.5409 59.48 73.8359 58.162 72.521 57.8288C70.7293 57.3749 69.0631 57.5952 67.8598 57.9204C66.621 58.2553 65.8383 59.3776 65.6283 60.6434C64.4442 67.7837 64.0383 73.0151 63.8991 75.7628C63.8304 77.1174 64.5444 78.4347 65.8594 78.7679C67.615 79.2129 69.2502 79.0101 70.4476 78.6958C71.7306 78.3588 72.5244 77.1784 72.7125 75.8654C73.8425 67.9708 74.2791 63.2793 74.4478 60.8331Z" fill="#C4CDD5"/>
<path d="M27.46 60.8331C27.3669 59.48 28.0719 58.162 29.3868 57.8288C31.1785 57.3749 32.8446 57.5952 34.048 57.9204C35.2868 58.2553 36.0695 59.3776 36.2795 60.6434C37.4636 67.7837 37.8695 73.0151 38.0087 75.7628C38.0774 77.1174 37.3634 78.4347 36.0484 78.7679C34.2928 79.2129 32.6576 79.0101 31.4602 78.6958C30.1772 78.3588 29.3834 77.1784 29.1952 75.8654C28.0652 67.9708 27.6286 63.2793 27.46 60.8331Z" fill="#C4CDD5"/>
</g>
<g filter="url(#filter1_di_0_33470)">
<path fill-rule="evenodd" clip-rule="evenodd" d="M13.1838 48.3063C14.1136 55.9199 15.8785 68.003 18.8132 79.8712C19.9915 84.6362 23.9843 88.1123 28.8669 88.616C34.2648 89.173 42.0298 89.7531 50.9551 89.7531C59.8803 89.7531 67.6453 89.173 73.0433 88.616C77.9259 88.1123 81.9187 84.6362 83.0968 79.8712C86.0316 68.003 87.7965 55.9199 88.7263 48.3062C88.4537 48.3445 88.1772 48.3704 87.8992 48.3841C82.7851 48.6373 71.904 48.9896 50.9549 48.9896C30.0057 48.9896 19.1247 48.6373 14.0106 48.3841C13.7326 48.3704 13.4563 48.3445 13.1838 48.3063ZM53.754 58.0669C54.5219 58.3961 54.8622 59.2055 54.9257 60.0384C55.1349 62.7794 55.523 69.5539 54.9349 76.5587C54.865 77.3909 54.5219 78.2011 53.754 78.5302C53.145 78.7913 52.24 79.0258 50.9551 79.0258C49.6483 79.0258 48.7346 78.7831 48.1253 78.5169C47.3789 78.1905 47.0397 77.4057 46.9652 76.5948C46.3845 70.2616 46.7865 62.9714 46.9925 60.0609C47.0525 59.2115 47.396 58.3875 48.1806 58.0564C48.7895 57.7996 49.6874 57.5713 50.9551 57.5713C52.24 57.5713 53.145 57.8058 53.754 58.0669ZM72.5222 57.829C73.8371 58.1622 74.5421 59.4801 74.449 60.8333C74.2804 63.2795 73.8437 67.971 72.7138 75.8655C72.5256 77.1786 71.7318 78.359 70.4488 78.696C69.2514 79.0103 67.6162 79.2131 65.8606 78.7681C64.5456 78.4349 63.8316 77.1176 63.9003 75.763C64.0395 73.0153 64.4454 67.7839 65.6295 60.6436C65.8395 59.3778 66.6222 58.2555 67.861 57.9206C69.0643 57.5954 70.7305 57.375 72.5222 57.829ZM27.4612 60.8333C27.3681 59.4801 28.0731 58.1622 29.388 57.829C31.1797 57.375 32.8459 57.5954 34.0492 57.9206C35.288 58.2555 36.0707 59.3778 36.2807 60.6436C37.4648 67.7839 37.8707 73.0153 38.0099 75.763C38.0786 77.1176 37.3646 78.4349 36.0496 78.7681C34.294 79.2131 32.6588 79.0103 31.4614 78.696C30.1784 78.359 29.3846 77.1786 29.1965 75.8655C28.0665 67.971 27.6299 63.2795 27.4612 60.8333Z" fill="#919EAB"/>
</g>
<g opacity="0.48" filter="url(#filter2_di_0_33470)">
<path d="M24.605 32.0751C30.0221 31.9518 37.2735 31.8527 46.8617 31.8305C46.2831 30.4162 45.3566 29.0803 44.1855 27.9616C39.3761 23.3669 31.8801 16.4004 24.1402 9.96558C21.3975 7.68528 17.3743 7.27728 14.6722 9.60553C14.4889 9.76346 14.3213 9.91705 14.1747 10.0636C14.0281 10.2102 13.8745 10.3778 13.7166 10.5611C11.3884 13.2632 11.7964 17.2863 14.0767 20.029C17.585 24.2488 21.2513 28.3961 24.605 32.0751Z" fill="#919EAB"/>
<path d="M77.3024 32.0751C80.6562 28.3961 84.3225 24.2488 87.8309 20.029C90.1111 17.2863 90.5191 13.2632 88.1909 10.5611C88.033 10.3778 87.8794 10.2102 87.7328 10.0636C87.5861 9.91705 87.4185 9.76346 87.2353 9.60553C84.5331 7.27728 80.51 7.68528 77.7673 9.96558C70.0274 16.4004 62.5314 23.3669 57.722 27.9616C56.5509 29.0803 55.6244 30.4162 55.0458 31.8305C64.634 31.8527 71.8854 31.9518 77.3024 32.0751Z" fill="#919EAB"/>
</g>
</g>
<defs>
<filter id="filter0_di_0_33470" x="0" y="23.7803" width="118" height="49.3452" filterUnits="userSpaceOnUse" color-interpolation-filters="sRGB">
<feFlood flood-opacity="0" result="BackgroundImageFix"/>
<feColorMatrix in="SourceAlpha" type="matrix" values="0 0 0 0 0 0 0 0 0 0 0 0 0 0 0 0 0 0 127 0" result="hardAlpha"/>
<feOffset dx="8" dy="8"/>
<feGaussianBlur stdDeviation="8"/>
<feColorMatrix type="matrix" values="0 0 0 0 0.270588 0 0 0 0 0.309804 0 0 0 0 0.356863 0 0 0 0.16 0"/>
<feBlend mode="normal" in2="BackgroundImageFix" result="effect1_dropShadow_0_33470"/>
<feBlend mode="normal" in="SourceGraphic" in2="effect1_dropShadow_0_33470" result="shape"/>
<feColorMatrix in="SourceAlpha" type="matrix" values="0 0 0 0 0 0 0 0 0 0 0 0 0 0 0 0 0 0 127 0" result="hardAlpha"/>
<feOffset dx="-2"/>
<feGaussianBlur stdDeviation="2"/>
<feComposite in2="hardAlpha" operator="arithmetic" k2="-1" k3="1"/>
<feColorMatrix type="matrix" values="0 0 0 0 0.270588 0 0 0 0 0.309804 0 0 0 0 0.356863 0 0 0 0.48 0"/>
<feBlend mode="normal" in2="shape" result="effect2_innerShadow_0_33470"/>
</filter>
<filter id="filter1_di_0_33470" x="5.13838" y="40.2608" width="107.723" height="73.6285" filterUnits="userSpaceOnUse" color-interpolation-filters="sRGB">
<feFlood flood-opacity="0" result="BackgroundImageFix"/>
<feColorMatrix in="SourceAlpha" type="matrix" values="0 0 0 0 0 0 0 0 0 0 0 0 0 0 0 0 0 0 127 0" result="hardAlpha"/>
<feOffset dx="8" dy="8"/>
<feGaussianBlur stdDeviation="8"/>
<feColorMatrix type="matrix" values="0 0 0 0 0.270588 0 0 0 0 0.309804 0 0 0 0 0.356863 0 0 0 0.16 0"/>
<feBlend mode="normal" in2="BackgroundImageFix" result="effect1_dropShadow_0_33470"/>
<feBlend mode="normal" in="SourceGraphic" in2="effect1_dropShadow_0_33470" result="shape"/>
<feColorMatrix in="SourceAlpha" type="matrix" values="0 0 0 0 0 0 0 0 0 0 0 0 0 0 0 0 0 0 127 0" result="hardAlpha"/>
<feOffset dx="-2" dy="-2"/>
<feGaussianBlur stdDeviation="2"/>
<feComposite in2="hardAlpha" operator="arithmetic" k2="-1" k3="1"/>
<feColorMatrix type="matrix" values="0 0 0 0 0.270588 0 0 0 0 0.309804 0 0 0 0 0.356863 0 0 0 0.48 0"/>
<feBlend mode="normal" in2="shape" result="effect2_innerShadow_0_33470"/>
</filter>
<filter id="filter2_di_0_33470" x="4.11109" y="0" width="109.776" height="56.2113" filterUnits="userSpaceOnUse" color-interpolation-filters="sRGB">
<feFlood flood-opacity="0" result="BackgroundImageFix"/>
<feColorMatrix in="SourceAlpha" type="matrix" values="0 0 0 0 0 0 0 0 0 0 0 0 0 0 0 0 0 0 127 0" result="hardAlpha"/>
<feOffset dx="8" dy="8"/>
<feGaussianBlur stdDeviation="8"/>
<feColorMatrix type="matrix" values="0 0 0 0 0.270588 0 0 0 0 0.309804 0 0 0 0 0.356863 0 0 0 0.16 0"/>
<feBlend mode="normal" in2="BackgroundImageFix" result="effect1_dropShadow_0_33470"/>
<feBlend mode="normal" in="SourceGraphic" in2="effect1_dropShadow_0_33470" result="shape"/>
<feColorMatrix in="SourceAlpha" type="matrix" values="0 0 0 0 0 0 0 0 0 0 0 0 0 0 0 0 0 0 127 0" result="hardAlpha"/>
<feOffset dx="-2" dy="-2"/>
<feGaussianBlur stdDeviation="2"/>
<feComposite in2="hardAlpha" operator="arithmetic" k2="-1" k3="1"/>
<feColorMatrix type="matrix" values="0 0 0 0 0.270588 0 0 0 0 0.309804 0 0 0 0 0.356863 0 0 0 0.48 0"/>
<feBlend mode="normal" in2="shape" result="effect2_innerShadow_0_33470"/>
</filter>
</defs>
</svg>
