<svg width="20" height="20" viewBox="0 0 20 20" fill="none" xmlns="http://www.w3.org/2000/svg">
<path d="M9.16576 9.99989C9.36987 9.99992 9.56687 10.0749 9.7194 10.2105C9.87193 10.3461 9.96938 10.533 9.99326 10.7357L9.99909 10.8332V14.9999C9.99885 15.2123 9.91752 15.4166 9.77172 15.571C9.62591 15.7255 9.42663 15.8184 9.21459 15.8309C9.00256 15.8433 8.79377 15.7743 8.6309 15.638C8.46802 15.5017 8.36334 15.3083 8.33826 15.0974L8.33242 14.9999V12.8449L3.92159 17.2557C3.77163 17.4052 3.57039 17.492 3.35877 17.4984C3.14715 17.5049 2.941 17.4305 2.78219 17.2905C2.62339 17.1505 2.52384 16.9553 2.50376 16.7445C2.48368 16.5337 2.54458 16.3232 2.67409 16.1557L2.74326 16.0774L7.15409 11.6666H4.99909C4.78669 11.6663 4.5824 11.585 4.42795 11.4392C4.2735 11.2934 4.18056 11.0941 4.16811 10.8821C4.15567 10.67 4.22465 10.4612 4.36098 10.2984C4.4973 10.1355 4.69068 10.0308 4.90159 10.0057L4.99909 9.99989H9.16576ZM16.0766 2.74406C16.2266 2.5946 16.4278 2.50783 16.6394 2.50137C16.851 2.4949 17.0572 2.56923 17.216 2.70926C17.3748 2.84929 17.4743 3.04452 17.4944 3.25528C17.5145 3.46605 17.4536 3.67656 17.3241 3.84406L17.2549 3.92239L12.8441 8.33322H14.9991C15.2115 8.33346 15.4158 8.41479 15.5702 8.5606C15.7247 8.7064 15.8176 8.90568 15.8301 9.11772C15.8425 9.32975 15.7735 9.53854 15.6372 9.70142C15.5009 9.86429 15.3075 9.96897 15.0966 9.99406L14.9991 9.99989H10.8324C10.6283 9.99986 10.4313 9.92493 10.2788 9.78929C10.1263 9.65366 10.0288 9.46676 10.0049 9.26406L9.99909 9.16656V4.99989C9.99933 4.78749 10.0807 4.58319 10.2265 4.42875C10.3723 4.2743 10.5716 4.18136 10.7836 4.16891C10.9956 4.15646 11.2044 4.22545 11.3673 4.36178C11.5302 4.4981 11.6348 4.69148 11.6599 4.90239L11.6658 4.99989V7.15489L16.0766 2.74406Z" fill="#637381"/>
</svg>
