<svg width="132" height="132" viewBox="0 0 132 132" fill="none" xmlns="http://www.w3.org/2000/svg">
<path opacity="0.24" d="M15.8398 50.16C15.8398 45.7859 19.3857 42.24 23.7598 42.24H108.24C112.614 42.24 116.16 45.7859 116.16 50.16V81.84C116.16 86.2141 112.614 89.76 108.24 89.76H23.7598C19.3857 89.76 15.8398 86.2141 15.8398 81.84V50.16Z" fill="#919EAB"/>
<rect opacity="0.48" x="56.7598" y="56.76" width="21.12" height="6.6" rx="3.3" fill="#919EAB"/>
<rect opacity="0.24" x="56.7598" y="68.6399" width="42.24" height="6.6" rx="3.3" fill="#919EAB"/>
<path fill-rule="evenodd" clip-rule="evenodd" d="M39.5898 57.1989L48.3389 71.3361C48.9857 72.3688 49.0075 73.6619 48.396 74.7148C47.6977 75.8704 46.4186 76.574 45.0423 76.5597H27.5439C26.1582 76.5649 24.8769 75.843 24.1903 74.6703C23.5965 73.6288 23.6183 72.3577 24.2473 71.3361L32.9965 57.1989C33.7155 56.103 34.9582 55.4399 36.2931 55.4399C37.628 55.4399 38.8708 56.103 39.5898 57.1989ZM34.5083 72.1599C34.5083 73.132 35.3104 73.9199 36.2998 73.9199C37.2891 73.9199 38.0912 73.132 38.0912 72.1599C38.0912 71.1879 37.2891 70.3999 36.2998 70.3999C35.3104 70.3999 34.5083 71.1879 34.5083 72.1599ZM36.2998 68.6399C37.2891 68.6399 38.0912 67.852 38.0912 66.8799V59.8399C38.0912 58.8679 37.2891 58.0799 36.2998 58.0799C35.3104 58.0799 34.5083 58.8679 34.5083 59.8399V66.8799C34.5083 67.852 35.3104 68.6399 36.2998 68.6399Z" fill="#919EAB"/>
</svg>
