<svg width="232" height="232" viewBox="0 0 232 232" fill="none" xmlns="http://www.w3.org/2000/svg">
<path fill-rule="evenodd" clip-rule="evenodd" d="M115.498 1.00359C87.7263 1.12231 62.2787 11.0852 42.464 27.583L56.6681 44.5108C72.6418 31.2391 93.1348 23.2194 115.498 23.1013V1.00359ZM41.6964 28.2278L55.9005 45.1556C39.8452 58.7891 28.4841 77.783 24.5829 99.3717L2.81825 95.534C7.63458 68.7211 21.7453 45.1343 41.6964 28.2278ZM56.5449 45.9236C40.6663 59.4086 29.4301 78.1941 25.5704 99.5459L47.3371 103.384C50.2811 87.2566 58.7673 73.064 70.7497 62.8522L56.5449 45.9236ZM71.3941 63.6202C59.5885 73.6835 51.2271 87.6677 48.3245 103.558L70.0898 107.396C72.0764 96.7296 77.6883 87.3381 85.5986 80.5484L71.3941 63.6202ZM48.1516 104.546L69.9169 108.383C69.5103 110.862 69.2989 113.406 69.2989 116C69.2989 124.329 71.4792 132.149 75.3003 138.919L56.1603 149.97C50.4589 139.948 47.2024 128.354 47.2024 116C47.2024 112.097 47.5273 108.271 48.1516 104.546ZM70.3014 116C70.3014 124.146 72.4329 131.795 76.1687 138.418L95.3111 127.366C93.4549 123.995 92.3988 120.121 92.3988 116C92.3988 114.774 92.4922 113.571 92.6723 112.396L70.9044 108.557C70.5077 110.98 70.3014 113.466 70.3014 116ZM93.6599 112.57C93.4896 113.688 93.4013 114.834 93.4013 116C93.4013 119.938 94.4086 123.641 96.1797 126.865L114.557 116.255L93.6599 112.57ZM95.8132 128.234L76.6708 139.286C81.9356 148.159 90.1177 155.097 99.8954 158.78L107.456 138.007C102.583 136.114 98.4944 132.648 95.8132 128.234ZM107.799 137.064C103.148 135.252 99.2456 131.945 96.6818 127.732L115.057 117.123L107.799 137.064ZM108.398 138.35L100.837 159.123C105.582 160.791 110.685 161.698 116 161.698C121.314 161.698 126.417 160.791 131.161 159.123L123.6 138.35C121.215 139.161 118.659 139.601 116 139.601C113.34 139.601 110.783 139.161 108.398 138.35ZM123.257 137.408C120.979 138.18 118.538 138.598 116 138.598C113.461 138.598 111.019 138.18 108.741 137.407L115.999 117.466L123.257 137.408ZM124.542 138.007L132.103 158.78C141.881 155.098 150.064 148.159 155.328 139.286L136.186 128.234C133.505 132.649 129.416 136.114 124.542 138.007ZM135.318 127.732C132.754 131.945 128.851 135.253 124.199 137.065L116.941 117.123L135.318 127.732ZM136.688 127.366L155.831 138.418C159.566 131.795 161.698 124.146 161.698 116C161.698 113.466 161.491 110.979 161.095 108.557L139.327 112.396C139.507 113.571 139.601 114.774 139.601 116C139.601 120.121 138.545 123.995 136.688 127.366ZM138.34 112.57C138.51 113.688 138.598 114.834 138.598 116C138.598 119.938 137.591 123.641 135.82 126.865L117.442 116.254L138.34 112.57ZM139.154 111.408L160.922 107.57C158.977 97.1407 153.49 87.9576 145.756 81.3165L131.551 98.246C135.39 101.612 138.128 106.202 139.154 111.408ZM130.906 99.0142C134.569 102.231 137.182 106.614 138.167 111.582L117.268 115.267L130.906 99.0142ZM130.783 97.6012L144.988 80.6717C137.22 74.2902 127.311 70.4206 116.5 70.3045V92.404C121.902 92.5164 126.858 94.4439 130.783 97.6012ZM116.5 93.4067C121.657 93.5188 126.388 95.3582 130.138 98.3694L116.5 114.623V93.4067ZM115.498 92.404V70.3046C104.688 70.4209 94.7784 74.2904 87.0107 80.6717L101.216 97.6014C105.141 94.4442 110.096 92.5167 115.498 92.404ZM101.861 98.3696C105.611 95.3586 110.342 93.5192 115.498 93.4068V114.621L101.861 98.3696ZM101.093 99.0144L114.731 115.267L93.8328 111.582C94.8174 106.614 97.4309 102.231 101.093 99.0144ZM100.449 98.2462C96.6097 101.612 93.8716 106.203 92.8452 111.408L71.0773 107.57C73.0223 97.1407 78.5095 87.9576 86.2431 81.3165L100.449 98.2462ZM56.6624 150.838L75.8024 139.787C81.1843 148.862 89.5522 155.959 99.5524 159.722L91.9926 180.493C77.0874 174.942 64.6257 164.372 56.6624 150.838ZM92.9346 180.836L100.494 160.065C105.346 161.772 110.564 162.701 116 162.701C121.435 162.701 126.653 161.772 131.504 160.065L139.064 180.837C131.854 183.401 124.09 184.798 116 184.798C107.91 184.798 100.145 183.401 92.9346 180.836ZM140.006 180.494L132.446 159.722C142.447 155.959 150.815 148.863 156.197 139.787L175.338 150.838C167.374 164.373 154.912 174.943 140.006 180.494ZM175.84 149.97L156.699 138.919C160.52 132.149 162.7 124.329 162.7 116C162.7 113.406 162.489 110.862 162.082 108.383L183.849 104.545C184.473 108.27 184.798 112.097 184.798 116C184.798 128.355 181.542 139.949 175.84 149.97ZM183.676 103.558L161.909 107.396C159.923 96.7295 154.311 87.3381 146.401 80.5485L160.606 63.6195C172.412 73.6828 180.773 87.6671 183.676 103.558ZM159.838 62.9747L145.633 79.9037C137.691 73.3759 127.556 69.4181 116.5 69.302V47.2037C132.964 47.3209 148.054 53.2213 159.838 62.9747ZM115.498 47.2037V69.302C104.443 69.4184 94.3083 73.3761 86.3663 79.9037L72.1618 62.9754C83.9454 53.2221 99.0342 47.3215 115.498 47.2037ZM47.1641 104.371L25.3975 100.533C24.5453 105.562 24.1015 110.729 24.1015 116C24.1015 132.563 28.4832 148.102 36.1506 161.523L55.2919 150.471C49.5052 140.302 46.1999 128.537 46.1999 116C46.1999 112.038 46.53 108.153 47.1641 104.371ZM55.794 151.339L36.6527 162.39C47.3142 180.587 64.0561 194.788 84.0894 202.207L91.6496 181.435C76.5218 175.803 63.8744 165.076 55.794 151.339ZM92.5916 181.778L85.0315 202.549C94.7072 206.012 105.133 207.898 115.999 207.898C126.865 207.898 137.291 206.012 146.967 202.549L139.407 181.779C132.09 184.383 124.211 185.8 116 185.8C107.789 185.8 99.909 184.382 92.5916 181.778ZM140.349 181.436L147.909 202.206C167.942 194.788 184.684 180.586 195.346 162.39L176.206 151.34C168.126 165.077 155.478 175.804 140.349 181.436ZM176.708 150.472L195.848 161.522C203.515 148.102 207.897 132.563 207.897 116C207.897 110.729 207.453 105.562 206.601 100.533L184.836 104.371C185.471 108.153 185.801 112.038 185.801 116C185.801 128.537 182.495 140.302 176.708 150.472ZM184.664 103.384L206.428 99.5459C202.568 78.1944 191.332 59.409 175.454 45.924L161.25 62.8514C173.233 73.0633 181.719 87.256 184.664 103.384ZM160.482 62.2067L174.686 45.2792C158.887 32.1536 138.618 24.2219 116.5 24.1038V46.2012C133.21 46.3184 148.524 52.307 160.482 62.2067ZM115.498 46.2012C98.7888 46.319 83.4753 52.3078 71.5173 62.2074L57.3126 45.2788C73.112 32.1535 93.3802 24.222 115.498 24.1038V46.2012ZM2.64533 96.5215L24.41 100.359C23.5479 105.444 23.099 110.67 23.099 116C23.099 132.746 27.5295 148.456 35.2822 162.024L16.1427 173.074C6.50937 156.256 1.00252 136.771 1.00252 116C1.00252 109.361 1.56515 102.853 2.64533 96.5215ZM16.6448 173.942L35.7843 162.892C46.5629 181.29 63.4906 195.65 83.7465 203.149L76.1868 223.919C51.0257 214.633 30.004 196.8 16.6448 173.942ZM77.1288 224.262L84.6885 203.492C94.4713 206.993 105.012 208.9 115.999 208.9C126.986 208.9 137.527 206.993 147.31 203.492L154.87 224.262C142.729 228.622 129.642 230.997 116 230.997C102.358 230.997 89.2703 228.622 77.1288 224.262ZM155.812 223.919L148.252 203.149C168.508 195.649 185.436 181.29 196.214 162.891L215.355 173.942C201.995 196.8 180.973 214.634 155.812 223.919ZM215.857 173.074L196.716 162.023C204.469 148.456 208.899 132.745 208.899 116C208.899 110.67 208.45 105.444 207.588 100.359L229.354 96.5213C230.435 102.853 230.997 109.361 230.997 116C230.997 136.771 225.49 156.256 215.857 173.074ZM229.182 95.5338L207.415 99.3718C203.514 77.7832 192.153 58.7895 176.098 45.156L190.303 28.2275C210.254 45.134 224.365 68.7208 229.182 95.5338ZM189.535 27.5827L175.331 44.5112C159.357 31.2392 138.864 23.2194 116.5 23.1013V1.00358C144.272 1.12189 169.72 11.0847 189.535 27.5827ZM116 0C51.9349 0 0 51.9349 0 116C0 180.065 51.9349 232 116 232C180.065 232 232 180.065 232 116C232 51.9349 180.065 0 116 0Z" fill="#919EAB" fill-opacity="0.2"/>
</svg>
