<svg width="520" height="232" viewBox="0 0 520 232" fill="none" xmlns="http://www.w3.org/2000/svg">
<path fill-rule="evenodd" clip-rule="evenodd" d="M439 228C439 225.791 437.209 224 435 224L0 224L0 232L435 232C437.209 232 439 230.209 439 228Z" fill="#00A76F"/>
<path fill-rule="evenodd" clip-rule="evenodd" d="M439 172C439 169.791 437.209 168 435 168L0 168L0 176L435 176C437.209 176 439 174.209 439 172Z" fill="#00A76F"/>
<path fill-rule="evenodd" clip-rule="evenodd" d="M243 116C243 113.791 241.209 112 239 112L0 112L0 120L239 120C241.209 120 243 118.209 243 116Z" fill="#00A76F"/>
<path fill-rule="evenodd" clip-rule="evenodd" d="M321 60C321 57.7909 319.209 56 317 56L312.273 56L0 56L0 64L317 64C319.209 64 321 62.2091 321 60Z" fill="#00A76F"/>
<path fill-rule="evenodd" clip-rule="evenodd" d="M239 4C239 1.79086 237.209 0 235 0L0 0L0 8L235 8C237.209 8 239 6.20914 239 4Z" fill="#00A76F"/>
</svg>
