<svg width="32" height="32" viewBox="0 0 32 32" fill="none" xmlns="http://www.w3.org/2000/svg">
<path opacity="0.5" d="M9.66 2.66663H22.34C23.8853 2.66663 24.6573 2.66663 25.2813 2.88396C25.8697 3.09248 26.402 3.43384 26.837 3.88154C27.272 4.32923 27.5979 4.87118 27.7893 5.46529C28 6.10796 28 6.90263 28 8.49329V27.1653C28 28.3093 26.6867 28.9173 25.856 28.1573C25.623 27.942 25.3173 27.8224 25 27.8224C24.6827 27.8224 24.377 27.942 24.144 28.1573L23.5 28.7466C23.0917 29.1242 22.5561 29.3339 22 29.3339C21.4439 29.3339 20.9083 29.1242 20.5 28.7466C20.0917 28.3691 19.5561 28.1594 19 28.1594C18.4439 28.1594 17.9083 28.3691 17.5 28.7466C17.0917 29.1242 16.5561 29.3339 16 29.3339C15.4439 29.3339 14.9083 29.1242 14.5 28.7466C14.0917 28.3691 13.5561 28.1594 13 28.1594C12.4439 28.1594 11.9083 28.3691 11.5 28.7466C11.0917 29.1242 10.5561 29.3339 10 29.3339C9.44391 29.3339 8.90828 29.1242 8.5 28.7466L7.856 28.1573C7.62295 27.942 7.3173 27.8224 7 27.8224C6.6827 27.8224 6.37705 27.942 6.144 28.1573C5.31333 28.9173 4 28.3093 4 27.1653V8.49329C4 6.90263 4 6.10663 4.21067 5.46663C4.61067 4.24929 5.53733 3.29463 6.71867 2.88396C7.34267 2.66663 8.11467 2.66663 9.66 2.66663Z" fill="#00B8D9"/>
<path d="M9.33398 9C9.06877 9 8.81441 9.10536 8.62688 9.29289C8.43934 9.48043 8.33398 9.73478 8.33398 10C8.33398 10.2652 8.43934 10.5196 8.62688 10.7071C8.81441 10.8946 9.06877 11 9.33398 11H10.0007C10.2659 11 10.5202 10.8946 10.7078 10.7071C10.8953 10.5196 11.0007 10.2652 11.0007 10C11.0007 9.73478 10.8953 9.48043 10.7078 9.29289C10.5202 9.10536 10.2659 9 10.0007 9H9.33398ZM14.0007 9C13.7354 9 13.4811 9.10536 13.2935 9.29289C13.106 9.48043 13.0007 9.73478 13.0007 10C13.0007 10.2652 13.106 10.5196 13.2935 10.7071C13.4811 10.8946 13.7354 11 14.0007 11H22.6673C22.9325 11 23.1869 10.8946 23.3744 10.7071C23.562 10.5196 23.6673 10.2652 23.6673 10C23.6673 9.73478 23.562 9.48043 23.3744 9.29289C23.1869 9.10536 22.9325 9 22.6673 9H14.0007ZM9.33398 13.6667C9.06877 13.6667 8.81441 13.772 8.62688 13.9596C8.43934 14.1471 8.33398 14.4015 8.33398 14.6667C8.33398 14.9319 8.43934 15.1862 8.62688 15.3738C8.81441 15.5613 9.06877 15.6667 9.33398 15.6667H10.0007C10.2659 15.6667 10.5202 15.5613 10.7078 15.3738C10.8953 15.1862 11.0007 14.9319 11.0007 14.6667C11.0007 14.4015 10.8953 14.1471 10.7078 13.9596C10.5202 13.772 10.2659 13.6667 10.0007 13.6667H9.33398ZM14.0007 13.6667C13.7354 13.6667 13.4811 13.772 13.2935 13.9596C13.106 14.1471 13.0007 14.4015 13.0007 14.6667C13.0007 14.9319 13.106 15.1862 13.2935 15.3738C13.4811 15.5613 13.7354 15.6667 14.0007 15.6667H22.6673C22.9325 15.6667 23.1869 15.5613 23.3744 15.3738C23.562 15.1862 23.6673 14.9319 23.6673 14.6667C23.6673 14.4015 23.562 14.1471 23.3744 13.9596C23.1869 13.772 22.9325 13.6667 22.6673 13.6667H14.0007ZM9.33398 18.3333C9.06877 18.3333 8.81441 18.4387 8.62688 18.6262C8.43934 18.8138 8.33398 19.0681 8.33398 19.3333C8.33398 19.5985 8.43934 19.8529 8.62688 20.0404C8.81441 20.228 9.06877 20.3333 9.33398 20.3333H10.0007C10.2659 20.3333 10.5202 20.228 10.7078 20.0404C10.8953 19.8529 11.0007 19.5985 11.0007 19.3333C11.0007 19.0681 10.8953 18.8138 10.7078 18.6262C10.5202 18.4387 10.2659 18.3333 10.0007 18.3333H9.33398ZM14.0007 18.3333C13.7354 18.3333 13.4811 18.4387 13.2935 18.6262C13.106 18.8138 13.0007 19.0681 13.0007 19.3333C13.0007 19.5985 13.106 19.8529 13.2935 20.0404C13.4811 20.228 13.7354 20.3333 14.0007 20.3333H22.6673C22.9325 20.3333 23.1869 20.228 23.3744 20.0404C23.562 19.8529 23.6673 19.5985 23.6673 19.3333C23.6673 19.0681 23.562 18.8138 23.3744 18.6262C23.1869 18.4387 22.9325 18.3333 22.6673 18.3333H14.0007Z" fill="#00B8D9"/>
</svg>
