<svg width="24" height="24" viewBox="0 0 24 24" fill="none" xmlns="http://www.w3.org/2000/svg">
<path d="M8.33329 22.9998C10.3573 22.9998 12 21.3572 12 19.3332V15.6665H8.33329C6.30929 15.6665 4.66663 17.3092 4.66663 19.3332C4.66663 21.3572 6.30929 22.9998 8.33329 22.9998Z" fill="#0ACF83"/>
<path d="M4.66663 12.0002C4.66663 9.97616 6.30929 8.3335 8.33329 8.3335H12V15.6668H8.33329C6.30929 15.6668 4.66663 14.0242 4.66663 12.0002Z" fill="#A259FF"/>
<path d="M4.66663 4.66667C4.66663 2.64267 6.30929 1 8.33329 1H12V8.33333H8.33329C6.30929 8.33333 4.66663 6.69067 4.66663 4.66667Z" fill="#F24E1E"/>
<path d="M12 1H15.6667C17.6907 1 19.3333 2.64267 19.3333 4.66667C19.3333 6.69067 17.6907 8.33333 15.6667 8.33333H12V1Z" fill="#FF7262"/>
<path d="M19.3333 12.0002C19.3333 14.0242 17.6907 15.6668 15.6667 15.6668C13.6427 15.6668 12 14.0242 12 12.0002C12 9.97616 13.6427 8.3335 15.6667 8.3335C17.6907 8.3335 19.3333 9.97616 19.3333 12.0002Z" fill="#1ABCFE"/>
</svg>
