<svg width="24" height="24" viewBox="0 0 24 24" fill="none" xmlns="http://www.w3.org/2000/svg">
<path fill-rule="evenodd" clip-rule="evenodd" d="M7.23867 3.04375C5.65133 2.18144 3.75 3.31899 3.75 5.03289V7.99989C3.75 8.4141 3.41421 8.74989 3 8.74989C2.58579 8.74989 2.25 8.4141 2.25 7.99989V5.03289C2.25 2.12688 5.41648 0.346457 7.95509 1.7259L20.7644 8.69244C21.3634 9.01174 21.8645 9.48773 22.2141 10.0696C22.5643 10.6526 22.7494 11.3198 22.7494 11.9999C22.7494 12.68 22.5643 13.3472 22.2141 13.9302C21.8645 14.5121 21.3634 14.9881 20.7644 15.3074L14.3613 18.7898C13.9975 18.9877 13.542 18.8531 13.3441 18.4892C13.1462 18.1253 13.2808 17.6699 13.6447 17.472L20.0568 13.9847C20.417 13.7932 20.7182 13.5073 20.9283 13.1576C21.1384 12.808 21.2494 12.4078 21.2494 11.9999C21.2494 11.592 21.1384 11.1918 20.9283 10.8421C20.7182 10.4925 20.417 10.2066 20.0569 10.0151L20.0507 10.0118L7.23867 3.04375C7.23875 3.0438 7.23859 3.04371 7.23867 3.04375ZM3 11.2499C3.41421 11.2499 3.75 11.5857 3.75 11.9999V18.9669C3.75 20.6809 5.65152 21.8185 7.23891 20.9559L10.4417 19.214C10.8055 19.0161 11.261 19.1507 11.4589 19.5146C11.6568 19.8784 11.5222 20.3338 11.1583 20.5317L7.95533 22.2738C5.41672 23.6532 2.25 21.8729 2.25 18.9669V11.9999C2.25 11.5857 2.58579 11.2499 3 11.2499Z" fill="white"/>
</svg>
