<svg width="20" height="20" viewBox="0 0 20 20" fill="none" xmlns="http://www.w3.org/2000/svg">
<path d="M15.0009 5.875C15.0009 5.65399 14.9131 5.44202 14.7568 5.28574C14.6006 5.12946 14.3886 5.04167 14.1676 5.04167L7.50093 5C7.27991 5 7.06795 5.0878 6.91167 5.24408C6.75539 5.40036 6.66759 5.61232 6.66759 5.83333C6.66759 6.05435 6.75539 6.26631 6.91167 6.42259C7.06795 6.57887 7.27991 6.66667 7.50093 6.66667H12.1343L5.24259 13.575C5.16449 13.6525 5.10249 13.7446 5.06018 13.8462C5.01788 13.9477 4.99609 14.0567 4.99609 14.1667C4.99609 14.2767 5.01788 14.3856 5.06018 14.4871C5.10249 14.5887 5.16449 14.6809 5.24259 14.7583C5.32006 14.8364 5.41223 14.8984 5.51378 14.9407C5.61533 14.9831 5.72425 15.0048 5.83426 15.0048C5.94427 15.0048 6.05319 14.9831 6.15474 14.9407C6.25629 14.8984 6.34846 14.8364 6.42593 14.7583L13.3343 7.85V12.5C13.3343 12.721 13.4221 12.933 13.5783 13.0893C13.7346 13.2455 13.9466 13.3333 14.1676 13.3333C14.3886 13.3333 14.6006 13.2455 14.7568 13.0893C14.9131 12.933 15.0009 12.721 15.0009 12.5V5.875Z" fill="#637381"/>
</svg>
