<svg width="16" height="16" viewBox="0 0 16 16" fill="none" xmlns="http://www.w3.org/2000/svg">
<path fill-rule="evenodd" clip-rule="evenodd" d="M14.6654 7.99345C14.6654 11.6754 11.6807 14.6601 7.99871 14.6601C6.93204 14.6601 5.92404 14.4094 5.03071 13.9641C4.79472 13.8422 4.52231 13.8106 4.26471 13.8754L2.78071 14.2728C2.63382 14.312 2.47921 14.3118 2.33239 14.2724C2.18557 14.233 2.05171 14.1556 1.94425 14.048C1.83679 13.9405 1.7595 13.8066 1.72014 13.6598C1.68079 13.5129 1.68075 13.3583 1.72004 13.2114L2.11671 11.7274C2.18122 11.47 2.14945 11.1978 2.02737 10.9621C1.56846 10.0399 1.33041 9.02354 1.33204 7.99345C1.33204 4.31145 4.31671 1.32678 7.99871 1.32678C11.6807 1.32678 14.6654 4.31145 14.6654 7.99345ZM5.33204 8.66012C5.15523 8.66012 4.98566 8.58988 4.86063 8.46485C4.73561 8.33983 4.66537 8.17026 4.66537 7.99345C4.66537 7.81664 4.73561 7.64707 4.86063 7.52204C4.98566 7.39702 5.15523 7.32678 5.33204 7.32678C5.50885 7.32678 5.67842 7.39702 5.80344 7.52204C5.92847 7.64707 5.99871 7.81664 5.99871 7.99345C5.99871 8.17026 5.92847 8.33983 5.80344 8.46485C5.67842 8.58988 5.50885 8.66012 5.33204 8.66012ZM7.33204 7.99345C7.33204 8.17026 7.40228 8.33983 7.5273 8.46485C7.65233 8.58988 7.82189 8.66012 7.99871 8.66012C8.17552 8.66012 8.34509 8.58988 8.47011 8.46485C8.59513 8.33983 8.66537 8.17026 8.66537 7.99345C8.66537 7.81664 8.59513 7.64707 8.47011 7.52204C8.34509 7.39702 8.17552 7.32678 7.99871 7.32678C7.82189 7.32678 7.65233 7.39702 7.5273 7.52204C7.40228 7.64707 7.33204 7.81664 7.33204 7.99345ZM9.99871 7.99345C9.99871 8.17026 10.0689 8.33983 10.194 8.46485C10.319 8.58988 10.4886 8.66012 10.6654 8.66012C10.8422 8.66012 11.0118 8.58988 11.1368 8.46485C11.2618 8.33983 11.332 8.17026 11.332 7.99345C11.332 7.81664 11.2618 7.64707 11.1368 7.52204C11.0118 7.39702 10.8422 7.32678 10.6654 7.32678C10.4886 7.32678 10.319 7.39702 10.194 7.52204C10.0689 7.64707 9.99871 7.81664 9.99871 7.99345Z" fill="white"/>
</svg>
