<svg width="32" height="32" viewBox="0 0 32 32" fill="none" xmlns="http://www.w3.org/2000/svg">
<path fill-rule="evenodd" clip-rule="evenodd" d="M16.0003 29.3205C23.3643 29.3205 29.3337 23.3511 29.3337 15.9871C29.3337 8.62314 23.3643 2.65381 16.0003 2.65381C8.63633 2.65381 2.66699 8.62314 2.66699 15.9871C2.66699 23.3511 8.63633 29.3205 16.0003 29.3205ZM17.0003 10.6538C17.0003 10.3886 16.895 10.1342 16.7074 9.9467C16.5199 9.75916 16.2655 9.65381 16.0003 9.65381C15.7351 9.65381 15.4808 9.75916 15.2932 9.9467C15.1057 10.1342 15.0003 10.3886 15.0003 10.6538V15.9871C15.0003 16.2525 15.1057 16.5071 15.2937 16.6938L18.627 20.0271C18.7185 20.1254 18.8289 20.2042 18.9516 20.2588C19.0743 20.3135 19.2067 20.3429 19.341 20.3453C19.4752 20.3476 19.6086 20.3229 19.7331 20.2726C19.8576 20.2223 19.9708 20.1475 20.0657 20.0525C20.1607 19.9576 20.2355 19.8445 20.2858 19.7199C20.3361 19.5954 20.3608 19.462 20.3584 19.3278C20.3561 19.1935 20.3267 19.0611 20.272 18.9384C20.2174 18.8158 20.1386 18.7054 20.0403 18.6138L17.0003 15.5738V10.6538Z" fill="#00A76F"/>
</svg>
