<svg width="20" height="20" viewBox="0 0 20 20" fill="none" xmlns="http://www.w3.org/2000/svg">
<path d="M6.95999 16.8684C7.32262 17.327 7.7847 17.6971 8.31134 17.9509C8.83797 18.2047 9.41539 18.3355 9.99999 18.3334C10.5846 18.3355 11.162 18.2047 11.6886 17.9509C12.2153 17.6971 12.6774 17.327 13.04 16.8684C11.0225 17.1419 8.97743 17.1419 6.95999 16.8684Z" fill="#919EAB" fill-opacity="0.8"/>
<path fill-rule="evenodd" clip-rule="evenodd" d="M15.625 8.08675V7.50008C15.625 4.27841 13.1058 1.66675 9.99999 1.66675C6.89416 1.66675 4.37499 4.27841 4.37499 7.50008V8.08675C4.37499 8.79092 4.17499 9.47925 3.79832 10.0651L2.87499 11.5009C2.03249 12.8126 2.67582 14.5951 4.14166 15.0092C7.97186 16.0942 12.0281 16.0942 15.8583 15.0092C17.3242 14.5951 17.9675 12.8126 17.125 11.5009L16.2017 10.0651C15.8237 9.47453 15.6241 8.78788 15.625 8.08675ZM9.99999 4.37508C10.1658 4.37508 10.3247 4.44093 10.4419 4.55814C10.5591 4.67535 10.625 4.83432 10.625 5.00008V8.33342C10.625 8.49918 10.5591 8.65815 10.4419 8.77536C10.3247 8.89257 10.1658 8.95842 9.99999 8.95842C9.83423 8.95842 9.67526 8.89257 9.55805 8.77536C9.44084 8.65815 9.37499 8.49918 9.37499 8.33342V5.00008C9.37499 4.83432 9.44084 4.67535 9.55805 4.55814C9.67526 4.44093 9.83423 4.37508 9.99999 4.37508Z" fill="#919EAB" fill-opacity="0.8"/>
</svg>
