<svg width="32" height="32" viewBox="0 0 32 32" fill="none" xmlns="http://www.w3.org/2000/svg">
<path opacity="0.32" d="M25.0001 11.9868V12.9254C25.0001 14.0521 25.3201 15.1534 25.9227 16.0908L27.4001 18.3881C28.7481 20.4868 27.7188 23.3388 25.3734 24.0014C19.2451 25.7374 12.7551 25.7374 6.62675 24.0014C4.28142 23.3388 3.25208 20.4868 4.60008 18.3881L6.07742 16.0908C6.68218 15.1459 7.00289 14.0473 7.00142 12.9254V11.9868C7.00142 6.83211 11.0307 2.65344 16.0001 2.65344C20.9694 2.65344 25.0001 6.83211 25.0001 11.9868Z" fill="#FF5630"/>
<path d="M17.0009 7.98682C17.0009 7.7216 16.8955 7.46725 16.708 7.27971C16.5204 7.09217 16.2661 6.98682 16.0009 6.98682C15.7357 6.98682 15.4813 7.09217 15.2938 7.27971C15.1062 7.46725 15.0009 7.7216 15.0009 7.98682V13.3201C15.0009 13.5854 15.1062 13.8397 15.2938 14.0273C15.4813 14.2148 15.7357 14.3201 16.0009 14.3201C16.2661 14.3201 16.5204 14.2148 16.708 14.0273C16.8955 13.8397 17.0009 13.5854 17.0009 13.3201V7.98682ZM9.6582 24.7135C10.0939 26.0523 10.942 27.2189 12.0813 28.0462C13.2205 28.8735 14.5923 29.3191 16.0002 29.3191C17.4081 29.3191 18.7799 28.8735 19.9191 28.0462C21.0584 27.2189 21.9065 26.0523 22.3422 24.7135C18.1489 25.5001 13.8529 25.5001 9.6582 24.7135Z" fill="#FF5630"/>
</svg>
