<svg width="62" height="102" viewBox="0 0 62 102" fill="none" xmlns="http://www.w3.org/2000/svg">
<path d="M48.8854 98.7485L52.6185 98.5077L52.4981 102H48.8854V98.7485ZM15.2266 96.4002L18.3576 98.3872L21.1274 95.0756L17.6351 92.6068L15.2266 96.4002ZM4.20768 45.5809L4.74959 44.6175L1.61854 48.4711C-4.40271 54.2515 8.48277 57.6234 6.19469 49.7355L8.48277 47.327L4.20768 45.5809ZM61.7106 48.5313C61.1085 47.1464 57.556 44.0153 56.6528 42.6907L57.4957 44.0153L53.3411 45.8819L55.7496 48.2302C53.6421 53.8902 63.2761 54.3719 61.7106 48.5313ZM29.8582 0L29.4367 1.20425H29.0152C29.0152 3.55254 30.1593 5.72019 30.8818 7.40614C33.8924 7.04486 36.1203 4.27509 35.9397 1.20425H29.9184L29.8582 0Z" fill="#FDBAB9"/>
</svg>
