<svg width="20" height="20" viewBox="0 0 20 20" fill="none" xmlns="http://www.w3.org/2000/svg">
<path d="M10 18.3334C8.70757 18.3648 7.45544 17.8824 6.51816 16.992C5.58087 16.1015 5.03492 14.8758 5 13.5834V5.10845C5.02403 4.1742 5.4172 3.28753 6.09347 2.6425C6.76973 1.99747 7.674 1.64664 8.60833 1.66678C9.5441 1.6444 10.4505 1.99424 11.1286 2.6395C11.8067 3.28477 12.201 4.17273 12.225 5.10845V13.5918C12.1903 14.1573 11.9413 14.6882 11.5286 15.0764C11.1159 15.4646 10.5707 15.6807 10.0042 15.6807C9.43762 15.6807 8.89241 15.4646 8.47973 15.0764C8.06705 14.6882 7.81799 14.1573 7.78333 13.5918V5.76678C7.78333 5.54577 7.87113 5.33381 8.02741 5.17753C8.18369 5.02125 8.39565 4.93345 8.61667 4.93345C8.83768 4.93345 9.04964 5.02125 9.20592 5.17753C9.3622 5.33381 9.45 5.54577 9.45 5.76678V13.5918C9.46662 13.7271 9.53214 13.8516 9.63422 13.9419C9.7363 14.0322 9.86788 14.082 10.0042 14.082C10.1405 14.082 10.272 14.0322 10.3741 13.9419C10.4762 13.8516 10.5417 13.7271 10.5583 13.5918V5.10845C10.5324 4.61546 10.3131 4.15257 9.94806 3.82026C9.58299 3.48795 9.10158 3.31302 8.60833 3.33345C8.11649 3.31527 7.63723 3.4912 7.27397 3.82328C6.91071 4.15536 6.69258 4.61696 6.66667 5.10845V13.5834C6.70136 14.4338 7.07164 15.2358 7.69641 15.8137C8.32118 16.3916 9.14952 16.6984 10 16.6668C10.8505 16.6984 11.6788 16.3916 12.3036 15.8137C12.9284 15.2358 13.2986 14.4338 13.3333 13.5834V5.10845C13.3333 4.88744 13.4211 4.67547 13.5774 4.51919C13.7337 4.36291 13.9457 4.27512 14.1667 4.27512C14.3877 4.27512 14.5996 4.36291 14.7559 4.51919C14.9122 4.67547 15 4.88744 15 5.10845V13.5834C14.9651 14.8758 14.4191 16.1015 13.4818 16.992C12.5446 17.8824 11.2924 18.3648 10 18.3334Z" fill="#637381"/>
</svg>
