<svg width="13" height="13" viewBox="0 0 13 13" fill="none" xmlns="http://www.w3.org/2000/svg">
<path d="M12.9946 0L12.9943 0.0104034L12.9984 0.0104501V12.9984H11.9155L11.9154 12.9968H8.65909L7.57651 12.9984L7.57626 12.9968H5.43303L4.35027 12.9984L4.3502 12.9968H1.08641L0.00380876 12.9984L0.003578 12.9968L0.00156831 11.9147L0.003578 11.9145V8.64426L0.000821497 7.56219L0.003578 7.56198V4.29173L0 4.29199V3.20966L0.003578 3.20945V1.08228L0 1.08233V0H12.9946ZM4.3502 8.64426H1.08641V11.9145H4.3502V8.64426ZM7.57626 8.64426H5.43303V11.9145H7.57626V8.64426ZM11.9154 8.64426H8.65909V11.9145H11.9154V8.64426ZM4.3502 4.29173H1.08641V7.56198H4.3502V4.29173ZM7.57626 4.29173H5.43303V7.56198H7.57626V4.29173ZM11.9154 4.29173H8.65909V7.56198H11.9154V4.29173ZM11.9154 1.08228H1.08641V3.20945H11.9154V1.08228Z" fill="white"/>
</svg>
