<svg width="20" height="20" viewBox="0 0 20 20" fill="none" xmlns="http://www.w3.org/2000/svg">
<g opacity="0.48">
<path fill-rule="evenodd" clip-rule="evenodd" d="M18.3346 9.99984C18.3346 14.6023 14.6038 18.3332 10.0013 18.3332C5.3988 18.3332 1.66797 14.6023 1.66797 9.99984C1.66797 5.39734 5.3988 1.6665 10.0013 1.6665C14.6038 1.6665 18.3346 5.39734 18.3346 9.99984ZM7.4763 7.47484C7.59349 7.3578 7.75234 7.29205 7.91797 7.29205C8.08359 7.29205 8.24245 7.3578 8.35964 7.47484L10.0013 9.1165L11.643 7.47484C11.7614 7.36444 11.9182 7.30433 12.0801 7.30719C12.242 7.31005 12.3965 7.37564 12.511 7.49015C12.6255 7.60466 12.6911 7.75915 12.6939 7.92107C12.6968 8.08299 12.6367 8.23969 12.5263 8.35817L10.8846 9.99984L12.5263 11.6415C12.6367 11.76 12.6968 11.9167 12.6939 12.0786C12.6911 12.2405 12.6255 12.395 12.511 12.5095C12.3965 12.624 12.242 12.6896 12.0801 12.6925C11.9182 12.6953 11.7614 12.6352 11.643 12.5248L10.0013 10.8832L8.35964 12.5248C8.24116 12.6352 8.08445 12.6953 7.92253 12.6925C7.76062 12.6896 7.60613 12.624 7.49162 12.5095C7.37711 12.395 7.31151 12.2405 7.30866 12.0786C7.3058 11.9167 7.3659 11.76 7.4763 11.6415L9.11797 9.99984L7.4763 8.35817C7.35926 8.24098 7.29352 8.08213 7.29352 7.9165C7.29352 7.75088 7.35926 7.59203 7.4763 7.47484Z" fill="#006C9C"/>
</g>
</svg>
