<svg width="48" height="48" viewBox="0 0 48 48" fill="none" xmlns="http://www.w3.org/2000/svg">
<path d="M33.9375 16.0784C33.7452 16.0784 33.5527 16.0834 33.3604 16.0933C31.1147 14.2609 28.3304 13.2659 25.3828 13.2658C24.9157 13.2658 24.4545 13.2919 24.0003 13.3415C18.2872 13.9651 13.704 18.4059 12.8645 24.0523C11.5404 24.6798 10.3576 25.6011 9.42338 26.7499C8.00175 28.4982 7.21875 30.7013 7.21875 32.9535C7.21875 33.7565 7.31616 34.5372 7.49841 35.2849C3.32569 35.0594 0 31.594 0 27.366C0 23.4419 2.86481 20.1742 6.61256 19.5443C7.24716 14.8825 11.2543 11.2785 16.0875 11.2785C16.7089 11.2785 17.3273 11.3388 17.9352 11.4585C19.5751 9.74756 21.6927 8.61488 24 8.19655C24.6572 8.07739 25.3297 8.01587 26.0109 8.01587C31.2373 8.01587 35.638 11.6164 36.8643 16.4672C35.9167 16.2112 34.9331 16.0784 33.9375 16.0784Z" fill="#0A49B2"/>
<path d="M15.5405 26.088C15.5395 26.0326 15.5391 25.9773 15.5391 25.9221C15.5391 20.9636 19.2246 16.8503 24 16.176C24.452 16.1122 24.9135 16.0784 25.3828 16.0784C28.0498 16.0784 30.5647 17.144 32.4112 19.0299C32.914 18.9375 33.4246 18.8909 33.9375 18.8909C38.1535 18.8909 41.6572 21.999 42.2774 26.0442C45.5315 26.6591 48 29.5233 48 32.9534C48 36.8304 44.8458 39.9846 40.9688 39.9846L17.0625 39.9846C13.1855 39.9846 10.0312 36.8304 10.0312 32.9533C10.0312 29.5988 12.3926 26.7853 15.5405 26.088Z" fill="#0A49B2"/>
</svg>
