<svg width="20" height="20" viewBox="0 0 20 20" fill="none" xmlns="http://www.w3.org/2000/svg">
<path opacity="0.5" d="M4.16453 14.7917C4.03672 14.7918 3.91196 14.7527 3.80706 14.6797C3.70216 14.6067 3.62216 14.5033 3.57784 14.3834C3.53352 14.2635 3.52702 14.1329 3.55921 14.0092C3.5914 13.8856 3.66073 13.7747 3.75786 13.6917L9.59119 8.69166C9.70446 8.59461 9.8487 8.54126 9.99786 8.54126C10.147 8.54126 10.2913 8.59461 10.4045 8.69166L16.2379 13.6917C16.335 13.7747 16.4043 13.8856 16.4365 14.0092C16.4687 14.1329 16.4622 14.2635 16.4179 14.3834C16.3736 14.5033 16.2936 14.6067 16.1887 14.6797C16.0838 14.7527 15.959 14.7918 15.8312 14.7917H4.16453Z" fill="#FF5630"/>
<path fill-rule="evenodd" clip-rule="evenodd" d="M3.6886 11.24C3.74204 11.3023 3.80724 11.3535 3.88048 11.3907C3.95372 11.4278 4.03356 11.4502 4.11544 11.4564C4.19732 11.4627 4.27964 11.4528 4.35768 11.4272C4.43572 11.4016 4.50796 11.361 4.57026 11.3075L9.99693 6.65664L15.4236 11.3075C15.4854 11.3641 15.5579 11.4076 15.6369 11.4356C15.7159 11.4636 15.7997 11.4754 15.8833 11.4704C15.9669 11.4654 16.0487 11.4436 16.1237 11.4063C16.1988 11.369 16.2656 11.317 16.3201 11.2534C16.3747 11.1898 16.4159 11.1159 16.4413 11.0361C16.4667 10.9562 16.4758 10.8721 16.468 10.7887C16.4602 10.7052 16.4358 10.6242 16.3961 10.5504C16.3564 10.4766 16.3023 10.4116 16.2369 10.3591L10.4036 5.35914C10.2903 5.26209 10.1461 5.20874 9.99693 5.20874C9.84777 5.20874 9.70353 5.26209 9.59026 5.35914L3.75693 10.3591C3.63125 10.467 3.55355 10.6204 3.54089 10.7856C3.52823 10.9507 3.58166 11.1142 3.68943 11.24H3.6886Z" fill="#FF5630"/>
</svg>
