<svg width="10" height="6" viewBox="0 0 10 6" fill="none" xmlns="http://www.w3.org/2000/svg">
<path d="M0 5.77578V0.0710137H2.25666C2.67748 0.0710137 3.05622 0.145973 3.39288 0.295891C3.73217 0.445809 4.00044 0.665425 4.1977 0.95474C4.39496 1.24143 4.49359 1.59123 4.49359 2.00417C4.49359 2.38027 4.41074 2.70378 4.24504 2.97469C4.07934 3.24296 3.84395 3.44943 3.53885 3.59408C3.23375 3.73874 2.87211 3.81107 2.45392 3.81107H1.53469V5.77578H0ZM1.5189 2.66696H2.40658C2.60121 2.66696 2.76296 2.58937 2.89184 2.43419C3.02071 2.27901 3.08515 2.10937 3.08515 1.92526C3.08515 1.728 3.01414 1.55967 2.87211 1.42027C2.73271 1.27825 2.57753 1.20723 2.40658 1.20723H1.5189V2.66696Z" fill="#31A8FF"/>
<path d="M7.54823 5.85469C7.25365 5.85469 6.96171 5.81786 6.67239 5.74422C6.38571 5.67058 6.12138 5.5588 5.8794 5.40888C5.64006 5.25896 5.4428 5.07091 5.28762 4.84471C5.13245 4.61589 5.04302 4.34762 5.01935 4.03989H6.58165C6.61058 4.17403 6.66713 4.28844 6.7513 4.38312C6.83546 4.47781 6.94461 4.55145 7.07875 4.60406C7.21288 4.65403 7.36675 4.67902 7.54034 4.67902C7.69814 4.67902 7.84675 4.66323 7.98615 4.63167C8.12817 4.60011 8.24258 4.54751 8.32938 4.47386C8.4188 4.39759 8.46351 4.29238 8.46351 4.15825C8.46351 4.04252 8.41749 3.9531 8.32543 3.88997C8.23601 3.82685 8.11897 3.77819 7.97431 3.744C7.83228 3.70981 7.68236 3.67956 7.52456 3.65326L6.65267 3.50334C6.21606 3.43233 5.86362 3.25611 5.59535 2.97469C5.32971 2.69063 5.19162 2.30663 5.1811 1.82269C5.17584 1.43869 5.27842 1.11123 5.48883 0.840329C5.70187 0.566795 5.98593 0.359014 6.34099 0.216987C6.69869 0.0723289 7.09321 0 7.52456 0C8.04532 0 8.48587 0.0762741 8.8462 0.228822C9.20653 0.38137 9.48006 0.593096 9.6668 0.864001C9.85617 1.1349 9.9548 1.44658 9.96269 1.79901H8.43984C8.42406 1.65173 8.37935 1.53337 8.30571 1.44395C8.23206 1.35189 8.13212 1.28614 8.00587 1.24669C7.88225 1.2046 7.73234 1.18356 7.55612 1.18356C7.40883 1.18356 7.28521 1.19803 7.18527 1.22696C7.08795 1.25326 7.01036 1.28877 6.9525 1.33348C6.89464 1.37556 6.85256 1.4229 6.82625 1.47551C6.80258 1.52811 6.79075 1.58071 6.79075 1.63332C6.79075 1.76219 6.83151 1.86608 6.91305 1.94499C6.99458 2.02389 7.15765 2.0857 7.40225 2.13041L8.27809 2.28033C8.68576 2.35134 9.00532 2.46181 9.23678 2.61173C9.46823 2.75901 9.63787 2.92603 9.74571 3.11277C9.85617 3.29951 9.92587 3.48493 9.9548 3.66904C9.98373 3.85315 9.9982 4.01622 9.9982 4.15825C9.9982 4.48175 9.89036 4.77238 9.67469 5.03014C9.46165 5.28526 9.17102 5.48647 8.8028 5.63376C8.43458 5.78104 8.01639 5.85469 7.54823 5.85469Z" fill="#31A8FF"/>
</svg>
