<svg width="20" height="20" viewBox="0 0 20 20" fill="none" xmlns="http://www.w3.org/2000/svg">
<path d="M8.16083 10.6608C8.3108 10.5114 8.51203 10.4246 8.72365 10.4181C8.93528 10.4117 9.14143 10.486 9.30023 10.626C9.45904 10.7661 9.55859 10.9613 9.57867 11.1721C9.59874 11.3828 9.53784 11.5933 9.40833 11.7608L9.33917 11.8392L5.345 15.8333H7.5C7.7124 15.8336 7.91669 15.9149 8.07114 16.0607C8.22559 16.2065 8.31853 16.4058 8.33098 16.6178C8.34342 16.8299 8.27444 17.0386 8.13811 17.2015C8.00179 17.3644 7.80841 17.4691 7.5975 17.4942L7.5 17.5H3.33333C3.12922 17.5 2.93222 17.425 2.77969 17.2894C2.62716 17.1538 2.52971 16.9669 2.50583 16.7642L2.5 16.6667V12.5C2.50024 12.2876 2.58157 12.0833 2.72737 11.9289C2.87318 11.7744 3.07246 11.6815 3.2845 11.669C3.49653 11.6566 3.70532 11.7256 3.86819 11.8619C4.03107 11.9982 4.13575 12.1916 4.16083 12.4025L4.16667 12.5V14.655L8.16083 10.6608ZM16.6667 2.5C16.8708 2.50003 17.0678 2.57496 17.2203 2.7106C17.3728 2.84623 17.4703 3.03312 17.4942 3.23583L17.5 3.33333V7.5C17.4998 7.7124 17.4184 7.91669 17.2726 8.07114C17.1268 8.22559 16.9275 8.31853 16.7155 8.33098C16.5035 8.34342 16.2947 8.27444 16.1318 8.13811C15.9689 8.00179 15.8643 7.80841 15.8392 7.5975L15.8333 7.5V5.345L11.8392 9.33917C11.6892 9.48862 11.488 9.57539 11.2763 9.58186C11.0647 9.58832 10.8586 9.51399 10.6998 9.37396C10.541 9.23393 10.4414 9.03871 10.4213 8.82794C10.4013 8.61717 10.4622 8.40666 10.5917 8.23917L10.6608 8.16083L14.655 4.16667H12.5C12.2876 4.16643 12.0833 4.0851 11.9289 3.93929C11.7744 3.79349 11.6815 3.59421 11.669 3.38217C11.6566 3.17014 11.7256 2.96135 11.8619 2.79847C11.9982 2.6356 12.1916 2.53092 12.4025 2.50583L12.5 2.5H16.6667Z" fill="#637381"/>
</svg>
