<svg width="16" height="16" viewBox="0 0 16 16" fill="none" xmlns="http://www.w3.org/2000/svg">
<path d="M13.5134 10.8433L13.9834 8.12334C14.011 7.96392 14.0034 7.80039 13.9612 7.64421C13.919 7.48802 13.8431 7.34294 13.739 7.21912C13.6349 7.0953 13.5049 6.99573 13.3583 6.92736C13.2116 6.859 13.0518 6.8235 12.8901 6.82334H9.43605C9.35544 6.82336 9.2758 6.80582 9.20265 6.77196C9.1295 6.7381 9.06459 6.68872 9.01245 6.62725C8.9603 6.56578 8.92216 6.49369 8.90068 6.416C8.8792 6.3383 8.87489 6.25687 8.88805 6.17734L9.33005 3.48067C9.40178 3.04283 9.38134 2.59483 9.27005 2.16534C9.22243 1.98787 9.13072 1.82533 9.00344 1.6928C8.87616 1.56028 8.71745 1.46208 8.54205 1.40734L8.44539 1.37601C8.22683 1.3058 7.98968 1.32202 7.78272 1.42134C7.55605 1.53067 7.39072 1.73001 7.32939 1.96667L7.01205 3.18934C6.91103 3.57842 6.76423 3.95416 6.57472 4.30867C6.29805 4.82667 5.87005 5.24201 5.42472 5.62534L4.46539 6.45201C4.3323 6.56701 4.22835 6.71192 4.16207 6.87484C4.09579 7.03777 4.06905 7.21409 4.08405 7.38934L4.62539 13.6513C4.64924 13.9283 4.77608 14.1862 4.98085 14.3742C5.18561 14.5622 5.45342 14.6665 5.73139 14.6667H8.83005C11.1514 14.6667 13.1321 13.0493 13.5134 10.8433Z" fill="#212B36"/>
<path fill-rule="evenodd" clip-rule="evenodd" d="M1.97872 6.32334C2.10756 6.31771 2.23359 6.36207 2.33049 6.44717C2.42739 6.53227 2.48766 6.65152 2.49872 6.78001L3.14539 14.2707C3.15634 14.3822 3.14444 14.4948 3.11041 14.6016C3.07639 14.7084 3.02095 14.8072 2.94748 14.8918C2.87401 14.9765 2.78406 15.0452 2.68312 15.094C2.58218 15.1427 2.47237 15.1703 2.36039 15.1752C2.24841 15.18 2.13661 15.162 2.03183 15.1222C1.92706 15.0824 1.83149 15.0217 1.75097 14.9437C1.67045 14.8657 1.60668 14.7721 1.56354 14.6687C1.52039 14.5652 1.49879 14.4541 1.50005 14.342V6.82267C1.50011 6.69379 1.54992 6.56991 1.63911 6.47688C1.72829 6.38384 1.84996 6.32884 1.97872 6.32334Z" fill="#212B36"/>
</svg>
