<svg width="14" height="14" viewBox="0 0 14 14" fill="none" xmlns="http://www.w3.org/2000/svg">
<path d="M7.62079 3.89951L8.05537 3.72101C8.40829 3.58101 8.86445 3.43809 9.40287 3.52851C10.506 3.71401 11.2666 4.30959 11.7199 5.09943C11.8949 5.40393 11.7537 5.80526 11.427 5.93301C11.1472 6.04248 10.908 6.2357 10.7421 6.48627C10.5762 6.73683 10.4917 7.0325 10.5002 7.33288C10.5087 7.63326 10.6097 7.9237 10.7895 8.16449C10.9693 8.40528 11.219 8.58468 11.5046 8.67818C11.8068 8.77734 11.9771 9.11276 11.878 9.41493C11.6201 10.1978 11.2491 10.9205 10.8099 11.5038C10.3759 12.0802 9.8462 12.5585 9.25645 12.7924C8.87145 12.9441 8.45845 12.8875 8.06354 12.7895L7.82904 12.7271L7.48079 12.6262C7.3227 12.5801 7.15995 12.5404 7.00012 12.5404C6.8397 12.5404 6.67754 12.5801 6.51945 12.6262L6.1712 12.7271L5.9367 12.7895C5.54179 12.8875 5.1282 12.9447 4.74379 12.7924C4.0012 12.4984 3.34612 11.8124 2.85087 11.0033C2.31471 10.1124 1.96097 9.12371 1.8102 8.09484C1.67779 7.18834 1.74954 6.17043 2.16895 5.30943C2.60062 4.42218 3.39162 3.73151 4.59737 3.52851C5.08737 3.44626 5.50854 3.55651 5.8457 3.68309L6.03879 3.75893L6.37945 3.89951C6.61279 3.99109 6.79654 4.04476 7.00012 4.04476C7.20312 4.04476 7.38745 3.99109 7.62079 3.89951ZM6.86479 1.61459C7.43412 1.04468 8.30854 0.995676 8.51445 1.20218C8.72095 1.40809 8.67195 2.28251 8.10204 2.85184C7.5327 3.42118 6.65829 3.47018 6.45237 3.26426C6.24587 3.05834 6.29487 2.18393 6.86479 1.61459Z" fill="#637381"/>
</svg>
