<svg width="22" height="22" viewBox="0 0 22 22" fill="none" xmlns="http://www.w3.org/2000/svg">
<path opacity="0.32" d="M3.96905 5.5C3.52794 5.5 3.14892 5.8152 3.06945 6.2491C1.81765 13.083 1.60413 16.5 1.60413 16.5H20.3958C20.3958 16.5 20.1822 13.083 18.9305 6.2491C18.851 5.8152 18.472 5.5 18.0308 5.5H3.96905Z" fill="#637381"/>
<path fill-rule="evenodd" clip-rule="evenodd" d="M20.3958 16.5H1.60413C1.60413 16.5 1.60413 17.137 1.65107 18.0357C1.71671 19.292 2.70982 20.2455 3.96698 20.2931C5.36704 20.3462 7.58831 20.3958 11 20.3958C14.4116 20.3958 16.6329 20.3462 18.0329 20.2931C19.2901 20.2455 20.2832 19.292 20.3489 18.0357C20.3958 17.137 20.3958 16.5 20.3958 16.5Z" fill="#637381"/>
<path d="M11 0.916626C8.46868 0.916626 6.41663 2.96865 6.41663 5.49996H8.24996C8.24996 3.98118 9.48118 2.74996 11 2.74996C12.5187 2.74996 13.75 3.98118 13.75 5.49996H15.5833C15.5833 2.96865 13.5312 0.916626 11 0.916626Z" fill="#637381"/>
</svg>
