<svg width="48" height="48" viewBox="0 0 48 48" fill="none" xmlns="http://www.w3.org/2000/svg">
<path d="M10.2148 30.6123C6.71255 22.9891 10.1907 14.9695 17.1739 11.0284C24.2835 7.01748 33.9189 7.08209 41.1521 10.6817C42.6579 11.4331 41.4508 13.5427 39.9513 12.945C33.3992 10.3368 25.7612 10.0919 19.328 13.1729C16.5271 14.4946 14.2132 16.6643 12.7144 19.3746C10.7316 22.9202 11.2022 26.5193 11.688 30.3396C11.8056 31.2586 10.5389 31.3074 10.2148 30.6123Z" fill="#919EAB" fill-opacity="0.24"/>
<path d="M11.8127 39.0341C9.56044 35.9944 6.83869 32.7706 6.0184 28.9795C5.98255 28.8458 5.99949 28.7036 6.06572 28.5821C6.13195 28.4607 6.24239 28.3694 6.37412 28.3271C6.50586 28.2849 6.64879 28.295 6.77328 28.3553C6.89777 28.4157 6.99426 28.5216 7.04276 28.6511C8.43456 31.8092 10.4093 34.463 12.5532 37.1099C13.8626 35.3195 14.9151 33.2716 16.4774 31.7142C16.6165 31.5741 16.8009 31.4879 16.9976 31.471C17.1943 31.4541 17.3906 31.5075 17.5516 31.6218C17.7126 31.736 17.8279 31.9037 17.8768 32.095C17.9258 32.2863 17.9053 32.4887 17.819 32.6663C16.5997 35.0298 15.0565 37.2116 13.234 39.1484C13.1392 39.2464 13.0239 39.3222 12.8964 39.3703C12.7689 39.4185 12.6323 39.4378 12.4964 39.4268C12.3605 39.4159 12.2287 39.375 12.1105 39.3071C11.9923 39.2392 11.8906 39.1459 11.8127 39.0341Z" fill="#919EAB" fill-opacity="0.24"/>
</svg>
