<svg width="13" height="12" viewBox="0 0 13 12" fill="none" xmlns="http://www.w3.org/2000/svg">
<path fill-rule="evenodd" clip-rule="evenodd" d="M13 1.15588C13 1.79547 12.5046 2.31177 11.8909 2.31177H8.71893L7.64681 4.90865L6.10148 3.29812L6.50815 2.31177H5.15506L2.93689 0H11.8909C12.5046 0 13 0.516295 13 1.15588ZM1.25848 0.43153L11.1072 10.6958C11.3955 10.9963 11.3955 11.4818 11.0998 11.7746C10.8114 12.0751 10.3456 12.0751 10.0572 11.7746L6.39724 7.96019L5.50258 10.141C5.33991 10.534 4.97022 10.7882 4.56355 10.7882C3.83155 10.7882 3.33616 10.01 3.62453 9.30101L4.84452 6.34195L0.215934 1.51806C0.0297021 1.32397 -0.0430298 1.04108 0.0251359 0.775946C0.0933015 0.510814 0.292009 0.303723 0.546406 0.232681C0.800804 0.161639 1.07224 0.23744 1.25848 0.43153Z" fill="#212B36"/>
</svg>
