<svg width="24" height="24" viewBox="0 0 24 24" fill="none" xmlns="http://www.w3.org/2000/svg">
<path fill-rule="evenodd" clip-rule="evenodd" d="M10.0003 2.25C9.66897 2.24984 9.34442 2.34373 9.06437 2.52075C8.78431 2.69777 8.56027 2.95066 8.41828 3.25C7.73428 3.256 7.20228 3.287 6.72628 3.473C6.15805 3.69527 5.66387 4.07301 5.30028 4.563C4.93328 5.056 4.76028 5.69 4.52428 6.561L4.47728 6.731L3.96428 9.695C3.77928 9.823 3.61828 9.975 3.47828 10.154C2.57728 11.307 3.00628 13.024 3.86428 16.455C4.40928 18.638 4.68228 19.729 5.49628 20.365C6.31028 21 7.43528 21 9.68528 21H14.3153C16.5653 21 17.6903 21 18.5043 20.365C19.3183 19.729 19.5903 18.638 20.1363 16.455C20.9943 13.023 21.4233 11.308 20.5223 10.154C20.3845 9.97656 20.2203 9.8214 20.0353 9.694L19.5223 6.732L19.4763 6.562C19.2393 5.69 19.0663 5.056 18.7003 4.562C18.3365 4.07238 17.8424 3.695 17.2743 3.473C16.7983 3.287 16.2653 3.256 15.5823 3.251C15.4404 2.95147 15.2164 2.69838 14.9364 2.52117C14.6563 2.34396 14.3317 2.24993 14.0003 2.25H10.0003ZM18.4183 9.146L18.0563 7.058C17.7733 6.018 17.6703 5.691 17.4963 5.457C17.3005 5.19311 17.0343 4.98968 16.7283 4.87C16.5083 4.784 16.2423 4.759 15.5803 4.752C15.4381 5.05066 15.2143 5.30293 14.9346 5.47956C14.655 5.6562 14.331 5.74996 14.0003 5.75H10.0003C9.66952 5.74996 9.34555 5.6562 9.06591 5.47956C8.78627 5.30293 8.56241 5.05066 8.42028 4.752C7.75728 4.759 7.49228 4.784 7.27228 4.87C6.96624 4.98968 6.70009 5.19311 6.50428 5.457C6.33028 5.691 6.22728 6.017 5.94428 7.057L5.58228 9.146C6.58028 9 7.91028 9 9.68528 9H14.3153C16.0903 9 17.4203 9 18.4183 9.146ZM8.00028 12.25C8.19919 12.25 8.38995 12.329 8.53061 12.4697C8.67126 12.6103 8.75028 12.8011 8.75028 13V17C8.75028 17.1989 8.67126 17.3897 8.53061 17.5303C8.38995 17.671 8.19919 17.75 8.00028 17.75C7.80136 17.75 7.6106 17.671 7.46995 17.5303C7.32929 17.3897 7.25028 17.1989 7.25028 17V13C7.25028 12.8011 7.32929 12.6103 7.46995 12.4697C7.6106 12.329 7.80136 12.25 8.00028 12.25ZM16.7503 13C16.7503 12.8011 16.6713 12.6103 16.5306 12.4697C16.39 12.329 16.1992 12.25 16.0003 12.25C15.8014 12.25 15.6106 12.329 15.4699 12.4697C15.3293 12.6103 15.2503 12.8011 15.2503 13V17C15.2503 17.1989 15.3293 17.3897 15.4699 17.5303C15.6106 17.671 15.8014 17.75 16.0003 17.75C16.1992 17.75 16.39 17.671 16.5306 17.5303C16.6713 17.3897 16.7503 17.1989 16.7503 17V13ZM12.0003 12.25C12.1992 12.25 12.39 12.329 12.5306 12.4697C12.6713 12.6103 12.7503 12.8011 12.7503 13V17C12.7503 17.1989 12.6713 17.3897 12.5306 17.5303C12.39 17.671 12.1992 17.75 12.0003 17.75C11.8014 17.75 11.6106 17.671 11.4699 17.5303C11.3293 17.3897 11.2503 17.1989 11.2503 17V13C11.2503 12.8011 11.3293 12.6103 11.4699 12.4697C11.6106 12.329 11.8014 12.25 12.0003 12.25Z" fill="#212B36"/>
</svg>
