<svg width="22" height="22" viewBox="0 0 22 22" fill="none" xmlns="http://www.w3.org/2000/svg">
<path opacity="0.32" d="M19.4157 15.5561C19.1556 16.1567 18.5372 16.5 17.8828 16.5H13.5807C13.6089 16.4216 13.6339 16.3413 13.6555 16.2592C13.9066 15.306 13.6422 14.3358 13.0362 13.655C13.2599 11.8334 13.3995 9.96716 13.4848 8.49306C13.5271 7.7617 12.6311 7.51741 12.3084 8.17232C11.6579 9.49232 10.8618 11.1795 10.1604 12.8709C9.30106 13.1522 8.59532 13.8579 8.34429 14.8111C8.19164 15.3908 8.22959 15.9767 8.41906 16.5H4.11704C3.4626 16.5 2.84423 16.1567 2.58416 15.5561C2.10103 14.4405 1.83325 13.2099 1.83325 11.9167C1.83325 6.85405 5.93731 2.75 10.9999 2.75C16.0625 2.75 20.1666 6.85405 20.1666 11.9167C20.1666 13.2099 19.8988 14.4405 19.4157 15.5561Z" fill="#212B36"/>
<path d="M13.4849 8.49302C13.5272 7.76166 12.6312 7.51737 12.3085 8.17228C11.658 9.49228 10.8619 11.1795 10.1605 12.8709C9.30114 13.1522 8.5954 13.8578 8.34437 14.8111C7.95135 16.3034 8.82177 17.8374 10.2884 18.2373C11.7551 18.6372 13.2627 17.7515 13.6556 16.2592C13.9067 15.3059 13.6422 14.3357 13.0362 13.6549C13.26 11.8333 13.3996 9.96712 13.4849 8.49302Z" fill="#212B36"/>
</svg>
