<svg width="132" height="132" viewBox="0 0 132 132" fill="none" xmlns="http://www.w3.org/2000/svg">
<path d="M44.8801 27.7201C44.8801 26.262 43.6981 25.0801 42.2401 25.0801C40.7821 25.0801 39.6001 26.262 39.6001 27.7201V35.6401H44.8801V27.7201Z" fill="#919EAB"/>
<path d="M92.4001 27.7201C92.4001 26.262 91.2181 25.0801 89.7601 25.0801C88.3021 25.0801 87.1201 26.262 87.1201 27.7201V35.6401H92.4001V27.7201Z" fill="#919EAB"/>
<path opacity="0.24" d="M18.48 46.2C18.48 41.8259 22.0259 38.28 26.4 38.28H105.6C109.974 38.28 113.52 41.8259 113.52 46.2V99C113.52 103.374 109.974 106.92 105.6 106.92H26.4C22.0259 106.92 18.48 103.374 18.48 99V46.2Z" fill="#919EAB"/>
<g opacity="0.24">
<path d="M34.3198 78.5401C34.3198 76.353 36.0928 74.5801 38.2798 74.5801H48.8398C51.0269 74.5801 52.7998 76.353 52.7998 78.5401V83.8201C52.7998 86.0071 51.0269 87.7801 48.8398 87.7801H38.2798C36.0928 87.7801 34.3198 86.0071 34.3198 83.8201V78.5401Z" fill="#919EAB"/>
<path d="M56.7598 78.5401C56.7598 76.353 58.5328 74.5801 60.7198 74.5801H71.2798C73.4669 74.5801 75.2398 76.353 75.2398 78.5401V83.8201C75.2398 86.0071 73.4669 87.7801 71.2798 87.7801H60.7198C58.5328 87.7801 56.7598 86.0071 56.7598 83.8201V78.5401Z" fill="#919EAB"/>
</g>
<g opacity="0.48">
<path d="M34.3198 61.3802C34.3198 59.1931 36.0928 57.4202 38.2798 57.4202H48.8398C51.0269 57.4202 52.7998 59.1931 52.7998 61.3802V66.6602C52.7998 68.8472 51.0269 70.6202 48.8398 70.6202H38.2798C36.0928 70.6202 34.3198 68.8472 34.3198 66.6602V61.3802Z" fill="#919EAB"/>
<path d="M56.7598 61.3802C56.7598 59.1931 58.5328 57.4202 60.7198 57.4202H71.2798C73.4669 57.4202 75.2398 59.1931 75.2398 61.3802V66.6602C75.2398 68.8472 73.4669 70.6202 71.2798 70.6202H60.7198C58.5328 70.6202 56.7598 68.8472 56.7598 66.6602V61.3802Z" fill="#919EAB"/>
<path d="M79.1998 61.3802C79.1998 59.1931 80.9728 57.4202 83.1598 57.4202H93.7198C95.9069 57.4202 97.6798 59.1931 97.6798 61.3802V66.6602C97.6798 68.8472 95.9069 70.6202 93.7198 70.6202H83.1598C80.9728 70.6202 79.1998 68.8472 79.1998 66.6602V61.3802Z" fill="#919EAB"/>
</g>
<g opacity="0.48">
<path d="M44.8801 44.88C44.8801 46.338 43.6981 47.52 42.2401 47.52C40.7821 47.52 39.6001 46.338 39.6001 44.88C39.6001 43.422 40.7821 42.24 42.2401 42.24C43.6981 42.24 44.8801 43.422 44.8801 44.88Z" fill="#919EAB"/>
<path d="M92.4001 44.88C92.4001 46.338 91.2181 47.52 89.7601 47.52C88.3021 47.52 87.1201 46.338 87.1201 44.88C87.1201 43.422 88.3021 42.24 89.7601 42.24C91.2181 42.24 92.4001 43.422 92.4001 44.88Z" fill="#919EAB"/>
</g>
</svg>
