<svg width="24" height="24" viewBox="0 0 24 24" fill="none" xmlns="http://www.w3.org/2000/svg">
<path opacity="0.32" fill-rule="evenodd" clip-rule="evenodd" d="M2.12411 8H21.8758C21.9467 9.20109 22 10.8266 22 13C22 16.4843 21.8631 18.5605 21.7362 19.7371C21.6422 20.6088 21.0518 21.281 20.1903 21.4442C18.8494 21.6983 16.3428 22 12 22C7.65725 22 5.15055 21.6983 3.80967 21.4442C2.94826 21.281 2.35785 20.6088 2.26379 19.7371C2.13682 18.5605 2 16.4843 2 13C2 10.8266 2.05324 9.20109 2.12411 8ZM6.5 12.6815C6.5 12.0806 6.93315 11.6082 7.5337 11.5868C8.3136 11.559 9.6669 11.5275 12 11.5069C14.5069 11.4848 15.8826 11.5197 16.6312 11.5599C17.1554 11.5881 17.5 11.9946 17.5 12.5196V12.9107C17.5 13.4726 17.1157 13.9093 16.5543 13.934C15.7898 13.9675 14.4235 14 12 14C9.5765 14 8.21025 13.9675 7.44565 13.934C6.88435 13.9093 6.5 13.4726 6.5 12.9107V12.6815ZM6.5 17.0891C6.5 16.5276 6.8844 16.0793 7.44515 16.0503C7.97275 16.0231 8.7795 16.0001 10 16.0001C11.2205 16.0001 12.0272 16.0231 12.5548 16.0503C13.1156 16.0793 13.5 16.5276 13.5 17.0891V17.4111C13.5 17.9726 13.1156 18.4208 12.5548 18.4498C12.0272 18.4771 11.2205 18.5001 10 18.5001C8.7795 18.5001 7.97275 18.4771 7.44515 18.4498C6.8844 18.4208 6.5 17.9726 6.5 17.4111V17.0891Z" fill="#00A76F"/>
<path d="M17.916 2.03126C18.2286 2.05703 18.4434 2.28598 18.4646 2.59889C18.4841 2.88636 18.501 3.32917 18.501 4C18.501 4.10776 18.5005 4.20964 18.4997 4.30593C19.2009 4.38632 19.7571 4.47356 20.1912 4.55581C21.0526 4.71901 21.643 5.39115 21.7371 6.26285C21.7849 6.7055 21.834 7.27555 21.8768 8H2.125C2.16775 7.27555 2.21691 6.7055 2.26468 6.26285C2.35873 5.39115 2.94915 4.71902 3.81056 4.55581C4.24467 4.47356 4.80098 4.3863 5.50222 4.30591C5.50142 4.20962 5.50097 4.10775 5.50097 4C5.50097 3.32917 5.51787 2.88636 5.53737 2.59889C5.55857 2.28598 5.77337 2.05703 6.08592 2.03126C6.29862 2.01372 6.59477 2 7.00097 2C7.40717 2 7.70333 2.01372 7.91603 2.03126C8.22858 2.05703 8.44337 2.28598 8.46457 2.59889C8.48407 2.88636 8.50097 3.32917 8.50097 4C8.50097 4.02539 8.50098 4.05047 8.50093 4.07521C9.50743 4.02844 10.6676 4 12.0009 4C13.3342 4 14.4945 4.02845 15.501 4.07522L15.501 4C15.501 3.32917 15.5179 2.88636 15.5374 2.59889C15.5586 2.28598 15.7734 2.05703 16.0859 2.03126C16.2986 2.01372 16.5948 2 17.001 2C17.4072 2 17.7033 2.01372 17.916 2.03126Z" fill="#00A76F"/>
<path fill-rule="evenodd" clip-rule="evenodd" d="M7.53467 11.5868C6.93412 11.6081 6.50097 12.0805 6.50097 12.6815V12.9107C6.50097 13.4725 6.88532 13.9093 7.44662 13.9339C8.21122 13.9674 9.57747 14 12.001 14C14.4245 14 15.7907 13.9674 16.5553 13.9339C17.1166 13.9093 17.501 13.4725 17.501 12.9107V12.5196C17.501 11.9946 17.1564 11.5881 16.6322 11.5599C15.8835 11.5196 14.5079 11.4847 12.001 11.5069C9.66787 11.5274 8.31457 11.559 7.53467 11.5868ZM7.44613 16.0503C6.88538 16.0793 6.50097 16.5275 6.50097 17.089V17.411C6.50097 17.9725 6.88538 18.4208 7.44613 18.4498C7.97372 18.477 8.78047 18.5 10.001 18.5C11.2215 18.5 12.0282 18.477 12.5558 18.4498C13.1166 18.4208 13.501 17.9725 13.501 17.411V17.089C13.501 16.5275 13.1166 16.0793 12.5558 16.0503C12.0282 16.023 11.2215 16 10.001 16C8.78047 16 7.97372 16.023 7.44613 16.0503Z" fill="#00A76F"/>
</svg>
