<svg width="20" height="20" viewBox="0 0 20 20" fill="none" xmlns="http://www.w3.org/2000/svg">
<path fill-rule="evenodd" clip-rule="evenodd" d="M4.37533 8.37949V6.66699C4.37533 5.17515 4.96796 3.74441 6.02285 2.68952C7.07774 1.63462 8.50848 1.04199 10.0003 1.04199C11.4922 1.04199 12.9229 1.63462 13.9778 2.68952C15.0327 3.74441 15.6253 5.17515 15.6253 6.66699V8.37949C16.5545 8.44866 17.1587 8.62366 17.6012 9.06616C18.3337 9.79782 18.3337 10.977 18.3337 13.3337C18.3337 15.6903 18.3337 16.8695 17.6012 17.6012C16.8695 18.3337 15.6903 18.3337 13.3337 18.3337H6.66699C4.31033 18.3337 3.13116 18.3337 2.39949 17.6012C1.66699 16.8695 1.66699 15.6903 1.66699 13.3337C1.66699 10.977 1.66699 9.79782 2.39949 9.06616C2.84116 8.62366 3.44616 8.44866 4.37533 8.37949ZM5.62533 6.66699C5.62533 5.50667 6.08626 4.39387 6.90673 3.5734C7.72721 2.75293 8.84 2.29199 10.0003 2.29199C11.1606 2.29199 12.2734 2.75293 13.0939 3.5734C13.9144 4.39387 14.3753 5.50667 14.3753 6.66699V8.33699C14.0562 8.33366 13.7095 8.33366 13.3337 8.33366H6.66699C6.29033 8.33366 5.94449 8.33366 5.62533 8.33699V6.66699Z" fill="#919EAB"/>
</svg>
