<svg width="22" height="22" viewBox="0 0 22 22" fill="none" xmlns="http://www.w3.org/2000/svg">
<path opacity="0.32" d="M19.4158 15.5561C19.1557 16.1567 18.5373 16.5 17.8829 16.5H13.5808C13.609 16.4216 13.634 16.3413 13.6557 16.2592C13.9067 15.306 13.6423 14.3358 13.0363 13.655C13.26 11.8334 13.3996 9.96716 13.4849 8.49306C13.5272 7.7617 12.6312 7.51741 12.3085 8.17232C11.658 9.49232 10.8619 11.1795 10.1605 12.8709C9.30118 13.1522 8.59544 13.8579 8.34441 14.8111C8.19176 15.3908 8.22971 15.9767 8.41918 16.5H4.11716C3.46273 16.5 2.84435 16.1567 2.58428 15.5561C2.10115 14.4405 1.83337 13.2099 1.83337 11.9167C1.83337 6.85405 5.93743 2.75 11 2.75C16.0627 2.75 20.1667 6.85405 20.1667 11.9167C20.1667 13.2099 19.8989 14.4405 19.4158 15.5561Z" fill="#00A76F"/>
<path d="M13.4849 8.49302C13.5272 7.76166 12.6312 7.51737 12.3085 8.17228C11.658 9.49228 10.8619 11.1795 10.1605 12.8709C9.30114 13.1522 8.5954 13.8578 8.34437 14.8111C7.95135 16.3034 8.82177 17.8374 10.2884 18.2373C11.7551 18.6372 13.2627 17.7515 13.6556 16.2592C13.9067 15.3059 13.6422 14.3357 13.0362 13.6549C13.26 11.8333 13.3996 9.96712 13.4849 8.49302Z" fill="#00A76F"/>
</svg>
