<svg width="132" height="132" viewBox="0 0 132 132" fill="none" xmlns="http://www.w3.org/2000/svg">
<path opacity="0.24" d="M66 102.96C86.4125 102.96 102.96 86.4125 102.96 66C102.96 45.5876 86.4125 29.04 66 29.04C45.5876 29.04 29.04 45.5876 29.04 66C29.04 86.4125 45.5876 102.96 66 102.96Z" fill="#919EAB"/>
<path d="M65.9996 66.2809C69.9499 66.2809 73.1523 63.2631 73.1523 59.5405C73.1523 55.8178 69.9499 52.8 65.9996 52.8C62.0492 52.8 58.8468 55.8178 58.8468 59.5405C58.8468 63.2631 62.0492 66.2809 65.9996 66.2809ZM61.0792 68.3786C64.2801 67.3794 67.719 67.3794 70.92 68.3786C74.0662 69.3607 76.6745 71.5449 78.1537 74.4361L78.9613 76.0146C79.5171 77.1009 79.0684 78.4227 77.9591 78.967C77.6467 79.1202 77.3021 79.2 76.9527 79.2H55.0464C53.8056 79.2 52.7998 78.2151 52.7998 77C52.7998 76.6579 52.8813 76.3205 53.0378 76.0146L53.8454 74.4361C55.3246 71.5449 57.9329 69.3607 61.0792 68.3786Z" fill="#919EAB"/>
</svg>
