<svg width="14" height="14" viewBox="0 0 14 14" fill="none" xmlns="http://www.w3.org/2000/svg">
<path d="M12.25 7.58324V11.9197C12.25 12.0372 12.2263 12.1535 12.1804 12.2617C12.1345 12.3699 12.0672 12.4677 11.9827 12.5493C11.8981 12.6309 11.798 12.6946 11.6883 12.7367C11.5786 12.7788 11.4615 12.7983 11.3441 12.7942L11.2665 12.7877L7 12.2546V7.58324H12.25ZM5.83333 7.58324V12.1087L2.772 11.7261C2.48979 11.6908 2.23017 11.5537 2.04197 11.3404C1.85377 11.1272 1.74994 10.8526 1.75 10.5682V7.58324H5.83333ZM11.2665 1.21207C11.3831 1.19751 11.5014 1.20657 11.6144 1.23873C11.7275 1.27089 11.8328 1.32548 11.9243 1.39924C12.0157 1.47301 12.0914 1.56444 12.1468 1.66808C12.2021 1.77172 12.236 1.88545 12.2465 2.00249L12.25 2.08007V6.41657H7V1.74524L11.2665 1.21207ZM5.83333 1.89107V6.41657H1.75V3.43165C1.74994 3.14725 1.85377 2.87261 2.04197 2.65938C2.23017 2.44615 2.48979 2.309 2.772 2.27374L5.83333 1.89107Z" fill="#637381"/>
</svg>
