<svg width="16" height="16" viewBox="0 0 16 16" fill="none" xmlns="http://www.w3.org/2000/svg">
<path d="M13.3333 7.32674C13.1565 7.32674 12.987 7.39698 12.8619 7.522C12.7369 7.64703 12.6667 7.8166 12.6667 7.99341V11.9934C12.6667 12.1702 12.5964 12.3398 12.4714 12.4648C12.3464 12.5898 12.1768 12.6601 12 12.6601H4C3.82319 12.6601 3.65362 12.5898 3.5286 12.4648C3.40357 12.3398 3.33333 12.1702 3.33333 11.9934V3.99341C3.33333 3.8166 3.40357 3.64703 3.5286 3.522C3.65362 3.39698 3.82319 3.32674 4 3.32674H8C8.17681 3.32674 8.34638 3.2565 8.4714 3.13148C8.59643 3.00646 8.66667 2.83689 8.66667 2.66007C8.66667 2.48326 8.59643 2.31369 8.4714 2.18867C8.34638 2.06365 8.17681 1.99341 8 1.99341H4C3.46957 1.99341 2.96086 2.20412 2.58579 2.57919C2.21071 2.95427 2 3.46298 2 3.99341V11.9934C2 12.5238 2.21071 13.0325 2.58579 13.4076C2.96086 13.7827 3.46957 13.9934 4 13.9934H12C12.5304 13.9934 13.0391 13.7827 13.4142 13.4076C13.7893 13.0325 14 12.5238 14 11.9934V7.99341C14 7.8166 13.9298 7.64703 13.8047 7.522C13.6797 7.39698 13.5101 7.32674 13.3333 7.32674Z" fill="#212B36"/>
<path d="M10.6667 3.32674H11.72L7.52667 7.51341C7.46418 7.57538 7.41459 7.64912 7.38074 7.73036C7.34689 7.8116 7.32947 7.89873 7.32947 7.98674C7.32947 8.07475 7.34689 8.16189 7.38074 8.24313C7.41459 8.32437 7.46418 8.3981 7.52667 8.46007C7.58864 8.52256 7.66238 8.57216 7.74362 8.606C7.82486 8.63985 7.91199 8.65727 8 8.65727C8.08801 8.65727 8.17515 8.63985 8.25638 8.606C8.33762 8.57216 8.41136 8.52256 8.47333 8.46007L12.6667 4.27341V5.32674C12.6667 5.50355 12.7369 5.67312 12.8619 5.79815C12.987 5.92317 13.1565 5.99341 13.3333 5.99341C13.5101 5.99341 13.6797 5.92317 13.8047 5.79815C13.9298 5.67312 14 5.50355 14 5.32674V2.66007C14 2.48326 13.9298 2.31369 13.8047 2.18867C13.6797 2.06365 13.5101 1.99341 13.3333 1.99341H10.6667C10.4899 1.99341 10.3203 2.06365 10.1953 2.18867C10.0702 2.31369 10 2.48326 10 2.66007C10 2.83689 10.0702 3.00646 10.1953 3.13148C10.3203 3.2565 10.4899 3.32674 10.6667 3.32674Z" fill="#212B36"/>
</svg>
