<svg width="20" height="20" viewBox="0 0 20 20" fill="none" xmlns="http://www.w3.org/2000/svg">
<path opacity="0.5" d="M4.16453 5.20837C4.03672 5.20828 3.91196 5.24737 3.80706 5.32037C3.70216 5.39337 3.62216 5.49678 3.57784 5.61665C3.53352 5.73652 3.52702 5.8671 3.55921 5.99079C3.5914 6.11447 3.66073 6.22531 3.75786 6.30837L9.59119 11.3084C9.82453 11.5084 10.1704 11.5084 10.4045 11.3084L16.2379 6.30837C16.335 6.22531 16.4043 6.11447 16.4365 5.99079C16.4687 5.8671 16.4622 5.73652 16.4179 5.61665C16.3736 5.49678 16.2936 5.39337 16.1887 5.32037C16.0838 5.24737 15.959 5.20828 15.8312 5.20837H4.16453Z" fill="#00B8D9"/>
<path fill-rule="evenodd" clip-rule="evenodd" d="M3.68901 8.75998C3.74245 8.69762 3.80765 8.64641 3.88089 8.60927C3.95413 8.57213 4.03397 8.54979 4.11585 8.54352C4.19773 8.53725 4.28005 8.54718 4.35809 8.57274C4.43613 8.5983 4.50837 8.63898 4.57067 8.69247L9.99734 13.3433L15.424 8.69247C15.4862 8.63842 15.5585 8.5972 15.6368 8.5712C15.715 8.54521 15.7976 8.53494 15.8798 8.541C15.962 8.54705 16.0422 8.56931 16.1158 8.60649C16.1894 8.64367 16.2548 8.69504 16.3085 8.75763C16.3621 8.82023 16.4028 8.89281 16.4283 8.97121C16.4538 9.04961 16.4635 9.13227 16.4569 9.21444C16.4503 9.29661 16.4275 9.37665 16.3898 9.44997C16.3521 9.52329 16.3003 9.58843 16.2373 9.64164L10.404 14.6416C10.2907 14.7387 10.1465 14.792 9.99734 14.792C9.84818 14.792 9.70394 14.7387 9.59067 14.6416L3.75734 9.64164C3.69499 9.5882 3.64378 9.523 3.60664 9.44976C3.5695 9.37652 3.54715 9.29668 3.54089 9.2148C3.53462 9.13292 3.54455 9.0506 3.5701 8.97256C3.59566 8.89452 3.63635 8.82228 3.68984 8.75998H3.68901Z" fill="#00B8D9"/>
</svg>
