<svg width="26" height="21" viewBox="0 0 26 21" fill="none" xmlns="http://www.w3.org/2000/svg">
<path fill-rule="evenodd" clip-rule="evenodd" d="M10.5793 18.58C15.2257 18.9456 20.0702 15.6211 21.4001 11.1541C22.7301 6.68715 20.0418 2.76976 15.3954 2.40409C10.749 2.03841 5.90451 5.36295 4.57455 9.82992C3.24458 14.2969 5.93291 18.2143 10.5793 18.58ZM14.5815 7.3065C14.6294 7.14562 14.6089 6.9861 14.5244 6.86303C14.44 6.73996 14.2985 6.66342 14.1312 6.65025C13.9638 6.63708 13.7843 6.68836 13.6321 6.79281C13.4799 6.89725 13.3675 7.04631 13.3196 7.20719L12.3564 10.4424C12.3085 10.6033 12.3289 10.763 12.4138 10.8856L13.915 13.0731C13.955 13.1372 14.0105 13.1905 14.078 13.2298C14.1455 13.269 14.2238 13.2934 14.308 13.3015C14.3923 13.3096 14.481 13.3013 14.5686 13.2769C14.6562 13.2526 14.7411 13.2128 14.8182 13.1599C14.8953 13.1071 14.9629 13.0422 15.0171 12.9691C15.0714 12.8961 15.111 12.8164 15.1338 12.7348C15.1566 12.6533 15.1619 12.5715 15.1496 12.4944C15.1373 12.4173 15.1075 12.3464 15.062 12.286L13.6929 10.291L14.5815 7.3065Z" fill="#00B8D9"/>
</svg>
