<svg width="36" height="36" viewBox="0 0 36 36" fill="none" xmlns="http://www.w3.org/2000/svg">
<path d="M20.7712 0C21.3014 0 21.8099 0.210507 22.1849 0.585255L32.7129 11.1053C33.0883 11.4805 33.2992 11.9894 33.2992 12.5201V31.8C33.2992 34.1196 31.3812 36 29.0152 36H6.98322C4.61723 36 2.69922 34.1196 2.69922 31.8V4.2C2.69922 1.8804 4.61723 0 6.98322 0H20.7712Z" fill="#454F5B"/>
<g filter="url(#filter0_d_0_22130)">
<path d="M31.5533 10.8391C31.8663 11.1546 31.6427 11.6912 31.1983 11.6912H26.0984C23.7788 11.6912 21.6863 9.65089 21.6863 7.38923V2.10528C21.6863 1.65884 22.2269 1.4362 22.5413 1.75317L31.5533 10.8391Z" fill="white" fill-opacity="0.24" shape-rendering="crispEdges"/>
</g>
<defs>
<filter id="filter0_d_0_22130" x="19.6875" y="1.60425" width="14.0117" height="14.0869" filterUnits="userSpaceOnUse" color-interpolation-filters="sRGB">
<feFlood flood-opacity="0" result="BackgroundImageFix"/>
<feColorMatrix in="SourceAlpha" type="matrix" values="0 0 0 0 0 0 0 0 0 0 0 0 0 0 0 0 0 0 127 0" result="hardAlpha"/>
<feOffset dy="2"/>
<feGaussianBlur stdDeviation="1"/>
<feComposite in2="hardAlpha" operator="out"/>
<feColorMatrix type="matrix" values="0 0 0 0 0 0 0 0 0 0 0 0 0 0 0 0 0 0 0.04 0"/>
<feBlend mode="normal" in2="BackgroundImageFix" result="effect1_dropShadow_0_22130"/>
<feBlend mode="normal" in="SourceGraphic" in2="effect1_dropShadow_0_22130" result="shape"/>
</filter>
</defs>
</svg>
