<svg width="32" height="32" viewBox="0 0 32 32" fill="none" xmlns="http://www.w3.org/2000/svg">
<path fill-rule="evenodd" clip-rule="evenodd" d="M15.9998 13.6669C16.2651 13.6669 16.5194 13.7722 16.7069 13.9597C16.8945 14.1473 16.9998 14.4016 16.9998 14.6669V16.3335H18.6665C18.9317 16.3335 19.1861 16.4389 19.3736 16.6264C19.5611 16.8139 19.6665 17.0683 19.6665 17.3335C19.6665 17.5987 19.5611 17.8531 19.3736 18.0406C19.1861 18.2282 18.9317 18.3335 18.6665 18.3335H16.9998V20.0002C16.9998 20.2654 16.8945 20.5198 16.7069 20.7073C16.5194 20.8948 16.2651 21.0002 15.9998 21.0002C15.7346 21.0002 15.4803 20.8948 15.2927 20.7073C15.1052 20.5198 14.9998 20.2654 14.9998 20.0002V18.3335H13.3332C13.068 18.3335 12.8136 18.2282 12.6261 18.0406C12.4385 17.8531 12.3332 17.5987 12.3332 17.3335C12.3332 17.0683 12.4385 16.8139 12.6261 16.6264C12.8136 16.4389 13.068 16.3335 13.3332 16.3335H14.9998V14.6669C14.9998 14.4016 15.1052 14.1473 15.2927 13.9597C15.4803 13.7722 15.7346 13.6669 15.9998 13.6669Z" fill="#919EAB"/>
<path fill-rule="evenodd" clip-rule="evenodd" d="M13.0372 28.0002H18.9625C23.1238 28.0002 25.2052 28.0002 26.6998 27.0202C27.3448 26.5975 27.9002 26.052 28.3345 25.4149C29.3332 23.9482 29.3332 21.9042 29.3332 17.8189C29.3332 13.7322 29.3332 11.6895 28.3345 10.2229C27.9002 9.58567 27.3448 9.04019 26.6998 8.61752C25.7398 7.98685 24.5372 7.76152 22.6958 7.68152C21.8172 7.68152 21.0612 7.02818 20.8892 6.18152C20.7577 5.56134 20.4162 5.00557 19.9223 4.60812C19.4284 4.21067 18.8124 3.99593 18.1785 4.00018H13.8212C12.5038 4.00018 11.3692 4.91352 11.1105 6.18152C10.9385 7.02818 10.1825 7.68152 9.30384 7.68152C7.46384 7.76152 6.26117 7.98818 5.29984 8.61752C4.65533 9.04027 4.10034 9.58575 3.6665 10.2229C2.6665 11.6895 2.6665 13.7322 2.6665 17.8189C2.6665 21.9042 2.6665 23.9469 3.66517 25.4149C4.09717 26.0495 4.65184 26.5949 5.29984 27.0202C6.7945 28.0002 8.87584 28.0002 13.0372 28.0002ZM21.3332 17.3335C21.3332 18.748 20.7713 20.1046 19.7711 21.1048C18.7709 22.1049 17.4143 22.6669 15.9998 22.6669C14.5854 22.6669 13.2288 22.1049 12.2286 21.1048C11.2284 20.1046 10.6665 18.748 10.6665 17.3335C10.6665 15.919 11.2284 14.5625 12.2286 13.5623C13.2288 12.5621 14.5854 12.0002 15.9998 12.0002C17.4143 12.0002 18.7709 12.5621 19.7711 13.5623C20.7713 14.5625 21.3332 15.919 21.3332 17.3335ZM23.9998 12.3335C23.7346 12.3335 23.4803 12.4389 23.2927 12.6264C23.1052 12.8139 22.9998 13.0683 22.9998 13.3335C22.9998 13.5987 23.1052 13.8531 23.2927 14.0406C23.4803 14.2282 23.7346 14.3335 23.9998 14.3335H25.3332C25.5984 14.3335 25.8527 14.2282 26.0403 14.0406C26.2278 13.8531 26.3332 13.5987 26.3332 13.3335C26.3332 13.0683 26.2278 12.8139 26.0403 12.6264C25.8527 12.4389 25.5984 12.3335 25.3332 12.3335H23.9998Z" fill="#919EAB"/>
</svg>
