<svg width="132" height="132" viewBox="0 0 132 132" fill="none" xmlns="http://www.w3.org/2000/svg">
<path d="M20.2977 72.7464L16.4455 74.7835C15.7431 75.155 14.8743 74.8833 14.5051 74.1768C14.358 73.8955 14.3073 73.5733 14.3607 73.26L15.0973 68.9398C15.1359 68.7137 15.0612 68.483 14.8974 68.3223L11.7777 65.2635C11.2094 64.7064 11.1978 63.7914 11.7517 63.2198C11.9722 62.9922 12.2613 62.844 12.574 62.7983L16.8819 62.1687C17.1103 62.1353 17.3075 61.9915 17.4091 61.7844L19.3365 57.8563C19.6876 57.1405 20.5492 56.8466 21.2608 57.1999C21.5442 57.3405 21.7735 57.5712 21.9134 57.8563L23.8407 61.7844C23.9423 61.9915 24.1396 62.1353 24.3679 62.1687L28.6759 62.7983C29.4611 62.9131 30.0052 63.6465 29.8911 64.4364C29.8457 64.751 29.6984 65.0417 29.4722 65.2635L26.3524 68.3223C26.1886 68.483 26.1139 68.7137 26.1525 68.9398L26.8891 73.26C27.0233 74.0467 26.498 74.7938 25.7159 74.9288C25.4044 74.9825 25.0841 74.9314 24.8044 74.7835L20.9521 72.7464C20.7474 72.6382 20.5024 72.6382 20.2977 72.7464Z" fill="#919EAB"/>
<path d="M42.9852 72.7464L39.133 74.7835C38.4306 75.155 37.5618 74.8833 37.1926 74.1768C37.0455 73.8955 36.9948 73.5733 37.0482 73.26L37.7848 68.9398C37.8234 68.7137 37.7487 68.483 37.5849 68.3223L34.4652 65.2635C33.8969 64.7064 33.8853 63.7914 34.4392 63.2198C34.6598 62.9922 34.9488 62.844 35.2615 62.7983L39.5694 62.1687C39.7978 62.1353 39.995 61.9915 40.0966 61.7844L42.024 57.8563C42.3751 57.1405 43.2367 56.8466 43.9483 57.1999C44.2317 57.3405 44.461 57.5712 44.6009 57.8563L46.5282 61.7844C46.6298 61.9915 46.8271 62.1353 47.0554 62.1687L51.3634 62.7983C52.1486 62.9131 52.6927 63.6465 52.5786 64.4364C52.5332 64.751 52.3859 65.0417 52.1597 65.2635L49.0399 68.3223C48.8761 68.483 48.8014 68.7137 48.84 68.9398L49.5766 73.26C49.7108 74.0467 49.1855 74.7938 48.4034 74.9288C48.0919 74.9825 47.7716 74.9314 47.4919 74.7835L43.6396 72.7464C43.4349 72.6382 43.1899 72.6382 42.9852 72.7464Z" fill="#919EAB"/>
<path d="M65.6727 72.7464L61.8205 74.7835C61.1181 75.155 60.2493 74.8833 59.8801 74.1768C59.733 73.8955 59.6823 73.5733 59.7357 73.26L60.4723 68.9398C60.5109 68.7137 60.4362 68.483 60.2724 68.3223L57.1527 65.2635C56.5844 64.7064 56.5728 63.7914 57.1267 63.2198C57.3472 62.9922 57.6363 62.844 57.949 62.7983L62.2569 62.1687C62.4853 62.1353 62.6825 61.9915 62.7841 61.7844L64.7115 57.8563C65.0626 57.1405 65.9242 56.8466 66.6358 57.1999C66.9192 57.3405 67.1485 57.5712 67.2884 57.8563L69.2157 61.7844C69.3173 61.9915 69.5146 62.1353 69.7429 62.1687L74.0509 62.7983C74.8361 62.9131 75.3802 63.6465 75.2661 64.4364C75.2207 64.751 75.0734 65.0417 74.8472 65.2635L71.7274 68.3223C71.5636 68.483 71.4889 68.7137 71.5275 68.9398L72.2641 73.26C72.3983 74.0467 71.873 74.7938 71.0909 74.9288C70.7794 74.9825 70.4591 74.9314 70.1794 74.7835L66.3271 72.7464C66.1224 72.6382 65.8774 72.6382 65.6727 72.7464Z" fill="#919EAB"/>
<g opacity="0.24">
<path d="M88.3602 72.7464L84.508 74.7835C83.8056 75.155 82.9368 74.8833 82.5676 74.1768C82.4205 73.8955 82.3698 73.5733 82.4232 73.26L83.1598 68.9398C83.1984 68.7137 83.1237 68.483 82.9599 68.3223L79.8402 65.2635C79.2719 64.7064 79.2603 63.7914 79.8142 63.2198C80.0347 62.9922 80.3238 62.844 80.6365 62.7983L84.9444 62.1687C85.1728 62.1353 85.37 61.9915 85.4716 61.7844L87.399 57.8563C87.7501 57.1405 88.6117 56.8466 89.3233 57.1999C89.6067 57.3405 89.836 57.5712 89.9759 57.8563L91.9032 61.7844C92.0048 61.9915 92.2021 62.1353 92.4304 62.1687L96.7384 62.7983C97.5236 62.9131 98.0677 63.6465 97.9536 64.4364C97.9082 64.751 97.7609 65.0417 97.5347 65.2635L94.4149 68.3223C94.2511 68.483 94.1764 68.7137 94.215 68.9398L94.9516 73.26C95.0858 74.0467 94.5605 74.7938 93.7784 74.9288C93.4669 74.9825 93.1466 74.9314 92.8669 74.7835L89.0146 72.7464C88.8099 72.6382 88.5649 72.6382 88.3602 72.7464Z" fill="#919EAB"/>
<path d="M111.048 72.7464L107.195 74.7835C106.493 75.155 105.624 74.8833 105.255 74.1768C105.108 73.8955 105.057 73.5733 105.111 73.26L105.847 68.9398C105.886 68.7137 105.811 68.483 105.647 68.3223L102.528 65.2635C101.959 64.7064 101.948 63.7914 102.502 63.2198C102.722 62.9922 103.011 62.844 103.324 62.7983L107.632 62.1687C107.86 62.1353 108.057 61.9915 108.159 61.7844L110.086 57.8563C110.438 57.1405 111.299 56.8466 112.011 57.1999C112.294 57.3405 112.524 57.5712 112.663 57.8563L114.591 61.7844C114.692 61.9915 114.89 62.1353 115.118 62.1687L119.426 62.7983C120.211 62.9131 120.755 63.6465 120.641 64.4364C120.596 64.751 120.448 65.0417 120.222 65.2635L117.102 68.3223C116.939 68.483 116.864 68.7137 116.902 68.9398L117.639 73.26C117.773 74.0467 117.248 74.7938 116.466 74.9288C116.154 74.9825 115.834 74.9314 115.554 74.7835L111.702 72.7464C111.497 72.6382 111.252 72.6382 111.048 72.7464Z" fill="#919EAB"/>
</g>
</svg>
