<svg width="132" height="132" viewBox="0 0 132 132" fill="none" xmlns="http://www.w3.org/2000/svg">
<g filter="url(#filter0_di_0_18963)">
<path d="M74.0127 35.6401H23.667C19.3442 35.6401 15.8398 39.0807 15.8398 43.3249V54.3553C15.8398 58.5995 19.3442 62.0401 23.667 62.0401H74.0127C78.3355 62.0401 81.8398 58.5995 81.8398 54.3553V43.3249C81.8398 39.0807 78.3355 35.6401 74.0127 35.6401Z" fill="#00A76F"/>
</g>
<g filter="url(#filter1_di_0_18963)">
<path fill-rule="evenodd" clip-rule="evenodd" d="M116.16 48.8401C116.16 56.1303 110.25 62.0401 102.96 62.0401C95.6696 62.0401 89.7598 56.1303 89.7598 48.8401C89.7598 41.55 95.6696 35.6401 102.96 35.6401C110.25 35.6401 116.16 41.55 116.16 48.8401ZM102.265 54.1897L110.348 46.0341C111.057 45.3184 111.057 44.1538 110.348 43.4378C110.004 43.091 109.547 42.9001 109.061 42.9001C108.575 42.9001 108.118 43.091 107.775 43.4378L100.978 50.2951L98.1457 47.4369C97.8022 47.09 97.3452 46.899 96.8592 46.899C96.3731 46.899 95.9163 47.09 95.5727 47.4368C95.2291 47.7836 95.0398 48.2445 95.0398 48.735C95.0398 49.2254 95.2291 49.6864 95.5727 50.0331L99.6921 54.1897C100.036 54.5365 100.493 54.7273 100.979 54.7273C101.465 54.7273 101.921 54.5365 102.265 54.1897Z" fill="white"/>
</g>
<g filter="url(#filter2_di_0_18963)">
<path fill-rule="evenodd" clip-rule="evenodd" d="M102.265 54.1895L110.348 46.0339C111.057 45.3181 111.057 44.1536 110.348 43.4375C110.004 43.0908 109.547 42.8999 109.061 42.8999C108.575 42.8999 108.118 43.0908 107.775 43.4375L100.979 50.2949L98.146 47.4367C97.8025 47.0898 97.3455 46.8988 96.8595 46.8988C96.3734 46.8988 95.9165 47.0898 95.573 47.4366C95.2293 47.7833 95.04 48.2443 95.04 48.7348C95.04 49.2252 95.2293 49.6861 95.573 50.0329L99.6924 54.1895C100.036 54.5362 100.493 54.7271 100.979 54.7271C101.465 54.7271 101.922 54.5362 102.265 54.1895Z" fill="#00A76F"/>
</g>
<g filter="url(#filter3_di_0_18963)">
<path d="M74.0127 69.96H23.667C19.3442 69.96 15.8398 73.4006 15.8398 77.6448V88.6752C15.8398 92.9194 19.3442 96.36 23.667 96.36H74.0127C78.3355 96.36 81.8398 92.9194 81.8398 88.6752V77.6448C81.8398 73.4006 78.3355 69.96 74.0127 69.96Z" fill="#FFAB00"/>
</g>
<g filter="url(#filter4_di_0_18963)">
<path fill-rule="evenodd" clip-rule="evenodd" d="M116.16 83.16C116.16 90.4501 110.25 96.36 102.96 96.36C95.6696 96.36 89.7598 90.4501 89.7598 83.16C89.7598 75.8698 95.6696 69.96 102.96 69.96C110.25 69.96 116.16 75.8698 116.16 83.16ZM105.183 83.1601L108.439 86.4159C109.053 87.0302 109.053 88.0255 108.439 88.6395C108.132 88.9464 107.73 89.1 107.328 89.1C106.925 89.1 106.523 88.9464 106.216 88.6395L102.96 85.3837L99.7041 88.6393C99.397 88.9461 98.9944 89.0997 98.5922 89.0997C98.1897 89.0997 97.7877 88.9464 97.4803 88.6393C96.8663 88.0255 96.8663 87.03 97.4803 86.4157L100.736 83.1599L97.4803 79.904C96.8663 79.2903 96.8663 78.2947 97.4803 77.6805C98.094 77.0665 99.0896 77.0665 99.7038 77.6805L102.96 80.9366L106.216 77.6807C106.83 77.0667 107.825 77.0667 108.439 77.6807C109.053 78.2947 109.053 79.2903 108.439 79.9043L105.183 83.1601Z" fill="white"/>
</g>
<g filter="url(#filter5_di_0_18963)">
<path fill-rule="evenodd" clip-rule="evenodd" d="M105.183 83.1604L108.439 86.4162C109.053 87.0305 109.053 88.0258 108.439 88.6398C108.132 88.9466 107.73 89.1002 107.327 89.1002C106.925 89.1002 106.523 88.9466 106.215 88.6398L102.959 85.384L99.7038 88.6395C99.3967 88.9464 98.9942 89.0999 98.5919 89.0999C98.1894 89.0999 97.7874 88.9466 97.48 88.6395C96.866 88.0258 96.866 87.0302 97.48 86.4159L100.736 83.1601L97.48 79.9043C96.866 79.2905 96.866 78.295 97.48 77.6807C98.0938 77.0667 99.0893 77.0667 99.7036 77.6807L102.959 80.9368L106.215 77.681C106.829 77.067 107.825 77.067 108.439 77.681C109.053 78.295 109.053 79.2905 108.439 79.9046L105.183 83.1604Z" fill="#FFAB00"/>
</g>
<defs>
<filter id="filter0_di_0_18963" x="7.83984" y="27.6401" width="98" height="58.3999" filterUnits="userSpaceOnUse" color-interpolation-filters="sRGB">
<feFlood flood-opacity="0" result="BackgroundImageFix"/>
<feColorMatrix in="SourceAlpha" type="matrix" values="0 0 0 0 0 0 0 0 0 0 0 0 0 0 0 0 0 0 127 0" result="hardAlpha"/>
<feOffset dx="8" dy="8"/>
<feGaussianBlur stdDeviation="8"/>
<feColorMatrix type="matrix" values="0 0 0 0 0 0 0 0 0 0.470588 0 0 0 0 0.403922 0 0 0 0.16 0"/>
<feBlend mode="normal" in2="BackgroundImageFix" result="effect1_dropShadow_0_18963"/>
<feBlend mode="normal" in="SourceGraphic" in2="effect1_dropShadow_0_18963" result="shape"/>
<feColorMatrix in="SourceAlpha" type="matrix" values="0 0 0 0 0 0 0 0 0 0 0 0 0 0 0 0 0 0 127 0" result="hardAlpha"/>
<feOffset dx="-2" dy="-2"/>
<feGaussianBlur stdDeviation="2"/>
<feComposite in2="hardAlpha" operator="arithmetic" k2="-1" k3="1"/>
<feColorMatrix type="matrix" values="0 0 0 0 0 0 0 0 0 0.470588 0 0 0 0 0.403922 0 0 0 0.48 0"/>
<feBlend mode="normal" in2="shape" result="effect2_innerShadow_0_18963"/>
</filter>
<filter id="filter1_di_0_18963" x="85.7598" y="31.6401" width="42.4004" height="42.3999" filterUnits="userSpaceOnUse" color-interpolation-filters="sRGB">
<feFlood flood-opacity="0" result="BackgroundImageFix"/>
<feColorMatrix in="SourceAlpha" type="matrix" values="0 0 0 0 0 0 0 0 0 0 0 0 0 0 0 0 0 0 127 0" result="hardAlpha"/>
<feOffset dx="4" dy="4"/>
<feGaussianBlur stdDeviation="4"/>
<feColorMatrix type="matrix" values="0 0 0 0 0.568627 0 0 0 0 0.619608 0 0 0 0 0.670588 0 0 0 0.16 0"/>
<feBlend mode="normal" in2="BackgroundImageFix" result="effect1_dropShadow_0_18963"/>
<feBlend mode="normal" in="SourceGraphic" in2="effect1_dropShadow_0_18963" result="shape"/>
<feColorMatrix in="SourceAlpha" type="matrix" values="0 0 0 0 0 0 0 0 0 0 0 0 0 0 0 0 0 0 127 0" result="hardAlpha"/>
<feOffset dx="-1" dy="-1"/>
<feGaussianBlur stdDeviation="1"/>
<feComposite in2="hardAlpha" operator="arithmetic" k2="-1" k3="1"/>
<feColorMatrix type="matrix" values="0 0 0 0 0.568627 0 0 0 0 0.619608 0 0 0 0 0.670588 0 0 0 0.48 0"/>
<feBlend mode="normal" in2="shape" result="effect2_innerShadow_0_18963"/>
</filter>
<filter id="filter2_di_0_18963" x="91.04" y="38.8999" width="31.8398" height="27.8271" filterUnits="userSpaceOnUse" color-interpolation-filters="sRGB">
<feFlood flood-opacity="0" result="BackgroundImageFix"/>
<feColorMatrix in="SourceAlpha" type="matrix" values="0 0 0 0 0 0 0 0 0 0 0 0 0 0 0 0 0 0 127 0" result="hardAlpha"/>
<feOffset dx="4" dy="4"/>
<feGaussianBlur stdDeviation="4"/>
<feColorMatrix type="matrix" values="0 0 0 0 0 0 0 0 0 0.470588 0 0 0 0 0.403922 0 0 0 0.16 0"/>
<feBlend mode="normal" in2="BackgroundImageFix" result="effect1_dropShadow_0_18963"/>
<feBlend mode="normal" in="SourceGraphic" in2="effect1_dropShadow_0_18963" result="shape"/>
<feColorMatrix in="SourceAlpha" type="matrix" values="0 0 0 0 0 0 0 0 0 0 0 0 0 0 0 0 0 0 127 0" result="hardAlpha"/>
<feOffset dx="-1" dy="-1"/>
<feGaussianBlur stdDeviation="1"/>
<feComposite in2="hardAlpha" operator="arithmetic" k2="-1" k3="1"/>
<feColorMatrix type="matrix" values="0 0 0 0 0 0 0 0 0 0.470588 0 0 0 0 0.403922 0 0 0 0.48 0"/>
<feBlend mode="normal" in2="shape" result="effect2_innerShadow_0_18963"/>
</filter>
<filter id="filter3_di_0_18963" x="7.83984" y="61.96" width="98" height="58.3999" filterUnits="userSpaceOnUse" color-interpolation-filters="sRGB">
<feFlood flood-opacity="0" result="BackgroundImageFix"/>
<feColorMatrix in="SourceAlpha" type="matrix" values="0 0 0 0 0 0 0 0 0 0 0 0 0 0 0 0 0 0 127 0" result="hardAlpha"/>
<feOffset dx="8" dy="8"/>
<feGaussianBlur stdDeviation="8"/>
<feColorMatrix type="matrix" values="0 0 0 0 0.717647 0 0 0 0 0.431373 0 0 0 0 0 0 0 0 0.16 0"/>
<feBlend mode="normal" in2="BackgroundImageFix" result="effect1_dropShadow_0_18963"/>
<feBlend mode="normal" in="SourceGraphic" in2="effect1_dropShadow_0_18963" result="shape"/>
<feColorMatrix in="SourceAlpha" type="matrix" values="0 0 0 0 0 0 0 0 0 0 0 0 0 0 0 0 0 0 127 0" result="hardAlpha"/>
<feOffset dx="-2" dy="-2"/>
<feGaussianBlur stdDeviation="2"/>
<feComposite in2="hardAlpha" operator="arithmetic" k2="-1" k3="1"/>
<feColorMatrix type="matrix" values="0 0 0 0 0.717647 0 0 0 0 0.431373 0 0 0 0 0 0 0 0 0.48 0"/>
<feBlend mode="normal" in2="shape" result="effect2_innerShadow_0_18963"/>
</filter>
<filter id="filter4_di_0_18963" x="85.7598" y="65.96" width="42.4004" height="42.3999" filterUnits="userSpaceOnUse" color-interpolation-filters="sRGB">
<feFlood flood-opacity="0" result="BackgroundImageFix"/>
<feColorMatrix in="SourceAlpha" type="matrix" values="0 0 0 0 0 0 0 0 0 0 0 0 0 0 0 0 0 0 127 0" result="hardAlpha"/>
<feOffset dx="4" dy="4"/>
<feGaussianBlur stdDeviation="4"/>
<feColorMatrix type="matrix" values="0 0 0 0 0.568627 0 0 0 0 0.619608 0 0 0 0 0.670588 0 0 0 0.16 0"/>
<feBlend mode="normal" in2="BackgroundImageFix" result="effect1_dropShadow_0_18963"/>
<feBlend mode="normal" in="SourceGraphic" in2="effect1_dropShadow_0_18963" result="shape"/>
<feColorMatrix in="SourceAlpha" type="matrix" values="0 0 0 0 0 0 0 0 0 0 0 0 0 0 0 0 0 0 127 0" result="hardAlpha"/>
<feOffset dx="-1" dy="-1"/>
<feGaussianBlur stdDeviation="1"/>
<feComposite in2="hardAlpha" operator="arithmetic" k2="-1" k3="1"/>
<feColorMatrix type="matrix" values="0 0 0 0 0.568627 0 0 0 0 0.619608 0 0 0 0 0.670588 0 0 0 0.48 0"/>
<feBlend mode="normal" in2="shape" result="effect2_innerShadow_0_18963"/>
</filter>
<filter id="filter5_di_0_18963" x="93.0195" y="73.2202" width="27.8799" height="27.8799" filterUnits="userSpaceOnUse" color-interpolation-filters="sRGB">
<feFlood flood-opacity="0" result="BackgroundImageFix"/>
<feColorMatrix in="SourceAlpha" type="matrix" values="0 0 0 0 0 0 0 0 0 0 0 0 0 0 0 0 0 0 127 0" result="hardAlpha"/>
<feOffset dx="4" dy="4"/>
<feGaussianBlur stdDeviation="4"/>
<feColorMatrix type="matrix" values="0 0 0 0 0.717647 0 0 0 0 0.431373 0 0 0 0 0 0 0 0 0.16 0"/>
<feBlend mode="normal" in2="BackgroundImageFix" result="effect1_dropShadow_0_18963"/>
<feBlend mode="normal" in="SourceGraphic" in2="effect1_dropShadow_0_18963" result="shape"/>
<feColorMatrix in="SourceAlpha" type="matrix" values="0 0 0 0 0 0 0 0 0 0 0 0 0 0 0 0 0 0 127 0" result="hardAlpha"/>
<feOffset dx="-1" dy="-1"/>
<feGaussianBlur stdDeviation="1"/>
<feComposite in2="hardAlpha" operator="arithmetic" k2="-1" k3="1"/>
<feColorMatrix type="matrix" values="0 0 0 0 0.717647 0 0 0 0 0.431373 0 0 0 0 0 0 0 0 0.48 0"/>
<feBlend mode="normal" in2="shape" result="effect2_innerShadow_0_18963"/>
</filter>
</defs>
</svg>
