<svg width="132" height="132" viewBox="0 0 132 132" fill="none" xmlns="http://www.w3.org/2000/svg">
<path opacity="0.24" d="M65.9998 108.24C89.3283 108.24 108.24 89.3285 108.24 66C108.24 42.6715 89.3283 23.76 65.9998 23.76C42.6713 23.76 23.7598 42.6715 23.7598 66C23.7598 89.3285 42.6713 108.24 65.9998 108.24Z" fill="#919EAB"/>
<path d="M64.5156 78.926L58.3007 82.1934C56.9982 82.8782 55.3871 82.3774 54.7023 81.0749C54.4296 80.5562 54.3356 79.9621 54.4346 79.3845L55.6216 72.4641C55.8052 71.3936 55.4503 70.3013 54.6725 69.5431L49.6445 64.6421C48.5907 63.6149 48.5692 61.928 49.5963 60.8742C50.0054 60.4546 50.5413 60.1815 51.1212 60.0972L58.0697 59.0875C59.1446 58.9314 60.0737 58.2563 60.5544 57.2823L63.6619 50.9859C64.3132 49.6663 65.9109 49.1245 67.2305 49.7757C67.756 50.0351 68.1813 50.4604 68.4406 50.9859L71.5481 57.2823C72.0288 58.2563 72.9579 58.9314 74.0328 59.0875L80.9813 60.0972C82.4376 60.3088 83.4466 61.6609 83.235 63.1172C83.1507 63.6971 82.8776 64.233 82.458 64.6421L77.43 69.5431C76.6523 70.3013 76.2973 71.3936 76.4809 72.4641L77.6679 79.3845C77.9167 80.8349 76.9425 82.2124 75.4922 82.4611C74.9146 82.5602 74.3205 82.4661 73.8018 82.1934L67.5869 78.926C66.6255 78.4206 65.477 78.4206 64.5156 78.926Z" fill="#919EAB"/>
</svg>
