<svg width="40" height="40" viewBox="0 0 40 40" fill="none" xmlns="http://www.w3.org/2000/svg">
<path d="M40 11.7038V28.294C40 29.3444 39.4166 30.2871 38.4779 30.7564L20.8076 39.7103C20.4226 39.9017 20.0016 39.9977 19.5815 39.9977H19.5643C19.1316 39.9946 18.6998 39.8916 18.3077 39.6869L18.3007 39.683L1.4768 30.7541C0.566172 30.2769 0 29.3428 0 28.3143V11.6835C0 11.2141 0.117109 10.7658 0.331172 10.3707C0.587343 9.89893 0.980937 9.50378 1.47687 9.24448L18.3076 0.311673C19.087 -0.0952018 20.0211 -0.103796 20.8076 0.288236L20.8154 0.29136L38.4779 9.24136C38.9965 9.50065 39.4065 9.9044 39.669 10.391C39.8829 10.7853 40 11.2336 40 11.7038Z" fill="#FFD666"/>
<path d="M40.0001 11.7037V28.2939C40.0001 29.3443 39.4168 30.2869 38.478 30.7563L20.8077 39.7102C20.4227 39.9016 20.0018 39.9976 19.5816 39.9976H19.5645V20.3256L39.6691 10.3909C39.883 10.7852 40.0001 11.2335 40.0001 11.7037Z" fill="#FFAB00"/>
<path d="M39.6697 10.391L30.7166 14.8152L28.5143 15.9039L19.5651 20.3257L0.332031 10.3707C0.588203 9.89894 0.981797 9.50379 1.47773 9.24449L8.6932 5.41457L11.1947 4.08691L18.3086 0.311682C18.7014 0.106292 19.1333 0.0023856 19.5651 4.18528e-05C19.9916 -0.0023019 20.418 0.0937918 20.8084 0.288245L20.8162 0.29137L38.4788 9.24136C38.9973 9.50066 39.4073 9.90441 39.6697 10.391Z" fill="#FFF5CC"/>
<path d="M30.7641 15.1486C30.7641 15.1486 30.7641 15.1486 30.7641 15.1494V21.3105C30.7641 21.9571 30.2393 22.482 29.5926 22.482C28.946 22.482 28.4212 21.9571 28.4212 21.3105V15.8554L19.5634 11.168L8.69141 5.41457L11.1929 4.08691L19.5634 8.5166L30.1408 14.1139C30.1424 14.1146 30.144 14.1154 30.1455 14.1162C30.1682 14.1287 30.1901 14.1428 30.2119 14.1561C30.2237 14.1631 30.2362 14.1701 30.2479 14.1779L30.2487 14.1787C30.3401 14.2404 30.4205 14.3138 30.4884 14.395C30.4916 14.3989 30.4947 14.4021 30.497 14.4052C30.5142 14.4255 30.5291 14.4474 30.5447 14.4685C30.5517 14.4786 30.5595 14.488 30.5666 14.4989C30.5775 14.5146 30.5861 14.531 30.5962 14.5474C30.6064 14.5646 30.6173 14.5818 30.6267 14.5997C30.6322 14.6099 30.6369 14.62 30.6416 14.6302C30.6541 14.6552 30.6658 14.6802 30.6767 14.706C30.6783 14.7099 30.6791 14.713 30.6806 14.7161C30.6939 14.7489 30.7048 14.7818 30.7142 14.8153C30.7361 14.8849 30.7509 14.9575 30.758 15.0325C30.7618 15.0713 30.7641 15.1096 30.7641 15.1486Z" fill="#FFD666"/>
<path d="M30.7629 15.1487C30.7629 15.1487 30.7629 15.1487 30.7629 15.1495V21.3106C30.7629 21.9572 30.238 22.4821 29.5914 22.4821C28.9448 22.4821 28.4199 21.9572 28.4199 21.3106V15.9484L30.7129 14.8152C30.7348 14.8847 30.7496 14.9573 30.7566 15.0323C30.7605 15.0714 30.7629 15.1096 30.7629 15.1487Z" fill="#B76E00"/>
</svg>
