<svg width="20" height="20" viewBox="0 0 20 20" fill="none" xmlns="http://www.w3.org/2000/svg">
<path fill-rule="evenodd" clip-rule="evenodd" d="M13.3327 5.00008H6.66602C4.30935 5.00008 3.13018 5.00008 2.39852 5.73258C1.66602 6.46425 1.66602 7.64341 1.66602 10.0001C1.66602 12.3567 1.66602 13.5359 2.39852 14.2676C2.81018 14.6801 3.36352 14.8601 4.18935 14.9392C4.16602 14.3367 4.16602 12.7934 4.16602 12.0834C4.05551 12.0834 3.94953 12.0395 3.87139 11.9614C3.79325 11.8832 3.74935 11.7773 3.74935 11.6667C3.74935 11.5562 3.79325 11.4503 3.87139 11.3721C3.94953 11.294 4.05551 11.2501 4.16602 11.2501H15.8327C15.9432 11.2501 16.0492 11.294 16.1273 11.3721C16.2055 11.4503 16.2493 11.5562 16.2493 11.6667C16.2493 11.7773 16.2055 11.8832 16.1273 11.9614C16.0492 12.0395 15.9432 12.0834 15.8327 12.0834C15.8327 12.7934 15.8327 14.3367 15.8094 14.9392C16.6343 14.8601 17.1885 14.6801 17.601 14.2676C18.3327 13.5359 18.3327 12.3567 18.3327 10.0001C18.3327 7.64341 18.3327 6.46425 17.6002 5.73258C16.8685 5.00008 15.6894 5.00008 13.3327 5.00008ZM7.49935 8.95841C7.66511 8.95841 7.82408 8.89257 7.94129 8.77536C8.0585 8.65815 8.12435 8.49918 8.12435 8.33341C8.12435 8.16765 8.0585 8.00868 7.94129 7.89147C7.82408 7.77426 7.66511 7.70841 7.49935 7.70841H4.99935C4.83359 7.70841 4.67462 7.77426 4.55741 7.89147C4.4402 8.00868 4.37435 8.16765 4.37435 8.33341C4.37435 8.49918 4.4402 8.65815 4.55741 8.77536C4.67462 8.89257 4.83359 8.95841 4.99935 8.95841H7.49935ZM14.166 9.16675C14.387 9.16675 14.599 9.07895 14.7553 8.92267C14.9116 8.76639 14.9993 8.55443 14.9993 8.33341C14.9993 8.1124 14.9116 7.90044 14.7553 7.74416C14.599 7.58788 14.387 7.50008 14.166 7.50008C13.945 7.50008 13.733 7.58788 13.5768 7.74416C13.4205 7.90044 13.3327 8.1124 13.3327 8.33341C13.3327 8.55443 13.4205 8.76639 13.5768 8.92267C13.733 9.07895 13.945 9.16675 14.166 9.16675Z" fill="#212B36"/>
<path d="M14.2668 2.39925C13.5343 1.66675 12.356 1.66675 9.99935 1.66675C7.64185 1.66675 6.46352 1.66675 5.73102 2.39925C5.32102 2.80925 5.14102 3.36008 5.06102 4.17925C5.52768 4.16675 6.04268 4.16675 6.60768 4.16675H13.3927C13.9569 4.16675 14.4719 4.16675 14.9377 4.17925C14.8585 3.36008 14.6768 2.80925 14.2668 2.39925Z" fill="#212B36"/>
<path fill-rule="evenodd" clip-rule="evenodd" d="M14.9993 12.0834C14.9993 14.4401 14.9993 16.8692 14.2668 17.6009C13.5352 18.3334 12.356 18.3334 9.99935 18.3334C7.64268 18.3334 6.46352 18.3334 5.73185 17.6009C4.99935 16.8692 4.99935 14.4401 4.99935 12.0834H14.9993ZM13.1243 13.9584C13.1243 14.1242 13.0585 14.2831 12.9413 14.4004C12.8241 14.5176 12.6651 14.5834 12.4993 14.5834H7.49935C7.33359 14.5834 7.17462 14.5176 7.05741 14.4004C6.9402 14.2831 6.87435 14.1242 6.87435 13.9584C6.87435 13.7927 6.9402 13.6337 7.05741 13.5165C7.17462 13.3993 7.33359 13.3334 7.49935 13.3334H12.4993C12.6651 13.3334 12.8241 13.3993 12.9413 13.5165C13.0585 13.6337 13.1243 13.7927 13.1243 13.9584ZM11.4577 16.4584C11.4577 16.6242 11.3918 16.7831 11.2746 16.9004C11.1574 17.0176 10.9984 17.0834 10.8327 17.0834H7.49935C7.33359 17.0834 7.17462 17.0176 7.05741 16.9004C6.9402 16.7831 6.87435 16.6242 6.87435 16.4584C6.87435 16.2927 6.9402 16.1337 7.05741 16.0165C7.17462 15.8993 7.33359 15.8334 7.49935 15.8334H10.8327C10.9984 15.8334 11.1574 15.8993 11.2746 16.0165C11.3918 16.1337 11.4577 16.2927 11.4577 16.4584Z" fill="#212B36"/>
</svg>
