<svg width="175" height="202" viewBox="0 0 175 202" fill="none" xmlns="http://www.w3.org/2000/svg">
<path d="M87.5 100.577V0.57666M87.5 100.577L174.5 50.5767M87.5 100.577L174.5 150.577M87.5 100.577V200.577M87.5 100.577L0.5 150.577M87.5 100.577L0.5 50.5767M87.5 0.57666L174.5 50.5767M87.5 0.57666L0.5 50.5767M174.5 50.5767V150.577M174.5 150.577L87.5 200.577M87.5 200.577L0.5 150.577M0.5 150.577V50.5767M87.5 73.91L110.7 87.2433V113.91L87.5 127.243L64.3 113.91V87.2433L87.5 73.91ZM87.5 47.2433L133.9 73.91V127.243L87.5 153.91L41.1 127.243V73.91L87.5 47.2433Z" stroke="#919EAB" stroke-opacity="0.2"/>
</svg>
