<svg width="160" height="160" viewBox="0 0 160 160" fill="none" xmlns="http://www.w3.org/2000/svg">
<g opacity="0.48">
<path opacity="0.48" fill-rule="evenodd" clip-rule="evenodd" d="M28.2536 114.755L30.1945 116.696L32.1417 114.749L32.9737 115.581L31.0262 117.527L32.9683 119.468L32.134 120.302L30.1917 118.361L28.246 120.308L27.414 119.476L29.3601 117.53L27.4193 115.589L28.2536 114.755Z" fill="#919EAB"/>
<path opacity="0.48" fill-rule="evenodd" clip-rule="evenodd" d="M116.318 17.0235L118.259 18.9645L120.206 17.0181L121.038 17.8499L119.091 19.796L121.033 21.7369L120.198 22.571L118.256 20.6302L116.31 22.5763L115.478 21.7445L117.425 19.7988L115.484 17.8575L116.318 17.0235Z" fill="#919EAB"/>
<path opacity="0.72" d="M81.9711 139.78C82.3363 139.416 82.831 139.212 83.3468 139.212C83.8626 139.212 84.3574 139.416 84.7226 139.78L86.1079 141.165C86.2894 141.346 86.4344 141.562 86.5327 141.798C86.6312 142.034 86.682 142.288 86.682 142.545C86.682 142.801 86.6312 143.055 86.5327 143.292C86.4344 143.528 86.2904 143.743 86.1089 143.923L84.7226 145.309C84.3574 145.674 83.8626 145.878 83.3468 145.878C82.831 145.878 82.3363 145.674 81.9711 145.309L80.5857 143.924C80.4043 143.744 80.2593 143.528 80.161 143.292C80.0624 143.055 80.0117 142.801 80.0117 142.545C80.0117 142.288 80.0624 142.035 80.161 141.798C80.2593 141.562 80.4032 141.347 80.5847 141.166L81.9711 139.78Z" fill="#919EAB"/>
<path fill-rule="evenodd" clip-rule="evenodd" d="M128.931 52.0543C128.931 52.0543 128.931 52.0542 128.931 52.0543L127.545 53.4397L126.96 52.8544L127.543 53.4414C127.516 53.4683 127.495 53.5003 127.48 53.5356C127.466 53.5709 127.458 53.6086 127.458 53.6468C127.458 53.685 127.466 53.7228 127.48 53.758C127.495 53.7933 127.516 53.8253 127.543 53.8522L127.545 53.854L128.931 55.2394C128.931 55.2393 128.931 55.2394 128.931 55.2394C128.986 55.294 129.06 55.3249 129.138 55.3249C129.215 55.3249 129.29 55.2942 129.344 55.2397C129.344 55.2398 129.344 55.2396 129.344 55.2397L130.732 53.8522C130.759 53.8253 130.781 53.7933 130.795 53.758C130.81 53.7227 130.818 53.6849 130.818 53.6468C130.818 53.6087 130.81 53.571 130.795 53.5356C130.781 53.5003 130.759 53.4683 130.732 53.4414L130.73 53.4396L129.345 52.0543C129.345 52.0542 129.345 52.0544 129.345 52.0543C129.29 51.9997 129.215 51.9688 129.138 51.9688C129.06 51.9688 128.986 51.9997 128.931 52.0543ZM126.376 52.2682L127.762 50.8822C128.127 50.518 128.622 50.3135 129.138 50.3135C129.654 50.3135 130.148 50.518 130.514 50.8822L130.514 50.8829L131.899 52.2672C131.899 52.2676 131.9 52.2679 131.9 52.2682C132.081 52.4488 132.225 52.6634 132.324 52.8997C132.422 53.1364 132.473 53.3902 132.473 53.6468C132.473 53.9033 132.422 54.1572 132.324 54.3939C132.225 54.6302 132.081 54.8448 131.9 55.0254C131.9 55.0257 131.899 55.026 131.899 55.0264L130.514 56.4114C130.148 56.7756 129.654 56.9801 129.138 56.9801C128.622 56.9801 128.127 56.7756 127.762 56.4114L126.377 55.0264C126.376 55.026 126.376 55.0257 126.376 55.0253C126.194 54.8448 126.05 54.6302 125.952 54.3939C125.853 54.1571 125.803 53.9032 125.803 53.6468C125.803 53.3904 125.853 53.1365 125.952 52.8997C126.05 52.6634 126.194 52.4488 126.376 52.2682Z" fill="#919EAB"/>
<path opacity="0.48" fill-rule="evenodd" clip-rule="evenodd" d="M139.404 88.4232C139.603 88.3719 139.812 88.3707 140.012 88.4204C140.231 88.4748 140.431 88.5879 140.59 88.7469C140.749 88.9063 140.862 89.106 140.916 89.3247C140.966 89.5249 140.965 89.734 140.913 89.933L140.146 94.0548C140.083 94.3786 139.88 94.8445 139.363 95.0032C138.847 95.1618 138.417 94.8904 138.184 94.6577L134.679 91.1538C134.442 90.9184 134.171 90.4868 134.331 89.9698C134.492 89.4532 134.959 89.25 135.286 89.1896C135.287 89.1896 135.287 89.1895 135.288 89.1894L139.404 88.4232ZM139.265 90.0719L136.389 90.6072L138.729 92.9466L139.265 90.0719Z" fill="#919EAB"/>
<path opacity="0.8" fill-rule="evenodd" clip-rule="evenodd" d="M136.615 125.688C136.813 125.637 137.023 125.636 137.223 125.685C137.442 125.74 137.642 125.853 137.801 126.012C137.96 126.171 138.073 126.371 138.127 126.59C138.177 126.79 138.176 126.999 138.124 127.198L137.357 131.32C137.294 131.643 137.091 132.109 136.574 132.268C136.058 132.427 135.628 132.155 135.395 131.923L131.89 128.419C131.653 128.183 131.382 127.752 131.542 127.235C131.703 126.718 132.17 126.515 132.497 126.455C132.498 126.454 132.498 126.454 132.499 126.454L136.615 125.688ZM136.476 127.337L133.6 127.872L135.94 130.212L136.476 127.337Z" fill="#637381"/>
<path opacity="0.8" fill-rule="evenodd" clip-rule="evenodd" d="M16.6679 96.6306C16.4255 96.6306 16.1884 96.7025 15.9867 96.8372C15.785 96.972 15.628 97.1633 15.5353 97.387C15.4426 97.6109 15.4183 97.8573 15.4656 98.095C15.5128 98.3326 15.6295 98.5509 15.801 98.7223C15.9723 98.8936 16.1907 99.0103 16.4287 99.0576C16.6668 99.105 16.9133 99.0807 17.1371 98.988C17.361 98.8953 17.5525 98.7382 17.6873 98.5366C17.8219 98.3351 17.8938 98.0982 17.8938 97.8559C17.8938 97.531 17.7647 97.2193 17.5348 96.9895C17.305 96.7598 16.9932 96.6306 16.6679 96.6306ZM14.8158 95.0843C15.364 94.7181 16.0085 94.5226 16.6679 94.5226C17.552 94.5226 18.4 94.8736 19.0252 95.4988C19.6505 96.1239 20.0018 96.9718 20.0018 97.8559C20.0018 98.5153 19.8063 99.1598 19.4399 99.7079C19.0736 100.256 18.5529 100.683 17.9436 100.936C17.3342 101.188 16.6639 101.254 16.0175 101.125C15.371 100.997 14.7769 100.679 14.3106 100.213C13.8443 99.7469 13.5267 99.153 13.3981 98.5063C13.2694 97.8597 13.3354 97.1893 13.5878 96.5802C13.8402 95.9709 14.2676 95.4505 14.8158 95.0843Z" fill="#637381"/>
<path opacity="0.8" fill-rule="evenodd" clip-rule="evenodd" d="M72.7246 24.5358C72.4821 24.5358 72.2451 24.6077 72.0434 24.7424C71.8417 24.8771 71.6846 25.0684 71.5919 25.2922C71.4992 25.516 71.4749 25.7625 71.5222 26.0001C71.5695 26.2378 71.6862 26.4561 71.8576 26.6274C72.0289 26.7987 72.2473 26.9154 72.4853 26.9628C72.7235 27.0101 72.97 26.9858 73.1938 26.8932C73.4177 26.8005 73.6092 26.6433 73.7439 26.4417C73.8786 26.2402 73.9504 26.0034 73.9504 25.7611C73.9504 25.4362 73.8213 25.1245 73.5915 24.8947C73.3616 24.6649 73.0498 24.5358 72.7246 24.5358ZM70.8724 22.9895C71.4206 22.6233 72.0651 22.4277 72.7246 22.4277C73.6086 22.4277 74.4566 22.7788 75.0819 23.4039C75.7072 24.029 76.0585 24.877 76.0585 25.7611C76.0585 26.4204 75.8629 27.0649 75.4965 27.6131C75.1303 28.1611 74.6096 28.5885 74.0003 28.8408C73.3909 29.0932 72.7206 29.1589 72.0742 29.0303C71.4277 28.9018 70.8336 28.5845 70.3672 28.1182C69.9009 27.6521 69.5834 27.0581 69.4547 26.4115C69.326 25.7649 69.3921 25.0944 69.6444 24.4853C69.8969 23.8761 70.3243 23.3557 70.8724 22.9895Z" fill="#637381"/>
</g>
</svg>
