<svg width="16" height="16" viewBox="0 0 16 16" fill="none" xmlns="http://www.w3.org/2000/svg">
<path d="M5.4987 3.33337C3.95403 3.33737 3.12736 3.37537 2.51736 3.78271C2.22607 3.97731 1.97597 4.22741 1.78136 4.51871C1.33203 5.19137 1.33203 6.12671 1.33203 8.00004C1.33203 9.87271 1.33203 10.8087 1.78136 11.4814C1.97597 11.7727 2.22607 12.0228 2.51736 12.2174C3.12736 12.6247 3.95403 12.6627 5.4987 12.6667V9.93671C5.06966 9.8255 4.68969 9.57497 4.41844 9.22445C4.14719 8.87393 4.00002 8.44326 4.00002 8.00004C4.00002 7.55682 4.14719 7.12615 4.41844 6.77563C4.68969 6.42511 5.06966 6.17458 5.4987 6.06337V3.33337ZM6.4987 12.6667H9.4987V3.33337H6.4987V12.6667ZM10.4987 3.33337V6.06337C10.9277 6.17458 11.3077 6.42511 11.579 6.77563C11.8502 7.12615 11.9974 7.55682 11.9974 8.00004C11.9974 8.44326 11.8502 8.87393 11.579 9.22445C11.3077 9.57497 10.9277 9.8255 10.4987 9.93671V12.6667C12.0434 12.6627 12.8707 12.6247 13.48 12.2174C13.7713 12.0227 14.0214 11.7726 14.216 11.4814C14.6654 10.8087 14.6654 9.87337 14.6654 8.00004C14.6654 6.12737 14.6654 5.19137 14.216 4.51871C14.0214 4.22743 13.7713 3.97734 13.48 3.78271C12.87 3.37537 12.0434 3.33671 10.4987 3.33337Z" fill="#919EAB"/>
</svg>
