<svg width="120" height="120" viewBox="0 0 120 120" fill="none" xmlns="http://www.w3.org/2000/svg">
<g opacity="0.48">
<path opacity="0.48" fill-rule="evenodd" clip-rule="evenodd" d="M21.1912 86.0659L22.6469 87.5217L24.1072 86.0619L24.7312 86.6858L23.2706 88.1453L24.7272 89.601L24.1015 90.2266L22.6448 88.771L21.1855 90.2306L20.5615 89.6067L22.021 88.1474L20.5655 86.6915L21.1912 86.0659Z" fill="#919EAB"/>
<path opacity="0.48" fill-rule="evenodd" clip-rule="evenodd" d="M87.2381 12.7675L88.6937 14.2233L90.1541 12.7635L90.7781 13.3873L89.3175 14.8469L90.7741 16.3025L90.1483 16.9281L88.6916 15.4725L87.2323 16.9321L86.6083 16.3083L88.0679 14.849L86.6124 13.393L87.2381 12.7675Z" fill="#FF5630"/>
<path opacity="0.72" d="M61.4774 104.835C61.7513 104.562 62.1223 104.409 62.5091 104.409C62.896 104.409 63.2671 104.562 63.5409 104.835L64.58 105.874C64.7161 106.009 64.8248 106.171 64.8986 106.348C64.9724 106.526 65.0105 106.716 65.0105 106.909C65.0105 107.101 64.9724 107.291 64.8986 107.469C64.8248 107.646 64.7168 107.807 64.5807 107.942L63.5409 108.982C63.2671 109.255 62.896 109.409 62.5091 109.409C62.1223 109.409 61.7513 109.255 61.4774 108.982L60.4383 107.943C60.3022 107.808 60.1935 107.646 60.1197 107.469C60.0458 107.291 60.0078 107.101 60.0078 106.909C60.0078 106.716 60.0458 106.526 60.1197 106.348C60.1935 106.171 60.3015 106.01 60.4376 105.875L61.4774 104.835Z" fill="#FFAB00"/>
<path fill-rule="evenodd" clip-rule="evenodd" d="M96.6978 39.0406C96.6977 39.0406 96.6979 39.0405 96.6978 39.0406L95.6585 40.0796L95.2196 39.6406L95.6571 40.081C95.6368 40.1011 95.6207 40.1251 95.6097 40.1516C95.5987 40.178 95.593 40.2063 95.593 40.235C95.593 40.2636 95.5987 40.292 95.6097 40.3184C95.6207 40.3448 95.6368 40.3688 95.6571 40.389L95.6585 40.3904L96.6978 41.4294C96.6977 41.4293 96.6979 41.4295 96.6978 41.4294C96.739 41.4704 96.7948 41.4935 96.8529 41.4935C96.911 41.4935 96.9667 41.4705 97.0078 41.4296C97.0077 41.4297 97.0079 41.4296 97.0078 41.4296L98.0487 40.389C98.069 40.3688 98.0851 40.3448 98.0961 40.3184C98.1072 40.2919 98.1128 40.2635 98.1128 40.235C98.1128 40.2064 98.1072 40.1781 98.0961 40.1516C98.0851 40.1251 98.069 40.1011 98.0487 40.081L98.0473 40.0796L97.008 39.0406C97.008 39.0405 97.0081 39.0406 97.008 39.0406C96.9669 38.9997 96.911 38.9764 96.8529 38.9764C96.7948 38.9764 96.739 38.9996 96.6978 39.0406ZM94.7813 39.2011L95.8211 38.1616C96.095 37.8884 96.466 37.735 96.8529 37.735C97.2397 37.735 97.6108 37.8884 97.8847 38.1616L97.8852 38.1621L98.9237 39.2003C98.924 39.2005 98.9242 39.2008 98.9244 39.201C99.0606 39.3365 99.1686 39.4974 99.2423 39.6747C99.3162 39.8521 99.3543 40.0426 99.3543 40.235C99.3543 40.4274 99.3162 40.6178 99.2423 40.7953C99.1686 40.9725 99.0606 41.1335 98.9245 41.2689C98.9242 41.2692 98.924 41.2694 98.9237 41.2697L97.8847 42.3084C97.6108 42.5816 97.2397 42.735 96.8529 42.735C96.466 42.735 96.095 42.5816 95.8211 42.3084L94.7821 41.2697C94.7818 41.2694 94.7816 41.2691 94.7813 41.2689C94.6452 41.1334 94.5372 40.9725 94.4635 40.7953C94.3896 40.6177 94.3516 40.4273 94.3516 40.235C94.3516 40.0427 94.3896 39.8522 94.4635 39.6747C94.5372 39.4974 94.6452 39.3365 94.7813 39.2011Z" fill="#FF5630"/>
<path opacity="0.48" fill-rule="evenodd" clip-rule="evenodd" d="M104.551 66.3173C104.7 66.2788 104.857 66.2779 105.007 66.3152C105.172 66.356 105.321 66.4408 105.441 66.5601C105.56 66.6796 105.645 66.8294 105.686 66.9934C105.723 67.1436 105.722 67.3004 105.684 67.4496L105.108 70.541C105.061 70.7838 104.908 71.1333 104.521 71.2523C104.134 71.3713 103.811 71.1677 103.637 70.9932L101.008 68.3652C100.83 68.1887 100.627 67.865 100.747 67.4773C100.867 67.0898 101.218 66.9374 101.463 66.8921C101.464 66.8921 101.464 66.892 101.464 66.892L104.551 66.3173ZM104.447 67.5539L102.29 67.9553L104.045 69.7099L104.447 67.5539Z" fill="#22C55E"/>
<path opacity="0.8" fill-rule="evenodd" clip-rule="evenodd" d="M102.461 94.2659C102.611 94.2274 102.767 94.2265 102.918 94.2638C103.082 94.3046 103.232 94.3894 103.351 94.5087C103.47 94.6282 103.555 94.778 103.596 94.942C103.633 95.0922 103.632 95.249 103.594 95.3982L103.018 98.4896C102.971 98.7324 102.818 99.0819 102.431 99.2009C102.044 99.3199 101.721 99.1163 101.547 98.9418L98.9181 96.3138C98.7401 96.1373 98.5371 95.8136 98.6573 95.4259C98.7775 95.0384 99.1278 94.886 99.3735 94.8407C99.3738 94.8407 99.3741 94.8406 99.3745 94.8406L102.461 94.2659ZM102.357 95.5025L100.201 95.9039L101.956 97.6585L102.357 95.5025Z" fill="#00A76F"/>
<path opacity="0.8" fill-rule="evenodd" clip-rule="evenodd" d="M12.5004 72.4729C12.3186 72.4729 12.1408 72.5268 11.9896 72.6278C11.8383 72.7289 11.7205 72.8724 11.651 73.0402C11.5814 73.2081 11.5632 73.3929 11.5987 73.5711C11.6341 73.7494 11.7217 73.9131 11.8502 74.0416C11.9787 74.1701 12.1425 74.2576 12.321 74.2931C12.4996 74.3286 12.6845 74.3104 12.8523 74.2409C13.0203 74.1714 13.1639 74.0535 13.265 73.9023C13.366 73.7512 13.4199 73.5736 13.4199 73.3918C13.4199 73.1482 13.323 72.9144 13.1506 72.7421C12.9783 72.5697 12.7444 72.4729 12.5004 72.4729ZM11.1113 71.3132C11.5225 71.0385 12.0059 70.8918 12.5004 70.8918C13.1635 70.8918 13.7995 71.1551 14.2684 71.624C14.7374 72.0928 15.0009 72.7288 15.0009 73.3918C15.0009 73.8864 14.8542 74.3697 14.5794 74.7808C14.3047 75.1919 13.9142 75.5124 13.4572 75.7017C13.0002 75.8909 12.4975 75.9402 12.0127 75.8438C11.5278 75.7474 11.0822 75.5094 10.7324 75.1597C10.3827 74.8101 10.1446 74.3647 10.0481 73.8797C9.95156 73.3947 10.0011 72.8919 10.1904 72.435C10.3797 71.9781 10.7002 71.5878 11.1113 71.3132Z" fill="#8E33FF"/>
<path opacity="0.8" fill-rule="evenodd" clip-rule="evenodd" d="M54.5434 18.4017C54.3616 18.4017 54.1838 18.4556 54.0325 18.5567C53.8813 18.6577 53.7635 18.8012 53.694 18.969C53.6244 19.1369 53.6062 19.3217 53.6417 19.5C53.6771 19.6782 53.7646 19.8419 53.8932 19.9705C54.0217 20.0989 54.1855 20.1865 54.364 20.222C54.5426 20.2575 54.7275 20.2393 54.8953 20.1698C55.0632 20.1002 55.2069 19.9824 55.3079 19.8312C55.4089 19.68 55.4628 19.5024 55.4628 19.3207C55.4628 19.077 55.366 18.8432 55.1936 18.6709C55.0212 18.4986 54.7874 18.4017 54.5434 18.4017ZM53.1543 17.242C53.5655 16.9674 54.0489 16.8207 54.5434 16.8207C55.2065 16.8207 55.8425 17.084 56.3114 17.5528C56.7804 18.0216 57.0439 18.6576 57.0439 19.3207C57.0439 19.8152 56.8972 20.2986 56.6224 20.7097C56.3477 21.1207 55.9572 21.4413 55.5002 21.6305C55.0432 21.8198 54.5404 21.869 54.0556 21.7726C53.5708 21.6762 53.1252 21.4383 52.7754 21.0886C52.4257 20.7389 52.1875 20.2935 52.091 19.8085C51.9945 19.3235 52.044 18.8207 52.2333 18.3639C52.4226 17.9069 52.7432 17.5166 53.1543 17.242Z" fill="#8E33FF"/>
</g>
</svg>
