<svg width="16" height="16" viewBox="0 0 16 16" fill="none" xmlns="http://www.w3.org/2000/svg">
<path fill-rule="evenodd" clip-rule="evenodd" d="M7.9987 14.6601C11.6807 14.6601 14.6654 11.6754 14.6654 7.99345C14.6654 4.31145 11.6807 1.32678 7.9987 1.32678C4.3167 1.32678 1.33203 4.31145 1.33203 7.99345C1.33203 11.6754 4.3167 14.6601 7.9987 14.6601ZM8.4987 5.32678C8.4987 5.19417 8.44602 5.067 8.35225 4.97323C8.25848 4.87946 8.13131 4.82678 7.9987 4.82678C7.86609 4.82678 7.73891 4.87946 7.64514 4.97323C7.55138 5.067 7.4987 5.19417 7.4987 5.32678V7.99345C7.4987 8.12612 7.55136 8.25345 7.64536 8.34678L9.31203 10.0134C9.35781 10.0626 9.41301 10.102 9.47434 10.1293C9.53567 10.1566 9.60188 10.1713 9.66902 10.1725C9.73615 10.1737 9.80284 10.1613 9.8651 10.1362C9.92736 10.111 9.98391 10.0736 10.0314 10.0261C10.0789 9.97866 10.1163 9.92211 10.1414 9.85985C10.1666 9.79759 10.1789 9.7309 10.1778 9.66377C10.1766 9.59663 10.1619 9.53042 10.1346 9.46909C10.1072 9.40776 10.0678 9.35256 10.0187 9.30678L8.4987 7.78678V5.32678Z" fill="#919EAB"/>
</svg>
