<svg width="12" height="14" viewBox="0 0 12 14" fill="none" xmlns="http://www.w3.org/2000/svg">
<path fill-rule="evenodd" clip-rule="evenodd" d="M3.03965 8.70848V5.80566C2.1819 5.80591 1.364 5.4599 0.787874 4.85303C0.211751 4.24616 -0.0689038 3.435 0.0151983 2.6198C0.167181 1.11033 1.58062 0 3.16884 0H8.35905C8.777 0 9.11896 0.326568 9.11896 0.725707C9.11896 1.12485 8.777 1.45141 8.35905 1.45141H7.59913V8.70848C7.59913 9.10762 7.25717 9.43419 6.83922 9.43419C6.42127 9.43419 6.07931 9.10762 6.07931 8.70848V1.45141H4.55948V8.70848C4.55948 9.10762 4.21752 9.43419 3.79957 9.43419C3.38161 9.43419 3.03965 9.10762 3.03965 8.70848ZM9.77249 9.33259L11.8926 11.3573C12.037 11.4952 12.037 11.7274 11.885 11.8653L9.76489 13.89C9.52931 14.1223 9.11896 13.9626 9.11896 13.636V12.337H0.759913C0.341961 12.337 0 12.0104 0 11.6113C0 11.2122 0.341961 10.8856 0.759913 10.8856H9.11896V9.58659C9.11879 9.43857 9.2126 9.30523 9.35616 9.24944C9.49973 9.19364 9.66437 9.22653 9.77249 9.33259Z" fill="#212B36"/>
</svg>
