<svg width="20" height="20" viewBox="0 0 20 20" fill="none" xmlns="http://www.w3.org/2000/svg">
<path fill-rule="evenodd" clip-rule="evenodd" d="M10.0013 18.3252C14.6038 18.3252 18.3346 14.5944 18.3346 9.9919C18.3346 5.3894 14.6038 1.65857 10.0013 1.65857C5.3988 1.65857 1.66797 5.3894 1.66797 9.9919C1.66797 14.5944 5.3988 18.3252 10.0013 18.3252ZM10.6263 6.65857C10.6263 6.49281 10.5605 6.33384 10.4432 6.21663C10.326 6.09942 10.1671 6.03357 10.0013 6.03357C9.83554 6.03357 9.67657 6.09942 9.55936 6.21663C9.44215 6.33384 9.3763 6.49281 9.3763 6.65857V9.9919C9.3763 10.1577 9.44214 10.3169 9.55964 10.4336L11.643 12.5169C11.7002 12.5783 11.7692 12.6276 11.8459 12.6617C11.9225 12.6959 12.0053 12.7142 12.0892 12.7157C12.1731 12.7172 12.2565 12.7018 12.3343 12.6703C12.4121 12.6389 12.4828 12.5921 12.5422 12.5328C12.6015 12.4734 12.6483 12.4027 12.6797 12.3249C12.7112 12.2471 12.7266 12.1637 12.7251 12.0798C12.7236 11.9959 12.7053 11.9131 12.6711 11.8365C12.637 11.7598 12.5877 11.6908 12.5263 11.6336L10.6263 9.73357V6.65857Z" fill="#00B8D9"/>
</svg>
