<svg width="28" height="40" viewBox="0 0 28 40" fill="none" xmlns="http://www.w3.org/2000/svg">
<path d="M24.1509 5.28296H3.01887C1.35159 5.28296 0 6.63455 0 8.30183V36.9811C0 38.6483 1.35159 39.9999 3.01887 39.9999H24.1509C25.8182 39.9999 27.1698 38.6483 27.1698 36.9811V8.30183C27.1698 6.63455 25.8182 5.28296 24.1509 5.28296Z" fill="#FFAB00"/>
<path d="M2.5 8.75H25V37.5H2.5V8.75Z" fill="#FFD666"/>
<path d="M19.375 33.75H2.5V8.75H25V28.6029L19.375 33.75Z" fill="#FFF5CC"/>
<path d="M16.6031 4.5283V3.01887C16.6031 2.21821 16.2851 1.45035 15.7189 0.884206C15.1528 0.318058 14.3849 0 13.5843 0C12.7836 0 12.0158 0.318058 11.4496 0.884206C10.8835 1.45035 10.5654 2.21821 10.5654 3.01887V4.5283H7.54654L6.03711 6.79245V9.0566H21.1315V6.79245L19.622 4.5283H16.6031Z" fill="#FFD666"/>
<path d="M20 34.033V28.75H25.283L20 34.033Z" fill="#FFAB00"/>
<path d="M13.5854 27.9244C11.6075 27.2651 9.88715 26.0001 8.66807 24.3088C7.449 22.6174 6.79299 20.5853 6.79297 18.5004V15.0942C8.76837 15.0942 10.7066 14.5574 12.4005 13.541L13.5854 12.8301L14.7703 13.541C16.4642 14.5574 18.4025 15.0942 20.3779 15.0942V18.5004C20.3779 20.5853 19.7218 22.6174 18.5028 24.3088C17.2837 26.0001 15.5634 27.2651 13.5854 27.9244Z" fill="#5BE49B"/>
<path d="M13.5847 21.8867C13.4676 21.8867 13.352 21.8594 13.2472 21.807C13.1424 21.7546 13.0512 21.6786 12.9809 21.5848L10.7168 18.566L11.9243 17.6603L13.5847 19.8742L19.7734 11.6226L20.9809 12.5282L14.1885 21.5848C14.1182 21.6786 14.027 21.7546 13.9222 21.807C13.8174 21.8594 13.7019 21.8867 13.5847 21.8867Z" fill="#007867"/>
<path d="M5.2832 27.1699H9.05679V28.6794H5.2832V27.1699Z" fill="#FFAB00"/>
<path d="M5.2832 30.1887H10.5662V31.6982H5.2832V30.1887Z" fill="#FFAB00"/>
</svg>
