<svg width="132" height="132" viewBox="0 0 132 132" fill="none" xmlns="http://www.w3.org/2000/svg">
<path d="M44.2199 46.2C44.2199 43.2839 46.5839 40.92 49.4999 40.92H83.8199C86.736 40.92 89.0999 43.2839 89.0999 46.2C89.0999 49.1161 86.736 51.48 83.8199 51.48H49.4999C46.5839 51.48 44.2199 49.1161 44.2199 46.2Z" fill="#919EAB"/>
<path d="M30.3599 52.14C33.6405 52.14 36.2999 49.4806 36.2999 46.2C36.2999 42.9194 33.6405 40.26 30.3599 40.26C27.0794 40.26 24.4199 42.9194 24.4199 46.2C24.4199 49.4806 27.0794 52.14 30.3599 52.14Z" fill="#919EAB"/>
<g opacity="0.48">
<path d="M44.2199 66.0001C44.2199 63.084 46.5839 60.7201 49.4999 60.7201H102.3C105.216 60.7201 107.58 63.084 107.58 66.0001C107.58 68.9161 105.216 71.2801 102.3 71.2801H49.4999C46.5839 71.2801 44.2199 68.9161 44.2199 66.0001Z" fill="#919EAB"/>
<path d="M30.3599 71.9401C33.6405 71.9401 36.2999 69.2806 36.2999 66.0001C36.2999 62.7195 33.6405 60.0601 30.3599 60.0601C27.0794 60.0601 24.4199 62.7195 24.4199 66.0001C24.4199 69.2806 27.0794 71.9401 30.3599 71.9401Z" fill="#919EAB"/>
</g>
<g opacity="0.24">
<path d="M44.2199 85.8001C44.2199 82.884 46.5839 80.5201 49.4999 80.5201H70.6199C73.536 80.5201 75.8999 82.884 75.8999 85.8001C75.8999 88.7162 73.536 91.0801 70.6199 91.0801H49.4999C46.5839 91.0801 44.2199 88.7162 44.2199 85.8001Z" fill="#919EAB"/>
<path d="M30.3599 91.7401C33.6405 91.7401 36.2999 89.0807 36.2999 85.8001C36.2999 82.5195 33.6405 79.8601 30.3599 79.8601C27.0794 79.8601 24.4199 82.5195 24.4199 85.8001C24.4199 89.0807 27.0794 91.7401 30.3599 91.7401Z" fill="#919EAB"/>
</g>
</svg>
