<svg width="118" height="113" viewBox="0 0 118 113" fill="none" xmlns="http://www.w3.org/2000/svg">
<mask id="mask0_0_18193" style="mask-type:alpha" maskUnits="userSpaceOnUse" x="50" y="1" width="67" height="60">
<path d="M113.303 21.1454L70.3325 2.01385C67.8344 0.901632 64.9077 2.0251 63.7954 4.52319L50.7054 33.9239C49.5932 36.422 50.7166 39.3487 53.2147 40.4609L96.185 59.5925C98.6831 60.7048 101.61 59.5813 102.722 57.0832L115.812 27.6825C116.924 25.1844 115.801 22.2577 113.303 21.1454Z" fill="black"/>
</mask>
<g mask="url(#mask0_0_18193)">
<path d="M113.303 21.1454L70.3325 2.01385C67.8344 0.901632 64.9077 2.0251 63.7954 4.52319L50.7054 33.9239C49.5932 36.422 50.7166 39.3487 53.2147 40.4609L96.185 59.5925C98.6831 60.7048 101.61 59.5813 102.722 57.0832L115.812 27.6825C116.924 25.1844 115.801 22.2577 113.303 21.1454Z" fill="#F4F6F8"/>
<g opacity="0.24" filter="url(#filter0_f_0_18193)">
<path d="M113.304 21.1453L70.3333 2.01375C68.6416 1.26057 66.7668 1.5518 65.3794 2.58034L79.2066 31.9632C79.7087 33.039 80.5824 33.8973 81.667 34.3801C82.7515 34.863 83.9739 34.938 85.1094 34.5913L116.197 25.206C116.034 23.4856 114.994 21.898 113.304 21.1453Z" fill="#919EAB"/>
</g>
<path d="M113.304 21.1453L70.3333 2.01375C68.6416 1.26057 66.7668 1.5518 65.3794 2.58034L79.2066 31.9632C79.7087 33.039 80.5824 33.8973 81.667 34.3801C82.7515 34.863 83.9739 34.938 85.1094 34.5913L116.197 25.206C116.034 23.4856 114.994 21.898 113.304 21.1453Z" fill="#F4F6F8"/>
</g>
<mask id="mask1_0_18193" style="mask-type:alpha" maskUnits="userSpaceOnUse" x="1" y="43" width="85" height="69">
<path d="M68.1414 43.3542L6.48965 56.4587C2.90552 57.2205 0.617587 60.7436 1.37942 64.3277L10.3456 106.511C11.1075 110.095 14.6306 112.383 18.2147 111.621L79.8664 98.5163C83.4506 97.7544 85.7385 94.2313 84.9767 90.6472L76.0104 48.4644C75.2486 44.8803 71.7255 42.5924 68.1414 43.3542Z" fill="black"/>
</mask>
<g mask="url(#mask1_0_18193)">
<path d="M68.1414 43.3542L6.48965 56.4587C2.90552 57.2205 0.617587 60.7436 1.37942 64.3277L10.3456 106.511C11.1075 110.095 14.6306 112.383 18.2147 111.621L79.8664 98.5163C83.4506 97.7544 85.7385 94.2313 84.9767 90.6472L76.0104 48.4644C75.2486 44.8803 71.7255 42.5924 68.1414 43.3542Z" fill="#F4F6F8"/>
<g opacity="0.24" filter="url(#filter1_f_0_18193)">
<path d="M68.1405 43.3541L6.48882 56.4586C4.06169 56.9745 2.2586 58.7669 1.56462 60.9747L39.6972 81.9373C41.0889 82.708 42.712 82.9503 44.2681 82.6195C45.8241 82.2888 47.2084 81.4072 48.1662 80.1371L74.4759 45.4769C72.9436 43.7406 70.566 42.8385 68.1405 43.3541Z" fill="#919EAB"/>
</g>
<path d="M68.1405 43.3541L6.48882 56.4586C4.06169 56.9745 2.2586 58.7669 1.56462 60.9747L39.6972 81.9373C41.0889 82.708 42.712 82.9503 44.2681 82.6195C45.8241 82.2888 47.2084 81.4072 48.1662 80.1371L74.4759 45.4769C72.9436 43.7406 70.566 42.8385 68.1405 43.3541Z" fill="#F4F6F8"/>
</g>
<defs>
<filter id="filter0_f_0_18193" x="53.3276" y="-10.4596" width="74.9215" height="57.3159" filterUnits="userSpaceOnUse" color-interpolation-filters="sRGB">
<feFlood flood-opacity="0" result="BackgroundImageFix"/>
<feBlend mode="normal" in="SourceGraphic" in2="BackgroundImageFix" result="shape"/>
<feGaussianBlur stdDeviation="6" result="effect1_foregroundBlur_0_18193"/>
</filter>
<filter id="filter1_f_0_18193" x="-22.5353" y="19.1094" width="121.11" height="87.7547" filterUnits="userSpaceOnUse" color-interpolation-filters="sRGB">
<feFlood flood-opacity="0" result="BackgroundImageFix"/>
<feBlend mode="normal" in="SourceGraphic" in2="BackgroundImageFix" result="shape"/>
<feGaussianBlur stdDeviation="12" result="effect1_foregroundBlur_0_18193"/>
</filter>
</defs>
</svg>
