<svg width="20" height="20" viewBox="0 0 20 20" fill="none" xmlns="http://www.w3.org/2000/svg">
<path d="M9.49823 15.126L15.6616 8.96263C14.6246 8.52969 13.6829 7.89714 12.8899 7.10096C12.0933 6.3078 11.4605 5.36577 11.0274 4.32846L4.86406 10.4918C4.38323 10.9726 4.14239 11.2135 3.93573 11.4785C3.69165 11.7912 3.48236 12.1296 3.31156 12.4876C3.16739 12.791 3.05989 13.1143 2.84489 13.7593L1.70989 17.1618C1.65765 17.3176 1.6499 17.4849 1.68751 17.6448C1.72512 17.8048 1.8066 17.951 1.92278 18.0672C2.03897 18.1834 2.18526 18.2649 2.34521 18.3025C2.50517 18.3401 2.67244 18.3324 2.82823 18.2801L6.23073 17.1451C6.87656 16.9301 7.19906 16.8226 7.50239 16.6785C7.86073 16.5076 8.19906 16.2985 8.51156 16.0543C8.77656 15.8476 9.01739 15.6068 9.49823 15.126ZM17.3716 7.25263C17.9861 6.6381 18.3313 5.80462 18.3313 4.93554C18.3313 4.06647 17.9861 3.23299 17.3716 2.61846C16.757 2.00393 15.9236 1.65869 15.0545 1.65869C14.1854 1.65869 13.3519 2.00393 12.7374 2.61846L11.9982 3.35763L12.0299 3.45013C12.3942 4.49239 12.9902 5.43838 13.7732 6.21679C14.5749 7.02321 15.554 7.63105 16.6324 7.99179L17.3716 7.25263Z" fill="white"/>
</svg>
