<svg width="14" height="14" viewBox="0 0 14 14" fill="none" xmlns="http://www.w3.org/2000/svg">
<path fill-rule="evenodd" clip-rule="evenodd" d="M6.96288 0L7.03712 0C8.54065 0 9.71861 3.88123e-08 10.638 0.123721C11.5783 0.250047 12.3207 0.514419 12.9034 1.09656C13.4862 1.67935 13.75 2.42167 13.8763 3.3626C14 4.2814 14 5.45935 14 6.96288V7.02019C14 8.26326 14 9.28037 13.9323 10.1087C13.8646 10.9421 13.7259 11.6369 13.4146 12.2152C13.2779 12.4698 13.1086 12.6983 12.9034 12.9034C12.3207 13.4862 11.5783 13.75 10.6374 13.8763C9.71861 14 8.54065 14 7.03712 14H6.96288C5.45935 14 4.2814 14 3.36195 13.8763C2.42167 13.75 1.67935 13.4856 1.09656 12.9034C0.580186 12.3871 0.313209 11.7444 0.171907 10.946C0.031907 10.1627 0.00651161 9.18791 0.00130231 7.97805C-1.68288e-08 7.67005 0 7.34447 0 7.00065L0 6.96288C0 5.45935 3.88123e-08 4.2814 0.123721 3.36195C0.250047 2.42167 0.514419 1.67935 1.09656 1.09656C1.67935 0.513767 2.42167 0.250047 3.3626 0.123721C4.2814 3.88123e-08 5.45935 0 6.96288 0ZM3.49219 1.09135C2.66 1.20335 2.15795 1.41693 1.78744 1.78744C1.41628 2.1586 1.20335 2.66 1.09135 3.49284C0.978047 4.33935 0.976744 5.45153 0.976744 7C0.976744 7.34447 0.976744 7.66809 0.978047 7.97349C0.983256 9.19377 1.0106 10.0872 1.13302 10.7754C1.25284 11.4494 1.4573 11.8824 1.78744 12.2126C2.1586 12.5837 2.66 12.7967 3.49284 12.9087C4.33935 13.022 5.45153 13.0233 7 13.0233C8.54847 13.0233 9.66065 13.022 10.5072 12.9087C11.34 12.7967 11.842 12.5831 12.2132 12.2126C12.35 12.0758 12.4613 11.9247 12.5544 11.7522C12.7706 11.3511 12.895 10.8145 12.9588 10.0299C13.0226 9.24521 13.0233 8.26716 13.0233 7C13.0233 5.45153 13.022 4.33935 12.9087 3.49284C12.7967 2.66 12.5831 2.15795 12.2126 1.78679C11.8414 1.41628 11.34 1.20335 10.5072 1.09135C9.66065 0.978047 8.54847 0.976744 7 0.976744C5.45153 0.976744 4.3387 0.978047 3.49219 1.09135Z" fill="white"/>
<path d="M13.0226 7.83343L12.878 7.81389C11.0261 7.55734 9.33116 8.51975 8.46837 9.9712C7.35488 7.15492 4.41358 5.23399 1.12716 5.70608L0.98 5.72692C0.976744 6.11566 0.976744 6.53833 0.976744 7C0.976744 7.34447 0.976744 7.66809 0.978047 7.97349C0.983256 9.19377 1.0106 10.0872 1.13302 10.7754C1.25284 11.4494 1.4573 11.8824 1.78744 12.2126C2.1586 12.5837 2.66 12.7967 3.49284 12.9087C4.33935 13.022 5.45153 13.0233 7 13.0233C8.54847 13.0233 9.66065 13.022 10.5072 12.9087C11.34 12.7967 11.842 12.5831 12.2132 12.2126C12.35 12.0758 12.4613 11.9247 12.5544 11.7522C12.7706 11.3511 12.895 10.8145 12.9588 10.0299C13.0083 9.42688 13.0193 8.70924 13.0226 7.83343Z" fill="white"/>
<path d="M10.907 4.39535C10.907 4.74075 10.7698 5.072 10.5255 5.31623C10.2813 5.56047 9.95005 5.69767 9.60465 5.69767C9.25925 5.69767 8.928 5.56047 8.68377 5.31623C8.43954 5.072 8.30233 4.74075 8.30233 4.39535C8.30233 4.04995 8.43954 3.7187 8.68377 3.47447C8.928 3.23023 9.25925 3.09302 9.60465 3.09302C9.95005 3.09302 10.2813 3.23023 10.5255 3.47447C10.7698 3.7187 10.907 4.04995 10.907 4.39535Z" fill="white"/>
</svg>
