<svg width="22" height="22" viewBox="0 0 22 22" fill="none" xmlns="http://www.w3.org/2000/svg">
<path opacity="0.32" fill-rule="evenodd" clip-rule="evenodd" d="M1.94775 7.33337H20.0535C20.1185 8.43437 20.1673 9.92446 20.1673 11.9167C20.1673 15.1106 20.0419 17.0139 19.9255 18.0924C19.8393 18.8915 19.2981 19.5076 18.5085 19.6572C17.2793 19.8901 14.9815 20.1667 11.0007 20.1667C7.0198 20.1667 4.72199 19.8901 3.49285 19.6572C2.70323 19.5076 2.16201 18.8915 2.07579 18.0924C1.95941 17.0139 1.83398 15.1106 1.83398 11.9167C1.83398 9.92446 1.88278 8.43437 1.94775 7.33337ZM5.95898 11.6248C5.95898 11.0739 6.35604 10.6408 6.90654 10.6213C7.62145 10.5958 8.86198 10.5669 11.0007 10.548C13.2986 10.5277 14.5597 10.5597 15.2459 10.5966C15.7264 10.6225 16.0423 10.9951 16.0423 11.4763V11.8349C16.0423 12.3499 15.69 12.7502 15.1755 12.7728C14.4746 12.8035 13.2222 12.8334 11.0007 12.8334C8.77911 12.8334 7.52671 12.8035 6.82583 12.7728C6.31131 12.7502 5.95898 12.3499 5.95898 11.8349V11.6248ZM5.95898 15.665C5.95898 15.1503 6.31135 14.7394 6.82537 14.7128C7.309 14.6878 8.04853 14.6668 9.16732 14.6668C10.2861 14.6668 11.0256 14.6878 11.5093 14.7128C12.0233 14.7394 12.3757 15.1503 12.3757 15.665V15.9602C12.3757 16.4749 12.0233 16.8858 11.5093 16.9124C11.0256 16.9373 10.2861 16.9584 9.16732 16.9584C8.04853 16.9584 7.309 16.9373 6.82537 16.9124C6.31135 16.8858 5.95898 16.4749 5.95898 15.9602V15.665Z" fill="#637381"/>
<path d="M16.4224 1.86202C16.7089 1.88565 16.9058 2.09552 16.9252 2.38235C16.9431 2.64587 16.9586 3.05178 16.9586 3.66671C16.9586 3.76549 16.9582 3.85888 16.9574 3.94715C17.6002 4.02083 18.11 4.10081 18.508 4.1762C19.2976 4.3258 19.8388 4.94193 19.925 5.74099C19.9688 6.14675 20.0139 6.66929 20.0531 7.33337H1.94727C1.98645 6.66929 2.03152 6.14675 2.07531 5.74099C2.16152 4.94193 2.70274 4.32581 3.49236 4.1762C3.8903 4.1008 4.40025 4.02082 5.04306 3.94713C5.04232 3.85886 5.04191 3.76548 5.04191 3.66671C5.04191 3.05178 5.0574 2.64587 5.07528 2.38235C5.09471 2.09552 5.29161 1.88565 5.57811 1.86202C5.77309 1.84595 6.04456 1.83337 6.41691 1.83337C6.78926 1.83337 7.06073 1.84595 7.25571 1.86202C7.54221 1.88565 7.73911 2.09552 7.75854 2.38235C7.77642 2.64587 7.79191 3.05178 7.79191 3.66671C7.79191 3.68999 7.79191 3.71297 7.79186 3.73565C8.71449 3.69278 9.77801 3.66671 11.0002 3.66671C12.2224 3.66671 13.286 3.69278 14.2086 3.73566L14.2086 3.66671C14.2086 3.05178 14.2241 2.64587 14.2419 2.38235C14.2614 2.09552 14.4583 1.88565 14.7448 1.86202C14.9398 1.84595 15.2112 1.83337 15.5836 1.83337C15.9559 1.83337 16.2274 1.84595 16.4224 1.86202Z" fill="#637381"/>
<path fill-rule="evenodd" clip-rule="evenodd" d="M6.90613 10.6213C6.35563 10.6408 5.95858 11.0739 5.95858 11.6247V11.8348C5.95858 12.3499 6.3109 12.7502 6.82542 12.7728C7.52631 12.8035 8.7787 12.8334 11.0002 12.8334C13.2218 12.8334 14.4742 12.8035 15.1751 12.7728C15.6896 12.7502 16.0419 12.3499 16.0419 11.8348V11.4763C16.0419 10.9951 15.726 10.6225 15.2455 10.5966C14.5592 10.5597 13.2982 10.5277 11.0002 10.548C8.86157 10.5669 7.62104 10.5958 6.90613 10.6213ZM6.82496 14.7128C6.31094 14.7394 5.95858 15.1503 5.95858 15.665V15.9602C5.95858 16.4749 6.31094 16.8858 6.82496 16.9123C7.3086 16.9373 8.04812 16.9584 9.16691 16.9584C10.2857 16.9584 11.0252 16.9373 11.5089 16.9123C12.0229 16.8858 12.3752 16.4749 12.3752 15.9602V15.665C12.3752 15.1503 12.0229 14.7394 11.5089 14.7128C11.0252 14.6878 10.2857 14.6667 9.16691 14.6667C8.04812 14.6667 7.3086 14.6878 6.82496 14.7128Z" fill="#637381"/>
</svg>
