<svg width="132" height="132" viewBox="0 0 132 132" fill="none" xmlns="http://www.w3.org/2000/svg">
<path opacity="0.24" d="M30.3604 29.0401C30.3604 24.666 33.9063 21.1201 38.2804 21.1201H93.7203C98.0944 21.1201 101.64 24.666 101.64 29.0401V102.96C101.64 107.334 98.0944 110.88 93.7203 110.88H38.2804C33.9063 110.88 30.3604 107.334 30.3604 102.96V29.0401Z" fill="#919EAB"/>
<g opacity="0.24">
<path d="M40.9199 75.8999C40.9199 74.0773 42.3974 72.5999 44.2199 72.5999H87.7799C89.6025 72.5999 91.0799 74.0773 91.0799 75.8999C91.0799 77.7224 89.6025 79.1999 87.7799 79.1999H44.2199C42.3974 79.1999 40.9199 77.7224 40.9199 75.8999Z" fill="#919EAB"/>
<path d="M40.9199 87.7799C40.9199 85.9573 42.3974 84.4799 44.2199 84.4799H87.7799C89.6025 84.4799 91.0799 85.9573 91.0799 87.7799C91.0799 89.6024 89.6025 91.0799 87.7799 91.0799H44.2199C42.3974 91.0799 40.9199 89.6024 40.9199 87.7799Z" fill="#919EAB"/>
</g>
<g opacity="0.48">
<path d="M40.9199 40.26C40.9199 38.4374 42.3974 36.96 44.2199 36.96H64.0199C65.8425 36.96 67.3199 38.4374 67.3199 40.26C67.3199 42.0825 65.8425 43.56 64.0199 43.56H44.2199C42.3974 43.56 40.9199 42.0825 40.9199 40.26Z" fill="#919EAB"/>
<path d="M40.9199 64.02C40.9199 62.1974 42.3974 60.72 44.2199 60.72H64.0199C65.8425 60.72 67.3199 62.1974 67.3199 64.02C67.3199 65.8425 65.8425 67.32 64.0199 67.32H44.2199C42.3974 67.32 40.9199 65.8425 40.9199 64.02Z" fill="#919EAB"/>
<path d="M40.9199 52.14C40.9199 50.3174 42.3974 48.84 44.2199 48.84H64.0199C65.8425 48.84 67.3199 50.3174 67.3199 52.14C67.3199 53.9625 65.8425 55.44 64.0199 55.44H44.2199C42.3974 55.44 40.9199 53.9625 40.9199 52.14Z" fill="#919EAB"/>
</g>
<path d="M88.7639 52.3083C89.1435 51.9527 89.7465 52.2194 89.7465 52.7306C89.7465 56.6197 86.5755 59.7532 82.6676 59.7532H79.6753V62.0644C79.6753 62.6644 79.0277 63.02 78.5141 62.7089L70.9886 58.1309C70.4973 57.842 70.4973 57.1308 70.9886 56.8419L78.4917 52.2639C79.0053 51.9527 79.6529 52.3305 79.6529 52.9083V55.2418H82.4889C84.4764 55.2418 86.3968 54.4862 87.8483 53.1528L88.7639 52.3083ZM81.953 42.4633C81.953 41.8633 82.6006 41.5077 83.1142 41.8188L90.6174 46.3969C91.1086 46.6858 91.1086 47.3969 90.6174 47.6858L83.1365 52.2416C82.6229 52.5528 81.9753 52.175 81.9753 51.5972V49.2859H79.117C77.1296 49.2859 75.2091 50.0415 73.7576 51.3749L72.842 52.2194C72.4847 52.5528 71.8818 52.2861 71.8818 51.7972L71.8828 51.6807C71.9453 47.8457 75.0919 44.7745 78.9607 44.7745H81.953V42.4633Z" fill="#919EAB"/>
</svg>
