<svg width="24" height="24" viewBox="0 0 24 24" fill="none" xmlns="http://www.w3.org/2000/svg">
<path fill-rule="evenodd" clip-rule="evenodd" d="M0.00015 4.6461L7.0599 0L12.0001 4.15621L12 4.15631L12 4.15632L4.8819 8.58613L0.00015 4.6461ZM19.1181 8.58608L12 4.15632L12.0001 4.15624L12.0001 4.15621L16.9403 7.55e-05L24 4.64617L19.1182 8.58621L19.1181 8.58605L19.1181 8.58608ZM19.1181 8.58608L19.1182 8.58621L23.9998 12.5268L16.9401 17.1729L11.9999 13.0167L7.05975 17.1729L0 12.5268L4.88175 8.58674L12 13.0166L19.1181 8.58608ZM12.0142 13.9109L7.0597 18.055L4.93945 16.6595V18.2236L12.0142 22.5L19.089 18.2236V16.6595L16.9687 18.055L12.0142 13.9109Z" fill="#0F82E2"/>
</svg>
