<svg width="78" height="32" viewBox="0 0 78 32" fill="none" xmlns="http://www.w3.org/2000/svg">
<path d="M14.1609 0.331034H22.8046V31.6322H14.1609V20.046H8.64368V31.6322H0V0.331034H8.64368V12.1379H14.1609V0.331034ZM77.6092 16C77.6092 24.8276 70.4368 32 61.6092 32C54.823 32 49.0115 27.7517 46.6943 21.7931C46.7127 21.9954 46.7127 22.2161 46.7127 22.4368C46.7127 32 38.4368 31.6322 38.4368 31.6322H24.6437V0.331034H37.8851C40.2759 0.331034 47.0805 1.63678 47.0805 8.33103C47.0805 8.69885 47.0621 9.04827 47.0437 9.37931C49.5632 3.84368 55.154 0 61.6092 0C70.4368 0 77.6092 7.17241 77.6092 16ZM38.8046 21.7011C38.8046 19.4943 36.9655 19.4943 36.9655 19.4943H32.3678V24.2759H36.9655C36.9655 24.2759 38.8046 24.092 38.8046 21.7011ZM38.8046 10.2069C38.8046 7.94483 36.9655 7.96322 36.9655 7.96322H32.3678V12.6897H36.9655C36.9655 12.6897 38.8046 12.469 38.8046 10.2069ZM45.8115 18.5011C45.6828 17.692 45.6092 16.846 45.6092 16C45.6092 15.154 45.6828 14.3448 45.7931 13.5356C44.8736 14.9149 43.5862 15.4851 42.4828 15.6874C41.3793 15.8897 44.2667 15.7977 45.8115 18.5011ZM69.5172 16C69.5172 11.6414 65.9678 8.09195 61.6092 8.09195C57.2506 8.09195 53.7012 11.6414 53.7012 16C53.7012 20.3586 57.2506 23.908 61.6092 23.908C65.9678 23.908 69.5172 20.3586 69.5172 16ZM61.6092 9.56322C58.0598 9.56322 55.1724 12.4506 55.1724 16C55.1724 19.5494 58.0598 22.4368 61.6092 22.4368C65.1586 22.4368 68.046 19.5494 68.046 16C68.046 12.4506 65.1586 9.56322 61.6092 9.56322Z" fill="white"/>
</svg>
