<svg width="132" height="132" viewBox="0 0 132 132" fill="none" xmlns="http://www.w3.org/2000/svg">
<rect opacity="0.24" x="15.8398" y="47.52" width="100.32" height="36.96" rx="18.48" fill="#919EAB"/>
<rect opacity="0.48" x="54.1201" y="61.3799" width="43.56" height="9.24" rx="4.62" fill="#919EAB"/>
<path fill-rule="evenodd" clip-rule="evenodd" d="M48.8398 66C48.8398 74.0192 42.339 80.52 34.3198 80.52C26.3006 80.52 19.7998 74.0192 19.7998 66C19.7998 57.9808 26.3006 51.48 34.3198 51.48C42.339 51.48 48.8398 57.9808 48.8398 66ZM31.302 72.3422L33.9653 70.9338C34.1871 70.8165 34.4524 70.8165 34.6742 70.9338L37.3375 72.3422C37.5395 72.449 37.7708 72.4858 37.9957 72.447C38.5604 72.3496 38.9397 71.8101 38.8428 71.2421L38.3332 68.2531C38.2914 68.0081 38.3723 67.7583 38.5497 67.5843L40.7079 65.4682C40.8713 65.3081 40.9776 65.0981 41.0104 64.871C41.0928 64.3007 40.7 63.7711 40.1329 63.6883L37.1541 63.2529C36.9068 63.2167 36.6932 63.061 36.5831 62.8366L35.2501 60.1198C35.1491 59.914 34.9835 59.7474 34.7789 59.6459C34.2651 59.3908 33.643 59.603 33.3894 60.1198L32.0564 62.8366C31.9463 63.061 31.7327 63.2167 31.4854 63.2529L28.5065 63.6883C28.2808 63.7213 28.0721 63.8282 27.9128 63.9926C27.5129 64.4053 27.5213 65.066 27.9316 65.4682L30.0897 67.5843C30.2672 67.7583 30.3481 68.0081 30.3063 68.2531L29.7967 71.2421C29.7581 71.4683 29.7947 71.701 29.9009 71.9041C30.1675 72.4143 30.7948 72.6104 31.302 72.3422Z" fill="#919EAB"/>
</svg>
