<svg width="40" height="56" viewBox="0 0 40 56" fill="none" xmlns="http://www.w3.org/2000/svg">
<path d="M37.6419 19.6831C39.2078 22.3933 27.2226 51.1216 27.2828 53.0488C27.2828 53.0488 27.2828 53.0488 27.2828 53.1091C28.7885 55.5181 24.5124 57.2647 23.9101 54.4943C23.7294 54.4943 23.5488 54.4943 23.3681 54.4341C23.4885 54.3738 23.6692 54.3136 23.8499 54.1931C23.7897 53.1091 24.5726 52.2659 25.5965 52.2057C26.5601 49.375 35.8351 21.4899 36.0157 21.1285C36.0157 21.1285 35.7146 19.0206 34.9317 17.6956C36.0157 18.1172 36.9794 18.7194 37.6419 19.6831ZM39.0873 1.97635C38.9066 2.27748 28.6078 -2.78159 30.3544 2.21725L25.5362 14.9854C26.1385 15.1661 26.7408 15.3467 27.3431 15.4672C28.3669 12.3354 31.4987 2.87975 31.7999 2.0968C32.101 1.19339 35.4135 2.57862 36.6782 2.93998C37.6419 3.18089 37.3407 4.14452 37.3407 4.14452L32.8839 17.0331C33.4862 17.2138 33.968 17.3342 34.3896 17.4547L38.4248 4.68656C40.9544 2.15703 39.0873 1.97635 39.0873 1.97635ZM1.80681 44.4364C-0.60227 44.4364 -0.60227 48.1704 1.80681 48.1704C4.21589 48.1704 4.21589 44.4364 1.80681 44.4364ZM19.9351 52.2659C17.5261 52.2659 17.5261 56 19.9351 56C22.3442 56 22.3442 52.2659 19.9351 52.2659Z" fill="#004B50"/>
</svg>
