<svg width="24" height="24" viewBox="0 0 24 24" fill="none" xmlns="http://www.w3.org/2000/svg">
<path d="M17.5607 21C17.4008 21.0006 17.2431 20.9629 17.1007 20.89L12.0007 18.22L6.90074 20.89C6.73513 20.977 6.54842 21.0159 6.36182 21.0022C6.17522 20.9884 5.99622 20.9226 5.84517 20.8122C5.69412 20.7017 5.57708 20.5511 5.50735 20.3775C5.43763 20.2039 5.41801 20.0142 5.45074 19.83L6.45074 14.2L2.33074 10.2C2.2022 10.0717 2.11101 9.91083 2.06697 9.73465C2.02292 9.55848 2.02768 9.37363 2.08074 9.19996C2.1387 9.02223 2.24532 8.86431 2.38849 8.74412C2.53166 8.62392 2.70566 8.54627 2.89074 8.51996L8.59074 7.68996L11.1007 2.55996C11.1826 2.39089 11.3105 2.2483 11.4697 2.14853C11.6288 2.04876 11.8129 1.99585 12.0007 1.99585C12.1886 1.99585 12.3727 2.04876 12.5318 2.14853C12.691 2.2483 12.8189 2.39089 12.9007 2.55996L15.4407 7.67996L21.1407 8.50996C21.3258 8.53627 21.4998 8.61392 21.643 8.73412C21.7862 8.85431 21.8928 9.01223 21.9507 9.18996C22.0038 9.36363 22.0086 9.54848 21.9645 9.72465C21.9205 9.90083 21.8293 10.0617 21.7007 10.19L17.5807 14.19L18.5807 19.82C18.6164 20.0074 18.5977 20.2012 18.5269 20.3784C18.456 20.5556 18.3359 20.7088 18.1807 20.82C17.9997 20.9469 17.7816 21.0102 17.5607 21Z" fill="#637381"/>
</svg>
